G04 #@! TF.GenerationSoftware,KiCad,Pcbnew,(5.0.0)*
G04 #@! TF.CreationDate,2018-10-11T10:24:37-05:00*
G04 #@! TF.ProjectId,DriveBoard_Hardware,4472697665426F6172645F4861726477,rev?*
G04 #@! TF.SameCoordinates,Original*
G04 #@! TF.FileFunction,Paste,Top*
G04 #@! TF.FilePolarity,Positive*
%FSLAX46Y46*%
G04 Gerber Fmt 4.6, Leading zero omitted, Abs format (unit mm)*
G04 Created by KiCad (PCBNEW (5.0.0)) date 10/11/18 10:24:37*
%MOMM*%
%LPD*%
G01*
G04 APERTURE LIST*
%ADD10C,0.100000*%
%ADD11C,0.950000*%
%ADD12C,5.080000*%
%ADD13C,1.520000*%
%ADD14R,1.500000X0.600000*%
G04 APERTURE END LIST*
D10*
G04 #@! TO.C,C1*
G36*
X99193779Y-93481544D02*
X99216834Y-93484963D01*
X99239443Y-93490627D01*
X99261387Y-93498479D01*
X99282457Y-93508444D01*
X99302448Y-93520426D01*
X99321168Y-93534310D01*
X99338438Y-93549962D01*
X99354090Y-93567232D01*
X99367974Y-93585952D01*
X99379956Y-93605943D01*
X99389921Y-93627013D01*
X99397773Y-93648957D01*
X99403437Y-93671566D01*
X99406856Y-93694621D01*
X99408000Y-93717900D01*
X99408000Y-94292900D01*
X99406856Y-94316179D01*
X99403437Y-94339234D01*
X99397773Y-94361843D01*
X99389921Y-94383787D01*
X99379956Y-94404857D01*
X99367974Y-94424848D01*
X99354090Y-94443568D01*
X99338438Y-94460838D01*
X99321168Y-94476490D01*
X99302448Y-94490374D01*
X99282457Y-94502356D01*
X99261387Y-94512321D01*
X99239443Y-94520173D01*
X99216834Y-94525837D01*
X99193779Y-94529256D01*
X99170500Y-94530400D01*
X98695500Y-94530400D01*
X98672221Y-94529256D01*
X98649166Y-94525837D01*
X98626557Y-94520173D01*
X98604613Y-94512321D01*
X98583543Y-94502356D01*
X98563552Y-94490374D01*
X98544832Y-94476490D01*
X98527562Y-94460838D01*
X98511910Y-94443568D01*
X98498026Y-94424848D01*
X98486044Y-94404857D01*
X98476079Y-94383787D01*
X98468227Y-94361843D01*
X98462563Y-94339234D01*
X98459144Y-94316179D01*
X98458000Y-94292900D01*
X98458000Y-93717900D01*
X98459144Y-93694621D01*
X98462563Y-93671566D01*
X98468227Y-93648957D01*
X98476079Y-93627013D01*
X98486044Y-93605943D01*
X98498026Y-93585952D01*
X98511910Y-93567232D01*
X98527562Y-93549962D01*
X98544832Y-93534310D01*
X98563552Y-93520426D01*
X98583543Y-93508444D01*
X98604613Y-93498479D01*
X98626557Y-93490627D01*
X98649166Y-93484963D01*
X98672221Y-93481544D01*
X98695500Y-93480400D01*
X99170500Y-93480400D01*
X99193779Y-93481544D01*
X99193779Y-93481544D01*
G37*
D11*
X98933000Y-94005400D03*
D10*
G36*
X99193779Y-91731544D02*
X99216834Y-91734963D01*
X99239443Y-91740627D01*
X99261387Y-91748479D01*
X99282457Y-91758444D01*
X99302448Y-91770426D01*
X99321168Y-91784310D01*
X99338438Y-91799962D01*
X99354090Y-91817232D01*
X99367974Y-91835952D01*
X99379956Y-91855943D01*
X99389921Y-91877013D01*
X99397773Y-91898957D01*
X99403437Y-91921566D01*
X99406856Y-91944621D01*
X99408000Y-91967900D01*
X99408000Y-92542900D01*
X99406856Y-92566179D01*
X99403437Y-92589234D01*
X99397773Y-92611843D01*
X99389921Y-92633787D01*
X99379956Y-92654857D01*
X99367974Y-92674848D01*
X99354090Y-92693568D01*
X99338438Y-92710838D01*
X99321168Y-92726490D01*
X99302448Y-92740374D01*
X99282457Y-92752356D01*
X99261387Y-92762321D01*
X99239443Y-92770173D01*
X99216834Y-92775837D01*
X99193779Y-92779256D01*
X99170500Y-92780400D01*
X98695500Y-92780400D01*
X98672221Y-92779256D01*
X98649166Y-92775837D01*
X98626557Y-92770173D01*
X98604613Y-92762321D01*
X98583543Y-92752356D01*
X98563552Y-92740374D01*
X98544832Y-92726490D01*
X98527562Y-92710838D01*
X98511910Y-92693568D01*
X98498026Y-92674848D01*
X98486044Y-92654857D01*
X98476079Y-92633787D01*
X98468227Y-92611843D01*
X98462563Y-92589234D01*
X98459144Y-92566179D01*
X98458000Y-92542900D01*
X98458000Y-91967900D01*
X98459144Y-91944621D01*
X98462563Y-91921566D01*
X98468227Y-91898957D01*
X98476079Y-91877013D01*
X98486044Y-91855943D01*
X98498026Y-91835952D01*
X98511910Y-91817232D01*
X98527562Y-91799962D01*
X98544832Y-91784310D01*
X98563552Y-91770426D01*
X98583543Y-91758444D01*
X98604613Y-91748479D01*
X98626557Y-91740627D01*
X98649166Y-91734963D01*
X98672221Y-91731544D01*
X98695500Y-91730400D01*
X99170500Y-91730400D01*
X99193779Y-91731544D01*
X99193779Y-91731544D01*
G37*
D11*
X98933000Y-92255400D03*
G04 #@! TD*
D10*
G04 #@! TO.C,C2*
G36*
X97705779Y-103666144D02*
X97728834Y-103669563D01*
X97751443Y-103675227D01*
X97773387Y-103683079D01*
X97794457Y-103693044D01*
X97814448Y-103705026D01*
X97833168Y-103718910D01*
X97850438Y-103734562D01*
X97866090Y-103751832D01*
X97879974Y-103770552D01*
X97891956Y-103790543D01*
X97901921Y-103811613D01*
X97909773Y-103833557D01*
X97915437Y-103856166D01*
X97918856Y-103879221D01*
X97920000Y-103902500D01*
X97920000Y-104377500D01*
X97918856Y-104400779D01*
X97915437Y-104423834D01*
X97909773Y-104446443D01*
X97901921Y-104468387D01*
X97891956Y-104489457D01*
X97879974Y-104509448D01*
X97866090Y-104528168D01*
X97850438Y-104545438D01*
X97833168Y-104561090D01*
X97814448Y-104574974D01*
X97794457Y-104586956D01*
X97773387Y-104596921D01*
X97751443Y-104604773D01*
X97728834Y-104610437D01*
X97705779Y-104613856D01*
X97682500Y-104615000D01*
X97107500Y-104615000D01*
X97084221Y-104613856D01*
X97061166Y-104610437D01*
X97038557Y-104604773D01*
X97016613Y-104596921D01*
X96995543Y-104586956D01*
X96975552Y-104574974D01*
X96956832Y-104561090D01*
X96939562Y-104545438D01*
X96923910Y-104528168D01*
X96910026Y-104509448D01*
X96898044Y-104489457D01*
X96888079Y-104468387D01*
X96880227Y-104446443D01*
X96874563Y-104423834D01*
X96871144Y-104400779D01*
X96870000Y-104377500D01*
X96870000Y-103902500D01*
X96871144Y-103879221D01*
X96874563Y-103856166D01*
X96880227Y-103833557D01*
X96888079Y-103811613D01*
X96898044Y-103790543D01*
X96910026Y-103770552D01*
X96923910Y-103751832D01*
X96939562Y-103734562D01*
X96956832Y-103718910D01*
X96975552Y-103705026D01*
X96995543Y-103693044D01*
X97016613Y-103683079D01*
X97038557Y-103675227D01*
X97061166Y-103669563D01*
X97084221Y-103666144D01*
X97107500Y-103665000D01*
X97682500Y-103665000D01*
X97705779Y-103666144D01*
X97705779Y-103666144D01*
G37*
D11*
X97395000Y-104140000D03*
D10*
G36*
X95955779Y-103666144D02*
X95978834Y-103669563D01*
X96001443Y-103675227D01*
X96023387Y-103683079D01*
X96044457Y-103693044D01*
X96064448Y-103705026D01*
X96083168Y-103718910D01*
X96100438Y-103734562D01*
X96116090Y-103751832D01*
X96129974Y-103770552D01*
X96141956Y-103790543D01*
X96151921Y-103811613D01*
X96159773Y-103833557D01*
X96165437Y-103856166D01*
X96168856Y-103879221D01*
X96170000Y-103902500D01*
X96170000Y-104377500D01*
X96168856Y-104400779D01*
X96165437Y-104423834D01*
X96159773Y-104446443D01*
X96151921Y-104468387D01*
X96141956Y-104489457D01*
X96129974Y-104509448D01*
X96116090Y-104528168D01*
X96100438Y-104545438D01*
X96083168Y-104561090D01*
X96064448Y-104574974D01*
X96044457Y-104586956D01*
X96023387Y-104596921D01*
X96001443Y-104604773D01*
X95978834Y-104610437D01*
X95955779Y-104613856D01*
X95932500Y-104615000D01*
X95357500Y-104615000D01*
X95334221Y-104613856D01*
X95311166Y-104610437D01*
X95288557Y-104604773D01*
X95266613Y-104596921D01*
X95245543Y-104586956D01*
X95225552Y-104574974D01*
X95206832Y-104561090D01*
X95189562Y-104545438D01*
X95173910Y-104528168D01*
X95160026Y-104509448D01*
X95148044Y-104489457D01*
X95138079Y-104468387D01*
X95130227Y-104446443D01*
X95124563Y-104423834D01*
X95121144Y-104400779D01*
X95120000Y-104377500D01*
X95120000Y-103902500D01*
X95121144Y-103879221D01*
X95124563Y-103856166D01*
X95130227Y-103833557D01*
X95138079Y-103811613D01*
X95148044Y-103790543D01*
X95160026Y-103770552D01*
X95173910Y-103751832D01*
X95189562Y-103734562D01*
X95206832Y-103718910D01*
X95225552Y-103705026D01*
X95245543Y-103693044D01*
X95266613Y-103683079D01*
X95288557Y-103675227D01*
X95311166Y-103669563D01*
X95334221Y-103666144D01*
X95357500Y-103665000D01*
X95932500Y-103665000D01*
X95955779Y-103666144D01*
X95955779Y-103666144D01*
G37*
D11*
X95645000Y-104140000D03*
G04 #@! TD*
D10*
G04 #@! TO.C,C3*
G36*
X118053779Y-72424144D02*
X118076834Y-72427563D01*
X118099443Y-72433227D01*
X118121387Y-72441079D01*
X118142457Y-72451044D01*
X118162448Y-72463026D01*
X118181168Y-72476910D01*
X118198438Y-72492562D01*
X118214090Y-72509832D01*
X118227974Y-72528552D01*
X118239956Y-72548543D01*
X118249921Y-72569613D01*
X118257773Y-72591557D01*
X118263437Y-72614166D01*
X118266856Y-72637221D01*
X118268000Y-72660500D01*
X118268000Y-73135500D01*
X118266856Y-73158779D01*
X118263437Y-73181834D01*
X118257773Y-73204443D01*
X118249921Y-73226387D01*
X118239956Y-73247457D01*
X118227974Y-73267448D01*
X118214090Y-73286168D01*
X118198438Y-73303438D01*
X118181168Y-73319090D01*
X118162448Y-73332974D01*
X118142457Y-73344956D01*
X118121387Y-73354921D01*
X118099443Y-73362773D01*
X118076834Y-73368437D01*
X118053779Y-73371856D01*
X118030500Y-73373000D01*
X117455500Y-73373000D01*
X117432221Y-73371856D01*
X117409166Y-73368437D01*
X117386557Y-73362773D01*
X117364613Y-73354921D01*
X117343543Y-73344956D01*
X117323552Y-73332974D01*
X117304832Y-73319090D01*
X117287562Y-73303438D01*
X117271910Y-73286168D01*
X117258026Y-73267448D01*
X117246044Y-73247457D01*
X117236079Y-73226387D01*
X117228227Y-73204443D01*
X117222563Y-73181834D01*
X117219144Y-73158779D01*
X117218000Y-73135500D01*
X117218000Y-72660500D01*
X117219144Y-72637221D01*
X117222563Y-72614166D01*
X117228227Y-72591557D01*
X117236079Y-72569613D01*
X117246044Y-72548543D01*
X117258026Y-72528552D01*
X117271910Y-72509832D01*
X117287562Y-72492562D01*
X117304832Y-72476910D01*
X117323552Y-72463026D01*
X117343543Y-72451044D01*
X117364613Y-72441079D01*
X117386557Y-72433227D01*
X117409166Y-72427563D01*
X117432221Y-72424144D01*
X117455500Y-72423000D01*
X118030500Y-72423000D01*
X118053779Y-72424144D01*
X118053779Y-72424144D01*
G37*
D11*
X117743000Y-72898000D03*
D10*
G36*
X119803779Y-72424144D02*
X119826834Y-72427563D01*
X119849443Y-72433227D01*
X119871387Y-72441079D01*
X119892457Y-72451044D01*
X119912448Y-72463026D01*
X119931168Y-72476910D01*
X119948438Y-72492562D01*
X119964090Y-72509832D01*
X119977974Y-72528552D01*
X119989956Y-72548543D01*
X119999921Y-72569613D01*
X120007773Y-72591557D01*
X120013437Y-72614166D01*
X120016856Y-72637221D01*
X120018000Y-72660500D01*
X120018000Y-73135500D01*
X120016856Y-73158779D01*
X120013437Y-73181834D01*
X120007773Y-73204443D01*
X119999921Y-73226387D01*
X119989956Y-73247457D01*
X119977974Y-73267448D01*
X119964090Y-73286168D01*
X119948438Y-73303438D01*
X119931168Y-73319090D01*
X119912448Y-73332974D01*
X119892457Y-73344956D01*
X119871387Y-73354921D01*
X119849443Y-73362773D01*
X119826834Y-73368437D01*
X119803779Y-73371856D01*
X119780500Y-73373000D01*
X119205500Y-73373000D01*
X119182221Y-73371856D01*
X119159166Y-73368437D01*
X119136557Y-73362773D01*
X119114613Y-73354921D01*
X119093543Y-73344956D01*
X119073552Y-73332974D01*
X119054832Y-73319090D01*
X119037562Y-73303438D01*
X119021910Y-73286168D01*
X119008026Y-73267448D01*
X118996044Y-73247457D01*
X118986079Y-73226387D01*
X118978227Y-73204443D01*
X118972563Y-73181834D01*
X118969144Y-73158779D01*
X118968000Y-73135500D01*
X118968000Y-72660500D01*
X118969144Y-72637221D01*
X118972563Y-72614166D01*
X118978227Y-72591557D01*
X118986079Y-72569613D01*
X118996044Y-72548543D01*
X119008026Y-72528552D01*
X119021910Y-72509832D01*
X119037562Y-72492562D01*
X119054832Y-72476910D01*
X119073552Y-72463026D01*
X119093543Y-72451044D01*
X119114613Y-72441079D01*
X119136557Y-72433227D01*
X119159166Y-72427563D01*
X119182221Y-72424144D01*
X119205500Y-72423000D01*
X119780500Y-72423000D01*
X119803779Y-72424144D01*
X119803779Y-72424144D01*
G37*
D11*
X119493000Y-72898000D03*
G04 #@! TD*
D10*
G04 #@! TO.C,C4*
G36*
X98154179Y-95868344D02*
X98177234Y-95871763D01*
X98199843Y-95877427D01*
X98221787Y-95885279D01*
X98242857Y-95895244D01*
X98262848Y-95907226D01*
X98281568Y-95921110D01*
X98298838Y-95936762D01*
X98314490Y-95954032D01*
X98328374Y-95972752D01*
X98340356Y-95992743D01*
X98350321Y-96013813D01*
X98358173Y-96035757D01*
X98363837Y-96058366D01*
X98367256Y-96081421D01*
X98368400Y-96104700D01*
X98368400Y-96579700D01*
X98367256Y-96602979D01*
X98363837Y-96626034D01*
X98358173Y-96648643D01*
X98350321Y-96670587D01*
X98340356Y-96691657D01*
X98328374Y-96711648D01*
X98314490Y-96730368D01*
X98298838Y-96747638D01*
X98281568Y-96763290D01*
X98262848Y-96777174D01*
X98242857Y-96789156D01*
X98221787Y-96799121D01*
X98199843Y-96806973D01*
X98177234Y-96812637D01*
X98154179Y-96816056D01*
X98130900Y-96817200D01*
X97555900Y-96817200D01*
X97532621Y-96816056D01*
X97509566Y-96812637D01*
X97486957Y-96806973D01*
X97465013Y-96799121D01*
X97443943Y-96789156D01*
X97423952Y-96777174D01*
X97405232Y-96763290D01*
X97387962Y-96747638D01*
X97372310Y-96730368D01*
X97358426Y-96711648D01*
X97346444Y-96691657D01*
X97336479Y-96670587D01*
X97328627Y-96648643D01*
X97322963Y-96626034D01*
X97319544Y-96602979D01*
X97318400Y-96579700D01*
X97318400Y-96104700D01*
X97319544Y-96081421D01*
X97322963Y-96058366D01*
X97328627Y-96035757D01*
X97336479Y-96013813D01*
X97346444Y-95992743D01*
X97358426Y-95972752D01*
X97372310Y-95954032D01*
X97387962Y-95936762D01*
X97405232Y-95921110D01*
X97423952Y-95907226D01*
X97443943Y-95895244D01*
X97465013Y-95885279D01*
X97486957Y-95877427D01*
X97509566Y-95871763D01*
X97532621Y-95868344D01*
X97555900Y-95867200D01*
X98130900Y-95867200D01*
X98154179Y-95868344D01*
X98154179Y-95868344D01*
G37*
D11*
X97843400Y-96342200D03*
D10*
G36*
X99904179Y-95868344D02*
X99927234Y-95871763D01*
X99949843Y-95877427D01*
X99971787Y-95885279D01*
X99992857Y-95895244D01*
X100012848Y-95907226D01*
X100031568Y-95921110D01*
X100048838Y-95936762D01*
X100064490Y-95954032D01*
X100078374Y-95972752D01*
X100090356Y-95992743D01*
X100100321Y-96013813D01*
X100108173Y-96035757D01*
X100113837Y-96058366D01*
X100117256Y-96081421D01*
X100118400Y-96104700D01*
X100118400Y-96579700D01*
X100117256Y-96602979D01*
X100113837Y-96626034D01*
X100108173Y-96648643D01*
X100100321Y-96670587D01*
X100090356Y-96691657D01*
X100078374Y-96711648D01*
X100064490Y-96730368D01*
X100048838Y-96747638D01*
X100031568Y-96763290D01*
X100012848Y-96777174D01*
X99992857Y-96789156D01*
X99971787Y-96799121D01*
X99949843Y-96806973D01*
X99927234Y-96812637D01*
X99904179Y-96816056D01*
X99880900Y-96817200D01*
X99305900Y-96817200D01*
X99282621Y-96816056D01*
X99259566Y-96812637D01*
X99236957Y-96806973D01*
X99215013Y-96799121D01*
X99193943Y-96789156D01*
X99173952Y-96777174D01*
X99155232Y-96763290D01*
X99137962Y-96747638D01*
X99122310Y-96730368D01*
X99108426Y-96711648D01*
X99096444Y-96691657D01*
X99086479Y-96670587D01*
X99078627Y-96648643D01*
X99072963Y-96626034D01*
X99069544Y-96602979D01*
X99068400Y-96579700D01*
X99068400Y-96104700D01*
X99069544Y-96081421D01*
X99072963Y-96058366D01*
X99078627Y-96035757D01*
X99086479Y-96013813D01*
X99096444Y-95992743D01*
X99108426Y-95972752D01*
X99122310Y-95954032D01*
X99137962Y-95936762D01*
X99155232Y-95921110D01*
X99173952Y-95907226D01*
X99193943Y-95895244D01*
X99215013Y-95885279D01*
X99236957Y-95877427D01*
X99259566Y-95871763D01*
X99282621Y-95868344D01*
X99305900Y-95867200D01*
X99880900Y-95867200D01*
X99904179Y-95868344D01*
X99904179Y-95868344D01*
G37*
D11*
X99593400Y-96342200D03*
G04 #@! TD*
D10*
G04 #@! TO.C,C5*
G36*
X97705779Y-99856144D02*
X97728834Y-99859563D01*
X97751443Y-99865227D01*
X97773387Y-99873079D01*
X97794457Y-99883044D01*
X97814448Y-99895026D01*
X97833168Y-99908910D01*
X97850438Y-99924562D01*
X97866090Y-99941832D01*
X97879974Y-99960552D01*
X97891956Y-99980543D01*
X97901921Y-100001613D01*
X97909773Y-100023557D01*
X97915437Y-100046166D01*
X97918856Y-100069221D01*
X97920000Y-100092500D01*
X97920000Y-100567500D01*
X97918856Y-100590779D01*
X97915437Y-100613834D01*
X97909773Y-100636443D01*
X97901921Y-100658387D01*
X97891956Y-100679457D01*
X97879974Y-100699448D01*
X97866090Y-100718168D01*
X97850438Y-100735438D01*
X97833168Y-100751090D01*
X97814448Y-100764974D01*
X97794457Y-100776956D01*
X97773387Y-100786921D01*
X97751443Y-100794773D01*
X97728834Y-100800437D01*
X97705779Y-100803856D01*
X97682500Y-100805000D01*
X97107500Y-100805000D01*
X97084221Y-100803856D01*
X97061166Y-100800437D01*
X97038557Y-100794773D01*
X97016613Y-100786921D01*
X96995543Y-100776956D01*
X96975552Y-100764974D01*
X96956832Y-100751090D01*
X96939562Y-100735438D01*
X96923910Y-100718168D01*
X96910026Y-100699448D01*
X96898044Y-100679457D01*
X96888079Y-100658387D01*
X96880227Y-100636443D01*
X96874563Y-100613834D01*
X96871144Y-100590779D01*
X96870000Y-100567500D01*
X96870000Y-100092500D01*
X96871144Y-100069221D01*
X96874563Y-100046166D01*
X96880227Y-100023557D01*
X96888079Y-100001613D01*
X96898044Y-99980543D01*
X96910026Y-99960552D01*
X96923910Y-99941832D01*
X96939562Y-99924562D01*
X96956832Y-99908910D01*
X96975552Y-99895026D01*
X96995543Y-99883044D01*
X97016613Y-99873079D01*
X97038557Y-99865227D01*
X97061166Y-99859563D01*
X97084221Y-99856144D01*
X97107500Y-99855000D01*
X97682500Y-99855000D01*
X97705779Y-99856144D01*
X97705779Y-99856144D01*
G37*
D11*
X97395000Y-100330000D03*
D10*
G36*
X95955779Y-99856144D02*
X95978834Y-99859563D01*
X96001443Y-99865227D01*
X96023387Y-99873079D01*
X96044457Y-99883044D01*
X96064448Y-99895026D01*
X96083168Y-99908910D01*
X96100438Y-99924562D01*
X96116090Y-99941832D01*
X96129974Y-99960552D01*
X96141956Y-99980543D01*
X96151921Y-100001613D01*
X96159773Y-100023557D01*
X96165437Y-100046166D01*
X96168856Y-100069221D01*
X96170000Y-100092500D01*
X96170000Y-100567500D01*
X96168856Y-100590779D01*
X96165437Y-100613834D01*
X96159773Y-100636443D01*
X96151921Y-100658387D01*
X96141956Y-100679457D01*
X96129974Y-100699448D01*
X96116090Y-100718168D01*
X96100438Y-100735438D01*
X96083168Y-100751090D01*
X96064448Y-100764974D01*
X96044457Y-100776956D01*
X96023387Y-100786921D01*
X96001443Y-100794773D01*
X95978834Y-100800437D01*
X95955779Y-100803856D01*
X95932500Y-100805000D01*
X95357500Y-100805000D01*
X95334221Y-100803856D01*
X95311166Y-100800437D01*
X95288557Y-100794773D01*
X95266613Y-100786921D01*
X95245543Y-100776956D01*
X95225552Y-100764974D01*
X95206832Y-100751090D01*
X95189562Y-100735438D01*
X95173910Y-100718168D01*
X95160026Y-100699448D01*
X95148044Y-100679457D01*
X95138079Y-100658387D01*
X95130227Y-100636443D01*
X95124563Y-100613834D01*
X95121144Y-100590779D01*
X95120000Y-100567500D01*
X95120000Y-100092500D01*
X95121144Y-100069221D01*
X95124563Y-100046166D01*
X95130227Y-100023557D01*
X95138079Y-100001613D01*
X95148044Y-99980543D01*
X95160026Y-99960552D01*
X95173910Y-99941832D01*
X95189562Y-99924562D01*
X95206832Y-99908910D01*
X95225552Y-99895026D01*
X95245543Y-99883044D01*
X95266613Y-99873079D01*
X95288557Y-99865227D01*
X95311166Y-99859563D01*
X95334221Y-99856144D01*
X95357500Y-99855000D01*
X95932500Y-99855000D01*
X95955779Y-99856144D01*
X95955779Y-99856144D01*
G37*
D11*
X95645000Y-100330000D03*
G04 #@! TD*
D10*
G04 #@! TO.C,C6*
G36*
X123577779Y-71499144D02*
X123600834Y-71502563D01*
X123623443Y-71508227D01*
X123645387Y-71516079D01*
X123666457Y-71526044D01*
X123686448Y-71538026D01*
X123705168Y-71551910D01*
X123722438Y-71567562D01*
X123738090Y-71584832D01*
X123751974Y-71603552D01*
X123763956Y-71623543D01*
X123773921Y-71644613D01*
X123781773Y-71666557D01*
X123787437Y-71689166D01*
X123790856Y-71712221D01*
X123792000Y-71735500D01*
X123792000Y-72310500D01*
X123790856Y-72333779D01*
X123787437Y-72356834D01*
X123781773Y-72379443D01*
X123773921Y-72401387D01*
X123763956Y-72422457D01*
X123751974Y-72442448D01*
X123738090Y-72461168D01*
X123722438Y-72478438D01*
X123705168Y-72494090D01*
X123686448Y-72507974D01*
X123666457Y-72519956D01*
X123645387Y-72529921D01*
X123623443Y-72537773D01*
X123600834Y-72543437D01*
X123577779Y-72546856D01*
X123554500Y-72548000D01*
X123079500Y-72548000D01*
X123056221Y-72546856D01*
X123033166Y-72543437D01*
X123010557Y-72537773D01*
X122988613Y-72529921D01*
X122967543Y-72519956D01*
X122947552Y-72507974D01*
X122928832Y-72494090D01*
X122911562Y-72478438D01*
X122895910Y-72461168D01*
X122882026Y-72442448D01*
X122870044Y-72422457D01*
X122860079Y-72401387D01*
X122852227Y-72379443D01*
X122846563Y-72356834D01*
X122843144Y-72333779D01*
X122842000Y-72310500D01*
X122842000Y-71735500D01*
X122843144Y-71712221D01*
X122846563Y-71689166D01*
X122852227Y-71666557D01*
X122860079Y-71644613D01*
X122870044Y-71623543D01*
X122882026Y-71603552D01*
X122895910Y-71584832D01*
X122911562Y-71567562D01*
X122928832Y-71551910D01*
X122947552Y-71538026D01*
X122967543Y-71526044D01*
X122988613Y-71516079D01*
X123010557Y-71508227D01*
X123033166Y-71502563D01*
X123056221Y-71499144D01*
X123079500Y-71498000D01*
X123554500Y-71498000D01*
X123577779Y-71499144D01*
X123577779Y-71499144D01*
G37*
D11*
X123317000Y-72023000D03*
D10*
G36*
X123577779Y-73249144D02*
X123600834Y-73252563D01*
X123623443Y-73258227D01*
X123645387Y-73266079D01*
X123666457Y-73276044D01*
X123686448Y-73288026D01*
X123705168Y-73301910D01*
X123722438Y-73317562D01*
X123738090Y-73334832D01*
X123751974Y-73353552D01*
X123763956Y-73373543D01*
X123773921Y-73394613D01*
X123781773Y-73416557D01*
X123787437Y-73439166D01*
X123790856Y-73462221D01*
X123792000Y-73485500D01*
X123792000Y-74060500D01*
X123790856Y-74083779D01*
X123787437Y-74106834D01*
X123781773Y-74129443D01*
X123773921Y-74151387D01*
X123763956Y-74172457D01*
X123751974Y-74192448D01*
X123738090Y-74211168D01*
X123722438Y-74228438D01*
X123705168Y-74244090D01*
X123686448Y-74257974D01*
X123666457Y-74269956D01*
X123645387Y-74279921D01*
X123623443Y-74287773D01*
X123600834Y-74293437D01*
X123577779Y-74296856D01*
X123554500Y-74298000D01*
X123079500Y-74298000D01*
X123056221Y-74296856D01*
X123033166Y-74293437D01*
X123010557Y-74287773D01*
X122988613Y-74279921D01*
X122967543Y-74269956D01*
X122947552Y-74257974D01*
X122928832Y-74244090D01*
X122911562Y-74228438D01*
X122895910Y-74211168D01*
X122882026Y-74192448D01*
X122870044Y-74172457D01*
X122860079Y-74151387D01*
X122852227Y-74129443D01*
X122846563Y-74106834D01*
X122843144Y-74083779D01*
X122842000Y-74060500D01*
X122842000Y-73485500D01*
X122843144Y-73462221D01*
X122846563Y-73439166D01*
X122852227Y-73416557D01*
X122860079Y-73394613D01*
X122870044Y-73373543D01*
X122882026Y-73353552D01*
X122895910Y-73334832D01*
X122911562Y-73317562D01*
X122928832Y-73301910D01*
X122947552Y-73288026D01*
X122967543Y-73276044D01*
X122988613Y-73266079D01*
X123010557Y-73258227D01*
X123033166Y-73252563D01*
X123056221Y-73249144D01*
X123079500Y-73248000D01*
X123554500Y-73248000D01*
X123577779Y-73249144D01*
X123577779Y-73249144D01*
G37*
D11*
X123317000Y-73773000D03*
G04 #@! TD*
D12*
G04 #@! TO.C,Conn1*
X84353400Y-93727000D03*
X84353400Y-85726000D03*
G04 #@! TD*
D13*
G04 #@! TO.C,U1*
X73914000Y-117983000D03*
X96774000Y-72263000D03*
X94234000Y-72263000D03*
X86614000Y-72263000D03*
X84074000Y-115443000D03*
X89154000Y-72263000D03*
X91694000Y-72263000D03*
X89154000Y-117983000D03*
X94234000Y-115443000D03*
X84074000Y-72263000D03*
X81534000Y-72263000D03*
X94234000Y-117983000D03*
X89154000Y-115443000D03*
X86614000Y-115443000D03*
X73914000Y-115443000D03*
X76454000Y-115443000D03*
X78994000Y-115443000D03*
X81534000Y-115443000D03*
X91694000Y-115443000D03*
X96774000Y-115443000D03*
X76454000Y-117983000D03*
X78994000Y-117983000D03*
X81534000Y-117983000D03*
X84074000Y-117983000D03*
X86614000Y-117983000D03*
X91694000Y-117983000D03*
X96774000Y-117983000D03*
X73914000Y-74803000D03*
X76454000Y-74803000D03*
X78994000Y-74803000D03*
X81534000Y-74803000D03*
X84074000Y-74803000D03*
X86614000Y-74803000D03*
X89154000Y-74803000D03*
X91694000Y-74803000D03*
X94234000Y-74803000D03*
X96774000Y-74803000D03*
X73914000Y-72263000D03*
X76454000Y-72263000D03*
X78994000Y-72263000D03*
G04 #@! TD*
D14*
G04 #@! TO.C,U2*
X102329000Y-93472000D03*
X102329000Y-94742000D03*
X102329000Y-96012000D03*
X102329000Y-97282000D03*
X102329000Y-98552000D03*
X102329000Y-99822000D03*
X102329000Y-101092000D03*
X102329000Y-102362000D03*
X107729000Y-102362000D03*
X107729000Y-101092000D03*
X107729000Y-99822000D03*
X107729000Y-98552000D03*
X107729000Y-97282000D03*
X107729000Y-96012000D03*
X107729000Y-94742000D03*
X107729000Y-93472000D03*
G04 #@! TD*
M02*
