G04 #@! TF.GenerationSoftware,KiCad,Pcbnew,(5.0.0)*
G04 #@! TF.CreationDate,2018-10-11T10:24:37-05:00*
G04 #@! TF.ProjectId,DriveBoard_Hardware,4472697665426F6172645F4861726477,rev?*
G04 #@! TF.SameCoordinates,Original*
G04 #@! TF.FileFunction,Copper,L1,Top,Signal*
G04 #@! TF.FilePolarity,Positive*
%FSLAX46Y46*%
G04 Gerber Fmt 4.6, Leading zero omitted, Abs format (unit mm)*
G04 Created by KiCad (PCBNEW (5.0.0)) date 10/11/18 10:24:37*
%MOMM*%
%LPD*%
G01*
G04 APERTURE LIST*
G04 #@! TA.AperFunction,Conductor*
%ADD10C,0.100000*%
G04 #@! TD*
G04 #@! TA.AperFunction,SMDPad,CuDef*
%ADD11C,0.950000*%
G04 #@! TD*
G04 #@! TA.AperFunction,ComponentPad*
%ADD12C,5.080000*%
G04 #@! TD*
G04 #@! TA.AperFunction,ComponentPad*
%ADD13C,1.524000*%
G04 #@! TD*
G04 #@! TA.AperFunction,ComponentPad*
%ADD14C,1.520000*%
G04 #@! TD*
G04 #@! TA.AperFunction,SMDPad,CuDef*
%ADD15R,1.500000X0.600000*%
G04 #@! TD*
G04 #@! TA.AperFunction,Conductor*
%ADD16C,0.381000*%
G04 #@! TD*
G04 #@! TA.AperFunction,Conductor*
%ADD17C,0.254000*%
G04 #@! TD*
G04 #@! TA.AperFunction,Conductor*
%ADD18C,0.250000*%
G04 #@! TD*
G04 APERTURE END LIST*
D10*
G04 #@! TO.N,Net-(C1-Pad1)*
G04 #@! TO.C,C1*
G36*
X99193779Y-93481544D02*
X99216834Y-93484963D01*
X99239443Y-93490627D01*
X99261387Y-93498479D01*
X99282457Y-93508444D01*
X99302448Y-93520426D01*
X99321168Y-93534310D01*
X99338438Y-93549962D01*
X99354090Y-93567232D01*
X99367974Y-93585952D01*
X99379956Y-93605943D01*
X99389921Y-93627013D01*
X99397773Y-93648957D01*
X99403437Y-93671566D01*
X99406856Y-93694621D01*
X99408000Y-93717900D01*
X99408000Y-94292900D01*
X99406856Y-94316179D01*
X99403437Y-94339234D01*
X99397773Y-94361843D01*
X99389921Y-94383787D01*
X99379956Y-94404857D01*
X99367974Y-94424848D01*
X99354090Y-94443568D01*
X99338438Y-94460838D01*
X99321168Y-94476490D01*
X99302448Y-94490374D01*
X99282457Y-94502356D01*
X99261387Y-94512321D01*
X99239443Y-94520173D01*
X99216834Y-94525837D01*
X99193779Y-94529256D01*
X99170500Y-94530400D01*
X98695500Y-94530400D01*
X98672221Y-94529256D01*
X98649166Y-94525837D01*
X98626557Y-94520173D01*
X98604613Y-94512321D01*
X98583543Y-94502356D01*
X98563552Y-94490374D01*
X98544832Y-94476490D01*
X98527562Y-94460838D01*
X98511910Y-94443568D01*
X98498026Y-94424848D01*
X98486044Y-94404857D01*
X98476079Y-94383787D01*
X98468227Y-94361843D01*
X98462563Y-94339234D01*
X98459144Y-94316179D01*
X98458000Y-94292900D01*
X98458000Y-93717900D01*
X98459144Y-93694621D01*
X98462563Y-93671566D01*
X98468227Y-93648957D01*
X98476079Y-93627013D01*
X98486044Y-93605943D01*
X98498026Y-93585952D01*
X98511910Y-93567232D01*
X98527562Y-93549962D01*
X98544832Y-93534310D01*
X98563552Y-93520426D01*
X98583543Y-93508444D01*
X98604613Y-93498479D01*
X98626557Y-93490627D01*
X98649166Y-93484963D01*
X98672221Y-93481544D01*
X98695500Y-93480400D01*
X99170500Y-93480400D01*
X99193779Y-93481544D01*
X99193779Y-93481544D01*
G37*
D11*
G04 #@! TD*
G04 #@! TO.P,C1,1*
G04 #@! TO.N,Net-(C1-Pad1)*
X98933000Y-94005400D03*
D10*
G04 #@! TO.N,GND*
G04 #@! TO.C,C1*
G36*
X99193779Y-91731544D02*
X99216834Y-91734963D01*
X99239443Y-91740627D01*
X99261387Y-91748479D01*
X99282457Y-91758444D01*
X99302448Y-91770426D01*
X99321168Y-91784310D01*
X99338438Y-91799962D01*
X99354090Y-91817232D01*
X99367974Y-91835952D01*
X99379956Y-91855943D01*
X99389921Y-91877013D01*
X99397773Y-91898957D01*
X99403437Y-91921566D01*
X99406856Y-91944621D01*
X99408000Y-91967900D01*
X99408000Y-92542900D01*
X99406856Y-92566179D01*
X99403437Y-92589234D01*
X99397773Y-92611843D01*
X99389921Y-92633787D01*
X99379956Y-92654857D01*
X99367974Y-92674848D01*
X99354090Y-92693568D01*
X99338438Y-92710838D01*
X99321168Y-92726490D01*
X99302448Y-92740374D01*
X99282457Y-92752356D01*
X99261387Y-92762321D01*
X99239443Y-92770173D01*
X99216834Y-92775837D01*
X99193779Y-92779256D01*
X99170500Y-92780400D01*
X98695500Y-92780400D01*
X98672221Y-92779256D01*
X98649166Y-92775837D01*
X98626557Y-92770173D01*
X98604613Y-92762321D01*
X98583543Y-92752356D01*
X98563552Y-92740374D01*
X98544832Y-92726490D01*
X98527562Y-92710838D01*
X98511910Y-92693568D01*
X98498026Y-92674848D01*
X98486044Y-92654857D01*
X98476079Y-92633787D01*
X98468227Y-92611843D01*
X98462563Y-92589234D01*
X98459144Y-92566179D01*
X98458000Y-92542900D01*
X98458000Y-91967900D01*
X98459144Y-91944621D01*
X98462563Y-91921566D01*
X98468227Y-91898957D01*
X98476079Y-91877013D01*
X98486044Y-91855943D01*
X98498026Y-91835952D01*
X98511910Y-91817232D01*
X98527562Y-91799962D01*
X98544832Y-91784310D01*
X98563552Y-91770426D01*
X98583543Y-91758444D01*
X98604613Y-91748479D01*
X98626557Y-91740627D01*
X98649166Y-91734963D01*
X98672221Y-91731544D01*
X98695500Y-91730400D01*
X99170500Y-91730400D01*
X99193779Y-91731544D01*
X99193779Y-91731544D01*
G37*
D11*
G04 #@! TD*
G04 #@! TO.P,C1,2*
G04 #@! TO.N,GND*
X98933000Y-92255400D03*
D10*
G04 #@! TO.N,GND*
G04 #@! TO.C,C2*
G36*
X97705779Y-103666144D02*
X97728834Y-103669563D01*
X97751443Y-103675227D01*
X97773387Y-103683079D01*
X97794457Y-103693044D01*
X97814448Y-103705026D01*
X97833168Y-103718910D01*
X97850438Y-103734562D01*
X97866090Y-103751832D01*
X97879974Y-103770552D01*
X97891956Y-103790543D01*
X97901921Y-103811613D01*
X97909773Y-103833557D01*
X97915437Y-103856166D01*
X97918856Y-103879221D01*
X97920000Y-103902500D01*
X97920000Y-104377500D01*
X97918856Y-104400779D01*
X97915437Y-104423834D01*
X97909773Y-104446443D01*
X97901921Y-104468387D01*
X97891956Y-104489457D01*
X97879974Y-104509448D01*
X97866090Y-104528168D01*
X97850438Y-104545438D01*
X97833168Y-104561090D01*
X97814448Y-104574974D01*
X97794457Y-104586956D01*
X97773387Y-104596921D01*
X97751443Y-104604773D01*
X97728834Y-104610437D01*
X97705779Y-104613856D01*
X97682500Y-104615000D01*
X97107500Y-104615000D01*
X97084221Y-104613856D01*
X97061166Y-104610437D01*
X97038557Y-104604773D01*
X97016613Y-104596921D01*
X96995543Y-104586956D01*
X96975552Y-104574974D01*
X96956832Y-104561090D01*
X96939562Y-104545438D01*
X96923910Y-104528168D01*
X96910026Y-104509448D01*
X96898044Y-104489457D01*
X96888079Y-104468387D01*
X96880227Y-104446443D01*
X96874563Y-104423834D01*
X96871144Y-104400779D01*
X96870000Y-104377500D01*
X96870000Y-103902500D01*
X96871144Y-103879221D01*
X96874563Y-103856166D01*
X96880227Y-103833557D01*
X96888079Y-103811613D01*
X96898044Y-103790543D01*
X96910026Y-103770552D01*
X96923910Y-103751832D01*
X96939562Y-103734562D01*
X96956832Y-103718910D01*
X96975552Y-103705026D01*
X96995543Y-103693044D01*
X97016613Y-103683079D01*
X97038557Y-103675227D01*
X97061166Y-103669563D01*
X97084221Y-103666144D01*
X97107500Y-103665000D01*
X97682500Y-103665000D01*
X97705779Y-103666144D01*
X97705779Y-103666144D01*
G37*
D11*
G04 #@! TD*
G04 #@! TO.P,C2,2*
G04 #@! TO.N,GND*
X97395000Y-104140000D03*
D10*
G04 #@! TO.N,Net-(C2-Pad1)*
G04 #@! TO.C,C2*
G36*
X95955779Y-103666144D02*
X95978834Y-103669563D01*
X96001443Y-103675227D01*
X96023387Y-103683079D01*
X96044457Y-103693044D01*
X96064448Y-103705026D01*
X96083168Y-103718910D01*
X96100438Y-103734562D01*
X96116090Y-103751832D01*
X96129974Y-103770552D01*
X96141956Y-103790543D01*
X96151921Y-103811613D01*
X96159773Y-103833557D01*
X96165437Y-103856166D01*
X96168856Y-103879221D01*
X96170000Y-103902500D01*
X96170000Y-104377500D01*
X96168856Y-104400779D01*
X96165437Y-104423834D01*
X96159773Y-104446443D01*
X96151921Y-104468387D01*
X96141956Y-104489457D01*
X96129974Y-104509448D01*
X96116090Y-104528168D01*
X96100438Y-104545438D01*
X96083168Y-104561090D01*
X96064448Y-104574974D01*
X96044457Y-104586956D01*
X96023387Y-104596921D01*
X96001443Y-104604773D01*
X95978834Y-104610437D01*
X95955779Y-104613856D01*
X95932500Y-104615000D01*
X95357500Y-104615000D01*
X95334221Y-104613856D01*
X95311166Y-104610437D01*
X95288557Y-104604773D01*
X95266613Y-104596921D01*
X95245543Y-104586956D01*
X95225552Y-104574974D01*
X95206832Y-104561090D01*
X95189562Y-104545438D01*
X95173910Y-104528168D01*
X95160026Y-104509448D01*
X95148044Y-104489457D01*
X95138079Y-104468387D01*
X95130227Y-104446443D01*
X95124563Y-104423834D01*
X95121144Y-104400779D01*
X95120000Y-104377500D01*
X95120000Y-103902500D01*
X95121144Y-103879221D01*
X95124563Y-103856166D01*
X95130227Y-103833557D01*
X95138079Y-103811613D01*
X95148044Y-103790543D01*
X95160026Y-103770552D01*
X95173910Y-103751832D01*
X95189562Y-103734562D01*
X95206832Y-103718910D01*
X95225552Y-103705026D01*
X95245543Y-103693044D01*
X95266613Y-103683079D01*
X95288557Y-103675227D01*
X95311166Y-103669563D01*
X95334221Y-103666144D01*
X95357500Y-103665000D01*
X95932500Y-103665000D01*
X95955779Y-103666144D01*
X95955779Y-103666144D01*
G37*
D11*
G04 #@! TD*
G04 #@! TO.P,C2,1*
G04 #@! TO.N,Net-(C2-Pad1)*
X95645000Y-104140000D03*
D10*
G04 #@! TO.N,/+12V*
G04 #@! TO.C,C3*
G36*
X118053779Y-72424144D02*
X118076834Y-72427563D01*
X118099443Y-72433227D01*
X118121387Y-72441079D01*
X118142457Y-72451044D01*
X118162448Y-72463026D01*
X118181168Y-72476910D01*
X118198438Y-72492562D01*
X118214090Y-72509832D01*
X118227974Y-72528552D01*
X118239956Y-72548543D01*
X118249921Y-72569613D01*
X118257773Y-72591557D01*
X118263437Y-72614166D01*
X118266856Y-72637221D01*
X118268000Y-72660500D01*
X118268000Y-73135500D01*
X118266856Y-73158779D01*
X118263437Y-73181834D01*
X118257773Y-73204443D01*
X118249921Y-73226387D01*
X118239956Y-73247457D01*
X118227974Y-73267448D01*
X118214090Y-73286168D01*
X118198438Y-73303438D01*
X118181168Y-73319090D01*
X118162448Y-73332974D01*
X118142457Y-73344956D01*
X118121387Y-73354921D01*
X118099443Y-73362773D01*
X118076834Y-73368437D01*
X118053779Y-73371856D01*
X118030500Y-73373000D01*
X117455500Y-73373000D01*
X117432221Y-73371856D01*
X117409166Y-73368437D01*
X117386557Y-73362773D01*
X117364613Y-73354921D01*
X117343543Y-73344956D01*
X117323552Y-73332974D01*
X117304832Y-73319090D01*
X117287562Y-73303438D01*
X117271910Y-73286168D01*
X117258026Y-73267448D01*
X117246044Y-73247457D01*
X117236079Y-73226387D01*
X117228227Y-73204443D01*
X117222563Y-73181834D01*
X117219144Y-73158779D01*
X117218000Y-73135500D01*
X117218000Y-72660500D01*
X117219144Y-72637221D01*
X117222563Y-72614166D01*
X117228227Y-72591557D01*
X117236079Y-72569613D01*
X117246044Y-72548543D01*
X117258026Y-72528552D01*
X117271910Y-72509832D01*
X117287562Y-72492562D01*
X117304832Y-72476910D01*
X117323552Y-72463026D01*
X117343543Y-72451044D01*
X117364613Y-72441079D01*
X117386557Y-72433227D01*
X117409166Y-72427563D01*
X117432221Y-72424144D01*
X117455500Y-72423000D01*
X118030500Y-72423000D01*
X118053779Y-72424144D01*
X118053779Y-72424144D01*
G37*
D11*
G04 #@! TD*
G04 #@! TO.P,C3,1*
G04 #@! TO.N,/+12V*
X117743000Y-72898000D03*
D10*
G04 #@! TO.N,GND*
G04 #@! TO.C,C3*
G36*
X119803779Y-72424144D02*
X119826834Y-72427563D01*
X119849443Y-72433227D01*
X119871387Y-72441079D01*
X119892457Y-72451044D01*
X119912448Y-72463026D01*
X119931168Y-72476910D01*
X119948438Y-72492562D01*
X119964090Y-72509832D01*
X119977974Y-72528552D01*
X119989956Y-72548543D01*
X119999921Y-72569613D01*
X120007773Y-72591557D01*
X120013437Y-72614166D01*
X120016856Y-72637221D01*
X120018000Y-72660500D01*
X120018000Y-73135500D01*
X120016856Y-73158779D01*
X120013437Y-73181834D01*
X120007773Y-73204443D01*
X119999921Y-73226387D01*
X119989956Y-73247457D01*
X119977974Y-73267448D01*
X119964090Y-73286168D01*
X119948438Y-73303438D01*
X119931168Y-73319090D01*
X119912448Y-73332974D01*
X119892457Y-73344956D01*
X119871387Y-73354921D01*
X119849443Y-73362773D01*
X119826834Y-73368437D01*
X119803779Y-73371856D01*
X119780500Y-73373000D01*
X119205500Y-73373000D01*
X119182221Y-73371856D01*
X119159166Y-73368437D01*
X119136557Y-73362773D01*
X119114613Y-73354921D01*
X119093543Y-73344956D01*
X119073552Y-73332974D01*
X119054832Y-73319090D01*
X119037562Y-73303438D01*
X119021910Y-73286168D01*
X119008026Y-73267448D01*
X118996044Y-73247457D01*
X118986079Y-73226387D01*
X118978227Y-73204443D01*
X118972563Y-73181834D01*
X118969144Y-73158779D01*
X118968000Y-73135500D01*
X118968000Y-72660500D01*
X118969144Y-72637221D01*
X118972563Y-72614166D01*
X118978227Y-72591557D01*
X118986079Y-72569613D01*
X118996044Y-72548543D01*
X119008026Y-72528552D01*
X119021910Y-72509832D01*
X119037562Y-72492562D01*
X119054832Y-72476910D01*
X119073552Y-72463026D01*
X119093543Y-72451044D01*
X119114613Y-72441079D01*
X119136557Y-72433227D01*
X119159166Y-72427563D01*
X119182221Y-72424144D01*
X119205500Y-72423000D01*
X119780500Y-72423000D01*
X119803779Y-72424144D01*
X119803779Y-72424144D01*
G37*
D11*
G04 #@! TD*
G04 #@! TO.P,C3,2*
G04 #@! TO.N,GND*
X119493000Y-72898000D03*
D10*
G04 #@! TO.N,Net-(C4-Pad1)*
G04 #@! TO.C,C4*
G36*
X98154179Y-95868344D02*
X98177234Y-95871763D01*
X98199843Y-95877427D01*
X98221787Y-95885279D01*
X98242857Y-95895244D01*
X98262848Y-95907226D01*
X98281568Y-95921110D01*
X98298838Y-95936762D01*
X98314490Y-95954032D01*
X98328374Y-95972752D01*
X98340356Y-95992743D01*
X98350321Y-96013813D01*
X98358173Y-96035757D01*
X98363837Y-96058366D01*
X98367256Y-96081421D01*
X98368400Y-96104700D01*
X98368400Y-96579700D01*
X98367256Y-96602979D01*
X98363837Y-96626034D01*
X98358173Y-96648643D01*
X98350321Y-96670587D01*
X98340356Y-96691657D01*
X98328374Y-96711648D01*
X98314490Y-96730368D01*
X98298838Y-96747638D01*
X98281568Y-96763290D01*
X98262848Y-96777174D01*
X98242857Y-96789156D01*
X98221787Y-96799121D01*
X98199843Y-96806973D01*
X98177234Y-96812637D01*
X98154179Y-96816056D01*
X98130900Y-96817200D01*
X97555900Y-96817200D01*
X97532621Y-96816056D01*
X97509566Y-96812637D01*
X97486957Y-96806973D01*
X97465013Y-96799121D01*
X97443943Y-96789156D01*
X97423952Y-96777174D01*
X97405232Y-96763290D01*
X97387962Y-96747638D01*
X97372310Y-96730368D01*
X97358426Y-96711648D01*
X97346444Y-96691657D01*
X97336479Y-96670587D01*
X97328627Y-96648643D01*
X97322963Y-96626034D01*
X97319544Y-96602979D01*
X97318400Y-96579700D01*
X97318400Y-96104700D01*
X97319544Y-96081421D01*
X97322963Y-96058366D01*
X97328627Y-96035757D01*
X97336479Y-96013813D01*
X97346444Y-95992743D01*
X97358426Y-95972752D01*
X97372310Y-95954032D01*
X97387962Y-95936762D01*
X97405232Y-95921110D01*
X97423952Y-95907226D01*
X97443943Y-95895244D01*
X97465013Y-95885279D01*
X97486957Y-95877427D01*
X97509566Y-95871763D01*
X97532621Y-95868344D01*
X97555900Y-95867200D01*
X98130900Y-95867200D01*
X98154179Y-95868344D01*
X98154179Y-95868344D01*
G37*
D11*
G04 #@! TD*
G04 #@! TO.P,C4,1*
G04 #@! TO.N,Net-(C4-Pad1)*
X97843400Y-96342200D03*
D10*
G04 #@! TO.N,Net-(C4-Pad2)*
G04 #@! TO.C,C4*
G36*
X99904179Y-95868344D02*
X99927234Y-95871763D01*
X99949843Y-95877427D01*
X99971787Y-95885279D01*
X99992857Y-95895244D01*
X100012848Y-95907226D01*
X100031568Y-95921110D01*
X100048838Y-95936762D01*
X100064490Y-95954032D01*
X100078374Y-95972752D01*
X100090356Y-95992743D01*
X100100321Y-96013813D01*
X100108173Y-96035757D01*
X100113837Y-96058366D01*
X100117256Y-96081421D01*
X100118400Y-96104700D01*
X100118400Y-96579700D01*
X100117256Y-96602979D01*
X100113837Y-96626034D01*
X100108173Y-96648643D01*
X100100321Y-96670587D01*
X100090356Y-96691657D01*
X100078374Y-96711648D01*
X100064490Y-96730368D01*
X100048838Y-96747638D01*
X100031568Y-96763290D01*
X100012848Y-96777174D01*
X99992857Y-96789156D01*
X99971787Y-96799121D01*
X99949843Y-96806973D01*
X99927234Y-96812637D01*
X99904179Y-96816056D01*
X99880900Y-96817200D01*
X99305900Y-96817200D01*
X99282621Y-96816056D01*
X99259566Y-96812637D01*
X99236957Y-96806973D01*
X99215013Y-96799121D01*
X99193943Y-96789156D01*
X99173952Y-96777174D01*
X99155232Y-96763290D01*
X99137962Y-96747638D01*
X99122310Y-96730368D01*
X99108426Y-96711648D01*
X99096444Y-96691657D01*
X99086479Y-96670587D01*
X99078627Y-96648643D01*
X99072963Y-96626034D01*
X99069544Y-96602979D01*
X99068400Y-96579700D01*
X99068400Y-96104700D01*
X99069544Y-96081421D01*
X99072963Y-96058366D01*
X99078627Y-96035757D01*
X99086479Y-96013813D01*
X99096444Y-95992743D01*
X99108426Y-95972752D01*
X99122310Y-95954032D01*
X99137962Y-95936762D01*
X99155232Y-95921110D01*
X99173952Y-95907226D01*
X99193943Y-95895244D01*
X99215013Y-95885279D01*
X99236957Y-95877427D01*
X99259566Y-95871763D01*
X99282621Y-95868344D01*
X99305900Y-95867200D01*
X99880900Y-95867200D01*
X99904179Y-95868344D01*
X99904179Y-95868344D01*
G37*
D11*
G04 #@! TD*
G04 #@! TO.P,C4,2*
G04 #@! TO.N,Net-(C4-Pad2)*
X99593400Y-96342200D03*
D10*
G04 #@! TO.N,Net-(C5-Pad2)*
G04 #@! TO.C,C5*
G36*
X97705779Y-99856144D02*
X97728834Y-99859563D01*
X97751443Y-99865227D01*
X97773387Y-99873079D01*
X97794457Y-99883044D01*
X97814448Y-99895026D01*
X97833168Y-99908910D01*
X97850438Y-99924562D01*
X97866090Y-99941832D01*
X97879974Y-99960552D01*
X97891956Y-99980543D01*
X97901921Y-100001613D01*
X97909773Y-100023557D01*
X97915437Y-100046166D01*
X97918856Y-100069221D01*
X97920000Y-100092500D01*
X97920000Y-100567500D01*
X97918856Y-100590779D01*
X97915437Y-100613834D01*
X97909773Y-100636443D01*
X97901921Y-100658387D01*
X97891956Y-100679457D01*
X97879974Y-100699448D01*
X97866090Y-100718168D01*
X97850438Y-100735438D01*
X97833168Y-100751090D01*
X97814448Y-100764974D01*
X97794457Y-100776956D01*
X97773387Y-100786921D01*
X97751443Y-100794773D01*
X97728834Y-100800437D01*
X97705779Y-100803856D01*
X97682500Y-100805000D01*
X97107500Y-100805000D01*
X97084221Y-100803856D01*
X97061166Y-100800437D01*
X97038557Y-100794773D01*
X97016613Y-100786921D01*
X96995543Y-100776956D01*
X96975552Y-100764974D01*
X96956832Y-100751090D01*
X96939562Y-100735438D01*
X96923910Y-100718168D01*
X96910026Y-100699448D01*
X96898044Y-100679457D01*
X96888079Y-100658387D01*
X96880227Y-100636443D01*
X96874563Y-100613834D01*
X96871144Y-100590779D01*
X96870000Y-100567500D01*
X96870000Y-100092500D01*
X96871144Y-100069221D01*
X96874563Y-100046166D01*
X96880227Y-100023557D01*
X96888079Y-100001613D01*
X96898044Y-99980543D01*
X96910026Y-99960552D01*
X96923910Y-99941832D01*
X96939562Y-99924562D01*
X96956832Y-99908910D01*
X96975552Y-99895026D01*
X96995543Y-99883044D01*
X97016613Y-99873079D01*
X97038557Y-99865227D01*
X97061166Y-99859563D01*
X97084221Y-99856144D01*
X97107500Y-99855000D01*
X97682500Y-99855000D01*
X97705779Y-99856144D01*
X97705779Y-99856144D01*
G37*
D11*
G04 #@! TD*
G04 #@! TO.P,C5,2*
G04 #@! TO.N,Net-(C5-Pad2)*
X97395000Y-100330000D03*
D10*
G04 #@! TO.N,Net-(C5-Pad1)*
G04 #@! TO.C,C5*
G36*
X95955779Y-99856144D02*
X95978834Y-99859563D01*
X96001443Y-99865227D01*
X96023387Y-99873079D01*
X96044457Y-99883044D01*
X96064448Y-99895026D01*
X96083168Y-99908910D01*
X96100438Y-99924562D01*
X96116090Y-99941832D01*
X96129974Y-99960552D01*
X96141956Y-99980543D01*
X96151921Y-100001613D01*
X96159773Y-100023557D01*
X96165437Y-100046166D01*
X96168856Y-100069221D01*
X96170000Y-100092500D01*
X96170000Y-100567500D01*
X96168856Y-100590779D01*
X96165437Y-100613834D01*
X96159773Y-100636443D01*
X96151921Y-100658387D01*
X96141956Y-100679457D01*
X96129974Y-100699448D01*
X96116090Y-100718168D01*
X96100438Y-100735438D01*
X96083168Y-100751090D01*
X96064448Y-100764974D01*
X96044457Y-100776956D01*
X96023387Y-100786921D01*
X96001443Y-100794773D01*
X95978834Y-100800437D01*
X95955779Y-100803856D01*
X95932500Y-100805000D01*
X95357500Y-100805000D01*
X95334221Y-100803856D01*
X95311166Y-100800437D01*
X95288557Y-100794773D01*
X95266613Y-100786921D01*
X95245543Y-100776956D01*
X95225552Y-100764974D01*
X95206832Y-100751090D01*
X95189562Y-100735438D01*
X95173910Y-100718168D01*
X95160026Y-100699448D01*
X95148044Y-100679457D01*
X95138079Y-100658387D01*
X95130227Y-100636443D01*
X95124563Y-100613834D01*
X95121144Y-100590779D01*
X95120000Y-100567500D01*
X95120000Y-100092500D01*
X95121144Y-100069221D01*
X95124563Y-100046166D01*
X95130227Y-100023557D01*
X95138079Y-100001613D01*
X95148044Y-99980543D01*
X95160026Y-99960552D01*
X95173910Y-99941832D01*
X95189562Y-99924562D01*
X95206832Y-99908910D01*
X95225552Y-99895026D01*
X95245543Y-99883044D01*
X95266613Y-99873079D01*
X95288557Y-99865227D01*
X95311166Y-99859563D01*
X95334221Y-99856144D01*
X95357500Y-99855000D01*
X95932500Y-99855000D01*
X95955779Y-99856144D01*
X95955779Y-99856144D01*
G37*
D11*
G04 #@! TD*
G04 #@! TO.P,C5,1*
G04 #@! TO.N,Net-(C5-Pad1)*
X95645000Y-100330000D03*
D10*
G04 #@! TO.N,GND*
G04 #@! TO.C,C6*
G36*
X123577779Y-71499144D02*
X123600834Y-71502563D01*
X123623443Y-71508227D01*
X123645387Y-71516079D01*
X123666457Y-71526044D01*
X123686448Y-71538026D01*
X123705168Y-71551910D01*
X123722438Y-71567562D01*
X123738090Y-71584832D01*
X123751974Y-71603552D01*
X123763956Y-71623543D01*
X123773921Y-71644613D01*
X123781773Y-71666557D01*
X123787437Y-71689166D01*
X123790856Y-71712221D01*
X123792000Y-71735500D01*
X123792000Y-72310500D01*
X123790856Y-72333779D01*
X123787437Y-72356834D01*
X123781773Y-72379443D01*
X123773921Y-72401387D01*
X123763956Y-72422457D01*
X123751974Y-72442448D01*
X123738090Y-72461168D01*
X123722438Y-72478438D01*
X123705168Y-72494090D01*
X123686448Y-72507974D01*
X123666457Y-72519956D01*
X123645387Y-72529921D01*
X123623443Y-72537773D01*
X123600834Y-72543437D01*
X123577779Y-72546856D01*
X123554500Y-72548000D01*
X123079500Y-72548000D01*
X123056221Y-72546856D01*
X123033166Y-72543437D01*
X123010557Y-72537773D01*
X122988613Y-72529921D01*
X122967543Y-72519956D01*
X122947552Y-72507974D01*
X122928832Y-72494090D01*
X122911562Y-72478438D01*
X122895910Y-72461168D01*
X122882026Y-72442448D01*
X122870044Y-72422457D01*
X122860079Y-72401387D01*
X122852227Y-72379443D01*
X122846563Y-72356834D01*
X122843144Y-72333779D01*
X122842000Y-72310500D01*
X122842000Y-71735500D01*
X122843144Y-71712221D01*
X122846563Y-71689166D01*
X122852227Y-71666557D01*
X122860079Y-71644613D01*
X122870044Y-71623543D01*
X122882026Y-71603552D01*
X122895910Y-71584832D01*
X122911562Y-71567562D01*
X122928832Y-71551910D01*
X122947552Y-71538026D01*
X122967543Y-71526044D01*
X122988613Y-71516079D01*
X123010557Y-71508227D01*
X123033166Y-71502563D01*
X123056221Y-71499144D01*
X123079500Y-71498000D01*
X123554500Y-71498000D01*
X123577779Y-71499144D01*
X123577779Y-71499144D01*
G37*
D11*
G04 #@! TD*
G04 #@! TO.P,C6,2*
G04 #@! TO.N,GND*
X123317000Y-72023000D03*
D10*
G04 #@! TO.N,+5V*
G04 #@! TO.C,C6*
G36*
X123577779Y-73249144D02*
X123600834Y-73252563D01*
X123623443Y-73258227D01*
X123645387Y-73266079D01*
X123666457Y-73276044D01*
X123686448Y-73288026D01*
X123705168Y-73301910D01*
X123722438Y-73317562D01*
X123738090Y-73334832D01*
X123751974Y-73353552D01*
X123763956Y-73373543D01*
X123773921Y-73394613D01*
X123781773Y-73416557D01*
X123787437Y-73439166D01*
X123790856Y-73462221D01*
X123792000Y-73485500D01*
X123792000Y-74060500D01*
X123790856Y-74083779D01*
X123787437Y-74106834D01*
X123781773Y-74129443D01*
X123773921Y-74151387D01*
X123763956Y-74172457D01*
X123751974Y-74192448D01*
X123738090Y-74211168D01*
X123722438Y-74228438D01*
X123705168Y-74244090D01*
X123686448Y-74257974D01*
X123666457Y-74269956D01*
X123645387Y-74279921D01*
X123623443Y-74287773D01*
X123600834Y-74293437D01*
X123577779Y-74296856D01*
X123554500Y-74298000D01*
X123079500Y-74298000D01*
X123056221Y-74296856D01*
X123033166Y-74293437D01*
X123010557Y-74287773D01*
X122988613Y-74279921D01*
X122967543Y-74269956D01*
X122947552Y-74257974D01*
X122928832Y-74244090D01*
X122911562Y-74228438D01*
X122895910Y-74211168D01*
X122882026Y-74192448D01*
X122870044Y-74172457D01*
X122860079Y-74151387D01*
X122852227Y-74129443D01*
X122846563Y-74106834D01*
X122843144Y-74083779D01*
X122842000Y-74060500D01*
X122842000Y-73485500D01*
X122843144Y-73462221D01*
X122846563Y-73439166D01*
X122852227Y-73416557D01*
X122860079Y-73394613D01*
X122870044Y-73373543D01*
X122882026Y-73353552D01*
X122895910Y-73334832D01*
X122911562Y-73317562D01*
X122928832Y-73301910D01*
X122947552Y-73288026D01*
X122967543Y-73276044D01*
X122988613Y-73266079D01*
X123010557Y-73258227D01*
X123033166Y-73252563D01*
X123056221Y-73249144D01*
X123079500Y-73248000D01*
X123554500Y-73248000D01*
X123577779Y-73249144D01*
X123577779Y-73249144D01*
G37*
D11*
G04 #@! TD*
G04 #@! TO.P,C6,1*
G04 #@! TO.N,+5V*
X123317000Y-73773000D03*
D12*
G04 #@! TO.P,Conn1,1*
G04 #@! TO.N,GND*
X84353400Y-93727000D03*
G04 #@! TO.P,Conn1,2*
G04 #@! TO.N,/+12V*
X84353400Y-85726000D03*
G04 #@! TD*
D13*
G04 #@! TO.P,Conn2,1*
G04 #@! TO.N,Net-(Conn2-Pad1)*
X78613000Y-65532000D03*
G04 #@! TO.P,Conn2,2*
G04 #@! TO.N,Net-(Conn2-Pad2)*
X81153000Y-65532000D03*
G04 #@! TO.P,Conn2,3*
G04 #@! TO.N,GND*
X83693000Y-65532000D03*
G04 #@! TO.P,Conn2,4*
G04 #@! TO.N,TX_1_SL*
X86233000Y-65532000D03*
G04 #@! TO.P,Conn2,5*
G04 #@! TO.N,RX_1_SL*
X88773000Y-65532000D03*
G04 #@! TD*
D14*
G04 #@! TO.P,U1,+3V3*
G04 #@! TO.N,Net-(U1-Pad+3V3)*
X73914000Y-117983000D03*
G04 #@! TO.P,U1,PM6*
G04 #@! TO.N,Net-(U1-PadPM6)*
X96774000Y-72263000D03*
G04 #@! TO.P,U1,PQ1*
G04 #@! TO.N,Net-(U1-PadPQ1)*
X94234000Y-72263000D03*
G04 #@! TO.P,U1,PQ2*
G04 #@! TO.N,Net-(U1-PadPQ2)*
X86614000Y-72263000D03*
G04 #@! TO.P,U1,PK0*
G04 #@! TO.N,RX_2_IC*
X84074000Y-115443000D03*
G04 #@! TO.P,U1,PQ3*
G04 #@! TO.N,Net-(U1-PadPQ3)*
X89154000Y-72263000D03*
G04 #@! TO.P,U1,PP3*
G04 #@! TO.N,Net-(U1-PadPP3)*
X91694000Y-72263000D03*
G04 #@! TO.P,U1,PQ0*
G04 #@! TO.N,Net-(U1-PadPQ0)*
X89154000Y-117983000D03*
G04 #@! TO.P,U1,PA4*
G04 #@! TO.N,Net-(U1-PadPA4)*
X94234000Y-115443000D03*
G04 #@! TO.P,U1,Rese*
G04 #@! TO.N,Net-(U1-PadRese)*
X84074000Y-72263000D03*
G04 #@! TO.P,U1,PA7*
G04 #@! TO.N,Net-(U1-PadPA7)*
X81534000Y-72263000D03*
G04 #@! TO.P,U1,PN5*
G04 #@! TO.N,Net-(U1-PadPN5)*
X94234000Y-117983000D03*
G04 #@! TO.P,U1,PK2*
G04 #@! TO.N,Net-(U1-PadPK2)*
X89154000Y-115443000D03*
G04 #@! TO.P,U1,PK1*
G04 #@! TO.N,TX_2_IC*
X86614000Y-115443000D03*
G04 #@! TO.P,U1,+5V*
G04 #@! TO.N,+5V*
X73914000Y-115443000D03*
G04 #@! TO.P,U1,GND*
G04 #@! TO.N,GND*
X76454000Y-115443000D03*
G04 #@! TO.P,U1,PB4*
G04 #@! TO.N,Net-(U1-PadPB4)*
X78994000Y-115443000D03*
G04 #@! TO.P,U1,PB5*
G04 #@! TO.N,Net-(U1-PadPB5)*
X81534000Y-115443000D03*
G04 #@! TO.P,U1,PK3*
G04 #@! TO.N,Net-(U1-PadPK3)*
X91694000Y-115443000D03*
G04 #@! TO.P,U1,PA5*
G04 #@! TO.N,Net-(U1-PadPA5)*
X96774000Y-115443000D03*
G04 #@! TO.P,U1,PD2*
G04 #@! TO.N,Net-(U1-PadPD2)*
X76454000Y-117983000D03*
G04 #@! TO.P,U1,PP0*
G04 #@! TO.N,RX_1_IC*
X78994000Y-117983000D03*
G04 #@! TO.P,U1,PP1*
G04 #@! TO.N,TX_1_IC*
X81534000Y-117983000D03*
G04 #@! TO.P,U1,PD4*
G04 #@! TO.N,Net-(U1-PadPD4)*
X84074000Y-117983000D03*
G04 #@! TO.P,U1,PD5*
G04 #@! TO.N,Net-(U1-PadPD5)*
X86614000Y-117983000D03*
G04 #@! TO.P,U1,PP4*
G04 #@! TO.N,Net-(U1-PadPP4)*
X91694000Y-117983000D03*
G04 #@! TO.P,U1,PN4*
G04 #@! TO.N,Net-(U1-PadPN4)*
X96774000Y-117983000D03*
G04 #@! TO.P,U1,PG1*
G04 #@! TO.N,Net-(U1-PadPG1)*
X73914000Y-74803000D03*
G04 #@! TO.P,U1,PK4*
G04 #@! TO.N,Net-(U1-PadPK4)*
X76454000Y-74803000D03*
G04 #@! TO.P,U1,PK5*
G04 #@! TO.N,Net-(U1-PadPK5)*
X78994000Y-74803000D03*
G04 #@! TO.P,U1,PM0*
G04 #@! TO.N,Net-(U1-PadPM0)*
X81534000Y-74803000D03*
G04 #@! TO.P,U1,PM1*
G04 #@! TO.N,Net-(U1-PadPM1)*
X84074000Y-74803000D03*
G04 #@! TO.P,U1,PM2*
G04 #@! TO.N,Net-(U1-PadPM2)*
X86614000Y-74803000D03*
G04 #@! TO.P,U1,PH0*
G04 #@! TO.N,Net-(U1-PadPH0)*
X89154000Y-74803000D03*
G04 #@! TO.P,U1,PH1*
G04 #@! TO.N,Net-(U1-PadPH1)*
X91694000Y-74803000D03*
G04 #@! TO.P,U1,PK6*
G04 #@! TO.N,Net-(U1-PadPK6)*
X94234000Y-74803000D03*
G04 #@! TO.P,U1,PK7*
G04 #@! TO.N,Net-(U1-PadPK7)*
X96774000Y-74803000D03*
G04 #@! TO.P,U1,GND*
G04 #@! TO.N,GND*
X73914000Y-72263000D03*
G04 #@! TO.P,U1,PM7*
G04 #@! TO.N,Net-(U1-PadPM7)*
X76454000Y-72263000D03*
G04 #@! TO.P,U1,PP5*
G04 #@! TO.N,Net-(U1-PadPP5)*
X78994000Y-72263000D03*
G04 #@! TD*
D15*
G04 #@! TO.P,U2,1*
G04 #@! TO.N,Net-(C4-Pad1)*
X102329000Y-93472000D03*
G04 #@! TO.P,U2,2*
G04 #@! TO.N,Net-(C1-Pad1)*
X102329000Y-94742000D03*
G04 #@! TO.P,U2,3*
G04 #@! TO.N,Net-(C4-Pad2)*
X102329000Y-96012000D03*
G04 #@! TO.P,U2,4*
G04 #@! TO.N,Net-(C5-Pad1)*
X102329000Y-97282000D03*
G04 #@! TO.P,U2,5*
G04 #@! TO.N,Net-(C5-Pad2)*
X102329000Y-98552000D03*
G04 #@! TO.P,U2,6*
G04 #@! TO.N,Net-(C2-Pad1)*
X102329000Y-99822000D03*
G04 #@! TO.P,U2,7*
G04 #@! TO.N,TX_2_SL*
X102329000Y-101092000D03*
G04 #@! TO.P,U2,8*
G04 #@! TO.N,RX_2_SL*
X102329000Y-102362000D03*
G04 #@! TO.P,U2,9*
G04 #@! TO.N,RX_2_IC*
X107729000Y-102362000D03*
G04 #@! TO.P,U2,10*
G04 #@! TO.N,TX_2_IC*
X107729000Y-101092000D03*
G04 #@! TO.P,U2,11*
G04 #@! TO.N,TX_1_IC*
X107729000Y-99822000D03*
G04 #@! TO.P,U2,12*
G04 #@! TO.N,RX_1_IC*
X107729000Y-98552000D03*
G04 #@! TO.P,U2,13*
G04 #@! TO.N,RX_1_SL*
X107729000Y-97282000D03*
G04 #@! TO.P,U2,14*
G04 #@! TO.N,TX_1_SL*
X107729000Y-96012000D03*
G04 #@! TO.P,U2,15*
G04 #@! TO.N,GND*
X107729000Y-94742000D03*
G04 #@! TO.P,U2,16*
G04 #@! TO.N,+5V*
X107729000Y-93472000D03*
G04 #@! TD*
D13*
G04 #@! TO.P,U3,1*
G04 #@! TO.N,/+12V*
X119507000Y-79375000D03*
G04 #@! TO.P,U3,2*
G04 #@! TO.N,GND*
X122047000Y-79375000D03*
G04 #@! TO.P,U3,3*
G04 #@! TO.N,+5V*
X124587000Y-79375000D03*
G04 #@! TD*
D16*
G04 #@! TO.N,Net-(C1-Pad1)*
X99669600Y-94742000D02*
X98933000Y-94005400D01*
X102329000Y-94742000D02*
X99669600Y-94742000D01*
G04 #@! TO.N,GND*
X119493000Y-72898000D02*
X121412000Y-72898000D01*
X122047000Y-78297370D02*
X122047000Y-79375000D01*
X121412000Y-77662370D02*
X122047000Y-78297370D01*
X121412000Y-72898000D02*
X121412000Y-77662370D01*
X121867000Y-72898000D02*
X121412000Y-72898000D01*
X122742000Y-72023000D02*
X121867000Y-72898000D01*
X123317000Y-72023000D02*
X122742000Y-72023000D01*
X76454000Y-115443000D02*
X75158600Y-116738400D01*
X75158600Y-116738400D02*
X75158600Y-120726200D01*
G04 #@! TO.N,Net-(C2-Pad1)*
X99963000Y-99822000D02*
X95645000Y-104140000D01*
X102329000Y-99822000D02*
X99963000Y-99822000D01*
G04 #@! TO.N,/+12V*
X117743000Y-77611000D02*
X119507000Y-79375000D01*
X90704400Y-79375000D02*
X84353400Y-85726000D01*
X119507000Y-79375000D02*
X90704400Y-79375000D01*
X117743000Y-72898000D02*
X117743000Y-77611000D01*
D17*
G04 #@! TO.N,Net-(C4-Pad1)*
X98816599Y-95369001D02*
X97843400Y-96342200D01*
X103766999Y-95369001D02*
X98816599Y-95369001D01*
X103936800Y-95199200D02*
X103766999Y-95369001D01*
X103936800Y-94075800D02*
X103936800Y-95199200D01*
X102329000Y-93472000D02*
X103333000Y-93472000D01*
X103333000Y-93472000D02*
X103936800Y-94075800D01*
D16*
G04 #@! TO.N,Net-(C4-Pad2)*
X99923600Y-96012000D02*
X99593400Y-96342200D01*
X102329000Y-96012000D02*
X99923600Y-96012000D01*
G04 #@! TO.N,Net-(C5-Pad2)*
X101713000Y-98552000D02*
X102329000Y-98552000D01*
X101198000Y-98552000D02*
X102329000Y-98552000D01*
X99798000Y-98552000D02*
X101198000Y-98552000D01*
X98020000Y-100330000D02*
X99798000Y-98552000D01*
X97395000Y-100330000D02*
X98020000Y-100330000D01*
D18*
G04 #@! TO.N,Net-(C5-Pad1)*
X96144072Y-99830928D02*
X95645000Y-100330000D01*
D16*
X98693000Y-97282000D02*
X95645000Y-100330000D01*
X102329000Y-97282000D02*
X98693000Y-97282000D01*
G04 #@! TO.N,+5V*
X124587000Y-79375000D02*
X124587000Y-77343000D01*
X124587000Y-77343000D02*
X125730000Y-76200000D01*
X125730000Y-76200000D02*
X128270000Y-76200000D01*
D18*
X73914000Y-114368198D02*
X73914000Y-115443000D01*
D16*
X107729000Y-93472000D02*
X114554000Y-93472000D01*
X123317000Y-76073000D02*
X124587000Y-77343000D01*
X123317000Y-74930000D02*
X123317000Y-76073000D01*
X123317000Y-73773000D02*
X123317000Y-74930000D01*
X128270000Y-76200000D02*
X128270000Y-94996000D01*
X116586000Y-95504000D02*
X114554000Y-93472000D01*
X128270000Y-94996000D02*
X127762000Y-95504000D01*
X127762000Y-95504000D02*
X116586000Y-95504000D01*
X102314000Y-87376000D02*
X107729000Y-92791000D01*
X107729000Y-92791000D02*
X107729000Y-93472000D01*
X94742000Y-87376000D02*
X102314000Y-87376000D01*
X73914000Y-115443000D02*
X73914000Y-110693200D01*
X73914000Y-110693200D02*
X75133200Y-109474000D01*
X75133200Y-109474000D02*
X88900000Y-109474000D01*
X88900000Y-109474000D02*
X92456000Y-105918000D01*
X92456000Y-105918000D02*
X92456000Y-89662000D01*
X92456000Y-89662000D02*
X94742000Y-87376000D01*
G04 #@! TO.N,TX_1_SL*
X108179000Y-96012000D02*
X107729000Y-96012000D01*
X86233000Y-65532000D02*
X89557529Y-68856529D01*
X89557529Y-68856529D02*
X128994857Y-68856529D01*
X128994857Y-68856529D02*
X129974990Y-69836662D01*
X129212990Y-96520000D02*
X129974990Y-95758000D01*
X109387354Y-96520000D02*
X129212990Y-96520000D01*
X108879354Y-96012000D02*
X109387354Y-96520000D01*
X107729000Y-96012000D02*
X108879354Y-96012000D01*
X129974990Y-69836662D02*
X129974990Y-95758000D01*
D18*
G04 #@! TO.N,RX_1_SL*
X108729000Y-97832000D02*
X108179000Y-97282000D01*
D16*
X91516519Y-68275519D02*
X88773000Y-65532000D01*
X130556000Y-69596000D02*
X129235519Y-68275519D01*
X129235519Y-68275519D02*
X91516519Y-68275519D01*
X108179000Y-97282000D02*
X107729000Y-97282000D01*
X130048000Y-98044000D02*
X130556000Y-97536000D01*
X108941000Y-98044000D02*
X130048000Y-98044000D01*
X108179000Y-97282000D02*
X108941000Y-98044000D01*
X130556000Y-97536000D02*
X130556000Y-69596000D01*
D18*
G04 #@! TO.N,TX_2_SL*
X102779000Y-101092000D02*
X102329000Y-101092000D01*
D16*
G04 #@! TO.N,RX_2_IC*
X108860000Y-102362000D02*
X107729000Y-102362000D01*
X84074000Y-115443000D02*
X84074000Y-112801400D01*
X84074000Y-112801400D02*
X85115400Y-111760000D01*
X107950000Y-111760000D02*
X109220000Y-110490000D01*
X85115400Y-111760000D02*
X107950000Y-111760000D01*
X109220000Y-110490000D02*
X109220000Y-102722000D01*
X109220000Y-102722000D02*
X108860000Y-102362000D01*
G04 #@! TO.N,TX_2_IC*
X108860000Y-101092000D02*
X110236000Y-102468000D01*
X107729000Y-101092000D02*
X108860000Y-101092000D01*
X110236000Y-102468000D02*
X110236000Y-111506000D01*
X108331000Y-113411000D02*
X88646000Y-113411000D01*
X110236000Y-111506000D02*
X108331000Y-113411000D01*
X86614000Y-115443000D02*
X88646000Y-113411000D01*
D18*
G04 #@! TO.N,RX_1_IC*
X110039991Y-119830009D02*
X80841009Y-119830009D01*
X107729000Y-98552000D02*
X108179000Y-98552000D01*
D16*
X108179000Y-98552000D02*
X108687000Y-99060000D01*
X108687000Y-99060000D02*
X112268000Y-99060000D01*
X112268000Y-99060000D02*
X113030000Y-99822000D01*
X113030000Y-99822000D02*
X113030000Y-119126000D01*
X79753999Y-118742999D02*
X78994000Y-117983000D01*
X80906510Y-119895510D02*
X79753999Y-118742999D01*
X112260490Y-119895510D02*
X80906510Y-119895510D01*
X113030000Y-119126000D02*
X112260490Y-119895510D01*
D18*
G04 #@! TO.N,TX_1_IC*
X108729000Y-99822000D02*
X107729000Y-99822000D01*
D16*
X108858021Y-119314499D02*
X110316520Y-117856000D01*
X82865499Y-119314499D02*
X108858021Y-119314499D01*
X81534000Y-117983000D02*
X82865499Y-119314499D01*
D18*
X110316520Y-117936520D02*
X110316520Y-117856000D01*
D16*
X108858021Y-119314499D02*
X108858021Y-119233979D01*
X108858021Y-119233979D02*
X111506000Y-116586000D01*
X108860000Y-99822000D02*
X107729000Y-99822000D01*
X111506000Y-102468000D02*
X108860000Y-99822000D01*
X111506000Y-116586000D02*
X111506000Y-102468000D01*
G04 #@! TD*
D17*
G04 #@! TO.N,GND*
G36*
X115100091Y-98933000D02*
X115114000Y-99002926D01*
X115114001Y-119691069D01*
X115100091Y-119761000D01*
X115155195Y-120038028D01*
X115312119Y-120272881D01*
X115546972Y-120429805D01*
X115754074Y-120471000D01*
X115754075Y-120471000D01*
X115824000Y-120484909D01*
X115893926Y-120471000D01*
X131521419Y-120471000D01*
X131941009Y-120531090D01*
X132280352Y-120685381D01*
X132562752Y-120928712D01*
X132765506Y-121241523D01*
X132879348Y-121622184D01*
X132894001Y-121819363D01*
X132894000Y-129324760D01*
X132548241Y-129428164D01*
X132460769Y-129468582D01*
X132372806Y-129507929D01*
X132365502Y-129512601D01*
X132365498Y-129512603D01*
X132365499Y-129512603D01*
X131882040Y-129825966D01*
X131809447Y-129889293D01*
X131736045Y-129951763D01*
X131730343Y-129958300D01*
X131354266Y-130394759D01*
X131302347Y-130475942D01*
X131249446Y-130556475D01*
X131245808Y-130564350D01*
X131007347Y-131088817D01*
X130980300Y-131181309D01*
X130952129Y-131273452D01*
X130950847Y-131282031D01*
X130869171Y-131852346D01*
X130869171Y-131924766D01*
X130863362Y-131996963D01*
X130863952Y-132005618D01*
X130886272Y-132305966D01*
X130901826Y-132376711D01*
X130911654Y-132448455D01*
X130914088Y-132456781D01*
X131079164Y-133008758D01*
X131119591Y-133096250D01*
X131158930Y-133184194D01*
X131163603Y-133191501D01*
X131476966Y-133674961D01*
X131540328Y-133747594D01*
X131602763Y-133820955D01*
X131609296Y-133826654D01*
X131609300Y-133826658D01*
X131609305Y-133826661D01*
X132045759Y-134202734D01*
X132126942Y-134254653D01*
X132207475Y-134307554D01*
X132215346Y-134311190D01*
X132215349Y-134311192D01*
X132215352Y-134311193D01*
X132739817Y-134549653D01*
X132832309Y-134576700D01*
X132894001Y-134595561D01*
X132894000Y-142570418D01*
X132833910Y-142990009D01*
X132679619Y-143329352D01*
X132436288Y-143611752D01*
X132123479Y-143814506D01*
X131742815Y-143928348D01*
X131545649Y-143943000D01*
X74726581Y-143943000D01*
X74306991Y-143882910D01*
X73967648Y-143728619D01*
X73685248Y-143485288D01*
X73482494Y-143172479D01*
X73368652Y-142791815D01*
X73354000Y-142594649D01*
X73354000Y-134581239D01*
X73699758Y-134477836D01*
X73787250Y-134437409D01*
X73875194Y-134398070D01*
X73882498Y-134393399D01*
X73882502Y-134393397D01*
X74365961Y-134080034D01*
X74438594Y-134016672D01*
X74511955Y-133954237D01*
X74517654Y-133947704D01*
X74517658Y-133947700D01*
X74517661Y-133947695D01*
X74893734Y-133511241D01*
X74945653Y-133430058D01*
X74998554Y-133349525D01*
X75002192Y-133341650D01*
X75240653Y-132817183D01*
X75267700Y-132724691D01*
X75295871Y-132632548D01*
X75297153Y-132623969D01*
X75378829Y-132053653D01*
X75378829Y-131981233D01*
X75384638Y-131909036D01*
X75384048Y-131900382D01*
X75361728Y-131600033D01*
X75346174Y-131529288D01*
X75336346Y-131457544D01*
X75333912Y-131449219D01*
X75168836Y-130897241D01*
X75128418Y-130809769D01*
X75089071Y-130721806D01*
X75084397Y-130714499D01*
X74771034Y-130231040D01*
X74707707Y-130158447D01*
X74645237Y-130085045D01*
X74638700Y-130079343D01*
X74202241Y-129703266D01*
X74121058Y-129651347D01*
X74040525Y-129598446D01*
X74032654Y-129594810D01*
X74032651Y-129594808D01*
X74032648Y-129594807D01*
X73508183Y-129356347D01*
X73415691Y-129329300D01*
X73354000Y-129310439D01*
X73354000Y-119260978D01*
X73636517Y-119378000D01*
X74191483Y-119378000D01*
X74704204Y-119165624D01*
X75096624Y-118773204D01*
X75184000Y-118562260D01*
X75271376Y-118773204D01*
X75663796Y-119165624D01*
X76176517Y-119378000D01*
X76731483Y-119378000D01*
X77244204Y-119165624D01*
X77636624Y-118773204D01*
X77724000Y-118562260D01*
X77811376Y-118773204D01*
X78203796Y-119165624D01*
X78716517Y-119378000D01*
X79221567Y-119378000D01*
X79227772Y-119384205D01*
X79227775Y-119384207D01*
X80265303Y-120421736D01*
X80311358Y-120490662D01*
X80460041Y-120590009D01*
X80584416Y-120673114D01*
X80906510Y-120737182D01*
X80987813Y-120721010D01*
X112179189Y-120721010D01*
X112260490Y-120737182D01*
X112341791Y-120721010D01*
X112341793Y-120721010D01*
X112582584Y-120673114D01*
X112855642Y-120490662D01*
X112901698Y-120421734D01*
X113556228Y-119767206D01*
X113625152Y-119721152D01*
X113681654Y-119636592D01*
X113750556Y-119533472D01*
X113807604Y-119448094D01*
X113855500Y-119207303D01*
X113855500Y-119207299D01*
X113871671Y-119126001D01*
X113855500Y-119044703D01*
X113855500Y-99903303D01*
X113871672Y-99822000D01*
X113807604Y-99499905D01*
X113698407Y-99336482D01*
X113625152Y-99226848D01*
X113556226Y-99180793D01*
X113244933Y-98869500D01*
X115112722Y-98869500D01*
X115100091Y-98933000D01*
X115100091Y-98933000D01*
G37*
X115100091Y-98933000D02*
X115114000Y-99002926D01*
X115114001Y-119691069D01*
X115100091Y-119761000D01*
X115155195Y-120038028D01*
X115312119Y-120272881D01*
X115546972Y-120429805D01*
X115754074Y-120471000D01*
X115754075Y-120471000D01*
X115824000Y-120484909D01*
X115893926Y-120471000D01*
X131521419Y-120471000D01*
X131941009Y-120531090D01*
X132280352Y-120685381D01*
X132562752Y-120928712D01*
X132765506Y-121241523D01*
X132879348Y-121622184D01*
X132894001Y-121819363D01*
X132894000Y-129324760D01*
X132548241Y-129428164D01*
X132460769Y-129468582D01*
X132372806Y-129507929D01*
X132365502Y-129512601D01*
X132365498Y-129512603D01*
X132365499Y-129512603D01*
X131882040Y-129825966D01*
X131809447Y-129889293D01*
X131736045Y-129951763D01*
X131730343Y-129958300D01*
X131354266Y-130394759D01*
X131302347Y-130475942D01*
X131249446Y-130556475D01*
X131245808Y-130564350D01*
X131007347Y-131088817D01*
X130980300Y-131181309D01*
X130952129Y-131273452D01*
X130950847Y-131282031D01*
X130869171Y-131852346D01*
X130869171Y-131924766D01*
X130863362Y-131996963D01*
X130863952Y-132005618D01*
X130886272Y-132305966D01*
X130901826Y-132376711D01*
X130911654Y-132448455D01*
X130914088Y-132456781D01*
X131079164Y-133008758D01*
X131119591Y-133096250D01*
X131158930Y-133184194D01*
X131163603Y-133191501D01*
X131476966Y-133674961D01*
X131540328Y-133747594D01*
X131602763Y-133820955D01*
X131609296Y-133826654D01*
X131609300Y-133826658D01*
X131609305Y-133826661D01*
X132045759Y-134202734D01*
X132126942Y-134254653D01*
X132207475Y-134307554D01*
X132215346Y-134311190D01*
X132215349Y-134311192D01*
X132215352Y-134311193D01*
X132739817Y-134549653D01*
X132832309Y-134576700D01*
X132894001Y-134595561D01*
X132894000Y-142570418D01*
X132833910Y-142990009D01*
X132679619Y-143329352D01*
X132436288Y-143611752D01*
X132123479Y-143814506D01*
X131742815Y-143928348D01*
X131545649Y-143943000D01*
X74726581Y-143943000D01*
X74306991Y-143882910D01*
X73967648Y-143728619D01*
X73685248Y-143485288D01*
X73482494Y-143172479D01*
X73368652Y-142791815D01*
X73354000Y-142594649D01*
X73354000Y-134581239D01*
X73699758Y-134477836D01*
X73787250Y-134437409D01*
X73875194Y-134398070D01*
X73882498Y-134393399D01*
X73882502Y-134393397D01*
X74365961Y-134080034D01*
X74438594Y-134016672D01*
X74511955Y-133954237D01*
X74517654Y-133947704D01*
X74517658Y-133947700D01*
X74517661Y-133947695D01*
X74893734Y-133511241D01*
X74945653Y-133430058D01*
X74998554Y-133349525D01*
X75002192Y-133341650D01*
X75240653Y-132817183D01*
X75267700Y-132724691D01*
X75295871Y-132632548D01*
X75297153Y-132623969D01*
X75378829Y-132053653D01*
X75378829Y-131981233D01*
X75384638Y-131909036D01*
X75384048Y-131900382D01*
X75361728Y-131600033D01*
X75346174Y-131529288D01*
X75336346Y-131457544D01*
X75333912Y-131449219D01*
X75168836Y-130897241D01*
X75128418Y-130809769D01*
X75089071Y-130721806D01*
X75084397Y-130714499D01*
X74771034Y-130231040D01*
X74707707Y-130158447D01*
X74645237Y-130085045D01*
X74638700Y-130079343D01*
X74202241Y-129703266D01*
X74121058Y-129651347D01*
X74040525Y-129598446D01*
X74032654Y-129594810D01*
X74032651Y-129594808D01*
X74032648Y-129594807D01*
X73508183Y-129356347D01*
X73415691Y-129329300D01*
X73354000Y-129310439D01*
X73354000Y-119260978D01*
X73636517Y-119378000D01*
X74191483Y-119378000D01*
X74704204Y-119165624D01*
X75096624Y-118773204D01*
X75184000Y-118562260D01*
X75271376Y-118773204D01*
X75663796Y-119165624D01*
X76176517Y-119378000D01*
X76731483Y-119378000D01*
X77244204Y-119165624D01*
X77636624Y-118773204D01*
X77724000Y-118562260D01*
X77811376Y-118773204D01*
X78203796Y-119165624D01*
X78716517Y-119378000D01*
X79221567Y-119378000D01*
X79227772Y-119384205D01*
X79227775Y-119384207D01*
X80265303Y-120421736D01*
X80311358Y-120490662D01*
X80460041Y-120590009D01*
X80584416Y-120673114D01*
X80906510Y-120737182D01*
X80987813Y-120721010D01*
X112179189Y-120721010D01*
X112260490Y-120737182D01*
X112341791Y-120721010D01*
X112341793Y-120721010D01*
X112582584Y-120673114D01*
X112855642Y-120490662D01*
X112901698Y-120421734D01*
X113556228Y-119767206D01*
X113625152Y-119721152D01*
X113681654Y-119636592D01*
X113750556Y-119533472D01*
X113807604Y-119448094D01*
X113855500Y-119207303D01*
X113855500Y-119207299D01*
X113871671Y-119126001D01*
X113855500Y-119044703D01*
X113855500Y-99903303D01*
X113871672Y-99822000D01*
X113807604Y-99499905D01*
X113698407Y-99336482D01*
X113625152Y-99226848D01*
X113556226Y-99180793D01*
X113244933Y-98869500D01*
X115112722Y-98869500D01*
X115100091Y-98933000D01*
G36*
X106506598Y-92736031D02*
X106380843Y-92924235D01*
X106331560Y-93172000D01*
X106331560Y-93772000D01*
X106380843Y-94019765D01*
X106521191Y-94229809D01*
X106731235Y-94370157D01*
X106979000Y-94419440D01*
X108479000Y-94419440D01*
X108726765Y-94370157D01*
X108835503Y-94297500D01*
X114212068Y-94297500D01*
X115609067Y-95694500D01*
X109729287Y-95694500D01*
X109520563Y-95485776D01*
X109474506Y-95416848D01*
X109201448Y-95234396D01*
X108960657Y-95186500D01*
X108960655Y-95186500D01*
X108879354Y-95170328D01*
X108826912Y-95180759D01*
X108726765Y-95113843D01*
X108479000Y-95064560D01*
X106979000Y-95064560D01*
X106731235Y-95113843D01*
X106521191Y-95254191D01*
X106380843Y-95464235D01*
X106331560Y-95712000D01*
X106331560Y-96312000D01*
X106380843Y-96559765D01*
X106439132Y-96647000D01*
X106380843Y-96734235D01*
X106331560Y-96982000D01*
X106331560Y-97582000D01*
X106380843Y-97829765D01*
X106439132Y-97917000D01*
X106380843Y-98004235D01*
X106331560Y-98252000D01*
X106331560Y-98852000D01*
X106380843Y-99099765D01*
X106439132Y-99187000D01*
X106380843Y-99274235D01*
X106331560Y-99522000D01*
X106331560Y-100122000D01*
X106380843Y-100369765D01*
X106439132Y-100457000D01*
X106380843Y-100544235D01*
X106331560Y-100792000D01*
X106331560Y-101392000D01*
X106380843Y-101639765D01*
X106439132Y-101727000D01*
X106380843Y-101814235D01*
X106331560Y-102062000D01*
X106331560Y-102662000D01*
X106380843Y-102909765D01*
X106521191Y-103119809D01*
X106731235Y-103260157D01*
X106979000Y-103309440D01*
X108394501Y-103309440D01*
X108394500Y-110148067D01*
X107608068Y-110934500D01*
X85196701Y-110934500D01*
X85115399Y-110918328D01*
X85034098Y-110934500D01*
X85034097Y-110934500D01*
X84793306Y-110982396D01*
X84520248Y-111164848D01*
X84474193Y-111233774D01*
X83547775Y-112160193D01*
X83478849Y-112206248D01*
X83432794Y-112275174D01*
X83296397Y-112479306D01*
X83232328Y-112801400D01*
X83248501Y-112882706D01*
X83248500Y-114295672D01*
X82891376Y-114652796D01*
X82804000Y-114863740D01*
X82716624Y-114652796D01*
X82324204Y-114260376D01*
X81811483Y-114048000D01*
X81256517Y-114048000D01*
X80743796Y-114260376D01*
X80351376Y-114652796D01*
X80264000Y-114863740D01*
X80176624Y-114652796D01*
X79784204Y-114260376D01*
X79271483Y-114048000D01*
X78716517Y-114048000D01*
X78203796Y-114260376D01*
X77811376Y-114652796D01*
X77599000Y-115165517D01*
X77599000Y-115720483D01*
X77811376Y-116233204D01*
X78203796Y-116625624D01*
X78414740Y-116713000D01*
X78203796Y-116800376D01*
X77811376Y-117192796D01*
X77724000Y-117403740D01*
X77636624Y-117192796D01*
X77244204Y-116800376D01*
X76731483Y-116588000D01*
X76176517Y-116588000D01*
X75663796Y-116800376D01*
X75271376Y-117192796D01*
X75184000Y-117403740D01*
X75096624Y-117192796D01*
X74704204Y-116800376D01*
X74493260Y-116713000D01*
X74704204Y-116625624D01*
X75096624Y-116233204D01*
X75309000Y-115720483D01*
X75309000Y-115165517D01*
X75096624Y-114652796D01*
X74739500Y-114295672D01*
X74739500Y-111035132D01*
X75475133Y-110299500D01*
X88818699Y-110299500D01*
X88900000Y-110315672D01*
X88981301Y-110299500D01*
X88981303Y-110299500D01*
X89222094Y-110251604D01*
X89495152Y-110069152D01*
X89541209Y-110000223D01*
X92982229Y-106559205D01*
X93051152Y-106513152D01*
X93233604Y-106240094D01*
X93281500Y-105999303D01*
X93281500Y-105999299D01*
X93297671Y-105918001D01*
X93281500Y-105836703D01*
X93281500Y-100092500D01*
X94472560Y-100092500D01*
X94472560Y-100567500D01*
X94539922Y-100906152D01*
X94731753Y-101193247D01*
X95018848Y-101385078D01*
X95357500Y-101452440D01*
X95932500Y-101452440D01*
X96271152Y-101385078D01*
X96520000Y-101218803D01*
X96768848Y-101385078D01*
X97107500Y-101452440D01*
X97165128Y-101452440D01*
X95600008Y-103017560D01*
X95357500Y-103017560D01*
X95018848Y-103084922D01*
X94731753Y-103276753D01*
X94539922Y-103563848D01*
X94472560Y-103902500D01*
X94472560Y-104377500D01*
X94539922Y-104716152D01*
X94731753Y-105003247D01*
X95018848Y-105195078D01*
X95357500Y-105262440D01*
X95932500Y-105262440D01*
X96271152Y-105195078D01*
X96558247Y-105003247D01*
X96750078Y-104716152D01*
X96817440Y-104377500D01*
X96817440Y-104134992D01*
X100304933Y-100647500D01*
X100960303Y-100647500D01*
X100931560Y-100792000D01*
X100931560Y-101392000D01*
X100980843Y-101639765D01*
X101039132Y-101727000D01*
X100980843Y-101814235D01*
X100931560Y-102062000D01*
X100931560Y-102662000D01*
X100980843Y-102909765D01*
X101121191Y-103119809D01*
X101331235Y-103260157D01*
X101579000Y-103309440D01*
X103079000Y-103309440D01*
X103326765Y-103260157D01*
X103536809Y-103119809D01*
X103677157Y-102909765D01*
X103726440Y-102662000D01*
X103726440Y-102062000D01*
X103677157Y-101814235D01*
X103618868Y-101727000D01*
X103677157Y-101639765D01*
X103726440Y-101392000D01*
X103726440Y-100792000D01*
X103677157Y-100544235D01*
X103618868Y-100457000D01*
X103677157Y-100369765D01*
X103726440Y-100122000D01*
X103726440Y-99522000D01*
X103677157Y-99274235D01*
X103618868Y-99187000D01*
X103677157Y-99099765D01*
X103726440Y-98852000D01*
X103726440Y-98252000D01*
X103677157Y-98004235D01*
X103618868Y-97917000D01*
X103677157Y-97829765D01*
X103726440Y-97582000D01*
X103726440Y-96982000D01*
X103677157Y-96734235D01*
X103618868Y-96647000D01*
X103677157Y-96559765D01*
X103726440Y-96312000D01*
X103726440Y-96137860D01*
X103766999Y-96145928D01*
X103842042Y-96131001D01*
X103842047Y-96131001D01*
X104064316Y-96086789D01*
X104316370Y-95918372D01*
X104358883Y-95854747D01*
X104422546Y-95791084D01*
X104486171Y-95748571D01*
X104654588Y-95496517D01*
X104698800Y-95274248D01*
X104698800Y-95274247D01*
X104713728Y-95199200D01*
X104698800Y-95124153D01*
X104698800Y-94150842D01*
X104713727Y-94075799D01*
X104698800Y-94000756D01*
X104698800Y-94000752D01*
X104654588Y-93778483D01*
X104650257Y-93772000D01*
X104528682Y-93590051D01*
X104486171Y-93526429D01*
X104422550Y-93483919D01*
X103924883Y-92986253D01*
X103882371Y-92922629D01*
X103630317Y-92754212D01*
X103553316Y-92738896D01*
X103536809Y-92714191D01*
X103326765Y-92573843D01*
X103079000Y-92524560D01*
X101579000Y-92524560D01*
X101331235Y-92573843D01*
X101121191Y-92714191D01*
X100980843Y-92924235D01*
X100931560Y-93172000D01*
X100931560Y-93772000D01*
X100960303Y-93916500D01*
X100055440Y-93916500D01*
X100055440Y-93717900D01*
X99988078Y-93379248D01*
X99796247Y-93092153D01*
X99509152Y-92900322D01*
X99170500Y-92832960D01*
X98695500Y-92832960D01*
X98356848Y-92900322D01*
X98069753Y-93092153D01*
X97877922Y-93379248D01*
X97810560Y-93717900D01*
X97810560Y-94292900D01*
X97877922Y-94631552D01*
X98069753Y-94918647D01*
X98141429Y-94966540D01*
X97888209Y-95219760D01*
X97555900Y-95219760D01*
X97217248Y-95287122D01*
X96930153Y-95478953D01*
X96738322Y-95766048D01*
X96670960Y-96104700D01*
X96670960Y-96579700D01*
X96738322Y-96918352D01*
X96930153Y-97205447D01*
X97217248Y-97397278D01*
X97378262Y-97429306D01*
X95600008Y-99207560D01*
X95357500Y-99207560D01*
X95018848Y-99274922D01*
X94731753Y-99466753D01*
X94539922Y-99753848D01*
X94472560Y-100092500D01*
X93281500Y-100092500D01*
X93281500Y-90003932D01*
X95083933Y-88201500D01*
X101972068Y-88201500D01*
X106506598Y-92736031D01*
X106506598Y-92736031D01*
G37*
X106506598Y-92736031D02*
X106380843Y-92924235D01*
X106331560Y-93172000D01*
X106331560Y-93772000D01*
X106380843Y-94019765D01*
X106521191Y-94229809D01*
X106731235Y-94370157D01*
X106979000Y-94419440D01*
X108479000Y-94419440D01*
X108726765Y-94370157D01*
X108835503Y-94297500D01*
X114212068Y-94297500D01*
X115609067Y-95694500D01*
X109729287Y-95694500D01*
X109520563Y-95485776D01*
X109474506Y-95416848D01*
X109201448Y-95234396D01*
X108960657Y-95186500D01*
X108960655Y-95186500D01*
X108879354Y-95170328D01*
X108826912Y-95180759D01*
X108726765Y-95113843D01*
X108479000Y-95064560D01*
X106979000Y-95064560D01*
X106731235Y-95113843D01*
X106521191Y-95254191D01*
X106380843Y-95464235D01*
X106331560Y-95712000D01*
X106331560Y-96312000D01*
X106380843Y-96559765D01*
X106439132Y-96647000D01*
X106380843Y-96734235D01*
X106331560Y-96982000D01*
X106331560Y-97582000D01*
X106380843Y-97829765D01*
X106439132Y-97917000D01*
X106380843Y-98004235D01*
X106331560Y-98252000D01*
X106331560Y-98852000D01*
X106380843Y-99099765D01*
X106439132Y-99187000D01*
X106380843Y-99274235D01*
X106331560Y-99522000D01*
X106331560Y-100122000D01*
X106380843Y-100369765D01*
X106439132Y-100457000D01*
X106380843Y-100544235D01*
X106331560Y-100792000D01*
X106331560Y-101392000D01*
X106380843Y-101639765D01*
X106439132Y-101727000D01*
X106380843Y-101814235D01*
X106331560Y-102062000D01*
X106331560Y-102662000D01*
X106380843Y-102909765D01*
X106521191Y-103119809D01*
X106731235Y-103260157D01*
X106979000Y-103309440D01*
X108394501Y-103309440D01*
X108394500Y-110148067D01*
X107608068Y-110934500D01*
X85196701Y-110934500D01*
X85115399Y-110918328D01*
X85034098Y-110934500D01*
X85034097Y-110934500D01*
X84793306Y-110982396D01*
X84520248Y-111164848D01*
X84474193Y-111233774D01*
X83547775Y-112160193D01*
X83478849Y-112206248D01*
X83432794Y-112275174D01*
X83296397Y-112479306D01*
X83232328Y-112801400D01*
X83248501Y-112882706D01*
X83248500Y-114295672D01*
X82891376Y-114652796D01*
X82804000Y-114863740D01*
X82716624Y-114652796D01*
X82324204Y-114260376D01*
X81811483Y-114048000D01*
X81256517Y-114048000D01*
X80743796Y-114260376D01*
X80351376Y-114652796D01*
X80264000Y-114863740D01*
X80176624Y-114652796D01*
X79784204Y-114260376D01*
X79271483Y-114048000D01*
X78716517Y-114048000D01*
X78203796Y-114260376D01*
X77811376Y-114652796D01*
X77599000Y-115165517D01*
X77599000Y-115720483D01*
X77811376Y-116233204D01*
X78203796Y-116625624D01*
X78414740Y-116713000D01*
X78203796Y-116800376D01*
X77811376Y-117192796D01*
X77724000Y-117403740D01*
X77636624Y-117192796D01*
X77244204Y-116800376D01*
X76731483Y-116588000D01*
X76176517Y-116588000D01*
X75663796Y-116800376D01*
X75271376Y-117192796D01*
X75184000Y-117403740D01*
X75096624Y-117192796D01*
X74704204Y-116800376D01*
X74493260Y-116713000D01*
X74704204Y-116625624D01*
X75096624Y-116233204D01*
X75309000Y-115720483D01*
X75309000Y-115165517D01*
X75096624Y-114652796D01*
X74739500Y-114295672D01*
X74739500Y-111035132D01*
X75475133Y-110299500D01*
X88818699Y-110299500D01*
X88900000Y-110315672D01*
X88981301Y-110299500D01*
X88981303Y-110299500D01*
X89222094Y-110251604D01*
X89495152Y-110069152D01*
X89541209Y-110000223D01*
X92982229Y-106559205D01*
X93051152Y-106513152D01*
X93233604Y-106240094D01*
X93281500Y-105999303D01*
X93281500Y-105999299D01*
X93297671Y-105918001D01*
X93281500Y-105836703D01*
X93281500Y-100092500D01*
X94472560Y-100092500D01*
X94472560Y-100567500D01*
X94539922Y-100906152D01*
X94731753Y-101193247D01*
X95018848Y-101385078D01*
X95357500Y-101452440D01*
X95932500Y-101452440D01*
X96271152Y-101385078D01*
X96520000Y-101218803D01*
X96768848Y-101385078D01*
X97107500Y-101452440D01*
X97165128Y-101452440D01*
X95600008Y-103017560D01*
X95357500Y-103017560D01*
X95018848Y-103084922D01*
X94731753Y-103276753D01*
X94539922Y-103563848D01*
X94472560Y-103902500D01*
X94472560Y-104377500D01*
X94539922Y-104716152D01*
X94731753Y-105003247D01*
X95018848Y-105195078D01*
X95357500Y-105262440D01*
X95932500Y-105262440D01*
X96271152Y-105195078D01*
X96558247Y-105003247D01*
X96750078Y-104716152D01*
X96817440Y-104377500D01*
X96817440Y-104134992D01*
X100304933Y-100647500D01*
X100960303Y-100647500D01*
X100931560Y-100792000D01*
X100931560Y-101392000D01*
X100980843Y-101639765D01*
X101039132Y-101727000D01*
X100980843Y-101814235D01*
X100931560Y-102062000D01*
X100931560Y-102662000D01*
X100980843Y-102909765D01*
X101121191Y-103119809D01*
X101331235Y-103260157D01*
X101579000Y-103309440D01*
X103079000Y-103309440D01*
X103326765Y-103260157D01*
X103536809Y-103119809D01*
X103677157Y-102909765D01*
X103726440Y-102662000D01*
X103726440Y-102062000D01*
X103677157Y-101814235D01*
X103618868Y-101727000D01*
X103677157Y-101639765D01*
X103726440Y-101392000D01*
X103726440Y-100792000D01*
X103677157Y-100544235D01*
X103618868Y-100457000D01*
X103677157Y-100369765D01*
X103726440Y-100122000D01*
X103726440Y-99522000D01*
X103677157Y-99274235D01*
X103618868Y-99187000D01*
X103677157Y-99099765D01*
X103726440Y-98852000D01*
X103726440Y-98252000D01*
X103677157Y-98004235D01*
X103618868Y-97917000D01*
X103677157Y-97829765D01*
X103726440Y-97582000D01*
X103726440Y-96982000D01*
X103677157Y-96734235D01*
X103618868Y-96647000D01*
X103677157Y-96559765D01*
X103726440Y-96312000D01*
X103726440Y-96137860D01*
X103766999Y-96145928D01*
X103842042Y-96131001D01*
X103842047Y-96131001D01*
X104064316Y-96086789D01*
X104316370Y-95918372D01*
X104358883Y-95854747D01*
X104422546Y-95791084D01*
X104486171Y-95748571D01*
X104654588Y-95496517D01*
X104698800Y-95274248D01*
X104698800Y-95274247D01*
X104713728Y-95199200D01*
X104698800Y-95124153D01*
X104698800Y-94150842D01*
X104713727Y-94075799D01*
X104698800Y-94000756D01*
X104698800Y-94000752D01*
X104654588Y-93778483D01*
X104650257Y-93772000D01*
X104528682Y-93590051D01*
X104486171Y-93526429D01*
X104422550Y-93483919D01*
X103924883Y-92986253D01*
X103882371Y-92922629D01*
X103630317Y-92754212D01*
X103553316Y-92738896D01*
X103536809Y-92714191D01*
X103326765Y-92573843D01*
X103079000Y-92524560D01*
X101579000Y-92524560D01*
X101331235Y-92573843D01*
X101121191Y-92714191D01*
X100980843Y-92924235D01*
X100931560Y-93172000D01*
X100931560Y-93772000D01*
X100960303Y-93916500D01*
X100055440Y-93916500D01*
X100055440Y-93717900D01*
X99988078Y-93379248D01*
X99796247Y-93092153D01*
X99509152Y-92900322D01*
X99170500Y-92832960D01*
X98695500Y-92832960D01*
X98356848Y-92900322D01*
X98069753Y-93092153D01*
X97877922Y-93379248D01*
X97810560Y-93717900D01*
X97810560Y-94292900D01*
X97877922Y-94631552D01*
X98069753Y-94918647D01*
X98141429Y-94966540D01*
X97888209Y-95219760D01*
X97555900Y-95219760D01*
X97217248Y-95287122D01*
X96930153Y-95478953D01*
X96738322Y-95766048D01*
X96670960Y-96104700D01*
X96670960Y-96579700D01*
X96738322Y-96918352D01*
X96930153Y-97205447D01*
X97217248Y-97397278D01*
X97378262Y-97429306D01*
X95600008Y-99207560D01*
X95357500Y-99207560D01*
X95018848Y-99274922D01*
X94731753Y-99466753D01*
X94539922Y-99753848D01*
X94472560Y-100092500D01*
X93281500Y-100092500D01*
X93281500Y-90003932D01*
X95083933Y-88201500D01*
X101972068Y-88201500D01*
X106506598Y-92736031D01*
G36*
X131941009Y-53094090D02*
X132280352Y-53248381D01*
X132562752Y-53491712D01*
X132765506Y-53804523D01*
X132879348Y-54185184D01*
X132894000Y-54382350D01*
X132894001Y-96850412D01*
X132833910Y-97270009D01*
X132679619Y-97609352D01*
X132436288Y-97891752D01*
X132123479Y-98094506D01*
X131742815Y-98208348D01*
X131545649Y-98223000D01*
X131036433Y-98223000D01*
X131082226Y-98177207D01*
X131151152Y-98131152D01*
X131333604Y-97858094D01*
X131381500Y-97617303D01*
X131381500Y-97617299D01*
X131397671Y-97536001D01*
X131381500Y-97454703D01*
X131381500Y-69677297D01*
X131397671Y-69595999D01*
X131381500Y-69514701D01*
X131381500Y-69514697D01*
X131333604Y-69273906D01*
X131151152Y-69000848D01*
X131082226Y-68954793D01*
X129876728Y-67749296D01*
X129830671Y-67680367D01*
X129557613Y-67497915D01*
X129316822Y-67450019D01*
X129316820Y-67450019D01*
X129235519Y-67433847D01*
X129154218Y-67450019D01*
X91858452Y-67450019D01*
X90170000Y-65761568D01*
X90170000Y-65254119D01*
X89957320Y-64740663D01*
X89564337Y-64347680D01*
X89050881Y-64135000D01*
X88495119Y-64135000D01*
X87981663Y-64347680D01*
X87588680Y-64740663D01*
X87503000Y-64947513D01*
X87417320Y-64740663D01*
X87024337Y-64347680D01*
X86510881Y-64135000D01*
X85955119Y-64135000D01*
X85441663Y-64347680D01*
X85048680Y-64740663D01*
X84836000Y-65254119D01*
X84836000Y-65809881D01*
X85048680Y-66323337D01*
X85441663Y-66716320D01*
X85955119Y-66929000D01*
X86462568Y-66929000D01*
X88916322Y-69382755D01*
X88962377Y-69451681D01*
X89235435Y-69634133D01*
X89476226Y-69682029D01*
X89476227Y-69682029D01*
X89557528Y-69698201D01*
X89638830Y-69682029D01*
X128652924Y-69682029D01*
X129149490Y-70178595D01*
X129149491Y-95416066D01*
X128871058Y-95694500D01*
X128738933Y-95694500D01*
X128796225Y-95637207D01*
X128865152Y-95591152D01*
X129047604Y-95318094D01*
X129095500Y-95077303D01*
X129095500Y-95077299D01*
X129111671Y-94996001D01*
X129095500Y-94914703D01*
X129095500Y-76281303D01*
X129111672Y-76200000D01*
X129047604Y-75877906D01*
X128865152Y-75604848D01*
X128592094Y-75422396D01*
X128351303Y-75374500D01*
X128351302Y-75374500D01*
X128270000Y-75358328D01*
X128188697Y-75374500D01*
X125811297Y-75374500D01*
X125729999Y-75358329D01*
X125648701Y-75374500D01*
X125648697Y-75374500D01*
X125407906Y-75422396D01*
X125134848Y-75604848D01*
X125088793Y-75673774D01*
X124587000Y-76175567D01*
X124142500Y-75731068D01*
X124142500Y-74711469D01*
X124180247Y-74686247D01*
X124372078Y-74399152D01*
X124439440Y-74060500D01*
X124439440Y-73485500D01*
X124372078Y-73146848D01*
X124180247Y-72859753D01*
X123893152Y-72667922D01*
X123554500Y-72600560D01*
X123079500Y-72600560D01*
X122740848Y-72667922D01*
X122453753Y-72859753D01*
X122261922Y-73146848D01*
X122194560Y-73485500D01*
X122194560Y-74060500D01*
X122261922Y-74399152D01*
X122453753Y-74686247D01*
X122491501Y-74711469D01*
X122491501Y-74848694D01*
X122491500Y-74848698D01*
X122491501Y-75991694D01*
X122475328Y-76073000D01*
X122539397Y-76395094D01*
X122721849Y-76668152D01*
X122790775Y-76714207D01*
X123761501Y-77684934D01*
X123761501Y-78224842D01*
X123402680Y-78583663D01*
X123190000Y-79097119D01*
X123190000Y-79652881D01*
X123402680Y-80166337D01*
X123795663Y-80559320D01*
X124309119Y-80772000D01*
X124864881Y-80772000D01*
X125378337Y-80559320D01*
X125771320Y-80166337D01*
X125984000Y-79652881D01*
X125984000Y-79097119D01*
X125771320Y-78583663D01*
X125412500Y-78224843D01*
X125412500Y-77684932D01*
X126071933Y-77025500D01*
X127444500Y-77025500D01*
X127444501Y-94654067D01*
X127420068Y-94678500D01*
X116927933Y-94678500D01*
X115195209Y-92945777D01*
X115149152Y-92876848D01*
X114876094Y-92694396D01*
X114635303Y-92646500D01*
X114635301Y-92646500D01*
X114554000Y-92630328D01*
X114472699Y-92646500D01*
X108835503Y-92646500D01*
X108726765Y-92573843D01*
X108519267Y-92532570D01*
X108506604Y-92468906D01*
X108324152Y-92195848D01*
X108255229Y-92149795D01*
X102955209Y-86849777D01*
X102909152Y-86780848D01*
X102636094Y-86598396D01*
X102395303Y-86550500D01*
X102395301Y-86550500D01*
X102314000Y-86534328D01*
X102232699Y-86550500D01*
X94823297Y-86550500D01*
X94741999Y-86534329D01*
X94660701Y-86550500D01*
X94660697Y-86550500D01*
X94419906Y-86598396D01*
X94146848Y-86780848D01*
X94100793Y-86849774D01*
X91929775Y-89020793D01*
X91860849Y-89066848D01*
X91814794Y-89135774D01*
X91678397Y-89339906D01*
X91614328Y-89662000D01*
X91630501Y-89743306D01*
X91630500Y-105576066D01*
X88558068Y-108648500D01*
X75214497Y-108648500D01*
X75133199Y-108632329D01*
X75051901Y-108648500D01*
X75051897Y-108648500D01*
X74811106Y-108696396D01*
X74538048Y-108878848D01*
X74491993Y-108947774D01*
X73387775Y-110051993D01*
X73354000Y-110074561D01*
X73354000Y-85094453D01*
X81178400Y-85094453D01*
X81178400Y-86357547D01*
X81661765Y-87524493D01*
X82554907Y-88417635D01*
X83721853Y-88901000D01*
X84984947Y-88901000D01*
X86151893Y-88417635D01*
X87045035Y-87524493D01*
X87528400Y-86357547D01*
X87528400Y-85094453D01*
X87125373Y-84121460D01*
X91046333Y-80200500D01*
X118356843Y-80200500D01*
X118715663Y-80559320D01*
X119229119Y-80772000D01*
X119784881Y-80772000D01*
X120298337Y-80559320D01*
X120691320Y-80166337D01*
X120904000Y-79652881D01*
X120904000Y-79097119D01*
X120691320Y-78583663D01*
X120298337Y-78190680D01*
X119784881Y-77978000D01*
X119277433Y-77978000D01*
X118568500Y-77269068D01*
X118568500Y-73819878D01*
X118656247Y-73761247D01*
X118848078Y-73474152D01*
X118915440Y-73135500D01*
X118915440Y-72660500D01*
X118848078Y-72321848D01*
X118656247Y-72034753D01*
X118369152Y-71842922D01*
X118030500Y-71775560D01*
X117455500Y-71775560D01*
X117116848Y-71842922D01*
X116829753Y-72034753D01*
X116637922Y-72321848D01*
X116570560Y-72660500D01*
X116570560Y-73135500D01*
X116637922Y-73474152D01*
X116829753Y-73761247D01*
X116917500Y-73819878D01*
X116917501Y-77529694D01*
X116901328Y-77611000D01*
X116965397Y-77933094D01*
X117147849Y-78206152D01*
X117216775Y-78252207D01*
X117514068Y-78549500D01*
X90785697Y-78549500D01*
X90704399Y-78533329D01*
X90623101Y-78549500D01*
X90623097Y-78549500D01*
X90382306Y-78597396D01*
X90109248Y-78779848D01*
X90063194Y-78848773D01*
X85957940Y-82954027D01*
X84984947Y-82551000D01*
X83721853Y-82551000D01*
X82554907Y-83034365D01*
X81661765Y-83927507D01*
X81178400Y-85094453D01*
X73354000Y-85094453D01*
X73354000Y-76080978D01*
X73636517Y-76198000D01*
X74191483Y-76198000D01*
X74704204Y-75985624D01*
X75096624Y-75593204D01*
X75184000Y-75382260D01*
X75271376Y-75593204D01*
X75663796Y-75985624D01*
X76176517Y-76198000D01*
X76731483Y-76198000D01*
X77244204Y-75985624D01*
X77636624Y-75593204D01*
X77724000Y-75382260D01*
X77811376Y-75593204D01*
X78203796Y-75985624D01*
X78716517Y-76198000D01*
X79271483Y-76198000D01*
X79784204Y-75985624D01*
X80176624Y-75593204D01*
X80264000Y-75382260D01*
X80351376Y-75593204D01*
X80743796Y-75985624D01*
X81256517Y-76198000D01*
X81811483Y-76198000D01*
X82324204Y-75985624D01*
X82716624Y-75593204D01*
X82804000Y-75382260D01*
X82891376Y-75593204D01*
X83283796Y-75985624D01*
X83796517Y-76198000D01*
X84351483Y-76198000D01*
X84864204Y-75985624D01*
X85256624Y-75593204D01*
X85344000Y-75382260D01*
X85431376Y-75593204D01*
X85823796Y-75985624D01*
X86336517Y-76198000D01*
X86891483Y-76198000D01*
X87404204Y-75985624D01*
X87796624Y-75593204D01*
X87884000Y-75382260D01*
X87971376Y-75593204D01*
X88363796Y-75985624D01*
X88876517Y-76198000D01*
X89431483Y-76198000D01*
X89944204Y-75985624D01*
X90336624Y-75593204D01*
X90424000Y-75382260D01*
X90511376Y-75593204D01*
X90903796Y-75985624D01*
X91416517Y-76198000D01*
X91971483Y-76198000D01*
X92484204Y-75985624D01*
X92876624Y-75593204D01*
X92964000Y-75382260D01*
X93051376Y-75593204D01*
X93443796Y-75985624D01*
X93956517Y-76198000D01*
X94511483Y-76198000D01*
X95024204Y-75985624D01*
X95416624Y-75593204D01*
X95504000Y-75382260D01*
X95591376Y-75593204D01*
X95983796Y-75985624D01*
X96496517Y-76198000D01*
X97051483Y-76198000D01*
X97564204Y-75985624D01*
X97956624Y-75593204D01*
X98169000Y-75080483D01*
X98169000Y-74525517D01*
X97956624Y-74012796D01*
X97564204Y-73620376D01*
X97353260Y-73533000D01*
X97564204Y-73445624D01*
X97956624Y-73053204D01*
X98169000Y-72540483D01*
X98169000Y-71985517D01*
X97956624Y-71472796D01*
X97564204Y-71080376D01*
X97051483Y-70868000D01*
X96496517Y-70868000D01*
X95983796Y-71080376D01*
X95591376Y-71472796D01*
X95504000Y-71683740D01*
X95416624Y-71472796D01*
X95024204Y-71080376D01*
X94511483Y-70868000D01*
X93956517Y-70868000D01*
X93443796Y-71080376D01*
X93051376Y-71472796D01*
X92964000Y-71683740D01*
X92876624Y-71472796D01*
X92484204Y-71080376D01*
X91971483Y-70868000D01*
X91416517Y-70868000D01*
X90903796Y-71080376D01*
X90511376Y-71472796D01*
X90424000Y-71683740D01*
X90336624Y-71472796D01*
X89944204Y-71080376D01*
X89431483Y-70868000D01*
X88876517Y-70868000D01*
X88363796Y-71080376D01*
X87971376Y-71472796D01*
X87884000Y-71683740D01*
X87796624Y-71472796D01*
X87404204Y-71080376D01*
X86891483Y-70868000D01*
X86336517Y-70868000D01*
X85823796Y-71080376D01*
X85431376Y-71472796D01*
X85344000Y-71683740D01*
X85256624Y-71472796D01*
X84864204Y-71080376D01*
X84351483Y-70868000D01*
X83796517Y-70868000D01*
X83283796Y-71080376D01*
X82891376Y-71472796D01*
X82804000Y-71683740D01*
X82716624Y-71472796D01*
X82324204Y-71080376D01*
X81811483Y-70868000D01*
X81256517Y-70868000D01*
X80743796Y-71080376D01*
X80351376Y-71472796D01*
X80264000Y-71683740D01*
X80176624Y-71472796D01*
X79784204Y-71080376D01*
X79271483Y-70868000D01*
X78716517Y-70868000D01*
X78203796Y-71080376D01*
X77811376Y-71472796D01*
X77724000Y-71683740D01*
X77636624Y-71472796D01*
X77244204Y-71080376D01*
X76731483Y-70868000D01*
X76176517Y-70868000D01*
X75663796Y-71080376D01*
X75271376Y-71472796D01*
X75059000Y-71985517D01*
X75059000Y-72540483D01*
X75271376Y-73053204D01*
X75663796Y-73445624D01*
X75874740Y-73533000D01*
X75663796Y-73620376D01*
X75271376Y-74012796D01*
X75184000Y-74223740D01*
X75096624Y-74012796D01*
X74704204Y-73620376D01*
X74191483Y-73408000D01*
X73636517Y-73408000D01*
X73354000Y-73525022D01*
X73354000Y-65254119D01*
X77216000Y-65254119D01*
X77216000Y-65809881D01*
X77428680Y-66323337D01*
X77821663Y-66716320D01*
X78335119Y-66929000D01*
X78890881Y-66929000D01*
X79404337Y-66716320D01*
X79797320Y-66323337D01*
X79883000Y-66116487D01*
X79968680Y-66323337D01*
X80361663Y-66716320D01*
X80875119Y-66929000D01*
X81430881Y-66929000D01*
X81944337Y-66716320D01*
X82337320Y-66323337D01*
X82550000Y-65809881D01*
X82550000Y-65254119D01*
X82337320Y-64740663D01*
X81944337Y-64347680D01*
X81430881Y-64135000D01*
X80875119Y-64135000D01*
X80361663Y-64347680D01*
X79968680Y-64740663D01*
X79883000Y-64947513D01*
X79797320Y-64740663D01*
X79404337Y-64347680D01*
X78890881Y-64135000D01*
X78335119Y-64135000D01*
X77821663Y-64347680D01*
X77428680Y-64740663D01*
X77216000Y-65254119D01*
X73354000Y-65254119D01*
X73354000Y-56426567D01*
X74983000Y-56426567D01*
X74983000Y-57365433D01*
X75342289Y-58232833D01*
X76006167Y-58896711D01*
X76873567Y-59256000D01*
X77812433Y-59256000D01*
X78679833Y-58896711D01*
X79343711Y-58232833D01*
X79703000Y-57365433D01*
X79703000Y-56426567D01*
X87683000Y-56426567D01*
X87683000Y-57365433D01*
X88042289Y-58232833D01*
X88706167Y-58896711D01*
X89573567Y-59256000D01*
X90512433Y-59256000D01*
X91379833Y-58896711D01*
X92043711Y-58232833D01*
X92403000Y-57365433D01*
X92403000Y-56426567D01*
X92043711Y-55559167D01*
X91379833Y-54895289D01*
X90512433Y-54536000D01*
X89573567Y-54536000D01*
X88706167Y-54895289D01*
X88042289Y-55559167D01*
X87683000Y-56426567D01*
X79703000Y-56426567D01*
X79343711Y-55559167D01*
X78679833Y-54895289D01*
X77812433Y-54536000D01*
X76873567Y-54536000D01*
X76006167Y-54895289D01*
X75342289Y-55559167D01*
X74983000Y-56426567D01*
X73354000Y-56426567D01*
X73354000Y-54406581D01*
X73414090Y-53986991D01*
X73568381Y-53647648D01*
X73811712Y-53365248D01*
X74124523Y-53162494D01*
X74505184Y-53048652D01*
X74702350Y-53034000D01*
X131521419Y-53034000D01*
X131941009Y-53094090D01*
X131941009Y-53094090D01*
G37*
X131941009Y-53094090D02*
X132280352Y-53248381D01*
X132562752Y-53491712D01*
X132765506Y-53804523D01*
X132879348Y-54185184D01*
X132894000Y-54382350D01*
X132894001Y-96850412D01*
X132833910Y-97270009D01*
X132679619Y-97609352D01*
X132436288Y-97891752D01*
X132123479Y-98094506D01*
X131742815Y-98208348D01*
X131545649Y-98223000D01*
X131036433Y-98223000D01*
X131082226Y-98177207D01*
X131151152Y-98131152D01*
X131333604Y-97858094D01*
X131381500Y-97617303D01*
X131381500Y-97617299D01*
X131397671Y-97536001D01*
X131381500Y-97454703D01*
X131381500Y-69677297D01*
X131397671Y-69595999D01*
X131381500Y-69514701D01*
X131381500Y-69514697D01*
X131333604Y-69273906D01*
X131151152Y-69000848D01*
X131082226Y-68954793D01*
X129876728Y-67749296D01*
X129830671Y-67680367D01*
X129557613Y-67497915D01*
X129316822Y-67450019D01*
X129316820Y-67450019D01*
X129235519Y-67433847D01*
X129154218Y-67450019D01*
X91858452Y-67450019D01*
X90170000Y-65761568D01*
X90170000Y-65254119D01*
X89957320Y-64740663D01*
X89564337Y-64347680D01*
X89050881Y-64135000D01*
X88495119Y-64135000D01*
X87981663Y-64347680D01*
X87588680Y-64740663D01*
X87503000Y-64947513D01*
X87417320Y-64740663D01*
X87024337Y-64347680D01*
X86510881Y-64135000D01*
X85955119Y-64135000D01*
X85441663Y-64347680D01*
X85048680Y-64740663D01*
X84836000Y-65254119D01*
X84836000Y-65809881D01*
X85048680Y-66323337D01*
X85441663Y-66716320D01*
X85955119Y-66929000D01*
X86462568Y-66929000D01*
X88916322Y-69382755D01*
X88962377Y-69451681D01*
X89235435Y-69634133D01*
X89476226Y-69682029D01*
X89476227Y-69682029D01*
X89557528Y-69698201D01*
X89638830Y-69682029D01*
X128652924Y-69682029D01*
X129149490Y-70178595D01*
X129149491Y-95416066D01*
X128871058Y-95694500D01*
X128738933Y-95694500D01*
X128796225Y-95637207D01*
X128865152Y-95591152D01*
X129047604Y-95318094D01*
X129095500Y-95077303D01*
X129095500Y-95077299D01*
X129111671Y-94996001D01*
X129095500Y-94914703D01*
X129095500Y-76281303D01*
X129111672Y-76200000D01*
X129047604Y-75877906D01*
X128865152Y-75604848D01*
X128592094Y-75422396D01*
X128351303Y-75374500D01*
X128351302Y-75374500D01*
X128270000Y-75358328D01*
X128188697Y-75374500D01*
X125811297Y-75374500D01*
X125729999Y-75358329D01*
X125648701Y-75374500D01*
X125648697Y-75374500D01*
X125407906Y-75422396D01*
X125134848Y-75604848D01*
X125088793Y-75673774D01*
X124587000Y-76175567D01*
X124142500Y-75731068D01*
X124142500Y-74711469D01*
X124180247Y-74686247D01*
X124372078Y-74399152D01*
X124439440Y-74060500D01*
X124439440Y-73485500D01*
X124372078Y-73146848D01*
X124180247Y-72859753D01*
X123893152Y-72667922D01*
X123554500Y-72600560D01*
X123079500Y-72600560D01*
X122740848Y-72667922D01*
X122453753Y-72859753D01*
X122261922Y-73146848D01*
X122194560Y-73485500D01*
X122194560Y-74060500D01*
X122261922Y-74399152D01*
X122453753Y-74686247D01*
X122491501Y-74711469D01*
X122491501Y-74848694D01*
X122491500Y-74848698D01*
X122491501Y-75991694D01*
X122475328Y-76073000D01*
X122539397Y-76395094D01*
X122721849Y-76668152D01*
X122790775Y-76714207D01*
X123761501Y-77684934D01*
X123761501Y-78224842D01*
X123402680Y-78583663D01*
X123190000Y-79097119D01*
X123190000Y-79652881D01*
X123402680Y-80166337D01*
X123795663Y-80559320D01*
X124309119Y-80772000D01*
X124864881Y-80772000D01*
X125378337Y-80559320D01*
X125771320Y-80166337D01*
X125984000Y-79652881D01*
X125984000Y-79097119D01*
X125771320Y-78583663D01*
X125412500Y-78224843D01*
X125412500Y-77684932D01*
X126071933Y-77025500D01*
X127444500Y-77025500D01*
X127444501Y-94654067D01*
X127420068Y-94678500D01*
X116927933Y-94678500D01*
X115195209Y-92945777D01*
X115149152Y-92876848D01*
X114876094Y-92694396D01*
X114635303Y-92646500D01*
X114635301Y-92646500D01*
X114554000Y-92630328D01*
X114472699Y-92646500D01*
X108835503Y-92646500D01*
X108726765Y-92573843D01*
X108519267Y-92532570D01*
X108506604Y-92468906D01*
X108324152Y-92195848D01*
X108255229Y-92149795D01*
X102955209Y-86849777D01*
X102909152Y-86780848D01*
X102636094Y-86598396D01*
X102395303Y-86550500D01*
X102395301Y-86550500D01*
X102314000Y-86534328D01*
X102232699Y-86550500D01*
X94823297Y-86550500D01*
X94741999Y-86534329D01*
X94660701Y-86550500D01*
X94660697Y-86550500D01*
X94419906Y-86598396D01*
X94146848Y-86780848D01*
X94100793Y-86849774D01*
X91929775Y-89020793D01*
X91860849Y-89066848D01*
X91814794Y-89135774D01*
X91678397Y-89339906D01*
X91614328Y-89662000D01*
X91630501Y-89743306D01*
X91630500Y-105576066D01*
X88558068Y-108648500D01*
X75214497Y-108648500D01*
X75133199Y-108632329D01*
X75051901Y-108648500D01*
X75051897Y-108648500D01*
X74811106Y-108696396D01*
X74538048Y-108878848D01*
X74491993Y-108947774D01*
X73387775Y-110051993D01*
X73354000Y-110074561D01*
X73354000Y-85094453D01*
X81178400Y-85094453D01*
X81178400Y-86357547D01*
X81661765Y-87524493D01*
X82554907Y-88417635D01*
X83721853Y-88901000D01*
X84984947Y-88901000D01*
X86151893Y-88417635D01*
X87045035Y-87524493D01*
X87528400Y-86357547D01*
X87528400Y-85094453D01*
X87125373Y-84121460D01*
X91046333Y-80200500D01*
X118356843Y-80200500D01*
X118715663Y-80559320D01*
X119229119Y-80772000D01*
X119784881Y-80772000D01*
X120298337Y-80559320D01*
X120691320Y-80166337D01*
X120904000Y-79652881D01*
X120904000Y-79097119D01*
X120691320Y-78583663D01*
X120298337Y-78190680D01*
X119784881Y-77978000D01*
X119277433Y-77978000D01*
X118568500Y-77269068D01*
X118568500Y-73819878D01*
X118656247Y-73761247D01*
X118848078Y-73474152D01*
X118915440Y-73135500D01*
X118915440Y-72660500D01*
X118848078Y-72321848D01*
X118656247Y-72034753D01*
X118369152Y-71842922D01*
X118030500Y-71775560D01*
X117455500Y-71775560D01*
X117116848Y-71842922D01*
X116829753Y-72034753D01*
X116637922Y-72321848D01*
X116570560Y-72660500D01*
X116570560Y-73135500D01*
X116637922Y-73474152D01*
X116829753Y-73761247D01*
X116917500Y-73819878D01*
X116917501Y-77529694D01*
X116901328Y-77611000D01*
X116965397Y-77933094D01*
X117147849Y-78206152D01*
X117216775Y-78252207D01*
X117514068Y-78549500D01*
X90785697Y-78549500D01*
X90704399Y-78533329D01*
X90623101Y-78549500D01*
X90623097Y-78549500D01*
X90382306Y-78597396D01*
X90109248Y-78779848D01*
X90063194Y-78848773D01*
X85957940Y-82954027D01*
X84984947Y-82551000D01*
X83721853Y-82551000D01*
X82554907Y-83034365D01*
X81661765Y-83927507D01*
X81178400Y-85094453D01*
X73354000Y-85094453D01*
X73354000Y-76080978D01*
X73636517Y-76198000D01*
X74191483Y-76198000D01*
X74704204Y-75985624D01*
X75096624Y-75593204D01*
X75184000Y-75382260D01*
X75271376Y-75593204D01*
X75663796Y-75985624D01*
X76176517Y-76198000D01*
X76731483Y-76198000D01*
X77244204Y-75985624D01*
X77636624Y-75593204D01*
X77724000Y-75382260D01*
X77811376Y-75593204D01*
X78203796Y-75985624D01*
X78716517Y-76198000D01*
X79271483Y-76198000D01*
X79784204Y-75985624D01*
X80176624Y-75593204D01*
X80264000Y-75382260D01*
X80351376Y-75593204D01*
X80743796Y-75985624D01*
X81256517Y-76198000D01*
X81811483Y-76198000D01*
X82324204Y-75985624D01*
X82716624Y-75593204D01*
X82804000Y-75382260D01*
X82891376Y-75593204D01*
X83283796Y-75985624D01*
X83796517Y-76198000D01*
X84351483Y-76198000D01*
X84864204Y-75985624D01*
X85256624Y-75593204D01*
X85344000Y-75382260D01*
X85431376Y-75593204D01*
X85823796Y-75985624D01*
X86336517Y-76198000D01*
X86891483Y-76198000D01*
X87404204Y-75985624D01*
X87796624Y-75593204D01*
X87884000Y-75382260D01*
X87971376Y-75593204D01*
X88363796Y-75985624D01*
X88876517Y-76198000D01*
X89431483Y-76198000D01*
X89944204Y-75985624D01*
X90336624Y-75593204D01*
X90424000Y-75382260D01*
X90511376Y-75593204D01*
X90903796Y-75985624D01*
X91416517Y-76198000D01*
X91971483Y-76198000D01*
X92484204Y-75985624D01*
X92876624Y-75593204D01*
X92964000Y-75382260D01*
X93051376Y-75593204D01*
X93443796Y-75985624D01*
X93956517Y-76198000D01*
X94511483Y-76198000D01*
X95024204Y-75985624D01*
X95416624Y-75593204D01*
X95504000Y-75382260D01*
X95591376Y-75593204D01*
X95983796Y-75985624D01*
X96496517Y-76198000D01*
X97051483Y-76198000D01*
X97564204Y-75985624D01*
X97956624Y-75593204D01*
X98169000Y-75080483D01*
X98169000Y-74525517D01*
X97956624Y-74012796D01*
X97564204Y-73620376D01*
X97353260Y-73533000D01*
X97564204Y-73445624D01*
X97956624Y-73053204D01*
X98169000Y-72540483D01*
X98169000Y-71985517D01*
X97956624Y-71472796D01*
X97564204Y-71080376D01*
X97051483Y-70868000D01*
X96496517Y-70868000D01*
X95983796Y-71080376D01*
X95591376Y-71472796D01*
X95504000Y-71683740D01*
X95416624Y-71472796D01*
X95024204Y-71080376D01*
X94511483Y-70868000D01*
X93956517Y-70868000D01*
X93443796Y-71080376D01*
X93051376Y-71472796D01*
X92964000Y-71683740D01*
X92876624Y-71472796D01*
X92484204Y-71080376D01*
X91971483Y-70868000D01*
X91416517Y-70868000D01*
X90903796Y-71080376D01*
X90511376Y-71472796D01*
X90424000Y-71683740D01*
X90336624Y-71472796D01*
X89944204Y-71080376D01*
X89431483Y-70868000D01*
X88876517Y-70868000D01*
X88363796Y-71080376D01*
X87971376Y-71472796D01*
X87884000Y-71683740D01*
X87796624Y-71472796D01*
X87404204Y-71080376D01*
X86891483Y-70868000D01*
X86336517Y-70868000D01*
X85823796Y-71080376D01*
X85431376Y-71472796D01*
X85344000Y-71683740D01*
X85256624Y-71472796D01*
X84864204Y-71080376D01*
X84351483Y-70868000D01*
X83796517Y-70868000D01*
X83283796Y-71080376D01*
X82891376Y-71472796D01*
X82804000Y-71683740D01*
X82716624Y-71472796D01*
X82324204Y-71080376D01*
X81811483Y-70868000D01*
X81256517Y-70868000D01*
X80743796Y-71080376D01*
X80351376Y-71472796D01*
X80264000Y-71683740D01*
X80176624Y-71472796D01*
X79784204Y-71080376D01*
X79271483Y-70868000D01*
X78716517Y-70868000D01*
X78203796Y-71080376D01*
X77811376Y-71472796D01*
X77724000Y-71683740D01*
X77636624Y-71472796D01*
X77244204Y-71080376D01*
X76731483Y-70868000D01*
X76176517Y-70868000D01*
X75663796Y-71080376D01*
X75271376Y-71472796D01*
X75059000Y-71985517D01*
X75059000Y-72540483D01*
X75271376Y-73053204D01*
X75663796Y-73445624D01*
X75874740Y-73533000D01*
X75663796Y-73620376D01*
X75271376Y-74012796D01*
X75184000Y-74223740D01*
X75096624Y-74012796D01*
X74704204Y-73620376D01*
X74191483Y-73408000D01*
X73636517Y-73408000D01*
X73354000Y-73525022D01*
X73354000Y-65254119D01*
X77216000Y-65254119D01*
X77216000Y-65809881D01*
X77428680Y-66323337D01*
X77821663Y-66716320D01*
X78335119Y-66929000D01*
X78890881Y-66929000D01*
X79404337Y-66716320D01*
X79797320Y-66323337D01*
X79883000Y-66116487D01*
X79968680Y-66323337D01*
X80361663Y-66716320D01*
X80875119Y-66929000D01*
X81430881Y-66929000D01*
X81944337Y-66716320D01*
X82337320Y-66323337D01*
X82550000Y-65809881D01*
X82550000Y-65254119D01*
X82337320Y-64740663D01*
X81944337Y-64347680D01*
X81430881Y-64135000D01*
X80875119Y-64135000D01*
X80361663Y-64347680D01*
X79968680Y-64740663D01*
X79883000Y-64947513D01*
X79797320Y-64740663D01*
X79404337Y-64347680D01*
X78890881Y-64135000D01*
X78335119Y-64135000D01*
X77821663Y-64347680D01*
X77428680Y-64740663D01*
X77216000Y-65254119D01*
X73354000Y-65254119D01*
X73354000Y-56426567D01*
X74983000Y-56426567D01*
X74983000Y-57365433D01*
X75342289Y-58232833D01*
X76006167Y-58896711D01*
X76873567Y-59256000D01*
X77812433Y-59256000D01*
X78679833Y-58896711D01*
X79343711Y-58232833D01*
X79703000Y-57365433D01*
X79703000Y-56426567D01*
X87683000Y-56426567D01*
X87683000Y-57365433D01*
X88042289Y-58232833D01*
X88706167Y-58896711D01*
X89573567Y-59256000D01*
X90512433Y-59256000D01*
X91379833Y-58896711D01*
X92043711Y-58232833D01*
X92403000Y-57365433D01*
X92403000Y-56426567D01*
X92043711Y-55559167D01*
X91379833Y-54895289D01*
X90512433Y-54536000D01*
X89573567Y-54536000D01*
X88706167Y-54895289D01*
X88042289Y-55559167D01*
X87683000Y-56426567D01*
X79703000Y-56426567D01*
X79343711Y-55559167D01*
X78679833Y-54895289D01*
X77812433Y-54536000D01*
X76873567Y-54536000D01*
X76006167Y-54895289D01*
X75342289Y-55559167D01*
X74983000Y-56426567D01*
X73354000Y-56426567D01*
X73354000Y-54406581D01*
X73414090Y-53986991D01*
X73568381Y-53647648D01*
X73811712Y-53365248D01*
X74124523Y-53162494D01*
X74505184Y-53048652D01*
X74702350Y-53034000D01*
X131521419Y-53034000D01*
X131941009Y-53094090D01*
G04 #@! TD*
M02*
