M48
;DRILL file {KiCad (5.0.0)} date 09/27/18 19:36:40
;FORMAT={-:-/ absolute / inch / decimal}
FMAT,2
INCH,TZ
T1C0.0157
T2C0.0300
T3C0.0350
T4C0.0394
T5C0.1598
%
G90
G05
M72
T1
X4.95Y-3.65
X5.43Y-3.2475
X5.6875Y-3.245
X5.7675Y-3.935
X5.9Y-2.75
X5.9Y-3.
X6.1425Y-4.485
X6.3075Y-4.615
X6.3075Y-4.7525
X6.4Y-3.45
X6.475Y-4.49
X6.495Y-2.7
X6.495Y-3.155
X6.6375Y-3.9325
T2
X5.1325Y-2.835
X5.2325Y-2.835
X5.3325Y-2.835
X5.4325Y-2.835
X5.5325Y-2.835
X6.725Y-2.835
X6.825Y-2.835
X6.925Y-2.835
X7.025Y-2.835
X7.125Y-2.835
T3
X6.6375Y-3.2825
X6.6375Y-3.3825
X6.6375Y-3.4825
T4
X4.95Y-3.4
X4.95Y-3.5
X4.95Y-5.1
X4.95Y-5.2
X5.05Y-3.4
X5.05Y-3.5
X5.05Y-5.1
X5.05Y-5.2
X5.15Y-3.4
X5.15Y-3.5
X5.15Y-5.1
X5.15Y-5.2
X5.25Y-3.4
X5.25Y-3.5
X5.25Y-5.1
X5.25Y-5.2
X5.35Y-3.4
X5.35Y-3.5
X5.35Y-5.1
X5.35Y-5.2
X5.45Y-3.4
X5.45Y-3.5
X5.45Y-5.1
X5.45Y-5.2
X5.55Y-3.4
X5.55Y-3.5
X5.55Y-5.1
X5.55Y-5.2
X5.65Y-3.4
X5.65Y-3.5
X5.65Y-5.1
X5.65Y-5.2
X5.75Y-3.4
X5.75Y-3.5
X5.75Y-5.1
X5.75Y-5.2
X5.85Y-3.4
X5.85Y-3.5
X5.85Y-5.1
X5.85Y-5.2
T5
X5.611Y-3.935
X5.611Y-4.25
T0
M30
