G04 #@! TF.GenerationSoftware,KiCad,Pcbnew,(5.0.0)*
G04 #@! TF.CreationDate,2018-09-29T15:14:27-05:00*
G04 #@! TF.ProjectId,2018Training,32303138547261696E696E672E6B6963,rev?*
G04 #@! TF.SameCoordinates,Original*
G04 #@! TF.FileFunction,Copper,L1,Top,Signal*
G04 #@! TF.FilePolarity,Positive*
%FSLAX46Y46*%
G04 Gerber Fmt 4.6, Leading zero omitted, Abs format (unit mm)*
G04 Created by KiCad (PCBNEW (5.0.0)) date 09/29/18 15:14:27*
%MOMM*%
%LPD*%
G01*
G04 APERTURE LIST*
G04 #@! TA.AperFunction,SMDPad,CuDef*
%ADD10R,1.500000X0.600000*%
G04 #@! TD*
G04 #@! TA.AperFunction,ComponentPad*
%ADD11C,1.524000*%
G04 #@! TD*
G04 #@! TA.AperFunction,ComponentPad*
%ADD12C,5.080000*%
G04 #@! TD*
G04 #@! TA.AperFunction,ComponentPad*
%ADD13C,1.520000*%
G04 #@! TD*
G04 #@! TA.AperFunction,Conductor*
%ADD14C,0.100000*%
G04 #@! TD*
G04 #@! TA.AperFunction,SMDPad,CuDef*
%ADD15C,0.950000*%
G04 #@! TD*
G04 #@! TA.AperFunction,ViaPad*
%ADD16C,0.800000*%
G04 #@! TD*
G04 #@! TA.AperFunction,Conductor*
%ADD17C,0.250000*%
G04 #@! TD*
G04 APERTURE END LIST*
D10*
G04 #@! TO.P,U3,1*
G04 #@! TO.N,Net-(C5-Pad1)*
X154940000Y-78105000D03*
G04 #@! TO.P,U3,2*
G04 #@! TO.N,Net-(C3-Pad2)*
X154940000Y-79375000D03*
G04 #@! TO.P,U3,3*
G04 #@! TO.N,Net-(C5-Pad2)*
X154940000Y-80645000D03*
G04 #@! TO.P,U3,4*
G04 #@! TO.N,Net-(C6-Pad1)*
X154940000Y-81915000D03*
G04 #@! TO.P,U3,5*
G04 #@! TO.N,Net-(C6-Pad2)*
X154940000Y-83185000D03*
G04 #@! TO.P,U3,6*
G04 #@! TO.N,Net-(C4-Pad2)*
X154940000Y-84455000D03*
G04 #@! TO.P,U3,7*
G04 #@! TO.N,Net-(Conn3-Pad4)*
X154940000Y-85725000D03*
G04 #@! TO.P,U3,8*
G04 #@! TO.N,Net-(Conn3-Pad5)*
X154940000Y-86995000D03*
G04 #@! TO.P,U3,9*
G04 #@! TO.N,/Serial4*
X160340000Y-86995000D03*
G04 #@! TO.P,U3,10*
G04 #@! TO.N,Net-(U1-PadPK1)*
X160340000Y-85725000D03*
G04 #@! TO.P,U3,11*
G04 #@! TO.N,Net-(U1-PadPC5)*
X160340000Y-84455000D03*
G04 #@! TO.P,U3,12*
G04 #@! TO.N,/Serial6*
X160340000Y-83185000D03*
G04 #@! TO.P,U3,13*
G04 #@! TO.N,Net-(Conn2-Pad4)*
X160340000Y-81915000D03*
G04 #@! TO.P,U3,14*
G04 #@! TO.N,Net-(Conn2-Pad5)*
X160340000Y-80645000D03*
G04 #@! TO.P,U3,15*
G04 #@! TO.N,Net-(C1-Pad2)*
X160340000Y-79375000D03*
G04 #@! TO.P,U3,16*
G04 #@! TO.N,Net-(C2-Pad1)*
X160340000Y-78105000D03*
G04 #@! TD*
D11*
G04 #@! TO.P,Conn2,1*
G04 #@! TO.N,Net-(Conn2-Pad1)*
X170688000Y-57658000D03*
G04 #@! TO.P,Conn2,2*
G04 #@! TO.N,Net-(Conn2-Pad2)*
X170688000Y-60198000D03*
G04 #@! TO.P,Conn2,3*
G04 #@! TO.N,Net-(C1-Pad2)*
X170688000Y-62738000D03*
G04 #@! TO.P,Conn2,4*
G04 #@! TO.N,Net-(Conn2-Pad4)*
X170688000Y-65278000D03*
G04 #@! TO.P,Conn2,5*
G04 #@! TO.N,Net-(Conn2-Pad5)*
X170688000Y-67818000D03*
G04 #@! TD*
D12*
G04 #@! TO.P,Conn1,1*
G04 #@! TO.N,Net-(C1-Pad2)*
X133121400Y-59437000D03*
G04 #@! TO.P,Conn1,2*
G04 #@! TO.N,Net-(C1-Pad1)*
X133121400Y-51436000D03*
G04 #@! TD*
D11*
G04 #@! TO.P,Conn3,5*
G04 #@! TO.N,Net-(Conn3-Pad5)*
X136906000Y-91694000D03*
G04 #@! TO.P,Conn3,4*
G04 #@! TO.N,Net-(Conn3-Pad4)*
X136906000Y-94234000D03*
G04 #@! TO.P,Conn3,3*
G04 #@! TO.N,Net-(C1-Pad2)*
X136906000Y-96774000D03*
G04 #@! TO.P,Conn3,2*
G04 #@! TO.N,Net-(Conn3-Pad2)*
X136906000Y-99314000D03*
G04 #@! TO.P,Conn3,1*
G04 #@! TO.N,Net-(Conn3-Pad1)*
X136906000Y-101854000D03*
G04 #@! TD*
D13*
G04 #@! TO.P,U1,+3V3*
G04 #@! TO.N,Net-(U1-Pad+3V3)*
X124739001Y-115315001D03*
G04 #@! TO.P,U1,PM6*
G04 #@! TO.N,N/C*
X147599001Y-69595001D03*
G04 #@! TO.P,U1,PQ1*
X145059001Y-69595001D03*
G04 #@! TO.P,U1,PQ2*
X137439001Y-69595001D03*
G04 #@! TO.P,U1,PK0*
G04 #@! TO.N,/Serial4*
X134899001Y-112775001D03*
G04 #@! TO.P,U1,PQ3*
G04 #@! TO.N,N/C*
X139979001Y-69595001D03*
G04 #@! TO.P,U1,PP3*
X142519001Y-69595001D03*
G04 #@! TO.P,U1,PQ0*
X139979001Y-115315001D03*
G04 #@! TO.P,U1,PA4*
G04 #@! TO.N,Net-(U1-PadPA4)*
X145059001Y-112775001D03*
G04 #@! TO.P,U1,Rese*
G04 #@! TO.N,N/C*
X134899001Y-69595001D03*
G04 #@! TO.P,U1,PA7*
X132359001Y-69595001D03*
G04 #@! TO.P,U1,PN5*
X145059001Y-115315001D03*
G04 #@! TO.P,U1,PK2*
G04 #@! TO.N,Net-(U1-PadPK2)*
X139979001Y-112775001D03*
G04 #@! TO.P,U1,PK1*
G04 #@! TO.N,Net-(U1-PadPK1)*
X137439001Y-112775001D03*
G04 #@! TO.P,U1,+5V*
G04 #@! TO.N,Net-(C2-Pad1)*
X124739001Y-112775001D03*
G04 #@! TO.P,U1,GND*
G04 #@! TO.N,Net-(U1-PadGND)*
X127279001Y-112775001D03*
G04 #@! TO.P,U1,PB4*
G04 #@! TO.N,Net-(U1-PadPB4)*
X129819001Y-112775001D03*
G04 #@! TO.P,U1,PB5*
G04 #@! TO.N,Net-(U1-PadPB5)*
X132359001Y-112775001D03*
G04 #@! TO.P,U1,PK3*
G04 #@! TO.N,Net-(U1-PadPK3)*
X142519001Y-112775001D03*
G04 #@! TO.P,U1,PA5*
G04 #@! TO.N,Net-(U1-PadPA5)*
X147599001Y-112775001D03*
G04 #@! TO.P,U1,PD2*
G04 #@! TO.N,N/C*
X127279001Y-115315001D03*
G04 #@! TO.P,U1,PP0*
X129819001Y-115315001D03*
G04 #@! TO.P,U1,PP1*
X132359001Y-115315001D03*
G04 #@! TO.P,U1,PD4*
X134899001Y-115315001D03*
G04 #@! TO.P,U1,PD5*
X137439001Y-115315001D03*
G04 #@! TO.P,U1,PP4*
X142519001Y-115315001D03*
G04 #@! TO.P,U1,PN4*
X147599001Y-115315001D03*
G04 #@! TO.P,U1,PG1*
X124739001Y-72135001D03*
G04 #@! TO.P,U1,PK4*
X127279001Y-72135001D03*
G04 #@! TO.P,U1,PK5*
X129819001Y-72135001D03*
G04 #@! TO.P,U1,PM0*
X132359001Y-72135001D03*
G04 #@! TO.P,U1,PM1*
X134899001Y-72135001D03*
G04 #@! TO.P,U1,PM2*
X137439001Y-72135001D03*
G04 #@! TO.P,U1,PH0*
X139979001Y-72135001D03*
G04 #@! TO.P,U1,PH1*
X142519001Y-72135001D03*
G04 #@! TO.P,U1,PK6*
X145059001Y-72135001D03*
G04 #@! TO.P,U1,PK7*
X147599001Y-72135001D03*
G04 #@! TO.P,U1,GND*
G04 #@! TO.N,Net-(U1-PadGND)*
X124739001Y-69595001D03*
G04 #@! TO.P,U1,PM7*
G04 #@! TO.N,N/C*
X127279001Y-69595001D03*
G04 #@! TO.P,U1,PP5*
X129819001Y-69595001D03*
G04 #@! TD*
D11*
G04 #@! TO.P,U2,1*
G04 #@! TO.N,Net-(C1-Pad1)*
X163830000Y-58420000D03*
G04 #@! TO.P,U2,2*
G04 #@! TO.N,Net-(C1-Pad2)*
X161290000Y-58420000D03*
G04 #@! TO.P,U2,3*
G04 #@! TO.N,Net-(C2-Pad1)*
X158750000Y-58420000D03*
G04 #@! TD*
D14*
G04 #@! TO.N,Net-(C1-Pad1)*
G04 #@! TO.C,C1*
G36*
X142183779Y-54898144D02*
X142206834Y-54901563D01*
X142229443Y-54907227D01*
X142251387Y-54915079D01*
X142272457Y-54925044D01*
X142292448Y-54937026D01*
X142311168Y-54950910D01*
X142328438Y-54966562D01*
X142344090Y-54983832D01*
X142357974Y-55002552D01*
X142369956Y-55022543D01*
X142379921Y-55043613D01*
X142387773Y-55065557D01*
X142393437Y-55088166D01*
X142396856Y-55111221D01*
X142398000Y-55134500D01*
X142398000Y-55609500D01*
X142396856Y-55632779D01*
X142393437Y-55655834D01*
X142387773Y-55678443D01*
X142379921Y-55700387D01*
X142369956Y-55721457D01*
X142357974Y-55741448D01*
X142344090Y-55760168D01*
X142328438Y-55777438D01*
X142311168Y-55793090D01*
X142292448Y-55806974D01*
X142272457Y-55818956D01*
X142251387Y-55828921D01*
X142229443Y-55836773D01*
X142206834Y-55842437D01*
X142183779Y-55845856D01*
X142160500Y-55847000D01*
X141585500Y-55847000D01*
X141562221Y-55845856D01*
X141539166Y-55842437D01*
X141516557Y-55836773D01*
X141494613Y-55828921D01*
X141473543Y-55818956D01*
X141453552Y-55806974D01*
X141434832Y-55793090D01*
X141417562Y-55777438D01*
X141401910Y-55760168D01*
X141388026Y-55741448D01*
X141376044Y-55721457D01*
X141366079Y-55700387D01*
X141358227Y-55678443D01*
X141352563Y-55655834D01*
X141349144Y-55632779D01*
X141348000Y-55609500D01*
X141348000Y-55134500D01*
X141349144Y-55111221D01*
X141352563Y-55088166D01*
X141358227Y-55065557D01*
X141366079Y-55043613D01*
X141376044Y-55022543D01*
X141388026Y-55002552D01*
X141401910Y-54983832D01*
X141417562Y-54966562D01*
X141434832Y-54950910D01*
X141453552Y-54937026D01*
X141473543Y-54925044D01*
X141494613Y-54915079D01*
X141516557Y-54907227D01*
X141539166Y-54901563D01*
X141562221Y-54898144D01*
X141585500Y-54897000D01*
X142160500Y-54897000D01*
X142183779Y-54898144D01*
X142183779Y-54898144D01*
G37*
D15*
G04 #@! TD*
G04 #@! TO.P,C1,1*
G04 #@! TO.N,Net-(C1-Pad1)*
X141873000Y-55372000D03*
D14*
G04 #@! TO.N,Net-(C1-Pad2)*
G04 #@! TO.C,C1*
G36*
X143933779Y-54898144D02*
X143956834Y-54901563D01*
X143979443Y-54907227D01*
X144001387Y-54915079D01*
X144022457Y-54925044D01*
X144042448Y-54937026D01*
X144061168Y-54950910D01*
X144078438Y-54966562D01*
X144094090Y-54983832D01*
X144107974Y-55002552D01*
X144119956Y-55022543D01*
X144129921Y-55043613D01*
X144137773Y-55065557D01*
X144143437Y-55088166D01*
X144146856Y-55111221D01*
X144148000Y-55134500D01*
X144148000Y-55609500D01*
X144146856Y-55632779D01*
X144143437Y-55655834D01*
X144137773Y-55678443D01*
X144129921Y-55700387D01*
X144119956Y-55721457D01*
X144107974Y-55741448D01*
X144094090Y-55760168D01*
X144078438Y-55777438D01*
X144061168Y-55793090D01*
X144042448Y-55806974D01*
X144022457Y-55818956D01*
X144001387Y-55828921D01*
X143979443Y-55836773D01*
X143956834Y-55842437D01*
X143933779Y-55845856D01*
X143910500Y-55847000D01*
X143335500Y-55847000D01*
X143312221Y-55845856D01*
X143289166Y-55842437D01*
X143266557Y-55836773D01*
X143244613Y-55828921D01*
X143223543Y-55818956D01*
X143203552Y-55806974D01*
X143184832Y-55793090D01*
X143167562Y-55777438D01*
X143151910Y-55760168D01*
X143138026Y-55741448D01*
X143126044Y-55721457D01*
X143116079Y-55700387D01*
X143108227Y-55678443D01*
X143102563Y-55655834D01*
X143099144Y-55632779D01*
X143098000Y-55609500D01*
X143098000Y-55134500D01*
X143099144Y-55111221D01*
X143102563Y-55088166D01*
X143108227Y-55065557D01*
X143116079Y-55043613D01*
X143126044Y-55022543D01*
X143138026Y-55002552D01*
X143151910Y-54983832D01*
X143167562Y-54966562D01*
X143184832Y-54950910D01*
X143203552Y-54937026D01*
X143223543Y-54925044D01*
X143244613Y-54915079D01*
X143266557Y-54907227D01*
X143289166Y-54901563D01*
X143312221Y-54898144D01*
X143335500Y-54897000D01*
X143910500Y-54897000D01*
X143933779Y-54898144D01*
X143933779Y-54898144D01*
G37*
D15*
G04 #@! TD*
G04 #@! TO.P,C1,2*
G04 #@! TO.N,Net-(C1-Pad2)*
X143623000Y-55372000D03*
D14*
G04 #@! TO.N,Net-(C1-Pad2)*
G04 #@! TO.C,C2*
G36*
X141901779Y-61756144D02*
X141924834Y-61759563D01*
X141947443Y-61765227D01*
X141969387Y-61773079D01*
X141990457Y-61783044D01*
X142010448Y-61795026D01*
X142029168Y-61808910D01*
X142046438Y-61824562D01*
X142062090Y-61841832D01*
X142075974Y-61860552D01*
X142087956Y-61880543D01*
X142097921Y-61901613D01*
X142105773Y-61923557D01*
X142111437Y-61946166D01*
X142114856Y-61969221D01*
X142116000Y-61992500D01*
X142116000Y-62467500D01*
X142114856Y-62490779D01*
X142111437Y-62513834D01*
X142105773Y-62536443D01*
X142097921Y-62558387D01*
X142087956Y-62579457D01*
X142075974Y-62599448D01*
X142062090Y-62618168D01*
X142046438Y-62635438D01*
X142029168Y-62651090D01*
X142010448Y-62664974D01*
X141990457Y-62676956D01*
X141969387Y-62686921D01*
X141947443Y-62694773D01*
X141924834Y-62700437D01*
X141901779Y-62703856D01*
X141878500Y-62705000D01*
X141303500Y-62705000D01*
X141280221Y-62703856D01*
X141257166Y-62700437D01*
X141234557Y-62694773D01*
X141212613Y-62686921D01*
X141191543Y-62676956D01*
X141171552Y-62664974D01*
X141152832Y-62651090D01*
X141135562Y-62635438D01*
X141119910Y-62618168D01*
X141106026Y-62599448D01*
X141094044Y-62579457D01*
X141084079Y-62558387D01*
X141076227Y-62536443D01*
X141070563Y-62513834D01*
X141067144Y-62490779D01*
X141066000Y-62467500D01*
X141066000Y-61992500D01*
X141067144Y-61969221D01*
X141070563Y-61946166D01*
X141076227Y-61923557D01*
X141084079Y-61901613D01*
X141094044Y-61880543D01*
X141106026Y-61860552D01*
X141119910Y-61841832D01*
X141135562Y-61824562D01*
X141152832Y-61808910D01*
X141171552Y-61795026D01*
X141191543Y-61783044D01*
X141212613Y-61773079D01*
X141234557Y-61765227D01*
X141257166Y-61759563D01*
X141280221Y-61756144D01*
X141303500Y-61755000D01*
X141878500Y-61755000D01*
X141901779Y-61756144D01*
X141901779Y-61756144D01*
G37*
D15*
G04 #@! TD*
G04 #@! TO.P,C2,2*
G04 #@! TO.N,Net-(C1-Pad2)*
X141591000Y-62230000D03*
D14*
G04 #@! TO.N,Net-(C2-Pad1)*
G04 #@! TO.C,C2*
G36*
X140151779Y-61756144D02*
X140174834Y-61759563D01*
X140197443Y-61765227D01*
X140219387Y-61773079D01*
X140240457Y-61783044D01*
X140260448Y-61795026D01*
X140279168Y-61808910D01*
X140296438Y-61824562D01*
X140312090Y-61841832D01*
X140325974Y-61860552D01*
X140337956Y-61880543D01*
X140347921Y-61901613D01*
X140355773Y-61923557D01*
X140361437Y-61946166D01*
X140364856Y-61969221D01*
X140366000Y-61992500D01*
X140366000Y-62467500D01*
X140364856Y-62490779D01*
X140361437Y-62513834D01*
X140355773Y-62536443D01*
X140347921Y-62558387D01*
X140337956Y-62579457D01*
X140325974Y-62599448D01*
X140312090Y-62618168D01*
X140296438Y-62635438D01*
X140279168Y-62651090D01*
X140260448Y-62664974D01*
X140240457Y-62676956D01*
X140219387Y-62686921D01*
X140197443Y-62694773D01*
X140174834Y-62700437D01*
X140151779Y-62703856D01*
X140128500Y-62705000D01*
X139553500Y-62705000D01*
X139530221Y-62703856D01*
X139507166Y-62700437D01*
X139484557Y-62694773D01*
X139462613Y-62686921D01*
X139441543Y-62676956D01*
X139421552Y-62664974D01*
X139402832Y-62651090D01*
X139385562Y-62635438D01*
X139369910Y-62618168D01*
X139356026Y-62599448D01*
X139344044Y-62579457D01*
X139334079Y-62558387D01*
X139326227Y-62536443D01*
X139320563Y-62513834D01*
X139317144Y-62490779D01*
X139316000Y-62467500D01*
X139316000Y-61992500D01*
X139317144Y-61969221D01*
X139320563Y-61946166D01*
X139326227Y-61923557D01*
X139334079Y-61901613D01*
X139344044Y-61880543D01*
X139356026Y-61860552D01*
X139369910Y-61841832D01*
X139385562Y-61824562D01*
X139402832Y-61808910D01*
X139421552Y-61795026D01*
X139441543Y-61783044D01*
X139462613Y-61773079D01*
X139484557Y-61765227D01*
X139507166Y-61759563D01*
X139530221Y-61756144D01*
X139553500Y-61755000D01*
X140128500Y-61755000D01*
X140151779Y-61756144D01*
X140151779Y-61756144D01*
G37*
D15*
G04 #@! TD*
G04 #@! TO.P,C2,1*
G04 #@! TO.N,Net-(C2-Pad1)*
X139841000Y-62230000D03*
D14*
G04 #@! TO.N,Net-(C3-Pad2)*
G04 #@! TO.C,C3*
G36*
X149436779Y-66074144D02*
X149459834Y-66077563D01*
X149482443Y-66083227D01*
X149504387Y-66091079D01*
X149525457Y-66101044D01*
X149545448Y-66113026D01*
X149564168Y-66126910D01*
X149581438Y-66142562D01*
X149597090Y-66159832D01*
X149610974Y-66178552D01*
X149622956Y-66198543D01*
X149632921Y-66219613D01*
X149640773Y-66241557D01*
X149646437Y-66264166D01*
X149649856Y-66287221D01*
X149651000Y-66310500D01*
X149651000Y-66785500D01*
X149649856Y-66808779D01*
X149646437Y-66831834D01*
X149640773Y-66854443D01*
X149632921Y-66876387D01*
X149622956Y-66897457D01*
X149610974Y-66917448D01*
X149597090Y-66936168D01*
X149581438Y-66953438D01*
X149564168Y-66969090D01*
X149545448Y-66982974D01*
X149525457Y-66994956D01*
X149504387Y-67004921D01*
X149482443Y-67012773D01*
X149459834Y-67018437D01*
X149436779Y-67021856D01*
X149413500Y-67023000D01*
X148838500Y-67023000D01*
X148815221Y-67021856D01*
X148792166Y-67018437D01*
X148769557Y-67012773D01*
X148747613Y-67004921D01*
X148726543Y-66994956D01*
X148706552Y-66982974D01*
X148687832Y-66969090D01*
X148670562Y-66953438D01*
X148654910Y-66936168D01*
X148641026Y-66917448D01*
X148629044Y-66897457D01*
X148619079Y-66876387D01*
X148611227Y-66854443D01*
X148605563Y-66831834D01*
X148602144Y-66808779D01*
X148601000Y-66785500D01*
X148601000Y-66310500D01*
X148602144Y-66287221D01*
X148605563Y-66264166D01*
X148611227Y-66241557D01*
X148619079Y-66219613D01*
X148629044Y-66198543D01*
X148641026Y-66178552D01*
X148654910Y-66159832D01*
X148670562Y-66142562D01*
X148687832Y-66126910D01*
X148706552Y-66113026D01*
X148726543Y-66101044D01*
X148747613Y-66091079D01*
X148769557Y-66083227D01*
X148792166Y-66077563D01*
X148815221Y-66074144D01*
X148838500Y-66073000D01*
X149413500Y-66073000D01*
X149436779Y-66074144D01*
X149436779Y-66074144D01*
G37*
D15*
G04 #@! TD*
G04 #@! TO.P,C3,2*
G04 #@! TO.N,Net-(C3-Pad2)*
X149126000Y-66548000D03*
D14*
G04 #@! TO.N,Net-(C1-Pad2)*
G04 #@! TO.C,C3*
G36*
X151186779Y-66074144D02*
X151209834Y-66077563D01*
X151232443Y-66083227D01*
X151254387Y-66091079D01*
X151275457Y-66101044D01*
X151295448Y-66113026D01*
X151314168Y-66126910D01*
X151331438Y-66142562D01*
X151347090Y-66159832D01*
X151360974Y-66178552D01*
X151372956Y-66198543D01*
X151382921Y-66219613D01*
X151390773Y-66241557D01*
X151396437Y-66264166D01*
X151399856Y-66287221D01*
X151401000Y-66310500D01*
X151401000Y-66785500D01*
X151399856Y-66808779D01*
X151396437Y-66831834D01*
X151390773Y-66854443D01*
X151382921Y-66876387D01*
X151372956Y-66897457D01*
X151360974Y-66917448D01*
X151347090Y-66936168D01*
X151331438Y-66953438D01*
X151314168Y-66969090D01*
X151295448Y-66982974D01*
X151275457Y-66994956D01*
X151254387Y-67004921D01*
X151232443Y-67012773D01*
X151209834Y-67018437D01*
X151186779Y-67021856D01*
X151163500Y-67023000D01*
X150588500Y-67023000D01*
X150565221Y-67021856D01*
X150542166Y-67018437D01*
X150519557Y-67012773D01*
X150497613Y-67004921D01*
X150476543Y-66994956D01*
X150456552Y-66982974D01*
X150437832Y-66969090D01*
X150420562Y-66953438D01*
X150404910Y-66936168D01*
X150391026Y-66917448D01*
X150379044Y-66897457D01*
X150369079Y-66876387D01*
X150361227Y-66854443D01*
X150355563Y-66831834D01*
X150352144Y-66808779D01*
X150351000Y-66785500D01*
X150351000Y-66310500D01*
X150352144Y-66287221D01*
X150355563Y-66264166D01*
X150361227Y-66241557D01*
X150369079Y-66219613D01*
X150379044Y-66198543D01*
X150391026Y-66178552D01*
X150404910Y-66159832D01*
X150420562Y-66142562D01*
X150437832Y-66126910D01*
X150456552Y-66113026D01*
X150476543Y-66101044D01*
X150497613Y-66091079D01*
X150519557Y-66083227D01*
X150542166Y-66077563D01*
X150565221Y-66074144D01*
X150588500Y-66073000D01*
X151163500Y-66073000D01*
X151186779Y-66074144D01*
X151186779Y-66074144D01*
G37*
D15*
G04 #@! TD*
G04 #@! TO.P,C3,1*
G04 #@! TO.N,Net-(C1-Pad2)*
X150876000Y-66548000D03*
D14*
G04 #@! TO.N,Net-(C1-Pad2)*
G04 #@! TO.C,C4*
G36*
X167809779Y-81822144D02*
X167832834Y-81825563D01*
X167855443Y-81831227D01*
X167877387Y-81839079D01*
X167898457Y-81849044D01*
X167918448Y-81861026D01*
X167937168Y-81874910D01*
X167954438Y-81890562D01*
X167970090Y-81907832D01*
X167983974Y-81926552D01*
X167995956Y-81946543D01*
X168005921Y-81967613D01*
X168013773Y-81989557D01*
X168019437Y-82012166D01*
X168022856Y-82035221D01*
X168024000Y-82058500D01*
X168024000Y-82533500D01*
X168022856Y-82556779D01*
X168019437Y-82579834D01*
X168013773Y-82602443D01*
X168005921Y-82624387D01*
X167995956Y-82645457D01*
X167983974Y-82665448D01*
X167970090Y-82684168D01*
X167954438Y-82701438D01*
X167937168Y-82717090D01*
X167918448Y-82730974D01*
X167898457Y-82742956D01*
X167877387Y-82752921D01*
X167855443Y-82760773D01*
X167832834Y-82766437D01*
X167809779Y-82769856D01*
X167786500Y-82771000D01*
X167211500Y-82771000D01*
X167188221Y-82769856D01*
X167165166Y-82766437D01*
X167142557Y-82760773D01*
X167120613Y-82752921D01*
X167099543Y-82742956D01*
X167079552Y-82730974D01*
X167060832Y-82717090D01*
X167043562Y-82701438D01*
X167027910Y-82684168D01*
X167014026Y-82665448D01*
X167002044Y-82645457D01*
X166992079Y-82624387D01*
X166984227Y-82602443D01*
X166978563Y-82579834D01*
X166975144Y-82556779D01*
X166974000Y-82533500D01*
X166974000Y-82058500D01*
X166975144Y-82035221D01*
X166978563Y-82012166D01*
X166984227Y-81989557D01*
X166992079Y-81967613D01*
X167002044Y-81946543D01*
X167014026Y-81926552D01*
X167027910Y-81907832D01*
X167043562Y-81890562D01*
X167060832Y-81874910D01*
X167079552Y-81861026D01*
X167099543Y-81849044D01*
X167120613Y-81839079D01*
X167142557Y-81831227D01*
X167165166Y-81825563D01*
X167188221Y-81822144D01*
X167211500Y-81821000D01*
X167786500Y-81821000D01*
X167809779Y-81822144D01*
X167809779Y-81822144D01*
G37*
D15*
G04 #@! TD*
G04 #@! TO.P,C4,1*
G04 #@! TO.N,Net-(C1-Pad2)*
X167499000Y-82296000D03*
D14*
G04 #@! TO.N,Net-(C4-Pad2)*
G04 #@! TO.C,C4*
G36*
X166059779Y-81822144D02*
X166082834Y-81825563D01*
X166105443Y-81831227D01*
X166127387Y-81839079D01*
X166148457Y-81849044D01*
X166168448Y-81861026D01*
X166187168Y-81874910D01*
X166204438Y-81890562D01*
X166220090Y-81907832D01*
X166233974Y-81926552D01*
X166245956Y-81946543D01*
X166255921Y-81967613D01*
X166263773Y-81989557D01*
X166269437Y-82012166D01*
X166272856Y-82035221D01*
X166274000Y-82058500D01*
X166274000Y-82533500D01*
X166272856Y-82556779D01*
X166269437Y-82579834D01*
X166263773Y-82602443D01*
X166255921Y-82624387D01*
X166245956Y-82645457D01*
X166233974Y-82665448D01*
X166220090Y-82684168D01*
X166204438Y-82701438D01*
X166187168Y-82717090D01*
X166168448Y-82730974D01*
X166148457Y-82742956D01*
X166127387Y-82752921D01*
X166105443Y-82760773D01*
X166082834Y-82766437D01*
X166059779Y-82769856D01*
X166036500Y-82771000D01*
X165461500Y-82771000D01*
X165438221Y-82769856D01*
X165415166Y-82766437D01*
X165392557Y-82760773D01*
X165370613Y-82752921D01*
X165349543Y-82742956D01*
X165329552Y-82730974D01*
X165310832Y-82717090D01*
X165293562Y-82701438D01*
X165277910Y-82684168D01*
X165264026Y-82665448D01*
X165252044Y-82645457D01*
X165242079Y-82624387D01*
X165234227Y-82602443D01*
X165228563Y-82579834D01*
X165225144Y-82556779D01*
X165224000Y-82533500D01*
X165224000Y-82058500D01*
X165225144Y-82035221D01*
X165228563Y-82012166D01*
X165234227Y-81989557D01*
X165242079Y-81967613D01*
X165252044Y-81946543D01*
X165264026Y-81926552D01*
X165277910Y-81907832D01*
X165293562Y-81890562D01*
X165310832Y-81874910D01*
X165329552Y-81861026D01*
X165349543Y-81849044D01*
X165370613Y-81839079D01*
X165392557Y-81831227D01*
X165415166Y-81825563D01*
X165438221Y-81822144D01*
X165461500Y-81821000D01*
X166036500Y-81821000D01*
X166059779Y-81822144D01*
X166059779Y-81822144D01*
G37*
D15*
G04 #@! TD*
G04 #@! TO.P,C4,2*
G04 #@! TO.N,Net-(C4-Pad2)*
X165749000Y-82296000D03*
D14*
G04 #@! TO.N,Net-(C5-Pad1)*
G04 #@! TO.C,C5*
G36*
X136990779Y-77758144D02*
X137013834Y-77761563D01*
X137036443Y-77767227D01*
X137058387Y-77775079D01*
X137079457Y-77785044D01*
X137099448Y-77797026D01*
X137118168Y-77810910D01*
X137135438Y-77826562D01*
X137151090Y-77843832D01*
X137164974Y-77862552D01*
X137176956Y-77882543D01*
X137186921Y-77903613D01*
X137194773Y-77925557D01*
X137200437Y-77948166D01*
X137203856Y-77971221D01*
X137205000Y-77994500D01*
X137205000Y-78469500D01*
X137203856Y-78492779D01*
X137200437Y-78515834D01*
X137194773Y-78538443D01*
X137186921Y-78560387D01*
X137176956Y-78581457D01*
X137164974Y-78601448D01*
X137151090Y-78620168D01*
X137135438Y-78637438D01*
X137118168Y-78653090D01*
X137099448Y-78666974D01*
X137079457Y-78678956D01*
X137058387Y-78688921D01*
X137036443Y-78696773D01*
X137013834Y-78702437D01*
X136990779Y-78705856D01*
X136967500Y-78707000D01*
X136392500Y-78707000D01*
X136369221Y-78705856D01*
X136346166Y-78702437D01*
X136323557Y-78696773D01*
X136301613Y-78688921D01*
X136280543Y-78678956D01*
X136260552Y-78666974D01*
X136241832Y-78653090D01*
X136224562Y-78637438D01*
X136208910Y-78620168D01*
X136195026Y-78601448D01*
X136183044Y-78581457D01*
X136173079Y-78560387D01*
X136165227Y-78538443D01*
X136159563Y-78515834D01*
X136156144Y-78492779D01*
X136155000Y-78469500D01*
X136155000Y-77994500D01*
X136156144Y-77971221D01*
X136159563Y-77948166D01*
X136165227Y-77925557D01*
X136173079Y-77903613D01*
X136183044Y-77882543D01*
X136195026Y-77862552D01*
X136208910Y-77843832D01*
X136224562Y-77826562D01*
X136241832Y-77810910D01*
X136260552Y-77797026D01*
X136280543Y-77785044D01*
X136301613Y-77775079D01*
X136323557Y-77767227D01*
X136346166Y-77761563D01*
X136369221Y-77758144D01*
X136392500Y-77757000D01*
X136967500Y-77757000D01*
X136990779Y-77758144D01*
X136990779Y-77758144D01*
G37*
D15*
G04 #@! TD*
G04 #@! TO.P,C5,1*
G04 #@! TO.N,Net-(C5-Pad1)*
X136680000Y-78232000D03*
D14*
G04 #@! TO.N,Net-(C5-Pad2)*
G04 #@! TO.C,C5*
G36*
X138740779Y-77758144D02*
X138763834Y-77761563D01*
X138786443Y-77767227D01*
X138808387Y-77775079D01*
X138829457Y-77785044D01*
X138849448Y-77797026D01*
X138868168Y-77810910D01*
X138885438Y-77826562D01*
X138901090Y-77843832D01*
X138914974Y-77862552D01*
X138926956Y-77882543D01*
X138936921Y-77903613D01*
X138944773Y-77925557D01*
X138950437Y-77948166D01*
X138953856Y-77971221D01*
X138955000Y-77994500D01*
X138955000Y-78469500D01*
X138953856Y-78492779D01*
X138950437Y-78515834D01*
X138944773Y-78538443D01*
X138936921Y-78560387D01*
X138926956Y-78581457D01*
X138914974Y-78601448D01*
X138901090Y-78620168D01*
X138885438Y-78637438D01*
X138868168Y-78653090D01*
X138849448Y-78666974D01*
X138829457Y-78678956D01*
X138808387Y-78688921D01*
X138786443Y-78696773D01*
X138763834Y-78702437D01*
X138740779Y-78705856D01*
X138717500Y-78707000D01*
X138142500Y-78707000D01*
X138119221Y-78705856D01*
X138096166Y-78702437D01*
X138073557Y-78696773D01*
X138051613Y-78688921D01*
X138030543Y-78678956D01*
X138010552Y-78666974D01*
X137991832Y-78653090D01*
X137974562Y-78637438D01*
X137958910Y-78620168D01*
X137945026Y-78601448D01*
X137933044Y-78581457D01*
X137923079Y-78560387D01*
X137915227Y-78538443D01*
X137909563Y-78515834D01*
X137906144Y-78492779D01*
X137905000Y-78469500D01*
X137905000Y-77994500D01*
X137906144Y-77971221D01*
X137909563Y-77948166D01*
X137915227Y-77925557D01*
X137923079Y-77903613D01*
X137933044Y-77882543D01*
X137945026Y-77862552D01*
X137958910Y-77843832D01*
X137974562Y-77826562D01*
X137991832Y-77810910D01*
X138010552Y-77797026D01*
X138030543Y-77785044D01*
X138051613Y-77775079D01*
X138073557Y-77767227D01*
X138096166Y-77761563D01*
X138119221Y-77758144D01*
X138142500Y-77757000D01*
X138717500Y-77757000D01*
X138740779Y-77758144D01*
X138740779Y-77758144D01*
G37*
D15*
G04 #@! TD*
G04 #@! TO.P,C5,2*
G04 #@! TO.N,Net-(C5-Pad2)*
X138430000Y-78232000D03*
D14*
G04 #@! TO.N,Net-(C6-Pad2)*
G04 #@! TO.C,C6*
G36*
X138740779Y-82838144D02*
X138763834Y-82841563D01*
X138786443Y-82847227D01*
X138808387Y-82855079D01*
X138829457Y-82865044D01*
X138849448Y-82877026D01*
X138868168Y-82890910D01*
X138885438Y-82906562D01*
X138901090Y-82923832D01*
X138914974Y-82942552D01*
X138926956Y-82962543D01*
X138936921Y-82983613D01*
X138944773Y-83005557D01*
X138950437Y-83028166D01*
X138953856Y-83051221D01*
X138955000Y-83074500D01*
X138955000Y-83549500D01*
X138953856Y-83572779D01*
X138950437Y-83595834D01*
X138944773Y-83618443D01*
X138936921Y-83640387D01*
X138926956Y-83661457D01*
X138914974Y-83681448D01*
X138901090Y-83700168D01*
X138885438Y-83717438D01*
X138868168Y-83733090D01*
X138849448Y-83746974D01*
X138829457Y-83758956D01*
X138808387Y-83768921D01*
X138786443Y-83776773D01*
X138763834Y-83782437D01*
X138740779Y-83785856D01*
X138717500Y-83787000D01*
X138142500Y-83787000D01*
X138119221Y-83785856D01*
X138096166Y-83782437D01*
X138073557Y-83776773D01*
X138051613Y-83768921D01*
X138030543Y-83758956D01*
X138010552Y-83746974D01*
X137991832Y-83733090D01*
X137974562Y-83717438D01*
X137958910Y-83700168D01*
X137945026Y-83681448D01*
X137933044Y-83661457D01*
X137923079Y-83640387D01*
X137915227Y-83618443D01*
X137909563Y-83595834D01*
X137906144Y-83572779D01*
X137905000Y-83549500D01*
X137905000Y-83074500D01*
X137906144Y-83051221D01*
X137909563Y-83028166D01*
X137915227Y-83005557D01*
X137923079Y-82983613D01*
X137933044Y-82962543D01*
X137945026Y-82942552D01*
X137958910Y-82923832D01*
X137974562Y-82906562D01*
X137991832Y-82890910D01*
X138010552Y-82877026D01*
X138030543Y-82865044D01*
X138051613Y-82855079D01*
X138073557Y-82847227D01*
X138096166Y-82841563D01*
X138119221Y-82838144D01*
X138142500Y-82837000D01*
X138717500Y-82837000D01*
X138740779Y-82838144D01*
X138740779Y-82838144D01*
G37*
D15*
G04 #@! TD*
G04 #@! TO.P,C6,2*
G04 #@! TO.N,Net-(C6-Pad2)*
X138430000Y-83312000D03*
D14*
G04 #@! TO.N,Net-(C6-Pad1)*
G04 #@! TO.C,C6*
G36*
X136990779Y-82838144D02*
X137013834Y-82841563D01*
X137036443Y-82847227D01*
X137058387Y-82855079D01*
X137079457Y-82865044D01*
X137099448Y-82877026D01*
X137118168Y-82890910D01*
X137135438Y-82906562D01*
X137151090Y-82923832D01*
X137164974Y-82942552D01*
X137176956Y-82962543D01*
X137186921Y-82983613D01*
X137194773Y-83005557D01*
X137200437Y-83028166D01*
X137203856Y-83051221D01*
X137205000Y-83074500D01*
X137205000Y-83549500D01*
X137203856Y-83572779D01*
X137200437Y-83595834D01*
X137194773Y-83618443D01*
X137186921Y-83640387D01*
X137176956Y-83661457D01*
X137164974Y-83681448D01*
X137151090Y-83700168D01*
X137135438Y-83717438D01*
X137118168Y-83733090D01*
X137099448Y-83746974D01*
X137079457Y-83758956D01*
X137058387Y-83768921D01*
X137036443Y-83776773D01*
X137013834Y-83782437D01*
X136990779Y-83785856D01*
X136967500Y-83787000D01*
X136392500Y-83787000D01*
X136369221Y-83785856D01*
X136346166Y-83782437D01*
X136323557Y-83776773D01*
X136301613Y-83768921D01*
X136280543Y-83758956D01*
X136260552Y-83746974D01*
X136241832Y-83733090D01*
X136224562Y-83717438D01*
X136208910Y-83700168D01*
X136195026Y-83681448D01*
X136183044Y-83661457D01*
X136173079Y-83640387D01*
X136165227Y-83618443D01*
X136159563Y-83595834D01*
X136156144Y-83572779D01*
X136155000Y-83549500D01*
X136155000Y-83074500D01*
X136156144Y-83051221D01*
X136159563Y-83028166D01*
X136165227Y-83005557D01*
X136173079Y-82983613D01*
X136183044Y-82962543D01*
X136195026Y-82942552D01*
X136208910Y-82923832D01*
X136224562Y-82906562D01*
X136241832Y-82890910D01*
X136260552Y-82877026D01*
X136280543Y-82865044D01*
X136301613Y-82855079D01*
X136323557Y-82847227D01*
X136346166Y-82841563D01*
X136369221Y-82838144D01*
X136392500Y-82837000D01*
X136967500Y-82837000D01*
X136990779Y-82838144D01*
X136990779Y-82838144D01*
G37*
D15*
G04 #@! TD*
G04 #@! TO.P,C6,1*
G04 #@! TO.N,Net-(C6-Pad1)*
X136680000Y-83312000D03*
D16*
G04 #@! TO.N,Net-(C2-Pad1)*
X124739001Y-112775001D03*
X140716000Y-60706000D03*
X143510000Y-60706000D03*
X158800153Y-77419847D03*
X125476000Y-109982000D03*
G04 #@! TO.N,Net-(C4-Pad2)*
X157480000Y-84074000D03*
X162814000Y-83058000D03*
G04 #@! TD*
D17*
G04 #@! TO.N,Net-(C1-Pad2)*
X143623000Y-55372000D02*
X159512000Y-55372000D01*
X141591000Y-57404000D02*
X143623000Y-55372000D01*
X141591000Y-62230000D02*
X141591000Y-57404000D01*
X138746502Y-57404000D02*
X141591000Y-57404000D01*
X136713502Y-59437000D02*
X138746502Y-57404000D01*
X133121400Y-59437000D02*
X136713502Y-59437000D01*
X150876000Y-62484000D02*
X150876000Y-66548000D01*
X141591000Y-62230000D02*
X150622000Y-62230000D01*
X150622000Y-62230000D02*
X150876000Y-62484000D01*
X164578000Y-79375000D02*
X167499000Y-82296000D01*
X160180000Y-79375000D02*
X164578000Y-79375000D01*
X159730000Y-79375000D02*
X160180000Y-79375000D01*
X156660010Y-76305010D02*
X159730000Y-79375000D01*
X156660010Y-66605990D02*
X156660010Y-76305010D01*
X156718000Y-66548000D02*
X156660010Y-66605990D01*
X156718000Y-66548000D02*
X150876000Y-66548000D01*
X166878000Y-62738000D02*
X170688000Y-62738000D01*
X161290000Y-57150000D02*
X159512000Y-55372000D01*
X161290000Y-58420000D02*
X161290000Y-57150000D01*
X165608000Y-62738000D02*
X166878000Y-62738000D01*
X161290000Y-58420000D02*
X165608000Y-62738000D01*
X159104999Y-80000001D02*
X159730000Y-79375000D01*
X159104999Y-89815001D02*
X159104999Y-80000001D01*
X152907999Y-96012001D02*
X159104999Y-89815001D01*
X136906000Y-96774000D02*
X137667999Y-96012001D01*
X137667999Y-96012001D02*
X152907999Y-96012001D01*
G04 #@! TO.N,Net-(C1-Pad1)*
X137937000Y-51436000D02*
X141873000Y-55372000D01*
X133121400Y-51436000D02*
X137937000Y-51436000D01*
X143143000Y-54102000D02*
X141873000Y-55372000D01*
X160782000Y-54102000D02*
X143143000Y-54102000D01*
X163830000Y-58420000D02*
X163830000Y-57150000D01*
X163830000Y-57150000D02*
X160782000Y-54102000D01*
G04 #@! TO.N,Net-(Conn2-Pad4)*
X171900009Y-66490009D02*
X171449999Y-66039999D01*
X160180000Y-81915000D02*
X160630000Y-81915000D01*
X160630000Y-81915000D02*
X161544000Y-82829000D01*
X161544000Y-82829000D02*
X161544000Y-85852000D01*
X171449999Y-66039999D02*
X170688000Y-65278000D01*
X161544000Y-85852000D02*
X169418000Y-85852000D01*
X169418000Y-85852000D02*
X171900009Y-83369991D01*
X171900009Y-83369991D02*
X171900009Y-66490009D01*
G04 #@! TO.N,Net-(Conn2-Pad5)*
X160630000Y-80645000D02*
X160180000Y-80645000D01*
X170688000Y-67818000D02*
X170942000Y-67818000D01*
X171449999Y-68579999D02*
X170688000Y-67818000D01*
X160180000Y-80645000D02*
X161180000Y-80645000D01*
X162052000Y-81517000D02*
X162052000Y-85401990D01*
X161180000Y-80645000D02*
X162052000Y-81517000D01*
X162052000Y-85401990D02*
X169106010Y-85401990D01*
X169106010Y-85401990D02*
X171450000Y-83058000D01*
X171450000Y-83058000D02*
X171449999Y-68579999D01*
G04 #@! TO.N,Net-(Conn3-Pad5)*
X141605000Y-86995000D02*
X136906000Y-91694000D01*
X154780000Y-86995000D02*
X141605000Y-86995000D01*
G04 #@! TO.N,Net-(Conn3-Pad4)*
X155390000Y-85725000D02*
X154940000Y-85725000D01*
X156210000Y-86545000D02*
X155390000Y-85725000D01*
X156210000Y-88900000D02*
X156210000Y-86545000D01*
X151637999Y-93472001D02*
X156210000Y-88900000D01*
X137667999Y-93472001D02*
X151637999Y-93472001D01*
X136906000Y-94234000D02*
X137667999Y-93472001D01*
G04 #@! TO.N,/Serial4*
X134949999Y-112775001D02*
X134899001Y-112775001D01*
X161180000Y-86995000D02*
X162560000Y-88375000D01*
X160180000Y-86995000D02*
X161180000Y-86995000D01*
X162560000Y-88375000D02*
X162560000Y-109728000D01*
X162560000Y-109728000D02*
X161290000Y-110998000D01*
X161290000Y-110998000D02*
X136676002Y-110998000D01*
X136676002Y-110998000D02*
X134899001Y-112775001D01*
G04 #@! TO.N,Net-(U1-PadPK1)*
X138524002Y-111690000D02*
X161360000Y-111690000D01*
X137439001Y-112775001D02*
X138524002Y-111690000D01*
X161360000Y-111690000D02*
X163068000Y-109982000D01*
X160630000Y-85725000D02*
X160180000Y-85725000D01*
X163068000Y-88163000D02*
X160630000Y-85725000D01*
X163068000Y-109982000D02*
X163068000Y-88163000D01*
G04 #@! TO.N,Net-(C2-Pad1)*
X139841000Y-62230000D02*
X139841000Y-60819000D01*
X139841000Y-60819000D02*
X139954000Y-60706000D01*
X139954000Y-60706000D02*
X140716000Y-60706000D01*
X160180000Y-78105000D02*
X159485306Y-78105000D01*
X159485306Y-78105000D02*
X158800153Y-77419847D01*
X125476000Y-112038002D02*
X124739001Y-112775001D01*
X125476000Y-109982000D02*
X125476000Y-112038002D01*
X145796000Y-58420000D02*
X143510000Y-60706000D01*
X158750000Y-58420000D02*
X145796000Y-58420000D01*
X158800153Y-58470153D02*
X158750000Y-58420000D01*
X158800153Y-77419847D02*
X158800153Y-58470153D01*
G04 #@! TO.N,Net-(U1-PadGND)*
X134554004Y-105499998D02*
X127279001Y-112775001D01*
X134554004Y-87695996D02*
X134554004Y-105499998D01*
X127508000Y-87695996D02*
X134554004Y-87695996D01*
X125824002Y-86011998D02*
X127508000Y-87695996D01*
X124739001Y-69595001D02*
X125824002Y-70680002D01*
X125824002Y-70680002D02*
X125824002Y-86011998D01*
G04 #@! TO.N,Net-(C5-Pad1)*
X137179072Y-77732928D02*
X136680000Y-78232000D01*
X137480010Y-77431990D02*
X137179072Y-77732928D01*
X153106990Y-77431990D02*
X137480010Y-77431990D01*
X153780000Y-78105000D02*
X153106990Y-77431990D01*
X154780000Y-78105000D02*
X153780000Y-78105000D01*
G04 #@! TO.N,Net-(C3-Pad2)*
X155780000Y-79375000D02*
X156210000Y-78945000D01*
X154780000Y-79375000D02*
X155780000Y-79375000D01*
X156210000Y-78945000D02*
X156210000Y-68834000D01*
X156210000Y-68834000D02*
X155702000Y-68326000D01*
X150904000Y-68326000D02*
X149126000Y-66548000D01*
X155702000Y-68326000D02*
X150904000Y-68326000D01*
G04 #@! TO.N,Net-(C5-Pad2)*
X154330000Y-80645000D02*
X153162000Y-79477000D01*
X154780000Y-80645000D02*
X154330000Y-80645000D01*
X153162000Y-79477000D02*
X153162000Y-78232000D01*
X153162000Y-78232000D02*
X138430000Y-78232000D01*
G04 #@! TO.N,Net-(C6-Pad1)*
X138077000Y-81915000D02*
X154780000Y-81915000D01*
X136680000Y-83312000D02*
X138077000Y-81915000D01*
G04 #@! TO.N,Net-(C6-Pad2)*
X154653000Y-83312000D02*
X154780000Y-83185000D01*
X138430000Y-83312000D02*
X154653000Y-83312000D01*
G04 #@! TO.N,Net-(C4-Pad2)*
X155230000Y-84455000D02*
X155611000Y-84074000D01*
X154780000Y-84455000D02*
X155230000Y-84455000D01*
X155611000Y-84074000D02*
X157480000Y-84074000D01*
X163576000Y-82296000D02*
X165749000Y-82296000D01*
X162814000Y-83058000D02*
X163576000Y-82296000D01*
G04 #@! TD*
M02*
