G04 #@! TF.GenerationSoftware,KiCad,Pcbnew,(5.0.0)*
G04 #@! TF.CreationDate,2018-09-29T16:12:42-05:00*
G04 #@! TF.ProjectId,2018Training,32303138547261696E696E672E6B6963,rev?*
G04 #@! TF.SameCoordinates,Original*
G04 #@! TF.FileFunction,Copper,L2,Bot,Signal*
G04 #@! TF.FilePolarity,Positive*
%FSLAX46Y46*%
G04 Gerber Fmt 4.6, Leading zero omitted, Abs format (unit mm)*
G04 Created by KiCad (PCBNEW (5.0.0)) date 09/29/18 16:12:42*
%MOMM*%
%LPD*%
G01*
G04 APERTURE LIST*
G04 #@! TA.AperFunction,ComponentPad*
%ADD10C,1.524000*%
G04 #@! TD*
G04 #@! TA.AperFunction,ComponentPad*
%ADD11C,5.080000*%
G04 #@! TD*
G04 #@! TA.AperFunction,ComponentPad*
%ADD12C,1.520000*%
G04 #@! TD*
G04 #@! TA.AperFunction,ViaPad*
%ADD13C,0.800000*%
G04 #@! TD*
G04 #@! TA.AperFunction,Conductor*
%ADD14C,0.250000*%
G04 #@! TD*
G04 #@! TA.AperFunction,Conductor*
%ADD15C,0.254000*%
G04 #@! TD*
G04 APERTURE END LIST*
D10*
G04 #@! TO.P,Conn3,5*
G04 #@! TO.N,Net-(Conn3-Pad5)*
X170688000Y-91186000D03*
G04 #@! TO.P,Conn3,4*
G04 #@! TO.N,Net-(Conn3-Pad4)*
X170688000Y-88646000D03*
G04 #@! TO.P,Conn3,3*
G04 #@! TO.N,Net-(C1-Pad2)*
X170688000Y-86106000D03*
G04 #@! TO.P,Conn3,2*
G04 #@! TO.N,Net-(Conn3-Pad2)*
X170688000Y-83566000D03*
G04 #@! TO.P,Conn3,1*
G04 #@! TO.N,Net-(Conn3-Pad1)*
X170688000Y-81026000D03*
G04 #@! TD*
G04 #@! TO.P,Conn2,1*
G04 #@! TO.N,Net-(Conn2-Pad1)*
X170688000Y-57658000D03*
G04 #@! TO.P,Conn2,2*
G04 #@! TO.N,Net-(Conn2-Pad2)*
X170688000Y-60198000D03*
G04 #@! TO.P,Conn2,3*
G04 #@! TO.N,Net-(C1-Pad2)*
X170688000Y-62738000D03*
G04 #@! TO.P,Conn2,4*
G04 #@! TO.N,Net-(Conn2-Pad4)*
X170688000Y-65278000D03*
G04 #@! TO.P,Conn2,5*
G04 #@! TO.N,Net-(Conn2-Pad5)*
X170688000Y-67818000D03*
G04 #@! TD*
D11*
G04 #@! TO.P,Conn1,1*
G04 #@! TO.N,Net-(C1-Pad2)*
X133121400Y-59437000D03*
G04 #@! TO.P,Conn1,2*
G04 #@! TO.N,Net-(C1-Pad1)*
X133121400Y-51436000D03*
G04 #@! TD*
D12*
G04 #@! TO.P,U1,+3V3*
G04 #@! TO.N,Net-(U1-Pad+3V3)*
X124739001Y-115315001D03*
G04 #@! TO.P,U1,PM6*
G04 #@! TO.N,N/C*
X147599001Y-69595001D03*
G04 #@! TO.P,U1,PQ1*
X145059001Y-69595001D03*
G04 #@! TO.P,U1,PQ2*
X137439001Y-69595001D03*
G04 #@! TO.P,U1,PK0*
G04 #@! TO.N,/Serial4*
X134899001Y-112775001D03*
G04 #@! TO.P,U1,PQ3*
G04 #@! TO.N,N/C*
X139979001Y-69595001D03*
G04 #@! TO.P,U1,PP3*
X142519001Y-69595001D03*
G04 #@! TO.P,U1,PQ0*
X139979001Y-115315001D03*
G04 #@! TO.P,U1,PA4*
G04 #@! TO.N,Net-(U1-PadPA4)*
X145059001Y-112775001D03*
G04 #@! TO.P,U1,Rese*
G04 #@! TO.N,N/C*
X134899001Y-69595001D03*
G04 #@! TO.P,U1,PA7*
X132359001Y-69595001D03*
G04 #@! TO.P,U1,PN5*
X145059001Y-115315001D03*
G04 #@! TO.P,U1,PK2*
G04 #@! TO.N,Net-(U1-PadPK2)*
X139979001Y-112775001D03*
G04 #@! TO.P,U1,PK1*
G04 #@! TO.N,Net-(U1-PadPK1)*
X137439001Y-112775001D03*
G04 #@! TO.P,U1,+5V*
G04 #@! TO.N,Net-(C2-Pad1)*
X124739001Y-112775001D03*
G04 #@! TO.P,U1,GND*
G04 #@! TO.N,Net-(U1-PadGND)*
X127279001Y-112775001D03*
G04 #@! TO.P,U1,PB4*
G04 #@! TO.N,Net-(U1-PadPB4)*
X129819001Y-112775001D03*
G04 #@! TO.P,U1,PB5*
G04 #@! TO.N,Net-(U1-PadPB5)*
X132359001Y-112775001D03*
G04 #@! TO.P,U1,PK3*
G04 #@! TO.N,Net-(U1-PadPK3)*
X142519001Y-112775001D03*
G04 #@! TO.P,U1,PA5*
G04 #@! TO.N,Net-(U1-PadPA5)*
X147599001Y-112775001D03*
G04 #@! TO.P,U1,PD2*
G04 #@! TO.N,N/C*
X127279001Y-115315001D03*
G04 #@! TO.P,U1,PP0*
X129819001Y-115315001D03*
G04 #@! TO.P,U1,PP1*
X132359001Y-115315001D03*
G04 #@! TO.P,U1,PD4*
X134899001Y-115315001D03*
G04 #@! TO.P,U1,PD5*
X137439001Y-115315001D03*
G04 #@! TO.P,U1,PP4*
X142519001Y-115315001D03*
G04 #@! TO.P,U1,PN4*
X147599001Y-115315001D03*
G04 #@! TO.P,U1,PG1*
X124739001Y-72135001D03*
G04 #@! TO.P,U1,PK4*
X127279001Y-72135001D03*
G04 #@! TO.P,U1,PK5*
X129819001Y-72135001D03*
G04 #@! TO.P,U1,PM0*
X132359001Y-72135001D03*
G04 #@! TO.P,U1,PM1*
X134899001Y-72135001D03*
G04 #@! TO.P,U1,PM2*
X137439001Y-72135001D03*
G04 #@! TO.P,U1,PH0*
X139979001Y-72135001D03*
G04 #@! TO.P,U1,PH1*
X142519001Y-72135001D03*
G04 #@! TO.P,U1,PK6*
X145059001Y-72135001D03*
G04 #@! TO.P,U1,PK7*
X147599001Y-72135001D03*
G04 #@! TO.P,U1,GND*
G04 #@! TO.N,Net-(U1-PadGND)*
X124739001Y-69595001D03*
G04 #@! TO.P,U1,PM7*
G04 #@! TO.N,N/C*
X127279001Y-69595001D03*
G04 #@! TO.P,U1,PP5*
X129819001Y-69595001D03*
G04 #@! TD*
D10*
G04 #@! TO.P,U2,1*
G04 #@! TO.N,Net-(C1-Pad1)*
X163830000Y-58420000D03*
G04 #@! TO.P,U2,2*
G04 #@! TO.N,Net-(C1-Pad2)*
X161290000Y-58420000D03*
G04 #@! TO.P,U2,3*
G04 #@! TO.N,Net-(C2-Pad1)*
X158750000Y-58420000D03*
G04 #@! TD*
D13*
G04 #@! TO.N,Net-(Conn2-Pad4)*
X164516847Y-80339153D03*
X167640000Y-68326000D03*
G04 #@! TO.N,Net-(Conn2-Pad5)*
X162560000Y-80102000D03*
X164846000Y-77470000D03*
G04 #@! TO.N,Net-(Conn3-Pad5)*
X160528000Y-91694000D03*
X165100000Y-91694000D03*
G04 #@! TO.N,Net-(Conn3-Pad4)*
X157600933Y-86734933D03*
X165608000Y-88900000D03*
X170688000Y-88646000D03*
G04 #@! TO.N,Net-(C2-Pad1)*
X124739001Y-112775001D03*
X140970000Y-64262000D03*
G04 #@! TO.N,Net-(C4-Pad2)*
X157480000Y-84074000D03*
X162814000Y-83058000D03*
G04 #@! TD*
D14*
G04 #@! TO.N,Net-(Conn2-Pad4)*
X171196000Y-64770000D02*
X170688000Y-65278000D01*
D15*
X164516847Y-80339153D02*
X167640000Y-77216000D01*
X167640000Y-77216000D02*
X167640000Y-68326000D01*
G04 #@! TO.N,Net-(Conn3-Pad5)*
X160528000Y-91694000D02*
X165100000Y-91694000D01*
G04 #@! TO.N,Net-(Conn3-Pad4)*
X157600933Y-87300618D02*
X159200315Y-88900000D01*
X157600933Y-86734933D02*
X157600933Y-87300618D01*
X159200315Y-88900000D02*
X165608000Y-88900000D01*
G04 #@! TO.N,Net-(Conn2-Pad5)*
X162560000Y-79756000D02*
X164084000Y-78232000D01*
X162560000Y-80102000D02*
X162560000Y-79756000D01*
X164084000Y-78232000D02*
X164846000Y-77470000D01*
G04 #@! TO.N,Net-(C2-Pad1)*
X146812000Y-58420000D02*
X158750000Y-58420000D01*
X140970000Y-64262000D02*
X146812000Y-58420000D01*
G04 #@! TO.N,Net-(C4-Pad2)*
X157480000Y-84074000D02*
X161798000Y-84074000D01*
X161798000Y-84074000D02*
X162814000Y-83058000D01*
G04 #@! TD*
G04 #@! TO.N,Net-(C2-Pad1)*
G36*
X183694000Y-94183419D02*
X183633910Y-94603009D01*
X183479619Y-94942352D01*
X183236288Y-95224752D01*
X182923479Y-95427506D01*
X182542815Y-95541348D01*
X182345649Y-95556000D01*
X166693926Y-95556000D01*
X166624000Y-95542091D01*
X166554075Y-95556000D01*
X166554074Y-95556000D01*
X166346972Y-95597195D01*
X166112119Y-95754119D01*
X165955195Y-95988972D01*
X165900091Y-96266000D01*
X165914001Y-96335931D01*
X165914000Y-117024074D01*
X165900091Y-117094000D01*
X165955195Y-117371028D01*
X166112119Y-117605881D01*
X166346972Y-117762805D01*
X166506571Y-117794551D01*
X166624000Y-117817909D01*
X166693925Y-117804000D01*
X182321419Y-117804000D01*
X182741009Y-117864090D01*
X183080352Y-118018381D01*
X183362752Y-118261712D01*
X183565506Y-118574523D01*
X183679348Y-118955184D01*
X183694001Y-119152363D01*
X183694000Y-126643281D01*
X183608491Y-126669423D01*
X183516033Y-126696460D01*
X183508159Y-126700098D01*
X182986644Y-126944948D01*
X182906075Y-126997872D01*
X182824927Y-127049768D01*
X182818390Y-127055470D01*
X182386558Y-127436851D01*
X182324096Y-127510244D01*
X182260760Y-127582847D01*
X182256087Y-127590154D01*
X181948654Y-128077407D01*
X181909298Y-128165387D01*
X181868889Y-128252840D01*
X181866457Y-128261160D01*
X181866454Y-128261166D01*
X181866453Y-128261173D01*
X181708134Y-128815118D01*
X181695056Y-128910586D01*
X181680813Y-129005890D01*
X181680813Y-129014564D01*
X181684333Y-129590687D01*
X181698588Y-129686068D01*
X181711654Y-129781455D01*
X181714088Y-129789781D01*
X181879164Y-130341758D01*
X181919591Y-130429250D01*
X181958930Y-130517194D01*
X181963603Y-130524501D01*
X182276966Y-131007961D01*
X182340328Y-131080594D01*
X182402763Y-131153955D01*
X182409296Y-131159654D01*
X182409300Y-131159658D01*
X182409305Y-131159661D01*
X182845759Y-131535734D01*
X182926942Y-131587653D01*
X183007475Y-131640554D01*
X183015346Y-131644190D01*
X183015349Y-131644192D01*
X183015352Y-131644193D01*
X183539817Y-131882653D01*
X183632309Y-131909700D01*
X183694000Y-131928561D01*
X183694001Y-139903412D01*
X183633910Y-140323009D01*
X183479619Y-140662352D01*
X183236288Y-140944752D01*
X182923479Y-141147506D01*
X182542815Y-141261348D01*
X182345649Y-141276000D01*
X126028667Y-141276000D01*
X125530301Y-141213042D01*
X125105111Y-141044697D01*
X124735141Y-140775899D01*
X124443645Y-140423541D01*
X124248933Y-140009756D01*
X124156907Y-139527339D01*
X124154000Y-139434836D01*
X124154000Y-131928719D01*
X124239509Y-131902577D01*
X124331967Y-131875540D01*
X124339841Y-131871902D01*
X124861356Y-131627052D01*
X124941925Y-131574128D01*
X125023073Y-131522232D01*
X125029610Y-131516530D01*
X125461442Y-131135149D01*
X125523887Y-131061776D01*
X125587240Y-130989153D01*
X125591913Y-130981846D01*
X125899346Y-130494593D01*
X125938687Y-130406645D01*
X125979111Y-130319160D01*
X125981545Y-130310835D01*
X126139866Y-129756882D01*
X126152943Y-129661421D01*
X126167187Y-129566111D01*
X126167187Y-129557436D01*
X126163667Y-128981313D01*
X126149414Y-128885943D01*
X126136346Y-128790544D01*
X126133912Y-128782219D01*
X125968836Y-128230241D01*
X125928418Y-128142769D01*
X125889071Y-128054806D01*
X125884397Y-128047499D01*
X125571034Y-127564040D01*
X125507707Y-127491447D01*
X125445237Y-127418045D01*
X125438700Y-127412343D01*
X125002241Y-127036266D01*
X124921058Y-126984347D01*
X124840525Y-126931446D01*
X124832654Y-126927810D01*
X124832651Y-126927808D01*
X124832648Y-126927807D01*
X124308183Y-126689347D01*
X124215691Y-126662300D01*
X124154000Y-126643439D01*
X124154000Y-116582623D01*
X124461518Y-116710001D01*
X125016484Y-116710001D01*
X125529205Y-116497625D01*
X125921625Y-116105205D01*
X126009001Y-115894261D01*
X126096377Y-116105205D01*
X126488797Y-116497625D01*
X127001518Y-116710001D01*
X127556484Y-116710001D01*
X128069205Y-116497625D01*
X128461625Y-116105205D01*
X128549001Y-115894261D01*
X128636377Y-116105205D01*
X129028797Y-116497625D01*
X129541518Y-116710001D01*
X130096484Y-116710001D01*
X130609205Y-116497625D01*
X131001625Y-116105205D01*
X131089001Y-115894261D01*
X131176377Y-116105205D01*
X131568797Y-116497625D01*
X132081518Y-116710001D01*
X132636484Y-116710001D01*
X133149205Y-116497625D01*
X133541625Y-116105205D01*
X133629001Y-115894261D01*
X133716377Y-116105205D01*
X134108797Y-116497625D01*
X134621518Y-116710001D01*
X135176484Y-116710001D01*
X135689205Y-116497625D01*
X136081625Y-116105205D01*
X136169001Y-115894261D01*
X136256377Y-116105205D01*
X136648797Y-116497625D01*
X137161518Y-116710001D01*
X137716484Y-116710001D01*
X138229205Y-116497625D01*
X138621625Y-116105205D01*
X138709001Y-115894261D01*
X138796377Y-116105205D01*
X139188797Y-116497625D01*
X139701518Y-116710001D01*
X140256484Y-116710001D01*
X140769205Y-116497625D01*
X141161625Y-116105205D01*
X141249001Y-115894261D01*
X141336377Y-116105205D01*
X141728797Y-116497625D01*
X142241518Y-116710001D01*
X142796484Y-116710001D01*
X143309205Y-116497625D01*
X143701625Y-116105205D01*
X143789001Y-115894261D01*
X143876377Y-116105205D01*
X144268797Y-116497625D01*
X144781518Y-116710001D01*
X145336484Y-116710001D01*
X145849205Y-116497625D01*
X146241625Y-116105205D01*
X146329001Y-115894261D01*
X146416377Y-116105205D01*
X146808797Y-116497625D01*
X147321518Y-116710001D01*
X147876484Y-116710001D01*
X148389205Y-116497625D01*
X148781625Y-116105205D01*
X148994001Y-115592484D01*
X148994001Y-115037518D01*
X148781625Y-114524797D01*
X148389205Y-114132377D01*
X148178261Y-114045001D01*
X148389205Y-113957625D01*
X148781625Y-113565205D01*
X148994001Y-113052484D01*
X148994001Y-112497518D01*
X148781625Y-111984797D01*
X148389205Y-111592377D01*
X147876484Y-111380001D01*
X147321518Y-111380001D01*
X146808797Y-111592377D01*
X146416377Y-111984797D01*
X146329001Y-112195741D01*
X146241625Y-111984797D01*
X145849205Y-111592377D01*
X145336484Y-111380001D01*
X144781518Y-111380001D01*
X144268797Y-111592377D01*
X143876377Y-111984797D01*
X143789001Y-112195741D01*
X143701625Y-111984797D01*
X143309205Y-111592377D01*
X142796484Y-111380001D01*
X142241518Y-111380001D01*
X141728797Y-111592377D01*
X141336377Y-111984797D01*
X141249001Y-112195741D01*
X141161625Y-111984797D01*
X140769205Y-111592377D01*
X140256484Y-111380001D01*
X139701518Y-111380001D01*
X139188797Y-111592377D01*
X138796377Y-111984797D01*
X138709001Y-112195741D01*
X138621625Y-111984797D01*
X138229205Y-111592377D01*
X137716484Y-111380001D01*
X137161518Y-111380001D01*
X136648797Y-111592377D01*
X136256377Y-111984797D01*
X136169001Y-112195741D01*
X136081625Y-111984797D01*
X135689205Y-111592377D01*
X135176484Y-111380001D01*
X134621518Y-111380001D01*
X134108797Y-111592377D01*
X133716377Y-111984797D01*
X133629001Y-112195741D01*
X133541625Y-111984797D01*
X133149205Y-111592377D01*
X132636484Y-111380001D01*
X132081518Y-111380001D01*
X131568797Y-111592377D01*
X131176377Y-111984797D01*
X131089001Y-112195741D01*
X131001625Y-111984797D01*
X130609205Y-111592377D01*
X130096484Y-111380001D01*
X129541518Y-111380001D01*
X129028797Y-111592377D01*
X128636377Y-111984797D01*
X128549001Y-112195741D01*
X128461625Y-111984797D01*
X128069205Y-111592377D01*
X127556484Y-111380001D01*
X127001518Y-111380001D01*
X126488797Y-111592377D01*
X126096377Y-111984797D01*
X125884001Y-112497518D01*
X125884001Y-113052484D01*
X126096377Y-113565205D01*
X126488797Y-113957625D01*
X126699741Y-114045001D01*
X126488797Y-114132377D01*
X126096377Y-114524797D01*
X126009001Y-114735741D01*
X125921625Y-114524797D01*
X125529205Y-114132377D01*
X125016484Y-113920001D01*
X124461518Y-113920001D01*
X124154000Y-114047379D01*
X124154000Y-91488126D01*
X159493000Y-91488126D01*
X159493000Y-91899874D01*
X159650569Y-92280280D01*
X159941720Y-92571431D01*
X160322126Y-92729000D01*
X160733874Y-92729000D01*
X161114280Y-92571431D01*
X161229711Y-92456000D01*
X164398289Y-92456000D01*
X164513720Y-92571431D01*
X164894126Y-92729000D01*
X165305874Y-92729000D01*
X165686280Y-92571431D01*
X165977431Y-92280280D01*
X166135000Y-91899874D01*
X166135000Y-91488126D01*
X165977431Y-91107720D01*
X165686280Y-90816569D01*
X165305874Y-90659000D01*
X164894126Y-90659000D01*
X164513720Y-90816569D01*
X164398289Y-90932000D01*
X161229711Y-90932000D01*
X161114280Y-90816569D01*
X160733874Y-90659000D01*
X160322126Y-90659000D01*
X159941720Y-90816569D01*
X159650569Y-91107720D01*
X159493000Y-91488126D01*
X124154000Y-91488126D01*
X124154000Y-86529059D01*
X156565933Y-86529059D01*
X156565933Y-86940807D01*
X156723502Y-87321213D01*
X156854074Y-87451785D01*
X156883145Y-87597935D01*
X156984442Y-87749536D01*
X156997160Y-87768569D01*
X157051563Y-87849989D01*
X157115184Y-87892499D01*
X158608433Y-89385749D01*
X158650944Y-89449371D01*
X158902998Y-89617788D01*
X159125267Y-89662000D01*
X159125268Y-89662000D01*
X159200315Y-89676928D01*
X159275362Y-89662000D01*
X164906289Y-89662000D01*
X165021720Y-89777431D01*
X165402126Y-89935000D01*
X165813874Y-89935000D01*
X166194280Y-89777431D01*
X166485431Y-89486280D01*
X166643000Y-89105874D01*
X166643000Y-88694126D01*
X166485431Y-88313720D01*
X166194280Y-88022569D01*
X165813874Y-87865000D01*
X165402126Y-87865000D01*
X165021720Y-88022569D01*
X164906289Y-88138000D01*
X159515946Y-88138000D01*
X158543033Y-87165088D01*
X158635933Y-86940807D01*
X158635933Y-86529059D01*
X158478364Y-86148653D01*
X158187213Y-85857502D01*
X157806807Y-85699933D01*
X157395059Y-85699933D01*
X157014653Y-85857502D01*
X156723502Y-86148653D01*
X156565933Y-86529059D01*
X124154000Y-86529059D01*
X124154000Y-83868126D01*
X156445000Y-83868126D01*
X156445000Y-84279874D01*
X156602569Y-84660280D01*
X156893720Y-84951431D01*
X157274126Y-85109000D01*
X157685874Y-85109000D01*
X158066280Y-84951431D01*
X158181711Y-84836000D01*
X161722957Y-84836000D01*
X161798000Y-84850927D01*
X161873043Y-84836000D01*
X161873048Y-84836000D01*
X162095317Y-84791788D01*
X162347371Y-84623371D01*
X162389883Y-84559747D01*
X162856631Y-84093000D01*
X163019874Y-84093000D01*
X163400280Y-83935431D01*
X163691431Y-83644280D01*
X163849000Y-83263874D01*
X163849000Y-82852126D01*
X163691431Y-82471720D01*
X163400280Y-82180569D01*
X163019874Y-82023000D01*
X162608126Y-82023000D01*
X162227720Y-82180569D01*
X161936569Y-82471720D01*
X161779000Y-82852126D01*
X161779000Y-83015369D01*
X161482370Y-83312000D01*
X158181711Y-83312000D01*
X158066280Y-83196569D01*
X157685874Y-83039000D01*
X157274126Y-83039000D01*
X156893720Y-83196569D01*
X156602569Y-83487720D01*
X156445000Y-83868126D01*
X124154000Y-83868126D01*
X124154000Y-79896126D01*
X161525000Y-79896126D01*
X161525000Y-80307874D01*
X161682569Y-80688280D01*
X161973720Y-80979431D01*
X162354126Y-81137000D01*
X162765874Y-81137000D01*
X163146280Y-80979431D01*
X163437431Y-80688280D01*
X163489308Y-80563039D01*
X163639416Y-80925433D01*
X163930567Y-81216584D01*
X164310973Y-81374153D01*
X164722721Y-81374153D01*
X165103127Y-81216584D01*
X165394278Y-80925433D01*
X165467723Y-80748119D01*
X169291000Y-80748119D01*
X169291000Y-81303881D01*
X169503680Y-81817337D01*
X169896663Y-82210320D01*
X170103513Y-82296000D01*
X169896663Y-82381680D01*
X169503680Y-82774663D01*
X169291000Y-83288119D01*
X169291000Y-83843881D01*
X169503680Y-84357337D01*
X169896663Y-84750320D01*
X170103513Y-84836000D01*
X169896663Y-84921680D01*
X169503680Y-85314663D01*
X169291000Y-85828119D01*
X169291000Y-86383881D01*
X169503680Y-86897337D01*
X169896663Y-87290320D01*
X170103513Y-87376000D01*
X169896663Y-87461680D01*
X169503680Y-87854663D01*
X169291000Y-88368119D01*
X169291000Y-88923881D01*
X169503680Y-89437337D01*
X169896663Y-89830320D01*
X170103513Y-89916000D01*
X169896663Y-90001680D01*
X169503680Y-90394663D01*
X169291000Y-90908119D01*
X169291000Y-91463881D01*
X169503680Y-91977337D01*
X169896663Y-92370320D01*
X170410119Y-92583000D01*
X170965881Y-92583000D01*
X171479337Y-92370320D01*
X171863090Y-91986567D01*
X176964000Y-91986567D01*
X176964000Y-92925433D01*
X177323289Y-93792833D01*
X177987167Y-94456711D01*
X178854567Y-94816000D01*
X179793433Y-94816000D01*
X180660833Y-94456711D01*
X181324711Y-93792833D01*
X181684000Y-92925433D01*
X181684000Y-91986567D01*
X181324711Y-91119167D01*
X180660833Y-90455289D01*
X179793433Y-90096000D01*
X178854567Y-90096000D01*
X177987167Y-90455289D01*
X177323289Y-91119167D01*
X176964000Y-91986567D01*
X171863090Y-91986567D01*
X171872320Y-91977337D01*
X172085000Y-91463881D01*
X172085000Y-90908119D01*
X171872320Y-90394663D01*
X171479337Y-90001680D01*
X171272487Y-89916000D01*
X171479337Y-89830320D01*
X171872320Y-89437337D01*
X172085000Y-88923881D01*
X172085000Y-88368119D01*
X171872320Y-87854663D01*
X171479337Y-87461680D01*
X171272487Y-87376000D01*
X171479337Y-87290320D01*
X171872320Y-86897337D01*
X172085000Y-86383881D01*
X172085000Y-85828119D01*
X171872320Y-85314663D01*
X171479337Y-84921680D01*
X171272487Y-84836000D01*
X171479337Y-84750320D01*
X171872320Y-84357337D01*
X172085000Y-83843881D01*
X172085000Y-83288119D01*
X171872320Y-82774663D01*
X171479337Y-82381680D01*
X171272487Y-82296000D01*
X171479337Y-82210320D01*
X171872320Y-81817337D01*
X172085000Y-81303881D01*
X172085000Y-80748119D01*
X171872320Y-80234663D01*
X171479337Y-79841680D01*
X170965881Y-79629000D01*
X170410119Y-79629000D01*
X169896663Y-79841680D01*
X169503680Y-80234663D01*
X169291000Y-80748119D01*
X165467723Y-80748119D01*
X165551847Y-80545027D01*
X165551847Y-80381783D01*
X166647063Y-79286567D01*
X176964000Y-79286567D01*
X176964000Y-80225433D01*
X177323289Y-81092833D01*
X177987167Y-81756711D01*
X178854567Y-82116000D01*
X179793433Y-82116000D01*
X180660833Y-81756711D01*
X181324711Y-81092833D01*
X181684000Y-80225433D01*
X181684000Y-79286567D01*
X181324711Y-78419167D01*
X180660833Y-77755289D01*
X179793433Y-77396000D01*
X178854567Y-77396000D01*
X177987167Y-77755289D01*
X177323289Y-78419167D01*
X176964000Y-79286567D01*
X166647063Y-79286567D01*
X168125750Y-77807881D01*
X168189371Y-77765371D01*
X168273062Y-77640119D01*
X168357787Y-77513319D01*
X168357787Y-77513318D01*
X168357788Y-77513317D01*
X168402000Y-77291048D01*
X168402000Y-77291044D01*
X168416927Y-77216001D01*
X168402000Y-77140958D01*
X168402000Y-69027711D01*
X168517431Y-68912280D01*
X168675000Y-68531874D01*
X168675000Y-68120126D01*
X168517431Y-67739720D01*
X168226280Y-67448569D01*
X167845874Y-67291000D01*
X167434126Y-67291000D01*
X167053720Y-67448569D01*
X166762569Y-67739720D01*
X166605000Y-68120126D01*
X166605000Y-68531874D01*
X166762569Y-68912280D01*
X166878001Y-69027712D01*
X166878000Y-76900369D01*
X165724380Y-78053990D01*
X165881000Y-77675874D01*
X165881000Y-77264126D01*
X165723431Y-76883720D01*
X165432280Y-76592569D01*
X165051874Y-76435000D01*
X164640126Y-76435000D01*
X164259720Y-76592569D01*
X163968569Y-76883720D01*
X163811000Y-77264126D01*
X163811000Y-77427370D01*
X162074253Y-79164117D01*
X162010629Y-79206629D01*
X162008179Y-79210296D01*
X161973720Y-79224569D01*
X161682569Y-79515720D01*
X161525000Y-79896126D01*
X124154000Y-79896126D01*
X124154000Y-73402623D01*
X124461518Y-73530001D01*
X125016484Y-73530001D01*
X125529205Y-73317625D01*
X125921625Y-72925205D01*
X126009001Y-72714261D01*
X126096377Y-72925205D01*
X126488797Y-73317625D01*
X127001518Y-73530001D01*
X127556484Y-73530001D01*
X128069205Y-73317625D01*
X128461625Y-72925205D01*
X128549001Y-72714261D01*
X128636377Y-72925205D01*
X129028797Y-73317625D01*
X129541518Y-73530001D01*
X130096484Y-73530001D01*
X130609205Y-73317625D01*
X131001625Y-72925205D01*
X131089001Y-72714261D01*
X131176377Y-72925205D01*
X131568797Y-73317625D01*
X132081518Y-73530001D01*
X132636484Y-73530001D01*
X133149205Y-73317625D01*
X133541625Y-72925205D01*
X133629001Y-72714261D01*
X133716377Y-72925205D01*
X134108797Y-73317625D01*
X134621518Y-73530001D01*
X135176484Y-73530001D01*
X135689205Y-73317625D01*
X136081625Y-72925205D01*
X136169001Y-72714261D01*
X136256377Y-72925205D01*
X136648797Y-73317625D01*
X137161518Y-73530001D01*
X137716484Y-73530001D01*
X138229205Y-73317625D01*
X138621625Y-72925205D01*
X138709001Y-72714261D01*
X138796377Y-72925205D01*
X139188797Y-73317625D01*
X139701518Y-73530001D01*
X140256484Y-73530001D01*
X140769205Y-73317625D01*
X141161625Y-72925205D01*
X141249001Y-72714261D01*
X141336377Y-72925205D01*
X141728797Y-73317625D01*
X142241518Y-73530001D01*
X142796484Y-73530001D01*
X143309205Y-73317625D01*
X143701625Y-72925205D01*
X143789001Y-72714261D01*
X143876377Y-72925205D01*
X144268797Y-73317625D01*
X144781518Y-73530001D01*
X145336484Y-73530001D01*
X145849205Y-73317625D01*
X146241625Y-72925205D01*
X146329001Y-72714261D01*
X146416377Y-72925205D01*
X146808797Y-73317625D01*
X147321518Y-73530001D01*
X147876484Y-73530001D01*
X148389205Y-73317625D01*
X148781625Y-72925205D01*
X148994001Y-72412484D01*
X148994001Y-71857518D01*
X148781625Y-71344797D01*
X148389205Y-70952377D01*
X148178261Y-70865001D01*
X148389205Y-70777625D01*
X148781625Y-70385205D01*
X148994001Y-69872484D01*
X148994001Y-69317518D01*
X148781625Y-68804797D01*
X148389205Y-68412377D01*
X147876484Y-68200001D01*
X147321518Y-68200001D01*
X146808797Y-68412377D01*
X146416377Y-68804797D01*
X146329001Y-69015741D01*
X146241625Y-68804797D01*
X145849205Y-68412377D01*
X145336484Y-68200001D01*
X144781518Y-68200001D01*
X144268797Y-68412377D01*
X143876377Y-68804797D01*
X143789001Y-69015741D01*
X143701625Y-68804797D01*
X143309205Y-68412377D01*
X142796484Y-68200001D01*
X142241518Y-68200001D01*
X141728797Y-68412377D01*
X141336377Y-68804797D01*
X141249001Y-69015741D01*
X141161625Y-68804797D01*
X140769205Y-68412377D01*
X140256484Y-68200001D01*
X139701518Y-68200001D01*
X139188797Y-68412377D01*
X138796377Y-68804797D01*
X138709001Y-69015741D01*
X138621625Y-68804797D01*
X138229205Y-68412377D01*
X137716484Y-68200001D01*
X137161518Y-68200001D01*
X136648797Y-68412377D01*
X136256377Y-68804797D01*
X136169001Y-69015741D01*
X136081625Y-68804797D01*
X135689205Y-68412377D01*
X135176484Y-68200001D01*
X134621518Y-68200001D01*
X134108797Y-68412377D01*
X133716377Y-68804797D01*
X133629001Y-69015741D01*
X133541625Y-68804797D01*
X133149205Y-68412377D01*
X132636484Y-68200001D01*
X132081518Y-68200001D01*
X131568797Y-68412377D01*
X131176377Y-68804797D01*
X131089001Y-69015741D01*
X131001625Y-68804797D01*
X130609205Y-68412377D01*
X130096484Y-68200001D01*
X129541518Y-68200001D01*
X129028797Y-68412377D01*
X128636377Y-68804797D01*
X128549001Y-69015741D01*
X128461625Y-68804797D01*
X128069205Y-68412377D01*
X127556484Y-68200001D01*
X127001518Y-68200001D01*
X126488797Y-68412377D01*
X126096377Y-68804797D01*
X126009001Y-69015741D01*
X125921625Y-68804797D01*
X125529205Y-68412377D01*
X125016484Y-68200001D01*
X124461518Y-68200001D01*
X124154000Y-68327379D01*
X124154000Y-58805453D01*
X129946400Y-58805453D01*
X129946400Y-60068547D01*
X130429765Y-61235493D01*
X131322907Y-62128635D01*
X132489853Y-62612000D01*
X133752947Y-62612000D01*
X134919893Y-62128635D01*
X135813035Y-61235493D01*
X136296400Y-60068547D01*
X136296400Y-58805453D01*
X136021638Y-58142119D01*
X159893000Y-58142119D01*
X159893000Y-58697881D01*
X160105680Y-59211337D01*
X160498663Y-59604320D01*
X161012119Y-59817000D01*
X161567881Y-59817000D01*
X162081337Y-59604320D01*
X162474320Y-59211337D01*
X162560000Y-59004487D01*
X162645680Y-59211337D01*
X163038663Y-59604320D01*
X163552119Y-59817000D01*
X164107881Y-59817000D01*
X164621337Y-59604320D01*
X165014320Y-59211337D01*
X165227000Y-58697881D01*
X165227000Y-58142119D01*
X165014320Y-57628663D01*
X164765776Y-57380119D01*
X169291000Y-57380119D01*
X169291000Y-57935881D01*
X169503680Y-58449337D01*
X169896663Y-58842320D01*
X170103513Y-58928000D01*
X169896663Y-59013680D01*
X169503680Y-59406663D01*
X169291000Y-59920119D01*
X169291000Y-60475881D01*
X169503680Y-60989337D01*
X169896663Y-61382320D01*
X170103513Y-61468000D01*
X169896663Y-61553680D01*
X169503680Y-61946663D01*
X169291000Y-62460119D01*
X169291000Y-63015881D01*
X169503680Y-63529337D01*
X169896663Y-63922320D01*
X170103513Y-64008000D01*
X169896663Y-64093680D01*
X169503680Y-64486663D01*
X169291000Y-65000119D01*
X169291000Y-65555881D01*
X169503680Y-66069337D01*
X169896663Y-66462320D01*
X170103513Y-66548000D01*
X169896663Y-66633680D01*
X169503680Y-67026663D01*
X169291000Y-67540119D01*
X169291000Y-68095881D01*
X169503680Y-68609337D01*
X169896663Y-69002320D01*
X170410119Y-69215000D01*
X170965881Y-69215000D01*
X171479337Y-69002320D01*
X171863090Y-68618567D01*
X176964000Y-68618567D01*
X176964000Y-69557433D01*
X177323289Y-70424833D01*
X177987167Y-71088711D01*
X178854567Y-71448000D01*
X179793433Y-71448000D01*
X180660833Y-71088711D01*
X181324711Y-70424833D01*
X181684000Y-69557433D01*
X181684000Y-68618567D01*
X181324711Y-67751167D01*
X180660833Y-67087289D01*
X179793433Y-66728000D01*
X178854567Y-66728000D01*
X177987167Y-67087289D01*
X177323289Y-67751167D01*
X176964000Y-68618567D01*
X171863090Y-68618567D01*
X171872320Y-68609337D01*
X172085000Y-68095881D01*
X172085000Y-67540119D01*
X171872320Y-67026663D01*
X171479337Y-66633680D01*
X171272487Y-66548000D01*
X171479337Y-66462320D01*
X171872320Y-66069337D01*
X172085000Y-65555881D01*
X172085000Y-65000119D01*
X171953524Y-64682708D01*
X171911903Y-64473464D01*
X171743928Y-64222072D01*
X171492536Y-64054097D01*
X171283292Y-64012476D01*
X171272487Y-64008000D01*
X171479337Y-63922320D01*
X171872320Y-63529337D01*
X172085000Y-63015881D01*
X172085000Y-62460119D01*
X171872320Y-61946663D01*
X171479337Y-61553680D01*
X171272487Y-61468000D01*
X171479337Y-61382320D01*
X171872320Y-60989337D01*
X172085000Y-60475881D01*
X172085000Y-59920119D01*
X171872320Y-59406663D01*
X171479337Y-59013680D01*
X171272487Y-58928000D01*
X171479337Y-58842320D01*
X171872320Y-58449337D01*
X172085000Y-57935881D01*
X172085000Y-57380119D01*
X171872320Y-56866663D01*
X171479337Y-56473680D01*
X170965881Y-56261000D01*
X170410119Y-56261000D01*
X169896663Y-56473680D01*
X169503680Y-56866663D01*
X169291000Y-57380119D01*
X164765776Y-57380119D01*
X164621337Y-57235680D01*
X164107881Y-57023000D01*
X163552119Y-57023000D01*
X163038663Y-57235680D01*
X162645680Y-57628663D01*
X162560000Y-57835513D01*
X162474320Y-57628663D01*
X162081337Y-57235680D01*
X161567881Y-57023000D01*
X161012119Y-57023000D01*
X160498663Y-57235680D01*
X160105680Y-57628663D01*
X159893000Y-58142119D01*
X136021638Y-58142119D01*
X135813035Y-57638507D01*
X134919893Y-56745365D01*
X133752947Y-56262000D01*
X132489853Y-56262000D01*
X131322907Y-56745365D01*
X130429765Y-57638507D01*
X129946400Y-58805453D01*
X124154000Y-58805453D01*
X124154000Y-55918567D01*
X176964000Y-55918567D01*
X176964000Y-56857433D01*
X177323289Y-57724833D01*
X177987167Y-58388711D01*
X178854567Y-58748000D01*
X179793433Y-58748000D01*
X180660833Y-58388711D01*
X181324711Y-57724833D01*
X181684000Y-56857433D01*
X181684000Y-55918567D01*
X181324711Y-55051167D01*
X180660833Y-54387289D01*
X179793433Y-54028000D01*
X178854567Y-54028000D01*
X177987167Y-54387289D01*
X177323289Y-55051167D01*
X176964000Y-55918567D01*
X124154000Y-55918567D01*
X124154000Y-50804453D01*
X129946400Y-50804453D01*
X129946400Y-52067547D01*
X130429765Y-53234493D01*
X131322907Y-54127635D01*
X132489853Y-54611000D01*
X133752947Y-54611000D01*
X134919893Y-54127635D01*
X135813035Y-53234493D01*
X136296400Y-52067547D01*
X136296400Y-50804453D01*
X135813035Y-49637507D01*
X134919893Y-48744365D01*
X133752947Y-48261000D01*
X132489853Y-48261000D01*
X131322907Y-48744365D01*
X130429765Y-49637507D01*
X129946400Y-50804453D01*
X124154000Y-50804453D01*
X124154000Y-42620000D01*
X183694001Y-42620000D01*
X183694000Y-94183419D01*
X183694000Y-94183419D01*
G37*
X183694000Y-94183419D02*
X183633910Y-94603009D01*
X183479619Y-94942352D01*
X183236288Y-95224752D01*
X182923479Y-95427506D01*
X182542815Y-95541348D01*
X182345649Y-95556000D01*
X166693926Y-95556000D01*
X166624000Y-95542091D01*
X166554075Y-95556000D01*
X166554074Y-95556000D01*
X166346972Y-95597195D01*
X166112119Y-95754119D01*
X165955195Y-95988972D01*
X165900091Y-96266000D01*
X165914001Y-96335931D01*
X165914000Y-117024074D01*
X165900091Y-117094000D01*
X165955195Y-117371028D01*
X166112119Y-117605881D01*
X166346972Y-117762805D01*
X166506571Y-117794551D01*
X166624000Y-117817909D01*
X166693925Y-117804000D01*
X182321419Y-117804000D01*
X182741009Y-117864090D01*
X183080352Y-118018381D01*
X183362752Y-118261712D01*
X183565506Y-118574523D01*
X183679348Y-118955184D01*
X183694001Y-119152363D01*
X183694000Y-126643281D01*
X183608491Y-126669423D01*
X183516033Y-126696460D01*
X183508159Y-126700098D01*
X182986644Y-126944948D01*
X182906075Y-126997872D01*
X182824927Y-127049768D01*
X182818390Y-127055470D01*
X182386558Y-127436851D01*
X182324096Y-127510244D01*
X182260760Y-127582847D01*
X182256087Y-127590154D01*
X181948654Y-128077407D01*
X181909298Y-128165387D01*
X181868889Y-128252840D01*
X181866457Y-128261160D01*
X181866454Y-128261166D01*
X181866453Y-128261173D01*
X181708134Y-128815118D01*
X181695056Y-128910586D01*
X181680813Y-129005890D01*
X181680813Y-129014564D01*
X181684333Y-129590687D01*
X181698588Y-129686068D01*
X181711654Y-129781455D01*
X181714088Y-129789781D01*
X181879164Y-130341758D01*
X181919591Y-130429250D01*
X181958930Y-130517194D01*
X181963603Y-130524501D01*
X182276966Y-131007961D01*
X182340328Y-131080594D01*
X182402763Y-131153955D01*
X182409296Y-131159654D01*
X182409300Y-131159658D01*
X182409305Y-131159661D01*
X182845759Y-131535734D01*
X182926942Y-131587653D01*
X183007475Y-131640554D01*
X183015346Y-131644190D01*
X183015349Y-131644192D01*
X183015352Y-131644193D01*
X183539817Y-131882653D01*
X183632309Y-131909700D01*
X183694000Y-131928561D01*
X183694001Y-139903412D01*
X183633910Y-140323009D01*
X183479619Y-140662352D01*
X183236288Y-140944752D01*
X182923479Y-141147506D01*
X182542815Y-141261348D01*
X182345649Y-141276000D01*
X126028667Y-141276000D01*
X125530301Y-141213042D01*
X125105111Y-141044697D01*
X124735141Y-140775899D01*
X124443645Y-140423541D01*
X124248933Y-140009756D01*
X124156907Y-139527339D01*
X124154000Y-139434836D01*
X124154000Y-131928719D01*
X124239509Y-131902577D01*
X124331967Y-131875540D01*
X124339841Y-131871902D01*
X124861356Y-131627052D01*
X124941925Y-131574128D01*
X125023073Y-131522232D01*
X125029610Y-131516530D01*
X125461442Y-131135149D01*
X125523887Y-131061776D01*
X125587240Y-130989153D01*
X125591913Y-130981846D01*
X125899346Y-130494593D01*
X125938687Y-130406645D01*
X125979111Y-130319160D01*
X125981545Y-130310835D01*
X126139866Y-129756882D01*
X126152943Y-129661421D01*
X126167187Y-129566111D01*
X126167187Y-129557436D01*
X126163667Y-128981313D01*
X126149414Y-128885943D01*
X126136346Y-128790544D01*
X126133912Y-128782219D01*
X125968836Y-128230241D01*
X125928418Y-128142769D01*
X125889071Y-128054806D01*
X125884397Y-128047499D01*
X125571034Y-127564040D01*
X125507707Y-127491447D01*
X125445237Y-127418045D01*
X125438700Y-127412343D01*
X125002241Y-127036266D01*
X124921058Y-126984347D01*
X124840525Y-126931446D01*
X124832654Y-126927810D01*
X124832651Y-126927808D01*
X124832648Y-126927807D01*
X124308183Y-126689347D01*
X124215691Y-126662300D01*
X124154000Y-126643439D01*
X124154000Y-116582623D01*
X124461518Y-116710001D01*
X125016484Y-116710001D01*
X125529205Y-116497625D01*
X125921625Y-116105205D01*
X126009001Y-115894261D01*
X126096377Y-116105205D01*
X126488797Y-116497625D01*
X127001518Y-116710001D01*
X127556484Y-116710001D01*
X128069205Y-116497625D01*
X128461625Y-116105205D01*
X128549001Y-115894261D01*
X128636377Y-116105205D01*
X129028797Y-116497625D01*
X129541518Y-116710001D01*
X130096484Y-116710001D01*
X130609205Y-116497625D01*
X131001625Y-116105205D01*
X131089001Y-115894261D01*
X131176377Y-116105205D01*
X131568797Y-116497625D01*
X132081518Y-116710001D01*
X132636484Y-116710001D01*
X133149205Y-116497625D01*
X133541625Y-116105205D01*
X133629001Y-115894261D01*
X133716377Y-116105205D01*
X134108797Y-116497625D01*
X134621518Y-116710001D01*
X135176484Y-116710001D01*
X135689205Y-116497625D01*
X136081625Y-116105205D01*
X136169001Y-115894261D01*
X136256377Y-116105205D01*
X136648797Y-116497625D01*
X137161518Y-116710001D01*
X137716484Y-116710001D01*
X138229205Y-116497625D01*
X138621625Y-116105205D01*
X138709001Y-115894261D01*
X138796377Y-116105205D01*
X139188797Y-116497625D01*
X139701518Y-116710001D01*
X140256484Y-116710001D01*
X140769205Y-116497625D01*
X141161625Y-116105205D01*
X141249001Y-115894261D01*
X141336377Y-116105205D01*
X141728797Y-116497625D01*
X142241518Y-116710001D01*
X142796484Y-116710001D01*
X143309205Y-116497625D01*
X143701625Y-116105205D01*
X143789001Y-115894261D01*
X143876377Y-116105205D01*
X144268797Y-116497625D01*
X144781518Y-116710001D01*
X145336484Y-116710001D01*
X145849205Y-116497625D01*
X146241625Y-116105205D01*
X146329001Y-115894261D01*
X146416377Y-116105205D01*
X146808797Y-116497625D01*
X147321518Y-116710001D01*
X147876484Y-116710001D01*
X148389205Y-116497625D01*
X148781625Y-116105205D01*
X148994001Y-115592484D01*
X148994001Y-115037518D01*
X148781625Y-114524797D01*
X148389205Y-114132377D01*
X148178261Y-114045001D01*
X148389205Y-113957625D01*
X148781625Y-113565205D01*
X148994001Y-113052484D01*
X148994001Y-112497518D01*
X148781625Y-111984797D01*
X148389205Y-111592377D01*
X147876484Y-111380001D01*
X147321518Y-111380001D01*
X146808797Y-111592377D01*
X146416377Y-111984797D01*
X146329001Y-112195741D01*
X146241625Y-111984797D01*
X145849205Y-111592377D01*
X145336484Y-111380001D01*
X144781518Y-111380001D01*
X144268797Y-111592377D01*
X143876377Y-111984797D01*
X143789001Y-112195741D01*
X143701625Y-111984797D01*
X143309205Y-111592377D01*
X142796484Y-111380001D01*
X142241518Y-111380001D01*
X141728797Y-111592377D01*
X141336377Y-111984797D01*
X141249001Y-112195741D01*
X141161625Y-111984797D01*
X140769205Y-111592377D01*
X140256484Y-111380001D01*
X139701518Y-111380001D01*
X139188797Y-111592377D01*
X138796377Y-111984797D01*
X138709001Y-112195741D01*
X138621625Y-111984797D01*
X138229205Y-111592377D01*
X137716484Y-111380001D01*
X137161518Y-111380001D01*
X136648797Y-111592377D01*
X136256377Y-111984797D01*
X136169001Y-112195741D01*
X136081625Y-111984797D01*
X135689205Y-111592377D01*
X135176484Y-111380001D01*
X134621518Y-111380001D01*
X134108797Y-111592377D01*
X133716377Y-111984797D01*
X133629001Y-112195741D01*
X133541625Y-111984797D01*
X133149205Y-111592377D01*
X132636484Y-111380001D01*
X132081518Y-111380001D01*
X131568797Y-111592377D01*
X131176377Y-111984797D01*
X131089001Y-112195741D01*
X131001625Y-111984797D01*
X130609205Y-111592377D01*
X130096484Y-111380001D01*
X129541518Y-111380001D01*
X129028797Y-111592377D01*
X128636377Y-111984797D01*
X128549001Y-112195741D01*
X128461625Y-111984797D01*
X128069205Y-111592377D01*
X127556484Y-111380001D01*
X127001518Y-111380001D01*
X126488797Y-111592377D01*
X126096377Y-111984797D01*
X125884001Y-112497518D01*
X125884001Y-113052484D01*
X126096377Y-113565205D01*
X126488797Y-113957625D01*
X126699741Y-114045001D01*
X126488797Y-114132377D01*
X126096377Y-114524797D01*
X126009001Y-114735741D01*
X125921625Y-114524797D01*
X125529205Y-114132377D01*
X125016484Y-113920001D01*
X124461518Y-113920001D01*
X124154000Y-114047379D01*
X124154000Y-91488126D01*
X159493000Y-91488126D01*
X159493000Y-91899874D01*
X159650569Y-92280280D01*
X159941720Y-92571431D01*
X160322126Y-92729000D01*
X160733874Y-92729000D01*
X161114280Y-92571431D01*
X161229711Y-92456000D01*
X164398289Y-92456000D01*
X164513720Y-92571431D01*
X164894126Y-92729000D01*
X165305874Y-92729000D01*
X165686280Y-92571431D01*
X165977431Y-92280280D01*
X166135000Y-91899874D01*
X166135000Y-91488126D01*
X165977431Y-91107720D01*
X165686280Y-90816569D01*
X165305874Y-90659000D01*
X164894126Y-90659000D01*
X164513720Y-90816569D01*
X164398289Y-90932000D01*
X161229711Y-90932000D01*
X161114280Y-90816569D01*
X160733874Y-90659000D01*
X160322126Y-90659000D01*
X159941720Y-90816569D01*
X159650569Y-91107720D01*
X159493000Y-91488126D01*
X124154000Y-91488126D01*
X124154000Y-86529059D01*
X156565933Y-86529059D01*
X156565933Y-86940807D01*
X156723502Y-87321213D01*
X156854074Y-87451785D01*
X156883145Y-87597935D01*
X156984442Y-87749536D01*
X156997160Y-87768569D01*
X157051563Y-87849989D01*
X157115184Y-87892499D01*
X158608433Y-89385749D01*
X158650944Y-89449371D01*
X158902998Y-89617788D01*
X159125267Y-89662000D01*
X159125268Y-89662000D01*
X159200315Y-89676928D01*
X159275362Y-89662000D01*
X164906289Y-89662000D01*
X165021720Y-89777431D01*
X165402126Y-89935000D01*
X165813874Y-89935000D01*
X166194280Y-89777431D01*
X166485431Y-89486280D01*
X166643000Y-89105874D01*
X166643000Y-88694126D01*
X166485431Y-88313720D01*
X166194280Y-88022569D01*
X165813874Y-87865000D01*
X165402126Y-87865000D01*
X165021720Y-88022569D01*
X164906289Y-88138000D01*
X159515946Y-88138000D01*
X158543033Y-87165088D01*
X158635933Y-86940807D01*
X158635933Y-86529059D01*
X158478364Y-86148653D01*
X158187213Y-85857502D01*
X157806807Y-85699933D01*
X157395059Y-85699933D01*
X157014653Y-85857502D01*
X156723502Y-86148653D01*
X156565933Y-86529059D01*
X124154000Y-86529059D01*
X124154000Y-83868126D01*
X156445000Y-83868126D01*
X156445000Y-84279874D01*
X156602569Y-84660280D01*
X156893720Y-84951431D01*
X157274126Y-85109000D01*
X157685874Y-85109000D01*
X158066280Y-84951431D01*
X158181711Y-84836000D01*
X161722957Y-84836000D01*
X161798000Y-84850927D01*
X161873043Y-84836000D01*
X161873048Y-84836000D01*
X162095317Y-84791788D01*
X162347371Y-84623371D01*
X162389883Y-84559747D01*
X162856631Y-84093000D01*
X163019874Y-84093000D01*
X163400280Y-83935431D01*
X163691431Y-83644280D01*
X163849000Y-83263874D01*
X163849000Y-82852126D01*
X163691431Y-82471720D01*
X163400280Y-82180569D01*
X163019874Y-82023000D01*
X162608126Y-82023000D01*
X162227720Y-82180569D01*
X161936569Y-82471720D01*
X161779000Y-82852126D01*
X161779000Y-83015369D01*
X161482370Y-83312000D01*
X158181711Y-83312000D01*
X158066280Y-83196569D01*
X157685874Y-83039000D01*
X157274126Y-83039000D01*
X156893720Y-83196569D01*
X156602569Y-83487720D01*
X156445000Y-83868126D01*
X124154000Y-83868126D01*
X124154000Y-79896126D01*
X161525000Y-79896126D01*
X161525000Y-80307874D01*
X161682569Y-80688280D01*
X161973720Y-80979431D01*
X162354126Y-81137000D01*
X162765874Y-81137000D01*
X163146280Y-80979431D01*
X163437431Y-80688280D01*
X163489308Y-80563039D01*
X163639416Y-80925433D01*
X163930567Y-81216584D01*
X164310973Y-81374153D01*
X164722721Y-81374153D01*
X165103127Y-81216584D01*
X165394278Y-80925433D01*
X165467723Y-80748119D01*
X169291000Y-80748119D01*
X169291000Y-81303881D01*
X169503680Y-81817337D01*
X169896663Y-82210320D01*
X170103513Y-82296000D01*
X169896663Y-82381680D01*
X169503680Y-82774663D01*
X169291000Y-83288119D01*
X169291000Y-83843881D01*
X169503680Y-84357337D01*
X169896663Y-84750320D01*
X170103513Y-84836000D01*
X169896663Y-84921680D01*
X169503680Y-85314663D01*
X169291000Y-85828119D01*
X169291000Y-86383881D01*
X169503680Y-86897337D01*
X169896663Y-87290320D01*
X170103513Y-87376000D01*
X169896663Y-87461680D01*
X169503680Y-87854663D01*
X169291000Y-88368119D01*
X169291000Y-88923881D01*
X169503680Y-89437337D01*
X169896663Y-89830320D01*
X170103513Y-89916000D01*
X169896663Y-90001680D01*
X169503680Y-90394663D01*
X169291000Y-90908119D01*
X169291000Y-91463881D01*
X169503680Y-91977337D01*
X169896663Y-92370320D01*
X170410119Y-92583000D01*
X170965881Y-92583000D01*
X171479337Y-92370320D01*
X171863090Y-91986567D01*
X176964000Y-91986567D01*
X176964000Y-92925433D01*
X177323289Y-93792833D01*
X177987167Y-94456711D01*
X178854567Y-94816000D01*
X179793433Y-94816000D01*
X180660833Y-94456711D01*
X181324711Y-93792833D01*
X181684000Y-92925433D01*
X181684000Y-91986567D01*
X181324711Y-91119167D01*
X180660833Y-90455289D01*
X179793433Y-90096000D01*
X178854567Y-90096000D01*
X177987167Y-90455289D01*
X177323289Y-91119167D01*
X176964000Y-91986567D01*
X171863090Y-91986567D01*
X171872320Y-91977337D01*
X172085000Y-91463881D01*
X172085000Y-90908119D01*
X171872320Y-90394663D01*
X171479337Y-90001680D01*
X171272487Y-89916000D01*
X171479337Y-89830320D01*
X171872320Y-89437337D01*
X172085000Y-88923881D01*
X172085000Y-88368119D01*
X171872320Y-87854663D01*
X171479337Y-87461680D01*
X171272487Y-87376000D01*
X171479337Y-87290320D01*
X171872320Y-86897337D01*
X172085000Y-86383881D01*
X172085000Y-85828119D01*
X171872320Y-85314663D01*
X171479337Y-84921680D01*
X171272487Y-84836000D01*
X171479337Y-84750320D01*
X171872320Y-84357337D01*
X172085000Y-83843881D01*
X172085000Y-83288119D01*
X171872320Y-82774663D01*
X171479337Y-82381680D01*
X171272487Y-82296000D01*
X171479337Y-82210320D01*
X171872320Y-81817337D01*
X172085000Y-81303881D01*
X172085000Y-80748119D01*
X171872320Y-80234663D01*
X171479337Y-79841680D01*
X170965881Y-79629000D01*
X170410119Y-79629000D01*
X169896663Y-79841680D01*
X169503680Y-80234663D01*
X169291000Y-80748119D01*
X165467723Y-80748119D01*
X165551847Y-80545027D01*
X165551847Y-80381783D01*
X166647063Y-79286567D01*
X176964000Y-79286567D01*
X176964000Y-80225433D01*
X177323289Y-81092833D01*
X177987167Y-81756711D01*
X178854567Y-82116000D01*
X179793433Y-82116000D01*
X180660833Y-81756711D01*
X181324711Y-81092833D01*
X181684000Y-80225433D01*
X181684000Y-79286567D01*
X181324711Y-78419167D01*
X180660833Y-77755289D01*
X179793433Y-77396000D01*
X178854567Y-77396000D01*
X177987167Y-77755289D01*
X177323289Y-78419167D01*
X176964000Y-79286567D01*
X166647063Y-79286567D01*
X168125750Y-77807881D01*
X168189371Y-77765371D01*
X168273062Y-77640119D01*
X168357787Y-77513319D01*
X168357787Y-77513318D01*
X168357788Y-77513317D01*
X168402000Y-77291048D01*
X168402000Y-77291044D01*
X168416927Y-77216001D01*
X168402000Y-77140958D01*
X168402000Y-69027711D01*
X168517431Y-68912280D01*
X168675000Y-68531874D01*
X168675000Y-68120126D01*
X168517431Y-67739720D01*
X168226280Y-67448569D01*
X167845874Y-67291000D01*
X167434126Y-67291000D01*
X167053720Y-67448569D01*
X166762569Y-67739720D01*
X166605000Y-68120126D01*
X166605000Y-68531874D01*
X166762569Y-68912280D01*
X166878001Y-69027712D01*
X166878000Y-76900369D01*
X165724380Y-78053990D01*
X165881000Y-77675874D01*
X165881000Y-77264126D01*
X165723431Y-76883720D01*
X165432280Y-76592569D01*
X165051874Y-76435000D01*
X164640126Y-76435000D01*
X164259720Y-76592569D01*
X163968569Y-76883720D01*
X163811000Y-77264126D01*
X163811000Y-77427370D01*
X162074253Y-79164117D01*
X162010629Y-79206629D01*
X162008179Y-79210296D01*
X161973720Y-79224569D01*
X161682569Y-79515720D01*
X161525000Y-79896126D01*
X124154000Y-79896126D01*
X124154000Y-73402623D01*
X124461518Y-73530001D01*
X125016484Y-73530001D01*
X125529205Y-73317625D01*
X125921625Y-72925205D01*
X126009001Y-72714261D01*
X126096377Y-72925205D01*
X126488797Y-73317625D01*
X127001518Y-73530001D01*
X127556484Y-73530001D01*
X128069205Y-73317625D01*
X128461625Y-72925205D01*
X128549001Y-72714261D01*
X128636377Y-72925205D01*
X129028797Y-73317625D01*
X129541518Y-73530001D01*
X130096484Y-73530001D01*
X130609205Y-73317625D01*
X131001625Y-72925205D01*
X131089001Y-72714261D01*
X131176377Y-72925205D01*
X131568797Y-73317625D01*
X132081518Y-73530001D01*
X132636484Y-73530001D01*
X133149205Y-73317625D01*
X133541625Y-72925205D01*
X133629001Y-72714261D01*
X133716377Y-72925205D01*
X134108797Y-73317625D01*
X134621518Y-73530001D01*
X135176484Y-73530001D01*
X135689205Y-73317625D01*
X136081625Y-72925205D01*
X136169001Y-72714261D01*
X136256377Y-72925205D01*
X136648797Y-73317625D01*
X137161518Y-73530001D01*
X137716484Y-73530001D01*
X138229205Y-73317625D01*
X138621625Y-72925205D01*
X138709001Y-72714261D01*
X138796377Y-72925205D01*
X139188797Y-73317625D01*
X139701518Y-73530001D01*
X140256484Y-73530001D01*
X140769205Y-73317625D01*
X141161625Y-72925205D01*
X141249001Y-72714261D01*
X141336377Y-72925205D01*
X141728797Y-73317625D01*
X142241518Y-73530001D01*
X142796484Y-73530001D01*
X143309205Y-73317625D01*
X143701625Y-72925205D01*
X143789001Y-72714261D01*
X143876377Y-72925205D01*
X144268797Y-73317625D01*
X144781518Y-73530001D01*
X145336484Y-73530001D01*
X145849205Y-73317625D01*
X146241625Y-72925205D01*
X146329001Y-72714261D01*
X146416377Y-72925205D01*
X146808797Y-73317625D01*
X147321518Y-73530001D01*
X147876484Y-73530001D01*
X148389205Y-73317625D01*
X148781625Y-72925205D01*
X148994001Y-72412484D01*
X148994001Y-71857518D01*
X148781625Y-71344797D01*
X148389205Y-70952377D01*
X148178261Y-70865001D01*
X148389205Y-70777625D01*
X148781625Y-70385205D01*
X148994001Y-69872484D01*
X148994001Y-69317518D01*
X148781625Y-68804797D01*
X148389205Y-68412377D01*
X147876484Y-68200001D01*
X147321518Y-68200001D01*
X146808797Y-68412377D01*
X146416377Y-68804797D01*
X146329001Y-69015741D01*
X146241625Y-68804797D01*
X145849205Y-68412377D01*
X145336484Y-68200001D01*
X144781518Y-68200001D01*
X144268797Y-68412377D01*
X143876377Y-68804797D01*
X143789001Y-69015741D01*
X143701625Y-68804797D01*
X143309205Y-68412377D01*
X142796484Y-68200001D01*
X142241518Y-68200001D01*
X141728797Y-68412377D01*
X141336377Y-68804797D01*
X141249001Y-69015741D01*
X141161625Y-68804797D01*
X140769205Y-68412377D01*
X140256484Y-68200001D01*
X139701518Y-68200001D01*
X139188797Y-68412377D01*
X138796377Y-68804797D01*
X138709001Y-69015741D01*
X138621625Y-68804797D01*
X138229205Y-68412377D01*
X137716484Y-68200001D01*
X137161518Y-68200001D01*
X136648797Y-68412377D01*
X136256377Y-68804797D01*
X136169001Y-69015741D01*
X136081625Y-68804797D01*
X135689205Y-68412377D01*
X135176484Y-68200001D01*
X134621518Y-68200001D01*
X134108797Y-68412377D01*
X133716377Y-68804797D01*
X133629001Y-69015741D01*
X133541625Y-68804797D01*
X133149205Y-68412377D01*
X132636484Y-68200001D01*
X132081518Y-68200001D01*
X131568797Y-68412377D01*
X131176377Y-68804797D01*
X131089001Y-69015741D01*
X131001625Y-68804797D01*
X130609205Y-68412377D01*
X130096484Y-68200001D01*
X129541518Y-68200001D01*
X129028797Y-68412377D01*
X128636377Y-68804797D01*
X128549001Y-69015741D01*
X128461625Y-68804797D01*
X128069205Y-68412377D01*
X127556484Y-68200001D01*
X127001518Y-68200001D01*
X126488797Y-68412377D01*
X126096377Y-68804797D01*
X126009001Y-69015741D01*
X125921625Y-68804797D01*
X125529205Y-68412377D01*
X125016484Y-68200001D01*
X124461518Y-68200001D01*
X124154000Y-68327379D01*
X124154000Y-58805453D01*
X129946400Y-58805453D01*
X129946400Y-60068547D01*
X130429765Y-61235493D01*
X131322907Y-62128635D01*
X132489853Y-62612000D01*
X133752947Y-62612000D01*
X134919893Y-62128635D01*
X135813035Y-61235493D01*
X136296400Y-60068547D01*
X136296400Y-58805453D01*
X136021638Y-58142119D01*
X159893000Y-58142119D01*
X159893000Y-58697881D01*
X160105680Y-59211337D01*
X160498663Y-59604320D01*
X161012119Y-59817000D01*
X161567881Y-59817000D01*
X162081337Y-59604320D01*
X162474320Y-59211337D01*
X162560000Y-59004487D01*
X162645680Y-59211337D01*
X163038663Y-59604320D01*
X163552119Y-59817000D01*
X164107881Y-59817000D01*
X164621337Y-59604320D01*
X165014320Y-59211337D01*
X165227000Y-58697881D01*
X165227000Y-58142119D01*
X165014320Y-57628663D01*
X164765776Y-57380119D01*
X169291000Y-57380119D01*
X169291000Y-57935881D01*
X169503680Y-58449337D01*
X169896663Y-58842320D01*
X170103513Y-58928000D01*
X169896663Y-59013680D01*
X169503680Y-59406663D01*
X169291000Y-59920119D01*
X169291000Y-60475881D01*
X169503680Y-60989337D01*
X169896663Y-61382320D01*
X170103513Y-61468000D01*
X169896663Y-61553680D01*
X169503680Y-61946663D01*
X169291000Y-62460119D01*
X169291000Y-63015881D01*
X169503680Y-63529337D01*
X169896663Y-63922320D01*
X170103513Y-64008000D01*
X169896663Y-64093680D01*
X169503680Y-64486663D01*
X169291000Y-65000119D01*
X169291000Y-65555881D01*
X169503680Y-66069337D01*
X169896663Y-66462320D01*
X170103513Y-66548000D01*
X169896663Y-66633680D01*
X169503680Y-67026663D01*
X169291000Y-67540119D01*
X169291000Y-68095881D01*
X169503680Y-68609337D01*
X169896663Y-69002320D01*
X170410119Y-69215000D01*
X170965881Y-69215000D01*
X171479337Y-69002320D01*
X171863090Y-68618567D01*
X176964000Y-68618567D01*
X176964000Y-69557433D01*
X177323289Y-70424833D01*
X177987167Y-71088711D01*
X178854567Y-71448000D01*
X179793433Y-71448000D01*
X180660833Y-71088711D01*
X181324711Y-70424833D01*
X181684000Y-69557433D01*
X181684000Y-68618567D01*
X181324711Y-67751167D01*
X180660833Y-67087289D01*
X179793433Y-66728000D01*
X178854567Y-66728000D01*
X177987167Y-67087289D01*
X177323289Y-67751167D01*
X176964000Y-68618567D01*
X171863090Y-68618567D01*
X171872320Y-68609337D01*
X172085000Y-68095881D01*
X172085000Y-67540119D01*
X171872320Y-67026663D01*
X171479337Y-66633680D01*
X171272487Y-66548000D01*
X171479337Y-66462320D01*
X171872320Y-66069337D01*
X172085000Y-65555881D01*
X172085000Y-65000119D01*
X171953524Y-64682708D01*
X171911903Y-64473464D01*
X171743928Y-64222072D01*
X171492536Y-64054097D01*
X171283292Y-64012476D01*
X171272487Y-64008000D01*
X171479337Y-63922320D01*
X171872320Y-63529337D01*
X172085000Y-63015881D01*
X172085000Y-62460119D01*
X171872320Y-61946663D01*
X171479337Y-61553680D01*
X171272487Y-61468000D01*
X171479337Y-61382320D01*
X171872320Y-60989337D01*
X172085000Y-60475881D01*
X172085000Y-59920119D01*
X171872320Y-59406663D01*
X171479337Y-59013680D01*
X171272487Y-58928000D01*
X171479337Y-58842320D01*
X171872320Y-58449337D01*
X172085000Y-57935881D01*
X172085000Y-57380119D01*
X171872320Y-56866663D01*
X171479337Y-56473680D01*
X170965881Y-56261000D01*
X170410119Y-56261000D01*
X169896663Y-56473680D01*
X169503680Y-56866663D01*
X169291000Y-57380119D01*
X164765776Y-57380119D01*
X164621337Y-57235680D01*
X164107881Y-57023000D01*
X163552119Y-57023000D01*
X163038663Y-57235680D01*
X162645680Y-57628663D01*
X162560000Y-57835513D01*
X162474320Y-57628663D01*
X162081337Y-57235680D01*
X161567881Y-57023000D01*
X161012119Y-57023000D01*
X160498663Y-57235680D01*
X160105680Y-57628663D01*
X159893000Y-58142119D01*
X136021638Y-58142119D01*
X135813035Y-57638507D01*
X134919893Y-56745365D01*
X133752947Y-56262000D01*
X132489853Y-56262000D01*
X131322907Y-56745365D01*
X130429765Y-57638507D01*
X129946400Y-58805453D01*
X124154000Y-58805453D01*
X124154000Y-55918567D01*
X176964000Y-55918567D01*
X176964000Y-56857433D01*
X177323289Y-57724833D01*
X177987167Y-58388711D01*
X178854567Y-58748000D01*
X179793433Y-58748000D01*
X180660833Y-58388711D01*
X181324711Y-57724833D01*
X181684000Y-56857433D01*
X181684000Y-55918567D01*
X181324711Y-55051167D01*
X180660833Y-54387289D01*
X179793433Y-54028000D01*
X178854567Y-54028000D01*
X177987167Y-54387289D01*
X177323289Y-55051167D01*
X176964000Y-55918567D01*
X124154000Y-55918567D01*
X124154000Y-50804453D01*
X129946400Y-50804453D01*
X129946400Y-52067547D01*
X130429765Y-53234493D01*
X131322907Y-54127635D01*
X132489853Y-54611000D01*
X133752947Y-54611000D01*
X134919893Y-54127635D01*
X135813035Y-53234493D01*
X136296400Y-52067547D01*
X136296400Y-50804453D01*
X135813035Y-49637507D01*
X134919893Y-48744365D01*
X133752947Y-48261000D01*
X132489853Y-48261000D01*
X131322907Y-48744365D01*
X130429765Y-49637507D01*
X129946400Y-50804453D01*
X124154000Y-50804453D01*
X124154000Y-42620000D01*
X183694001Y-42620000D01*
X183694000Y-94183419D01*
G04 #@! TD*
M02*
