G04 #@! TF.GenerationSoftware,KiCad,Pcbnew,(5.0.0)*
G04 #@! TF.CreationDate,2018-10-03T21:46:57-05:00*
G04 #@! TF.ProjectId,2018Training,32303138547261696E696E672E6B6963,rev?*
G04 #@! TF.SameCoordinates,Original*
G04 #@! TF.FileFunction,Copper,L1,Top,Signal*
G04 #@! TF.FilePolarity,Positive*
%FSLAX46Y46*%
G04 Gerber Fmt 4.6, Leading zero omitted, Abs format (unit mm)*
G04 Created by KiCad (PCBNEW (5.0.0)) date 10/03/18 21:46:57*
%MOMM*%
%LPD*%
G01*
G04 APERTURE LIST*
G04 #@! TA.AperFunction,SMDPad,CuDef*
%ADD10R,1.500000X0.600000*%
G04 #@! TD*
G04 #@! TA.AperFunction,ComponentPad*
%ADD11C,1.524000*%
G04 #@! TD*
G04 #@! TA.AperFunction,Conductor*
%ADD12C,0.100000*%
G04 #@! TD*
G04 #@! TA.AperFunction,SMDPad,CuDef*
%ADD13C,0.950000*%
G04 #@! TD*
G04 #@! TA.AperFunction,ComponentPad*
%ADD14C,5.080000*%
G04 #@! TD*
G04 #@! TA.AperFunction,ComponentPad*
%ADD15C,1.520000*%
G04 #@! TD*
G04 #@! TA.AperFunction,ViaPad*
%ADD16C,0.800000*%
G04 #@! TD*
G04 #@! TA.AperFunction,Conductor*
%ADD17C,0.254000*%
G04 #@! TD*
G04 #@! TA.AperFunction,Conductor*
%ADD18C,0.250000*%
G04 #@! TD*
G04 APERTURE END LIST*
D10*
G04 #@! TO.P,U3,1*
G04 #@! TO.N,Net-(C5-Pad1)*
X154940000Y-78105000D03*
G04 #@! TO.P,U3,2*
G04 #@! TO.N,Net-(C3-Pad2)*
X154940000Y-79375000D03*
G04 #@! TO.P,U3,3*
G04 #@! TO.N,Net-(C5-Pad2)*
X154940000Y-80645000D03*
G04 #@! TO.P,U3,4*
G04 #@! TO.N,Net-(C6-Pad1)*
X154940000Y-81915000D03*
G04 #@! TO.P,U3,5*
G04 #@! TO.N,Net-(C6-Pad2)*
X154940000Y-83185000D03*
G04 #@! TO.P,U3,6*
G04 #@! TO.N,Net-(C4-Pad2)*
X154940000Y-84455000D03*
G04 #@! TO.P,U3,7*
G04 #@! TO.N,Net-(Conn3-Pad4)*
X154940000Y-85725000D03*
G04 #@! TO.P,U3,8*
G04 #@! TO.N,Net-(Conn3-Pad5)*
X154940000Y-86995000D03*
G04 #@! TO.P,U3,9*
G04 #@! TO.N,/Serial4*
X160340000Y-86995000D03*
G04 #@! TO.P,U3,10*
G04 #@! TO.N,Net-(U1-PadPK1)*
X160340000Y-85725000D03*
G04 #@! TO.P,U3,11*
G04 #@! TO.N,Net-(U1-PadPC5)*
X160340000Y-84455000D03*
G04 #@! TO.P,U3,12*
G04 #@! TO.N,/Serial6*
X160340000Y-83185000D03*
G04 #@! TO.P,U3,13*
G04 #@! TO.N,Net-(Conn2-Pad4)*
X160340000Y-81915000D03*
G04 #@! TO.P,U3,14*
G04 #@! TO.N,Net-(Conn2-Pad5)*
X160340000Y-80645000D03*
G04 #@! TO.P,U3,15*
G04 #@! TO.N,Net-(C1-Pad2)*
X160340000Y-79375000D03*
G04 #@! TO.P,U3,16*
G04 #@! TO.N,Net-(C2-Pad1)*
X160340000Y-78105000D03*
G04 #@! TD*
D11*
G04 #@! TO.P,Conn3,5*
G04 #@! TO.N,Net-(Conn3-Pad5)*
X170688000Y-91186000D03*
G04 #@! TO.P,Conn3,4*
G04 #@! TO.N,Net-(Conn3-Pad4)*
X170688000Y-88646000D03*
G04 #@! TO.P,Conn3,3*
G04 #@! TO.N,Net-(C1-Pad2)*
X170688000Y-86106000D03*
G04 #@! TO.P,Conn3,2*
G04 #@! TO.N,Net-(Conn3-Pad2)*
X170688000Y-83566000D03*
G04 #@! TO.P,Conn3,1*
G04 #@! TO.N,Net-(Conn3-Pad1)*
X170688000Y-81026000D03*
G04 #@! TD*
D12*
G04 #@! TO.N,Net-(C5-Pad1)*
G04 #@! TO.C,C5*
G36*
X136990779Y-77758144D02*
X137013834Y-77761563D01*
X137036443Y-77767227D01*
X137058387Y-77775079D01*
X137079457Y-77785044D01*
X137099448Y-77797026D01*
X137118168Y-77810910D01*
X137135438Y-77826562D01*
X137151090Y-77843832D01*
X137164974Y-77862552D01*
X137176956Y-77882543D01*
X137186921Y-77903613D01*
X137194773Y-77925557D01*
X137200437Y-77948166D01*
X137203856Y-77971221D01*
X137205000Y-77994500D01*
X137205000Y-78469500D01*
X137203856Y-78492779D01*
X137200437Y-78515834D01*
X137194773Y-78538443D01*
X137186921Y-78560387D01*
X137176956Y-78581457D01*
X137164974Y-78601448D01*
X137151090Y-78620168D01*
X137135438Y-78637438D01*
X137118168Y-78653090D01*
X137099448Y-78666974D01*
X137079457Y-78678956D01*
X137058387Y-78688921D01*
X137036443Y-78696773D01*
X137013834Y-78702437D01*
X136990779Y-78705856D01*
X136967500Y-78707000D01*
X136392500Y-78707000D01*
X136369221Y-78705856D01*
X136346166Y-78702437D01*
X136323557Y-78696773D01*
X136301613Y-78688921D01*
X136280543Y-78678956D01*
X136260552Y-78666974D01*
X136241832Y-78653090D01*
X136224562Y-78637438D01*
X136208910Y-78620168D01*
X136195026Y-78601448D01*
X136183044Y-78581457D01*
X136173079Y-78560387D01*
X136165227Y-78538443D01*
X136159563Y-78515834D01*
X136156144Y-78492779D01*
X136155000Y-78469500D01*
X136155000Y-77994500D01*
X136156144Y-77971221D01*
X136159563Y-77948166D01*
X136165227Y-77925557D01*
X136173079Y-77903613D01*
X136183044Y-77882543D01*
X136195026Y-77862552D01*
X136208910Y-77843832D01*
X136224562Y-77826562D01*
X136241832Y-77810910D01*
X136260552Y-77797026D01*
X136280543Y-77785044D01*
X136301613Y-77775079D01*
X136323557Y-77767227D01*
X136346166Y-77761563D01*
X136369221Y-77758144D01*
X136392500Y-77757000D01*
X136967500Y-77757000D01*
X136990779Y-77758144D01*
X136990779Y-77758144D01*
G37*
D13*
G04 #@! TD*
G04 #@! TO.P,C5,1*
G04 #@! TO.N,Net-(C5-Pad1)*
X136680000Y-78232000D03*
D12*
G04 #@! TO.N,Net-(C5-Pad2)*
G04 #@! TO.C,C5*
G36*
X138740779Y-77758144D02*
X138763834Y-77761563D01*
X138786443Y-77767227D01*
X138808387Y-77775079D01*
X138829457Y-77785044D01*
X138849448Y-77797026D01*
X138868168Y-77810910D01*
X138885438Y-77826562D01*
X138901090Y-77843832D01*
X138914974Y-77862552D01*
X138926956Y-77882543D01*
X138936921Y-77903613D01*
X138944773Y-77925557D01*
X138950437Y-77948166D01*
X138953856Y-77971221D01*
X138955000Y-77994500D01*
X138955000Y-78469500D01*
X138953856Y-78492779D01*
X138950437Y-78515834D01*
X138944773Y-78538443D01*
X138936921Y-78560387D01*
X138926956Y-78581457D01*
X138914974Y-78601448D01*
X138901090Y-78620168D01*
X138885438Y-78637438D01*
X138868168Y-78653090D01*
X138849448Y-78666974D01*
X138829457Y-78678956D01*
X138808387Y-78688921D01*
X138786443Y-78696773D01*
X138763834Y-78702437D01*
X138740779Y-78705856D01*
X138717500Y-78707000D01*
X138142500Y-78707000D01*
X138119221Y-78705856D01*
X138096166Y-78702437D01*
X138073557Y-78696773D01*
X138051613Y-78688921D01*
X138030543Y-78678956D01*
X138010552Y-78666974D01*
X137991832Y-78653090D01*
X137974562Y-78637438D01*
X137958910Y-78620168D01*
X137945026Y-78601448D01*
X137933044Y-78581457D01*
X137923079Y-78560387D01*
X137915227Y-78538443D01*
X137909563Y-78515834D01*
X137906144Y-78492779D01*
X137905000Y-78469500D01*
X137905000Y-77994500D01*
X137906144Y-77971221D01*
X137909563Y-77948166D01*
X137915227Y-77925557D01*
X137923079Y-77903613D01*
X137933044Y-77882543D01*
X137945026Y-77862552D01*
X137958910Y-77843832D01*
X137974562Y-77826562D01*
X137991832Y-77810910D01*
X138010552Y-77797026D01*
X138030543Y-77785044D01*
X138051613Y-77775079D01*
X138073557Y-77767227D01*
X138096166Y-77761563D01*
X138119221Y-77758144D01*
X138142500Y-77757000D01*
X138717500Y-77757000D01*
X138740779Y-77758144D01*
X138740779Y-77758144D01*
G37*
D13*
G04 #@! TD*
G04 #@! TO.P,C5,2*
G04 #@! TO.N,Net-(C5-Pad2)*
X138430000Y-78232000D03*
D11*
G04 #@! TO.P,Conn2,1*
G04 #@! TO.N,Net-(Conn2-Pad1)*
X170688000Y-57658000D03*
G04 #@! TO.P,Conn2,2*
G04 #@! TO.N,Net-(Conn2-Pad2)*
X170688000Y-60198000D03*
G04 #@! TO.P,Conn2,3*
G04 #@! TO.N,Net-(C1-Pad2)*
X170688000Y-62738000D03*
G04 #@! TO.P,Conn2,4*
G04 #@! TO.N,Net-(Conn2-Pad4)*
X170688000Y-65278000D03*
G04 #@! TO.P,Conn2,5*
G04 #@! TO.N,Net-(Conn2-Pad5)*
X170688000Y-67818000D03*
G04 #@! TD*
D14*
G04 #@! TO.P,Conn1,1*
G04 #@! TO.N,Net-(C1-Pad2)*
X133121400Y-59437000D03*
G04 #@! TO.P,Conn1,2*
G04 #@! TO.N,Net-(C1-Pad1)*
X133121400Y-51436000D03*
G04 #@! TD*
D15*
G04 #@! TO.P,U1,+3V3*
G04 #@! TO.N,Net-(U1-Pad+3V3)*
X124739001Y-115315001D03*
G04 #@! TO.P,U1,PM6*
G04 #@! TO.N,N/C*
X147599001Y-69595001D03*
G04 #@! TO.P,U1,PQ1*
X145059001Y-69595001D03*
G04 #@! TO.P,U1,PQ2*
X137439001Y-69595001D03*
G04 #@! TO.P,U1,PK0*
G04 #@! TO.N,/Serial4*
X134899001Y-112775001D03*
G04 #@! TO.P,U1,PQ3*
G04 #@! TO.N,N/C*
X139979001Y-69595001D03*
G04 #@! TO.P,U1,PP3*
X142519001Y-69595001D03*
G04 #@! TO.P,U1,PQ0*
X139979001Y-115315001D03*
G04 #@! TO.P,U1,PA4*
G04 #@! TO.N,Net-(U1-PadPA4)*
X145059001Y-112775001D03*
G04 #@! TO.P,U1,Rese*
G04 #@! TO.N,N/C*
X134899001Y-69595001D03*
G04 #@! TO.P,U1,PA7*
X132359001Y-69595001D03*
G04 #@! TO.P,U1,PN5*
X145059001Y-115315001D03*
G04 #@! TO.P,U1,PK2*
G04 #@! TO.N,Net-(U1-PadPK2)*
X139979001Y-112775001D03*
G04 #@! TO.P,U1,PK1*
G04 #@! TO.N,Net-(U1-PadPK1)*
X137439001Y-112775001D03*
G04 #@! TO.P,U1,+5V*
G04 #@! TO.N,Net-(C2-Pad1)*
X124739001Y-112775001D03*
G04 #@! TO.P,U1,GND*
G04 #@! TO.N,Net-(U1-PadGND)*
X127279001Y-112775001D03*
G04 #@! TO.P,U1,PB4*
G04 #@! TO.N,Net-(U1-PadPB4)*
X129819001Y-112775001D03*
G04 #@! TO.P,U1,PB5*
G04 #@! TO.N,Net-(U1-PadPB5)*
X132359001Y-112775001D03*
G04 #@! TO.P,U1,PK3*
G04 #@! TO.N,Net-(U1-PadPK3)*
X142519001Y-112775001D03*
G04 #@! TO.P,U1,PA5*
G04 #@! TO.N,Net-(U1-PadPA5)*
X147599001Y-112775001D03*
G04 #@! TO.P,U1,PD2*
G04 #@! TO.N,N/C*
X127279001Y-115315001D03*
G04 #@! TO.P,U1,PP0*
X129819001Y-115315001D03*
G04 #@! TO.P,U1,PP1*
X132359001Y-115315001D03*
G04 #@! TO.P,U1,PD4*
X134899001Y-115315001D03*
G04 #@! TO.P,U1,PD5*
X137439001Y-115315001D03*
G04 #@! TO.P,U1,PP4*
X142519001Y-115315001D03*
G04 #@! TO.P,U1,PN4*
X147599001Y-115315001D03*
G04 #@! TO.P,U1,PG1*
X124739001Y-72135001D03*
G04 #@! TO.P,U1,PK4*
X127279001Y-72135001D03*
G04 #@! TO.P,U1,PK5*
X129819001Y-72135001D03*
G04 #@! TO.P,U1,PM0*
X132359001Y-72135001D03*
G04 #@! TO.P,U1,PM1*
X134899001Y-72135001D03*
G04 #@! TO.P,U1,PM2*
X137439001Y-72135001D03*
G04 #@! TO.P,U1,PH0*
X139979001Y-72135001D03*
G04 #@! TO.P,U1,PH1*
X142519001Y-72135001D03*
G04 #@! TO.P,U1,PK6*
X145059001Y-72135001D03*
G04 #@! TO.P,U1,PK7*
X147599001Y-72135001D03*
G04 #@! TO.P,U1,GND*
G04 #@! TO.N,Net-(U1-PadGND)*
X124739001Y-69595001D03*
G04 #@! TO.P,U1,PM7*
G04 #@! TO.N,N/C*
X127279001Y-69595001D03*
G04 #@! TO.P,U1,PP5*
X129819001Y-69595001D03*
G04 #@! TD*
D11*
G04 #@! TO.P,U2,1*
G04 #@! TO.N,Net-(C1-Pad1)*
X163830000Y-58420000D03*
G04 #@! TO.P,U2,2*
G04 #@! TO.N,Net-(C1-Pad2)*
X161290000Y-58420000D03*
G04 #@! TO.P,U2,3*
G04 #@! TO.N,Net-(C2-Pad1)*
X158750000Y-58420000D03*
G04 #@! TD*
D12*
G04 #@! TO.N,Net-(C1-Pad1)*
G04 #@! TO.C,C1*
G36*
X142183779Y-54898144D02*
X142206834Y-54901563D01*
X142229443Y-54907227D01*
X142251387Y-54915079D01*
X142272457Y-54925044D01*
X142292448Y-54937026D01*
X142311168Y-54950910D01*
X142328438Y-54966562D01*
X142344090Y-54983832D01*
X142357974Y-55002552D01*
X142369956Y-55022543D01*
X142379921Y-55043613D01*
X142387773Y-55065557D01*
X142393437Y-55088166D01*
X142396856Y-55111221D01*
X142398000Y-55134500D01*
X142398000Y-55609500D01*
X142396856Y-55632779D01*
X142393437Y-55655834D01*
X142387773Y-55678443D01*
X142379921Y-55700387D01*
X142369956Y-55721457D01*
X142357974Y-55741448D01*
X142344090Y-55760168D01*
X142328438Y-55777438D01*
X142311168Y-55793090D01*
X142292448Y-55806974D01*
X142272457Y-55818956D01*
X142251387Y-55828921D01*
X142229443Y-55836773D01*
X142206834Y-55842437D01*
X142183779Y-55845856D01*
X142160500Y-55847000D01*
X141585500Y-55847000D01*
X141562221Y-55845856D01*
X141539166Y-55842437D01*
X141516557Y-55836773D01*
X141494613Y-55828921D01*
X141473543Y-55818956D01*
X141453552Y-55806974D01*
X141434832Y-55793090D01*
X141417562Y-55777438D01*
X141401910Y-55760168D01*
X141388026Y-55741448D01*
X141376044Y-55721457D01*
X141366079Y-55700387D01*
X141358227Y-55678443D01*
X141352563Y-55655834D01*
X141349144Y-55632779D01*
X141348000Y-55609500D01*
X141348000Y-55134500D01*
X141349144Y-55111221D01*
X141352563Y-55088166D01*
X141358227Y-55065557D01*
X141366079Y-55043613D01*
X141376044Y-55022543D01*
X141388026Y-55002552D01*
X141401910Y-54983832D01*
X141417562Y-54966562D01*
X141434832Y-54950910D01*
X141453552Y-54937026D01*
X141473543Y-54925044D01*
X141494613Y-54915079D01*
X141516557Y-54907227D01*
X141539166Y-54901563D01*
X141562221Y-54898144D01*
X141585500Y-54897000D01*
X142160500Y-54897000D01*
X142183779Y-54898144D01*
X142183779Y-54898144D01*
G37*
D13*
G04 #@! TD*
G04 #@! TO.P,C1,1*
G04 #@! TO.N,Net-(C1-Pad1)*
X141873000Y-55372000D03*
D12*
G04 #@! TO.N,Net-(C1-Pad2)*
G04 #@! TO.C,C1*
G36*
X143933779Y-54898144D02*
X143956834Y-54901563D01*
X143979443Y-54907227D01*
X144001387Y-54915079D01*
X144022457Y-54925044D01*
X144042448Y-54937026D01*
X144061168Y-54950910D01*
X144078438Y-54966562D01*
X144094090Y-54983832D01*
X144107974Y-55002552D01*
X144119956Y-55022543D01*
X144129921Y-55043613D01*
X144137773Y-55065557D01*
X144143437Y-55088166D01*
X144146856Y-55111221D01*
X144148000Y-55134500D01*
X144148000Y-55609500D01*
X144146856Y-55632779D01*
X144143437Y-55655834D01*
X144137773Y-55678443D01*
X144129921Y-55700387D01*
X144119956Y-55721457D01*
X144107974Y-55741448D01*
X144094090Y-55760168D01*
X144078438Y-55777438D01*
X144061168Y-55793090D01*
X144042448Y-55806974D01*
X144022457Y-55818956D01*
X144001387Y-55828921D01*
X143979443Y-55836773D01*
X143956834Y-55842437D01*
X143933779Y-55845856D01*
X143910500Y-55847000D01*
X143335500Y-55847000D01*
X143312221Y-55845856D01*
X143289166Y-55842437D01*
X143266557Y-55836773D01*
X143244613Y-55828921D01*
X143223543Y-55818956D01*
X143203552Y-55806974D01*
X143184832Y-55793090D01*
X143167562Y-55777438D01*
X143151910Y-55760168D01*
X143138026Y-55741448D01*
X143126044Y-55721457D01*
X143116079Y-55700387D01*
X143108227Y-55678443D01*
X143102563Y-55655834D01*
X143099144Y-55632779D01*
X143098000Y-55609500D01*
X143098000Y-55134500D01*
X143099144Y-55111221D01*
X143102563Y-55088166D01*
X143108227Y-55065557D01*
X143116079Y-55043613D01*
X143126044Y-55022543D01*
X143138026Y-55002552D01*
X143151910Y-54983832D01*
X143167562Y-54966562D01*
X143184832Y-54950910D01*
X143203552Y-54937026D01*
X143223543Y-54925044D01*
X143244613Y-54915079D01*
X143266557Y-54907227D01*
X143289166Y-54901563D01*
X143312221Y-54898144D01*
X143335500Y-54897000D01*
X143910500Y-54897000D01*
X143933779Y-54898144D01*
X143933779Y-54898144D01*
G37*
D13*
G04 #@! TD*
G04 #@! TO.P,C1,2*
G04 #@! TO.N,Net-(C1-Pad2)*
X143623000Y-55372000D03*
D12*
G04 #@! TO.N,Net-(C1-Pad2)*
G04 #@! TO.C,C2*
G36*
X141901779Y-61756144D02*
X141924834Y-61759563D01*
X141947443Y-61765227D01*
X141969387Y-61773079D01*
X141990457Y-61783044D01*
X142010448Y-61795026D01*
X142029168Y-61808910D01*
X142046438Y-61824562D01*
X142062090Y-61841832D01*
X142075974Y-61860552D01*
X142087956Y-61880543D01*
X142097921Y-61901613D01*
X142105773Y-61923557D01*
X142111437Y-61946166D01*
X142114856Y-61969221D01*
X142116000Y-61992500D01*
X142116000Y-62467500D01*
X142114856Y-62490779D01*
X142111437Y-62513834D01*
X142105773Y-62536443D01*
X142097921Y-62558387D01*
X142087956Y-62579457D01*
X142075974Y-62599448D01*
X142062090Y-62618168D01*
X142046438Y-62635438D01*
X142029168Y-62651090D01*
X142010448Y-62664974D01*
X141990457Y-62676956D01*
X141969387Y-62686921D01*
X141947443Y-62694773D01*
X141924834Y-62700437D01*
X141901779Y-62703856D01*
X141878500Y-62705000D01*
X141303500Y-62705000D01*
X141280221Y-62703856D01*
X141257166Y-62700437D01*
X141234557Y-62694773D01*
X141212613Y-62686921D01*
X141191543Y-62676956D01*
X141171552Y-62664974D01*
X141152832Y-62651090D01*
X141135562Y-62635438D01*
X141119910Y-62618168D01*
X141106026Y-62599448D01*
X141094044Y-62579457D01*
X141084079Y-62558387D01*
X141076227Y-62536443D01*
X141070563Y-62513834D01*
X141067144Y-62490779D01*
X141066000Y-62467500D01*
X141066000Y-61992500D01*
X141067144Y-61969221D01*
X141070563Y-61946166D01*
X141076227Y-61923557D01*
X141084079Y-61901613D01*
X141094044Y-61880543D01*
X141106026Y-61860552D01*
X141119910Y-61841832D01*
X141135562Y-61824562D01*
X141152832Y-61808910D01*
X141171552Y-61795026D01*
X141191543Y-61783044D01*
X141212613Y-61773079D01*
X141234557Y-61765227D01*
X141257166Y-61759563D01*
X141280221Y-61756144D01*
X141303500Y-61755000D01*
X141878500Y-61755000D01*
X141901779Y-61756144D01*
X141901779Y-61756144D01*
G37*
D13*
G04 #@! TD*
G04 #@! TO.P,C2,2*
G04 #@! TO.N,Net-(C1-Pad2)*
X141591000Y-62230000D03*
D12*
G04 #@! TO.N,Net-(C2-Pad1)*
G04 #@! TO.C,C2*
G36*
X140151779Y-61756144D02*
X140174834Y-61759563D01*
X140197443Y-61765227D01*
X140219387Y-61773079D01*
X140240457Y-61783044D01*
X140260448Y-61795026D01*
X140279168Y-61808910D01*
X140296438Y-61824562D01*
X140312090Y-61841832D01*
X140325974Y-61860552D01*
X140337956Y-61880543D01*
X140347921Y-61901613D01*
X140355773Y-61923557D01*
X140361437Y-61946166D01*
X140364856Y-61969221D01*
X140366000Y-61992500D01*
X140366000Y-62467500D01*
X140364856Y-62490779D01*
X140361437Y-62513834D01*
X140355773Y-62536443D01*
X140347921Y-62558387D01*
X140337956Y-62579457D01*
X140325974Y-62599448D01*
X140312090Y-62618168D01*
X140296438Y-62635438D01*
X140279168Y-62651090D01*
X140260448Y-62664974D01*
X140240457Y-62676956D01*
X140219387Y-62686921D01*
X140197443Y-62694773D01*
X140174834Y-62700437D01*
X140151779Y-62703856D01*
X140128500Y-62705000D01*
X139553500Y-62705000D01*
X139530221Y-62703856D01*
X139507166Y-62700437D01*
X139484557Y-62694773D01*
X139462613Y-62686921D01*
X139441543Y-62676956D01*
X139421552Y-62664974D01*
X139402832Y-62651090D01*
X139385562Y-62635438D01*
X139369910Y-62618168D01*
X139356026Y-62599448D01*
X139344044Y-62579457D01*
X139334079Y-62558387D01*
X139326227Y-62536443D01*
X139320563Y-62513834D01*
X139317144Y-62490779D01*
X139316000Y-62467500D01*
X139316000Y-61992500D01*
X139317144Y-61969221D01*
X139320563Y-61946166D01*
X139326227Y-61923557D01*
X139334079Y-61901613D01*
X139344044Y-61880543D01*
X139356026Y-61860552D01*
X139369910Y-61841832D01*
X139385562Y-61824562D01*
X139402832Y-61808910D01*
X139421552Y-61795026D01*
X139441543Y-61783044D01*
X139462613Y-61773079D01*
X139484557Y-61765227D01*
X139507166Y-61759563D01*
X139530221Y-61756144D01*
X139553500Y-61755000D01*
X140128500Y-61755000D01*
X140151779Y-61756144D01*
X140151779Y-61756144D01*
G37*
D13*
G04 #@! TD*
G04 #@! TO.P,C2,1*
G04 #@! TO.N,Net-(C2-Pad1)*
X139841000Y-62230000D03*
D12*
G04 #@! TO.N,Net-(C3-Pad2)*
G04 #@! TO.C,C3*
G36*
X149436779Y-66074144D02*
X149459834Y-66077563D01*
X149482443Y-66083227D01*
X149504387Y-66091079D01*
X149525457Y-66101044D01*
X149545448Y-66113026D01*
X149564168Y-66126910D01*
X149581438Y-66142562D01*
X149597090Y-66159832D01*
X149610974Y-66178552D01*
X149622956Y-66198543D01*
X149632921Y-66219613D01*
X149640773Y-66241557D01*
X149646437Y-66264166D01*
X149649856Y-66287221D01*
X149651000Y-66310500D01*
X149651000Y-66785500D01*
X149649856Y-66808779D01*
X149646437Y-66831834D01*
X149640773Y-66854443D01*
X149632921Y-66876387D01*
X149622956Y-66897457D01*
X149610974Y-66917448D01*
X149597090Y-66936168D01*
X149581438Y-66953438D01*
X149564168Y-66969090D01*
X149545448Y-66982974D01*
X149525457Y-66994956D01*
X149504387Y-67004921D01*
X149482443Y-67012773D01*
X149459834Y-67018437D01*
X149436779Y-67021856D01*
X149413500Y-67023000D01*
X148838500Y-67023000D01*
X148815221Y-67021856D01*
X148792166Y-67018437D01*
X148769557Y-67012773D01*
X148747613Y-67004921D01*
X148726543Y-66994956D01*
X148706552Y-66982974D01*
X148687832Y-66969090D01*
X148670562Y-66953438D01*
X148654910Y-66936168D01*
X148641026Y-66917448D01*
X148629044Y-66897457D01*
X148619079Y-66876387D01*
X148611227Y-66854443D01*
X148605563Y-66831834D01*
X148602144Y-66808779D01*
X148601000Y-66785500D01*
X148601000Y-66310500D01*
X148602144Y-66287221D01*
X148605563Y-66264166D01*
X148611227Y-66241557D01*
X148619079Y-66219613D01*
X148629044Y-66198543D01*
X148641026Y-66178552D01*
X148654910Y-66159832D01*
X148670562Y-66142562D01*
X148687832Y-66126910D01*
X148706552Y-66113026D01*
X148726543Y-66101044D01*
X148747613Y-66091079D01*
X148769557Y-66083227D01*
X148792166Y-66077563D01*
X148815221Y-66074144D01*
X148838500Y-66073000D01*
X149413500Y-66073000D01*
X149436779Y-66074144D01*
X149436779Y-66074144D01*
G37*
D13*
G04 #@! TD*
G04 #@! TO.P,C3,2*
G04 #@! TO.N,Net-(C3-Pad2)*
X149126000Y-66548000D03*
D12*
G04 #@! TO.N,Net-(C1-Pad2)*
G04 #@! TO.C,C3*
G36*
X151186779Y-66074144D02*
X151209834Y-66077563D01*
X151232443Y-66083227D01*
X151254387Y-66091079D01*
X151275457Y-66101044D01*
X151295448Y-66113026D01*
X151314168Y-66126910D01*
X151331438Y-66142562D01*
X151347090Y-66159832D01*
X151360974Y-66178552D01*
X151372956Y-66198543D01*
X151382921Y-66219613D01*
X151390773Y-66241557D01*
X151396437Y-66264166D01*
X151399856Y-66287221D01*
X151401000Y-66310500D01*
X151401000Y-66785500D01*
X151399856Y-66808779D01*
X151396437Y-66831834D01*
X151390773Y-66854443D01*
X151382921Y-66876387D01*
X151372956Y-66897457D01*
X151360974Y-66917448D01*
X151347090Y-66936168D01*
X151331438Y-66953438D01*
X151314168Y-66969090D01*
X151295448Y-66982974D01*
X151275457Y-66994956D01*
X151254387Y-67004921D01*
X151232443Y-67012773D01*
X151209834Y-67018437D01*
X151186779Y-67021856D01*
X151163500Y-67023000D01*
X150588500Y-67023000D01*
X150565221Y-67021856D01*
X150542166Y-67018437D01*
X150519557Y-67012773D01*
X150497613Y-67004921D01*
X150476543Y-66994956D01*
X150456552Y-66982974D01*
X150437832Y-66969090D01*
X150420562Y-66953438D01*
X150404910Y-66936168D01*
X150391026Y-66917448D01*
X150379044Y-66897457D01*
X150369079Y-66876387D01*
X150361227Y-66854443D01*
X150355563Y-66831834D01*
X150352144Y-66808779D01*
X150351000Y-66785500D01*
X150351000Y-66310500D01*
X150352144Y-66287221D01*
X150355563Y-66264166D01*
X150361227Y-66241557D01*
X150369079Y-66219613D01*
X150379044Y-66198543D01*
X150391026Y-66178552D01*
X150404910Y-66159832D01*
X150420562Y-66142562D01*
X150437832Y-66126910D01*
X150456552Y-66113026D01*
X150476543Y-66101044D01*
X150497613Y-66091079D01*
X150519557Y-66083227D01*
X150542166Y-66077563D01*
X150565221Y-66074144D01*
X150588500Y-66073000D01*
X151163500Y-66073000D01*
X151186779Y-66074144D01*
X151186779Y-66074144D01*
G37*
D13*
G04 #@! TD*
G04 #@! TO.P,C3,1*
G04 #@! TO.N,Net-(C1-Pad2)*
X150876000Y-66548000D03*
D12*
G04 #@! TO.N,Net-(C1-Pad2)*
G04 #@! TO.C,C4*
G36*
X167809779Y-81822144D02*
X167832834Y-81825563D01*
X167855443Y-81831227D01*
X167877387Y-81839079D01*
X167898457Y-81849044D01*
X167918448Y-81861026D01*
X167937168Y-81874910D01*
X167954438Y-81890562D01*
X167970090Y-81907832D01*
X167983974Y-81926552D01*
X167995956Y-81946543D01*
X168005921Y-81967613D01*
X168013773Y-81989557D01*
X168019437Y-82012166D01*
X168022856Y-82035221D01*
X168024000Y-82058500D01*
X168024000Y-82533500D01*
X168022856Y-82556779D01*
X168019437Y-82579834D01*
X168013773Y-82602443D01*
X168005921Y-82624387D01*
X167995956Y-82645457D01*
X167983974Y-82665448D01*
X167970090Y-82684168D01*
X167954438Y-82701438D01*
X167937168Y-82717090D01*
X167918448Y-82730974D01*
X167898457Y-82742956D01*
X167877387Y-82752921D01*
X167855443Y-82760773D01*
X167832834Y-82766437D01*
X167809779Y-82769856D01*
X167786500Y-82771000D01*
X167211500Y-82771000D01*
X167188221Y-82769856D01*
X167165166Y-82766437D01*
X167142557Y-82760773D01*
X167120613Y-82752921D01*
X167099543Y-82742956D01*
X167079552Y-82730974D01*
X167060832Y-82717090D01*
X167043562Y-82701438D01*
X167027910Y-82684168D01*
X167014026Y-82665448D01*
X167002044Y-82645457D01*
X166992079Y-82624387D01*
X166984227Y-82602443D01*
X166978563Y-82579834D01*
X166975144Y-82556779D01*
X166974000Y-82533500D01*
X166974000Y-82058500D01*
X166975144Y-82035221D01*
X166978563Y-82012166D01*
X166984227Y-81989557D01*
X166992079Y-81967613D01*
X167002044Y-81946543D01*
X167014026Y-81926552D01*
X167027910Y-81907832D01*
X167043562Y-81890562D01*
X167060832Y-81874910D01*
X167079552Y-81861026D01*
X167099543Y-81849044D01*
X167120613Y-81839079D01*
X167142557Y-81831227D01*
X167165166Y-81825563D01*
X167188221Y-81822144D01*
X167211500Y-81821000D01*
X167786500Y-81821000D01*
X167809779Y-81822144D01*
X167809779Y-81822144D01*
G37*
D13*
G04 #@! TD*
G04 #@! TO.P,C4,1*
G04 #@! TO.N,Net-(C1-Pad2)*
X167499000Y-82296000D03*
D12*
G04 #@! TO.N,Net-(C4-Pad2)*
G04 #@! TO.C,C4*
G36*
X166059779Y-81822144D02*
X166082834Y-81825563D01*
X166105443Y-81831227D01*
X166127387Y-81839079D01*
X166148457Y-81849044D01*
X166168448Y-81861026D01*
X166187168Y-81874910D01*
X166204438Y-81890562D01*
X166220090Y-81907832D01*
X166233974Y-81926552D01*
X166245956Y-81946543D01*
X166255921Y-81967613D01*
X166263773Y-81989557D01*
X166269437Y-82012166D01*
X166272856Y-82035221D01*
X166274000Y-82058500D01*
X166274000Y-82533500D01*
X166272856Y-82556779D01*
X166269437Y-82579834D01*
X166263773Y-82602443D01*
X166255921Y-82624387D01*
X166245956Y-82645457D01*
X166233974Y-82665448D01*
X166220090Y-82684168D01*
X166204438Y-82701438D01*
X166187168Y-82717090D01*
X166168448Y-82730974D01*
X166148457Y-82742956D01*
X166127387Y-82752921D01*
X166105443Y-82760773D01*
X166082834Y-82766437D01*
X166059779Y-82769856D01*
X166036500Y-82771000D01*
X165461500Y-82771000D01*
X165438221Y-82769856D01*
X165415166Y-82766437D01*
X165392557Y-82760773D01*
X165370613Y-82752921D01*
X165349543Y-82742956D01*
X165329552Y-82730974D01*
X165310832Y-82717090D01*
X165293562Y-82701438D01*
X165277910Y-82684168D01*
X165264026Y-82665448D01*
X165252044Y-82645457D01*
X165242079Y-82624387D01*
X165234227Y-82602443D01*
X165228563Y-82579834D01*
X165225144Y-82556779D01*
X165224000Y-82533500D01*
X165224000Y-82058500D01*
X165225144Y-82035221D01*
X165228563Y-82012166D01*
X165234227Y-81989557D01*
X165242079Y-81967613D01*
X165252044Y-81946543D01*
X165264026Y-81926552D01*
X165277910Y-81907832D01*
X165293562Y-81890562D01*
X165310832Y-81874910D01*
X165329552Y-81861026D01*
X165349543Y-81849044D01*
X165370613Y-81839079D01*
X165392557Y-81831227D01*
X165415166Y-81825563D01*
X165438221Y-81822144D01*
X165461500Y-81821000D01*
X166036500Y-81821000D01*
X166059779Y-81822144D01*
X166059779Y-81822144D01*
G37*
D13*
G04 #@! TD*
G04 #@! TO.P,C4,2*
G04 #@! TO.N,Net-(C4-Pad2)*
X165749000Y-82296000D03*
D12*
G04 #@! TO.N,Net-(C6-Pad2)*
G04 #@! TO.C,C6*
G36*
X138740779Y-82838144D02*
X138763834Y-82841563D01*
X138786443Y-82847227D01*
X138808387Y-82855079D01*
X138829457Y-82865044D01*
X138849448Y-82877026D01*
X138868168Y-82890910D01*
X138885438Y-82906562D01*
X138901090Y-82923832D01*
X138914974Y-82942552D01*
X138926956Y-82962543D01*
X138936921Y-82983613D01*
X138944773Y-83005557D01*
X138950437Y-83028166D01*
X138953856Y-83051221D01*
X138955000Y-83074500D01*
X138955000Y-83549500D01*
X138953856Y-83572779D01*
X138950437Y-83595834D01*
X138944773Y-83618443D01*
X138936921Y-83640387D01*
X138926956Y-83661457D01*
X138914974Y-83681448D01*
X138901090Y-83700168D01*
X138885438Y-83717438D01*
X138868168Y-83733090D01*
X138849448Y-83746974D01*
X138829457Y-83758956D01*
X138808387Y-83768921D01*
X138786443Y-83776773D01*
X138763834Y-83782437D01*
X138740779Y-83785856D01*
X138717500Y-83787000D01*
X138142500Y-83787000D01*
X138119221Y-83785856D01*
X138096166Y-83782437D01*
X138073557Y-83776773D01*
X138051613Y-83768921D01*
X138030543Y-83758956D01*
X138010552Y-83746974D01*
X137991832Y-83733090D01*
X137974562Y-83717438D01*
X137958910Y-83700168D01*
X137945026Y-83681448D01*
X137933044Y-83661457D01*
X137923079Y-83640387D01*
X137915227Y-83618443D01*
X137909563Y-83595834D01*
X137906144Y-83572779D01*
X137905000Y-83549500D01*
X137905000Y-83074500D01*
X137906144Y-83051221D01*
X137909563Y-83028166D01*
X137915227Y-83005557D01*
X137923079Y-82983613D01*
X137933044Y-82962543D01*
X137945026Y-82942552D01*
X137958910Y-82923832D01*
X137974562Y-82906562D01*
X137991832Y-82890910D01*
X138010552Y-82877026D01*
X138030543Y-82865044D01*
X138051613Y-82855079D01*
X138073557Y-82847227D01*
X138096166Y-82841563D01*
X138119221Y-82838144D01*
X138142500Y-82837000D01*
X138717500Y-82837000D01*
X138740779Y-82838144D01*
X138740779Y-82838144D01*
G37*
D13*
G04 #@! TD*
G04 #@! TO.P,C6,2*
G04 #@! TO.N,Net-(C6-Pad2)*
X138430000Y-83312000D03*
D12*
G04 #@! TO.N,Net-(C6-Pad1)*
G04 #@! TO.C,C6*
G36*
X136990779Y-82838144D02*
X137013834Y-82841563D01*
X137036443Y-82847227D01*
X137058387Y-82855079D01*
X137079457Y-82865044D01*
X137099448Y-82877026D01*
X137118168Y-82890910D01*
X137135438Y-82906562D01*
X137151090Y-82923832D01*
X137164974Y-82942552D01*
X137176956Y-82962543D01*
X137186921Y-82983613D01*
X137194773Y-83005557D01*
X137200437Y-83028166D01*
X137203856Y-83051221D01*
X137205000Y-83074500D01*
X137205000Y-83549500D01*
X137203856Y-83572779D01*
X137200437Y-83595834D01*
X137194773Y-83618443D01*
X137186921Y-83640387D01*
X137176956Y-83661457D01*
X137164974Y-83681448D01*
X137151090Y-83700168D01*
X137135438Y-83717438D01*
X137118168Y-83733090D01*
X137099448Y-83746974D01*
X137079457Y-83758956D01*
X137058387Y-83768921D01*
X137036443Y-83776773D01*
X137013834Y-83782437D01*
X136990779Y-83785856D01*
X136967500Y-83787000D01*
X136392500Y-83787000D01*
X136369221Y-83785856D01*
X136346166Y-83782437D01*
X136323557Y-83776773D01*
X136301613Y-83768921D01*
X136280543Y-83758956D01*
X136260552Y-83746974D01*
X136241832Y-83733090D01*
X136224562Y-83717438D01*
X136208910Y-83700168D01*
X136195026Y-83681448D01*
X136183044Y-83661457D01*
X136173079Y-83640387D01*
X136165227Y-83618443D01*
X136159563Y-83595834D01*
X136156144Y-83572779D01*
X136155000Y-83549500D01*
X136155000Y-83074500D01*
X136156144Y-83051221D01*
X136159563Y-83028166D01*
X136165227Y-83005557D01*
X136173079Y-82983613D01*
X136183044Y-82962543D01*
X136195026Y-82942552D01*
X136208910Y-82923832D01*
X136224562Y-82906562D01*
X136241832Y-82890910D01*
X136260552Y-82877026D01*
X136280543Y-82865044D01*
X136301613Y-82855079D01*
X136323557Y-82847227D01*
X136346166Y-82841563D01*
X136369221Y-82838144D01*
X136392500Y-82837000D01*
X136967500Y-82837000D01*
X136990779Y-82838144D01*
X136990779Y-82838144D01*
G37*
D13*
G04 #@! TD*
G04 #@! TO.P,C6,1*
G04 #@! TO.N,Net-(C6-Pad1)*
X136680000Y-83312000D03*
D16*
G04 #@! TO.N,Net-(Conn2-Pad4)*
X164516847Y-80339153D03*
X167640000Y-68326000D03*
G04 #@! TO.N,Net-(Conn2-Pad5)*
X162560000Y-80102000D03*
X164846000Y-77470000D03*
G04 #@! TO.N,Net-(Conn3-Pad5)*
X160528000Y-91694000D03*
X165100000Y-91694000D03*
G04 #@! TO.N,Net-(Conn3-Pad4)*
X157600933Y-86734933D03*
X165608000Y-88900000D03*
X170688000Y-88646000D03*
G04 #@! TO.N,Net-(C2-Pad1)*
X124739001Y-112775001D03*
X140970000Y-64262000D03*
G04 #@! TO.N,Net-(C4-Pad2)*
X157480000Y-84074000D03*
X162814000Y-83058000D03*
G04 #@! TD*
D17*
G04 #@! TO.N,Net-(C1-Pad2)*
X143623000Y-55372000D02*
X159512000Y-55372000D01*
X141591000Y-57404000D02*
X143623000Y-55372000D01*
X141591000Y-62230000D02*
X141591000Y-57404000D01*
X150876000Y-62484000D02*
X150876000Y-66548000D01*
X141591000Y-62230000D02*
X150622000Y-62230000D01*
X150622000Y-62230000D02*
X150876000Y-62484000D01*
D18*
X159730000Y-79375000D02*
X160180000Y-79375000D01*
D17*
X156660010Y-76305010D02*
X159730000Y-79375000D01*
X156660010Y-66605990D02*
X156660010Y-76305010D01*
X166878000Y-62738000D02*
X170688000Y-62738000D01*
X161290000Y-57150000D02*
X159512000Y-55372000D01*
D18*
X161290000Y-58420000D02*
X161290000Y-57150000D01*
D17*
X165608000Y-62738000D02*
X166878000Y-62738000D01*
X161290000Y-58420000D02*
X165608000Y-62738000D01*
X159890000Y-79375000D02*
X160340000Y-79375000D01*
X156602020Y-66548000D02*
X150876000Y-66548000D01*
X156660010Y-66605990D02*
X156602020Y-66548000D01*
X161344000Y-79375000D02*
X161979000Y-78740000D01*
X160340000Y-79375000D02*
X161344000Y-79375000D01*
X161979000Y-78740000D02*
X167132000Y-78740000D01*
X167499000Y-79107000D02*
X167499000Y-82296000D01*
X167132000Y-78740000D02*
X167499000Y-79107000D01*
X139558000Y-59437000D02*
X141591000Y-57404000D01*
X133121400Y-59437000D02*
X139558000Y-59437000D01*
X167499000Y-82917000D02*
X170688000Y-86106000D01*
X167499000Y-82296000D02*
X167499000Y-82917000D01*
G04 #@! TO.N,Net-(C1-Pad1)*
X137937000Y-51436000D02*
X141873000Y-55372000D01*
X133121400Y-51436000D02*
X137937000Y-51436000D01*
X143143000Y-54102000D02*
X141873000Y-55372000D01*
X160782000Y-54102000D02*
X143143000Y-54102000D01*
X163830000Y-58420000D02*
X163830000Y-57150000D01*
X163830000Y-57150000D02*
X160782000Y-54102000D01*
D18*
G04 #@! TO.N,Net-(Conn2-Pad4)*
X160180000Y-81915000D02*
X160630000Y-81915000D01*
D17*
X160340000Y-81915000D02*
X162941000Y-81915000D01*
X162941000Y-81915000D02*
X164516847Y-80339153D01*
X168039999Y-67926001D02*
X170688000Y-65278000D01*
X167640000Y-68326000D02*
X168039999Y-67926001D01*
D18*
G04 #@! TO.N,Net-(Conn2-Pad5)*
X160630000Y-80645000D02*
X160180000Y-80645000D01*
X170688000Y-67818000D02*
X170942000Y-67818000D01*
X160180000Y-80645000D02*
X161180000Y-80645000D01*
D17*
X161180000Y-80645000D02*
X161925000Y-80645000D01*
X161925000Y-80645000D02*
X162468000Y-80102000D01*
X162468000Y-80102000D02*
X162560000Y-80102000D01*
X170688000Y-71628000D02*
X170688000Y-67818000D01*
X170688000Y-71628000D02*
X164846000Y-77470000D01*
G04 #@! TO.N,Net-(Conn3-Pad5)*
X154940000Y-86995000D02*
X154940000Y-87549000D01*
X170434000Y-90932000D02*
X170688000Y-91186000D01*
X154940000Y-87549000D02*
X154940000Y-88646000D01*
X154940000Y-88646000D02*
X157988000Y-91694000D01*
X157988000Y-91694000D02*
X160528000Y-91694000D01*
X170180000Y-91694000D02*
X170688000Y-91186000D01*
X165100000Y-91694000D02*
X170180000Y-91694000D01*
D18*
G04 #@! TO.N,Net-(Conn3-Pad4)*
X155390000Y-85725000D02*
X154940000Y-85725000D01*
D17*
X157480264Y-86855602D02*
X157600933Y-86734933D01*
X165608000Y-88900000D02*
X170434000Y-88900000D01*
X170434000Y-88900000D02*
X170688000Y-88646000D01*
X156591000Y-85725000D02*
X157600933Y-86734933D01*
X154940000Y-85725000D02*
X156591000Y-85725000D01*
D18*
G04 #@! TO.N,/Serial4*
X134949999Y-112775001D02*
X134899001Y-112775001D01*
D17*
X160790000Y-86995000D02*
X162306000Y-88511000D01*
X160340000Y-86995000D02*
X160790000Y-86995000D01*
X162306000Y-88511000D02*
X162306000Y-106934000D01*
X162306000Y-106934000D02*
X159004000Y-110236000D01*
X137438002Y-110236000D02*
X134899001Y-112775001D01*
X159004000Y-110236000D02*
X137438002Y-110236000D01*
D18*
G04 #@! TO.N,Net-(U1-PadPK1)*
X160630000Y-85725000D02*
X160180000Y-85725000D01*
D17*
X160721000Y-86106000D02*
X160340000Y-85725000D01*
X138938000Y-111276002D02*
X159487998Y-111276002D01*
X137439001Y-112775001D02*
X138938000Y-111276002D01*
X159487998Y-111276002D02*
X163322000Y-107442000D01*
X163322000Y-107442000D02*
X163322000Y-88338398D01*
X163322000Y-88338398D02*
X161089602Y-86106000D01*
X161089602Y-86106000D02*
X160721000Y-86106000D01*
D18*
G04 #@! TO.N,Net-(C2-Pad1)*
X158800153Y-58470153D02*
X158750000Y-58420000D01*
D17*
X160340000Y-60010000D02*
X158750000Y-58420000D01*
X160340000Y-78105000D02*
X160340000Y-60010000D01*
X139841000Y-62230000D02*
X139841000Y-63133000D01*
X139841000Y-63133000D02*
X140970000Y-64262000D01*
G04 #@! TO.N,Net-(U1-PadGND)*
X125824002Y-86011998D02*
X125826002Y-86009998D01*
G04 #@! TO.N,Net-(C5-Pad1)*
X153936000Y-78105000D02*
X152285000Y-76454000D01*
X154940000Y-78105000D02*
X153936000Y-78105000D01*
X152285000Y-76454000D02*
X137922000Y-76454000D01*
X137922000Y-76990000D02*
X136680000Y-78232000D01*
X137922000Y-76454000D02*
X137922000Y-76990000D01*
G04 #@! TO.N,Net-(C3-Pad2)*
X150904000Y-68326000D02*
X149126000Y-66548000D01*
X155702000Y-68326000D02*
X150904000Y-68326000D01*
X155944000Y-79375000D02*
X156071000Y-79248000D01*
X154940000Y-79375000D02*
X155944000Y-79375000D01*
X156071000Y-79248000D02*
X156972000Y-79248000D01*
X156972000Y-79248000D02*
X156972000Y-77724000D01*
X156972000Y-77724000D02*
X155702000Y-76454000D01*
X155702000Y-76454000D02*
X155702000Y-68326000D01*
D18*
G04 #@! TO.N,Net-(C5-Pad2)*
X154780000Y-80645000D02*
X154330000Y-80645000D01*
D17*
X153936000Y-80645000D02*
X154940000Y-80645000D01*
X141468000Y-80645000D02*
X153936000Y-80645000D01*
X139055000Y-78232000D02*
X141468000Y-80645000D01*
X138430000Y-78232000D02*
X139055000Y-78232000D01*
G04 #@! TO.N,Net-(C6-Pad1)*
X138077000Y-81915000D02*
X154780000Y-81915000D01*
X136680000Y-83312000D02*
X138077000Y-81915000D01*
D18*
G04 #@! TO.N,Net-(C6-Pad2)*
X154653000Y-83312000D02*
X154780000Y-83185000D01*
D17*
X138430000Y-83312000D02*
X154653000Y-83312000D01*
G04 #@! TO.N,Net-(C4-Pad2)*
X155230000Y-84455000D02*
X155611000Y-84074000D01*
D18*
X154780000Y-84455000D02*
X155230000Y-84455000D01*
D17*
X155611000Y-84074000D02*
X157480000Y-84074000D01*
X163576000Y-82296000D02*
X165749000Y-82296000D01*
X162814000Y-83058000D02*
X163576000Y-82296000D01*
G04 #@! TD*
G04 #@! TO.N,Net-(U1-PadGND)*
G36*
X183694000Y-94183419D02*
X183633910Y-94603009D01*
X183479619Y-94942352D01*
X183236288Y-95224752D01*
X182923479Y-95427506D01*
X182542815Y-95541348D01*
X182345649Y-95556000D01*
X166693926Y-95556000D01*
X166624000Y-95542091D01*
X166554075Y-95556000D01*
X166554074Y-95556000D01*
X166346972Y-95597195D01*
X166112119Y-95754119D01*
X165955195Y-95988972D01*
X165900091Y-96266000D01*
X165914001Y-96335931D01*
X165914000Y-117024074D01*
X165900091Y-117094000D01*
X165955195Y-117371028D01*
X166112119Y-117605881D01*
X166346972Y-117762805D01*
X166506571Y-117794551D01*
X166624000Y-117817909D01*
X166693925Y-117804000D01*
X182321419Y-117804000D01*
X182741009Y-117864090D01*
X183080352Y-118018381D01*
X183362752Y-118261712D01*
X183565506Y-118574523D01*
X183679348Y-118955184D01*
X183694001Y-119152363D01*
X183694000Y-126643281D01*
X183608491Y-126669423D01*
X183516033Y-126696460D01*
X183508159Y-126700098D01*
X182986644Y-126944948D01*
X182906075Y-126997872D01*
X182824927Y-127049768D01*
X182818390Y-127055470D01*
X182386558Y-127436851D01*
X182324096Y-127510244D01*
X182260760Y-127582847D01*
X182256087Y-127590154D01*
X181948654Y-128077407D01*
X181909298Y-128165387D01*
X181868889Y-128252840D01*
X181866457Y-128261160D01*
X181866454Y-128261166D01*
X181866453Y-128261173D01*
X181708134Y-128815118D01*
X181695056Y-128910586D01*
X181680813Y-129005890D01*
X181680813Y-129014564D01*
X181684333Y-129590687D01*
X181698588Y-129686068D01*
X181711654Y-129781455D01*
X181714088Y-129789781D01*
X181879164Y-130341758D01*
X181919591Y-130429250D01*
X181958930Y-130517194D01*
X181963603Y-130524501D01*
X182276966Y-131007961D01*
X182340328Y-131080594D01*
X182402763Y-131153955D01*
X182409296Y-131159654D01*
X182409300Y-131159658D01*
X182409305Y-131159661D01*
X182845759Y-131535734D01*
X182926942Y-131587653D01*
X183007475Y-131640554D01*
X183015346Y-131644190D01*
X183015349Y-131644192D01*
X183015352Y-131644193D01*
X183539817Y-131882653D01*
X183632309Y-131909700D01*
X183694000Y-131928561D01*
X183694001Y-139903412D01*
X183633910Y-140323009D01*
X183479619Y-140662352D01*
X183236288Y-140944752D01*
X182923479Y-141147506D01*
X182542815Y-141261348D01*
X182345649Y-141276000D01*
X126028667Y-141276000D01*
X125530301Y-141213042D01*
X125105111Y-141044697D01*
X124735141Y-140775899D01*
X124443645Y-140423541D01*
X124248933Y-140009756D01*
X124156907Y-139527339D01*
X124154000Y-139434836D01*
X124154000Y-131928719D01*
X124239509Y-131902577D01*
X124331967Y-131875540D01*
X124339841Y-131871902D01*
X124861356Y-131627052D01*
X124941925Y-131574128D01*
X125023073Y-131522232D01*
X125029610Y-131516530D01*
X125461442Y-131135149D01*
X125523887Y-131061776D01*
X125587240Y-130989153D01*
X125591913Y-130981846D01*
X125899346Y-130494593D01*
X125938687Y-130406645D01*
X125979111Y-130319160D01*
X125981545Y-130310835D01*
X126139866Y-129756882D01*
X126152943Y-129661421D01*
X126167187Y-129566111D01*
X126167187Y-129557436D01*
X126163667Y-128981313D01*
X126149414Y-128885943D01*
X126136346Y-128790544D01*
X126133912Y-128782219D01*
X125968836Y-128230241D01*
X125928418Y-128142769D01*
X125889071Y-128054806D01*
X125884397Y-128047499D01*
X125571034Y-127564040D01*
X125507707Y-127491447D01*
X125445237Y-127418045D01*
X125438700Y-127412343D01*
X125002241Y-127036266D01*
X124921058Y-126984347D01*
X124840525Y-126931446D01*
X124832654Y-126927810D01*
X124832651Y-126927808D01*
X124832648Y-126927807D01*
X124308183Y-126689347D01*
X124215691Y-126662300D01*
X124154000Y-126643439D01*
X124154000Y-116582623D01*
X124461518Y-116710001D01*
X125016484Y-116710001D01*
X125529205Y-116497625D01*
X125921625Y-116105205D01*
X126009001Y-115894261D01*
X126096377Y-116105205D01*
X126488797Y-116497625D01*
X127001518Y-116710001D01*
X127556484Y-116710001D01*
X128069205Y-116497625D01*
X128461625Y-116105205D01*
X128549001Y-115894261D01*
X128636377Y-116105205D01*
X129028797Y-116497625D01*
X129541518Y-116710001D01*
X130096484Y-116710001D01*
X130609205Y-116497625D01*
X131001625Y-116105205D01*
X131089001Y-115894261D01*
X131176377Y-116105205D01*
X131568797Y-116497625D01*
X132081518Y-116710001D01*
X132636484Y-116710001D01*
X133149205Y-116497625D01*
X133541625Y-116105205D01*
X133629001Y-115894261D01*
X133716377Y-116105205D01*
X134108797Y-116497625D01*
X134621518Y-116710001D01*
X135176484Y-116710001D01*
X135689205Y-116497625D01*
X136081625Y-116105205D01*
X136169001Y-115894261D01*
X136256377Y-116105205D01*
X136648797Y-116497625D01*
X137161518Y-116710001D01*
X137716484Y-116710001D01*
X138229205Y-116497625D01*
X138621625Y-116105205D01*
X138709001Y-115894261D01*
X138796377Y-116105205D01*
X139188797Y-116497625D01*
X139701518Y-116710001D01*
X140256484Y-116710001D01*
X140769205Y-116497625D01*
X141161625Y-116105205D01*
X141249001Y-115894261D01*
X141336377Y-116105205D01*
X141728797Y-116497625D01*
X142241518Y-116710001D01*
X142796484Y-116710001D01*
X143309205Y-116497625D01*
X143701625Y-116105205D01*
X143789001Y-115894261D01*
X143876377Y-116105205D01*
X144268797Y-116497625D01*
X144781518Y-116710001D01*
X145336484Y-116710001D01*
X145849205Y-116497625D01*
X146241625Y-116105205D01*
X146329001Y-115894261D01*
X146416377Y-116105205D01*
X146808797Y-116497625D01*
X147321518Y-116710001D01*
X147876484Y-116710001D01*
X148389205Y-116497625D01*
X148781625Y-116105205D01*
X148994001Y-115592484D01*
X148994001Y-115037518D01*
X148781625Y-114524797D01*
X148389205Y-114132377D01*
X148178261Y-114045001D01*
X148389205Y-113957625D01*
X148781625Y-113565205D01*
X148994001Y-113052484D01*
X148994001Y-112497518D01*
X148803663Y-112038002D01*
X159412955Y-112038002D01*
X159487998Y-112052929D01*
X159563041Y-112038002D01*
X159563046Y-112038002D01*
X159785315Y-111993790D01*
X160037369Y-111825373D01*
X160079881Y-111761749D01*
X163807750Y-108033881D01*
X163871371Y-107991371D01*
X164039788Y-107739317D01*
X164084000Y-107517048D01*
X164084000Y-107517047D01*
X164098928Y-107442000D01*
X164084000Y-107366953D01*
X164084000Y-91945744D01*
X164222569Y-92280280D01*
X164513720Y-92571431D01*
X164894126Y-92729000D01*
X165305874Y-92729000D01*
X165686280Y-92571431D01*
X165801711Y-92456000D01*
X170103513Y-92456000D01*
X170410119Y-92583000D01*
X170965881Y-92583000D01*
X171479337Y-92370320D01*
X171863090Y-91986567D01*
X176964000Y-91986567D01*
X176964000Y-92925433D01*
X177323289Y-93792833D01*
X177987167Y-94456711D01*
X178854567Y-94816000D01*
X179793433Y-94816000D01*
X180660833Y-94456711D01*
X181324711Y-93792833D01*
X181684000Y-92925433D01*
X181684000Y-91986567D01*
X181324711Y-91119167D01*
X180660833Y-90455289D01*
X179793433Y-90096000D01*
X178854567Y-90096000D01*
X177987167Y-90455289D01*
X177323289Y-91119167D01*
X176964000Y-91986567D01*
X171863090Y-91986567D01*
X171872320Y-91977337D01*
X172085000Y-91463881D01*
X172085000Y-90908119D01*
X171872320Y-90394663D01*
X171479337Y-90001680D01*
X171272487Y-89916000D01*
X171479337Y-89830320D01*
X171872320Y-89437337D01*
X172085000Y-88923881D01*
X172085000Y-88368119D01*
X171872320Y-87854663D01*
X171479337Y-87461680D01*
X171272487Y-87376000D01*
X171479337Y-87290320D01*
X171872320Y-86897337D01*
X172085000Y-86383881D01*
X172085000Y-85828119D01*
X171872320Y-85314663D01*
X171479337Y-84921680D01*
X171272487Y-84836000D01*
X171479337Y-84750320D01*
X171872320Y-84357337D01*
X172085000Y-83843881D01*
X172085000Y-83288119D01*
X171872320Y-82774663D01*
X171479337Y-82381680D01*
X171272487Y-82296000D01*
X171479337Y-82210320D01*
X171872320Y-81817337D01*
X172085000Y-81303881D01*
X172085000Y-80748119D01*
X171872320Y-80234663D01*
X171479337Y-79841680D01*
X170965881Y-79629000D01*
X170410119Y-79629000D01*
X169896663Y-79841680D01*
X169503680Y-80234663D01*
X169291000Y-80748119D01*
X169291000Y-81303881D01*
X169503680Y-81817337D01*
X169896663Y-82210320D01*
X170103513Y-82296000D01*
X169896663Y-82381680D01*
X169503680Y-82774663D01*
X169291000Y-83288119D01*
X169291000Y-83631370D01*
X168575120Y-82915490D01*
X168604078Y-82872152D01*
X168671440Y-82533500D01*
X168671440Y-82058500D01*
X168604078Y-81719848D01*
X168412247Y-81432753D01*
X168261000Y-81331693D01*
X168261000Y-79286567D01*
X176964000Y-79286567D01*
X176964000Y-80225433D01*
X177323289Y-81092833D01*
X177987167Y-81756711D01*
X178854567Y-82116000D01*
X179793433Y-82116000D01*
X180660833Y-81756711D01*
X181324711Y-81092833D01*
X181684000Y-80225433D01*
X181684000Y-79286567D01*
X181324711Y-78419167D01*
X180660833Y-77755289D01*
X179793433Y-77396000D01*
X178854567Y-77396000D01*
X177987167Y-77755289D01*
X177323289Y-78419167D01*
X176964000Y-79286567D01*
X168261000Y-79286567D01*
X168261000Y-79182042D01*
X168275927Y-79106999D01*
X168261000Y-79031956D01*
X168261000Y-79031952D01*
X168216788Y-78809683D01*
X168048371Y-78557629D01*
X167984747Y-78515117D01*
X167723884Y-78254254D01*
X167681371Y-78190629D01*
X167429317Y-78022212D01*
X167207048Y-77978000D01*
X167207043Y-77978000D01*
X167132000Y-77963073D01*
X167056957Y-77978000D01*
X165755856Y-77978000D01*
X165881000Y-77675874D01*
X165881000Y-77512630D01*
X171173750Y-72219881D01*
X171237371Y-72177371D01*
X171405788Y-71925317D01*
X171450000Y-71703048D01*
X171450000Y-71703047D01*
X171464928Y-71628000D01*
X171450000Y-71552953D01*
X171450000Y-69014472D01*
X171479337Y-69002320D01*
X171863090Y-68618567D01*
X176964000Y-68618567D01*
X176964000Y-69557433D01*
X177323289Y-70424833D01*
X177987167Y-71088711D01*
X178854567Y-71448000D01*
X179793433Y-71448000D01*
X180660833Y-71088711D01*
X181324711Y-70424833D01*
X181684000Y-69557433D01*
X181684000Y-68618567D01*
X181324711Y-67751167D01*
X180660833Y-67087289D01*
X179793433Y-66728000D01*
X178854567Y-66728000D01*
X177987167Y-67087289D01*
X177323289Y-67751167D01*
X176964000Y-68618567D01*
X171863090Y-68618567D01*
X171872320Y-68609337D01*
X172085000Y-68095881D01*
X172085000Y-67540119D01*
X171872320Y-67026663D01*
X171479337Y-66633680D01*
X171272487Y-66548000D01*
X171479337Y-66462320D01*
X171872320Y-66069337D01*
X172085000Y-65555881D01*
X172085000Y-65000119D01*
X171872320Y-64486663D01*
X171479337Y-64093680D01*
X171272487Y-64008000D01*
X171479337Y-63922320D01*
X171872320Y-63529337D01*
X172085000Y-63015881D01*
X172085000Y-62460119D01*
X171872320Y-61946663D01*
X171479337Y-61553680D01*
X171272487Y-61468000D01*
X171479337Y-61382320D01*
X171872320Y-60989337D01*
X172085000Y-60475881D01*
X172085000Y-59920119D01*
X171872320Y-59406663D01*
X171479337Y-59013680D01*
X171272487Y-58928000D01*
X171479337Y-58842320D01*
X171872320Y-58449337D01*
X172085000Y-57935881D01*
X172085000Y-57380119D01*
X171872320Y-56866663D01*
X171479337Y-56473680D01*
X170965881Y-56261000D01*
X170410119Y-56261000D01*
X169896663Y-56473680D01*
X169503680Y-56866663D01*
X169291000Y-57380119D01*
X169291000Y-57935881D01*
X169503680Y-58449337D01*
X169896663Y-58842320D01*
X170103513Y-58928000D01*
X169896663Y-59013680D01*
X169503680Y-59406663D01*
X169291000Y-59920119D01*
X169291000Y-60475881D01*
X169503680Y-60989337D01*
X169896663Y-61382320D01*
X170103513Y-61468000D01*
X169896663Y-61553680D01*
X169503680Y-61946663D01*
X169491528Y-61976000D01*
X165923631Y-61976000D01*
X163764630Y-59817000D01*
X164107881Y-59817000D01*
X164621337Y-59604320D01*
X165014320Y-59211337D01*
X165227000Y-58697881D01*
X165227000Y-58142119D01*
X165014320Y-57628663D01*
X164621337Y-57235680D01*
X164592278Y-57223644D01*
X164606927Y-57150000D01*
X164592000Y-57074957D01*
X164592000Y-57074952D01*
X164547788Y-56852683D01*
X164379371Y-56600629D01*
X164315749Y-56558118D01*
X163676198Y-55918567D01*
X176964000Y-55918567D01*
X176964000Y-56857433D01*
X177323289Y-57724833D01*
X177987167Y-58388711D01*
X178854567Y-58748000D01*
X179793433Y-58748000D01*
X180660833Y-58388711D01*
X181324711Y-57724833D01*
X181684000Y-56857433D01*
X181684000Y-55918567D01*
X181324711Y-55051167D01*
X180660833Y-54387289D01*
X179793433Y-54028000D01*
X178854567Y-54028000D01*
X177987167Y-54387289D01*
X177323289Y-55051167D01*
X176964000Y-55918567D01*
X163676198Y-55918567D01*
X161373883Y-53616253D01*
X161331371Y-53552629D01*
X161079317Y-53384212D01*
X160857048Y-53340000D01*
X160857043Y-53340000D01*
X160782000Y-53325073D01*
X160706957Y-53340000D01*
X143218042Y-53340000D01*
X143142999Y-53325073D01*
X143067956Y-53340000D01*
X143067952Y-53340000D01*
X142845683Y-53384212D01*
X142845682Y-53384213D01*
X142845681Y-53384213D01*
X142657251Y-53510118D01*
X142593629Y-53552629D01*
X142551118Y-53616251D01*
X141917810Y-54249560D01*
X141828191Y-54249560D01*
X138528883Y-50950253D01*
X138486371Y-50886629D01*
X138234317Y-50718212D01*
X138012048Y-50674000D01*
X138012043Y-50674000D01*
X137937000Y-50659073D01*
X137861957Y-50674000D01*
X136242365Y-50674000D01*
X135813035Y-49637507D01*
X134919893Y-48744365D01*
X133752947Y-48261000D01*
X132489853Y-48261000D01*
X131322907Y-48744365D01*
X130429765Y-49637507D01*
X129946400Y-50804453D01*
X129946400Y-52067547D01*
X130429765Y-53234493D01*
X131322907Y-54127635D01*
X132489853Y-54611000D01*
X133752947Y-54611000D01*
X134919893Y-54127635D01*
X135813035Y-53234493D01*
X136242365Y-52198000D01*
X137621370Y-52198000D01*
X140700560Y-55277191D01*
X140700560Y-55609500D01*
X140767922Y-55948152D01*
X140959753Y-56235247D01*
X141246848Y-56427078D01*
X141449902Y-56467468D01*
X141105254Y-56812116D01*
X141105251Y-56812118D01*
X141105248Y-56812121D01*
X141041630Y-56854629D01*
X140999121Y-56918248D01*
X139242370Y-58675000D01*
X136242365Y-58675000D01*
X135813035Y-57638507D01*
X134919893Y-56745365D01*
X133752947Y-56262000D01*
X132489853Y-56262000D01*
X131322907Y-56745365D01*
X130429765Y-57638507D01*
X129946400Y-58805453D01*
X129946400Y-60068547D01*
X130429765Y-61235493D01*
X131322907Y-62128635D01*
X132489853Y-62612000D01*
X133752947Y-62612000D01*
X134919893Y-62128635D01*
X135813035Y-61235493D01*
X136242365Y-60199000D01*
X139482957Y-60199000D01*
X139558000Y-60213927D01*
X139633043Y-60199000D01*
X139633048Y-60199000D01*
X139855317Y-60154788D01*
X140107371Y-59986371D01*
X140149883Y-59922747D01*
X140829001Y-59243630D01*
X140829000Y-61265693D01*
X140716000Y-61341197D01*
X140467152Y-61174922D01*
X140128500Y-61107560D01*
X139553500Y-61107560D01*
X139214848Y-61174922D01*
X138927753Y-61366753D01*
X138735922Y-61653848D01*
X138668560Y-61992500D01*
X138668560Y-62467500D01*
X138735922Y-62806152D01*
X138927753Y-63093247D01*
X139075849Y-63192202D01*
X139123213Y-63430317D01*
X139179748Y-63514927D01*
X139291630Y-63682371D01*
X139355251Y-63724881D01*
X139935000Y-64304631D01*
X139935000Y-64467874D01*
X140092569Y-64848280D01*
X140383720Y-65139431D01*
X140764126Y-65297000D01*
X141175874Y-65297000D01*
X141556280Y-65139431D01*
X141847431Y-64848280D01*
X142005000Y-64467874D01*
X142005000Y-64056126D01*
X141847431Y-63675720D01*
X141556280Y-63384569D01*
X141478714Y-63352440D01*
X141878500Y-63352440D01*
X142217152Y-63285078D01*
X142504247Y-63093247D01*
X142571898Y-62992000D01*
X150114000Y-62992000D01*
X150114001Y-65583692D01*
X150001000Y-65659197D01*
X149752152Y-65492922D01*
X149413500Y-65425560D01*
X148838500Y-65425560D01*
X148499848Y-65492922D01*
X148212753Y-65684753D01*
X148020922Y-65971848D01*
X147953560Y-66310500D01*
X147953560Y-66785500D01*
X148020922Y-67124152D01*
X148212753Y-67411247D01*
X148499848Y-67603078D01*
X148838500Y-67670440D01*
X149170810Y-67670440D01*
X150312118Y-68811749D01*
X150354629Y-68875371D01*
X150606683Y-69043788D01*
X150828952Y-69088000D01*
X150828953Y-69088000D01*
X150904000Y-69102928D01*
X150979047Y-69088000D01*
X154940001Y-69088000D01*
X154940000Y-76378957D01*
X154925073Y-76454000D01*
X154940000Y-76529043D01*
X154940000Y-76529047D01*
X154984212Y-76751316D01*
X155152629Y-77003371D01*
X155216253Y-77045883D01*
X155327930Y-77157560D01*
X154190000Y-77157560D01*
X154086732Y-77178101D01*
X152876883Y-75968253D01*
X152834371Y-75904629D01*
X152582317Y-75736212D01*
X152360048Y-75692000D01*
X152360043Y-75692000D01*
X152285000Y-75677073D01*
X152209957Y-75692000D01*
X137997048Y-75692000D01*
X137922000Y-75677072D01*
X137846952Y-75692000D01*
X137624683Y-75736212D01*
X137372629Y-75904629D01*
X137204212Y-76156683D01*
X137145072Y-76454000D01*
X137160000Y-76529047D01*
X137160000Y-76674369D01*
X136724810Y-77109560D01*
X136392500Y-77109560D01*
X136053848Y-77176922D01*
X135766753Y-77368753D01*
X135574922Y-77655848D01*
X135507560Y-77994500D01*
X135507560Y-78469500D01*
X135574922Y-78808152D01*
X135766753Y-79095247D01*
X136053848Y-79287078D01*
X136392500Y-79354440D01*
X136967500Y-79354440D01*
X137306152Y-79287078D01*
X137555000Y-79120803D01*
X137803848Y-79287078D01*
X138142500Y-79354440D01*
X138717500Y-79354440D01*
X139036381Y-79291011D01*
X140876118Y-81130749D01*
X140890986Y-81153000D01*
X138152042Y-81153000D01*
X138076999Y-81138073D01*
X138001956Y-81153000D01*
X138001952Y-81153000D01*
X137779683Y-81197212D01*
X137779682Y-81197213D01*
X137779681Y-81197213D01*
X137714266Y-81240922D01*
X137527629Y-81365629D01*
X137485118Y-81429251D01*
X136724810Y-82189560D01*
X136392500Y-82189560D01*
X136053848Y-82256922D01*
X135766753Y-82448753D01*
X135574922Y-82735848D01*
X135507560Y-83074500D01*
X135507560Y-83549500D01*
X135574922Y-83888152D01*
X135766753Y-84175247D01*
X136053848Y-84367078D01*
X136392500Y-84434440D01*
X136967500Y-84434440D01*
X137306152Y-84367078D01*
X137555000Y-84200803D01*
X137803848Y-84367078D01*
X138142500Y-84434440D01*
X138717500Y-84434440D01*
X139056152Y-84367078D01*
X139343247Y-84175247D01*
X139410898Y-84074000D01*
X153558672Y-84074000D01*
X153542560Y-84155000D01*
X153542560Y-84755000D01*
X153591843Y-85002765D01*
X153650132Y-85090000D01*
X153591843Y-85177235D01*
X153542560Y-85425000D01*
X153542560Y-86025000D01*
X153591843Y-86272765D01*
X153650132Y-86360000D01*
X153591843Y-86447235D01*
X153542560Y-86695000D01*
X153542560Y-87295000D01*
X153591843Y-87542765D01*
X153732191Y-87752809D01*
X153942235Y-87893157D01*
X154178000Y-87940053D01*
X154178001Y-88570952D01*
X154163073Y-88646000D01*
X154222213Y-88943317D01*
X154337146Y-89115326D01*
X154390630Y-89195371D01*
X154454251Y-89237881D01*
X157396118Y-92179749D01*
X157438629Y-92243371D01*
X157690683Y-92411788D01*
X157912952Y-92456000D01*
X157912957Y-92456000D01*
X157988000Y-92470927D01*
X158063043Y-92456000D01*
X159826289Y-92456000D01*
X159941720Y-92571431D01*
X160322126Y-92729000D01*
X160733874Y-92729000D01*
X161114280Y-92571431D01*
X161405431Y-92280280D01*
X161544000Y-91945744D01*
X161544001Y-106618368D01*
X158688370Y-109474000D01*
X137513049Y-109474000D01*
X137438002Y-109459072D01*
X137362955Y-109474000D01*
X137362954Y-109474000D01*
X137140685Y-109518212D01*
X136888631Y-109686629D01*
X136846120Y-109750251D01*
X135204688Y-111391684D01*
X135176484Y-111380001D01*
X134621518Y-111380001D01*
X134108797Y-111592377D01*
X133716377Y-111984797D01*
X133629001Y-112195741D01*
X133541625Y-111984797D01*
X133149205Y-111592377D01*
X132636484Y-111380001D01*
X132081518Y-111380001D01*
X131568797Y-111592377D01*
X131176377Y-111984797D01*
X131089001Y-112195741D01*
X131001625Y-111984797D01*
X130609205Y-111592377D01*
X130096484Y-111380001D01*
X129541518Y-111380001D01*
X129028797Y-111592377D01*
X128636377Y-111984797D01*
X128424001Y-112497518D01*
X128424001Y-113052484D01*
X128636377Y-113565205D01*
X129028797Y-113957625D01*
X129239741Y-114045001D01*
X129028797Y-114132377D01*
X128636377Y-114524797D01*
X128549001Y-114735741D01*
X128461625Y-114524797D01*
X128069205Y-114132377D01*
X127556484Y-113920001D01*
X127001518Y-113920001D01*
X126488797Y-114132377D01*
X126096377Y-114524797D01*
X126009001Y-114735741D01*
X125921625Y-114524797D01*
X125529205Y-114132377D01*
X125318261Y-114045001D01*
X125529205Y-113957625D01*
X125921625Y-113565205D01*
X126134001Y-113052484D01*
X126134001Y-112497518D01*
X125921625Y-111984797D01*
X125529205Y-111592377D01*
X125016484Y-111380001D01*
X124461518Y-111380001D01*
X124154000Y-111507379D01*
X124154000Y-73402623D01*
X124461518Y-73530001D01*
X125016484Y-73530001D01*
X125529205Y-73317625D01*
X125921625Y-72925205D01*
X126009001Y-72714261D01*
X126096377Y-72925205D01*
X126488797Y-73317625D01*
X127001518Y-73530001D01*
X127556484Y-73530001D01*
X128069205Y-73317625D01*
X128461625Y-72925205D01*
X128549001Y-72714261D01*
X128636377Y-72925205D01*
X129028797Y-73317625D01*
X129541518Y-73530001D01*
X130096484Y-73530001D01*
X130609205Y-73317625D01*
X131001625Y-72925205D01*
X131089001Y-72714261D01*
X131176377Y-72925205D01*
X131568797Y-73317625D01*
X132081518Y-73530001D01*
X132636484Y-73530001D01*
X133149205Y-73317625D01*
X133541625Y-72925205D01*
X133629001Y-72714261D01*
X133716377Y-72925205D01*
X134108797Y-73317625D01*
X134621518Y-73530001D01*
X135176484Y-73530001D01*
X135689205Y-73317625D01*
X136081625Y-72925205D01*
X136169001Y-72714261D01*
X136256377Y-72925205D01*
X136648797Y-73317625D01*
X137161518Y-73530001D01*
X137716484Y-73530001D01*
X138229205Y-73317625D01*
X138621625Y-72925205D01*
X138709001Y-72714261D01*
X138796377Y-72925205D01*
X139188797Y-73317625D01*
X139701518Y-73530001D01*
X140256484Y-73530001D01*
X140769205Y-73317625D01*
X141161625Y-72925205D01*
X141249001Y-72714261D01*
X141336377Y-72925205D01*
X141728797Y-73317625D01*
X142241518Y-73530001D01*
X142796484Y-73530001D01*
X143309205Y-73317625D01*
X143701625Y-72925205D01*
X143789001Y-72714261D01*
X143876377Y-72925205D01*
X144268797Y-73317625D01*
X144781518Y-73530001D01*
X145336484Y-73530001D01*
X145849205Y-73317625D01*
X146241625Y-72925205D01*
X146329001Y-72714261D01*
X146416377Y-72925205D01*
X146808797Y-73317625D01*
X147321518Y-73530001D01*
X147876484Y-73530001D01*
X148389205Y-73317625D01*
X148781625Y-72925205D01*
X148994001Y-72412484D01*
X148994001Y-71857518D01*
X148781625Y-71344797D01*
X148389205Y-70952377D01*
X148178261Y-70865001D01*
X148389205Y-70777625D01*
X148781625Y-70385205D01*
X148994001Y-69872484D01*
X148994001Y-69317518D01*
X148781625Y-68804797D01*
X148389205Y-68412377D01*
X147876484Y-68200001D01*
X147321518Y-68200001D01*
X146808797Y-68412377D01*
X146416377Y-68804797D01*
X146329001Y-69015741D01*
X146241625Y-68804797D01*
X145849205Y-68412377D01*
X145336484Y-68200001D01*
X144781518Y-68200001D01*
X144268797Y-68412377D01*
X143876377Y-68804797D01*
X143789001Y-69015741D01*
X143701625Y-68804797D01*
X143309205Y-68412377D01*
X142796484Y-68200001D01*
X142241518Y-68200001D01*
X141728797Y-68412377D01*
X141336377Y-68804797D01*
X141249001Y-69015741D01*
X141161625Y-68804797D01*
X140769205Y-68412377D01*
X140256484Y-68200001D01*
X139701518Y-68200001D01*
X139188797Y-68412377D01*
X138796377Y-68804797D01*
X138709001Y-69015741D01*
X138621625Y-68804797D01*
X138229205Y-68412377D01*
X137716484Y-68200001D01*
X137161518Y-68200001D01*
X136648797Y-68412377D01*
X136256377Y-68804797D01*
X136169001Y-69015741D01*
X136081625Y-68804797D01*
X135689205Y-68412377D01*
X135176484Y-68200001D01*
X134621518Y-68200001D01*
X134108797Y-68412377D01*
X133716377Y-68804797D01*
X133629001Y-69015741D01*
X133541625Y-68804797D01*
X133149205Y-68412377D01*
X132636484Y-68200001D01*
X132081518Y-68200001D01*
X131568797Y-68412377D01*
X131176377Y-68804797D01*
X131089001Y-69015741D01*
X131001625Y-68804797D01*
X130609205Y-68412377D01*
X130096484Y-68200001D01*
X129541518Y-68200001D01*
X129028797Y-68412377D01*
X128636377Y-68804797D01*
X128549001Y-69015741D01*
X128461625Y-68804797D01*
X128069205Y-68412377D01*
X127556484Y-68200001D01*
X127001518Y-68200001D01*
X126488797Y-68412377D01*
X126096377Y-68804797D01*
X125884001Y-69317518D01*
X125884001Y-69872484D01*
X126096377Y-70385205D01*
X126488797Y-70777625D01*
X126699741Y-70865001D01*
X126488797Y-70952377D01*
X126096377Y-71344797D01*
X126009001Y-71555741D01*
X125921625Y-71344797D01*
X125529205Y-70952377D01*
X125016484Y-70740001D01*
X124461518Y-70740001D01*
X124154000Y-70867379D01*
X124154000Y-42620000D01*
X183694001Y-42620000D01*
X183694000Y-94183419D01*
X183694000Y-94183419D01*
G37*
X183694000Y-94183419D02*
X183633910Y-94603009D01*
X183479619Y-94942352D01*
X183236288Y-95224752D01*
X182923479Y-95427506D01*
X182542815Y-95541348D01*
X182345649Y-95556000D01*
X166693926Y-95556000D01*
X166624000Y-95542091D01*
X166554075Y-95556000D01*
X166554074Y-95556000D01*
X166346972Y-95597195D01*
X166112119Y-95754119D01*
X165955195Y-95988972D01*
X165900091Y-96266000D01*
X165914001Y-96335931D01*
X165914000Y-117024074D01*
X165900091Y-117094000D01*
X165955195Y-117371028D01*
X166112119Y-117605881D01*
X166346972Y-117762805D01*
X166506571Y-117794551D01*
X166624000Y-117817909D01*
X166693925Y-117804000D01*
X182321419Y-117804000D01*
X182741009Y-117864090D01*
X183080352Y-118018381D01*
X183362752Y-118261712D01*
X183565506Y-118574523D01*
X183679348Y-118955184D01*
X183694001Y-119152363D01*
X183694000Y-126643281D01*
X183608491Y-126669423D01*
X183516033Y-126696460D01*
X183508159Y-126700098D01*
X182986644Y-126944948D01*
X182906075Y-126997872D01*
X182824927Y-127049768D01*
X182818390Y-127055470D01*
X182386558Y-127436851D01*
X182324096Y-127510244D01*
X182260760Y-127582847D01*
X182256087Y-127590154D01*
X181948654Y-128077407D01*
X181909298Y-128165387D01*
X181868889Y-128252840D01*
X181866457Y-128261160D01*
X181866454Y-128261166D01*
X181866453Y-128261173D01*
X181708134Y-128815118D01*
X181695056Y-128910586D01*
X181680813Y-129005890D01*
X181680813Y-129014564D01*
X181684333Y-129590687D01*
X181698588Y-129686068D01*
X181711654Y-129781455D01*
X181714088Y-129789781D01*
X181879164Y-130341758D01*
X181919591Y-130429250D01*
X181958930Y-130517194D01*
X181963603Y-130524501D01*
X182276966Y-131007961D01*
X182340328Y-131080594D01*
X182402763Y-131153955D01*
X182409296Y-131159654D01*
X182409300Y-131159658D01*
X182409305Y-131159661D01*
X182845759Y-131535734D01*
X182926942Y-131587653D01*
X183007475Y-131640554D01*
X183015346Y-131644190D01*
X183015349Y-131644192D01*
X183015352Y-131644193D01*
X183539817Y-131882653D01*
X183632309Y-131909700D01*
X183694000Y-131928561D01*
X183694001Y-139903412D01*
X183633910Y-140323009D01*
X183479619Y-140662352D01*
X183236288Y-140944752D01*
X182923479Y-141147506D01*
X182542815Y-141261348D01*
X182345649Y-141276000D01*
X126028667Y-141276000D01*
X125530301Y-141213042D01*
X125105111Y-141044697D01*
X124735141Y-140775899D01*
X124443645Y-140423541D01*
X124248933Y-140009756D01*
X124156907Y-139527339D01*
X124154000Y-139434836D01*
X124154000Y-131928719D01*
X124239509Y-131902577D01*
X124331967Y-131875540D01*
X124339841Y-131871902D01*
X124861356Y-131627052D01*
X124941925Y-131574128D01*
X125023073Y-131522232D01*
X125029610Y-131516530D01*
X125461442Y-131135149D01*
X125523887Y-131061776D01*
X125587240Y-130989153D01*
X125591913Y-130981846D01*
X125899346Y-130494593D01*
X125938687Y-130406645D01*
X125979111Y-130319160D01*
X125981545Y-130310835D01*
X126139866Y-129756882D01*
X126152943Y-129661421D01*
X126167187Y-129566111D01*
X126167187Y-129557436D01*
X126163667Y-128981313D01*
X126149414Y-128885943D01*
X126136346Y-128790544D01*
X126133912Y-128782219D01*
X125968836Y-128230241D01*
X125928418Y-128142769D01*
X125889071Y-128054806D01*
X125884397Y-128047499D01*
X125571034Y-127564040D01*
X125507707Y-127491447D01*
X125445237Y-127418045D01*
X125438700Y-127412343D01*
X125002241Y-127036266D01*
X124921058Y-126984347D01*
X124840525Y-126931446D01*
X124832654Y-126927810D01*
X124832651Y-126927808D01*
X124832648Y-126927807D01*
X124308183Y-126689347D01*
X124215691Y-126662300D01*
X124154000Y-126643439D01*
X124154000Y-116582623D01*
X124461518Y-116710001D01*
X125016484Y-116710001D01*
X125529205Y-116497625D01*
X125921625Y-116105205D01*
X126009001Y-115894261D01*
X126096377Y-116105205D01*
X126488797Y-116497625D01*
X127001518Y-116710001D01*
X127556484Y-116710001D01*
X128069205Y-116497625D01*
X128461625Y-116105205D01*
X128549001Y-115894261D01*
X128636377Y-116105205D01*
X129028797Y-116497625D01*
X129541518Y-116710001D01*
X130096484Y-116710001D01*
X130609205Y-116497625D01*
X131001625Y-116105205D01*
X131089001Y-115894261D01*
X131176377Y-116105205D01*
X131568797Y-116497625D01*
X132081518Y-116710001D01*
X132636484Y-116710001D01*
X133149205Y-116497625D01*
X133541625Y-116105205D01*
X133629001Y-115894261D01*
X133716377Y-116105205D01*
X134108797Y-116497625D01*
X134621518Y-116710001D01*
X135176484Y-116710001D01*
X135689205Y-116497625D01*
X136081625Y-116105205D01*
X136169001Y-115894261D01*
X136256377Y-116105205D01*
X136648797Y-116497625D01*
X137161518Y-116710001D01*
X137716484Y-116710001D01*
X138229205Y-116497625D01*
X138621625Y-116105205D01*
X138709001Y-115894261D01*
X138796377Y-116105205D01*
X139188797Y-116497625D01*
X139701518Y-116710001D01*
X140256484Y-116710001D01*
X140769205Y-116497625D01*
X141161625Y-116105205D01*
X141249001Y-115894261D01*
X141336377Y-116105205D01*
X141728797Y-116497625D01*
X142241518Y-116710001D01*
X142796484Y-116710001D01*
X143309205Y-116497625D01*
X143701625Y-116105205D01*
X143789001Y-115894261D01*
X143876377Y-116105205D01*
X144268797Y-116497625D01*
X144781518Y-116710001D01*
X145336484Y-116710001D01*
X145849205Y-116497625D01*
X146241625Y-116105205D01*
X146329001Y-115894261D01*
X146416377Y-116105205D01*
X146808797Y-116497625D01*
X147321518Y-116710001D01*
X147876484Y-116710001D01*
X148389205Y-116497625D01*
X148781625Y-116105205D01*
X148994001Y-115592484D01*
X148994001Y-115037518D01*
X148781625Y-114524797D01*
X148389205Y-114132377D01*
X148178261Y-114045001D01*
X148389205Y-113957625D01*
X148781625Y-113565205D01*
X148994001Y-113052484D01*
X148994001Y-112497518D01*
X148803663Y-112038002D01*
X159412955Y-112038002D01*
X159487998Y-112052929D01*
X159563041Y-112038002D01*
X159563046Y-112038002D01*
X159785315Y-111993790D01*
X160037369Y-111825373D01*
X160079881Y-111761749D01*
X163807750Y-108033881D01*
X163871371Y-107991371D01*
X164039788Y-107739317D01*
X164084000Y-107517048D01*
X164084000Y-107517047D01*
X164098928Y-107442000D01*
X164084000Y-107366953D01*
X164084000Y-91945744D01*
X164222569Y-92280280D01*
X164513720Y-92571431D01*
X164894126Y-92729000D01*
X165305874Y-92729000D01*
X165686280Y-92571431D01*
X165801711Y-92456000D01*
X170103513Y-92456000D01*
X170410119Y-92583000D01*
X170965881Y-92583000D01*
X171479337Y-92370320D01*
X171863090Y-91986567D01*
X176964000Y-91986567D01*
X176964000Y-92925433D01*
X177323289Y-93792833D01*
X177987167Y-94456711D01*
X178854567Y-94816000D01*
X179793433Y-94816000D01*
X180660833Y-94456711D01*
X181324711Y-93792833D01*
X181684000Y-92925433D01*
X181684000Y-91986567D01*
X181324711Y-91119167D01*
X180660833Y-90455289D01*
X179793433Y-90096000D01*
X178854567Y-90096000D01*
X177987167Y-90455289D01*
X177323289Y-91119167D01*
X176964000Y-91986567D01*
X171863090Y-91986567D01*
X171872320Y-91977337D01*
X172085000Y-91463881D01*
X172085000Y-90908119D01*
X171872320Y-90394663D01*
X171479337Y-90001680D01*
X171272487Y-89916000D01*
X171479337Y-89830320D01*
X171872320Y-89437337D01*
X172085000Y-88923881D01*
X172085000Y-88368119D01*
X171872320Y-87854663D01*
X171479337Y-87461680D01*
X171272487Y-87376000D01*
X171479337Y-87290320D01*
X171872320Y-86897337D01*
X172085000Y-86383881D01*
X172085000Y-85828119D01*
X171872320Y-85314663D01*
X171479337Y-84921680D01*
X171272487Y-84836000D01*
X171479337Y-84750320D01*
X171872320Y-84357337D01*
X172085000Y-83843881D01*
X172085000Y-83288119D01*
X171872320Y-82774663D01*
X171479337Y-82381680D01*
X171272487Y-82296000D01*
X171479337Y-82210320D01*
X171872320Y-81817337D01*
X172085000Y-81303881D01*
X172085000Y-80748119D01*
X171872320Y-80234663D01*
X171479337Y-79841680D01*
X170965881Y-79629000D01*
X170410119Y-79629000D01*
X169896663Y-79841680D01*
X169503680Y-80234663D01*
X169291000Y-80748119D01*
X169291000Y-81303881D01*
X169503680Y-81817337D01*
X169896663Y-82210320D01*
X170103513Y-82296000D01*
X169896663Y-82381680D01*
X169503680Y-82774663D01*
X169291000Y-83288119D01*
X169291000Y-83631370D01*
X168575120Y-82915490D01*
X168604078Y-82872152D01*
X168671440Y-82533500D01*
X168671440Y-82058500D01*
X168604078Y-81719848D01*
X168412247Y-81432753D01*
X168261000Y-81331693D01*
X168261000Y-79286567D01*
X176964000Y-79286567D01*
X176964000Y-80225433D01*
X177323289Y-81092833D01*
X177987167Y-81756711D01*
X178854567Y-82116000D01*
X179793433Y-82116000D01*
X180660833Y-81756711D01*
X181324711Y-81092833D01*
X181684000Y-80225433D01*
X181684000Y-79286567D01*
X181324711Y-78419167D01*
X180660833Y-77755289D01*
X179793433Y-77396000D01*
X178854567Y-77396000D01*
X177987167Y-77755289D01*
X177323289Y-78419167D01*
X176964000Y-79286567D01*
X168261000Y-79286567D01*
X168261000Y-79182042D01*
X168275927Y-79106999D01*
X168261000Y-79031956D01*
X168261000Y-79031952D01*
X168216788Y-78809683D01*
X168048371Y-78557629D01*
X167984747Y-78515117D01*
X167723884Y-78254254D01*
X167681371Y-78190629D01*
X167429317Y-78022212D01*
X167207048Y-77978000D01*
X167207043Y-77978000D01*
X167132000Y-77963073D01*
X167056957Y-77978000D01*
X165755856Y-77978000D01*
X165881000Y-77675874D01*
X165881000Y-77512630D01*
X171173750Y-72219881D01*
X171237371Y-72177371D01*
X171405788Y-71925317D01*
X171450000Y-71703048D01*
X171450000Y-71703047D01*
X171464928Y-71628000D01*
X171450000Y-71552953D01*
X171450000Y-69014472D01*
X171479337Y-69002320D01*
X171863090Y-68618567D01*
X176964000Y-68618567D01*
X176964000Y-69557433D01*
X177323289Y-70424833D01*
X177987167Y-71088711D01*
X178854567Y-71448000D01*
X179793433Y-71448000D01*
X180660833Y-71088711D01*
X181324711Y-70424833D01*
X181684000Y-69557433D01*
X181684000Y-68618567D01*
X181324711Y-67751167D01*
X180660833Y-67087289D01*
X179793433Y-66728000D01*
X178854567Y-66728000D01*
X177987167Y-67087289D01*
X177323289Y-67751167D01*
X176964000Y-68618567D01*
X171863090Y-68618567D01*
X171872320Y-68609337D01*
X172085000Y-68095881D01*
X172085000Y-67540119D01*
X171872320Y-67026663D01*
X171479337Y-66633680D01*
X171272487Y-66548000D01*
X171479337Y-66462320D01*
X171872320Y-66069337D01*
X172085000Y-65555881D01*
X172085000Y-65000119D01*
X171872320Y-64486663D01*
X171479337Y-64093680D01*
X171272487Y-64008000D01*
X171479337Y-63922320D01*
X171872320Y-63529337D01*
X172085000Y-63015881D01*
X172085000Y-62460119D01*
X171872320Y-61946663D01*
X171479337Y-61553680D01*
X171272487Y-61468000D01*
X171479337Y-61382320D01*
X171872320Y-60989337D01*
X172085000Y-60475881D01*
X172085000Y-59920119D01*
X171872320Y-59406663D01*
X171479337Y-59013680D01*
X171272487Y-58928000D01*
X171479337Y-58842320D01*
X171872320Y-58449337D01*
X172085000Y-57935881D01*
X172085000Y-57380119D01*
X171872320Y-56866663D01*
X171479337Y-56473680D01*
X170965881Y-56261000D01*
X170410119Y-56261000D01*
X169896663Y-56473680D01*
X169503680Y-56866663D01*
X169291000Y-57380119D01*
X169291000Y-57935881D01*
X169503680Y-58449337D01*
X169896663Y-58842320D01*
X170103513Y-58928000D01*
X169896663Y-59013680D01*
X169503680Y-59406663D01*
X169291000Y-59920119D01*
X169291000Y-60475881D01*
X169503680Y-60989337D01*
X169896663Y-61382320D01*
X170103513Y-61468000D01*
X169896663Y-61553680D01*
X169503680Y-61946663D01*
X169491528Y-61976000D01*
X165923631Y-61976000D01*
X163764630Y-59817000D01*
X164107881Y-59817000D01*
X164621337Y-59604320D01*
X165014320Y-59211337D01*
X165227000Y-58697881D01*
X165227000Y-58142119D01*
X165014320Y-57628663D01*
X164621337Y-57235680D01*
X164592278Y-57223644D01*
X164606927Y-57150000D01*
X164592000Y-57074957D01*
X164592000Y-57074952D01*
X164547788Y-56852683D01*
X164379371Y-56600629D01*
X164315749Y-56558118D01*
X163676198Y-55918567D01*
X176964000Y-55918567D01*
X176964000Y-56857433D01*
X177323289Y-57724833D01*
X177987167Y-58388711D01*
X178854567Y-58748000D01*
X179793433Y-58748000D01*
X180660833Y-58388711D01*
X181324711Y-57724833D01*
X181684000Y-56857433D01*
X181684000Y-55918567D01*
X181324711Y-55051167D01*
X180660833Y-54387289D01*
X179793433Y-54028000D01*
X178854567Y-54028000D01*
X177987167Y-54387289D01*
X177323289Y-55051167D01*
X176964000Y-55918567D01*
X163676198Y-55918567D01*
X161373883Y-53616253D01*
X161331371Y-53552629D01*
X161079317Y-53384212D01*
X160857048Y-53340000D01*
X160857043Y-53340000D01*
X160782000Y-53325073D01*
X160706957Y-53340000D01*
X143218042Y-53340000D01*
X143142999Y-53325073D01*
X143067956Y-53340000D01*
X143067952Y-53340000D01*
X142845683Y-53384212D01*
X142845682Y-53384213D01*
X142845681Y-53384213D01*
X142657251Y-53510118D01*
X142593629Y-53552629D01*
X142551118Y-53616251D01*
X141917810Y-54249560D01*
X141828191Y-54249560D01*
X138528883Y-50950253D01*
X138486371Y-50886629D01*
X138234317Y-50718212D01*
X138012048Y-50674000D01*
X138012043Y-50674000D01*
X137937000Y-50659073D01*
X137861957Y-50674000D01*
X136242365Y-50674000D01*
X135813035Y-49637507D01*
X134919893Y-48744365D01*
X133752947Y-48261000D01*
X132489853Y-48261000D01*
X131322907Y-48744365D01*
X130429765Y-49637507D01*
X129946400Y-50804453D01*
X129946400Y-52067547D01*
X130429765Y-53234493D01*
X131322907Y-54127635D01*
X132489853Y-54611000D01*
X133752947Y-54611000D01*
X134919893Y-54127635D01*
X135813035Y-53234493D01*
X136242365Y-52198000D01*
X137621370Y-52198000D01*
X140700560Y-55277191D01*
X140700560Y-55609500D01*
X140767922Y-55948152D01*
X140959753Y-56235247D01*
X141246848Y-56427078D01*
X141449902Y-56467468D01*
X141105254Y-56812116D01*
X141105251Y-56812118D01*
X141105248Y-56812121D01*
X141041630Y-56854629D01*
X140999121Y-56918248D01*
X139242370Y-58675000D01*
X136242365Y-58675000D01*
X135813035Y-57638507D01*
X134919893Y-56745365D01*
X133752947Y-56262000D01*
X132489853Y-56262000D01*
X131322907Y-56745365D01*
X130429765Y-57638507D01*
X129946400Y-58805453D01*
X129946400Y-60068547D01*
X130429765Y-61235493D01*
X131322907Y-62128635D01*
X132489853Y-62612000D01*
X133752947Y-62612000D01*
X134919893Y-62128635D01*
X135813035Y-61235493D01*
X136242365Y-60199000D01*
X139482957Y-60199000D01*
X139558000Y-60213927D01*
X139633043Y-60199000D01*
X139633048Y-60199000D01*
X139855317Y-60154788D01*
X140107371Y-59986371D01*
X140149883Y-59922747D01*
X140829001Y-59243630D01*
X140829000Y-61265693D01*
X140716000Y-61341197D01*
X140467152Y-61174922D01*
X140128500Y-61107560D01*
X139553500Y-61107560D01*
X139214848Y-61174922D01*
X138927753Y-61366753D01*
X138735922Y-61653848D01*
X138668560Y-61992500D01*
X138668560Y-62467500D01*
X138735922Y-62806152D01*
X138927753Y-63093247D01*
X139075849Y-63192202D01*
X139123213Y-63430317D01*
X139179748Y-63514927D01*
X139291630Y-63682371D01*
X139355251Y-63724881D01*
X139935000Y-64304631D01*
X139935000Y-64467874D01*
X140092569Y-64848280D01*
X140383720Y-65139431D01*
X140764126Y-65297000D01*
X141175874Y-65297000D01*
X141556280Y-65139431D01*
X141847431Y-64848280D01*
X142005000Y-64467874D01*
X142005000Y-64056126D01*
X141847431Y-63675720D01*
X141556280Y-63384569D01*
X141478714Y-63352440D01*
X141878500Y-63352440D01*
X142217152Y-63285078D01*
X142504247Y-63093247D01*
X142571898Y-62992000D01*
X150114000Y-62992000D01*
X150114001Y-65583692D01*
X150001000Y-65659197D01*
X149752152Y-65492922D01*
X149413500Y-65425560D01*
X148838500Y-65425560D01*
X148499848Y-65492922D01*
X148212753Y-65684753D01*
X148020922Y-65971848D01*
X147953560Y-66310500D01*
X147953560Y-66785500D01*
X148020922Y-67124152D01*
X148212753Y-67411247D01*
X148499848Y-67603078D01*
X148838500Y-67670440D01*
X149170810Y-67670440D01*
X150312118Y-68811749D01*
X150354629Y-68875371D01*
X150606683Y-69043788D01*
X150828952Y-69088000D01*
X150828953Y-69088000D01*
X150904000Y-69102928D01*
X150979047Y-69088000D01*
X154940001Y-69088000D01*
X154940000Y-76378957D01*
X154925073Y-76454000D01*
X154940000Y-76529043D01*
X154940000Y-76529047D01*
X154984212Y-76751316D01*
X155152629Y-77003371D01*
X155216253Y-77045883D01*
X155327930Y-77157560D01*
X154190000Y-77157560D01*
X154086732Y-77178101D01*
X152876883Y-75968253D01*
X152834371Y-75904629D01*
X152582317Y-75736212D01*
X152360048Y-75692000D01*
X152360043Y-75692000D01*
X152285000Y-75677073D01*
X152209957Y-75692000D01*
X137997048Y-75692000D01*
X137922000Y-75677072D01*
X137846952Y-75692000D01*
X137624683Y-75736212D01*
X137372629Y-75904629D01*
X137204212Y-76156683D01*
X137145072Y-76454000D01*
X137160000Y-76529047D01*
X137160000Y-76674369D01*
X136724810Y-77109560D01*
X136392500Y-77109560D01*
X136053848Y-77176922D01*
X135766753Y-77368753D01*
X135574922Y-77655848D01*
X135507560Y-77994500D01*
X135507560Y-78469500D01*
X135574922Y-78808152D01*
X135766753Y-79095247D01*
X136053848Y-79287078D01*
X136392500Y-79354440D01*
X136967500Y-79354440D01*
X137306152Y-79287078D01*
X137555000Y-79120803D01*
X137803848Y-79287078D01*
X138142500Y-79354440D01*
X138717500Y-79354440D01*
X139036381Y-79291011D01*
X140876118Y-81130749D01*
X140890986Y-81153000D01*
X138152042Y-81153000D01*
X138076999Y-81138073D01*
X138001956Y-81153000D01*
X138001952Y-81153000D01*
X137779683Y-81197212D01*
X137779682Y-81197213D01*
X137779681Y-81197213D01*
X137714266Y-81240922D01*
X137527629Y-81365629D01*
X137485118Y-81429251D01*
X136724810Y-82189560D01*
X136392500Y-82189560D01*
X136053848Y-82256922D01*
X135766753Y-82448753D01*
X135574922Y-82735848D01*
X135507560Y-83074500D01*
X135507560Y-83549500D01*
X135574922Y-83888152D01*
X135766753Y-84175247D01*
X136053848Y-84367078D01*
X136392500Y-84434440D01*
X136967500Y-84434440D01*
X137306152Y-84367078D01*
X137555000Y-84200803D01*
X137803848Y-84367078D01*
X138142500Y-84434440D01*
X138717500Y-84434440D01*
X139056152Y-84367078D01*
X139343247Y-84175247D01*
X139410898Y-84074000D01*
X153558672Y-84074000D01*
X153542560Y-84155000D01*
X153542560Y-84755000D01*
X153591843Y-85002765D01*
X153650132Y-85090000D01*
X153591843Y-85177235D01*
X153542560Y-85425000D01*
X153542560Y-86025000D01*
X153591843Y-86272765D01*
X153650132Y-86360000D01*
X153591843Y-86447235D01*
X153542560Y-86695000D01*
X153542560Y-87295000D01*
X153591843Y-87542765D01*
X153732191Y-87752809D01*
X153942235Y-87893157D01*
X154178000Y-87940053D01*
X154178001Y-88570952D01*
X154163073Y-88646000D01*
X154222213Y-88943317D01*
X154337146Y-89115326D01*
X154390630Y-89195371D01*
X154454251Y-89237881D01*
X157396118Y-92179749D01*
X157438629Y-92243371D01*
X157690683Y-92411788D01*
X157912952Y-92456000D01*
X157912957Y-92456000D01*
X157988000Y-92470927D01*
X158063043Y-92456000D01*
X159826289Y-92456000D01*
X159941720Y-92571431D01*
X160322126Y-92729000D01*
X160733874Y-92729000D01*
X161114280Y-92571431D01*
X161405431Y-92280280D01*
X161544000Y-91945744D01*
X161544001Y-106618368D01*
X158688370Y-109474000D01*
X137513049Y-109474000D01*
X137438002Y-109459072D01*
X137362955Y-109474000D01*
X137362954Y-109474000D01*
X137140685Y-109518212D01*
X136888631Y-109686629D01*
X136846120Y-109750251D01*
X135204688Y-111391684D01*
X135176484Y-111380001D01*
X134621518Y-111380001D01*
X134108797Y-111592377D01*
X133716377Y-111984797D01*
X133629001Y-112195741D01*
X133541625Y-111984797D01*
X133149205Y-111592377D01*
X132636484Y-111380001D01*
X132081518Y-111380001D01*
X131568797Y-111592377D01*
X131176377Y-111984797D01*
X131089001Y-112195741D01*
X131001625Y-111984797D01*
X130609205Y-111592377D01*
X130096484Y-111380001D01*
X129541518Y-111380001D01*
X129028797Y-111592377D01*
X128636377Y-111984797D01*
X128424001Y-112497518D01*
X128424001Y-113052484D01*
X128636377Y-113565205D01*
X129028797Y-113957625D01*
X129239741Y-114045001D01*
X129028797Y-114132377D01*
X128636377Y-114524797D01*
X128549001Y-114735741D01*
X128461625Y-114524797D01*
X128069205Y-114132377D01*
X127556484Y-113920001D01*
X127001518Y-113920001D01*
X126488797Y-114132377D01*
X126096377Y-114524797D01*
X126009001Y-114735741D01*
X125921625Y-114524797D01*
X125529205Y-114132377D01*
X125318261Y-114045001D01*
X125529205Y-113957625D01*
X125921625Y-113565205D01*
X126134001Y-113052484D01*
X126134001Y-112497518D01*
X125921625Y-111984797D01*
X125529205Y-111592377D01*
X125016484Y-111380001D01*
X124461518Y-111380001D01*
X124154000Y-111507379D01*
X124154000Y-73402623D01*
X124461518Y-73530001D01*
X125016484Y-73530001D01*
X125529205Y-73317625D01*
X125921625Y-72925205D01*
X126009001Y-72714261D01*
X126096377Y-72925205D01*
X126488797Y-73317625D01*
X127001518Y-73530001D01*
X127556484Y-73530001D01*
X128069205Y-73317625D01*
X128461625Y-72925205D01*
X128549001Y-72714261D01*
X128636377Y-72925205D01*
X129028797Y-73317625D01*
X129541518Y-73530001D01*
X130096484Y-73530001D01*
X130609205Y-73317625D01*
X131001625Y-72925205D01*
X131089001Y-72714261D01*
X131176377Y-72925205D01*
X131568797Y-73317625D01*
X132081518Y-73530001D01*
X132636484Y-73530001D01*
X133149205Y-73317625D01*
X133541625Y-72925205D01*
X133629001Y-72714261D01*
X133716377Y-72925205D01*
X134108797Y-73317625D01*
X134621518Y-73530001D01*
X135176484Y-73530001D01*
X135689205Y-73317625D01*
X136081625Y-72925205D01*
X136169001Y-72714261D01*
X136256377Y-72925205D01*
X136648797Y-73317625D01*
X137161518Y-73530001D01*
X137716484Y-73530001D01*
X138229205Y-73317625D01*
X138621625Y-72925205D01*
X138709001Y-72714261D01*
X138796377Y-72925205D01*
X139188797Y-73317625D01*
X139701518Y-73530001D01*
X140256484Y-73530001D01*
X140769205Y-73317625D01*
X141161625Y-72925205D01*
X141249001Y-72714261D01*
X141336377Y-72925205D01*
X141728797Y-73317625D01*
X142241518Y-73530001D01*
X142796484Y-73530001D01*
X143309205Y-73317625D01*
X143701625Y-72925205D01*
X143789001Y-72714261D01*
X143876377Y-72925205D01*
X144268797Y-73317625D01*
X144781518Y-73530001D01*
X145336484Y-73530001D01*
X145849205Y-73317625D01*
X146241625Y-72925205D01*
X146329001Y-72714261D01*
X146416377Y-72925205D01*
X146808797Y-73317625D01*
X147321518Y-73530001D01*
X147876484Y-73530001D01*
X148389205Y-73317625D01*
X148781625Y-72925205D01*
X148994001Y-72412484D01*
X148994001Y-71857518D01*
X148781625Y-71344797D01*
X148389205Y-70952377D01*
X148178261Y-70865001D01*
X148389205Y-70777625D01*
X148781625Y-70385205D01*
X148994001Y-69872484D01*
X148994001Y-69317518D01*
X148781625Y-68804797D01*
X148389205Y-68412377D01*
X147876484Y-68200001D01*
X147321518Y-68200001D01*
X146808797Y-68412377D01*
X146416377Y-68804797D01*
X146329001Y-69015741D01*
X146241625Y-68804797D01*
X145849205Y-68412377D01*
X145336484Y-68200001D01*
X144781518Y-68200001D01*
X144268797Y-68412377D01*
X143876377Y-68804797D01*
X143789001Y-69015741D01*
X143701625Y-68804797D01*
X143309205Y-68412377D01*
X142796484Y-68200001D01*
X142241518Y-68200001D01*
X141728797Y-68412377D01*
X141336377Y-68804797D01*
X141249001Y-69015741D01*
X141161625Y-68804797D01*
X140769205Y-68412377D01*
X140256484Y-68200001D01*
X139701518Y-68200001D01*
X139188797Y-68412377D01*
X138796377Y-68804797D01*
X138709001Y-69015741D01*
X138621625Y-68804797D01*
X138229205Y-68412377D01*
X137716484Y-68200001D01*
X137161518Y-68200001D01*
X136648797Y-68412377D01*
X136256377Y-68804797D01*
X136169001Y-69015741D01*
X136081625Y-68804797D01*
X135689205Y-68412377D01*
X135176484Y-68200001D01*
X134621518Y-68200001D01*
X134108797Y-68412377D01*
X133716377Y-68804797D01*
X133629001Y-69015741D01*
X133541625Y-68804797D01*
X133149205Y-68412377D01*
X132636484Y-68200001D01*
X132081518Y-68200001D01*
X131568797Y-68412377D01*
X131176377Y-68804797D01*
X131089001Y-69015741D01*
X131001625Y-68804797D01*
X130609205Y-68412377D01*
X130096484Y-68200001D01*
X129541518Y-68200001D01*
X129028797Y-68412377D01*
X128636377Y-68804797D01*
X128549001Y-69015741D01*
X128461625Y-68804797D01*
X128069205Y-68412377D01*
X127556484Y-68200001D01*
X127001518Y-68200001D01*
X126488797Y-68412377D01*
X126096377Y-68804797D01*
X125884001Y-69317518D01*
X125884001Y-69872484D01*
X126096377Y-70385205D01*
X126488797Y-70777625D01*
X126699741Y-70865001D01*
X126488797Y-70952377D01*
X126096377Y-71344797D01*
X126009001Y-71555741D01*
X125921625Y-71344797D01*
X125529205Y-70952377D01*
X125016484Y-70740001D01*
X124461518Y-70740001D01*
X124154000Y-70867379D01*
X124154000Y-42620000D01*
X183694001Y-42620000D01*
X183694000Y-94183419D01*
G04 #@! TD*
M02*
