M48
;DRILL file {KiCad (5.0.0)} date 09/29/18 15:14:34
;FORMAT={-:-/ absolute / inch / decimal}
FMAT,2
INCH,TZ
T1C0.0157
T2C0.0300
T3C0.0350
T4C0.0394
T5C0.1598
%
G90
G05
M72
T1
X4.911Y-4.44
X4.94Y-4.33
X5.54Y-2.39
X5.65Y-2.39
X6.2Y-3.31
X6.252Y-3.048
X6.41Y-3.27
T2
X5.39Y-3.61
X5.39Y-3.71
X5.39Y-3.81
X5.39Y-3.91
X5.39Y-4.01
X6.72Y-2.27
X6.72Y-2.37
X6.72Y-2.47
X6.72Y-2.57
X6.72Y-2.67
T3
X6.25Y-2.3
X6.35Y-2.3
X6.45Y-2.3
T4
X4.911Y-2.74
X4.911Y-2.84
X4.911Y-4.44
X4.911Y-4.54
X5.011Y-2.74
X5.011Y-2.84
X5.011Y-4.44
X5.011Y-4.54
X5.111Y-2.74
X5.111Y-2.84
X5.111Y-4.44
X5.111Y-4.54
X5.211Y-2.74
X5.211Y-2.84
X5.211Y-4.44
X5.211Y-4.54
X5.311Y-2.74
X5.311Y-2.84
X5.311Y-4.44
X5.311Y-4.54
X5.411Y-2.74
X5.411Y-2.84
X5.411Y-4.44
X5.411Y-4.54
X5.511Y-2.74
X5.511Y-2.84
X5.511Y-4.44
X5.511Y-4.54
X5.611Y-2.74
X5.611Y-2.84
X5.611Y-4.44
X5.611Y-4.54
X5.711Y-2.74
X5.711Y-2.84
X5.711Y-4.44
X5.711Y-4.54
X5.811Y-2.74
X5.811Y-2.84
X5.811Y-4.44
X5.811Y-4.54
T5
X5.241Y-2.025
X5.241Y-2.34
T0
M30
