G04 #@! TF.GenerationSoftware,KiCad,Pcbnew,(5.0.0)*
G04 #@! TF.CreationDate,2018-09-29T15:14:27-05:00*
G04 #@! TF.ProjectId,2018Training,32303138547261696E696E672E6B6963,rev?*
G04 #@! TF.SameCoordinates,Original*
G04 #@! TF.FileFunction,Copper,L2,Bot,Signal*
G04 #@! TF.FilePolarity,Positive*
%FSLAX46Y46*%
G04 Gerber Fmt 4.6, Leading zero omitted, Abs format (unit mm)*
G04 Created by KiCad (PCBNEW (5.0.0)) date 09/29/18 15:14:27*
%MOMM*%
%LPD*%
G01*
G04 APERTURE LIST*
G04 #@! TA.AperFunction,ComponentPad*
%ADD10C,1.524000*%
G04 #@! TD*
G04 #@! TA.AperFunction,ComponentPad*
%ADD11C,5.080000*%
G04 #@! TD*
G04 #@! TA.AperFunction,ComponentPad*
%ADD12C,1.520000*%
G04 #@! TD*
G04 #@! TA.AperFunction,ViaPad*
%ADD13C,0.800000*%
G04 #@! TD*
G04 #@! TA.AperFunction,Conductor*
%ADD14C,0.250000*%
G04 #@! TD*
G04 APERTURE END LIST*
D10*
G04 #@! TO.P,Conn2,1*
G04 #@! TO.N,Net-(Conn2-Pad1)*
X170688000Y-57658000D03*
G04 #@! TO.P,Conn2,2*
G04 #@! TO.N,Net-(Conn2-Pad2)*
X170688000Y-60198000D03*
G04 #@! TO.P,Conn2,3*
G04 #@! TO.N,Net-(C1-Pad2)*
X170688000Y-62738000D03*
G04 #@! TO.P,Conn2,4*
G04 #@! TO.N,Net-(Conn2-Pad4)*
X170688000Y-65278000D03*
G04 #@! TO.P,Conn2,5*
G04 #@! TO.N,Net-(Conn2-Pad5)*
X170688000Y-67818000D03*
G04 #@! TD*
D11*
G04 #@! TO.P,Conn1,1*
G04 #@! TO.N,Net-(C1-Pad2)*
X133121400Y-59437000D03*
G04 #@! TO.P,Conn1,2*
G04 #@! TO.N,Net-(C1-Pad1)*
X133121400Y-51436000D03*
G04 #@! TD*
D10*
G04 #@! TO.P,Conn3,5*
G04 #@! TO.N,Net-(Conn3-Pad5)*
X136906000Y-91694000D03*
G04 #@! TO.P,Conn3,4*
G04 #@! TO.N,Net-(Conn3-Pad4)*
X136906000Y-94234000D03*
G04 #@! TO.P,Conn3,3*
G04 #@! TO.N,Net-(C1-Pad2)*
X136906000Y-96774000D03*
G04 #@! TO.P,Conn3,2*
G04 #@! TO.N,Net-(Conn3-Pad2)*
X136906000Y-99314000D03*
G04 #@! TO.P,Conn3,1*
G04 #@! TO.N,Net-(Conn3-Pad1)*
X136906000Y-101854000D03*
G04 #@! TD*
D12*
G04 #@! TO.P,U1,+3V3*
G04 #@! TO.N,Net-(U1-Pad+3V3)*
X124739001Y-115315001D03*
G04 #@! TO.P,U1,PM6*
G04 #@! TO.N,N/C*
X147599001Y-69595001D03*
G04 #@! TO.P,U1,PQ1*
X145059001Y-69595001D03*
G04 #@! TO.P,U1,PQ2*
X137439001Y-69595001D03*
G04 #@! TO.P,U1,PK0*
G04 #@! TO.N,/Serial4*
X134899001Y-112775001D03*
G04 #@! TO.P,U1,PQ3*
G04 #@! TO.N,N/C*
X139979001Y-69595001D03*
G04 #@! TO.P,U1,PP3*
X142519001Y-69595001D03*
G04 #@! TO.P,U1,PQ0*
X139979001Y-115315001D03*
G04 #@! TO.P,U1,PA4*
G04 #@! TO.N,Net-(U1-PadPA4)*
X145059001Y-112775001D03*
G04 #@! TO.P,U1,Rese*
G04 #@! TO.N,N/C*
X134899001Y-69595001D03*
G04 #@! TO.P,U1,PA7*
X132359001Y-69595001D03*
G04 #@! TO.P,U1,PN5*
X145059001Y-115315001D03*
G04 #@! TO.P,U1,PK2*
G04 #@! TO.N,Net-(U1-PadPK2)*
X139979001Y-112775001D03*
G04 #@! TO.P,U1,PK1*
G04 #@! TO.N,Net-(U1-PadPK1)*
X137439001Y-112775001D03*
G04 #@! TO.P,U1,+5V*
G04 #@! TO.N,Net-(C2-Pad1)*
X124739001Y-112775001D03*
G04 #@! TO.P,U1,GND*
G04 #@! TO.N,Net-(U1-PadGND)*
X127279001Y-112775001D03*
G04 #@! TO.P,U1,PB4*
G04 #@! TO.N,Net-(U1-PadPB4)*
X129819001Y-112775001D03*
G04 #@! TO.P,U1,PB5*
G04 #@! TO.N,Net-(U1-PadPB5)*
X132359001Y-112775001D03*
G04 #@! TO.P,U1,PK3*
G04 #@! TO.N,Net-(U1-PadPK3)*
X142519001Y-112775001D03*
G04 #@! TO.P,U1,PA5*
G04 #@! TO.N,Net-(U1-PadPA5)*
X147599001Y-112775001D03*
G04 #@! TO.P,U1,PD2*
G04 #@! TO.N,N/C*
X127279001Y-115315001D03*
G04 #@! TO.P,U1,PP0*
X129819001Y-115315001D03*
G04 #@! TO.P,U1,PP1*
X132359001Y-115315001D03*
G04 #@! TO.P,U1,PD4*
X134899001Y-115315001D03*
G04 #@! TO.P,U1,PD5*
X137439001Y-115315001D03*
G04 #@! TO.P,U1,PP4*
X142519001Y-115315001D03*
G04 #@! TO.P,U1,PN4*
X147599001Y-115315001D03*
G04 #@! TO.P,U1,PG1*
X124739001Y-72135001D03*
G04 #@! TO.P,U1,PK4*
X127279001Y-72135001D03*
G04 #@! TO.P,U1,PK5*
X129819001Y-72135001D03*
G04 #@! TO.P,U1,PM0*
X132359001Y-72135001D03*
G04 #@! TO.P,U1,PM1*
X134899001Y-72135001D03*
G04 #@! TO.P,U1,PM2*
X137439001Y-72135001D03*
G04 #@! TO.P,U1,PH0*
X139979001Y-72135001D03*
G04 #@! TO.P,U1,PH1*
X142519001Y-72135001D03*
G04 #@! TO.P,U1,PK6*
X145059001Y-72135001D03*
G04 #@! TO.P,U1,PK7*
X147599001Y-72135001D03*
G04 #@! TO.P,U1,GND*
G04 #@! TO.N,Net-(U1-PadGND)*
X124739001Y-69595001D03*
G04 #@! TO.P,U1,PM7*
G04 #@! TO.N,N/C*
X127279001Y-69595001D03*
G04 #@! TO.P,U1,PP5*
X129819001Y-69595001D03*
G04 #@! TD*
D10*
G04 #@! TO.P,U2,1*
G04 #@! TO.N,Net-(C1-Pad1)*
X163830000Y-58420000D03*
G04 #@! TO.P,U2,2*
G04 #@! TO.N,Net-(C1-Pad2)*
X161290000Y-58420000D03*
G04 #@! TO.P,U2,3*
G04 #@! TO.N,Net-(C2-Pad1)*
X158750000Y-58420000D03*
G04 #@! TD*
D13*
G04 #@! TO.N,Net-(C2-Pad1)*
X124739001Y-112775001D03*
X140716000Y-60706000D03*
X143510000Y-60706000D03*
X158800153Y-77419847D03*
X125476000Y-109982000D03*
G04 #@! TO.N,Net-(C4-Pad2)*
X157480000Y-84074000D03*
X162814000Y-83058000D03*
G04 #@! TD*
D14*
G04 #@! TO.N,Net-(Conn2-Pad4)*
X171196000Y-64770000D02*
X170688000Y-65278000D01*
G04 #@! TO.N,Net-(C2-Pad1)*
X140716000Y-60706000D02*
X143510000Y-60706000D01*
X125476000Y-109135238D02*
X125476000Y-109982000D01*
X136384239Y-98226999D02*
X125476000Y-109135238D01*
X158800153Y-77419847D02*
X137993001Y-98226999D01*
X137993001Y-98226999D02*
X136384239Y-98226999D01*
G04 #@! TO.N,Net-(C4-Pad2)*
X157480000Y-84074000D02*
X161798000Y-84074000D01*
X161798000Y-84074000D02*
X162814000Y-83058000D01*
G04 #@! TD*
M02*
