G04 #@! TF.GenerationSoftware,KiCad,Pcbnew,(5.0.0)*
G04 #@! TF.CreationDate,2018-10-03T21:45:57-05:00*
G04 #@! TF.ProjectId,DriveBoard_Hardware,4472697665426F6172645F4861726477,rev?*
G04 #@! TF.SameCoordinates,Original*
G04 #@! TF.FileFunction,Soldermask,Top*
G04 #@! TF.FilePolarity,Negative*
%FSLAX46Y46*%
G04 Gerber Fmt 4.6, Leading zero omitted, Abs format (unit mm)*
G04 Created by KiCad (PCBNEW (5.0.0)) date 10/03/18 21:45:57*
%MOMM*%
%LPD*%
G01*
G04 APERTURE LIST*
%ADD10C,0.100000*%
%ADD11C,1.350000*%
%ADD12C,5.480000*%
%ADD13C,1.924000*%
%ADD14C,3.850000*%
%ADD15C,1.920000*%
%ADD16R,1.900000X1.000000*%
G04 APERTURE END LIST*
D10*
G04 #@! TO.C,C1*
G36*
X96065581Y-90766625D02*
X96098343Y-90771485D01*
X96130471Y-90779533D01*
X96161656Y-90790691D01*
X96191596Y-90804852D01*
X96220005Y-90821879D01*
X96246608Y-90841609D01*
X96271149Y-90863851D01*
X96293391Y-90888392D01*
X96313121Y-90914995D01*
X96330148Y-90943404D01*
X96344309Y-90973344D01*
X96355467Y-91004529D01*
X96363515Y-91036657D01*
X96368375Y-91069419D01*
X96370000Y-91102500D01*
X96370000Y-91777500D01*
X96368375Y-91810581D01*
X96363515Y-91843343D01*
X96355467Y-91875471D01*
X96344309Y-91906656D01*
X96330148Y-91936596D01*
X96313121Y-91965005D01*
X96293391Y-91991608D01*
X96271149Y-92016149D01*
X96246608Y-92038391D01*
X96220005Y-92058121D01*
X96191596Y-92075148D01*
X96161656Y-92089309D01*
X96130471Y-92100467D01*
X96098343Y-92108515D01*
X96065581Y-92113375D01*
X96032500Y-92115000D01*
X95257500Y-92115000D01*
X95224419Y-92113375D01*
X95191657Y-92108515D01*
X95159529Y-92100467D01*
X95128344Y-92089309D01*
X95098404Y-92075148D01*
X95069995Y-92058121D01*
X95043392Y-92038391D01*
X95018851Y-92016149D01*
X94996609Y-91991608D01*
X94976879Y-91965005D01*
X94959852Y-91936596D01*
X94945691Y-91906656D01*
X94934533Y-91875471D01*
X94926485Y-91843343D01*
X94921625Y-91810581D01*
X94920000Y-91777500D01*
X94920000Y-91102500D01*
X94921625Y-91069419D01*
X94926485Y-91036657D01*
X94934533Y-91004529D01*
X94945691Y-90973344D01*
X94959852Y-90943404D01*
X94976879Y-90914995D01*
X94996609Y-90888392D01*
X95018851Y-90863851D01*
X95043392Y-90841609D01*
X95069995Y-90821879D01*
X95098404Y-90804852D01*
X95128344Y-90790691D01*
X95159529Y-90779533D01*
X95191657Y-90771485D01*
X95224419Y-90766625D01*
X95257500Y-90765000D01*
X96032500Y-90765000D01*
X96065581Y-90766625D01*
X96065581Y-90766625D01*
G37*
D11*
X95645000Y-91440000D03*
D10*
G36*
X97815581Y-90766625D02*
X97848343Y-90771485D01*
X97880471Y-90779533D01*
X97911656Y-90790691D01*
X97941596Y-90804852D01*
X97970005Y-90821879D01*
X97996608Y-90841609D01*
X98021149Y-90863851D01*
X98043391Y-90888392D01*
X98063121Y-90914995D01*
X98080148Y-90943404D01*
X98094309Y-90973344D01*
X98105467Y-91004529D01*
X98113515Y-91036657D01*
X98118375Y-91069419D01*
X98120000Y-91102500D01*
X98120000Y-91777500D01*
X98118375Y-91810581D01*
X98113515Y-91843343D01*
X98105467Y-91875471D01*
X98094309Y-91906656D01*
X98080148Y-91936596D01*
X98063121Y-91965005D01*
X98043391Y-91991608D01*
X98021149Y-92016149D01*
X97996608Y-92038391D01*
X97970005Y-92058121D01*
X97941596Y-92075148D01*
X97911656Y-92089309D01*
X97880471Y-92100467D01*
X97848343Y-92108515D01*
X97815581Y-92113375D01*
X97782500Y-92115000D01*
X97007500Y-92115000D01*
X96974419Y-92113375D01*
X96941657Y-92108515D01*
X96909529Y-92100467D01*
X96878344Y-92089309D01*
X96848404Y-92075148D01*
X96819995Y-92058121D01*
X96793392Y-92038391D01*
X96768851Y-92016149D01*
X96746609Y-91991608D01*
X96726879Y-91965005D01*
X96709852Y-91936596D01*
X96695691Y-91906656D01*
X96684533Y-91875471D01*
X96676485Y-91843343D01*
X96671625Y-91810581D01*
X96670000Y-91777500D01*
X96670000Y-91102500D01*
X96671625Y-91069419D01*
X96676485Y-91036657D01*
X96684533Y-91004529D01*
X96695691Y-90973344D01*
X96709852Y-90943404D01*
X96726879Y-90914995D01*
X96746609Y-90888392D01*
X96768851Y-90863851D01*
X96793392Y-90841609D01*
X96819995Y-90821879D01*
X96848404Y-90804852D01*
X96878344Y-90790691D01*
X96909529Y-90779533D01*
X96941657Y-90771485D01*
X96974419Y-90766625D01*
X97007500Y-90765000D01*
X97782500Y-90765000D01*
X97815581Y-90766625D01*
X97815581Y-90766625D01*
G37*
D11*
X97395000Y-91440000D03*
G04 #@! TD*
D10*
G04 #@! TO.C,C2*
G36*
X97815581Y-103466625D02*
X97848343Y-103471485D01*
X97880471Y-103479533D01*
X97911656Y-103490691D01*
X97941596Y-103504852D01*
X97970005Y-103521879D01*
X97996608Y-103541609D01*
X98021149Y-103563851D01*
X98043391Y-103588392D01*
X98063121Y-103614995D01*
X98080148Y-103643404D01*
X98094309Y-103673344D01*
X98105467Y-103704529D01*
X98113515Y-103736657D01*
X98118375Y-103769419D01*
X98120000Y-103802500D01*
X98120000Y-104477500D01*
X98118375Y-104510581D01*
X98113515Y-104543343D01*
X98105467Y-104575471D01*
X98094309Y-104606656D01*
X98080148Y-104636596D01*
X98063121Y-104665005D01*
X98043391Y-104691608D01*
X98021149Y-104716149D01*
X97996608Y-104738391D01*
X97970005Y-104758121D01*
X97941596Y-104775148D01*
X97911656Y-104789309D01*
X97880471Y-104800467D01*
X97848343Y-104808515D01*
X97815581Y-104813375D01*
X97782500Y-104815000D01*
X97007500Y-104815000D01*
X96974419Y-104813375D01*
X96941657Y-104808515D01*
X96909529Y-104800467D01*
X96878344Y-104789309D01*
X96848404Y-104775148D01*
X96819995Y-104758121D01*
X96793392Y-104738391D01*
X96768851Y-104716149D01*
X96746609Y-104691608D01*
X96726879Y-104665005D01*
X96709852Y-104636596D01*
X96695691Y-104606656D01*
X96684533Y-104575471D01*
X96676485Y-104543343D01*
X96671625Y-104510581D01*
X96670000Y-104477500D01*
X96670000Y-103802500D01*
X96671625Y-103769419D01*
X96676485Y-103736657D01*
X96684533Y-103704529D01*
X96695691Y-103673344D01*
X96709852Y-103643404D01*
X96726879Y-103614995D01*
X96746609Y-103588392D01*
X96768851Y-103563851D01*
X96793392Y-103541609D01*
X96819995Y-103521879D01*
X96848404Y-103504852D01*
X96878344Y-103490691D01*
X96909529Y-103479533D01*
X96941657Y-103471485D01*
X96974419Y-103466625D01*
X97007500Y-103465000D01*
X97782500Y-103465000D01*
X97815581Y-103466625D01*
X97815581Y-103466625D01*
G37*
D11*
X97395000Y-104140000D03*
D10*
G36*
X96065581Y-103466625D02*
X96098343Y-103471485D01*
X96130471Y-103479533D01*
X96161656Y-103490691D01*
X96191596Y-103504852D01*
X96220005Y-103521879D01*
X96246608Y-103541609D01*
X96271149Y-103563851D01*
X96293391Y-103588392D01*
X96313121Y-103614995D01*
X96330148Y-103643404D01*
X96344309Y-103673344D01*
X96355467Y-103704529D01*
X96363515Y-103736657D01*
X96368375Y-103769419D01*
X96370000Y-103802500D01*
X96370000Y-104477500D01*
X96368375Y-104510581D01*
X96363515Y-104543343D01*
X96355467Y-104575471D01*
X96344309Y-104606656D01*
X96330148Y-104636596D01*
X96313121Y-104665005D01*
X96293391Y-104691608D01*
X96271149Y-104716149D01*
X96246608Y-104738391D01*
X96220005Y-104758121D01*
X96191596Y-104775148D01*
X96161656Y-104789309D01*
X96130471Y-104800467D01*
X96098343Y-104808515D01*
X96065581Y-104813375D01*
X96032500Y-104815000D01*
X95257500Y-104815000D01*
X95224419Y-104813375D01*
X95191657Y-104808515D01*
X95159529Y-104800467D01*
X95128344Y-104789309D01*
X95098404Y-104775148D01*
X95069995Y-104758121D01*
X95043392Y-104738391D01*
X95018851Y-104716149D01*
X94996609Y-104691608D01*
X94976879Y-104665005D01*
X94959852Y-104636596D01*
X94945691Y-104606656D01*
X94934533Y-104575471D01*
X94926485Y-104543343D01*
X94921625Y-104510581D01*
X94920000Y-104477500D01*
X94920000Y-103802500D01*
X94921625Y-103769419D01*
X94926485Y-103736657D01*
X94934533Y-103704529D01*
X94945691Y-103673344D01*
X94959852Y-103643404D01*
X94976879Y-103614995D01*
X94996609Y-103588392D01*
X95018851Y-103563851D01*
X95043392Y-103541609D01*
X95069995Y-103521879D01*
X95098404Y-103504852D01*
X95128344Y-103490691D01*
X95159529Y-103479533D01*
X95191657Y-103471485D01*
X95224419Y-103466625D01*
X95257500Y-103465000D01*
X96032500Y-103465000D01*
X96065581Y-103466625D01*
X96065581Y-103466625D01*
G37*
D11*
X95645000Y-104140000D03*
G04 #@! TD*
D10*
G04 #@! TO.C,C3*
G36*
X118163581Y-72224625D02*
X118196343Y-72229485D01*
X118228471Y-72237533D01*
X118259656Y-72248691D01*
X118289596Y-72262852D01*
X118318005Y-72279879D01*
X118344608Y-72299609D01*
X118369149Y-72321851D01*
X118391391Y-72346392D01*
X118411121Y-72372995D01*
X118428148Y-72401404D01*
X118442309Y-72431344D01*
X118453467Y-72462529D01*
X118461515Y-72494657D01*
X118466375Y-72527419D01*
X118468000Y-72560500D01*
X118468000Y-73235500D01*
X118466375Y-73268581D01*
X118461515Y-73301343D01*
X118453467Y-73333471D01*
X118442309Y-73364656D01*
X118428148Y-73394596D01*
X118411121Y-73423005D01*
X118391391Y-73449608D01*
X118369149Y-73474149D01*
X118344608Y-73496391D01*
X118318005Y-73516121D01*
X118289596Y-73533148D01*
X118259656Y-73547309D01*
X118228471Y-73558467D01*
X118196343Y-73566515D01*
X118163581Y-73571375D01*
X118130500Y-73573000D01*
X117355500Y-73573000D01*
X117322419Y-73571375D01*
X117289657Y-73566515D01*
X117257529Y-73558467D01*
X117226344Y-73547309D01*
X117196404Y-73533148D01*
X117167995Y-73516121D01*
X117141392Y-73496391D01*
X117116851Y-73474149D01*
X117094609Y-73449608D01*
X117074879Y-73423005D01*
X117057852Y-73394596D01*
X117043691Y-73364656D01*
X117032533Y-73333471D01*
X117024485Y-73301343D01*
X117019625Y-73268581D01*
X117018000Y-73235500D01*
X117018000Y-72560500D01*
X117019625Y-72527419D01*
X117024485Y-72494657D01*
X117032533Y-72462529D01*
X117043691Y-72431344D01*
X117057852Y-72401404D01*
X117074879Y-72372995D01*
X117094609Y-72346392D01*
X117116851Y-72321851D01*
X117141392Y-72299609D01*
X117167995Y-72279879D01*
X117196404Y-72262852D01*
X117226344Y-72248691D01*
X117257529Y-72237533D01*
X117289657Y-72229485D01*
X117322419Y-72224625D01*
X117355500Y-72223000D01*
X118130500Y-72223000D01*
X118163581Y-72224625D01*
X118163581Y-72224625D01*
G37*
D11*
X117743000Y-72898000D03*
D10*
G36*
X119913581Y-72224625D02*
X119946343Y-72229485D01*
X119978471Y-72237533D01*
X120009656Y-72248691D01*
X120039596Y-72262852D01*
X120068005Y-72279879D01*
X120094608Y-72299609D01*
X120119149Y-72321851D01*
X120141391Y-72346392D01*
X120161121Y-72372995D01*
X120178148Y-72401404D01*
X120192309Y-72431344D01*
X120203467Y-72462529D01*
X120211515Y-72494657D01*
X120216375Y-72527419D01*
X120218000Y-72560500D01*
X120218000Y-73235500D01*
X120216375Y-73268581D01*
X120211515Y-73301343D01*
X120203467Y-73333471D01*
X120192309Y-73364656D01*
X120178148Y-73394596D01*
X120161121Y-73423005D01*
X120141391Y-73449608D01*
X120119149Y-73474149D01*
X120094608Y-73496391D01*
X120068005Y-73516121D01*
X120039596Y-73533148D01*
X120009656Y-73547309D01*
X119978471Y-73558467D01*
X119946343Y-73566515D01*
X119913581Y-73571375D01*
X119880500Y-73573000D01*
X119105500Y-73573000D01*
X119072419Y-73571375D01*
X119039657Y-73566515D01*
X119007529Y-73558467D01*
X118976344Y-73547309D01*
X118946404Y-73533148D01*
X118917995Y-73516121D01*
X118891392Y-73496391D01*
X118866851Y-73474149D01*
X118844609Y-73449608D01*
X118824879Y-73423005D01*
X118807852Y-73394596D01*
X118793691Y-73364656D01*
X118782533Y-73333471D01*
X118774485Y-73301343D01*
X118769625Y-73268581D01*
X118768000Y-73235500D01*
X118768000Y-72560500D01*
X118769625Y-72527419D01*
X118774485Y-72494657D01*
X118782533Y-72462529D01*
X118793691Y-72431344D01*
X118807852Y-72401404D01*
X118824879Y-72372995D01*
X118844609Y-72346392D01*
X118866851Y-72321851D01*
X118891392Y-72299609D01*
X118917995Y-72279879D01*
X118946404Y-72262852D01*
X118976344Y-72248691D01*
X119007529Y-72237533D01*
X119039657Y-72229485D01*
X119072419Y-72224625D01*
X119105500Y-72223000D01*
X119880500Y-72223000D01*
X119913581Y-72224625D01*
X119913581Y-72224625D01*
G37*
D11*
X119493000Y-72898000D03*
G04 #@! TD*
D10*
G04 #@! TO.C,C4*
G36*
X96573581Y-95338625D02*
X96606343Y-95343485D01*
X96638471Y-95351533D01*
X96669656Y-95362691D01*
X96699596Y-95376852D01*
X96728005Y-95393879D01*
X96754608Y-95413609D01*
X96779149Y-95435851D01*
X96801391Y-95460392D01*
X96821121Y-95486995D01*
X96838148Y-95515404D01*
X96852309Y-95545344D01*
X96863467Y-95576529D01*
X96871515Y-95608657D01*
X96876375Y-95641419D01*
X96878000Y-95674500D01*
X96878000Y-96349500D01*
X96876375Y-96382581D01*
X96871515Y-96415343D01*
X96863467Y-96447471D01*
X96852309Y-96478656D01*
X96838148Y-96508596D01*
X96821121Y-96537005D01*
X96801391Y-96563608D01*
X96779149Y-96588149D01*
X96754608Y-96610391D01*
X96728005Y-96630121D01*
X96699596Y-96647148D01*
X96669656Y-96661309D01*
X96638471Y-96672467D01*
X96606343Y-96680515D01*
X96573581Y-96685375D01*
X96540500Y-96687000D01*
X95765500Y-96687000D01*
X95732419Y-96685375D01*
X95699657Y-96680515D01*
X95667529Y-96672467D01*
X95636344Y-96661309D01*
X95606404Y-96647148D01*
X95577995Y-96630121D01*
X95551392Y-96610391D01*
X95526851Y-96588149D01*
X95504609Y-96563608D01*
X95484879Y-96537005D01*
X95467852Y-96508596D01*
X95453691Y-96478656D01*
X95442533Y-96447471D01*
X95434485Y-96415343D01*
X95429625Y-96382581D01*
X95428000Y-96349500D01*
X95428000Y-95674500D01*
X95429625Y-95641419D01*
X95434485Y-95608657D01*
X95442533Y-95576529D01*
X95453691Y-95545344D01*
X95467852Y-95515404D01*
X95484879Y-95486995D01*
X95504609Y-95460392D01*
X95526851Y-95435851D01*
X95551392Y-95413609D01*
X95577995Y-95393879D01*
X95606404Y-95376852D01*
X95636344Y-95362691D01*
X95667529Y-95351533D01*
X95699657Y-95343485D01*
X95732419Y-95338625D01*
X95765500Y-95337000D01*
X96540500Y-95337000D01*
X96573581Y-95338625D01*
X96573581Y-95338625D01*
G37*
D11*
X96153000Y-96012000D03*
D10*
G36*
X98323581Y-95338625D02*
X98356343Y-95343485D01*
X98388471Y-95351533D01*
X98419656Y-95362691D01*
X98449596Y-95376852D01*
X98478005Y-95393879D01*
X98504608Y-95413609D01*
X98529149Y-95435851D01*
X98551391Y-95460392D01*
X98571121Y-95486995D01*
X98588148Y-95515404D01*
X98602309Y-95545344D01*
X98613467Y-95576529D01*
X98621515Y-95608657D01*
X98626375Y-95641419D01*
X98628000Y-95674500D01*
X98628000Y-96349500D01*
X98626375Y-96382581D01*
X98621515Y-96415343D01*
X98613467Y-96447471D01*
X98602309Y-96478656D01*
X98588148Y-96508596D01*
X98571121Y-96537005D01*
X98551391Y-96563608D01*
X98529149Y-96588149D01*
X98504608Y-96610391D01*
X98478005Y-96630121D01*
X98449596Y-96647148D01*
X98419656Y-96661309D01*
X98388471Y-96672467D01*
X98356343Y-96680515D01*
X98323581Y-96685375D01*
X98290500Y-96687000D01*
X97515500Y-96687000D01*
X97482419Y-96685375D01*
X97449657Y-96680515D01*
X97417529Y-96672467D01*
X97386344Y-96661309D01*
X97356404Y-96647148D01*
X97327995Y-96630121D01*
X97301392Y-96610391D01*
X97276851Y-96588149D01*
X97254609Y-96563608D01*
X97234879Y-96537005D01*
X97217852Y-96508596D01*
X97203691Y-96478656D01*
X97192533Y-96447471D01*
X97184485Y-96415343D01*
X97179625Y-96382581D01*
X97178000Y-96349500D01*
X97178000Y-95674500D01*
X97179625Y-95641419D01*
X97184485Y-95608657D01*
X97192533Y-95576529D01*
X97203691Y-95545344D01*
X97217852Y-95515404D01*
X97234879Y-95486995D01*
X97254609Y-95460392D01*
X97276851Y-95435851D01*
X97301392Y-95413609D01*
X97327995Y-95393879D01*
X97356404Y-95376852D01*
X97386344Y-95362691D01*
X97417529Y-95351533D01*
X97449657Y-95343485D01*
X97482419Y-95338625D01*
X97515500Y-95337000D01*
X98290500Y-95337000D01*
X98323581Y-95338625D01*
X98323581Y-95338625D01*
G37*
D11*
X97903000Y-96012000D03*
G04 #@! TD*
D10*
G04 #@! TO.C,C5*
G36*
X97815581Y-99656625D02*
X97848343Y-99661485D01*
X97880471Y-99669533D01*
X97911656Y-99680691D01*
X97941596Y-99694852D01*
X97970005Y-99711879D01*
X97996608Y-99731609D01*
X98021149Y-99753851D01*
X98043391Y-99778392D01*
X98063121Y-99804995D01*
X98080148Y-99833404D01*
X98094309Y-99863344D01*
X98105467Y-99894529D01*
X98113515Y-99926657D01*
X98118375Y-99959419D01*
X98120000Y-99992500D01*
X98120000Y-100667500D01*
X98118375Y-100700581D01*
X98113515Y-100733343D01*
X98105467Y-100765471D01*
X98094309Y-100796656D01*
X98080148Y-100826596D01*
X98063121Y-100855005D01*
X98043391Y-100881608D01*
X98021149Y-100906149D01*
X97996608Y-100928391D01*
X97970005Y-100948121D01*
X97941596Y-100965148D01*
X97911656Y-100979309D01*
X97880471Y-100990467D01*
X97848343Y-100998515D01*
X97815581Y-101003375D01*
X97782500Y-101005000D01*
X97007500Y-101005000D01*
X96974419Y-101003375D01*
X96941657Y-100998515D01*
X96909529Y-100990467D01*
X96878344Y-100979309D01*
X96848404Y-100965148D01*
X96819995Y-100948121D01*
X96793392Y-100928391D01*
X96768851Y-100906149D01*
X96746609Y-100881608D01*
X96726879Y-100855005D01*
X96709852Y-100826596D01*
X96695691Y-100796656D01*
X96684533Y-100765471D01*
X96676485Y-100733343D01*
X96671625Y-100700581D01*
X96670000Y-100667500D01*
X96670000Y-99992500D01*
X96671625Y-99959419D01*
X96676485Y-99926657D01*
X96684533Y-99894529D01*
X96695691Y-99863344D01*
X96709852Y-99833404D01*
X96726879Y-99804995D01*
X96746609Y-99778392D01*
X96768851Y-99753851D01*
X96793392Y-99731609D01*
X96819995Y-99711879D01*
X96848404Y-99694852D01*
X96878344Y-99680691D01*
X96909529Y-99669533D01*
X96941657Y-99661485D01*
X96974419Y-99656625D01*
X97007500Y-99655000D01*
X97782500Y-99655000D01*
X97815581Y-99656625D01*
X97815581Y-99656625D01*
G37*
D11*
X97395000Y-100330000D03*
D10*
G36*
X96065581Y-99656625D02*
X96098343Y-99661485D01*
X96130471Y-99669533D01*
X96161656Y-99680691D01*
X96191596Y-99694852D01*
X96220005Y-99711879D01*
X96246608Y-99731609D01*
X96271149Y-99753851D01*
X96293391Y-99778392D01*
X96313121Y-99804995D01*
X96330148Y-99833404D01*
X96344309Y-99863344D01*
X96355467Y-99894529D01*
X96363515Y-99926657D01*
X96368375Y-99959419D01*
X96370000Y-99992500D01*
X96370000Y-100667500D01*
X96368375Y-100700581D01*
X96363515Y-100733343D01*
X96355467Y-100765471D01*
X96344309Y-100796656D01*
X96330148Y-100826596D01*
X96313121Y-100855005D01*
X96293391Y-100881608D01*
X96271149Y-100906149D01*
X96246608Y-100928391D01*
X96220005Y-100948121D01*
X96191596Y-100965148D01*
X96161656Y-100979309D01*
X96130471Y-100990467D01*
X96098343Y-100998515D01*
X96065581Y-101003375D01*
X96032500Y-101005000D01*
X95257500Y-101005000D01*
X95224419Y-101003375D01*
X95191657Y-100998515D01*
X95159529Y-100990467D01*
X95128344Y-100979309D01*
X95098404Y-100965148D01*
X95069995Y-100948121D01*
X95043392Y-100928391D01*
X95018851Y-100906149D01*
X94996609Y-100881608D01*
X94976879Y-100855005D01*
X94959852Y-100826596D01*
X94945691Y-100796656D01*
X94934533Y-100765471D01*
X94926485Y-100733343D01*
X94921625Y-100700581D01*
X94920000Y-100667500D01*
X94920000Y-99992500D01*
X94921625Y-99959419D01*
X94926485Y-99926657D01*
X94934533Y-99894529D01*
X94945691Y-99863344D01*
X94959852Y-99833404D01*
X94976879Y-99804995D01*
X94996609Y-99778392D01*
X95018851Y-99753851D01*
X95043392Y-99731609D01*
X95069995Y-99711879D01*
X95098404Y-99694852D01*
X95128344Y-99680691D01*
X95159529Y-99669533D01*
X95191657Y-99661485D01*
X95224419Y-99656625D01*
X95257500Y-99655000D01*
X96032500Y-99655000D01*
X96065581Y-99656625D01*
X96065581Y-99656625D01*
G37*
D11*
X95645000Y-100330000D03*
G04 #@! TD*
D10*
G04 #@! TO.C,C6*
G36*
X123687581Y-71299625D02*
X123720343Y-71304485D01*
X123752471Y-71312533D01*
X123783656Y-71323691D01*
X123813596Y-71337852D01*
X123842005Y-71354879D01*
X123868608Y-71374609D01*
X123893149Y-71396851D01*
X123915391Y-71421392D01*
X123935121Y-71447995D01*
X123952148Y-71476404D01*
X123966309Y-71506344D01*
X123977467Y-71537529D01*
X123985515Y-71569657D01*
X123990375Y-71602419D01*
X123992000Y-71635500D01*
X123992000Y-72410500D01*
X123990375Y-72443581D01*
X123985515Y-72476343D01*
X123977467Y-72508471D01*
X123966309Y-72539656D01*
X123952148Y-72569596D01*
X123935121Y-72598005D01*
X123915391Y-72624608D01*
X123893149Y-72649149D01*
X123868608Y-72671391D01*
X123842005Y-72691121D01*
X123813596Y-72708148D01*
X123783656Y-72722309D01*
X123752471Y-72733467D01*
X123720343Y-72741515D01*
X123687581Y-72746375D01*
X123654500Y-72748000D01*
X122979500Y-72748000D01*
X122946419Y-72746375D01*
X122913657Y-72741515D01*
X122881529Y-72733467D01*
X122850344Y-72722309D01*
X122820404Y-72708148D01*
X122791995Y-72691121D01*
X122765392Y-72671391D01*
X122740851Y-72649149D01*
X122718609Y-72624608D01*
X122698879Y-72598005D01*
X122681852Y-72569596D01*
X122667691Y-72539656D01*
X122656533Y-72508471D01*
X122648485Y-72476343D01*
X122643625Y-72443581D01*
X122642000Y-72410500D01*
X122642000Y-71635500D01*
X122643625Y-71602419D01*
X122648485Y-71569657D01*
X122656533Y-71537529D01*
X122667691Y-71506344D01*
X122681852Y-71476404D01*
X122698879Y-71447995D01*
X122718609Y-71421392D01*
X122740851Y-71396851D01*
X122765392Y-71374609D01*
X122791995Y-71354879D01*
X122820404Y-71337852D01*
X122850344Y-71323691D01*
X122881529Y-71312533D01*
X122913657Y-71304485D01*
X122946419Y-71299625D01*
X122979500Y-71298000D01*
X123654500Y-71298000D01*
X123687581Y-71299625D01*
X123687581Y-71299625D01*
G37*
D11*
X123317000Y-72023000D03*
D10*
G36*
X123687581Y-73049625D02*
X123720343Y-73054485D01*
X123752471Y-73062533D01*
X123783656Y-73073691D01*
X123813596Y-73087852D01*
X123842005Y-73104879D01*
X123868608Y-73124609D01*
X123893149Y-73146851D01*
X123915391Y-73171392D01*
X123935121Y-73197995D01*
X123952148Y-73226404D01*
X123966309Y-73256344D01*
X123977467Y-73287529D01*
X123985515Y-73319657D01*
X123990375Y-73352419D01*
X123992000Y-73385500D01*
X123992000Y-74160500D01*
X123990375Y-74193581D01*
X123985515Y-74226343D01*
X123977467Y-74258471D01*
X123966309Y-74289656D01*
X123952148Y-74319596D01*
X123935121Y-74348005D01*
X123915391Y-74374608D01*
X123893149Y-74399149D01*
X123868608Y-74421391D01*
X123842005Y-74441121D01*
X123813596Y-74458148D01*
X123783656Y-74472309D01*
X123752471Y-74483467D01*
X123720343Y-74491515D01*
X123687581Y-74496375D01*
X123654500Y-74498000D01*
X122979500Y-74498000D01*
X122946419Y-74496375D01*
X122913657Y-74491515D01*
X122881529Y-74483467D01*
X122850344Y-74472309D01*
X122820404Y-74458148D01*
X122791995Y-74441121D01*
X122765392Y-74421391D01*
X122740851Y-74399149D01*
X122718609Y-74374608D01*
X122698879Y-74348005D01*
X122681852Y-74319596D01*
X122667691Y-74289656D01*
X122656533Y-74258471D01*
X122648485Y-74226343D01*
X122643625Y-74193581D01*
X122642000Y-74160500D01*
X122642000Y-73385500D01*
X122643625Y-73352419D01*
X122648485Y-73319657D01*
X122656533Y-73287529D01*
X122667691Y-73256344D01*
X122681852Y-73226404D01*
X122698879Y-73197995D01*
X122718609Y-73171392D01*
X122740851Y-73146851D01*
X122765392Y-73124609D01*
X122791995Y-73104879D01*
X122820404Y-73087852D01*
X122850344Y-73073691D01*
X122881529Y-73062533D01*
X122913657Y-73054485D01*
X122946419Y-73049625D01*
X122979500Y-73048000D01*
X123654500Y-73048000D01*
X123687581Y-73049625D01*
X123687581Y-73049625D01*
G37*
D11*
X123317000Y-73773000D03*
G04 #@! TD*
D12*
G04 #@! TO.C,Conn1*
X84353400Y-93727000D03*
X84353400Y-85726000D03*
G04 #@! TD*
D13*
G04 #@! TO.C,Conn2*
X78613000Y-65532000D03*
X81153000Y-65532000D03*
X83693000Y-65532000D03*
X86233000Y-65532000D03*
X88773000Y-65532000D03*
D14*
X77343000Y-56896000D03*
X90043000Y-56896000D03*
G04 #@! TD*
G04 #@! TO.C,Conn3*
X109347000Y-56896000D03*
X96647000Y-56896000D03*
D13*
X108077000Y-65532000D03*
X105537000Y-65532000D03*
X102997000Y-65532000D03*
X100457000Y-65532000D03*
X97917000Y-65532000D03*
G04 #@! TD*
D15*
G04 #@! TO.C,U1*
X73914000Y-117983000D03*
X96774000Y-72263000D03*
X94234000Y-72263000D03*
X86614000Y-72263000D03*
X84074000Y-115443000D03*
X89154000Y-72263000D03*
X91694000Y-72263000D03*
X89154000Y-117983000D03*
X94234000Y-115443000D03*
X84074000Y-72263000D03*
X81534000Y-72263000D03*
X94234000Y-117983000D03*
X89154000Y-115443000D03*
X86614000Y-115443000D03*
X73914000Y-115443000D03*
X76454000Y-115443000D03*
X78994000Y-115443000D03*
X81534000Y-115443000D03*
X91694000Y-115443000D03*
X96774000Y-115443000D03*
X76454000Y-117983000D03*
X78994000Y-117983000D03*
X81534000Y-117983000D03*
X84074000Y-117983000D03*
X86614000Y-117983000D03*
X91694000Y-117983000D03*
X96774000Y-117983000D03*
X73914000Y-74803000D03*
X76454000Y-74803000D03*
X78994000Y-74803000D03*
X81534000Y-74803000D03*
X84074000Y-74803000D03*
X86614000Y-74803000D03*
X89154000Y-74803000D03*
X91694000Y-74803000D03*
X94234000Y-74803000D03*
X96774000Y-74803000D03*
X73914000Y-72263000D03*
X76454000Y-72263000D03*
X78994000Y-72263000D03*
G04 #@! TD*
D16*
G04 #@! TO.C,U2*
X102329000Y-93472000D03*
X102329000Y-94742000D03*
X102329000Y-96012000D03*
X102329000Y-97282000D03*
X102329000Y-98552000D03*
X102329000Y-99822000D03*
X102329000Y-101092000D03*
X102329000Y-102362000D03*
X107729000Y-102362000D03*
X107729000Y-101092000D03*
X107729000Y-99822000D03*
X107729000Y-98552000D03*
X107729000Y-97282000D03*
X107729000Y-96012000D03*
X107729000Y-94742000D03*
X107729000Y-93472000D03*
G04 #@! TD*
D13*
G04 #@! TO.C,U3*
X119507000Y-79375000D03*
X122047000Y-79375000D03*
X124587000Y-79375000D03*
G04 #@! TD*
M02*
