M48
;DRILL file {KiCad (5.0.0)} date 10/03/18 21:45:59
;FORMAT={-:-/ absolute / inch / decimal}
FMAT,2
INCH,TZ
T1C0.0157
T2C0.0300
T3C0.0350
T4C0.0394
T5C0.1598
%
G90
G05
M72
T1
X3.89Y-3.625
X3.89Y-4.1
X3.95Y-4.
X3.95Y-4.055
X4.3177Y-3.73
T2
X3.095Y-2.58
X3.195Y-2.58
X3.295Y-2.58
X3.395Y-2.58
X3.495Y-2.58
X3.855Y-2.58
X3.955Y-2.58
X4.055Y-2.58
X4.155Y-2.58
X4.255Y-2.58
T3
X4.705Y-3.125
X4.805Y-3.125
X4.905Y-3.125
T4
X2.91Y-2.845
X2.91Y-2.945
X2.91Y-4.545
X2.91Y-4.645
X3.01Y-2.845
X3.01Y-2.945
X3.01Y-4.545
X3.01Y-4.645
X3.11Y-2.845
X3.11Y-2.945
X3.11Y-4.545
X3.11Y-4.645
X3.21Y-2.845
X3.21Y-2.945
X3.21Y-4.545
X3.21Y-4.645
X3.31Y-2.845
X3.31Y-2.945
X3.31Y-4.545
X3.31Y-4.645
X3.41Y-2.845
X3.41Y-2.945
X3.41Y-4.545
X3.41Y-4.645
X3.51Y-2.845
X3.51Y-2.945
X3.51Y-4.545
X3.51Y-4.645
X3.61Y-2.845
X3.61Y-2.945
X3.61Y-4.545
X3.61Y-4.645
X3.71Y-2.845
X3.71Y-2.945
X3.71Y-4.545
X3.71Y-4.645
X3.81Y-2.845
X3.81Y-2.945
X3.81Y-4.545
X3.81Y-4.645
T5
X3.321Y-3.375
X3.321Y-3.69
T0
M30
