G04 #@! TF.GenerationSoftware,KiCad,Pcbnew,(5.0.0)*
G04 #@! TF.CreationDate,2018-09-29T15:52:18-05:00*
G04 #@! TF.ProjectId,Driveboard_Hardware,4472697665626F6172645F4861726477,rev?*
G04 #@! TF.SameCoordinates,Original*
G04 #@! TF.FileFunction,Legend,Top*
G04 #@! TF.FilePolarity,Positive*
%FSLAX46Y46*%
G04 Gerber Fmt 4.6, Leading zero omitted, Abs format (unit mm)*
G04 Created by KiCad (PCBNEW (5.0.0)) date 09/29/18 15:52:18*
%MOMM*%
%LPD*%
G01*
G04 APERTURE LIST*
%ADD10C,0.300000*%
%ADD11C,0.120000*%
%ADD12C,0.150000*%
G04 APERTURE END LIST*
D10*
X76502857Y-125631571D02*
X76502857Y-124131571D01*
X76860000Y-124131571D01*
X77074285Y-124203000D01*
X77217142Y-124345857D01*
X77288571Y-124488714D01*
X77360000Y-124774428D01*
X77360000Y-124988714D01*
X77288571Y-125274428D01*
X77217142Y-125417285D01*
X77074285Y-125560142D01*
X76860000Y-125631571D01*
X76502857Y-125631571D01*
X78002857Y-125631571D02*
X78002857Y-124631571D01*
X78002857Y-124917285D02*
X78074285Y-124774428D01*
X78145714Y-124703000D01*
X78288571Y-124631571D01*
X78431428Y-124631571D01*
X78931428Y-125631571D02*
X78931428Y-124631571D01*
X78931428Y-124131571D02*
X78860000Y-124203000D01*
X78931428Y-124274428D01*
X79002857Y-124203000D01*
X78931428Y-124131571D01*
X78931428Y-124274428D01*
X79502857Y-124631571D02*
X79860000Y-125631571D01*
X80217142Y-124631571D01*
X81360000Y-125560142D02*
X81217142Y-125631571D01*
X80931428Y-125631571D01*
X80788571Y-125560142D01*
X80717142Y-125417285D01*
X80717142Y-124845857D01*
X80788571Y-124703000D01*
X80931428Y-124631571D01*
X81217142Y-124631571D01*
X81360000Y-124703000D01*
X81431428Y-124845857D01*
X81431428Y-124988714D01*
X80717142Y-125131571D01*
X83717142Y-124845857D02*
X83931428Y-124917285D01*
X84002857Y-124988714D01*
X84074285Y-125131571D01*
X84074285Y-125345857D01*
X84002857Y-125488714D01*
X83931428Y-125560142D01*
X83788571Y-125631571D01*
X83217142Y-125631571D01*
X83217142Y-124131571D01*
X83717142Y-124131571D01*
X83860000Y-124203000D01*
X83931428Y-124274428D01*
X84002857Y-124417285D01*
X84002857Y-124560142D01*
X83931428Y-124703000D01*
X83860000Y-124774428D01*
X83717142Y-124845857D01*
X83217142Y-124845857D01*
X84931428Y-125631571D02*
X84788571Y-125560142D01*
X84717142Y-125488714D01*
X84645714Y-125345857D01*
X84645714Y-124917285D01*
X84717142Y-124774428D01*
X84788571Y-124703000D01*
X84931428Y-124631571D01*
X85145714Y-124631571D01*
X85288571Y-124703000D01*
X85360000Y-124774428D01*
X85431428Y-124917285D01*
X85431428Y-125345857D01*
X85360000Y-125488714D01*
X85288571Y-125560142D01*
X85145714Y-125631571D01*
X84931428Y-125631571D01*
X86717142Y-125631571D02*
X86717142Y-124845857D01*
X86645714Y-124703000D01*
X86502857Y-124631571D01*
X86217142Y-124631571D01*
X86074285Y-124703000D01*
X86717142Y-125560142D02*
X86574285Y-125631571D01*
X86217142Y-125631571D01*
X86074285Y-125560142D01*
X86002857Y-125417285D01*
X86002857Y-125274428D01*
X86074285Y-125131571D01*
X86217142Y-125060142D01*
X86574285Y-125060142D01*
X86717142Y-124988714D01*
X87431428Y-125631571D02*
X87431428Y-124631571D01*
X87431428Y-124917285D02*
X87502857Y-124774428D01*
X87574285Y-124703000D01*
X87717142Y-124631571D01*
X87860000Y-124631571D01*
X89002857Y-125631571D02*
X89002857Y-124131571D01*
X89002857Y-125560142D02*
X88860000Y-125631571D01*
X88574285Y-125631571D01*
X88431428Y-125560142D01*
X88360000Y-125488714D01*
X88288571Y-125345857D01*
X88288571Y-124917285D01*
X88360000Y-124774428D01*
X88431428Y-124703000D01*
X88574285Y-124631571D01*
X88860000Y-124631571D01*
X89002857Y-124703000D01*
X89788571Y-125560142D02*
X89788571Y-125631571D01*
X89717142Y-125774428D01*
X89645714Y-125845857D01*
X92431428Y-125631571D02*
X91931428Y-124917285D01*
X91574285Y-125631571D02*
X91574285Y-124131571D01*
X92145714Y-124131571D01*
X92288571Y-124203000D01*
X92360000Y-124274428D01*
X92431428Y-124417285D01*
X92431428Y-124631571D01*
X92360000Y-124774428D01*
X92288571Y-124845857D01*
X92145714Y-124917285D01*
X91574285Y-124917285D01*
X93645714Y-125560142D02*
X93502857Y-125631571D01*
X93217142Y-125631571D01*
X93074285Y-125560142D01*
X93002857Y-125417285D01*
X93002857Y-124845857D01*
X93074285Y-124703000D01*
X93217142Y-124631571D01*
X93502857Y-124631571D01*
X93645714Y-124703000D01*
X93717142Y-124845857D01*
X93717142Y-124988714D01*
X93002857Y-125131571D01*
X94217142Y-124631571D02*
X94574285Y-125631571D01*
X94931428Y-124631571D01*
X96288571Y-125631571D02*
X95431428Y-125631571D01*
X95860000Y-125631571D02*
X95860000Y-124131571D01*
X95717142Y-124345857D01*
X95574285Y-124488714D01*
X95431428Y-124560142D01*
X76645714Y-128181571D02*
X76645714Y-126681571D01*
X77145714Y-127753000D01*
X77645714Y-126681571D01*
X77645714Y-128181571D01*
X79002857Y-128181571D02*
X79002857Y-127395857D01*
X78931428Y-127253000D01*
X78788571Y-127181571D01*
X78502857Y-127181571D01*
X78360000Y-127253000D01*
X79002857Y-128110142D02*
X78860000Y-128181571D01*
X78502857Y-128181571D01*
X78360000Y-128110142D01*
X78288571Y-127967285D01*
X78288571Y-127824428D01*
X78360000Y-127681571D01*
X78502857Y-127610142D01*
X78860000Y-127610142D01*
X79002857Y-127538714D01*
X79717142Y-128181571D02*
X79717142Y-127181571D01*
X79717142Y-127467285D02*
X79788571Y-127324428D01*
X79860000Y-127253000D01*
X80002857Y-127181571D01*
X80145714Y-127181571D01*
X80574285Y-128110142D02*
X80717142Y-128181571D01*
X81002857Y-128181571D01*
X81145714Y-128110142D01*
X81217142Y-127967285D01*
X81217142Y-127895857D01*
X81145714Y-127753000D01*
X81002857Y-127681571D01*
X80788571Y-127681571D01*
X80645714Y-127610142D01*
X80574285Y-127467285D01*
X80574285Y-127395857D01*
X80645714Y-127253000D01*
X80788571Y-127181571D01*
X81002857Y-127181571D01*
X81145714Y-127253000D01*
X83860000Y-128181571D02*
X83360000Y-127467285D01*
X83002857Y-128181571D02*
X83002857Y-126681571D01*
X83574285Y-126681571D01*
X83717142Y-126753000D01*
X83788571Y-126824428D01*
X83860000Y-126967285D01*
X83860000Y-127181571D01*
X83788571Y-127324428D01*
X83717142Y-127395857D01*
X83574285Y-127467285D01*
X83002857Y-127467285D01*
X84717142Y-128181571D02*
X84574285Y-128110142D01*
X84502857Y-128038714D01*
X84431428Y-127895857D01*
X84431428Y-127467285D01*
X84502857Y-127324428D01*
X84574285Y-127253000D01*
X84717142Y-127181571D01*
X84931428Y-127181571D01*
X85074285Y-127253000D01*
X85145714Y-127324428D01*
X85217142Y-127467285D01*
X85217142Y-127895857D01*
X85145714Y-128038714D01*
X85074285Y-128110142D01*
X84931428Y-128181571D01*
X84717142Y-128181571D01*
X85717142Y-127181571D02*
X86074285Y-128181571D01*
X86431428Y-127181571D01*
X87574285Y-128110142D02*
X87431428Y-128181571D01*
X87145714Y-128181571D01*
X87002857Y-128110142D01*
X86931428Y-127967285D01*
X86931428Y-127395857D01*
X87002857Y-127253000D01*
X87145714Y-127181571D01*
X87431428Y-127181571D01*
X87574285Y-127253000D01*
X87645714Y-127395857D01*
X87645714Y-127538714D01*
X86931428Y-127681571D01*
X88288571Y-128181571D02*
X88288571Y-127181571D01*
X88288571Y-127467285D02*
X88360000Y-127324428D01*
X88431428Y-127253000D01*
X88574285Y-127181571D01*
X88717142Y-127181571D01*
X89288571Y-128110142D02*
X89288571Y-128181571D01*
X89217142Y-128324428D01*
X89145714Y-128395857D01*
X91002857Y-126824428D02*
X91074285Y-126753000D01*
X91217142Y-126681571D01*
X91574285Y-126681571D01*
X91717142Y-126753000D01*
X91788571Y-126824428D01*
X91860000Y-126967285D01*
X91860000Y-127110142D01*
X91788571Y-127324428D01*
X90931428Y-128181571D01*
X91860000Y-128181571D01*
X92788571Y-126681571D02*
X92931428Y-126681571D01*
X93074285Y-126753000D01*
X93145714Y-126824428D01*
X93217142Y-126967285D01*
X93288571Y-127253000D01*
X93288571Y-127610142D01*
X93217142Y-127895857D01*
X93145714Y-128038714D01*
X93074285Y-128110142D01*
X92931428Y-128181571D01*
X92788571Y-128181571D01*
X92645714Y-128110142D01*
X92574285Y-128038714D01*
X92502857Y-127895857D01*
X92431428Y-127610142D01*
X92431428Y-127253000D01*
X92502857Y-126967285D01*
X92574285Y-126824428D01*
X92645714Y-126753000D01*
X92788571Y-126681571D01*
X94717142Y-128181571D02*
X93860000Y-128181571D01*
X94288571Y-128181571D02*
X94288571Y-126681571D01*
X94145714Y-126895857D01*
X94002857Y-127038714D01*
X93860000Y-127110142D01*
X95431428Y-128181571D02*
X95717142Y-128181571D01*
X95860000Y-128110142D01*
X95931428Y-128038714D01*
X96074285Y-127824428D01*
X96145714Y-127538714D01*
X96145714Y-126967285D01*
X96074285Y-126824428D01*
X96002857Y-126753000D01*
X95860000Y-126681571D01*
X95574285Y-126681571D01*
X95431428Y-126753000D01*
X95360000Y-126824428D01*
X95288571Y-126967285D01*
X95288571Y-127324428D01*
X95360000Y-127467285D01*
X95431428Y-127538714D01*
X95574285Y-127610142D01*
X95860000Y-127610142D01*
X96002857Y-127538714D01*
X96074285Y-127467285D01*
X96145714Y-127324428D01*
X79324285Y-130731571D02*
X79324285Y-129231571D01*
X79824285Y-130303000D01*
X80324285Y-129231571D01*
X80324285Y-130731571D01*
X81038571Y-130731571D02*
X81038571Y-129731571D01*
X81038571Y-129231571D02*
X80967142Y-129303000D01*
X81038571Y-129374428D01*
X81110000Y-129303000D01*
X81038571Y-129231571D01*
X81038571Y-129374428D01*
X81681428Y-130660142D02*
X81824285Y-130731571D01*
X82110000Y-130731571D01*
X82252857Y-130660142D01*
X82324285Y-130517285D01*
X82324285Y-130445857D01*
X82252857Y-130303000D01*
X82110000Y-130231571D01*
X81895714Y-130231571D01*
X81752857Y-130160142D01*
X81681428Y-130017285D01*
X81681428Y-129945857D01*
X81752857Y-129803000D01*
X81895714Y-129731571D01*
X82110000Y-129731571D01*
X82252857Y-129803000D01*
X82895714Y-130660142D02*
X83038571Y-130731571D01*
X83324285Y-130731571D01*
X83467142Y-130660142D01*
X83538571Y-130517285D01*
X83538571Y-130445857D01*
X83467142Y-130303000D01*
X83324285Y-130231571D01*
X83110000Y-130231571D01*
X82967142Y-130160142D01*
X82895714Y-130017285D01*
X82895714Y-129945857D01*
X82967142Y-129803000D01*
X83110000Y-129731571D01*
X83324285Y-129731571D01*
X83467142Y-129803000D01*
X84395714Y-130731571D02*
X84252857Y-130660142D01*
X84181428Y-130588714D01*
X84110000Y-130445857D01*
X84110000Y-130017285D01*
X84181428Y-129874428D01*
X84252857Y-129803000D01*
X84395714Y-129731571D01*
X84610000Y-129731571D01*
X84752857Y-129803000D01*
X84824285Y-129874428D01*
X84895714Y-130017285D01*
X84895714Y-130445857D01*
X84824285Y-130588714D01*
X84752857Y-130660142D01*
X84610000Y-130731571D01*
X84395714Y-130731571D01*
X86181428Y-129731571D02*
X86181428Y-130731571D01*
X85538571Y-129731571D02*
X85538571Y-130517285D01*
X85610000Y-130660142D01*
X85752857Y-130731571D01*
X85967142Y-130731571D01*
X86110000Y-130660142D01*
X86181428Y-130588714D01*
X86895714Y-130731571D02*
X86895714Y-129731571D01*
X86895714Y-130017285D02*
X86967142Y-129874428D01*
X87038571Y-129803000D01*
X87181428Y-129731571D01*
X87324285Y-129731571D01*
X87824285Y-130731571D02*
X87824285Y-129731571D01*
X87824285Y-129231571D02*
X87752857Y-129303000D01*
X87824285Y-129374428D01*
X87895714Y-129303000D01*
X87824285Y-129231571D01*
X87824285Y-129374428D01*
X89610000Y-130660142D02*
X89824285Y-130731571D01*
X90181428Y-130731571D01*
X90324285Y-130660142D01*
X90395714Y-130588714D01*
X90467142Y-130445857D01*
X90467142Y-130303000D01*
X90395714Y-130160142D01*
X90324285Y-130088714D01*
X90181428Y-130017285D01*
X89895714Y-129945857D01*
X89752857Y-129874428D01*
X89681428Y-129803000D01*
X89610000Y-129660142D01*
X89610000Y-129517285D01*
X89681428Y-129374428D01*
X89752857Y-129303000D01*
X89895714Y-129231571D01*
X90252857Y-129231571D01*
X90467142Y-129303000D01*
X92324285Y-130731571D02*
X92252857Y-130731571D01*
X92110000Y-130660142D01*
X91895714Y-130445857D01*
X91538571Y-130017285D01*
X91395714Y-129803000D01*
X91324285Y-129588714D01*
X91324285Y-129445857D01*
X91395714Y-129303000D01*
X91538571Y-129231571D01*
X91610000Y-129231571D01*
X91752857Y-129303000D01*
X91824285Y-129445857D01*
X91824285Y-129517285D01*
X91752857Y-129660142D01*
X91681428Y-129731571D01*
X91252857Y-130017285D01*
X91181428Y-130088714D01*
X91110000Y-130231571D01*
X91110000Y-130445857D01*
X91181428Y-130588714D01*
X91252857Y-130660142D01*
X91395714Y-130731571D01*
X91610000Y-130731571D01*
X91752857Y-130660142D01*
X91824285Y-130588714D01*
X92038571Y-130303000D01*
X92110000Y-130088714D01*
X92110000Y-129945857D01*
X92752857Y-129231571D02*
X93610000Y-129231571D01*
X93181428Y-130731571D02*
X93181428Y-129231571D01*
X78859999Y-132495857D02*
X79074285Y-132567285D01*
X79145714Y-132638714D01*
X79217142Y-132781571D01*
X79217142Y-132995857D01*
X79145714Y-133138714D01*
X79074285Y-133210142D01*
X78931428Y-133281571D01*
X78359999Y-133281571D01*
X78359999Y-131781571D01*
X78859999Y-131781571D01*
X79002857Y-131853000D01*
X79074285Y-131924428D01*
X79145714Y-132067285D01*
X79145714Y-132210142D01*
X79074285Y-132353000D01*
X79002857Y-132424428D01*
X78859999Y-132495857D01*
X78359999Y-132495857D01*
X79859999Y-133281571D02*
X79859999Y-132281571D01*
X79859999Y-132567285D02*
X79931428Y-132424428D01*
X80002857Y-132353000D01*
X80145714Y-132281571D01*
X80288571Y-132281571D01*
X80788571Y-133281571D02*
X80788571Y-132281571D01*
X80788571Y-131781571D02*
X80717142Y-131853000D01*
X80788571Y-131924428D01*
X80859999Y-131853000D01*
X80788571Y-131781571D01*
X80788571Y-131924428D01*
X82145714Y-133281571D02*
X82145714Y-132495857D01*
X82074285Y-132353000D01*
X81931428Y-132281571D01*
X81645714Y-132281571D01*
X81502857Y-132353000D01*
X82145714Y-133210142D02*
X82002857Y-133281571D01*
X81645714Y-133281571D01*
X81502857Y-133210142D01*
X81431428Y-133067285D01*
X81431428Y-132924428D01*
X81502857Y-132781571D01*
X81645714Y-132710142D01*
X82002857Y-132710142D01*
X82145714Y-132638714D01*
X82859999Y-132281571D02*
X82859999Y-133281571D01*
X82859999Y-132424428D02*
X82931428Y-132353000D01*
X83074285Y-132281571D01*
X83288571Y-132281571D01*
X83431428Y-132353000D01*
X83502857Y-132495857D01*
X83502857Y-133281571D01*
X85359999Y-133281571D02*
X85359999Y-131781571D01*
X85717142Y-131781571D01*
X85931428Y-131853000D01*
X86074285Y-131995857D01*
X86145714Y-132138714D01*
X86217142Y-132424428D01*
X86217142Y-132638714D01*
X86145714Y-132924428D01*
X86074285Y-133067285D01*
X85931428Y-133210142D01*
X85717142Y-133281571D01*
X85359999Y-133281571D01*
X87502857Y-133281571D02*
X87502857Y-132495857D01*
X87431428Y-132353000D01*
X87288571Y-132281571D01*
X87002857Y-132281571D01*
X86859999Y-132353000D01*
X87502857Y-133210142D02*
X87359999Y-133281571D01*
X87002857Y-133281571D01*
X86859999Y-133210142D01*
X86788571Y-133067285D01*
X86788571Y-132924428D01*
X86859999Y-132781571D01*
X87002857Y-132710142D01*
X87359999Y-132710142D01*
X87502857Y-132638714D01*
X88217142Y-133281571D02*
X88217142Y-131781571D01*
X88859999Y-133281571D02*
X88859999Y-132495857D01*
X88788571Y-132353000D01*
X88645714Y-132281571D01*
X88431428Y-132281571D01*
X88288571Y-132353000D01*
X88217142Y-132424428D01*
X89788571Y-133281571D02*
X89645714Y-133210142D01*
X89574285Y-133067285D01*
X89574285Y-131781571D01*
X90359999Y-133281571D02*
X90359999Y-132281571D01*
X90359999Y-132424428D02*
X90431428Y-132353000D01*
X90574285Y-132281571D01*
X90788571Y-132281571D01*
X90931428Y-132353000D01*
X91002857Y-132495857D01*
X91002857Y-133281571D01*
X91002857Y-132495857D02*
X91074285Y-132353000D01*
X91217142Y-132281571D01*
X91431428Y-132281571D01*
X91574285Y-132353000D01*
X91645714Y-132495857D01*
X91645714Y-133281571D01*
X93002857Y-133281571D02*
X93002857Y-132495857D01*
X92931428Y-132353000D01*
X92788571Y-132281571D01*
X92502857Y-132281571D01*
X92359999Y-132353000D01*
X93002857Y-133210142D02*
X92859999Y-133281571D01*
X92502857Y-133281571D01*
X92359999Y-133210142D01*
X92288571Y-133067285D01*
X92288571Y-132924428D01*
X92359999Y-132781571D01*
X92502857Y-132710142D01*
X92859999Y-132710142D01*
X93002857Y-132638714D01*
X93717142Y-132281571D02*
X93717142Y-133281571D01*
X93717142Y-132424428D02*
X93788571Y-132353000D01*
X93931428Y-132281571D01*
X94145714Y-132281571D01*
X94288571Y-132353000D01*
X94359999Y-132495857D01*
X94359999Y-133281571D01*
D11*
G04 #@! TO.C,C1*
X96348733Y-90930000D02*
X96691267Y-90930000D01*
X96348733Y-91950000D02*
X96691267Y-91950000D01*
G04 #@! TO.C,C2*
X96348733Y-104650000D02*
X96691267Y-104650000D01*
X96348733Y-103630000D02*
X96691267Y-103630000D01*
G04 #@! TO.C,C3*
X118446733Y-72388000D02*
X118789267Y-72388000D01*
X118446733Y-73408000D02*
X118789267Y-73408000D01*
G04 #@! TO.C,C4*
X96856733Y-95502000D02*
X97199267Y-95502000D01*
X96856733Y-96522000D02*
X97199267Y-96522000D01*
G04 #@! TO.C,C5*
X96348733Y-100840000D02*
X96691267Y-100840000D01*
X96348733Y-99820000D02*
X96691267Y-99820000D01*
G04 #@! TO.C,C6*
X123827000Y-73069267D02*
X123827000Y-72726733D01*
X122807000Y-73069267D02*
X122807000Y-72726733D01*
D12*
G04 #@! TO.C,Conn1*
X67310000Y-97790000D02*
G75*
G03X66192400Y-96672400I-1117600J0D01*
G01*
X66192400Y-96672400D02*
G75*
G03X65074800Y-97790000I0J-1117600D01*
G01*
X56134000Y-82042000D02*
X56134000Y-97790000D01*
X80772000Y-82042000D02*
X80772000Y-97790000D01*
X65049400Y-82042000D02*
X63830200Y-82042000D01*
X66192400Y-83185000D02*
G75*
G03X67335400Y-82042000I0J1143000D01*
G01*
X65049400Y-82042000D02*
G75*
G03X66192400Y-83185000I1143000J0D01*
G01*
X68503800Y-97790000D02*
X67310000Y-97790000D01*
X66192400Y-95478600D02*
X66192400Y-96647000D01*
X63881000Y-97790000D02*
X65049400Y-97790000D01*
X68453000Y-82042000D02*
X67360800Y-82042000D01*
X66192400Y-83185000D02*
X66192400Y-84353400D01*
X66192400Y-92202000D02*
X66192400Y-91059000D01*
X56159400Y-89890600D02*
X65049400Y-89890600D01*
X66192400Y-87630000D02*
X66192400Y-88773000D01*
X68478400Y-89916000D02*
X67335400Y-89916000D01*
X66192400Y-92202000D02*
X66192400Y-95504000D01*
X68478400Y-89916000D02*
X80772000Y-89916000D01*
X66192400Y-87630000D02*
X66192400Y-84353400D01*
X67335400Y-89916000D02*
G75*
G03X67335400Y-89916000I-1143000J0D01*
G01*
X68478400Y-97790000D02*
X80772000Y-97790000D01*
X63906400Y-97790000D02*
X56159400Y-97790000D01*
X56159400Y-82042000D02*
X63906400Y-82042000D01*
X68478400Y-82042000D02*
X80772000Y-82042000D01*
G04 #@! TO.C,Conn2*
X79883000Y-52324000D02*
X79883000Y-52832000D01*
X87503000Y-52832000D02*
X87503000Y-52324000D01*
X75438000Y-52324000D02*
X91948000Y-52324000D01*
X75438000Y-64262000D02*
X75438000Y-52324000D01*
X91948000Y-64262000D02*
X91948000Y-52324000D01*
X90043000Y-64262000D02*
X91948000Y-64262000D01*
X77343000Y-64262000D02*
X75438000Y-64262000D01*
X79883000Y-56642000D02*
X79883000Y-57912000D01*
X79883000Y-57912000D02*
X87503000Y-57912000D01*
X87503000Y-57912000D02*
X87503000Y-56642000D01*
X87503000Y-56642000D02*
X87503000Y-52832000D01*
X79883000Y-56642000D02*
X79883000Y-52832000D01*
X82423000Y-57912000D02*
X82423000Y-60452000D01*
X82423000Y-60452000D02*
X84963000Y-60452000D01*
X84963000Y-60452000D02*
X84963000Y-57912000D01*
X77343000Y-64262000D02*
X90043000Y-64262000D01*
X90043000Y-64262000D02*
X90043000Y-66802000D01*
X90043000Y-66802000D02*
X77343000Y-66802000D01*
X77343000Y-66802000D02*
X77343000Y-64262000D01*
G04 #@! TO.C,Conn3*
X96647000Y-66802000D02*
X96647000Y-64262000D01*
X109347000Y-66802000D02*
X96647000Y-66802000D01*
X109347000Y-64262000D02*
X109347000Y-66802000D01*
X96647000Y-64262000D02*
X109347000Y-64262000D01*
X104267000Y-60452000D02*
X104267000Y-57912000D01*
X101727000Y-60452000D02*
X104267000Y-60452000D01*
X101727000Y-57912000D02*
X101727000Y-60452000D01*
X99187000Y-56642000D02*
X99187000Y-52832000D01*
X106807000Y-56642000D02*
X106807000Y-52832000D01*
X106807000Y-57912000D02*
X106807000Y-56642000D01*
X99187000Y-57912000D02*
X106807000Y-57912000D01*
X99187000Y-56642000D02*
X99187000Y-57912000D01*
X96647000Y-64262000D02*
X94742000Y-64262000D01*
X109347000Y-64262000D02*
X111252000Y-64262000D01*
X111252000Y-64262000D02*
X111252000Y-52324000D01*
X94742000Y-64262000D02*
X94742000Y-52324000D01*
X94742000Y-52324000D02*
X111252000Y-52324000D01*
X106807000Y-52832000D02*
X106807000Y-52324000D01*
X99187000Y-52324000D02*
X99187000Y-52832000D01*
G04 #@! TO.C,U1*
X98044000Y-114173000D02*
X72644000Y-114173000D01*
X72644000Y-76073000D02*
X98044000Y-76073000D01*
X98044000Y-119253000D02*
X98044000Y-114173000D01*
X72644000Y-114173000D02*
X72644000Y-119253000D01*
X72644000Y-119253000D02*
X98044000Y-119253000D01*
X98044000Y-76073000D02*
X98044000Y-70993000D01*
X98044000Y-70993000D02*
X72644000Y-70993000D01*
X72644000Y-70993000D02*
X72644000Y-76073000D01*
G04 #@! TO.C,U2*
X104079000Y-92967000D02*
X106979000Y-92967000D01*
X106979000Y-92967000D02*
X106979000Y-102867000D01*
X106979000Y-102867000D02*
X103079000Y-102867000D01*
X103079000Y-102867000D02*
X103079000Y-93967000D01*
X103079000Y-93967000D02*
X104079000Y-92967000D01*
G04 #@! TO.C,U3*
X124587000Y-81915000D02*
X127127000Y-84455000D01*
X127127000Y-84455000D02*
X127127000Y-89535000D01*
X127127000Y-89535000D02*
X124587000Y-92075000D01*
X124587000Y-92075000D02*
X119507000Y-92075000D01*
X119507000Y-92075000D02*
X116967000Y-89535000D01*
X116967000Y-89535000D02*
X116967000Y-84455000D01*
X116967000Y-84455000D02*
X119507000Y-81915000D01*
X119507000Y-81915000D02*
X124587000Y-81915000D01*
X116967000Y-94615000D02*
X127127000Y-94615000D01*
X116967000Y-78105000D02*
X127127000Y-78105000D01*
X127127000Y-78105000D02*
X127127000Y-94615000D01*
X116967000Y-94615000D02*
X116967000Y-78105000D01*
G04 #@! TO.C,C1*
X96353333Y-90367142D02*
X96305714Y-90414761D01*
X96162857Y-90462380D01*
X96067619Y-90462380D01*
X95924761Y-90414761D01*
X95829523Y-90319523D01*
X95781904Y-90224285D01*
X95734285Y-90033809D01*
X95734285Y-89890952D01*
X95781904Y-89700476D01*
X95829523Y-89605238D01*
X95924761Y-89510000D01*
X96067619Y-89462380D01*
X96162857Y-89462380D01*
X96305714Y-89510000D01*
X96353333Y-89557619D01*
X97305714Y-90462380D02*
X96734285Y-90462380D01*
X97020000Y-90462380D02*
X97020000Y-89462380D01*
X96924761Y-89605238D01*
X96829523Y-89700476D01*
X96734285Y-89748095D01*
G04 #@! TO.C,C2*
X95083333Y-103227142D02*
X95035714Y-103274761D01*
X94892857Y-103322380D01*
X94797619Y-103322380D01*
X94654761Y-103274761D01*
X94559523Y-103179523D01*
X94511904Y-103084285D01*
X94464285Y-102893809D01*
X94464285Y-102750952D01*
X94511904Y-102560476D01*
X94559523Y-102465238D01*
X94654761Y-102370000D01*
X94797619Y-102322380D01*
X94892857Y-102322380D01*
X95035714Y-102370000D01*
X95083333Y-102417619D01*
X95464285Y-102417619D02*
X95511904Y-102370000D01*
X95607142Y-102322380D01*
X95845238Y-102322380D01*
X95940476Y-102370000D01*
X95988095Y-102417619D01*
X96035714Y-102512857D01*
X96035714Y-102608095D01*
X95988095Y-102750952D01*
X95416666Y-103322380D01*
X96035714Y-103322380D01*
G04 #@! TO.C,C3*
X118324333Y-71604142D02*
X118276714Y-71651761D01*
X118133857Y-71699380D01*
X118038619Y-71699380D01*
X117895761Y-71651761D01*
X117800523Y-71556523D01*
X117752904Y-71461285D01*
X117705285Y-71270809D01*
X117705285Y-71127952D01*
X117752904Y-70937476D01*
X117800523Y-70842238D01*
X117895761Y-70747000D01*
X118038619Y-70699380D01*
X118133857Y-70699380D01*
X118276714Y-70747000D01*
X118324333Y-70794619D01*
X118657666Y-70699380D02*
X119276714Y-70699380D01*
X118943380Y-71080333D01*
X119086238Y-71080333D01*
X119181476Y-71127952D01*
X119229095Y-71175571D01*
X119276714Y-71270809D01*
X119276714Y-71508904D01*
X119229095Y-71604142D01*
X119181476Y-71651761D01*
X119086238Y-71699380D01*
X118800523Y-71699380D01*
X118705285Y-71651761D01*
X118657666Y-71604142D01*
G04 #@! TO.C,C4*
X96861333Y-94939142D02*
X96813714Y-94986761D01*
X96670857Y-95034380D01*
X96575619Y-95034380D01*
X96432761Y-94986761D01*
X96337523Y-94891523D01*
X96289904Y-94796285D01*
X96242285Y-94605809D01*
X96242285Y-94462952D01*
X96289904Y-94272476D01*
X96337523Y-94177238D01*
X96432761Y-94082000D01*
X96575619Y-94034380D01*
X96670857Y-94034380D01*
X96813714Y-94082000D01*
X96861333Y-94129619D01*
X97718476Y-94367714D02*
X97718476Y-95034380D01*
X97480380Y-93986761D02*
X97242285Y-94701047D01*
X97861333Y-94701047D01*
G04 #@! TO.C,C5*
X96353333Y-99257142D02*
X96305714Y-99304761D01*
X96162857Y-99352380D01*
X96067619Y-99352380D01*
X95924761Y-99304761D01*
X95829523Y-99209523D01*
X95781904Y-99114285D01*
X95734285Y-98923809D01*
X95734285Y-98780952D01*
X95781904Y-98590476D01*
X95829523Y-98495238D01*
X95924761Y-98400000D01*
X96067619Y-98352380D01*
X96162857Y-98352380D01*
X96305714Y-98400000D01*
X96353333Y-98447619D01*
X97258095Y-98352380D02*
X96781904Y-98352380D01*
X96734285Y-98828571D01*
X96781904Y-98780952D01*
X96877142Y-98733333D01*
X97115238Y-98733333D01*
X97210476Y-98780952D01*
X97258095Y-98828571D01*
X97305714Y-98923809D01*
X97305714Y-99161904D01*
X97258095Y-99257142D01*
X97210476Y-99304761D01*
X97115238Y-99352380D01*
X96877142Y-99352380D01*
X96781904Y-99304761D01*
X96734285Y-99257142D01*
G04 #@! TO.C,C6*
X122244142Y-73064666D02*
X122291761Y-73112285D01*
X122339380Y-73255142D01*
X122339380Y-73350380D01*
X122291761Y-73493238D01*
X122196523Y-73588476D01*
X122101285Y-73636095D01*
X121910809Y-73683714D01*
X121767952Y-73683714D01*
X121577476Y-73636095D01*
X121482238Y-73588476D01*
X121387000Y-73493238D01*
X121339380Y-73350380D01*
X121339380Y-73255142D01*
X121387000Y-73112285D01*
X121434619Y-73064666D01*
X121339380Y-72207523D02*
X121339380Y-72398000D01*
X121387000Y-72493238D01*
X121434619Y-72540857D01*
X121577476Y-72636095D01*
X121767952Y-72683714D01*
X122148904Y-72683714D01*
X122244142Y-72636095D01*
X122291761Y-72588476D01*
X122339380Y-72493238D01*
X122339380Y-72302761D01*
X122291761Y-72207523D01*
X122244142Y-72159904D01*
X122148904Y-72112285D01*
X121910809Y-72112285D01*
X121815571Y-72159904D01*
X121767952Y-72207523D01*
X121720333Y-72302761D01*
X121720333Y-72493238D01*
X121767952Y-72588476D01*
X121815571Y-72636095D01*
X121910809Y-72683714D01*
G04 #@! TO.C,U1*
X74199714Y-77287380D02*
X73628285Y-77287380D01*
X73914000Y-77287380D02*
X73914000Y-76287380D01*
X73818761Y-76430238D01*
X73723523Y-76525476D01*
X73628285Y-76573095D01*
X96583523Y-77287380D02*
X96012095Y-77287380D01*
X96297809Y-77287380D02*
X96297809Y-76287380D01*
X96202571Y-76430238D01*
X96107333Y-76525476D01*
X96012095Y-76573095D01*
X97202571Y-76287380D02*
X97297809Y-76287380D01*
X97393047Y-76335000D01*
X97440666Y-76382619D01*
X97488285Y-76477857D01*
X97535904Y-76668333D01*
X97535904Y-76906428D01*
X97488285Y-77096904D01*
X97440666Y-77192142D01*
X97393047Y-77239761D01*
X97297809Y-77287380D01*
X97202571Y-77287380D01*
X97107333Y-77239761D01*
X97059714Y-77192142D01*
X97012095Y-77096904D01*
X96964476Y-76906428D01*
X96964476Y-76668333D01*
X97012095Y-76477857D01*
X97059714Y-76382619D01*
X97107333Y-76335000D01*
X97202571Y-76287380D01*
X96583523Y-113863380D02*
X96012095Y-113863380D01*
X96297809Y-113863380D02*
X96297809Y-112863380D01*
X96202571Y-113006238D01*
X96107333Y-113101476D01*
X96012095Y-113149095D01*
X97202571Y-112863380D02*
X97297809Y-112863380D01*
X97393047Y-112911000D01*
X97440666Y-112958619D01*
X97488285Y-113053857D01*
X97535904Y-113244333D01*
X97535904Y-113482428D01*
X97488285Y-113672904D01*
X97440666Y-113768142D01*
X97393047Y-113815761D01*
X97297809Y-113863380D01*
X97202571Y-113863380D01*
X97107333Y-113815761D01*
X97059714Y-113768142D01*
X97012095Y-113672904D01*
X96964476Y-113482428D01*
X96964476Y-113244333D01*
X97012095Y-113053857D01*
X97059714Y-112958619D01*
X97107333Y-112911000D01*
X97202571Y-112863380D01*
X74199714Y-113863380D02*
X73628285Y-113863380D01*
X73914000Y-113863380D02*
X73914000Y-112863380D01*
X73818761Y-113006238D01*
X73723523Y-113101476D01*
X73628285Y-113149095D01*
X95964476Y-77557380D02*
X96631142Y-78557380D01*
X96631142Y-77557380D02*
X95964476Y-78557380D01*
X96916857Y-77557380D02*
X97583523Y-77557380D01*
X97154952Y-78557380D01*
X95964476Y-111593380D02*
X96631142Y-112593380D01*
X96631142Y-111593380D02*
X95964476Y-112593380D01*
X97440666Y-111593380D02*
X97250190Y-111593380D01*
X97154952Y-111641000D01*
X97107333Y-111688619D01*
X97012095Y-111831476D01*
X96964476Y-112021952D01*
X96964476Y-112402904D01*
X97012095Y-112498142D01*
X97059714Y-112545761D01*
X97154952Y-112593380D01*
X97345428Y-112593380D01*
X97440666Y-112545761D01*
X97488285Y-112498142D01*
X97535904Y-112402904D01*
X97535904Y-112164809D01*
X97488285Y-112069571D01*
X97440666Y-112021952D01*
X97345428Y-111974333D01*
X97154952Y-111974333D01*
X97059714Y-112021952D01*
X97012095Y-112069571D01*
X96964476Y-112164809D01*
X98893333Y-75160142D02*
X98845714Y-75207761D01*
X98702857Y-75255380D01*
X98607619Y-75255380D01*
X98464761Y-75207761D01*
X98369523Y-75112523D01*
X98321904Y-75017285D01*
X98274285Y-74826809D01*
X98274285Y-74683952D01*
X98321904Y-74493476D01*
X98369523Y-74398238D01*
X98464761Y-74303000D01*
X98607619Y-74255380D01*
X98702857Y-74255380D01*
X98845714Y-74303000D01*
X98893333Y-74350619D01*
X99274285Y-74350619D02*
X99321904Y-74303000D01*
X99417142Y-74255380D01*
X99655238Y-74255380D01*
X99750476Y-74303000D01*
X99798095Y-74350619D01*
X99845714Y-74445857D01*
X99845714Y-74541095D01*
X99798095Y-74683952D01*
X99226666Y-75255380D01*
X99845714Y-75255380D01*
X98321904Y-72461380D02*
X98321904Y-71461380D01*
X98560000Y-71461380D01*
X98702857Y-71509000D01*
X98798095Y-71604238D01*
X98845714Y-71699476D01*
X98893333Y-71889952D01*
X98893333Y-72032809D01*
X98845714Y-72223285D01*
X98798095Y-72318523D01*
X98702857Y-72413761D01*
X98560000Y-72461380D01*
X98321904Y-72461380D01*
X99274285Y-71556619D02*
X99321904Y-71509000D01*
X99417142Y-71461380D01*
X99655238Y-71461380D01*
X99750476Y-71509000D01*
X99798095Y-71556619D01*
X99845714Y-71651857D01*
X99845714Y-71747095D01*
X99798095Y-71889952D01*
X99226666Y-72461380D01*
X99845714Y-72461380D01*
X99417238Y-115117571D02*
X99560095Y-115165190D01*
X99607714Y-115212809D01*
X99655333Y-115308047D01*
X99655333Y-115450904D01*
X99607714Y-115546142D01*
X99560095Y-115593761D01*
X99464857Y-115641380D01*
X99083904Y-115641380D01*
X99083904Y-114641380D01*
X99417238Y-114641380D01*
X99512476Y-114689000D01*
X99560095Y-114736619D01*
X99607714Y-114831857D01*
X99607714Y-114927095D01*
X99560095Y-115022333D01*
X99512476Y-115069952D01*
X99417238Y-115117571D01*
X99083904Y-115117571D01*
X100036285Y-114736619D02*
X100083904Y-114689000D01*
X100179142Y-114641380D01*
X100417238Y-114641380D01*
X100512476Y-114689000D01*
X100560095Y-114736619D01*
X100607714Y-114831857D01*
X100607714Y-114927095D01*
X100560095Y-115069952D01*
X99988666Y-115641380D01*
X100607714Y-115641380D01*
X99107714Y-118149666D02*
X99583904Y-118149666D01*
X99012476Y-118435380D02*
X99345809Y-117435380D01*
X99679142Y-118435380D01*
X99964857Y-117530619D02*
X100012476Y-117483000D01*
X100107714Y-117435380D01*
X100345809Y-117435380D01*
X100441047Y-117483000D01*
X100488666Y-117530619D01*
X100536285Y-117625857D01*
X100536285Y-117721095D01*
X100488666Y-117863952D01*
X99917238Y-118435380D01*
X100536285Y-118435380D01*
G04 #@! TO.C,U2*
X104267095Y-91369380D02*
X104267095Y-92178904D01*
X104314714Y-92274142D01*
X104362333Y-92321761D01*
X104457571Y-92369380D01*
X104648047Y-92369380D01*
X104743285Y-92321761D01*
X104790904Y-92274142D01*
X104838523Y-92178904D01*
X104838523Y-91369380D01*
X105267095Y-91464619D02*
X105314714Y-91417000D01*
X105409952Y-91369380D01*
X105648047Y-91369380D01*
X105743285Y-91417000D01*
X105790904Y-91464619D01*
X105838523Y-91559857D01*
X105838523Y-91655095D01*
X105790904Y-91797952D01*
X105219476Y-92369380D01*
X105838523Y-92369380D01*
G04 #@! TO.C,U3*
X122483666Y-76037380D02*
X122674142Y-76037380D01*
X122769380Y-76085000D01*
X122864619Y-76180238D01*
X122912238Y-76370714D01*
X122912238Y-76704047D01*
X122864619Y-76894523D01*
X122769380Y-76989761D01*
X122674142Y-77037380D01*
X122483666Y-77037380D01*
X122388428Y-76989761D01*
X122293190Y-76894523D01*
X122245571Y-76704047D01*
X122245571Y-76370714D01*
X122293190Y-76180238D01*
X122388428Y-76085000D01*
X122483666Y-76037380D01*
X123340809Y-77037380D02*
X123340809Y-76037380D01*
X123912238Y-77037380D02*
X123483666Y-76465952D01*
X123912238Y-76037380D02*
X123340809Y-76608809D01*
X124340809Y-77037380D02*
X124340809Y-76037380D01*
G04 #@! TD*
M02*
