G04 #@! TF.GenerationSoftware,KiCad,Pcbnew,(5.0.0)*
G04 #@! TF.CreationDate,2018-10-03T22:01:17-05:00*
G04 #@! TF.ProjectId,DriveBoard_Hardware,4472697665426F6172645F4861726477,rev?*
G04 #@! TF.SameCoordinates,Original*
G04 #@! TF.FileFunction,Paste,Top*
G04 #@! TF.FilePolarity,Positive*
%FSLAX46Y46*%
G04 Gerber Fmt 4.6, Leading zero omitted, Abs format (unit mm)*
G04 Created by KiCad (PCBNEW (5.0.0)) date 10/03/18 22:01:17*
%MOMM*%
%LPD*%
G01*
G04 APERTURE LIST*
%ADD10R,1.500000X0.600000*%
%ADD11C,0.100000*%
%ADD12C,0.950000*%
%ADD13C,5.080000*%
%ADD14C,1.520000*%
G04 APERTURE END LIST*
D10*
G04 #@! TO.C,U2*
X180942000Y-122428000D03*
X180942000Y-123698000D03*
X180942000Y-124968000D03*
X180942000Y-126238000D03*
X180942000Y-127508000D03*
X180942000Y-128778000D03*
X180942000Y-130048000D03*
X180942000Y-131318000D03*
X186342000Y-131318000D03*
X186342000Y-130048000D03*
X186342000Y-128778000D03*
X186342000Y-127508000D03*
X186342000Y-126238000D03*
X186342000Y-124968000D03*
X186342000Y-123698000D03*
X186342000Y-122428000D03*
G04 #@! TD*
D11*
G04 #@! TO.C,C1*
G36*
X183049779Y-119160144D02*
X183072834Y-119163563D01*
X183095443Y-119169227D01*
X183117387Y-119177079D01*
X183138457Y-119187044D01*
X183158448Y-119199026D01*
X183177168Y-119212910D01*
X183194438Y-119228562D01*
X183210090Y-119245832D01*
X183223974Y-119264552D01*
X183235956Y-119284543D01*
X183245921Y-119305613D01*
X183253773Y-119327557D01*
X183259437Y-119350166D01*
X183262856Y-119373221D01*
X183264000Y-119396500D01*
X183264000Y-119871500D01*
X183262856Y-119894779D01*
X183259437Y-119917834D01*
X183253773Y-119940443D01*
X183245921Y-119962387D01*
X183235956Y-119983457D01*
X183223974Y-120003448D01*
X183210090Y-120022168D01*
X183194438Y-120039438D01*
X183177168Y-120055090D01*
X183158448Y-120068974D01*
X183138457Y-120080956D01*
X183117387Y-120090921D01*
X183095443Y-120098773D01*
X183072834Y-120104437D01*
X183049779Y-120107856D01*
X183026500Y-120109000D01*
X182451500Y-120109000D01*
X182428221Y-120107856D01*
X182405166Y-120104437D01*
X182382557Y-120098773D01*
X182360613Y-120090921D01*
X182339543Y-120080956D01*
X182319552Y-120068974D01*
X182300832Y-120055090D01*
X182283562Y-120039438D01*
X182267910Y-120022168D01*
X182254026Y-120003448D01*
X182242044Y-119983457D01*
X182232079Y-119962387D01*
X182224227Y-119940443D01*
X182218563Y-119917834D01*
X182215144Y-119894779D01*
X182214000Y-119871500D01*
X182214000Y-119396500D01*
X182215144Y-119373221D01*
X182218563Y-119350166D01*
X182224227Y-119327557D01*
X182232079Y-119305613D01*
X182242044Y-119284543D01*
X182254026Y-119264552D01*
X182267910Y-119245832D01*
X182283562Y-119228562D01*
X182300832Y-119212910D01*
X182319552Y-119199026D01*
X182339543Y-119187044D01*
X182360613Y-119177079D01*
X182382557Y-119169227D01*
X182405166Y-119163563D01*
X182428221Y-119160144D01*
X182451500Y-119159000D01*
X183026500Y-119159000D01*
X183049779Y-119160144D01*
X183049779Y-119160144D01*
G37*
D12*
X182739000Y-119634000D03*
D11*
G36*
X181299779Y-119160144D02*
X181322834Y-119163563D01*
X181345443Y-119169227D01*
X181367387Y-119177079D01*
X181388457Y-119187044D01*
X181408448Y-119199026D01*
X181427168Y-119212910D01*
X181444438Y-119228562D01*
X181460090Y-119245832D01*
X181473974Y-119264552D01*
X181485956Y-119284543D01*
X181495921Y-119305613D01*
X181503773Y-119327557D01*
X181509437Y-119350166D01*
X181512856Y-119373221D01*
X181514000Y-119396500D01*
X181514000Y-119871500D01*
X181512856Y-119894779D01*
X181509437Y-119917834D01*
X181503773Y-119940443D01*
X181495921Y-119962387D01*
X181485956Y-119983457D01*
X181473974Y-120003448D01*
X181460090Y-120022168D01*
X181444438Y-120039438D01*
X181427168Y-120055090D01*
X181408448Y-120068974D01*
X181388457Y-120080956D01*
X181367387Y-120090921D01*
X181345443Y-120098773D01*
X181322834Y-120104437D01*
X181299779Y-120107856D01*
X181276500Y-120109000D01*
X180701500Y-120109000D01*
X180678221Y-120107856D01*
X180655166Y-120104437D01*
X180632557Y-120098773D01*
X180610613Y-120090921D01*
X180589543Y-120080956D01*
X180569552Y-120068974D01*
X180550832Y-120055090D01*
X180533562Y-120039438D01*
X180517910Y-120022168D01*
X180504026Y-120003448D01*
X180492044Y-119983457D01*
X180482079Y-119962387D01*
X180474227Y-119940443D01*
X180468563Y-119917834D01*
X180465144Y-119894779D01*
X180464000Y-119871500D01*
X180464000Y-119396500D01*
X180465144Y-119373221D01*
X180468563Y-119350166D01*
X180474227Y-119327557D01*
X180482079Y-119305613D01*
X180492044Y-119284543D01*
X180504026Y-119264552D01*
X180517910Y-119245832D01*
X180533562Y-119228562D01*
X180550832Y-119212910D01*
X180569552Y-119199026D01*
X180589543Y-119187044D01*
X180610613Y-119177079D01*
X180632557Y-119169227D01*
X180655166Y-119163563D01*
X180678221Y-119160144D01*
X180701500Y-119159000D01*
X181276500Y-119159000D01*
X181299779Y-119160144D01*
X181299779Y-119160144D01*
G37*
D12*
X180989000Y-119634000D03*
G04 #@! TD*
D11*
G04 #@! TO.C,C2*
G36*
X179076779Y-135620144D02*
X179099834Y-135623563D01*
X179122443Y-135629227D01*
X179144387Y-135637079D01*
X179165457Y-135647044D01*
X179185448Y-135659026D01*
X179204168Y-135672910D01*
X179221438Y-135688562D01*
X179237090Y-135705832D01*
X179250974Y-135724552D01*
X179262956Y-135744543D01*
X179272921Y-135765613D01*
X179280773Y-135787557D01*
X179286437Y-135810166D01*
X179289856Y-135833221D01*
X179291000Y-135856500D01*
X179291000Y-136431500D01*
X179289856Y-136454779D01*
X179286437Y-136477834D01*
X179280773Y-136500443D01*
X179272921Y-136522387D01*
X179262956Y-136543457D01*
X179250974Y-136563448D01*
X179237090Y-136582168D01*
X179221438Y-136599438D01*
X179204168Y-136615090D01*
X179185448Y-136628974D01*
X179165457Y-136640956D01*
X179144387Y-136650921D01*
X179122443Y-136658773D01*
X179099834Y-136664437D01*
X179076779Y-136667856D01*
X179053500Y-136669000D01*
X178578500Y-136669000D01*
X178555221Y-136667856D01*
X178532166Y-136664437D01*
X178509557Y-136658773D01*
X178487613Y-136650921D01*
X178466543Y-136640956D01*
X178446552Y-136628974D01*
X178427832Y-136615090D01*
X178410562Y-136599438D01*
X178394910Y-136582168D01*
X178381026Y-136563448D01*
X178369044Y-136543457D01*
X178359079Y-136522387D01*
X178351227Y-136500443D01*
X178345563Y-136477834D01*
X178342144Y-136454779D01*
X178341000Y-136431500D01*
X178341000Y-135856500D01*
X178342144Y-135833221D01*
X178345563Y-135810166D01*
X178351227Y-135787557D01*
X178359079Y-135765613D01*
X178369044Y-135744543D01*
X178381026Y-135724552D01*
X178394910Y-135705832D01*
X178410562Y-135688562D01*
X178427832Y-135672910D01*
X178446552Y-135659026D01*
X178466543Y-135647044D01*
X178487613Y-135637079D01*
X178509557Y-135629227D01*
X178532166Y-135623563D01*
X178555221Y-135620144D01*
X178578500Y-135619000D01*
X179053500Y-135619000D01*
X179076779Y-135620144D01*
X179076779Y-135620144D01*
G37*
D12*
X178816000Y-136144000D03*
D11*
G36*
X179076779Y-133870144D02*
X179099834Y-133873563D01*
X179122443Y-133879227D01*
X179144387Y-133887079D01*
X179165457Y-133897044D01*
X179185448Y-133909026D01*
X179204168Y-133922910D01*
X179221438Y-133938562D01*
X179237090Y-133955832D01*
X179250974Y-133974552D01*
X179262956Y-133994543D01*
X179272921Y-134015613D01*
X179280773Y-134037557D01*
X179286437Y-134060166D01*
X179289856Y-134083221D01*
X179291000Y-134106500D01*
X179291000Y-134681500D01*
X179289856Y-134704779D01*
X179286437Y-134727834D01*
X179280773Y-134750443D01*
X179272921Y-134772387D01*
X179262956Y-134793457D01*
X179250974Y-134813448D01*
X179237090Y-134832168D01*
X179221438Y-134849438D01*
X179204168Y-134865090D01*
X179185448Y-134878974D01*
X179165457Y-134890956D01*
X179144387Y-134900921D01*
X179122443Y-134908773D01*
X179099834Y-134914437D01*
X179076779Y-134917856D01*
X179053500Y-134919000D01*
X178578500Y-134919000D01*
X178555221Y-134917856D01*
X178532166Y-134914437D01*
X178509557Y-134908773D01*
X178487613Y-134900921D01*
X178466543Y-134890956D01*
X178446552Y-134878974D01*
X178427832Y-134865090D01*
X178410562Y-134849438D01*
X178394910Y-134832168D01*
X178381026Y-134813448D01*
X178369044Y-134793457D01*
X178359079Y-134772387D01*
X178351227Y-134750443D01*
X178345563Y-134727834D01*
X178342144Y-134704779D01*
X178341000Y-134681500D01*
X178341000Y-134106500D01*
X178342144Y-134083221D01*
X178345563Y-134060166D01*
X178351227Y-134037557D01*
X178359079Y-134015613D01*
X178369044Y-133994543D01*
X178381026Y-133974552D01*
X178394910Y-133955832D01*
X178410562Y-133938562D01*
X178427832Y-133922910D01*
X178446552Y-133909026D01*
X178466543Y-133897044D01*
X178487613Y-133887079D01*
X178509557Y-133879227D01*
X178532166Y-133873563D01*
X178555221Y-133870144D01*
X178578500Y-133869000D01*
X179053500Y-133869000D01*
X179076779Y-133870144D01*
X179076779Y-133870144D01*
G37*
D12*
X178816000Y-134394000D03*
G04 #@! TD*
D11*
G04 #@! TO.C,C3*
G36*
X213493779Y-114566144D02*
X213516834Y-114569563D01*
X213539443Y-114575227D01*
X213561387Y-114583079D01*
X213582457Y-114593044D01*
X213602448Y-114605026D01*
X213621168Y-114618910D01*
X213638438Y-114634562D01*
X213654090Y-114651832D01*
X213667974Y-114670552D01*
X213679956Y-114690543D01*
X213689921Y-114711613D01*
X213697773Y-114733557D01*
X213703437Y-114756166D01*
X213706856Y-114779221D01*
X213708000Y-114802500D01*
X213708000Y-115377500D01*
X213706856Y-115400779D01*
X213703437Y-115423834D01*
X213697773Y-115446443D01*
X213689921Y-115468387D01*
X213679956Y-115489457D01*
X213667974Y-115509448D01*
X213654090Y-115528168D01*
X213638438Y-115545438D01*
X213621168Y-115561090D01*
X213602448Y-115574974D01*
X213582457Y-115586956D01*
X213561387Y-115596921D01*
X213539443Y-115604773D01*
X213516834Y-115610437D01*
X213493779Y-115613856D01*
X213470500Y-115615000D01*
X212995500Y-115615000D01*
X212972221Y-115613856D01*
X212949166Y-115610437D01*
X212926557Y-115604773D01*
X212904613Y-115596921D01*
X212883543Y-115586956D01*
X212863552Y-115574974D01*
X212844832Y-115561090D01*
X212827562Y-115545438D01*
X212811910Y-115528168D01*
X212798026Y-115509448D01*
X212786044Y-115489457D01*
X212776079Y-115468387D01*
X212768227Y-115446443D01*
X212762563Y-115423834D01*
X212759144Y-115400779D01*
X212758000Y-115377500D01*
X212758000Y-114802500D01*
X212759144Y-114779221D01*
X212762563Y-114756166D01*
X212768227Y-114733557D01*
X212776079Y-114711613D01*
X212786044Y-114690543D01*
X212798026Y-114670552D01*
X212811910Y-114651832D01*
X212827562Y-114634562D01*
X212844832Y-114618910D01*
X212863552Y-114605026D01*
X212883543Y-114593044D01*
X212904613Y-114583079D01*
X212926557Y-114575227D01*
X212949166Y-114569563D01*
X212972221Y-114566144D01*
X212995500Y-114565000D01*
X213470500Y-114565000D01*
X213493779Y-114566144D01*
X213493779Y-114566144D01*
G37*
D12*
X213233000Y-115090000D03*
D11*
G36*
X213493779Y-116316144D02*
X213516834Y-116319563D01*
X213539443Y-116325227D01*
X213561387Y-116333079D01*
X213582457Y-116343044D01*
X213602448Y-116355026D01*
X213621168Y-116368910D01*
X213638438Y-116384562D01*
X213654090Y-116401832D01*
X213667974Y-116420552D01*
X213679956Y-116440543D01*
X213689921Y-116461613D01*
X213697773Y-116483557D01*
X213703437Y-116506166D01*
X213706856Y-116529221D01*
X213708000Y-116552500D01*
X213708000Y-117127500D01*
X213706856Y-117150779D01*
X213703437Y-117173834D01*
X213697773Y-117196443D01*
X213689921Y-117218387D01*
X213679956Y-117239457D01*
X213667974Y-117259448D01*
X213654090Y-117278168D01*
X213638438Y-117295438D01*
X213621168Y-117311090D01*
X213602448Y-117324974D01*
X213582457Y-117336956D01*
X213561387Y-117346921D01*
X213539443Y-117354773D01*
X213516834Y-117360437D01*
X213493779Y-117363856D01*
X213470500Y-117365000D01*
X212995500Y-117365000D01*
X212972221Y-117363856D01*
X212949166Y-117360437D01*
X212926557Y-117354773D01*
X212904613Y-117346921D01*
X212883543Y-117336956D01*
X212863552Y-117324974D01*
X212844832Y-117311090D01*
X212827562Y-117295438D01*
X212811910Y-117278168D01*
X212798026Y-117259448D01*
X212786044Y-117239457D01*
X212776079Y-117218387D01*
X212768227Y-117196443D01*
X212762563Y-117173834D01*
X212759144Y-117150779D01*
X212758000Y-117127500D01*
X212758000Y-116552500D01*
X212759144Y-116529221D01*
X212762563Y-116506166D01*
X212768227Y-116483557D01*
X212776079Y-116461613D01*
X212786044Y-116440543D01*
X212798026Y-116420552D01*
X212811910Y-116401832D01*
X212827562Y-116384562D01*
X212844832Y-116368910D01*
X212863552Y-116355026D01*
X212883543Y-116343044D01*
X212904613Y-116333079D01*
X212926557Y-116325227D01*
X212949166Y-116319563D01*
X212972221Y-116316144D01*
X212995500Y-116315000D01*
X213470500Y-116315000D01*
X213493779Y-116316144D01*
X213493779Y-116316144D01*
G37*
D12*
X213233000Y-116840000D03*
G04 #@! TD*
D11*
G04 #@! TO.C,C4*
G36*
X178822779Y-121664144D02*
X178845834Y-121667563D01*
X178868443Y-121673227D01*
X178890387Y-121681079D01*
X178911457Y-121691044D01*
X178931448Y-121703026D01*
X178950168Y-121716910D01*
X178967438Y-121732562D01*
X178983090Y-121749832D01*
X178996974Y-121768552D01*
X179008956Y-121788543D01*
X179018921Y-121809613D01*
X179026773Y-121831557D01*
X179032437Y-121854166D01*
X179035856Y-121877221D01*
X179037000Y-121900500D01*
X179037000Y-122475500D01*
X179035856Y-122498779D01*
X179032437Y-122521834D01*
X179026773Y-122544443D01*
X179018921Y-122566387D01*
X179008956Y-122587457D01*
X178996974Y-122607448D01*
X178983090Y-122626168D01*
X178967438Y-122643438D01*
X178950168Y-122659090D01*
X178931448Y-122672974D01*
X178911457Y-122684956D01*
X178890387Y-122694921D01*
X178868443Y-122702773D01*
X178845834Y-122708437D01*
X178822779Y-122711856D01*
X178799500Y-122713000D01*
X178324500Y-122713000D01*
X178301221Y-122711856D01*
X178278166Y-122708437D01*
X178255557Y-122702773D01*
X178233613Y-122694921D01*
X178212543Y-122684956D01*
X178192552Y-122672974D01*
X178173832Y-122659090D01*
X178156562Y-122643438D01*
X178140910Y-122626168D01*
X178127026Y-122607448D01*
X178115044Y-122587457D01*
X178105079Y-122566387D01*
X178097227Y-122544443D01*
X178091563Y-122521834D01*
X178088144Y-122498779D01*
X178087000Y-122475500D01*
X178087000Y-121900500D01*
X178088144Y-121877221D01*
X178091563Y-121854166D01*
X178097227Y-121831557D01*
X178105079Y-121809613D01*
X178115044Y-121788543D01*
X178127026Y-121768552D01*
X178140910Y-121749832D01*
X178156562Y-121732562D01*
X178173832Y-121716910D01*
X178192552Y-121703026D01*
X178212543Y-121691044D01*
X178233613Y-121681079D01*
X178255557Y-121673227D01*
X178278166Y-121667563D01*
X178301221Y-121664144D01*
X178324500Y-121663000D01*
X178799500Y-121663000D01*
X178822779Y-121664144D01*
X178822779Y-121664144D01*
G37*
D12*
X178562000Y-122188000D03*
D11*
G36*
X178822779Y-123414144D02*
X178845834Y-123417563D01*
X178868443Y-123423227D01*
X178890387Y-123431079D01*
X178911457Y-123441044D01*
X178931448Y-123453026D01*
X178950168Y-123466910D01*
X178967438Y-123482562D01*
X178983090Y-123499832D01*
X178996974Y-123518552D01*
X179008956Y-123538543D01*
X179018921Y-123559613D01*
X179026773Y-123581557D01*
X179032437Y-123604166D01*
X179035856Y-123627221D01*
X179037000Y-123650500D01*
X179037000Y-124225500D01*
X179035856Y-124248779D01*
X179032437Y-124271834D01*
X179026773Y-124294443D01*
X179018921Y-124316387D01*
X179008956Y-124337457D01*
X178996974Y-124357448D01*
X178983090Y-124376168D01*
X178967438Y-124393438D01*
X178950168Y-124409090D01*
X178931448Y-124422974D01*
X178911457Y-124434956D01*
X178890387Y-124444921D01*
X178868443Y-124452773D01*
X178845834Y-124458437D01*
X178822779Y-124461856D01*
X178799500Y-124463000D01*
X178324500Y-124463000D01*
X178301221Y-124461856D01*
X178278166Y-124458437D01*
X178255557Y-124452773D01*
X178233613Y-124444921D01*
X178212543Y-124434956D01*
X178192552Y-124422974D01*
X178173832Y-124409090D01*
X178156562Y-124393438D01*
X178140910Y-124376168D01*
X178127026Y-124357448D01*
X178115044Y-124337457D01*
X178105079Y-124316387D01*
X178097227Y-124294443D01*
X178091563Y-124271834D01*
X178088144Y-124248779D01*
X178087000Y-124225500D01*
X178087000Y-123650500D01*
X178088144Y-123627221D01*
X178091563Y-123604166D01*
X178097227Y-123581557D01*
X178105079Y-123559613D01*
X178115044Y-123538543D01*
X178127026Y-123518552D01*
X178140910Y-123499832D01*
X178156562Y-123482562D01*
X178173832Y-123466910D01*
X178192552Y-123453026D01*
X178212543Y-123441044D01*
X178233613Y-123431079D01*
X178255557Y-123423227D01*
X178278166Y-123417563D01*
X178301221Y-123414144D01*
X178324500Y-123413000D01*
X178799500Y-123413000D01*
X178822779Y-123414144D01*
X178822779Y-123414144D01*
G37*
D12*
X178562000Y-123938000D03*
G04 #@! TD*
D11*
G04 #@! TO.C,C5*
G36*
X178822779Y-127619144D02*
X178845834Y-127622563D01*
X178868443Y-127628227D01*
X178890387Y-127636079D01*
X178911457Y-127646044D01*
X178931448Y-127658026D01*
X178950168Y-127671910D01*
X178967438Y-127687562D01*
X178983090Y-127704832D01*
X178996974Y-127723552D01*
X179008956Y-127743543D01*
X179018921Y-127764613D01*
X179026773Y-127786557D01*
X179032437Y-127809166D01*
X179035856Y-127832221D01*
X179037000Y-127855500D01*
X179037000Y-128430500D01*
X179035856Y-128453779D01*
X179032437Y-128476834D01*
X179026773Y-128499443D01*
X179018921Y-128521387D01*
X179008956Y-128542457D01*
X178996974Y-128562448D01*
X178983090Y-128581168D01*
X178967438Y-128598438D01*
X178950168Y-128614090D01*
X178931448Y-128627974D01*
X178911457Y-128639956D01*
X178890387Y-128649921D01*
X178868443Y-128657773D01*
X178845834Y-128663437D01*
X178822779Y-128666856D01*
X178799500Y-128668000D01*
X178324500Y-128668000D01*
X178301221Y-128666856D01*
X178278166Y-128663437D01*
X178255557Y-128657773D01*
X178233613Y-128649921D01*
X178212543Y-128639956D01*
X178192552Y-128627974D01*
X178173832Y-128614090D01*
X178156562Y-128598438D01*
X178140910Y-128581168D01*
X178127026Y-128562448D01*
X178115044Y-128542457D01*
X178105079Y-128521387D01*
X178097227Y-128499443D01*
X178091563Y-128476834D01*
X178088144Y-128453779D01*
X178087000Y-128430500D01*
X178087000Y-127855500D01*
X178088144Y-127832221D01*
X178091563Y-127809166D01*
X178097227Y-127786557D01*
X178105079Y-127764613D01*
X178115044Y-127743543D01*
X178127026Y-127723552D01*
X178140910Y-127704832D01*
X178156562Y-127687562D01*
X178173832Y-127671910D01*
X178192552Y-127658026D01*
X178212543Y-127646044D01*
X178233613Y-127636079D01*
X178255557Y-127628227D01*
X178278166Y-127622563D01*
X178301221Y-127619144D01*
X178324500Y-127618000D01*
X178799500Y-127618000D01*
X178822779Y-127619144D01*
X178822779Y-127619144D01*
G37*
D12*
X178562000Y-128143000D03*
D11*
G36*
X178822779Y-125869144D02*
X178845834Y-125872563D01*
X178868443Y-125878227D01*
X178890387Y-125886079D01*
X178911457Y-125896044D01*
X178931448Y-125908026D01*
X178950168Y-125921910D01*
X178967438Y-125937562D01*
X178983090Y-125954832D01*
X178996974Y-125973552D01*
X179008956Y-125993543D01*
X179018921Y-126014613D01*
X179026773Y-126036557D01*
X179032437Y-126059166D01*
X179035856Y-126082221D01*
X179037000Y-126105500D01*
X179037000Y-126680500D01*
X179035856Y-126703779D01*
X179032437Y-126726834D01*
X179026773Y-126749443D01*
X179018921Y-126771387D01*
X179008956Y-126792457D01*
X178996974Y-126812448D01*
X178983090Y-126831168D01*
X178967438Y-126848438D01*
X178950168Y-126864090D01*
X178931448Y-126877974D01*
X178911457Y-126889956D01*
X178890387Y-126899921D01*
X178868443Y-126907773D01*
X178845834Y-126913437D01*
X178822779Y-126916856D01*
X178799500Y-126918000D01*
X178324500Y-126918000D01*
X178301221Y-126916856D01*
X178278166Y-126913437D01*
X178255557Y-126907773D01*
X178233613Y-126899921D01*
X178212543Y-126889956D01*
X178192552Y-126877974D01*
X178173832Y-126864090D01*
X178156562Y-126848438D01*
X178140910Y-126831168D01*
X178127026Y-126812448D01*
X178115044Y-126792457D01*
X178105079Y-126771387D01*
X178097227Y-126749443D01*
X178091563Y-126726834D01*
X178088144Y-126703779D01*
X178087000Y-126680500D01*
X178087000Y-126105500D01*
X178088144Y-126082221D01*
X178091563Y-126059166D01*
X178097227Y-126036557D01*
X178105079Y-126014613D01*
X178115044Y-125993543D01*
X178127026Y-125973552D01*
X178140910Y-125954832D01*
X178156562Y-125937562D01*
X178173832Y-125921910D01*
X178192552Y-125908026D01*
X178212543Y-125896044D01*
X178233613Y-125886079D01*
X178255557Y-125878227D01*
X178278166Y-125872563D01*
X178301221Y-125869144D01*
X178324500Y-125868000D01*
X178799500Y-125868000D01*
X178822779Y-125869144D01*
X178822779Y-125869144D01*
G37*
D12*
X178562000Y-126393000D03*
G04 #@! TD*
D13*
G04 #@! TO.C,Conn1*
X219963000Y-98831400D03*
X227964000Y-98831400D03*
G04 #@! TD*
D14*
G04 #@! TO.C,U1*
X175539001Y-141985001D03*
X198399001Y-96265001D03*
X195859001Y-96265001D03*
X188239001Y-96265001D03*
X185699001Y-139445001D03*
X190779001Y-96265001D03*
X193319001Y-96265001D03*
X190779001Y-141985001D03*
X195859001Y-139445001D03*
X185699001Y-96265001D03*
X183159001Y-96265001D03*
X195859001Y-141985001D03*
X190779001Y-139445001D03*
X188239001Y-139445001D03*
X175539001Y-139445001D03*
X178079001Y-139445001D03*
X180619001Y-139445001D03*
X183159001Y-139445001D03*
X193319001Y-139445001D03*
X198399001Y-139445001D03*
X178079001Y-141985001D03*
X180619001Y-141985001D03*
X183159001Y-141985001D03*
X185699001Y-141985001D03*
X188239001Y-141985001D03*
X193319001Y-141985001D03*
X198399001Y-141985001D03*
X175539001Y-98805001D03*
X178079001Y-98805001D03*
X180619001Y-98805001D03*
X183159001Y-98805001D03*
X185699001Y-98805001D03*
X188239001Y-98805001D03*
X190779001Y-98805001D03*
X193319001Y-98805001D03*
X195859001Y-98805001D03*
X198399001Y-98805001D03*
X175539001Y-96265001D03*
X178079001Y-96265001D03*
X180619001Y-96265001D03*
G04 #@! TD*
M02*
