G04 #@! TF.GenerationSoftware,KiCad,Pcbnew,(5.0.0)*
G04 #@! TF.CreationDate,2018-10-03T22:01:17-05:00*
G04 #@! TF.ProjectId,DriveBoard_Hardware,4472697665426F6172645F4861726477,rev?*
G04 #@! TF.SameCoordinates,Original*
G04 #@! TF.FileFunction,Copper,L2,Bot,Signal*
G04 #@! TF.FilePolarity,Positive*
%FSLAX46Y46*%
G04 Gerber Fmt 4.6, Leading zero omitted, Abs format (unit mm)*
G04 Created by KiCad (PCBNEW (5.0.0)) date 10/03/18 22:01:17*
%MOMM*%
%LPD*%
G01*
G04 APERTURE LIST*
G04 #@! TA.AperFunction,ComponentPad*
%ADD10C,5.080000*%
G04 #@! TD*
G04 #@! TA.AperFunction,ComponentPad*
%ADD11C,1.524000*%
G04 #@! TD*
G04 #@! TA.AperFunction,ComponentPad*
%ADD12C,1.520000*%
G04 #@! TD*
G04 #@! TA.AperFunction,ViaPad*
%ADD13C,0.800000*%
G04 #@! TD*
G04 #@! TA.AperFunction,Conductor*
%ADD14C,0.381000*%
G04 #@! TD*
G04 #@! TA.AperFunction,Conductor*
%ADD15C,0.254000*%
G04 #@! TD*
G04 APERTURE END LIST*
D10*
G04 #@! TO.P,Conn1,1*
G04 #@! TO.N,GND*
X219963000Y-98831400D03*
G04 #@! TO.P,Conn1,2*
G04 #@! TO.N,/+12V*
X227964000Y-98831400D03*
G04 #@! TD*
D11*
G04 #@! TO.P,Conn2,1*
G04 #@! TO.N,Net-(Conn2-Pad1)*
X195580000Y-90170000D03*
G04 #@! TO.P,Conn2,2*
G04 #@! TO.N,Net-(Conn2-Pad2)*
X198120000Y-90170000D03*
G04 #@! TO.P,Conn2,3*
G04 #@! TO.N,GND*
X200660000Y-90170000D03*
G04 #@! TO.P,Conn2,4*
G04 #@! TO.N,TX_1_SL*
X203200000Y-90170000D03*
G04 #@! TO.P,Conn2,5*
G04 #@! TO.N,RX_1_SL*
X205740000Y-90170000D03*
G04 #@! TD*
G04 #@! TO.P,Conn3,5*
G04 #@! TO.N,RX_2_SL*
X187960000Y-90170000D03*
G04 #@! TO.P,Conn3,4*
G04 #@! TO.N,TX_2_SL*
X185420000Y-90170000D03*
G04 #@! TO.P,Conn3,3*
G04 #@! TO.N,GND*
X182880000Y-90170000D03*
G04 #@! TO.P,Conn3,2*
G04 #@! TO.N,Net-(Conn3-Pad2)*
X180340000Y-90170000D03*
G04 #@! TO.P,Conn3,1*
G04 #@! TO.N,Net-(Conn3-Pad1)*
X177800000Y-90170000D03*
G04 #@! TD*
D12*
G04 #@! TO.P,U1,+3V3*
G04 #@! TO.N,Net-(U1-Pad+3V3)*
X175539001Y-141985001D03*
G04 #@! TO.P,U1,PM6*
G04 #@! TO.N,Net-(U1-PadPM6)*
X198399001Y-96265001D03*
G04 #@! TO.P,U1,PQ1*
G04 #@! TO.N,Net-(U1-PadPQ1)*
X195859001Y-96265001D03*
G04 #@! TO.P,U1,PQ2*
G04 #@! TO.N,Net-(U1-PadPQ2)*
X188239001Y-96265001D03*
G04 #@! TO.P,U1,PK0*
G04 #@! TO.N,RX_2_IC*
X185699001Y-139445001D03*
G04 #@! TO.P,U1,PQ3*
G04 #@! TO.N,Net-(U1-PadPQ3)*
X190779001Y-96265001D03*
G04 #@! TO.P,U1,PP3*
G04 #@! TO.N,Net-(U1-PadPP3)*
X193319001Y-96265001D03*
G04 #@! TO.P,U1,PQ0*
G04 #@! TO.N,Net-(U1-PadPQ0)*
X190779001Y-141985001D03*
G04 #@! TO.P,U1,PA4*
G04 #@! TO.N,Net-(U1-PadPA4)*
X195859001Y-139445001D03*
G04 #@! TO.P,U1,Rese*
G04 #@! TO.N,Net-(U1-PadRese)*
X185699001Y-96265001D03*
G04 #@! TO.P,U1,PA7*
G04 #@! TO.N,Net-(U1-PadPA7)*
X183159001Y-96265001D03*
G04 #@! TO.P,U1,PN5*
G04 #@! TO.N,Net-(U1-PadPN5)*
X195859001Y-141985001D03*
G04 #@! TO.P,U1,PK2*
G04 #@! TO.N,Net-(U1-PadPK2)*
X190779001Y-139445001D03*
G04 #@! TO.P,U1,PK1*
G04 #@! TO.N,TX_2_IC*
X188239001Y-139445001D03*
G04 #@! TO.P,U1,+5V*
G04 #@! TO.N,+5V*
X175539001Y-139445001D03*
G04 #@! TO.P,U1,GND*
G04 #@! TO.N,GND*
X178079001Y-139445001D03*
G04 #@! TO.P,U1,PB4*
G04 #@! TO.N,Net-(U1-PadPB4)*
X180619001Y-139445001D03*
G04 #@! TO.P,U1,PB5*
G04 #@! TO.N,Net-(U1-PadPB5)*
X183159001Y-139445001D03*
G04 #@! TO.P,U1,PK3*
G04 #@! TO.N,Net-(U1-PadPK3)*
X193319001Y-139445001D03*
G04 #@! TO.P,U1,PA5*
G04 #@! TO.N,Net-(U1-PadPA5)*
X198399001Y-139445001D03*
G04 #@! TO.P,U1,PD2*
G04 #@! TO.N,Net-(U1-PadPD2)*
X178079001Y-141985001D03*
G04 #@! TO.P,U1,PP0*
G04 #@! TO.N,RX_1_IC*
X180619001Y-141985001D03*
G04 #@! TO.P,U1,PP1*
G04 #@! TO.N,TX_1_IC*
X183159001Y-141985001D03*
G04 #@! TO.P,U1,PD4*
G04 #@! TO.N,Net-(U1-PadPD4)*
X185699001Y-141985001D03*
G04 #@! TO.P,U1,PD5*
G04 #@! TO.N,Net-(U1-PadPD5)*
X188239001Y-141985001D03*
G04 #@! TO.P,U1,PP4*
G04 #@! TO.N,Net-(U1-PadPP4)*
X193319001Y-141985001D03*
G04 #@! TO.P,U1,PN4*
G04 #@! TO.N,Net-(U1-PadPN4)*
X198399001Y-141985001D03*
G04 #@! TO.P,U1,PG1*
G04 #@! TO.N,Net-(U1-PadPG1)*
X175539001Y-98805001D03*
G04 #@! TO.P,U1,PK4*
G04 #@! TO.N,Net-(U1-PadPK4)*
X178079001Y-98805001D03*
G04 #@! TO.P,U1,PK5*
G04 #@! TO.N,Net-(U1-PadPK5)*
X180619001Y-98805001D03*
G04 #@! TO.P,U1,PM0*
G04 #@! TO.N,Net-(U1-PadPM0)*
X183159001Y-98805001D03*
G04 #@! TO.P,U1,PM1*
G04 #@! TO.N,Net-(U1-PadPM1)*
X185699001Y-98805001D03*
G04 #@! TO.P,U1,PM2*
G04 #@! TO.N,Net-(U1-PadPM2)*
X188239001Y-98805001D03*
G04 #@! TO.P,U1,PH0*
G04 #@! TO.N,Net-(U1-PadPH0)*
X190779001Y-98805001D03*
G04 #@! TO.P,U1,PH1*
G04 #@! TO.N,Net-(U1-PadPH1)*
X193319001Y-98805001D03*
G04 #@! TO.P,U1,PK6*
G04 #@! TO.N,Net-(U1-PadPK6)*
X195859001Y-98805001D03*
G04 #@! TO.P,U1,PK7*
G04 #@! TO.N,Net-(U1-PadPK7)*
X198399001Y-98805001D03*
G04 #@! TO.P,U1,GND*
G04 #@! TO.N,GND*
X175539001Y-96265001D03*
G04 #@! TO.P,U1,PM7*
G04 #@! TO.N,Net-(U1-PadPM7)*
X178079001Y-96265001D03*
G04 #@! TO.P,U1,PP5*
G04 #@! TO.N,Net-(U1-PadPP5)*
X180619001Y-96265001D03*
G04 #@! TD*
D11*
G04 #@! TO.P,U3,1*
G04 #@! TO.N,/+12V*
X217170000Y-116840000D03*
G04 #@! TO.P,U3,2*
G04 #@! TO.N,GND*
X217170000Y-114300000D03*
G04 #@! TO.P,U3,3*
G04 #@! TO.N,+5V*
X217170000Y-111760000D03*
G04 #@! TD*
D13*
G04 #@! TO.N,+5V*
X190119000Y-120904000D03*
G04 #@! TO.N,TX_1_SL*
X203200000Y-124968000D03*
G04 #@! TO.N,RX_1_SL*
X205740000Y-126238000D03*
G04 #@! TO.N,TX_2_SL*
X177292000Y-128905000D03*
G04 #@! TO.N,RX_2_IC*
X185674000Y-134366000D03*
G04 #@! TO.N,TX_2_IC*
X188214000Y-134366000D03*
G04 #@! TO.N,RX_1_IC*
X183134000Y-134366000D03*
G04 #@! TO.N,TX_1_IC*
X184404000Y-134366000D03*
G04 #@! TD*
D14*
G04 #@! TO.N,TX_1_SL*
X203200000Y-90170000D02*
X203200000Y-95706744D01*
X203200000Y-95706744D02*
X203200000Y-124968000D01*
G04 #@! TO.N,RX_1_SL*
X205740000Y-90170000D02*
X205740000Y-91247630D01*
X205740000Y-91247630D02*
X205740000Y-126238000D01*
G04 #@! TO.N,TX_2_SL*
X184658001Y-90931999D02*
X185420000Y-90170000D01*
X181769502Y-93820498D02*
X184658001Y-90931999D01*
X181769502Y-124427498D02*
X181769502Y-93820498D01*
X177292000Y-128905000D02*
X181769502Y-124427498D01*
G04 #@! TO.N,RX_2_IC*
X185699001Y-139445001D02*
X185699001Y-134391001D01*
X185699001Y-134391001D02*
X185674000Y-134366000D01*
G04 #@! TO.N,TX_2_IC*
X188239001Y-139445001D02*
X188239001Y-134391001D01*
X188239001Y-134391001D02*
X188214000Y-134366000D01*
G04 #@! TO.N,RX_1_IC*
X181769502Y-140834500D02*
X181769502Y-135730498D01*
X180619001Y-141985001D02*
X181769502Y-140834500D01*
X181769502Y-135730498D02*
X183134000Y-134366000D01*
G04 #@! TO.N,TX_1_IC*
X184309502Y-140834500D02*
X184309502Y-137254498D01*
X183159001Y-141985001D02*
X184309502Y-140834500D01*
X184309502Y-137254498D02*
X184309502Y-134460498D01*
X184309502Y-134460498D02*
X184404000Y-134366000D01*
G04 #@! TD*
D15*
G04 #@! TO.N,+5V*
G36*
X234494001Y-120853412D02*
X234433910Y-121273009D01*
X234279619Y-121612352D01*
X234036288Y-121894752D01*
X233723479Y-122097506D01*
X233342815Y-122211348D01*
X233145649Y-122226000D01*
X217493925Y-122226000D01*
X217424000Y-122212091D01*
X217354074Y-122226000D01*
X217146972Y-122267195D01*
X216912119Y-122424119D01*
X216755195Y-122658972D01*
X216700091Y-122936000D01*
X216714000Y-123005926D01*
X216714001Y-143694069D01*
X216700091Y-143764000D01*
X216755195Y-144041028D01*
X216912119Y-144275881D01*
X217146972Y-144432805D01*
X217354074Y-144474000D01*
X217354075Y-144474000D01*
X217424000Y-144487909D01*
X217493926Y-144474000D01*
X233121419Y-144474000D01*
X233541009Y-144534090D01*
X233880352Y-144688381D01*
X234162752Y-144931712D01*
X234365506Y-145244523D01*
X234479348Y-145625184D01*
X234494001Y-145822363D01*
X234494000Y-153313281D01*
X234408491Y-153339423D01*
X234316033Y-153366460D01*
X234308159Y-153370098D01*
X233786644Y-153614948D01*
X233706075Y-153667872D01*
X233624927Y-153719768D01*
X233618390Y-153725470D01*
X233186558Y-154106851D01*
X233124096Y-154180244D01*
X233060760Y-154252847D01*
X233056087Y-154260154D01*
X232748654Y-154747407D01*
X232709298Y-154835387D01*
X232668889Y-154922840D01*
X232666457Y-154931160D01*
X232666454Y-154931166D01*
X232666453Y-154931173D01*
X232508134Y-155485118D01*
X232495056Y-155580586D01*
X232480813Y-155675890D01*
X232480813Y-155684564D01*
X232484333Y-156260687D01*
X232498588Y-156356068D01*
X232511654Y-156451455D01*
X232514088Y-156459781D01*
X232679164Y-157011758D01*
X232719591Y-157099250D01*
X232758930Y-157187194D01*
X232763603Y-157194501D01*
X233076966Y-157677961D01*
X233140328Y-157750594D01*
X233202763Y-157823955D01*
X233209296Y-157829654D01*
X233209300Y-157829658D01*
X233209305Y-157829661D01*
X233645759Y-158205734D01*
X233726942Y-158257653D01*
X233807475Y-158310554D01*
X233815346Y-158314190D01*
X233815349Y-158314192D01*
X233815352Y-158314193D01*
X234339817Y-158552653D01*
X234432309Y-158579700D01*
X234494001Y-158598561D01*
X234494000Y-166573418D01*
X234433910Y-166993009D01*
X234279619Y-167332352D01*
X234036288Y-167614752D01*
X233723479Y-167817506D01*
X233342815Y-167931348D01*
X233145649Y-167946000D01*
X176828667Y-167946000D01*
X176330301Y-167883042D01*
X175905111Y-167714697D01*
X175535141Y-167445899D01*
X175243645Y-167093541D01*
X175048933Y-166679756D01*
X174956907Y-166197339D01*
X174954000Y-166104836D01*
X174954000Y-158598719D01*
X175039509Y-158572577D01*
X175131967Y-158545540D01*
X175139841Y-158541902D01*
X175661356Y-158297052D01*
X175741925Y-158244128D01*
X175823073Y-158192232D01*
X175829610Y-158186530D01*
X176261442Y-157805149D01*
X176323887Y-157731776D01*
X176387240Y-157659153D01*
X176391913Y-157651846D01*
X176699346Y-157164593D01*
X176738687Y-157076645D01*
X176779111Y-156989160D01*
X176781545Y-156980835D01*
X176939866Y-156426882D01*
X176952943Y-156331421D01*
X176967187Y-156236111D01*
X176967187Y-156227436D01*
X176963667Y-155651313D01*
X176949414Y-155555943D01*
X176936346Y-155460544D01*
X176933912Y-155452219D01*
X176768836Y-154900241D01*
X176728418Y-154812769D01*
X176689071Y-154724806D01*
X176684397Y-154717499D01*
X176371034Y-154234040D01*
X176307707Y-154161447D01*
X176245237Y-154088045D01*
X176238700Y-154082343D01*
X175802241Y-153706266D01*
X175721058Y-153654347D01*
X175640525Y-153601446D01*
X175632654Y-153597810D01*
X175632651Y-153597808D01*
X175632648Y-153597807D01*
X175108183Y-153359347D01*
X175015691Y-153332300D01*
X174954000Y-153313439D01*
X174954000Y-143252623D01*
X175261518Y-143380001D01*
X175816484Y-143380001D01*
X176329205Y-143167625D01*
X176721625Y-142775205D01*
X176809001Y-142564261D01*
X176896377Y-142775205D01*
X177288797Y-143167625D01*
X177801518Y-143380001D01*
X178356484Y-143380001D01*
X178869205Y-143167625D01*
X179261625Y-142775205D01*
X179349001Y-142564261D01*
X179436377Y-142775205D01*
X179828797Y-143167625D01*
X180341518Y-143380001D01*
X180896484Y-143380001D01*
X181409205Y-143167625D01*
X181801625Y-142775205D01*
X181889001Y-142564261D01*
X181976377Y-142775205D01*
X182368797Y-143167625D01*
X182881518Y-143380001D01*
X183436484Y-143380001D01*
X183949205Y-143167625D01*
X184341625Y-142775205D01*
X184429001Y-142564261D01*
X184516377Y-142775205D01*
X184908797Y-143167625D01*
X185421518Y-143380001D01*
X185976484Y-143380001D01*
X186489205Y-143167625D01*
X186881625Y-142775205D01*
X186969001Y-142564261D01*
X187056377Y-142775205D01*
X187448797Y-143167625D01*
X187961518Y-143380001D01*
X188516484Y-143380001D01*
X189029205Y-143167625D01*
X189421625Y-142775205D01*
X189509001Y-142564261D01*
X189596377Y-142775205D01*
X189988797Y-143167625D01*
X190501518Y-143380001D01*
X191056484Y-143380001D01*
X191569205Y-143167625D01*
X191961625Y-142775205D01*
X192049001Y-142564261D01*
X192136377Y-142775205D01*
X192528797Y-143167625D01*
X193041518Y-143380001D01*
X193596484Y-143380001D01*
X194109205Y-143167625D01*
X194501625Y-142775205D01*
X194589001Y-142564261D01*
X194676377Y-142775205D01*
X195068797Y-143167625D01*
X195581518Y-143380001D01*
X196136484Y-143380001D01*
X196649205Y-143167625D01*
X197041625Y-142775205D01*
X197129001Y-142564261D01*
X197216377Y-142775205D01*
X197608797Y-143167625D01*
X198121518Y-143380001D01*
X198676484Y-143380001D01*
X199189205Y-143167625D01*
X199581625Y-142775205D01*
X199794001Y-142262484D01*
X199794001Y-141707518D01*
X199581625Y-141194797D01*
X199189205Y-140802377D01*
X198978261Y-140715001D01*
X199189205Y-140627625D01*
X199581625Y-140235205D01*
X199794001Y-139722484D01*
X199794001Y-139167518D01*
X199581625Y-138654797D01*
X199189205Y-138262377D01*
X198676484Y-138050001D01*
X198121518Y-138050001D01*
X197608797Y-138262377D01*
X197216377Y-138654797D01*
X197129001Y-138865741D01*
X197041625Y-138654797D01*
X196649205Y-138262377D01*
X196136484Y-138050001D01*
X195581518Y-138050001D01*
X195068797Y-138262377D01*
X194676377Y-138654797D01*
X194589001Y-138865741D01*
X194501625Y-138654797D01*
X194109205Y-138262377D01*
X193596484Y-138050001D01*
X193041518Y-138050001D01*
X192528797Y-138262377D01*
X192136377Y-138654797D01*
X192049001Y-138865741D01*
X191961625Y-138654797D01*
X191569205Y-138262377D01*
X191056484Y-138050001D01*
X190501518Y-138050001D01*
X189988797Y-138262377D01*
X189596377Y-138654797D01*
X189509001Y-138865741D01*
X189421625Y-138654797D01*
X189064501Y-138297673D01*
X189064501Y-134979210D01*
X189091431Y-134952280D01*
X189249000Y-134571874D01*
X189249000Y-134160126D01*
X189091431Y-133779720D01*
X188800280Y-133488569D01*
X188419874Y-133331000D01*
X188008126Y-133331000D01*
X187627720Y-133488569D01*
X187336569Y-133779720D01*
X187179000Y-134160126D01*
X187179000Y-134571874D01*
X187336569Y-134952280D01*
X187413502Y-135029213D01*
X187413501Y-138297673D01*
X187056377Y-138654797D01*
X186969001Y-138865741D01*
X186881625Y-138654797D01*
X186524501Y-138297673D01*
X186524501Y-134979210D01*
X186551431Y-134952280D01*
X186709000Y-134571874D01*
X186709000Y-134160126D01*
X186551431Y-133779720D01*
X186260280Y-133488569D01*
X185879874Y-133331000D01*
X185468126Y-133331000D01*
X185087720Y-133488569D01*
X185039000Y-133537289D01*
X184990280Y-133488569D01*
X184609874Y-133331000D01*
X184198126Y-133331000D01*
X183817720Y-133488569D01*
X183769000Y-133537289D01*
X183720280Y-133488569D01*
X183339874Y-133331000D01*
X182928126Y-133331000D01*
X182547720Y-133488569D01*
X182256569Y-133779720D01*
X182099000Y-134160126D01*
X182099000Y-134233567D01*
X181243277Y-135089291D01*
X181174351Y-135135346D01*
X181128296Y-135204272D01*
X180991899Y-135408404D01*
X180927830Y-135730498D01*
X180944003Y-135811804D01*
X180944003Y-138069684D01*
X180896484Y-138050001D01*
X180341518Y-138050001D01*
X179828797Y-138262377D01*
X179436377Y-138654797D01*
X179349001Y-138865741D01*
X179261625Y-138654797D01*
X178869205Y-138262377D01*
X178356484Y-138050001D01*
X177801518Y-138050001D01*
X177288797Y-138262377D01*
X176896377Y-138654797D01*
X176684001Y-139167518D01*
X176684001Y-139722484D01*
X176896377Y-140235205D01*
X177288797Y-140627625D01*
X177499741Y-140715001D01*
X177288797Y-140802377D01*
X176896377Y-141194797D01*
X176809001Y-141405741D01*
X176721625Y-141194797D01*
X176329205Y-140802377D01*
X175816484Y-140590001D01*
X175261518Y-140590001D01*
X174954000Y-140717379D01*
X174954000Y-100072623D01*
X175261518Y-100200001D01*
X175816484Y-100200001D01*
X176329205Y-99987625D01*
X176721625Y-99595205D01*
X176809001Y-99384261D01*
X176896377Y-99595205D01*
X177288797Y-99987625D01*
X177801518Y-100200001D01*
X178356484Y-100200001D01*
X178869205Y-99987625D01*
X179261625Y-99595205D01*
X179349001Y-99384261D01*
X179436377Y-99595205D01*
X179828797Y-99987625D01*
X180341518Y-100200001D01*
X180896484Y-100200001D01*
X180944003Y-100180318D01*
X180944002Y-124085565D01*
X177159568Y-127870000D01*
X177086126Y-127870000D01*
X176705720Y-128027569D01*
X176414569Y-128318720D01*
X176257000Y-128699126D01*
X176257000Y-129110874D01*
X176414569Y-129491280D01*
X176705720Y-129782431D01*
X177086126Y-129940000D01*
X177497874Y-129940000D01*
X177878280Y-129782431D01*
X178169431Y-129491280D01*
X178327000Y-129110874D01*
X178327000Y-129037432D01*
X182295728Y-125068705D01*
X182364654Y-125022650D01*
X182547106Y-124749592D01*
X182595002Y-124508801D01*
X182595002Y-124508797D01*
X182611173Y-124427499D01*
X182595002Y-124346201D01*
X182595002Y-100081322D01*
X182881518Y-100200001D01*
X183436484Y-100200001D01*
X183949205Y-99987625D01*
X184341625Y-99595205D01*
X184429001Y-99384261D01*
X184516377Y-99595205D01*
X184908797Y-99987625D01*
X185421518Y-100200001D01*
X185976484Y-100200001D01*
X186489205Y-99987625D01*
X186881625Y-99595205D01*
X186969001Y-99384261D01*
X187056377Y-99595205D01*
X187448797Y-99987625D01*
X187961518Y-100200001D01*
X188516484Y-100200001D01*
X189029205Y-99987625D01*
X189421625Y-99595205D01*
X189509001Y-99384261D01*
X189596377Y-99595205D01*
X189988797Y-99987625D01*
X190501518Y-100200001D01*
X191056484Y-100200001D01*
X191569205Y-99987625D01*
X191961625Y-99595205D01*
X192049001Y-99384261D01*
X192136377Y-99595205D01*
X192528797Y-99987625D01*
X193041518Y-100200001D01*
X193596484Y-100200001D01*
X194109205Y-99987625D01*
X194501625Y-99595205D01*
X194589001Y-99384261D01*
X194676377Y-99595205D01*
X195068797Y-99987625D01*
X195581518Y-100200001D01*
X196136484Y-100200001D01*
X196649205Y-99987625D01*
X197041625Y-99595205D01*
X197129001Y-99384261D01*
X197216377Y-99595205D01*
X197608797Y-99987625D01*
X198121518Y-100200001D01*
X198676484Y-100200001D01*
X199189205Y-99987625D01*
X199581625Y-99595205D01*
X199794001Y-99082484D01*
X199794001Y-98527518D01*
X199581625Y-98014797D01*
X199189205Y-97622377D01*
X198978261Y-97535001D01*
X199189205Y-97447625D01*
X199581625Y-97055205D01*
X199794001Y-96542484D01*
X199794001Y-95987518D01*
X199581625Y-95474797D01*
X199189205Y-95082377D01*
X198676484Y-94870001D01*
X198121518Y-94870001D01*
X197608797Y-95082377D01*
X197216377Y-95474797D01*
X197129001Y-95685741D01*
X197041625Y-95474797D01*
X196649205Y-95082377D01*
X196136484Y-94870001D01*
X195581518Y-94870001D01*
X195068797Y-95082377D01*
X194676377Y-95474797D01*
X194589001Y-95685741D01*
X194501625Y-95474797D01*
X194109205Y-95082377D01*
X193596484Y-94870001D01*
X193041518Y-94870001D01*
X192528797Y-95082377D01*
X192136377Y-95474797D01*
X192049001Y-95685741D01*
X191961625Y-95474797D01*
X191569205Y-95082377D01*
X191056484Y-94870001D01*
X190501518Y-94870001D01*
X189988797Y-95082377D01*
X189596377Y-95474797D01*
X189509001Y-95685741D01*
X189421625Y-95474797D01*
X189029205Y-95082377D01*
X188516484Y-94870001D01*
X187961518Y-94870001D01*
X187448797Y-95082377D01*
X187056377Y-95474797D01*
X186969001Y-95685741D01*
X186881625Y-95474797D01*
X186489205Y-95082377D01*
X185976484Y-94870001D01*
X185421518Y-94870001D01*
X184908797Y-95082377D01*
X184516377Y-95474797D01*
X184429001Y-95685741D01*
X184341625Y-95474797D01*
X183949205Y-95082377D01*
X183436484Y-94870001D01*
X182881518Y-94870001D01*
X182595002Y-94988680D01*
X182595002Y-94162430D01*
X185190434Y-91567000D01*
X185697881Y-91567000D01*
X186211337Y-91354320D01*
X186604320Y-90961337D01*
X186690000Y-90754487D01*
X186775680Y-90961337D01*
X187168663Y-91354320D01*
X187682119Y-91567000D01*
X188237881Y-91567000D01*
X188751337Y-91354320D01*
X189144320Y-90961337D01*
X189357000Y-90447881D01*
X189357000Y-89892119D01*
X194183000Y-89892119D01*
X194183000Y-90447881D01*
X194395680Y-90961337D01*
X194788663Y-91354320D01*
X195302119Y-91567000D01*
X195857881Y-91567000D01*
X196371337Y-91354320D01*
X196764320Y-90961337D01*
X196850000Y-90754487D01*
X196935680Y-90961337D01*
X197328663Y-91354320D01*
X197842119Y-91567000D01*
X198397881Y-91567000D01*
X198911337Y-91354320D01*
X199304320Y-90961337D01*
X199390000Y-90754487D01*
X199475680Y-90961337D01*
X199868663Y-91354320D01*
X200382119Y-91567000D01*
X200937881Y-91567000D01*
X201451337Y-91354320D01*
X201844320Y-90961337D01*
X201930000Y-90754487D01*
X202015680Y-90961337D01*
X202374500Y-91320157D01*
X202374501Y-95625437D01*
X202374500Y-95625442D01*
X202374501Y-124329788D01*
X202322569Y-124381720D01*
X202165000Y-124762126D01*
X202165000Y-125173874D01*
X202322569Y-125554280D01*
X202613720Y-125845431D01*
X202994126Y-126003000D01*
X203405874Y-126003000D01*
X203786280Y-125845431D01*
X204077431Y-125554280D01*
X204235000Y-125173874D01*
X204235000Y-124762126D01*
X204077431Y-124381720D01*
X204025500Y-124329789D01*
X204025500Y-91320157D01*
X204384320Y-90961337D01*
X204470000Y-90754487D01*
X204555680Y-90961337D01*
X204914500Y-91320157D01*
X204914501Y-125599788D01*
X204862569Y-125651720D01*
X204705000Y-126032126D01*
X204705000Y-126443874D01*
X204862569Y-126824280D01*
X205153720Y-127115431D01*
X205534126Y-127273000D01*
X205945874Y-127273000D01*
X206326280Y-127115431D01*
X206617431Y-126824280D01*
X206775000Y-126443874D01*
X206775000Y-126032126D01*
X206617431Y-125651720D01*
X206565500Y-125599789D01*
X206565500Y-114022119D01*
X215773000Y-114022119D01*
X215773000Y-114577881D01*
X215985680Y-115091337D01*
X216378663Y-115484320D01*
X216585513Y-115570000D01*
X216378663Y-115655680D01*
X215985680Y-116048663D01*
X215773000Y-116562119D01*
X215773000Y-117117881D01*
X215985680Y-117631337D01*
X216378663Y-118024320D01*
X216892119Y-118237000D01*
X217447881Y-118237000D01*
X217961337Y-118024320D01*
X218354320Y-117631337D01*
X218567000Y-117117881D01*
X218567000Y-116562119D01*
X218354320Y-116048663D01*
X217961337Y-115655680D01*
X217754487Y-115570000D01*
X217961337Y-115484320D01*
X218354320Y-115091337D01*
X218567000Y-114577881D01*
X218567000Y-114022119D01*
X218354320Y-113508663D01*
X217961337Y-113115680D01*
X217447881Y-112903000D01*
X216892119Y-112903000D01*
X216378663Y-113115680D01*
X215985680Y-113508663D01*
X215773000Y-114022119D01*
X206565500Y-114022119D01*
X206565500Y-98199853D01*
X216788000Y-98199853D01*
X216788000Y-99462947D01*
X217271365Y-100629893D01*
X218164507Y-101523035D01*
X219331453Y-102006400D01*
X220594547Y-102006400D01*
X221761493Y-101523035D01*
X222654635Y-100629893D01*
X223138000Y-99462947D01*
X223138000Y-98199853D01*
X224789000Y-98199853D01*
X224789000Y-99462947D01*
X225272365Y-100629893D01*
X226165507Y-101523035D01*
X227332453Y-102006400D01*
X228595547Y-102006400D01*
X229762493Y-101523035D01*
X230655635Y-100629893D01*
X231139000Y-99462947D01*
X231139000Y-98199853D01*
X230655635Y-97032907D01*
X229762493Y-96139765D01*
X228595547Y-95656400D01*
X227332453Y-95656400D01*
X226165507Y-96139765D01*
X225272365Y-97032907D01*
X224789000Y-98199853D01*
X223138000Y-98199853D01*
X222654635Y-97032907D01*
X221761493Y-96139765D01*
X220594547Y-95656400D01*
X219331453Y-95656400D01*
X218164507Y-96139765D01*
X217271365Y-97032907D01*
X216788000Y-98199853D01*
X206565500Y-98199853D01*
X206565500Y-91320157D01*
X206924320Y-90961337D01*
X207137000Y-90447881D01*
X207137000Y-89892119D01*
X206924320Y-89378663D01*
X206531337Y-88985680D01*
X206017881Y-88773000D01*
X205462119Y-88773000D01*
X204948663Y-88985680D01*
X204555680Y-89378663D01*
X204470000Y-89585513D01*
X204384320Y-89378663D01*
X203991337Y-88985680D01*
X203477881Y-88773000D01*
X202922119Y-88773000D01*
X202408663Y-88985680D01*
X202015680Y-89378663D01*
X201930000Y-89585513D01*
X201844320Y-89378663D01*
X201451337Y-88985680D01*
X200937881Y-88773000D01*
X200382119Y-88773000D01*
X199868663Y-88985680D01*
X199475680Y-89378663D01*
X199390000Y-89585513D01*
X199304320Y-89378663D01*
X198911337Y-88985680D01*
X198397881Y-88773000D01*
X197842119Y-88773000D01*
X197328663Y-88985680D01*
X196935680Y-89378663D01*
X196850000Y-89585513D01*
X196764320Y-89378663D01*
X196371337Y-88985680D01*
X195857881Y-88773000D01*
X195302119Y-88773000D01*
X194788663Y-88985680D01*
X194395680Y-89378663D01*
X194183000Y-89892119D01*
X189357000Y-89892119D01*
X189144320Y-89378663D01*
X188751337Y-88985680D01*
X188237881Y-88773000D01*
X187682119Y-88773000D01*
X187168663Y-88985680D01*
X186775680Y-89378663D01*
X186690000Y-89585513D01*
X186604320Y-89378663D01*
X186211337Y-88985680D01*
X185697881Y-88773000D01*
X185142119Y-88773000D01*
X184628663Y-88985680D01*
X184235680Y-89378663D01*
X184150000Y-89585513D01*
X184064320Y-89378663D01*
X183671337Y-88985680D01*
X183157881Y-88773000D01*
X182602119Y-88773000D01*
X182088663Y-88985680D01*
X181695680Y-89378663D01*
X181610000Y-89585513D01*
X181524320Y-89378663D01*
X181131337Y-88985680D01*
X180617881Y-88773000D01*
X180062119Y-88773000D01*
X179548663Y-88985680D01*
X179155680Y-89378663D01*
X179070000Y-89585513D01*
X178984320Y-89378663D01*
X178591337Y-88985680D01*
X178077881Y-88773000D01*
X177522119Y-88773000D01*
X177008663Y-88985680D01*
X176615680Y-89378663D01*
X176403000Y-89892119D01*
X176403000Y-90447881D01*
X176615680Y-90961337D01*
X177008663Y-91354320D01*
X177522119Y-91567000D01*
X178077881Y-91567000D01*
X178591337Y-91354320D01*
X178984320Y-90961337D01*
X179070000Y-90754487D01*
X179155680Y-90961337D01*
X179548663Y-91354320D01*
X180062119Y-91567000D01*
X180617881Y-91567000D01*
X181131337Y-91354320D01*
X181524320Y-90961337D01*
X181610000Y-90754487D01*
X181695680Y-90961337D01*
X182088663Y-91354320D01*
X182602119Y-91567000D01*
X182855567Y-91567000D01*
X181243277Y-93179291D01*
X181174351Y-93225346D01*
X181128296Y-93294272D01*
X180991899Y-93498404D01*
X180927830Y-93820498D01*
X180944003Y-93901804D01*
X180944003Y-94889684D01*
X180896484Y-94870001D01*
X180341518Y-94870001D01*
X179828797Y-95082377D01*
X179436377Y-95474797D01*
X179349001Y-95685741D01*
X179261625Y-95474797D01*
X178869205Y-95082377D01*
X178356484Y-94870001D01*
X177801518Y-94870001D01*
X177288797Y-95082377D01*
X176896377Y-95474797D01*
X176809001Y-95685741D01*
X176721625Y-95474797D01*
X176329205Y-95082377D01*
X175816484Y-94870001D01*
X175261518Y-94870001D01*
X174954000Y-94997379D01*
X174954000Y-83295544D01*
X175193167Y-83534711D01*
X176060567Y-83894000D01*
X176999433Y-83894000D01*
X177866833Y-83534711D01*
X178530711Y-82870833D01*
X178890000Y-82003433D01*
X178890000Y-81064567D01*
X186870000Y-81064567D01*
X186870000Y-82003433D01*
X187229289Y-82870833D01*
X187893167Y-83534711D01*
X188760567Y-83894000D01*
X189699433Y-83894000D01*
X190566833Y-83534711D01*
X191230711Y-82870833D01*
X191590000Y-82003433D01*
X191590000Y-81064567D01*
X191950000Y-81064567D01*
X191950000Y-82003433D01*
X192309289Y-82870833D01*
X192973167Y-83534711D01*
X193840567Y-83894000D01*
X194779433Y-83894000D01*
X195646833Y-83534711D01*
X196310711Y-82870833D01*
X196670000Y-82003433D01*
X196670000Y-81064567D01*
X204650000Y-81064567D01*
X204650000Y-82003433D01*
X205009289Y-82870833D01*
X205673167Y-83534711D01*
X206540567Y-83894000D01*
X207479433Y-83894000D01*
X208346833Y-83534711D01*
X209010711Y-82870833D01*
X209370000Y-82003433D01*
X209370000Y-81064567D01*
X209010711Y-80197167D01*
X208346833Y-79533289D01*
X207479433Y-79174000D01*
X206540567Y-79174000D01*
X205673167Y-79533289D01*
X205009289Y-80197167D01*
X204650000Y-81064567D01*
X196670000Y-81064567D01*
X196310711Y-80197167D01*
X195646833Y-79533289D01*
X194779433Y-79174000D01*
X193840567Y-79174000D01*
X192973167Y-79533289D01*
X192309289Y-80197167D01*
X191950000Y-81064567D01*
X191590000Y-81064567D01*
X191230711Y-80197167D01*
X190566833Y-79533289D01*
X189699433Y-79174000D01*
X188760567Y-79174000D01*
X187893167Y-79533289D01*
X187229289Y-80197167D01*
X186870000Y-81064567D01*
X178890000Y-81064567D01*
X178530711Y-80197167D01*
X177866833Y-79533289D01*
X176999433Y-79174000D01*
X176060567Y-79174000D01*
X175193167Y-79533289D01*
X174954000Y-79772456D01*
X174954000Y-77418000D01*
X234494000Y-77418000D01*
X234494001Y-120853412D01*
X234494001Y-120853412D01*
G37*
X234494001Y-120853412D02*
X234433910Y-121273009D01*
X234279619Y-121612352D01*
X234036288Y-121894752D01*
X233723479Y-122097506D01*
X233342815Y-122211348D01*
X233145649Y-122226000D01*
X217493925Y-122226000D01*
X217424000Y-122212091D01*
X217354074Y-122226000D01*
X217146972Y-122267195D01*
X216912119Y-122424119D01*
X216755195Y-122658972D01*
X216700091Y-122936000D01*
X216714000Y-123005926D01*
X216714001Y-143694069D01*
X216700091Y-143764000D01*
X216755195Y-144041028D01*
X216912119Y-144275881D01*
X217146972Y-144432805D01*
X217354074Y-144474000D01*
X217354075Y-144474000D01*
X217424000Y-144487909D01*
X217493926Y-144474000D01*
X233121419Y-144474000D01*
X233541009Y-144534090D01*
X233880352Y-144688381D01*
X234162752Y-144931712D01*
X234365506Y-145244523D01*
X234479348Y-145625184D01*
X234494001Y-145822363D01*
X234494000Y-153313281D01*
X234408491Y-153339423D01*
X234316033Y-153366460D01*
X234308159Y-153370098D01*
X233786644Y-153614948D01*
X233706075Y-153667872D01*
X233624927Y-153719768D01*
X233618390Y-153725470D01*
X233186558Y-154106851D01*
X233124096Y-154180244D01*
X233060760Y-154252847D01*
X233056087Y-154260154D01*
X232748654Y-154747407D01*
X232709298Y-154835387D01*
X232668889Y-154922840D01*
X232666457Y-154931160D01*
X232666454Y-154931166D01*
X232666453Y-154931173D01*
X232508134Y-155485118D01*
X232495056Y-155580586D01*
X232480813Y-155675890D01*
X232480813Y-155684564D01*
X232484333Y-156260687D01*
X232498588Y-156356068D01*
X232511654Y-156451455D01*
X232514088Y-156459781D01*
X232679164Y-157011758D01*
X232719591Y-157099250D01*
X232758930Y-157187194D01*
X232763603Y-157194501D01*
X233076966Y-157677961D01*
X233140328Y-157750594D01*
X233202763Y-157823955D01*
X233209296Y-157829654D01*
X233209300Y-157829658D01*
X233209305Y-157829661D01*
X233645759Y-158205734D01*
X233726942Y-158257653D01*
X233807475Y-158310554D01*
X233815346Y-158314190D01*
X233815349Y-158314192D01*
X233815352Y-158314193D01*
X234339817Y-158552653D01*
X234432309Y-158579700D01*
X234494001Y-158598561D01*
X234494000Y-166573418D01*
X234433910Y-166993009D01*
X234279619Y-167332352D01*
X234036288Y-167614752D01*
X233723479Y-167817506D01*
X233342815Y-167931348D01*
X233145649Y-167946000D01*
X176828667Y-167946000D01*
X176330301Y-167883042D01*
X175905111Y-167714697D01*
X175535141Y-167445899D01*
X175243645Y-167093541D01*
X175048933Y-166679756D01*
X174956907Y-166197339D01*
X174954000Y-166104836D01*
X174954000Y-158598719D01*
X175039509Y-158572577D01*
X175131967Y-158545540D01*
X175139841Y-158541902D01*
X175661356Y-158297052D01*
X175741925Y-158244128D01*
X175823073Y-158192232D01*
X175829610Y-158186530D01*
X176261442Y-157805149D01*
X176323887Y-157731776D01*
X176387240Y-157659153D01*
X176391913Y-157651846D01*
X176699346Y-157164593D01*
X176738687Y-157076645D01*
X176779111Y-156989160D01*
X176781545Y-156980835D01*
X176939866Y-156426882D01*
X176952943Y-156331421D01*
X176967187Y-156236111D01*
X176967187Y-156227436D01*
X176963667Y-155651313D01*
X176949414Y-155555943D01*
X176936346Y-155460544D01*
X176933912Y-155452219D01*
X176768836Y-154900241D01*
X176728418Y-154812769D01*
X176689071Y-154724806D01*
X176684397Y-154717499D01*
X176371034Y-154234040D01*
X176307707Y-154161447D01*
X176245237Y-154088045D01*
X176238700Y-154082343D01*
X175802241Y-153706266D01*
X175721058Y-153654347D01*
X175640525Y-153601446D01*
X175632654Y-153597810D01*
X175632651Y-153597808D01*
X175632648Y-153597807D01*
X175108183Y-153359347D01*
X175015691Y-153332300D01*
X174954000Y-153313439D01*
X174954000Y-143252623D01*
X175261518Y-143380001D01*
X175816484Y-143380001D01*
X176329205Y-143167625D01*
X176721625Y-142775205D01*
X176809001Y-142564261D01*
X176896377Y-142775205D01*
X177288797Y-143167625D01*
X177801518Y-143380001D01*
X178356484Y-143380001D01*
X178869205Y-143167625D01*
X179261625Y-142775205D01*
X179349001Y-142564261D01*
X179436377Y-142775205D01*
X179828797Y-143167625D01*
X180341518Y-143380001D01*
X180896484Y-143380001D01*
X181409205Y-143167625D01*
X181801625Y-142775205D01*
X181889001Y-142564261D01*
X181976377Y-142775205D01*
X182368797Y-143167625D01*
X182881518Y-143380001D01*
X183436484Y-143380001D01*
X183949205Y-143167625D01*
X184341625Y-142775205D01*
X184429001Y-142564261D01*
X184516377Y-142775205D01*
X184908797Y-143167625D01*
X185421518Y-143380001D01*
X185976484Y-143380001D01*
X186489205Y-143167625D01*
X186881625Y-142775205D01*
X186969001Y-142564261D01*
X187056377Y-142775205D01*
X187448797Y-143167625D01*
X187961518Y-143380001D01*
X188516484Y-143380001D01*
X189029205Y-143167625D01*
X189421625Y-142775205D01*
X189509001Y-142564261D01*
X189596377Y-142775205D01*
X189988797Y-143167625D01*
X190501518Y-143380001D01*
X191056484Y-143380001D01*
X191569205Y-143167625D01*
X191961625Y-142775205D01*
X192049001Y-142564261D01*
X192136377Y-142775205D01*
X192528797Y-143167625D01*
X193041518Y-143380001D01*
X193596484Y-143380001D01*
X194109205Y-143167625D01*
X194501625Y-142775205D01*
X194589001Y-142564261D01*
X194676377Y-142775205D01*
X195068797Y-143167625D01*
X195581518Y-143380001D01*
X196136484Y-143380001D01*
X196649205Y-143167625D01*
X197041625Y-142775205D01*
X197129001Y-142564261D01*
X197216377Y-142775205D01*
X197608797Y-143167625D01*
X198121518Y-143380001D01*
X198676484Y-143380001D01*
X199189205Y-143167625D01*
X199581625Y-142775205D01*
X199794001Y-142262484D01*
X199794001Y-141707518D01*
X199581625Y-141194797D01*
X199189205Y-140802377D01*
X198978261Y-140715001D01*
X199189205Y-140627625D01*
X199581625Y-140235205D01*
X199794001Y-139722484D01*
X199794001Y-139167518D01*
X199581625Y-138654797D01*
X199189205Y-138262377D01*
X198676484Y-138050001D01*
X198121518Y-138050001D01*
X197608797Y-138262377D01*
X197216377Y-138654797D01*
X197129001Y-138865741D01*
X197041625Y-138654797D01*
X196649205Y-138262377D01*
X196136484Y-138050001D01*
X195581518Y-138050001D01*
X195068797Y-138262377D01*
X194676377Y-138654797D01*
X194589001Y-138865741D01*
X194501625Y-138654797D01*
X194109205Y-138262377D01*
X193596484Y-138050001D01*
X193041518Y-138050001D01*
X192528797Y-138262377D01*
X192136377Y-138654797D01*
X192049001Y-138865741D01*
X191961625Y-138654797D01*
X191569205Y-138262377D01*
X191056484Y-138050001D01*
X190501518Y-138050001D01*
X189988797Y-138262377D01*
X189596377Y-138654797D01*
X189509001Y-138865741D01*
X189421625Y-138654797D01*
X189064501Y-138297673D01*
X189064501Y-134979210D01*
X189091431Y-134952280D01*
X189249000Y-134571874D01*
X189249000Y-134160126D01*
X189091431Y-133779720D01*
X188800280Y-133488569D01*
X188419874Y-133331000D01*
X188008126Y-133331000D01*
X187627720Y-133488569D01*
X187336569Y-133779720D01*
X187179000Y-134160126D01*
X187179000Y-134571874D01*
X187336569Y-134952280D01*
X187413502Y-135029213D01*
X187413501Y-138297673D01*
X187056377Y-138654797D01*
X186969001Y-138865741D01*
X186881625Y-138654797D01*
X186524501Y-138297673D01*
X186524501Y-134979210D01*
X186551431Y-134952280D01*
X186709000Y-134571874D01*
X186709000Y-134160126D01*
X186551431Y-133779720D01*
X186260280Y-133488569D01*
X185879874Y-133331000D01*
X185468126Y-133331000D01*
X185087720Y-133488569D01*
X185039000Y-133537289D01*
X184990280Y-133488569D01*
X184609874Y-133331000D01*
X184198126Y-133331000D01*
X183817720Y-133488569D01*
X183769000Y-133537289D01*
X183720280Y-133488569D01*
X183339874Y-133331000D01*
X182928126Y-133331000D01*
X182547720Y-133488569D01*
X182256569Y-133779720D01*
X182099000Y-134160126D01*
X182099000Y-134233567D01*
X181243277Y-135089291D01*
X181174351Y-135135346D01*
X181128296Y-135204272D01*
X180991899Y-135408404D01*
X180927830Y-135730498D01*
X180944003Y-135811804D01*
X180944003Y-138069684D01*
X180896484Y-138050001D01*
X180341518Y-138050001D01*
X179828797Y-138262377D01*
X179436377Y-138654797D01*
X179349001Y-138865741D01*
X179261625Y-138654797D01*
X178869205Y-138262377D01*
X178356484Y-138050001D01*
X177801518Y-138050001D01*
X177288797Y-138262377D01*
X176896377Y-138654797D01*
X176684001Y-139167518D01*
X176684001Y-139722484D01*
X176896377Y-140235205D01*
X177288797Y-140627625D01*
X177499741Y-140715001D01*
X177288797Y-140802377D01*
X176896377Y-141194797D01*
X176809001Y-141405741D01*
X176721625Y-141194797D01*
X176329205Y-140802377D01*
X175816484Y-140590001D01*
X175261518Y-140590001D01*
X174954000Y-140717379D01*
X174954000Y-100072623D01*
X175261518Y-100200001D01*
X175816484Y-100200001D01*
X176329205Y-99987625D01*
X176721625Y-99595205D01*
X176809001Y-99384261D01*
X176896377Y-99595205D01*
X177288797Y-99987625D01*
X177801518Y-100200001D01*
X178356484Y-100200001D01*
X178869205Y-99987625D01*
X179261625Y-99595205D01*
X179349001Y-99384261D01*
X179436377Y-99595205D01*
X179828797Y-99987625D01*
X180341518Y-100200001D01*
X180896484Y-100200001D01*
X180944003Y-100180318D01*
X180944002Y-124085565D01*
X177159568Y-127870000D01*
X177086126Y-127870000D01*
X176705720Y-128027569D01*
X176414569Y-128318720D01*
X176257000Y-128699126D01*
X176257000Y-129110874D01*
X176414569Y-129491280D01*
X176705720Y-129782431D01*
X177086126Y-129940000D01*
X177497874Y-129940000D01*
X177878280Y-129782431D01*
X178169431Y-129491280D01*
X178327000Y-129110874D01*
X178327000Y-129037432D01*
X182295728Y-125068705D01*
X182364654Y-125022650D01*
X182547106Y-124749592D01*
X182595002Y-124508801D01*
X182595002Y-124508797D01*
X182611173Y-124427499D01*
X182595002Y-124346201D01*
X182595002Y-100081322D01*
X182881518Y-100200001D01*
X183436484Y-100200001D01*
X183949205Y-99987625D01*
X184341625Y-99595205D01*
X184429001Y-99384261D01*
X184516377Y-99595205D01*
X184908797Y-99987625D01*
X185421518Y-100200001D01*
X185976484Y-100200001D01*
X186489205Y-99987625D01*
X186881625Y-99595205D01*
X186969001Y-99384261D01*
X187056377Y-99595205D01*
X187448797Y-99987625D01*
X187961518Y-100200001D01*
X188516484Y-100200001D01*
X189029205Y-99987625D01*
X189421625Y-99595205D01*
X189509001Y-99384261D01*
X189596377Y-99595205D01*
X189988797Y-99987625D01*
X190501518Y-100200001D01*
X191056484Y-100200001D01*
X191569205Y-99987625D01*
X191961625Y-99595205D01*
X192049001Y-99384261D01*
X192136377Y-99595205D01*
X192528797Y-99987625D01*
X193041518Y-100200001D01*
X193596484Y-100200001D01*
X194109205Y-99987625D01*
X194501625Y-99595205D01*
X194589001Y-99384261D01*
X194676377Y-99595205D01*
X195068797Y-99987625D01*
X195581518Y-100200001D01*
X196136484Y-100200001D01*
X196649205Y-99987625D01*
X197041625Y-99595205D01*
X197129001Y-99384261D01*
X197216377Y-99595205D01*
X197608797Y-99987625D01*
X198121518Y-100200001D01*
X198676484Y-100200001D01*
X199189205Y-99987625D01*
X199581625Y-99595205D01*
X199794001Y-99082484D01*
X199794001Y-98527518D01*
X199581625Y-98014797D01*
X199189205Y-97622377D01*
X198978261Y-97535001D01*
X199189205Y-97447625D01*
X199581625Y-97055205D01*
X199794001Y-96542484D01*
X199794001Y-95987518D01*
X199581625Y-95474797D01*
X199189205Y-95082377D01*
X198676484Y-94870001D01*
X198121518Y-94870001D01*
X197608797Y-95082377D01*
X197216377Y-95474797D01*
X197129001Y-95685741D01*
X197041625Y-95474797D01*
X196649205Y-95082377D01*
X196136484Y-94870001D01*
X195581518Y-94870001D01*
X195068797Y-95082377D01*
X194676377Y-95474797D01*
X194589001Y-95685741D01*
X194501625Y-95474797D01*
X194109205Y-95082377D01*
X193596484Y-94870001D01*
X193041518Y-94870001D01*
X192528797Y-95082377D01*
X192136377Y-95474797D01*
X192049001Y-95685741D01*
X191961625Y-95474797D01*
X191569205Y-95082377D01*
X191056484Y-94870001D01*
X190501518Y-94870001D01*
X189988797Y-95082377D01*
X189596377Y-95474797D01*
X189509001Y-95685741D01*
X189421625Y-95474797D01*
X189029205Y-95082377D01*
X188516484Y-94870001D01*
X187961518Y-94870001D01*
X187448797Y-95082377D01*
X187056377Y-95474797D01*
X186969001Y-95685741D01*
X186881625Y-95474797D01*
X186489205Y-95082377D01*
X185976484Y-94870001D01*
X185421518Y-94870001D01*
X184908797Y-95082377D01*
X184516377Y-95474797D01*
X184429001Y-95685741D01*
X184341625Y-95474797D01*
X183949205Y-95082377D01*
X183436484Y-94870001D01*
X182881518Y-94870001D01*
X182595002Y-94988680D01*
X182595002Y-94162430D01*
X185190434Y-91567000D01*
X185697881Y-91567000D01*
X186211337Y-91354320D01*
X186604320Y-90961337D01*
X186690000Y-90754487D01*
X186775680Y-90961337D01*
X187168663Y-91354320D01*
X187682119Y-91567000D01*
X188237881Y-91567000D01*
X188751337Y-91354320D01*
X189144320Y-90961337D01*
X189357000Y-90447881D01*
X189357000Y-89892119D01*
X194183000Y-89892119D01*
X194183000Y-90447881D01*
X194395680Y-90961337D01*
X194788663Y-91354320D01*
X195302119Y-91567000D01*
X195857881Y-91567000D01*
X196371337Y-91354320D01*
X196764320Y-90961337D01*
X196850000Y-90754487D01*
X196935680Y-90961337D01*
X197328663Y-91354320D01*
X197842119Y-91567000D01*
X198397881Y-91567000D01*
X198911337Y-91354320D01*
X199304320Y-90961337D01*
X199390000Y-90754487D01*
X199475680Y-90961337D01*
X199868663Y-91354320D01*
X200382119Y-91567000D01*
X200937881Y-91567000D01*
X201451337Y-91354320D01*
X201844320Y-90961337D01*
X201930000Y-90754487D01*
X202015680Y-90961337D01*
X202374500Y-91320157D01*
X202374501Y-95625437D01*
X202374500Y-95625442D01*
X202374501Y-124329788D01*
X202322569Y-124381720D01*
X202165000Y-124762126D01*
X202165000Y-125173874D01*
X202322569Y-125554280D01*
X202613720Y-125845431D01*
X202994126Y-126003000D01*
X203405874Y-126003000D01*
X203786280Y-125845431D01*
X204077431Y-125554280D01*
X204235000Y-125173874D01*
X204235000Y-124762126D01*
X204077431Y-124381720D01*
X204025500Y-124329789D01*
X204025500Y-91320157D01*
X204384320Y-90961337D01*
X204470000Y-90754487D01*
X204555680Y-90961337D01*
X204914500Y-91320157D01*
X204914501Y-125599788D01*
X204862569Y-125651720D01*
X204705000Y-126032126D01*
X204705000Y-126443874D01*
X204862569Y-126824280D01*
X205153720Y-127115431D01*
X205534126Y-127273000D01*
X205945874Y-127273000D01*
X206326280Y-127115431D01*
X206617431Y-126824280D01*
X206775000Y-126443874D01*
X206775000Y-126032126D01*
X206617431Y-125651720D01*
X206565500Y-125599789D01*
X206565500Y-114022119D01*
X215773000Y-114022119D01*
X215773000Y-114577881D01*
X215985680Y-115091337D01*
X216378663Y-115484320D01*
X216585513Y-115570000D01*
X216378663Y-115655680D01*
X215985680Y-116048663D01*
X215773000Y-116562119D01*
X215773000Y-117117881D01*
X215985680Y-117631337D01*
X216378663Y-118024320D01*
X216892119Y-118237000D01*
X217447881Y-118237000D01*
X217961337Y-118024320D01*
X218354320Y-117631337D01*
X218567000Y-117117881D01*
X218567000Y-116562119D01*
X218354320Y-116048663D01*
X217961337Y-115655680D01*
X217754487Y-115570000D01*
X217961337Y-115484320D01*
X218354320Y-115091337D01*
X218567000Y-114577881D01*
X218567000Y-114022119D01*
X218354320Y-113508663D01*
X217961337Y-113115680D01*
X217447881Y-112903000D01*
X216892119Y-112903000D01*
X216378663Y-113115680D01*
X215985680Y-113508663D01*
X215773000Y-114022119D01*
X206565500Y-114022119D01*
X206565500Y-98199853D01*
X216788000Y-98199853D01*
X216788000Y-99462947D01*
X217271365Y-100629893D01*
X218164507Y-101523035D01*
X219331453Y-102006400D01*
X220594547Y-102006400D01*
X221761493Y-101523035D01*
X222654635Y-100629893D01*
X223138000Y-99462947D01*
X223138000Y-98199853D01*
X224789000Y-98199853D01*
X224789000Y-99462947D01*
X225272365Y-100629893D01*
X226165507Y-101523035D01*
X227332453Y-102006400D01*
X228595547Y-102006400D01*
X229762493Y-101523035D01*
X230655635Y-100629893D01*
X231139000Y-99462947D01*
X231139000Y-98199853D01*
X230655635Y-97032907D01*
X229762493Y-96139765D01*
X228595547Y-95656400D01*
X227332453Y-95656400D01*
X226165507Y-96139765D01*
X225272365Y-97032907D01*
X224789000Y-98199853D01*
X223138000Y-98199853D01*
X222654635Y-97032907D01*
X221761493Y-96139765D01*
X220594547Y-95656400D01*
X219331453Y-95656400D01*
X218164507Y-96139765D01*
X217271365Y-97032907D01*
X216788000Y-98199853D01*
X206565500Y-98199853D01*
X206565500Y-91320157D01*
X206924320Y-90961337D01*
X207137000Y-90447881D01*
X207137000Y-89892119D01*
X206924320Y-89378663D01*
X206531337Y-88985680D01*
X206017881Y-88773000D01*
X205462119Y-88773000D01*
X204948663Y-88985680D01*
X204555680Y-89378663D01*
X204470000Y-89585513D01*
X204384320Y-89378663D01*
X203991337Y-88985680D01*
X203477881Y-88773000D01*
X202922119Y-88773000D01*
X202408663Y-88985680D01*
X202015680Y-89378663D01*
X201930000Y-89585513D01*
X201844320Y-89378663D01*
X201451337Y-88985680D01*
X200937881Y-88773000D01*
X200382119Y-88773000D01*
X199868663Y-88985680D01*
X199475680Y-89378663D01*
X199390000Y-89585513D01*
X199304320Y-89378663D01*
X198911337Y-88985680D01*
X198397881Y-88773000D01*
X197842119Y-88773000D01*
X197328663Y-88985680D01*
X196935680Y-89378663D01*
X196850000Y-89585513D01*
X196764320Y-89378663D01*
X196371337Y-88985680D01*
X195857881Y-88773000D01*
X195302119Y-88773000D01*
X194788663Y-88985680D01*
X194395680Y-89378663D01*
X194183000Y-89892119D01*
X189357000Y-89892119D01*
X189144320Y-89378663D01*
X188751337Y-88985680D01*
X188237881Y-88773000D01*
X187682119Y-88773000D01*
X187168663Y-88985680D01*
X186775680Y-89378663D01*
X186690000Y-89585513D01*
X186604320Y-89378663D01*
X186211337Y-88985680D01*
X185697881Y-88773000D01*
X185142119Y-88773000D01*
X184628663Y-88985680D01*
X184235680Y-89378663D01*
X184150000Y-89585513D01*
X184064320Y-89378663D01*
X183671337Y-88985680D01*
X183157881Y-88773000D01*
X182602119Y-88773000D01*
X182088663Y-88985680D01*
X181695680Y-89378663D01*
X181610000Y-89585513D01*
X181524320Y-89378663D01*
X181131337Y-88985680D01*
X180617881Y-88773000D01*
X180062119Y-88773000D01*
X179548663Y-88985680D01*
X179155680Y-89378663D01*
X179070000Y-89585513D01*
X178984320Y-89378663D01*
X178591337Y-88985680D01*
X178077881Y-88773000D01*
X177522119Y-88773000D01*
X177008663Y-88985680D01*
X176615680Y-89378663D01*
X176403000Y-89892119D01*
X176403000Y-90447881D01*
X176615680Y-90961337D01*
X177008663Y-91354320D01*
X177522119Y-91567000D01*
X178077881Y-91567000D01*
X178591337Y-91354320D01*
X178984320Y-90961337D01*
X179070000Y-90754487D01*
X179155680Y-90961337D01*
X179548663Y-91354320D01*
X180062119Y-91567000D01*
X180617881Y-91567000D01*
X181131337Y-91354320D01*
X181524320Y-90961337D01*
X181610000Y-90754487D01*
X181695680Y-90961337D01*
X182088663Y-91354320D01*
X182602119Y-91567000D01*
X182855567Y-91567000D01*
X181243277Y-93179291D01*
X181174351Y-93225346D01*
X181128296Y-93294272D01*
X180991899Y-93498404D01*
X180927830Y-93820498D01*
X180944003Y-93901804D01*
X180944003Y-94889684D01*
X180896484Y-94870001D01*
X180341518Y-94870001D01*
X179828797Y-95082377D01*
X179436377Y-95474797D01*
X179349001Y-95685741D01*
X179261625Y-95474797D01*
X178869205Y-95082377D01*
X178356484Y-94870001D01*
X177801518Y-94870001D01*
X177288797Y-95082377D01*
X176896377Y-95474797D01*
X176809001Y-95685741D01*
X176721625Y-95474797D01*
X176329205Y-95082377D01*
X175816484Y-94870001D01*
X175261518Y-94870001D01*
X174954000Y-94997379D01*
X174954000Y-83295544D01*
X175193167Y-83534711D01*
X176060567Y-83894000D01*
X176999433Y-83894000D01*
X177866833Y-83534711D01*
X178530711Y-82870833D01*
X178890000Y-82003433D01*
X178890000Y-81064567D01*
X186870000Y-81064567D01*
X186870000Y-82003433D01*
X187229289Y-82870833D01*
X187893167Y-83534711D01*
X188760567Y-83894000D01*
X189699433Y-83894000D01*
X190566833Y-83534711D01*
X191230711Y-82870833D01*
X191590000Y-82003433D01*
X191590000Y-81064567D01*
X191950000Y-81064567D01*
X191950000Y-82003433D01*
X192309289Y-82870833D01*
X192973167Y-83534711D01*
X193840567Y-83894000D01*
X194779433Y-83894000D01*
X195646833Y-83534711D01*
X196310711Y-82870833D01*
X196670000Y-82003433D01*
X196670000Y-81064567D01*
X204650000Y-81064567D01*
X204650000Y-82003433D01*
X205009289Y-82870833D01*
X205673167Y-83534711D01*
X206540567Y-83894000D01*
X207479433Y-83894000D01*
X208346833Y-83534711D01*
X209010711Y-82870833D01*
X209370000Y-82003433D01*
X209370000Y-81064567D01*
X209010711Y-80197167D01*
X208346833Y-79533289D01*
X207479433Y-79174000D01*
X206540567Y-79174000D01*
X205673167Y-79533289D01*
X205009289Y-80197167D01*
X204650000Y-81064567D01*
X196670000Y-81064567D01*
X196310711Y-80197167D01*
X195646833Y-79533289D01*
X194779433Y-79174000D01*
X193840567Y-79174000D01*
X192973167Y-79533289D01*
X192309289Y-80197167D01*
X191950000Y-81064567D01*
X191590000Y-81064567D01*
X191230711Y-80197167D01*
X190566833Y-79533289D01*
X189699433Y-79174000D01*
X188760567Y-79174000D01*
X187893167Y-79533289D01*
X187229289Y-80197167D01*
X186870000Y-81064567D01*
X178890000Y-81064567D01*
X178530711Y-80197167D01*
X177866833Y-79533289D01*
X176999433Y-79174000D01*
X176060567Y-79174000D01*
X175193167Y-79533289D01*
X174954000Y-79772456D01*
X174954000Y-77418000D01*
X234494000Y-77418000D01*
X234494001Y-120853412D01*
G04 #@! TD*
M02*
