G04 #@! TF.GenerationSoftware,KiCad,Pcbnew,(5.0.0)*
G04 #@! TF.CreationDate,2018-10-03T21:51:45-05:00*
G04 #@! TF.ProjectId,DriveBoard_Hardware,4472697665426F6172645F4861726477,rev?*
G04 #@! TF.SameCoordinates,Original*
G04 #@! TF.FileFunction,Soldermask,Bot*
G04 #@! TF.FilePolarity,Negative*
%FSLAX46Y46*%
G04 Gerber Fmt 4.6, Leading zero omitted, Abs format (unit mm)*
G04 Created by KiCad (PCBNEW (5.0.0)) date 10/03/18 21:51:45*
%MOMM*%
%LPD*%
G01*
G04 APERTURE LIST*
%ADD10C,5.480000*%
%ADD11C,1.924000*%
%ADD12C,3.850000*%
%ADD13C,1.920000*%
G04 APERTURE END LIST*
D10*
G04 #@! TO.C,Conn1*
X219963000Y-98831400D03*
X227964000Y-98831400D03*
G04 #@! TD*
D11*
G04 #@! TO.C,Conn2*
X195580000Y-90170000D03*
X198120000Y-90170000D03*
X200660000Y-90170000D03*
X203200000Y-90170000D03*
X205740000Y-90170000D03*
D12*
X194310000Y-81534000D03*
X207010000Y-81534000D03*
G04 #@! TD*
G04 #@! TO.C,Conn3*
X189230000Y-81534000D03*
X176530000Y-81534000D03*
D11*
X187960000Y-90170000D03*
X185420000Y-90170000D03*
X182880000Y-90170000D03*
X180340000Y-90170000D03*
X177800000Y-90170000D03*
G04 #@! TD*
D13*
G04 #@! TO.C,U1*
X175539001Y-141985001D03*
X198399001Y-96265001D03*
X195859001Y-96265001D03*
X188239001Y-96265001D03*
X185699001Y-139445001D03*
X190779001Y-96265001D03*
X193319001Y-96265001D03*
X190779001Y-141985001D03*
X195859001Y-139445001D03*
X185699001Y-96265001D03*
X183159001Y-96265001D03*
X195859001Y-141985001D03*
X190779001Y-139445001D03*
X188239001Y-139445001D03*
X175539001Y-139445001D03*
X178079001Y-139445001D03*
X180619001Y-139445001D03*
X183159001Y-139445001D03*
X193319001Y-139445001D03*
X198399001Y-139445001D03*
X178079001Y-141985001D03*
X180619001Y-141985001D03*
X183159001Y-141985001D03*
X185699001Y-141985001D03*
X188239001Y-141985001D03*
X193319001Y-141985001D03*
X198399001Y-141985001D03*
X175539001Y-98805001D03*
X178079001Y-98805001D03*
X180619001Y-98805001D03*
X183159001Y-98805001D03*
X185699001Y-98805001D03*
X188239001Y-98805001D03*
X190779001Y-98805001D03*
X193319001Y-98805001D03*
X195859001Y-98805001D03*
X198399001Y-98805001D03*
X175539001Y-96265001D03*
X178079001Y-96265001D03*
X180619001Y-96265001D03*
G04 #@! TD*
D11*
G04 #@! TO.C,U3*
X217170000Y-116840000D03*
X217170000Y-114300000D03*
X217170000Y-111760000D03*
G04 #@! TD*
M02*
