G04 #@! TF.GenerationSoftware,KiCad,Pcbnew,(5.0.0)*
G04 #@! TF.CreationDate,2018-10-03T22:01:17-05:00*
G04 #@! TF.ProjectId,DriveBoard_Hardware,4472697665426F6172645F4861726477,rev?*
G04 #@! TF.SameCoordinates,Original*
G04 #@! TF.FileFunction,Legend,Top*
G04 #@! TF.FilePolarity,Positive*
%FSLAX46Y46*%
G04 Gerber Fmt 4.6, Leading zero omitted, Abs format (unit mm)*
G04 Created by KiCad (PCBNEW (5.0.0)) date 10/03/18 22:01:17*
%MOMM*%
%LPD*%
G01*
G04 APERTURE LIST*
%ADD10C,0.300000*%
%ADD11C,0.150000*%
%ADD12C,0.120000*%
%ADD13C,0.010000*%
G04 APERTURE END LIST*
D10*
X184556000Y-153063571D02*
X184556000Y-151563571D01*
X184913142Y-151563571D01*
X185127428Y-151635000D01*
X185270285Y-151777857D01*
X185341714Y-151920714D01*
X185413142Y-152206428D01*
X185413142Y-152420714D01*
X185341714Y-152706428D01*
X185270285Y-152849285D01*
X185127428Y-152992142D01*
X184913142Y-153063571D01*
X184556000Y-153063571D01*
X186056000Y-153063571D02*
X186056000Y-152063571D01*
X186056000Y-152349285D02*
X186127428Y-152206428D01*
X186198857Y-152135000D01*
X186341714Y-152063571D01*
X186484571Y-152063571D01*
X186984571Y-153063571D02*
X186984571Y-152063571D01*
X186984571Y-151563571D02*
X186913142Y-151635000D01*
X186984571Y-151706428D01*
X187056000Y-151635000D01*
X186984571Y-151563571D01*
X186984571Y-151706428D01*
X187556000Y-152063571D02*
X187913142Y-153063571D01*
X188270285Y-152063571D01*
X189413142Y-152992142D02*
X189270285Y-153063571D01*
X188984571Y-153063571D01*
X188841714Y-152992142D01*
X188770285Y-152849285D01*
X188770285Y-152277857D01*
X188841714Y-152135000D01*
X188984571Y-152063571D01*
X189270285Y-152063571D01*
X189413142Y-152135000D01*
X189484571Y-152277857D01*
X189484571Y-152420714D01*
X188770285Y-152563571D01*
X191770285Y-152277857D02*
X191984571Y-152349285D01*
X192056000Y-152420714D01*
X192127428Y-152563571D01*
X192127428Y-152777857D01*
X192056000Y-152920714D01*
X191984571Y-152992142D01*
X191841714Y-153063571D01*
X191270285Y-153063571D01*
X191270285Y-151563571D01*
X191770285Y-151563571D01*
X191913142Y-151635000D01*
X191984571Y-151706428D01*
X192056000Y-151849285D01*
X192056000Y-151992142D01*
X191984571Y-152135000D01*
X191913142Y-152206428D01*
X191770285Y-152277857D01*
X191270285Y-152277857D01*
X192984571Y-153063571D02*
X192841714Y-152992142D01*
X192770285Y-152920714D01*
X192698857Y-152777857D01*
X192698857Y-152349285D01*
X192770285Y-152206428D01*
X192841714Y-152135000D01*
X192984571Y-152063571D01*
X193198857Y-152063571D01*
X193341714Y-152135000D01*
X193413142Y-152206428D01*
X193484571Y-152349285D01*
X193484571Y-152777857D01*
X193413142Y-152920714D01*
X193341714Y-152992142D01*
X193198857Y-153063571D01*
X192984571Y-153063571D01*
X194770285Y-153063571D02*
X194770285Y-152277857D01*
X194698857Y-152135000D01*
X194556000Y-152063571D01*
X194270285Y-152063571D01*
X194127428Y-152135000D01*
X194770285Y-152992142D02*
X194627428Y-153063571D01*
X194270285Y-153063571D01*
X194127428Y-152992142D01*
X194056000Y-152849285D01*
X194056000Y-152706428D01*
X194127428Y-152563571D01*
X194270285Y-152492142D01*
X194627428Y-152492142D01*
X194770285Y-152420714D01*
X195484571Y-153063571D02*
X195484571Y-152063571D01*
X195484571Y-152349285D02*
X195556000Y-152206428D01*
X195627428Y-152135000D01*
X195770285Y-152063571D01*
X195913142Y-152063571D01*
X197056000Y-153063571D02*
X197056000Y-151563571D01*
X197056000Y-152992142D02*
X196913142Y-153063571D01*
X196627428Y-153063571D01*
X196484571Y-152992142D01*
X196413142Y-152920714D01*
X196341714Y-152777857D01*
X196341714Y-152349285D01*
X196413142Y-152206428D01*
X196484571Y-152135000D01*
X196627428Y-152063571D01*
X196913142Y-152063571D01*
X197056000Y-152135000D01*
X199770285Y-153063571D02*
X199270285Y-152349285D01*
X198913142Y-153063571D02*
X198913142Y-151563571D01*
X199484571Y-151563571D01*
X199627428Y-151635000D01*
X199698857Y-151706428D01*
X199770285Y-151849285D01*
X199770285Y-152063571D01*
X199698857Y-152206428D01*
X199627428Y-152277857D01*
X199484571Y-152349285D01*
X198913142Y-152349285D01*
X200984571Y-152992142D02*
X200841714Y-153063571D01*
X200556000Y-153063571D01*
X200413142Y-152992142D01*
X200341714Y-152849285D01*
X200341714Y-152277857D01*
X200413142Y-152135000D01*
X200556000Y-152063571D01*
X200841714Y-152063571D01*
X200984571Y-152135000D01*
X201056000Y-152277857D01*
X201056000Y-152420714D01*
X200341714Y-152563571D01*
X201556000Y-152063571D02*
X201913142Y-153063571D01*
X202270285Y-152063571D01*
X203627428Y-153063571D02*
X202770285Y-153063571D01*
X203198857Y-153063571D02*
X203198857Y-151563571D01*
X203056000Y-151777857D01*
X202913142Y-151920714D01*
X202770285Y-151992142D01*
X180377428Y-155613571D02*
X180377428Y-154113571D01*
X180877428Y-155185000D01*
X181377428Y-154113571D01*
X181377428Y-155613571D01*
X182734571Y-155613571D02*
X182734571Y-154827857D01*
X182663142Y-154685000D01*
X182520285Y-154613571D01*
X182234571Y-154613571D01*
X182091714Y-154685000D01*
X182734571Y-155542142D02*
X182591714Y-155613571D01*
X182234571Y-155613571D01*
X182091714Y-155542142D01*
X182020285Y-155399285D01*
X182020285Y-155256428D01*
X182091714Y-155113571D01*
X182234571Y-155042142D01*
X182591714Y-155042142D01*
X182734571Y-154970714D01*
X183448857Y-155613571D02*
X183448857Y-154613571D01*
X183448857Y-154899285D02*
X183520285Y-154756428D01*
X183591714Y-154685000D01*
X183734571Y-154613571D01*
X183877428Y-154613571D01*
X184306000Y-155542142D02*
X184448857Y-155613571D01*
X184734571Y-155613571D01*
X184877428Y-155542142D01*
X184948857Y-155399285D01*
X184948857Y-155327857D01*
X184877428Y-155185000D01*
X184734571Y-155113571D01*
X184520285Y-155113571D01*
X184377428Y-155042142D01*
X184306000Y-154899285D01*
X184306000Y-154827857D01*
X184377428Y-154685000D01*
X184520285Y-154613571D01*
X184734571Y-154613571D01*
X184877428Y-154685000D01*
X187591714Y-155613571D02*
X187091714Y-154899285D01*
X186734571Y-155613571D02*
X186734571Y-154113571D01*
X187306000Y-154113571D01*
X187448857Y-154185000D01*
X187520285Y-154256428D01*
X187591714Y-154399285D01*
X187591714Y-154613571D01*
X187520285Y-154756428D01*
X187448857Y-154827857D01*
X187306000Y-154899285D01*
X186734571Y-154899285D01*
X188448857Y-155613571D02*
X188306000Y-155542142D01*
X188234571Y-155470714D01*
X188163142Y-155327857D01*
X188163142Y-154899285D01*
X188234571Y-154756428D01*
X188306000Y-154685000D01*
X188448857Y-154613571D01*
X188663142Y-154613571D01*
X188806000Y-154685000D01*
X188877428Y-154756428D01*
X188948857Y-154899285D01*
X188948857Y-155327857D01*
X188877428Y-155470714D01*
X188806000Y-155542142D01*
X188663142Y-155613571D01*
X188448857Y-155613571D01*
X189448857Y-154613571D02*
X189806000Y-155613571D01*
X190163142Y-154613571D01*
X191306000Y-155542142D02*
X191163142Y-155613571D01*
X190877428Y-155613571D01*
X190734571Y-155542142D01*
X190663142Y-155399285D01*
X190663142Y-154827857D01*
X190734571Y-154685000D01*
X190877428Y-154613571D01*
X191163142Y-154613571D01*
X191306000Y-154685000D01*
X191377428Y-154827857D01*
X191377428Y-154970714D01*
X190663142Y-155113571D01*
X192020285Y-155613571D02*
X192020285Y-154613571D01*
X192020285Y-154899285D02*
X192091714Y-154756428D01*
X192163142Y-154685000D01*
X192306000Y-154613571D01*
X192448857Y-154613571D01*
X194091714Y-155613571D02*
X194091714Y-154113571D01*
X194448857Y-154113571D01*
X194663142Y-154185000D01*
X194806000Y-154327857D01*
X194877428Y-154470714D01*
X194948857Y-154756428D01*
X194948857Y-154970714D01*
X194877428Y-155256428D01*
X194806000Y-155399285D01*
X194663142Y-155542142D01*
X194448857Y-155613571D01*
X194091714Y-155613571D01*
X196163142Y-155542142D02*
X196020285Y-155613571D01*
X195734571Y-155613571D01*
X195591714Y-155542142D01*
X195520285Y-155399285D01*
X195520285Y-154827857D01*
X195591714Y-154685000D01*
X195734571Y-154613571D01*
X196020285Y-154613571D01*
X196163142Y-154685000D01*
X196234571Y-154827857D01*
X196234571Y-154970714D01*
X195520285Y-155113571D01*
X196806000Y-155542142D02*
X196948857Y-155613571D01*
X197234571Y-155613571D01*
X197377428Y-155542142D01*
X197448857Y-155399285D01*
X197448857Y-155327857D01*
X197377428Y-155185000D01*
X197234571Y-155113571D01*
X197020285Y-155113571D01*
X196877428Y-155042142D01*
X196806000Y-154899285D01*
X196806000Y-154827857D01*
X196877428Y-154685000D01*
X197020285Y-154613571D01*
X197234571Y-154613571D01*
X197377428Y-154685000D01*
X198091714Y-155613571D02*
X198091714Y-154613571D01*
X198091714Y-154113571D02*
X198020285Y-154185000D01*
X198091714Y-154256428D01*
X198163142Y-154185000D01*
X198091714Y-154113571D01*
X198091714Y-154256428D01*
X199448857Y-154613571D02*
X199448857Y-155827857D01*
X199377428Y-155970714D01*
X199306000Y-156042142D01*
X199163142Y-156113571D01*
X198948857Y-156113571D01*
X198806000Y-156042142D01*
X199448857Y-155542142D02*
X199306000Y-155613571D01*
X199020285Y-155613571D01*
X198877428Y-155542142D01*
X198806000Y-155470714D01*
X198734571Y-155327857D01*
X198734571Y-154899285D01*
X198806000Y-154756428D01*
X198877428Y-154685000D01*
X199020285Y-154613571D01*
X199306000Y-154613571D01*
X199448857Y-154685000D01*
X200163142Y-154613571D02*
X200163142Y-155613571D01*
X200163142Y-154756428D02*
X200234571Y-154685000D01*
X200377428Y-154613571D01*
X200591714Y-154613571D01*
X200734571Y-154685000D01*
X200806000Y-154827857D01*
X200806000Y-155613571D01*
X202448857Y-154113571D02*
X203306000Y-154113571D01*
X202877428Y-155613571D02*
X202877428Y-154113571D01*
X204377428Y-155542142D02*
X204234571Y-155613571D01*
X203948857Y-155613571D01*
X203806000Y-155542142D01*
X203734571Y-155399285D01*
X203734571Y-154827857D01*
X203806000Y-154685000D01*
X203948857Y-154613571D01*
X204234571Y-154613571D01*
X204377428Y-154685000D01*
X204448857Y-154827857D01*
X204448857Y-154970714D01*
X203734571Y-155113571D01*
X205734571Y-155613571D02*
X205734571Y-154827857D01*
X205663142Y-154685000D01*
X205520285Y-154613571D01*
X205234571Y-154613571D01*
X205091714Y-154685000D01*
X205734571Y-155542142D02*
X205591714Y-155613571D01*
X205234571Y-155613571D01*
X205091714Y-155542142D01*
X205020285Y-155399285D01*
X205020285Y-155256428D01*
X205091714Y-155113571D01*
X205234571Y-155042142D01*
X205591714Y-155042142D01*
X205734571Y-154970714D01*
X206448857Y-155613571D02*
X206448857Y-154613571D01*
X206448857Y-154756428D02*
X206520285Y-154685000D01*
X206663142Y-154613571D01*
X206877428Y-154613571D01*
X207020285Y-154685000D01*
X207091714Y-154827857D01*
X207091714Y-155613571D01*
X207091714Y-154827857D02*
X207163142Y-154685000D01*
X207306000Y-154613571D01*
X207520285Y-154613571D01*
X207663142Y-154685000D01*
X207734571Y-154827857D01*
X207734571Y-155613571D01*
X187020285Y-158163571D02*
X187020285Y-156663571D01*
X187520285Y-157735000D01*
X188020285Y-156663571D01*
X188020285Y-158163571D01*
X188734571Y-158163571D02*
X188734571Y-157163571D01*
X188734571Y-156663571D02*
X188663142Y-156735000D01*
X188734571Y-156806428D01*
X188806000Y-156735000D01*
X188734571Y-156663571D01*
X188734571Y-156806428D01*
X189377428Y-158092142D02*
X189520285Y-158163571D01*
X189806000Y-158163571D01*
X189948857Y-158092142D01*
X190020285Y-157949285D01*
X190020285Y-157877857D01*
X189948857Y-157735000D01*
X189806000Y-157663571D01*
X189591714Y-157663571D01*
X189448857Y-157592142D01*
X189377428Y-157449285D01*
X189377428Y-157377857D01*
X189448857Y-157235000D01*
X189591714Y-157163571D01*
X189806000Y-157163571D01*
X189948857Y-157235000D01*
X190591714Y-158092142D02*
X190734571Y-158163571D01*
X191020285Y-158163571D01*
X191163142Y-158092142D01*
X191234571Y-157949285D01*
X191234571Y-157877857D01*
X191163142Y-157735000D01*
X191020285Y-157663571D01*
X190806000Y-157663571D01*
X190663142Y-157592142D01*
X190591714Y-157449285D01*
X190591714Y-157377857D01*
X190663142Y-157235000D01*
X190806000Y-157163571D01*
X191020285Y-157163571D01*
X191163142Y-157235000D01*
X192091714Y-158163571D02*
X191948857Y-158092142D01*
X191877428Y-158020714D01*
X191806000Y-157877857D01*
X191806000Y-157449285D01*
X191877428Y-157306428D01*
X191948857Y-157235000D01*
X192091714Y-157163571D01*
X192306000Y-157163571D01*
X192448857Y-157235000D01*
X192520285Y-157306428D01*
X192591714Y-157449285D01*
X192591714Y-157877857D01*
X192520285Y-158020714D01*
X192448857Y-158092142D01*
X192306000Y-158163571D01*
X192091714Y-158163571D01*
X193877428Y-157163571D02*
X193877428Y-158163571D01*
X193234571Y-157163571D02*
X193234571Y-157949285D01*
X193306000Y-158092142D01*
X193448857Y-158163571D01*
X193663142Y-158163571D01*
X193806000Y-158092142D01*
X193877428Y-158020714D01*
X194591714Y-158163571D02*
X194591714Y-157163571D01*
X194591714Y-157449285D02*
X194663142Y-157306428D01*
X194734571Y-157235000D01*
X194877428Y-157163571D01*
X195020285Y-157163571D01*
X195520285Y-158163571D02*
X195520285Y-157163571D01*
X195520285Y-156663571D02*
X195448857Y-156735000D01*
X195520285Y-156806428D01*
X195591714Y-156735000D01*
X195520285Y-156663571D01*
X195520285Y-156806428D01*
X197306000Y-158092142D02*
X197520285Y-158163571D01*
X197877428Y-158163571D01*
X198020285Y-158092142D01*
X198091714Y-158020714D01*
X198163142Y-157877857D01*
X198163142Y-157735000D01*
X198091714Y-157592142D01*
X198020285Y-157520714D01*
X197877428Y-157449285D01*
X197591714Y-157377857D01*
X197448857Y-157306428D01*
X197377428Y-157235000D01*
X197306000Y-157092142D01*
X197306000Y-156949285D01*
X197377428Y-156806428D01*
X197448857Y-156735000D01*
X197591714Y-156663571D01*
X197948857Y-156663571D01*
X198163142Y-156735000D01*
X200020285Y-158163571D02*
X199948857Y-158163571D01*
X199806000Y-158092142D01*
X199591714Y-157877857D01*
X199234571Y-157449285D01*
X199091714Y-157235000D01*
X199020285Y-157020714D01*
X199020285Y-156877857D01*
X199091714Y-156735000D01*
X199234571Y-156663571D01*
X199306000Y-156663571D01*
X199448857Y-156735000D01*
X199520285Y-156877857D01*
X199520285Y-156949285D01*
X199448857Y-157092142D01*
X199377428Y-157163571D01*
X198948857Y-157449285D01*
X198877428Y-157520714D01*
X198806000Y-157663571D01*
X198806000Y-157877857D01*
X198877428Y-158020714D01*
X198948857Y-158092142D01*
X199091714Y-158163571D01*
X199306000Y-158163571D01*
X199448857Y-158092142D01*
X199520285Y-158020714D01*
X199734571Y-157735000D01*
X199806000Y-157520714D01*
X199806000Y-157377857D01*
X200448857Y-156663571D02*
X201306000Y-156663571D01*
X200877428Y-158163571D02*
X200877428Y-156663571D01*
X186520285Y-159927857D02*
X186734571Y-159999285D01*
X186806000Y-160070714D01*
X186877428Y-160213571D01*
X186877428Y-160427857D01*
X186806000Y-160570714D01*
X186734571Y-160642142D01*
X186591714Y-160713571D01*
X186020285Y-160713571D01*
X186020285Y-159213571D01*
X186520285Y-159213571D01*
X186663142Y-159285000D01*
X186734571Y-159356428D01*
X186806000Y-159499285D01*
X186806000Y-159642142D01*
X186734571Y-159785000D01*
X186663142Y-159856428D01*
X186520285Y-159927857D01*
X186020285Y-159927857D01*
X187520285Y-160713571D02*
X187520285Y-159713571D01*
X187520285Y-159999285D02*
X187591714Y-159856428D01*
X187663142Y-159785000D01*
X187806000Y-159713571D01*
X187948857Y-159713571D01*
X188448857Y-160713571D02*
X188448857Y-159713571D01*
X188448857Y-159213571D02*
X188377428Y-159285000D01*
X188448857Y-159356428D01*
X188520285Y-159285000D01*
X188448857Y-159213571D01*
X188448857Y-159356428D01*
X189806000Y-160713571D02*
X189806000Y-159927857D01*
X189734571Y-159785000D01*
X189591714Y-159713571D01*
X189306000Y-159713571D01*
X189163142Y-159785000D01*
X189806000Y-160642142D02*
X189663142Y-160713571D01*
X189306000Y-160713571D01*
X189163142Y-160642142D01*
X189091714Y-160499285D01*
X189091714Y-160356428D01*
X189163142Y-160213571D01*
X189306000Y-160142142D01*
X189663142Y-160142142D01*
X189806000Y-160070714D01*
X190520285Y-159713571D02*
X190520285Y-160713571D01*
X190520285Y-159856428D02*
X190591714Y-159785000D01*
X190734571Y-159713571D01*
X190948857Y-159713571D01*
X191091714Y-159785000D01*
X191163142Y-159927857D01*
X191163142Y-160713571D01*
X193020285Y-160713571D02*
X193020285Y-159213571D01*
X193877428Y-160713571D02*
X193234571Y-159856428D01*
X193877428Y-159213571D02*
X193020285Y-160070714D01*
X195163142Y-160713571D02*
X195163142Y-159927857D01*
X195091714Y-159785000D01*
X194948857Y-159713571D01*
X194663142Y-159713571D01*
X194520285Y-159785000D01*
X195163142Y-160642142D02*
X195020285Y-160713571D01*
X194663142Y-160713571D01*
X194520285Y-160642142D01*
X194448857Y-160499285D01*
X194448857Y-160356428D01*
X194520285Y-160213571D01*
X194663142Y-160142142D01*
X195020285Y-160142142D01*
X195163142Y-160070714D01*
X196520285Y-159713571D02*
X196520285Y-160713571D01*
X195877428Y-159713571D02*
X195877428Y-160499285D01*
X195948857Y-160642142D01*
X196091714Y-160713571D01*
X196306000Y-160713571D01*
X196448857Y-160642142D01*
X196520285Y-160570714D01*
X197020285Y-159713571D02*
X197591714Y-159713571D01*
X197234571Y-160713571D02*
X197234571Y-159427857D01*
X197306000Y-159285000D01*
X197448857Y-159213571D01*
X197591714Y-159213571D01*
X198091714Y-160713571D02*
X198091714Y-159713571D01*
X198091714Y-159856428D02*
X198163142Y-159785000D01*
X198306000Y-159713571D01*
X198520285Y-159713571D01*
X198663142Y-159785000D01*
X198734571Y-159927857D01*
X198734571Y-160713571D01*
X198734571Y-159927857D02*
X198806000Y-159785000D01*
X198948857Y-159713571D01*
X199163142Y-159713571D01*
X199306000Y-159785000D01*
X199377428Y-159927857D01*
X199377428Y-160713571D01*
X200734571Y-160713571D02*
X200734571Y-159927857D01*
X200663142Y-159785000D01*
X200520285Y-159713571D01*
X200234571Y-159713571D01*
X200091714Y-159785000D01*
X200734571Y-160642142D02*
X200591714Y-160713571D01*
X200234571Y-160713571D01*
X200091714Y-160642142D01*
X200020285Y-160499285D01*
X200020285Y-160356428D01*
X200091714Y-160213571D01*
X200234571Y-160142142D01*
X200591714Y-160142142D01*
X200734571Y-160070714D01*
X201448857Y-159713571D02*
X201448857Y-160713571D01*
X201448857Y-159856428D02*
X201520285Y-159785000D01*
X201663142Y-159713571D01*
X201877428Y-159713571D01*
X202020285Y-159785000D01*
X202091714Y-159927857D01*
X202091714Y-160713571D01*
X219075142Y-102628000D02*
X218932285Y-102556571D01*
X218718000Y-102556571D01*
X218503714Y-102628000D01*
X218360857Y-102770857D01*
X218289428Y-102913714D01*
X218218000Y-103199428D01*
X218218000Y-103413714D01*
X218289428Y-103699428D01*
X218360857Y-103842285D01*
X218503714Y-103985142D01*
X218718000Y-104056571D01*
X218860857Y-104056571D01*
X219075142Y-103985142D01*
X219146571Y-103913714D01*
X219146571Y-103413714D01*
X218860857Y-103413714D01*
X219789428Y-104056571D02*
X219789428Y-102556571D01*
X220646571Y-104056571D01*
X220646571Y-102556571D01*
X221360857Y-104056571D02*
X221360857Y-102556571D01*
X221718000Y-102556571D01*
X221932285Y-102628000D01*
X222075142Y-102770857D01*
X222146571Y-102913714D01*
X222218000Y-103199428D01*
X222218000Y-103413714D01*
X222146571Y-103699428D01*
X222075142Y-103842285D01*
X221932285Y-103985142D01*
X221718000Y-104056571D01*
X221360857Y-104056571D01*
X226592000Y-103802571D02*
X225734857Y-103802571D01*
X226163428Y-103802571D02*
X226163428Y-102302571D01*
X226020571Y-102516857D01*
X225877714Y-102659714D01*
X225734857Y-102731142D01*
X227163428Y-102445428D02*
X227234857Y-102374000D01*
X227377714Y-102302571D01*
X227734857Y-102302571D01*
X227877714Y-102374000D01*
X227949142Y-102445428D01*
X228020571Y-102588285D01*
X228020571Y-102731142D01*
X227949142Y-102945428D01*
X227092000Y-103802571D01*
X228020571Y-103802571D01*
X229592000Y-102302571D02*
X230092000Y-103802571D01*
X230592000Y-102302571D01*
X196878285Y-93388571D02*
X196878285Y-91888571D01*
X197378285Y-92960000D01*
X197878285Y-91888571D01*
X197878285Y-93388571D01*
X198806857Y-93388571D02*
X198664000Y-93317142D01*
X198592571Y-93245714D01*
X198521142Y-93102857D01*
X198521142Y-92674285D01*
X198592571Y-92531428D01*
X198664000Y-92460000D01*
X198806857Y-92388571D01*
X199021142Y-92388571D01*
X199164000Y-92460000D01*
X199235428Y-92531428D01*
X199306857Y-92674285D01*
X199306857Y-93102857D01*
X199235428Y-93245714D01*
X199164000Y-93317142D01*
X199021142Y-93388571D01*
X198806857Y-93388571D01*
X199735428Y-92388571D02*
X200306857Y-92388571D01*
X199949714Y-91888571D02*
X199949714Y-93174285D01*
X200021142Y-93317142D01*
X200164000Y-93388571D01*
X200306857Y-93388571D01*
X201021142Y-93388571D02*
X200878285Y-93317142D01*
X200806857Y-93245714D01*
X200735428Y-93102857D01*
X200735428Y-92674285D01*
X200806857Y-92531428D01*
X200878285Y-92460000D01*
X201021142Y-92388571D01*
X201235428Y-92388571D01*
X201378285Y-92460000D01*
X201449714Y-92531428D01*
X201521142Y-92674285D01*
X201521142Y-93102857D01*
X201449714Y-93245714D01*
X201378285Y-93317142D01*
X201235428Y-93388571D01*
X201021142Y-93388571D01*
X202164000Y-93388571D02*
X202164000Y-92388571D01*
X202164000Y-92674285D02*
X202235428Y-92531428D01*
X202306857Y-92460000D01*
X202449714Y-92388571D01*
X202592571Y-92388571D01*
X204164000Y-92031428D02*
X204235428Y-91960000D01*
X204378285Y-91888571D01*
X204735428Y-91888571D01*
X204878285Y-91960000D01*
X204949714Y-92031428D01*
X205021142Y-92174285D01*
X205021142Y-92317142D01*
X204949714Y-92531428D01*
X204092571Y-93388571D01*
X205021142Y-93388571D01*
X178336285Y-93388571D02*
X178336285Y-91888571D01*
X178836285Y-92960000D01*
X179336285Y-91888571D01*
X179336285Y-93388571D01*
X180264857Y-93388571D02*
X180122000Y-93317142D01*
X180050571Y-93245714D01*
X179979142Y-93102857D01*
X179979142Y-92674285D01*
X180050571Y-92531428D01*
X180122000Y-92460000D01*
X180264857Y-92388571D01*
X180479142Y-92388571D01*
X180622000Y-92460000D01*
X180693428Y-92531428D01*
X180764857Y-92674285D01*
X180764857Y-93102857D01*
X180693428Y-93245714D01*
X180622000Y-93317142D01*
X180479142Y-93388571D01*
X180264857Y-93388571D01*
X181193428Y-92388571D02*
X181764857Y-92388571D01*
X181407714Y-91888571D02*
X181407714Y-93174285D01*
X181479142Y-93317142D01*
X181622000Y-93388571D01*
X181764857Y-93388571D01*
X182479142Y-93388571D02*
X182336285Y-93317142D01*
X182264857Y-93245714D01*
X182193428Y-93102857D01*
X182193428Y-92674285D01*
X182264857Y-92531428D01*
X182336285Y-92460000D01*
X182479142Y-92388571D01*
X182693428Y-92388571D01*
X182836285Y-92460000D01*
X182907714Y-92531428D01*
X182979142Y-92674285D01*
X182979142Y-93102857D01*
X182907714Y-93245714D01*
X182836285Y-93317142D01*
X182693428Y-93388571D01*
X182479142Y-93388571D01*
X183622000Y-93388571D02*
X183622000Y-92388571D01*
X183622000Y-92674285D02*
X183693428Y-92531428D01*
X183764857Y-92460000D01*
X183907714Y-92388571D01*
X184050571Y-92388571D01*
X186479142Y-93388571D02*
X185622000Y-93388571D01*
X186050571Y-93388571D02*
X186050571Y-91888571D01*
X185907714Y-92102857D01*
X185764857Y-92245714D01*
X185622000Y-92317142D01*
D11*
G04 #@! TO.C,U2*
X182692000Y-121923000D02*
X185592000Y-121923000D01*
X185592000Y-121923000D02*
X185592000Y-131823000D01*
X185592000Y-131823000D02*
X181692000Y-131823000D01*
X181692000Y-131823000D02*
X181692000Y-122923000D01*
X181692000Y-122923000D02*
X182692000Y-121923000D01*
D12*
G04 #@! TO.C,C1*
X182035267Y-120144000D02*
X181692733Y-120144000D01*
X182035267Y-119124000D02*
X181692733Y-119124000D01*
G04 #@! TO.C,C2*
X178306000Y-135097733D02*
X178306000Y-135440267D01*
X179326000Y-135097733D02*
X179326000Y-135440267D01*
G04 #@! TO.C,C3*
X213743000Y-115793733D02*
X213743000Y-116136267D01*
X212723000Y-115793733D02*
X212723000Y-116136267D01*
G04 #@! TO.C,C4*
X179072000Y-122891733D02*
X179072000Y-123234267D01*
X178052000Y-122891733D02*
X178052000Y-123234267D01*
G04 #@! TO.C,C5*
X178052000Y-127096733D02*
X178052000Y-127439267D01*
X179072000Y-127096733D02*
X179072000Y-127439267D01*
D11*
G04 #@! TO.C,Conn1*
X215900000Y-81788000D02*
G75*
G03X217017600Y-80670400I0J1117600D01*
G01*
X217017600Y-80670400D02*
G75*
G03X215900000Y-79552800I-1117600J0D01*
G01*
X231648000Y-70612000D02*
X215900000Y-70612000D01*
X231648000Y-95250000D02*
X215900000Y-95250000D01*
X231648000Y-79527400D02*
X231648000Y-78308200D01*
X230505000Y-80670400D02*
G75*
G03X231648000Y-81813400I1143000J0D01*
G01*
X231648000Y-79527400D02*
G75*
G03X230505000Y-80670400I0J-1143000D01*
G01*
X215900000Y-82981800D02*
X215900000Y-81788000D01*
X218211400Y-80670400D02*
X217043000Y-80670400D01*
X215900000Y-78359000D02*
X215900000Y-79527400D01*
X231648000Y-82931000D02*
X231648000Y-81838800D01*
X230505000Y-80670400D02*
X229336600Y-80670400D01*
X221488000Y-80670400D02*
X222631000Y-80670400D01*
X223799400Y-70637400D02*
X223799400Y-79527400D01*
X226060000Y-80670400D02*
X224917000Y-80670400D01*
X223774000Y-82956400D02*
X223774000Y-81813400D01*
X221488000Y-80670400D02*
X218186000Y-80670400D01*
X223774000Y-82956400D02*
X223774000Y-95250000D01*
X226060000Y-80670400D02*
X229336600Y-80670400D01*
X224917000Y-80670400D02*
G75*
G03X224917000Y-80670400I-1143000J0D01*
G01*
X215900000Y-82956400D02*
X215900000Y-95250000D01*
X215900000Y-78384400D02*
X215900000Y-70637400D01*
X231648000Y-70637400D02*
X231648000Y-78384400D01*
X231648000Y-82956400D02*
X231648000Y-95250000D01*
G04 #@! TO.C,Conn2*
X196850000Y-76962000D02*
X196850000Y-77470000D01*
X204470000Y-77470000D02*
X204470000Y-76962000D01*
X192405000Y-76962000D02*
X208915000Y-76962000D01*
X192405000Y-88900000D02*
X192405000Y-76962000D01*
X208915000Y-88900000D02*
X208915000Y-76962000D01*
X207010000Y-88900000D02*
X208915000Y-88900000D01*
X194310000Y-88900000D02*
X192405000Y-88900000D01*
X196850000Y-81280000D02*
X196850000Y-82550000D01*
X196850000Y-82550000D02*
X204470000Y-82550000D01*
X204470000Y-82550000D02*
X204470000Y-81280000D01*
X204470000Y-81280000D02*
X204470000Y-77470000D01*
X196850000Y-81280000D02*
X196850000Y-77470000D01*
X199390000Y-82550000D02*
X199390000Y-85090000D01*
X199390000Y-85090000D02*
X201930000Y-85090000D01*
X201930000Y-85090000D02*
X201930000Y-82550000D01*
X194310000Y-88900000D02*
X207010000Y-88900000D01*
X207010000Y-88900000D02*
X207010000Y-91440000D01*
X207010000Y-91440000D02*
X194310000Y-91440000D01*
X194310000Y-91440000D02*
X194310000Y-88900000D01*
G04 #@! TO.C,Conn3*
X176530000Y-91440000D02*
X176530000Y-88900000D01*
X189230000Y-91440000D02*
X176530000Y-91440000D01*
X189230000Y-88900000D02*
X189230000Y-91440000D01*
X176530000Y-88900000D02*
X189230000Y-88900000D01*
X184150000Y-85090000D02*
X184150000Y-82550000D01*
X181610000Y-85090000D02*
X184150000Y-85090000D01*
X181610000Y-82550000D02*
X181610000Y-85090000D01*
X179070000Y-81280000D02*
X179070000Y-77470000D01*
X186690000Y-81280000D02*
X186690000Y-77470000D01*
X186690000Y-82550000D02*
X186690000Y-81280000D01*
X179070000Y-82550000D02*
X186690000Y-82550000D01*
X179070000Y-81280000D02*
X179070000Y-82550000D01*
X176530000Y-88900000D02*
X174625000Y-88900000D01*
X189230000Y-88900000D02*
X191135000Y-88900000D01*
X191135000Y-88900000D02*
X191135000Y-76962000D01*
X174625000Y-88900000D02*
X174625000Y-76962000D01*
X174625000Y-76962000D02*
X191135000Y-76962000D01*
X186690000Y-77470000D02*
X186690000Y-76962000D01*
X179070000Y-76962000D02*
X179070000Y-77470000D01*
G04 #@! TO.C,U1*
X199669001Y-138175001D02*
X174269001Y-138175001D01*
X174269001Y-100075001D02*
X199669001Y-100075001D01*
X199669001Y-143255001D02*
X199669001Y-138175001D01*
X174269001Y-138175001D02*
X174269001Y-143255001D01*
X174269001Y-143255001D02*
X199669001Y-143255001D01*
X199669001Y-100075001D02*
X199669001Y-94995001D01*
X199669001Y-94995001D02*
X174269001Y-94995001D01*
X174269001Y-94995001D02*
X174269001Y-100075001D01*
G04 #@! TO.C,U3*
X219710000Y-111760000D02*
X222250000Y-109220000D01*
X222250000Y-109220000D02*
X227330000Y-109220000D01*
X227330000Y-109220000D02*
X229870000Y-111760000D01*
X229870000Y-111760000D02*
X229870000Y-116840000D01*
X229870000Y-116840000D02*
X227330000Y-119380000D01*
X227330000Y-119380000D02*
X222250000Y-119380000D01*
X222250000Y-119380000D02*
X219710000Y-116840000D01*
X219710000Y-116840000D02*
X219710000Y-111760000D01*
X232410000Y-119380000D02*
X232410000Y-109220000D01*
X215900000Y-119380000D02*
X215900000Y-109220000D01*
X215900000Y-109220000D02*
X232410000Y-109220000D01*
X232410000Y-119380000D02*
X215900000Y-119380000D01*
D13*
G04 #@! TO.C,G\002A\002A\002A*
G36*
X232197896Y-145945364D02*
X232329117Y-145964290D01*
X232435956Y-145995351D01*
X232452253Y-146002407D01*
X232517655Y-146032715D01*
X232457513Y-146022541D01*
X232248196Y-145999066D01*
X232052137Y-146000629D01*
X231878244Y-146027134D01*
X231871063Y-146028916D01*
X231668424Y-146095555D01*
X231457259Y-146195412D01*
X231236850Y-146329073D01*
X231006476Y-146497123D01*
X230765416Y-146700149D01*
X230512951Y-146938738D01*
X230248360Y-147213476D01*
X229970922Y-147524949D01*
X229832674Y-147688039D01*
X229704595Y-147842726D01*
X229582234Y-147993569D01*
X229463674Y-148143339D01*
X229346997Y-148294810D01*
X229230286Y-148450751D01*
X229111623Y-148613936D01*
X228989092Y-148787136D01*
X228860773Y-148973123D01*
X228724751Y-149174669D01*
X228579107Y-149394545D01*
X228421924Y-149635524D01*
X228251284Y-149900377D01*
X228065270Y-150191876D01*
X227861965Y-150512793D01*
X227691114Y-150783783D01*
X227301504Y-151412057D01*
X226926770Y-152034898D01*
X226572937Y-152642254D01*
X226483886Y-152798542D01*
X226403409Y-152939746D01*
X226310172Y-153102150D01*
X226211853Y-153272458D01*
X226116127Y-153437373D01*
X226032135Y-153581103D01*
X225948477Y-153724510D01*
X225856709Y-153883325D01*
X225763914Y-154045192D01*
X225677173Y-154197754D01*
X225603570Y-154328655D01*
X225601215Y-154332879D01*
X225537738Y-154446571D01*
X225477519Y-154554068D01*
X225424564Y-154648244D01*
X225382882Y-154721974D01*
X225356476Y-154768135D01*
X225355645Y-154769564D01*
X225305215Y-154856135D01*
X225227388Y-154649280D01*
X225186568Y-154546977D01*
X225135818Y-154429482D01*
X225077684Y-154301792D01*
X225014713Y-154168899D01*
X224949450Y-154035801D01*
X224884441Y-153907490D01*
X224822233Y-153788962D01*
X224765371Y-153685212D01*
X224716402Y-153601235D01*
X224677871Y-153542025D01*
X224652324Y-153512577D01*
X224646774Y-153510223D01*
X224633304Y-153526984D01*
X224604388Y-153573461D01*
X224563363Y-153643947D01*
X224513563Y-153732734D01*
X224468112Y-153815945D01*
X224394723Y-153951318D01*
X224316028Y-154095554D01*
X224234422Y-154244346D01*
X224152303Y-154393386D01*
X224072068Y-154538364D01*
X223996113Y-154674974D01*
X223926834Y-154798907D01*
X223866629Y-154905855D01*
X223817894Y-154991510D01*
X223783026Y-155051564D01*
X223764421Y-155081708D01*
X223762709Y-155083940D01*
X223761319Y-155075140D01*
X223771975Y-155035615D01*
X223792652Y-154972184D01*
X223813332Y-154913538D01*
X223863554Y-154775544D01*
X223919380Y-154623317D01*
X223979214Y-154461107D01*
X224041461Y-154293163D01*
X224104526Y-154123736D01*
X224166812Y-153957076D01*
X224226723Y-153797433D01*
X224282665Y-153649057D01*
X224333041Y-153516198D01*
X224376256Y-153403105D01*
X224410713Y-153314030D01*
X224434819Y-153253222D01*
X224446976Y-153224931D01*
X224447836Y-153223546D01*
X224464745Y-153231386D01*
X224496460Y-153266479D01*
X224536907Y-153321849D01*
X224548178Y-153338819D01*
X224589994Y-153400621D01*
X224624076Y-153446624D01*
X224644325Y-153468712D01*
X224646410Y-153469555D01*
X224659103Y-153452489D01*
X224687639Y-153405000D01*
X224729163Y-153332134D01*
X224780823Y-153238939D01*
X224839766Y-153130459D01*
X224869588Y-153074851D01*
X224939820Y-152944087D01*
X225023905Y-152788714D01*
X225116172Y-152619138D01*
X225210949Y-152445770D01*
X225302564Y-152279017D01*
X225358173Y-152178305D01*
X225438896Y-152032217D01*
X225533719Y-151860200D01*
X225637546Y-151671526D01*
X225745279Y-151475465D01*
X225851823Y-151281289D01*
X225952080Y-151098269D01*
X225987032Y-151034375D01*
X226149475Y-150739646D01*
X226309033Y-150454741D01*
X226463976Y-150182559D01*
X226612576Y-149925999D01*
X226753105Y-149687962D01*
X226883834Y-149471346D01*
X227003035Y-149279052D01*
X227108980Y-149113979D01*
X227199941Y-148979026D01*
X227268645Y-148884303D01*
X227364883Y-148768260D01*
X227450714Y-148684827D01*
X227524716Y-148634797D01*
X227585466Y-148618966D01*
X227631542Y-148638126D01*
X227652953Y-148669730D01*
X227672799Y-148723281D01*
X227676215Y-148754765D01*
X227664920Y-148758969D01*
X227640636Y-148730682D01*
X227635512Y-148722550D01*
X227596827Y-148675563D01*
X227560886Y-148662430D01*
X227560410Y-148662515D01*
X227522734Y-148686564D01*
X227470554Y-148746614D01*
X227404504Y-148841541D01*
X227325218Y-148970221D01*
X227233330Y-149131527D01*
X227129474Y-149324335D01*
X227014283Y-149547521D01*
X226888393Y-149799958D01*
X226752436Y-150080522D01*
X226703916Y-150182362D01*
X226656132Y-150284182D01*
X226597809Y-150410305D01*
X226530415Y-150557431D01*
X226455418Y-150722261D01*
X226374284Y-150901496D01*
X226288481Y-151091836D01*
X226199478Y-151289981D01*
X226108740Y-151492634D01*
X226017736Y-151696493D01*
X225927934Y-151898261D01*
X225840800Y-152094637D01*
X225757803Y-152282322D01*
X225680409Y-152458018D01*
X225610086Y-152618424D01*
X225548302Y-152760241D01*
X225496525Y-152880170D01*
X225456221Y-152974911D01*
X225428858Y-153041166D01*
X225415904Y-153075635D01*
X225415144Y-153079879D01*
X225427418Y-153065534D01*
X225458847Y-153022307D01*
X225506324Y-152954660D01*
X225566739Y-152867057D01*
X225636983Y-152763958D01*
X225691530Y-152683187D01*
X225782460Y-152548900D01*
X225890112Y-152391331D01*
X226011739Y-152214405D01*
X226144593Y-152022050D01*
X226285927Y-151818190D01*
X226432992Y-151606751D01*
X226583040Y-151391659D01*
X226733325Y-151176841D01*
X226881097Y-150966221D01*
X227023609Y-150763725D01*
X227158114Y-150573281D01*
X227281863Y-150398812D01*
X227392109Y-150244246D01*
X227486104Y-150113508D01*
X227561100Y-150010523D01*
X227582257Y-149981888D01*
X227948212Y-149495274D01*
X228297207Y-149043839D01*
X228630000Y-148626794D01*
X228947345Y-148243350D01*
X229250002Y-147892718D01*
X229538725Y-147574110D01*
X229814272Y-147286736D01*
X230077399Y-147029807D01*
X230328863Y-146802534D01*
X230569422Y-146604128D01*
X230799830Y-146433801D01*
X231020846Y-146290762D01*
X231233226Y-146174224D01*
X231234624Y-146173529D01*
X231392935Y-146097975D01*
X231527676Y-146041257D01*
X231648715Y-146000091D01*
X231765922Y-145971193D01*
X231889167Y-145951279D01*
X231910341Y-145948679D01*
X232054301Y-145939764D01*
X232197896Y-145945364D01*
X232197896Y-145945364D01*
G37*
X232197896Y-145945364D02*
X232329117Y-145964290D01*
X232435956Y-145995351D01*
X232452253Y-146002407D01*
X232517655Y-146032715D01*
X232457513Y-146022541D01*
X232248196Y-145999066D01*
X232052137Y-146000629D01*
X231878244Y-146027134D01*
X231871063Y-146028916D01*
X231668424Y-146095555D01*
X231457259Y-146195412D01*
X231236850Y-146329073D01*
X231006476Y-146497123D01*
X230765416Y-146700149D01*
X230512951Y-146938738D01*
X230248360Y-147213476D01*
X229970922Y-147524949D01*
X229832674Y-147688039D01*
X229704595Y-147842726D01*
X229582234Y-147993569D01*
X229463674Y-148143339D01*
X229346997Y-148294810D01*
X229230286Y-148450751D01*
X229111623Y-148613936D01*
X228989092Y-148787136D01*
X228860773Y-148973123D01*
X228724751Y-149174669D01*
X228579107Y-149394545D01*
X228421924Y-149635524D01*
X228251284Y-149900377D01*
X228065270Y-150191876D01*
X227861965Y-150512793D01*
X227691114Y-150783783D01*
X227301504Y-151412057D01*
X226926770Y-152034898D01*
X226572937Y-152642254D01*
X226483886Y-152798542D01*
X226403409Y-152939746D01*
X226310172Y-153102150D01*
X226211853Y-153272458D01*
X226116127Y-153437373D01*
X226032135Y-153581103D01*
X225948477Y-153724510D01*
X225856709Y-153883325D01*
X225763914Y-154045192D01*
X225677173Y-154197754D01*
X225603570Y-154328655D01*
X225601215Y-154332879D01*
X225537738Y-154446571D01*
X225477519Y-154554068D01*
X225424564Y-154648244D01*
X225382882Y-154721974D01*
X225356476Y-154768135D01*
X225355645Y-154769564D01*
X225305215Y-154856135D01*
X225227388Y-154649280D01*
X225186568Y-154546977D01*
X225135818Y-154429482D01*
X225077684Y-154301792D01*
X225014713Y-154168899D01*
X224949450Y-154035801D01*
X224884441Y-153907490D01*
X224822233Y-153788962D01*
X224765371Y-153685212D01*
X224716402Y-153601235D01*
X224677871Y-153542025D01*
X224652324Y-153512577D01*
X224646774Y-153510223D01*
X224633304Y-153526984D01*
X224604388Y-153573461D01*
X224563363Y-153643947D01*
X224513563Y-153732734D01*
X224468112Y-153815945D01*
X224394723Y-153951318D01*
X224316028Y-154095554D01*
X224234422Y-154244346D01*
X224152303Y-154393386D01*
X224072068Y-154538364D01*
X223996113Y-154674974D01*
X223926834Y-154798907D01*
X223866629Y-154905855D01*
X223817894Y-154991510D01*
X223783026Y-155051564D01*
X223764421Y-155081708D01*
X223762709Y-155083940D01*
X223761319Y-155075140D01*
X223771975Y-155035615D01*
X223792652Y-154972184D01*
X223813332Y-154913538D01*
X223863554Y-154775544D01*
X223919380Y-154623317D01*
X223979214Y-154461107D01*
X224041461Y-154293163D01*
X224104526Y-154123736D01*
X224166812Y-153957076D01*
X224226723Y-153797433D01*
X224282665Y-153649057D01*
X224333041Y-153516198D01*
X224376256Y-153403105D01*
X224410713Y-153314030D01*
X224434819Y-153253222D01*
X224446976Y-153224931D01*
X224447836Y-153223546D01*
X224464745Y-153231386D01*
X224496460Y-153266479D01*
X224536907Y-153321849D01*
X224548178Y-153338819D01*
X224589994Y-153400621D01*
X224624076Y-153446624D01*
X224644325Y-153468712D01*
X224646410Y-153469555D01*
X224659103Y-153452489D01*
X224687639Y-153405000D01*
X224729163Y-153332134D01*
X224780823Y-153238939D01*
X224839766Y-153130459D01*
X224869588Y-153074851D01*
X224939820Y-152944087D01*
X225023905Y-152788714D01*
X225116172Y-152619138D01*
X225210949Y-152445770D01*
X225302564Y-152279017D01*
X225358173Y-152178305D01*
X225438896Y-152032217D01*
X225533719Y-151860200D01*
X225637546Y-151671526D01*
X225745279Y-151475465D01*
X225851823Y-151281289D01*
X225952080Y-151098269D01*
X225987032Y-151034375D01*
X226149475Y-150739646D01*
X226309033Y-150454741D01*
X226463976Y-150182559D01*
X226612576Y-149925999D01*
X226753105Y-149687962D01*
X226883834Y-149471346D01*
X227003035Y-149279052D01*
X227108980Y-149113979D01*
X227199941Y-148979026D01*
X227268645Y-148884303D01*
X227364883Y-148768260D01*
X227450714Y-148684827D01*
X227524716Y-148634797D01*
X227585466Y-148618966D01*
X227631542Y-148638126D01*
X227652953Y-148669730D01*
X227672799Y-148723281D01*
X227676215Y-148754765D01*
X227664920Y-148758969D01*
X227640636Y-148730682D01*
X227635512Y-148722550D01*
X227596827Y-148675563D01*
X227560886Y-148662430D01*
X227560410Y-148662515D01*
X227522734Y-148686564D01*
X227470554Y-148746614D01*
X227404504Y-148841541D01*
X227325218Y-148970221D01*
X227233330Y-149131527D01*
X227129474Y-149324335D01*
X227014283Y-149547521D01*
X226888393Y-149799958D01*
X226752436Y-150080522D01*
X226703916Y-150182362D01*
X226656132Y-150284182D01*
X226597809Y-150410305D01*
X226530415Y-150557431D01*
X226455418Y-150722261D01*
X226374284Y-150901496D01*
X226288481Y-151091836D01*
X226199478Y-151289981D01*
X226108740Y-151492634D01*
X226017736Y-151696493D01*
X225927934Y-151898261D01*
X225840800Y-152094637D01*
X225757803Y-152282322D01*
X225680409Y-152458018D01*
X225610086Y-152618424D01*
X225548302Y-152760241D01*
X225496525Y-152880170D01*
X225456221Y-152974911D01*
X225428858Y-153041166D01*
X225415904Y-153075635D01*
X225415144Y-153079879D01*
X225427418Y-153065534D01*
X225458847Y-153022307D01*
X225506324Y-152954660D01*
X225566739Y-152867057D01*
X225636983Y-152763958D01*
X225691530Y-152683187D01*
X225782460Y-152548900D01*
X225890112Y-152391331D01*
X226011739Y-152214405D01*
X226144593Y-152022050D01*
X226285927Y-151818190D01*
X226432992Y-151606751D01*
X226583040Y-151391659D01*
X226733325Y-151176841D01*
X226881097Y-150966221D01*
X227023609Y-150763725D01*
X227158114Y-150573281D01*
X227281863Y-150398812D01*
X227392109Y-150244246D01*
X227486104Y-150113508D01*
X227561100Y-150010523D01*
X227582257Y-149981888D01*
X227948212Y-149495274D01*
X228297207Y-149043839D01*
X228630000Y-148626794D01*
X228947345Y-148243350D01*
X229250002Y-147892718D01*
X229538725Y-147574110D01*
X229814272Y-147286736D01*
X230077399Y-147029807D01*
X230328863Y-146802534D01*
X230569422Y-146604128D01*
X230799830Y-146433801D01*
X231020846Y-146290762D01*
X231233226Y-146174224D01*
X231234624Y-146173529D01*
X231392935Y-146097975D01*
X231527676Y-146041257D01*
X231648715Y-146000091D01*
X231765922Y-145971193D01*
X231889167Y-145951279D01*
X231910341Y-145948679D01*
X232054301Y-145939764D01*
X232197896Y-145945364D01*
G36*
X223746937Y-155124035D02*
X223736913Y-155134059D01*
X223726889Y-155124035D01*
X223736913Y-155114012D01*
X223746937Y-155124035D01*
X223746937Y-155124035D01*
G37*
X223746937Y-155124035D02*
X223736913Y-155134059D01*
X223726889Y-155124035D01*
X223736913Y-155114012D01*
X223746937Y-155124035D01*
G36*
X225627770Y-150414811D02*
X225617272Y-150438974D01*
X225583131Y-150490375D01*
X225563543Y-150518109D01*
X225526901Y-150572196D01*
X225491000Y-150631563D01*
X225453587Y-150700959D01*
X225412408Y-150785130D01*
X225365212Y-150888823D01*
X225309745Y-151016788D01*
X225243755Y-151173770D01*
X225185006Y-151315824D01*
X225135041Y-151438483D01*
X225073417Y-151591788D01*
X225002806Y-151768941D01*
X224925880Y-151963142D01*
X224845310Y-152167592D01*
X224763768Y-152375491D01*
X224683926Y-152580041D01*
X224608455Y-152774441D01*
X224540027Y-152951893D01*
X224481313Y-153105596D01*
X224469631Y-153136434D01*
X224447990Y-153193663D01*
X224335544Y-153039688D01*
X224285827Y-152975314D01*
X224243845Y-152927788D01*
X224215408Y-152903335D01*
X224207319Y-152902269D01*
X224196100Y-152922736D01*
X224168984Y-152976287D01*
X224127460Y-153059877D01*
X224073017Y-153170461D01*
X224007146Y-153304994D01*
X223931335Y-153460431D01*
X223847075Y-153633729D01*
X223755855Y-153821841D01*
X223659164Y-154021723D01*
X223620578Y-154101620D01*
X223398428Y-154561554D01*
X223192286Y-154987769D01*
X223000935Y-155382756D01*
X222823157Y-155749002D01*
X222657736Y-156088995D01*
X222503455Y-156405225D01*
X222359096Y-156700179D01*
X222223443Y-156976347D01*
X222095278Y-157236216D01*
X221973385Y-157482275D01*
X221856545Y-157717013D01*
X221743543Y-157942917D01*
X221679219Y-158070997D01*
X221592040Y-158245365D01*
X221517596Y-158395261D01*
X221453241Y-158524126D01*
X221396326Y-158635404D01*
X221344204Y-158732534D01*
X221294228Y-158818960D01*
X221243750Y-158898124D01*
X221190122Y-158973466D01*
X221130696Y-159048429D01*
X221062826Y-159126454D01*
X220983863Y-159210984D01*
X220891160Y-159305461D01*
X220782070Y-159413325D01*
X220653944Y-159538020D01*
X220504136Y-159682987D01*
X220329997Y-159851667D01*
X220248673Y-159930697D01*
X220101988Y-160074227D01*
X219958479Y-160216150D01*
X219821892Y-160352661D01*
X219695971Y-160479953D01*
X219584461Y-160594220D01*
X219491105Y-160691656D01*
X219419649Y-160768453D01*
X219378055Y-160815703D01*
X219264934Y-160948710D01*
X219127761Y-161105984D01*
X218970550Y-161283156D01*
X218797311Y-161475856D01*
X218612057Y-161679716D01*
X218418800Y-161890364D01*
X218221551Y-162103433D01*
X218024322Y-162314552D01*
X217831125Y-162519353D01*
X217645973Y-162713465D01*
X217472876Y-162892519D01*
X217444552Y-162921540D01*
X217348757Y-163019821D01*
X217263222Y-163108109D01*
X217191647Y-163182543D01*
X217137726Y-163239264D01*
X217105157Y-163274413D01*
X217096980Y-163284433D01*
X217121621Y-163293212D01*
X217177450Y-163309274D01*
X217256650Y-163330626D01*
X217351401Y-163355276D01*
X217453886Y-163381229D01*
X217556287Y-163406494D01*
X217650785Y-163429077D01*
X217729561Y-163446986D01*
X217759996Y-163453439D01*
X217888747Y-163477716D01*
X217982316Y-163490502D01*
X218043862Y-163492031D01*
X218076546Y-163482538D01*
X218081386Y-163477274D01*
X218100539Y-163458377D01*
X218143878Y-163420821D01*
X218204128Y-163370805D01*
X218247960Y-163335314D01*
X218404316Y-163209885D01*
X218087896Y-163508325D01*
X218155893Y-163520494D01*
X218276416Y-163537926D01*
X218420871Y-163552047D01*
X218583785Y-163562897D01*
X218759684Y-163570515D01*
X218943096Y-163574942D01*
X219128545Y-163576218D01*
X219310560Y-163574383D01*
X219483667Y-163569477D01*
X219642392Y-163561540D01*
X219781262Y-163550611D01*
X219894803Y-163536733D01*
X219977542Y-163519943D01*
X220013392Y-163506897D01*
X220036315Y-163483244D01*
X220076888Y-163428275D01*
X220132948Y-163345531D01*
X220202333Y-163238553D01*
X220282882Y-163110885D01*
X220372433Y-162966066D01*
X220468822Y-162807640D01*
X220569890Y-162639147D01*
X220673473Y-162464130D01*
X220777411Y-162286130D01*
X220879540Y-162108689D01*
X220977699Y-161935349D01*
X221030954Y-161839899D01*
X221115462Y-161690109D01*
X221206224Y-161533722D01*
X221297949Y-161379549D01*
X221385345Y-161236399D01*
X221463122Y-161113083D01*
X221512572Y-161038005D01*
X221586557Y-160925036D01*
X221672479Y-160787784D01*
X221763574Y-160637431D01*
X221853078Y-160485162D01*
X221934227Y-160342158D01*
X221942346Y-160327485D01*
X222041975Y-160151471D01*
X222139947Y-159988793D01*
X222243307Y-159828514D01*
X222359105Y-159659700D01*
X222491422Y-159475473D01*
X222774767Y-159079587D01*
X223042519Y-158688454D01*
X223300903Y-158292427D01*
X223556144Y-157881860D01*
X223814466Y-157447105D01*
X223934503Y-157239031D01*
X224006532Y-157115258D01*
X224072078Y-157008420D01*
X224137047Y-156910144D01*
X224207349Y-156812058D01*
X224288891Y-156705791D01*
X224387581Y-156582972D01*
X224457957Y-156497279D01*
X224555085Y-156379462D01*
X224651697Y-156261944D01*
X224742315Y-156151412D01*
X224821460Y-156054553D01*
X224883655Y-155978057D01*
X224909544Y-155945977D01*
X224971849Y-155869224D01*
X225050735Y-155773251D01*
X225136829Y-155669400D01*
X225220760Y-155569013D01*
X225234636Y-155552517D01*
X225302974Y-155469771D01*
X225360960Y-155396515D01*
X225404066Y-155338716D01*
X225427761Y-155302336D01*
X225430914Y-155294063D01*
X225425566Y-155263958D01*
X225411804Y-155209247D01*
X225393052Y-155141712D01*
X225372735Y-155073138D01*
X225354277Y-155015308D01*
X225341102Y-154980006D01*
X225338176Y-154974930D01*
X225320672Y-154983048D01*
X225283056Y-155012839D01*
X225236407Y-155055120D01*
X225190142Y-155096811D01*
X225168484Y-155110625D01*
X225172683Y-155095787D01*
X225173788Y-155093964D01*
X225201816Y-155045229D01*
X225236297Y-154981222D01*
X225249901Y-154954915D01*
X225277259Y-154903491D01*
X225294037Y-154883523D01*
X225307248Y-154890436D01*
X225318757Y-154909994D01*
X225329547Y-154926396D01*
X225343173Y-154932017D01*
X225364790Y-154923635D01*
X225399551Y-154898025D01*
X225452609Y-154851968D01*
X225529117Y-154782240D01*
X225541980Y-154770417D01*
X225768882Y-154563548D01*
X225971024Y-154383130D01*
X226151391Y-154226674D01*
X226312970Y-154091687D01*
X226458748Y-153975680D01*
X226591710Y-153876162D01*
X226714844Y-153790641D01*
X226723969Y-153784588D01*
X226887173Y-153683532D01*
X227026826Y-153611596D01*
X227142235Y-153569026D01*
X227232704Y-153556069D01*
X227297538Y-153572970D01*
X227305342Y-153578350D01*
X227326743Y-153597095D01*
X227322759Y-153606250D01*
X227287583Y-153609382D01*
X227254137Y-153609822D01*
X227164762Y-153623078D01*
X227076084Y-153665497D01*
X227072136Y-153667981D01*
X227001919Y-153717593D01*
X226910976Y-153789331D01*
X226806696Y-153876736D01*
X226696467Y-153973348D01*
X226587678Y-154072707D01*
X226487719Y-154168355D01*
X226413235Y-154243999D01*
X226351375Y-154309938D01*
X226273012Y-154394476D01*
X226182258Y-154493082D01*
X226083228Y-154601224D01*
X225980035Y-154714369D01*
X225876792Y-154827985D01*
X225777612Y-154937542D01*
X225686610Y-155038507D01*
X225607898Y-155126347D01*
X225545591Y-155196532D01*
X225503801Y-155244530D01*
X225490092Y-155261039D01*
X225445907Y-155317212D01*
X225500129Y-155561429D01*
X225544670Y-155773550D01*
X225579303Y-155967681D01*
X225605339Y-156155155D01*
X225624088Y-156347305D01*
X225636860Y-156555466D01*
X225644967Y-156790971D01*
X225645652Y-156819984D01*
X225648164Y-157145895D01*
X225639428Y-157443401D01*
X225618404Y-157722867D01*
X225584053Y-157994661D01*
X225535336Y-158269150D01*
X225471875Y-158553974D01*
X225333104Y-159042644D01*
X225157670Y-159516823D01*
X224946984Y-159974586D01*
X224702459Y-160414005D01*
X224425507Y-160833154D01*
X224117539Y-161230108D01*
X223779967Y-161602941D01*
X223414203Y-161949726D01*
X223021659Y-162268537D01*
X222603747Y-162557448D01*
X222481845Y-162633046D01*
X222065805Y-162864005D01*
X221630599Y-163066039D01*
X221182896Y-163236636D01*
X220729364Y-163373282D01*
X220276672Y-163473467D01*
X220228626Y-163481912D01*
X220123241Y-163503362D01*
X220055244Y-163525486D01*
X220022447Y-163548416D01*
X220004261Y-163574349D01*
X219966797Y-163628366D01*
X219913481Y-163705504D01*
X219847742Y-163800800D01*
X219773005Y-163909293D01*
X219714037Y-163994990D01*
X219494034Y-164307328D01*
X219287073Y-164585115D01*
X219090898Y-164830862D01*
X218903250Y-165047079D01*
X218721873Y-165236275D01*
X218544510Y-165400962D01*
X218368902Y-165543649D01*
X218236372Y-165638152D01*
X218119567Y-165709470D01*
X217985100Y-165780152D01*
X217845727Y-165844296D01*
X217714202Y-165895996D01*
X217611422Y-165927416D01*
X217447019Y-165956605D01*
X217269119Y-165969585D01*
X217095198Y-165965757D01*
X216967057Y-165949514D01*
X216729488Y-165884122D01*
X216501800Y-165779947D01*
X216284301Y-165637139D01*
X216209012Y-165576686D01*
X216150899Y-165531432D01*
X216103595Y-165507942D01*
X216049813Y-165499373D01*
X216011589Y-165498542D01*
X215742930Y-165482796D01*
X215470328Y-165437325D01*
X215405496Y-165419729D01*
X216887048Y-165419729D01*
X216914802Y-165437137D01*
X216940859Y-165445275D01*
X216978883Y-165449649D01*
X217044650Y-165451793D01*
X217125857Y-165451388D01*
X217151356Y-165450723D01*
X217268299Y-165442279D01*
X217364794Y-165422855D01*
X217447632Y-165393881D01*
X217583144Y-165332008D01*
X217704417Y-165261152D01*
X217822264Y-165173888D01*
X217947496Y-165062788D01*
X217991893Y-165020013D01*
X218057412Y-164954744D01*
X218106110Y-164903955D01*
X218134380Y-164871608D01*
X218138614Y-164861667D01*
X218133677Y-164864261D01*
X217926469Y-164992954D01*
X217747431Y-165095580D01*
X217595035Y-165173013D01*
X217587741Y-165176399D01*
X217480157Y-165222511D01*
X217356942Y-165269635D01*
X217229241Y-165314021D01*
X217108201Y-165351923D01*
X217004966Y-165379591D01*
X216950633Y-165390647D01*
X216899065Y-165403821D01*
X216887048Y-165419729D01*
X215405496Y-165419729D01*
X215203016Y-165364775D01*
X214950231Y-165267794D01*
X214721210Y-165149030D01*
X214661524Y-165111527D01*
X214592491Y-165071361D01*
X214524635Y-165040141D01*
X214485058Y-165027648D01*
X214432859Y-165012140D01*
X214359493Y-164984128D01*
X214279551Y-164949247D01*
X214267891Y-164943769D01*
X214107521Y-164845773D01*
X214107261Y-164845529D01*
X216059527Y-164845529D01*
X216066177Y-164861423D01*
X216084916Y-164882913D01*
X216089338Y-164887621D01*
X216114418Y-164912352D01*
X216139343Y-164927643D01*
X216171865Y-164933725D01*
X216219736Y-164930835D01*
X216290710Y-164919204D01*
X216392538Y-164899069D01*
X216402386Y-164897070D01*
X216484309Y-164878803D01*
X216578165Y-164855304D01*
X216676696Y-164828720D01*
X216772647Y-164801195D01*
X216858762Y-164774877D01*
X216927786Y-164751911D01*
X216972463Y-164734443D01*
X216985537Y-164724619D01*
X216985521Y-164724604D01*
X216963838Y-164724521D01*
X216912302Y-164730607D01*
X216840468Y-164741648D01*
X216809871Y-164746886D01*
X216722412Y-164760192D01*
X216609664Y-164774382D01*
X216486348Y-164787733D01*
X216370203Y-164798285D01*
X216246727Y-164808362D01*
X216158566Y-164816648D01*
X216101076Y-164824619D01*
X216069612Y-164833754D01*
X216059527Y-164845529D01*
X214107261Y-164845529D01*
X213968468Y-164715286D01*
X213852073Y-164554581D01*
X213759680Y-164365931D01*
X213692629Y-164151610D01*
X213652263Y-163913891D01*
X213650632Y-163898057D01*
X213636526Y-163811851D01*
X213611752Y-163709630D01*
X213581426Y-163612236D01*
X213578470Y-163604067D01*
X213500000Y-163362547D01*
X213489904Y-163323404D01*
X213880562Y-163323404D01*
X213889307Y-163466796D01*
X213898168Y-163554117D01*
X213916212Y-163625708D01*
X213949208Y-163700613D01*
X213974338Y-163747459D01*
X214144926Y-164023385D01*
X214330140Y-164263078D01*
X214531254Y-164468115D01*
X214615366Y-164539911D01*
X214735650Y-164637355D01*
X214865958Y-164624929D01*
X214933835Y-164617428D01*
X214983916Y-164609965D01*
X215004619Y-164604457D01*
X215008914Y-164599060D01*
X215005087Y-164591942D01*
X214986837Y-164578642D01*
X214947861Y-164554696D01*
X214881857Y-164515643D01*
X214865958Y-164506275D01*
X214646854Y-164358640D01*
X214450115Y-164186005D01*
X214272540Y-163984798D01*
X214110925Y-163751448D01*
X213980208Y-163518328D01*
X213880562Y-163323404D01*
X213489904Y-163323404D01*
X213428684Y-163086068D01*
X213365486Y-162779288D01*
X213311370Y-162446862D01*
X213269142Y-162110539D01*
X213259931Y-162005573D01*
X213252203Y-161877861D01*
X213246000Y-161733484D01*
X213241364Y-161578526D01*
X213238339Y-161419066D01*
X213236967Y-161261188D01*
X213237290Y-161110973D01*
X213239352Y-160974503D01*
X213243194Y-160857861D01*
X213248859Y-160767127D01*
X213256390Y-160708385D01*
X213259245Y-160697200D01*
X213270295Y-160666873D01*
X213276434Y-160665337D01*
X213279389Y-160696642D01*
X213280608Y-160747319D01*
X213287116Y-160906594D01*
X213301144Y-161095738D01*
X213321506Y-161305477D01*
X213347017Y-161526543D01*
X213376490Y-161749662D01*
X213408741Y-161965566D01*
X213442584Y-162164981D01*
X213476834Y-162338639D01*
X213493416Y-162411564D01*
X213524047Y-162533659D01*
X213556512Y-162654077D01*
X213588957Y-162766857D01*
X213619530Y-162866041D01*
X213646374Y-162945668D01*
X213667636Y-162999781D01*
X213681461Y-163022418D01*
X213683500Y-163022485D01*
X213701915Y-162990033D01*
X213711120Y-162926283D01*
X213711129Y-162838958D01*
X213701958Y-162735780D01*
X213683621Y-162624470D01*
X213682730Y-162620117D01*
X213653690Y-162470699D01*
X213630093Y-162327685D01*
X213611380Y-162184269D01*
X213596993Y-162033645D01*
X213586373Y-161869006D01*
X213578962Y-161683546D01*
X213574202Y-161470458D01*
X213571871Y-161268550D01*
X213568747Y-160878131D01*
X213684145Y-160878131D01*
X213686070Y-160956029D01*
X213690047Y-161053022D01*
X213695727Y-161162151D01*
X213702760Y-161276457D01*
X213710798Y-161388978D01*
X213719493Y-161492757D01*
X213725014Y-161549213D01*
X213736150Y-161643311D01*
X213750947Y-161751212D01*
X213768088Y-161865044D01*
X213786256Y-161976937D01*
X213804136Y-162079018D01*
X213820411Y-162163418D01*
X213833765Y-162222264D01*
X213841483Y-162245695D01*
X213852307Y-162237553D01*
X213872162Y-162197399D01*
X213898334Y-162131557D01*
X213928110Y-162046351D01*
X213931773Y-162035198D01*
X213976874Y-161900700D01*
X214017207Y-161787757D01*
X214051245Y-161700209D01*
X214077463Y-161641897D01*
X214094335Y-161616661D01*
X214098061Y-161616622D01*
X214097387Y-161638329D01*
X214089402Y-161691427D01*
X214075428Y-161768154D01*
X214056790Y-161860747D01*
X214054911Y-161869678D01*
X214029314Y-161996071D01*
X214002052Y-162139090D01*
X213977088Y-162277576D01*
X213964246Y-162353468D01*
X213925218Y-162592690D01*
X213986137Y-162767597D01*
X214037112Y-162901721D01*
X214100146Y-163048799D01*
X214169929Y-163197783D01*
X214241154Y-163337626D01*
X214308511Y-163457284D01*
X214346115Y-163516655D01*
X214441713Y-163643266D01*
X214557724Y-163773695D01*
X214681993Y-163895321D01*
X214802364Y-163995523D01*
X214819042Y-164007717D01*
X214879717Y-164047615D01*
X214954434Y-164091573D01*
X215035188Y-164135542D01*
X215113972Y-164175474D01*
X215182780Y-164207320D01*
X215233605Y-164227032D01*
X215258442Y-164230559D01*
X215258929Y-164230170D01*
X215255238Y-164209328D01*
X215237903Y-164161744D01*
X215210450Y-164096908D01*
X215204351Y-164083355D01*
X215145164Y-163947149D01*
X215078583Y-163784110D01*
X215008968Y-163605739D01*
X214940677Y-163423537D01*
X214878068Y-163249005D01*
X214825500Y-163093645D01*
X214806179Y-163032717D01*
X214772770Y-162921045D01*
X214736724Y-162794832D01*
X214699663Y-162660378D01*
X214663208Y-162523986D01*
X214628983Y-162391956D01*
X214598609Y-162270589D01*
X214573709Y-162166186D01*
X214555904Y-162085049D01*
X214546817Y-162033479D01*
X214545992Y-162022052D01*
X214553301Y-162029733D01*
X214573690Y-162070710D01*
X214605436Y-162141018D01*
X214646814Y-162236692D01*
X214696102Y-162353766D01*
X214751575Y-162488274D01*
X214793566Y-162591675D01*
X214881604Y-162808039D01*
X214959009Y-162993799D01*
X215029050Y-163155959D01*
X215094999Y-163301521D01*
X215160124Y-163437490D01*
X215227695Y-163570868D01*
X215300983Y-163708660D01*
X215383256Y-163857868D01*
X215392145Y-163873761D01*
X215472104Y-164015527D01*
X215535883Y-164125685D01*
X215586131Y-164208020D01*
X215625500Y-164266322D01*
X215656642Y-164304377D01*
X215682206Y-164325974D01*
X215704844Y-164334900D01*
X215715527Y-164335795D01*
X215751861Y-164325117D01*
X215811729Y-164296295D01*
X215885801Y-164254151D01*
X215941477Y-164219062D01*
X216023195Y-164162836D01*
X216124398Y-164089341D01*
X216233782Y-164006988D01*
X216340041Y-163924188D01*
X216369677Y-163900472D01*
X216388894Y-163884730D01*
X217552304Y-163884730D01*
X217562327Y-163894753D01*
X217572351Y-163884730D01*
X217562327Y-163874706D01*
X217552304Y-163884730D01*
X216388894Y-163884730D01*
X216409585Y-163867781D01*
X217592398Y-163867781D01*
X217607723Y-163863984D01*
X217653530Y-163834612D01*
X217729571Y-163779841D01*
X217835594Y-163699849D01*
X217889362Y-163658497D01*
X217956875Y-163604869D01*
X218009401Y-163560310D01*
X218040772Y-163530239D01*
X218046634Y-163520365D01*
X218028977Y-163528860D01*
X217986990Y-163557193D01*
X217927589Y-163600078D01*
X217857688Y-163652224D01*
X217784202Y-163708344D01*
X217714045Y-163763149D01*
X217654132Y-163811350D01*
X217611379Y-163847659D01*
X217592699Y-163866787D01*
X217592398Y-163867781D01*
X216409585Y-163867781D01*
X216455964Y-163829790D01*
X216550702Y-163750280D01*
X216649300Y-163666008D01*
X216747167Y-163581038D01*
X216839714Y-163499435D01*
X216922350Y-163425265D01*
X216990485Y-163362591D01*
X217039528Y-163315480D01*
X217064889Y-163287996D01*
X217067182Y-163282799D01*
X217047128Y-163274011D01*
X216996871Y-163254371D01*
X216923883Y-163226742D01*
X216835636Y-163193988D01*
X216831126Y-163192330D01*
X216364200Y-163000180D01*
X215913464Y-162773678D01*
X215481627Y-162514823D01*
X215071395Y-162225616D01*
X214685476Y-161908059D01*
X214326578Y-161564152D01*
X213997407Y-161195895D01*
X213814359Y-160962828D01*
X213763736Y-160896388D01*
X213721985Y-160844130D01*
X213694798Y-160813043D01*
X213687843Y-160807461D01*
X213684619Y-160826288D01*
X213684145Y-160878131D01*
X213568747Y-160878131D01*
X213566656Y-160617011D01*
X213432617Y-160396490D01*
X213187957Y-159955715D01*
X212979070Y-159497201D01*
X212805882Y-159020725D01*
X212668317Y-158526065D01*
X212566301Y-158012996D01*
X212517936Y-157660026D01*
X212508590Y-157548382D01*
X212501659Y-157405877D01*
X212497145Y-157241673D01*
X212495047Y-157064932D01*
X212495364Y-156884815D01*
X212498098Y-156710483D01*
X212503248Y-156551098D01*
X212510814Y-156415821D01*
X212517936Y-156336900D01*
X212596602Y-155810419D01*
X212711343Y-155301422D01*
X212862197Y-154809817D01*
X213049200Y-154335514D01*
X213272390Y-153878421D01*
X213531805Y-153438448D01*
X213827482Y-153015503D01*
X213941759Y-152868708D01*
X214043818Y-152747120D01*
X214168137Y-152608438D01*
X214306284Y-152461369D01*
X214449829Y-152314621D01*
X214590341Y-152176901D01*
X214719388Y-152056916D01*
X214775745Y-152007355D01*
X215178938Y-151687304D01*
X215602869Y-151401264D01*
X216046016Y-151149899D01*
X216506860Y-150933872D01*
X216983878Y-150753844D01*
X217475550Y-150610478D01*
X217980356Y-150504438D01*
X218344174Y-150452372D01*
X218493365Y-150438873D01*
X218671200Y-150428902D01*
X218867272Y-150422540D01*
X219071175Y-150419868D01*
X219272503Y-150420965D01*
X219460849Y-150425912D01*
X219625807Y-150434790D01*
X219707394Y-150441846D01*
X220226562Y-150514541D01*
X220729592Y-150623891D01*
X221216912Y-150770072D01*
X221688949Y-150953261D01*
X222146129Y-151173634D01*
X222588881Y-151431368D01*
X223017632Y-151726639D01*
X223245753Y-151903585D01*
X223333259Y-151977693D01*
X223437633Y-152071609D01*
X223552793Y-152179332D01*
X223672654Y-152294860D01*
X223791133Y-152412192D01*
X223902148Y-152525326D01*
X223999614Y-152628261D01*
X224077448Y-152714996D01*
X224117813Y-152763909D01*
X224160226Y-152816745D01*
X224192840Y-152854157D01*
X224208026Y-152867681D01*
X224219114Y-152850592D01*
X224245941Y-152801833D01*
X224286322Y-152725596D01*
X224338069Y-152626075D01*
X224398997Y-152507465D01*
X224466919Y-152373958D01*
X224513318Y-152282100D01*
X224657183Y-151999442D01*
X224795542Y-151733393D01*
X224927196Y-151486027D01*
X225050946Y-151259419D01*
X225165594Y-151055643D01*
X225269941Y-150876774D01*
X225362787Y-150724887D01*
X225442935Y-150602055D01*
X225509186Y-150510354D01*
X225560340Y-150451859D01*
X225580472Y-150435320D01*
X225615284Y-150414666D01*
X225627770Y-150414811D01*
X225627770Y-150414811D01*
G37*
X225627770Y-150414811D02*
X225617272Y-150438974D01*
X225583131Y-150490375D01*
X225563543Y-150518109D01*
X225526901Y-150572196D01*
X225491000Y-150631563D01*
X225453587Y-150700959D01*
X225412408Y-150785130D01*
X225365212Y-150888823D01*
X225309745Y-151016788D01*
X225243755Y-151173770D01*
X225185006Y-151315824D01*
X225135041Y-151438483D01*
X225073417Y-151591788D01*
X225002806Y-151768941D01*
X224925880Y-151963142D01*
X224845310Y-152167592D01*
X224763768Y-152375491D01*
X224683926Y-152580041D01*
X224608455Y-152774441D01*
X224540027Y-152951893D01*
X224481313Y-153105596D01*
X224469631Y-153136434D01*
X224447990Y-153193663D01*
X224335544Y-153039688D01*
X224285827Y-152975314D01*
X224243845Y-152927788D01*
X224215408Y-152903335D01*
X224207319Y-152902269D01*
X224196100Y-152922736D01*
X224168984Y-152976287D01*
X224127460Y-153059877D01*
X224073017Y-153170461D01*
X224007146Y-153304994D01*
X223931335Y-153460431D01*
X223847075Y-153633729D01*
X223755855Y-153821841D01*
X223659164Y-154021723D01*
X223620578Y-154101620D01*
X223398428Y-154561554D01*
X223192286Y-154987769D01*
X223000935Y-155382756D01*
X222823157Y-155749002D01*
X222657736Y-156088995D01*
X222503455Y-156405225D01*
X222359096Y-156700179D01*
X222223443Y-156976347D01*
X222095278Y-157236216D01*
X221973385Y-157482275D01*
X221856545Y-157717013D01*
X221743543Y-157942917D01*
X221679219Y-158070997D01*
X221592040Y-158245365D01*
X221517596Y-158395261D01*
X221453241Y-158524126D01*
X221396326Y-158635404D01*
X221344204Y-158732534D01*
X221294228Y-158818960D01*
X221243750Y-158898124D01*
X221190122Y-158973466D01*
X221130696Y-159048429D01*
X221062826Y-159126454D01*
X220983863Y-159210984D01*
X220891160Y-159305461D01*
X220782070Y-159413325D01*
X220653944Y-159538020D01*
X220504136Y-159682987D01*
X220329997Y-159851667D01*
X220248673Y-159930697D01*
X220101988Y-160074227D01*
X219958479Y-160216150D01*
X219821892Y-160352661D01*
X219695971Y-160479953D01*
X219584461Y-160594220D01*
X219491105Y-160691656D01*
X219419649Y-160768453D01*
X219378055Y-160815703D01*
X219264934Y-160948710D01*
X219127761Y-161105984D01*
X218970550Y-161283156D01*
X218797311Y-161475856D01*
X218612057Y-161679716D01*
X218418800Y-161890364D01*
X218221551Y-162103433D01*
X218024322Y-162314552D01*
X217831125Y-162519353D01*
X217645973Y-162713465D01*
X217472876Y-162892519D01*
X217444552Y-162921540D01*
X217348757Y-163019821D01*
X217263222Y-163108109D01*
X217191647Y-163182543D01*
X217137726Y-163239264D01*
X217105157Y-163274413D01*
X217096980Y-163284433D01*
X217121621Y-163293212D01*
X217177450Y-163309274D01*
X217256650Y-163330626D01*
X217351401Y-163355276D01*
X217453886Y-163381229D01*
X217556287Y-163406494D01*
X217650785Y-163429077D01*
X217729561Y-163446986D01*
X217759996Y-163453439D01*
X217888747Y-163477716D01*
X217982316Y-163490502D01*
X218043862Y-163492031D01*
X218076546Y-163482538D01*
X218081386Y-163477274D01*
X218100539Y-163458377D01*
X218143878Y-163420821D01*
X218204128Y-163370805D01*
X218247960Y-163335314D01*
X218404316Y-163209885D01*
X218087896Y-163508325D01*
X218155893Y-163520494D01*
X218276416Y-163537926D01*
X218420871Y-163552047D01*
X218583785Y-163562897D01*
X218759684Y-163570515D01*
X218943096Y-163574942D01*
X219128545Y-163576218D01*
X219310560Y-163574383D01*
X219483667Y-163569477D01*
X219642392Y-163561540D01*
X219781262Y-163550611D01*
X219894803Y-163536733D01*
X219977542Y-163519943D01*
X220013392Y-163506897D01*
X220036315Y-163483244D01*
X220076888Y-163428275D01*
X220132948Y-163345531D01*
X220202333Y-163238553D01*
X220282882Y-163110885D01*
X220372433Y-162966066D01*
X220468822Y-162807640D01*
X220569890Y-162639147D01*
X220673473Y-162464130D01*
X220777411Y-162286130D01*
X220879540Y-162108689D01*
X220977699Y-161935349D01*
X221030954Y-161839899D01*
X221115462Y-161690109D01*
X221206224Y-161533722D01*
X221297949Y-161379549D01*
X221385345Y-161236399D01*
X221463122Y-161113083D01*
X221512572Y-161038005D01*
X221586557Y-160925036D01*
X221672479Y-160787784D01*
X221763574Y-160637431D01*
X221853078Y-160485162D01*
X221934227Y-160342158D01*
X221942346Y-160327485D01*
X222041975Y-160151471D01*
X222139947Y-159988793D01*
X222243307Y-159828514D01*
X222359105Y-159659700D01*
X222491422Y-159475473D01*
X222774767Y-159079587D01*
X223042519Y-158688454D01*
X223300903Y-158292427D01*
X223556144Y-157881860D01*
X223814466Y-157447105D01*
X223934503Y-157239031D01*
X224006532Y-157115258D01*
X224072078Y-157008420D01*
X224137047Y-156910144D01*
X224207349Y-156812058D01*
X224288891Y-156705791D01*
X224387581Y-156582972D01*
X224457957Y-156497279D01*
X224555085Y-156379462D01*
X224651697Y-156261944D01*
X224742315Y-156151412D01*
X224821460Y-156054553D01*
X224883655Y-155978057D01*
X224909544Y-155945977D01*
X224971849Y-155869224D01*
X225050735Y-155773251D01*
X225136829Y-155669400D01*
X225220760Y-155569013D01*
X225234636Y-155552517D01*
X225302974Y-155469771D01*
X225360960Y-155396515D01*
X225404066Y-155338716D01*
X225427761Y-155302336D01*
X225430914Y-155294063D01*
X225425566Y-155263958D01*
X225411804Y-155209247D01*
X225393052Y-155141712D01*
X225372735Y-155073138D01*
X225354277Y-155015308D01*
X225341102Y-154980006D01*
X225338176Y-154974930D01*
X225320672Y-154983048D01*
X225283056Y-155012839D01*
X225236407Y-155055120D01*
X225190142Y-155096811D01*
X225168484Y-155110625D01*
X225172683Y-155095787D01*
X225173788Y-155093964D01*
X225201816Y-155045229D01*
X225236297Y-154981222D01*
X225249901Y-154954915D01*
X225277259Y-154903491D01*
X225294037Y-154883523D01*
X225307248Y-154890436D01*
X225318757Y-154909994D01*
X225329547Y-154926396D01*
X225343173Y-154932017D01*
X225364790Y-154923635D01*
X225399551Y-154898025D01*
X225452609Y-154851968D01*
X225529117Y-154782240D01*
X225541980Y-154770417D01*
X225768882Y-154563548D01*
X225971024Y-154383130D01*
X226151391Y-154226674D01*
X226312970Y-154091687D01*
X226458748Y-153975680D01*
X226591710Y-153876162D01*
X226714844Y-153790641D01*
X226723969Y-153784588D01*
X226887173Y-153683532D01*
X227026826Y-153611596D01*
X227142235Y-153569026D01*
X227232704Y-153556069D01*
X227297538Y-153572970D01*
X227305342Y-153578350D01*
X227326743Y-153597095D01*
X227322759Y-153606250D01*
X227287583Y-153609382D01*
X227254137Y-153609822D01*
X227164762Y-153623078D01*
X227076084Y-153665497D01*
X227072136Y-153667981D01*
X227001919Y-153717593D01*
X226910976Y-153789331D01*
X226806696Y-153876736D01*
X226696467Y-153973348D01*
X226587678Y-154072707D01*
X226487719Y-154168355D01*
X226413235Y-154243999D01*
X226351375Y-154309938D01*
X226273012Y-154394476D01*
X226182258Y-154493082D01*
X226083228Y-154601224D01*
X225980035Y-154714369D01*
X225876792Y-154827985D01*
X225777612Y-154937542D01*
X225686610Y-155038507D01*
X225607898Y-155126347D01*
X225545591Y-155196532D01*
X225503801Y-155244530D01*
X225490092Y-155261039D01*
X225445907Y-155317212D01*
X225500129Y-155561429D01*
X225544670Y-155773550D01*
X225579303Y-155967681D01*
X225605339Y-156155155D01*
X225624088Y-156347305D01*
X225636860Y-156555466D01*
X225644967Y-156790971D01*
X225645652Y-156819984D01*
X225648164Y-157145895D01*
X225639428Y-157443401D01*
X225618404Y-157722867D01*
X225584053Y-157994661D01*
X225535336Y-158269150D01*
X225471875Y-158553974D01*
X225333104Y-159042644D01*
X225157670Y-159516823D01*
X224946984Y-159974586D01*
X224702459Y-160414005D01*
X224425507Y-160833154D01*
X224117539Y-161230108D01*
X223779967Y-161602941D01*
X223414203Y-161949726D01*
X223021659Y-162268537D01*
X222603747Y-162557448D01*
X222481845Y-162633046D01*
X222065805Y-162864005D01*
X221630599Y-163066039D01*
X221182896Y-163236636D01*
X220729364Y-163373282D01*
X220276672Y-163473467D01*
X220228626Y-163481912D01*
X220123241Y-163503362D01*
X220055244Y-163525486D01*
X220022447Y-163548416D01*
X220004261Y-163574349D01*
X219966797Y-163628366D01*
X219913481Y-163705504D01*
X219847742Y-163800800D01*
X219773005Y-163909293D01*
X219714037Y-163994990D01*
X219494034Y-164307328D01*
X219287073Y-164585115D01*
X219090898Y-164830862D01*
X218903250Y-165047079D01*
X218721873Y-165236275D01*
X218544510Y-165400962D01*
X218368902Y-165543649D01*
X218236372Y-165638152D01*
X218119567Y-165709470D01*
X217985100Y-165780152D01*
X217845727Y-165844296D01*
X217714202Y-165895996D01*
X217611422Y-165927416D01*
X217447019Y-165956605D01*
X217269119Y-165969585D01*
X217095198Y-165965757D01*
X216967057Y-165949514D01*
X216729488Y-165884122D01*
X216501800Y-165779947D01*
X216284301Y-165637139D01*
X216209012Y-165576686D01*
X216150899Y-165531432D01*
X216103595Y-165507942D01*
X216049813Y-165499373D01*
X216011589Y-165498542D01*
X215742930Y-165482796D01*
X215470328Y-165437325D01*
X215405496Y-165419729D01*
X216887048Y-165419729D01*
X216914802Y-165437137D01*
X216940859Y-165445275D01*
X216978883Y-165449649D01*
X217044650Y-165451793D01*
X217125857Y-165451388D01*
X217151356Y-165450723D01*
X217268299Y-165442279D01*
X217364794Y-165422855D01*
X217447632Y-165393881D01*
X217583144Y-165332008D01*
X217704417Y-165261152D01*
X217822264Y-165173888D01*
X217947496Y-165062788D01*
X217991893Y-165020013D01*
X218057412Y-164954744D01*
X218106110Y-164903955D01*
X218134380Y-164871608D01*
X218138614Y-164861667D01*
X218133677Y-164864261D01*
X217926469Y-164992954D01*
X217747431Y-165095580D01*
X217595035Y-165173013D01*
X217587741Y-165176399D01*
X217480157Y-165222511D01*
X217356942Y-165269635D01*
X217229241Y-165314021D01*
X217108201Y-165351923D01*
X217004966Y-165379591D01*
X216950633Y-165390647D01*
X216899065Y-165403821D01*
X216887048Y-165419729D01*
X215405496Y-165419729D01*
X215203016Y-165364775D01*
X214950231Y-165267794D01*
X214721210Y-165149030D01*
X214661524Y-165111527D01*
X214592491Y-165071361D01*
X214524635Y-165040141D01*
X214485058Y-165027648D01*
X214432859Y-165012140D01*
X214359493Y-164984128D01*
X214279551Y-164949247D01*
X214267891Y-164943769D01*
X214107521Y-164845773D01*
X214107261Y-164845529D01*
X216059527Y-164845529D01*
X216066177Y-164861423D01*
X216084916Y-164882913D01*
X216089338Y-164887621D01*
X216114418Y-164912352D01*
X216139343Y-164927643D01*
X216171865Y-164933725D01*
X216219736Y-164930835D01*
X216290710Y-164919204D01*
X216392538Y-164899069D01*
X216402386Y-164897070D01*
X216484309Y-164878803D01*
X216578165Y-164855304D01*
X216676696Y-164828720D01*
X216772647Y-164801195D01*
X216858762Y-164774877D01*
X216927786Y-164751911D01*
X216972463Y-164734443D01*
X216985537Y-164724619D01*
X216985521Y-164724604D01*
X216963838Y-164724521D01*
X216912302Y-164730607D01*
X216840468Y-164741648D01*
X216809871Y-164746886D01*
X216722412Y-164760192D01*
X216609664Y-164774382D01*
X216486348Y-164787733D01*
X216370203Y-164798285D01*
X216246727Y-164808362D01*
X216158566Y-164816648D01*
X216101076Y-164824619D01*
X216069612Y-164833754D01*
X216059527Y-164845529D01*
X214107261Y-164845529D01*
X213968468Y-164715286D01*
X213852073Y-164554581D01*
X213759680Y-164365931D01*
X213692629Y-164151610D01*
X213652263Y-163913891D01*
X213650632Y-163898057D01*
X213636526Y-163811851D01*
X213611752Y-163709630D01*
X213581426Y-163612236D01*
X213578470Y-163604067D01*
X213500000Y-163362547D01*
X213489904Y-163323404D01*
X213880562Y-163323404D01*
X213889307Y-163466796D01*
X213898168Y-163554117D01*
X213916212Y-163625708D01*
X213949208Y-163700613D01*
X213974338Y-163747459D01*
X214144926Y-164023385D01*
X214330140Y-164263078D01*
X214531254Y-164468115D01*
X214615366Y-164539911D01*
X214735650Y-164637355D01*
X214865958Y-164624929D01*
X214933835Y-164617428D01*
X214983916Y-164609965D01*
X215004619Y-164604457D01*
X215008914Y-164599060D01*
X215005087Y-164591942D01*
X214986837Y-164578642D01*
X214947861Y-164554696D01*
X214881857Y-164515643D01*
X214865958Y-164506275D01*
X214646854Y-164358640D01*
X214450115Y-164186005D01*
X214272540Y-163984798D01*
X214110925Y-163751448D01*
X213980208Y-163518328D01*
X213880562Y-163323404D01*
X213489904Y-163323404D01*
X213428684Y-163086068D01*
X213365486Y-162779288D01*
X213311370Y-162446862D01*
X213269142Y-162110539D01*
X213259931Y-162005573D01*
X213252203Y-161877861D01*
X213246000Y-161733484D01*
X213241364Y-161578526D01*
X213238339Y-161419066D01*
X213236967Y-161261188D01*
X213237290Y-161110973D01*
X213239352Y-160974503D01*
X213243194Y-160857861D01*
X213248859Y-160767127D01*
X213256390Y-160708385D01*
X213259245Y-160697200D01*
X213270295Y-160666873D01*
X213276434Y-160665337D01*
X213279389Y-160696642D01*
X213280608Y-160747319D01*
X213287116Y-160906594D01*
X213301144Y-161095738D01*
X213321506Y-161305477D01*
X213347017Y-161526543D01*
X213376490Y-161749662D01*
X213408741Y-161965566D01*
X213442584Y-162164981D01*
X213476834Y-162338639D01*
X213493416Y-162411564D01*
X213524047Y-162533659D01*
X213556512Y-162654077D01*
X213588957Y-162766857D01*
X213619530Y-162866041D01*
X213646374Y-162945668D01*
X213667636Y-162999781D01*
X213681461Y-163022418D01*
X213683500Y-163022485D01*
X213701915Y-162990033D01*
X213711120Y-162926283D01*
X213711129Y-162838958D01*
X213701958Y-162735780D01*
X213683621Y-162624470D01*
X213682730Y-162620117D01*
X213653690Y-162470699D01*
X213630093Y-162327685D01*
X213611380Y-162184269D01*
X213596993Y-162033645D01*
X213586373Y-161869006D01*
X213578962Y-161683546D01*
X213574202Y-161470458D01*
X213571871Y-161268550D01*
X213568747Y-160878131D01*
X213684145Y-160878131D01*
X213686070Y-160956029D01*
X213690047Y-161053022D01*
X213695727Y-161162151D01*
X213702760Y-161276457D01*
X213710798Y-161388978D01*
X213719493Y-161492757D01*
X213725014Y-161549213D01*
X213736150Y-161643311D01*
X213750947Y-161751212D01*
X213768088Y-161865044D01*
X213786256Y-161976937D01*
X213804136Y-162079018D01*
X213820411Y-162163418D01*
X213833765Y-162222264D01*
X213841483Y-162245695D01*
X213852307Y-162237553D01*
X213872162Y-162197399D01*
X213898334Y-162131557D01*
X213928110Y-162046351D01*
X213931773Y-162035198D01*
X213976874Y-161900700D01*
X214017207Y-161787757D01*
X214051245Y-161700209D01*
X214077463Y-161641897D01*
X214094335Y-161616661D01*
X214098061Y-161616622D01*
X214097387Y-161638329D01*
X214089402Y-161691427D01*
X214075428Y-161768154D01*
X214056790Y-161860747D01*
X214054911Y-161869678D01*
X214029314Y-161996071D01*
X214002052Y-162139090D01*
X213977088Y-162277576D01*
X213964246Y-162353468D01*
X213925218Y-162592690D01*
X213986137Y-162767597D01*
X214037112Y-162901721D01*
X214100146Y-163048799D01*
X214169929Y-163197783D01*
X214241154Y-163337626D01*
X214308511Y-163457284D01*
X214346115Y-163516655D01*
X214441713Y-163643266D01*
X214557724Y-163773695D01*
X214681993Y-163895321D01*
X214802364Y-163995523D01*
X214819042Y-164007717D01*
X214879717Y-164047615D01*
X214954434Y-164091573D01*
X215035188Y-164135542D01*
X215113972Y-164175474D01*
X215182780Y-164207320D01*
X215233605Y-164227032D01*
X215258442Y-164230559D01*
X215258929Y-164230170D01*
X215255238Y-164209328D01*
X215237903Y-164161744D01*
X215210450Y-164096908D01*
X215204351Y-164083355D01*
X215145164Y-163947149D01*
X215078583Y-163784110D01*
X215008968Y-163605739D01*
X214940677Y-163423537D01*
X214878068Y-163249005D01*
X214825500Y-163093645D01*
X214806179Y-163032717D01*
X214772770Y-162921045D01*
X214736724Y-162794832D01*
X214699663Y-162660378D01*
X214663208Y-162523986D01*
X214628983Y-162391956D01*
X214598609Y-162270589D01*
X214573709Y-162166186D01*
X214555904Y-162085049D01*
X214546817Y-162033479D01*
X214545992Y-162022052D01*
X214553301Y-162029733D01*
X214573690Y-162070710D01*
X214605436Y-162141018D01*
X214646814Y-162236692D01*
X214696102Y-162353766D01*
X214751575Y-162488274D01*
X214793566Y-162591675D01*
X214881604Y-162808039D01*
X214959009Y-162993799D01*
X215029050Y-163155959D01*
X215094999Y-163301521D01*
X215160124Y-163437490D01*
X215227695Y-163570868D01*
X215300983Y-163708660D01*
X215383256Y-163857868D01*
X215392145Y-163873761D01*
X215472104Y-164015527D01*
X215535883Y-164125685D01*
X215586131Y-164208020D01*
X215625500Y-164266322D01*
X215656642Y-164304377D01*
X215682206Y-164325974D01*
X215704844Y-164334900D01*
X215715527Y-164335795D01*
X215751861Y-164325117D01*
X215811729Y-164296295D01*
X215885801Y-164254151D01*
X215941477Y-164219062D01*
X216023195Y-164162836D01*
X216124398Y-164089341D01*
X216233782Y-164006988D01*
X216340041Y-163924188D01*
X216369677Y-163900472D01*
X216388894Y-163884730D01*
X217552304Y-163884730D01*
X217562327Y-163894753D01*
X217572351Y-163884730D01*
X217562327Y-163874706D01*
X217552304Y-163884730D01*
X216388894Y-163884730D01*
X216409585Y-163867781D01*
X217592398Y-163867781D01*
X217607723Y-163863984D01*
X217653530Y-163834612D01*
X217729571Y-163779841D01*
X217835594Y-163699849D01*
X217889362Y-163658497D01*
X217956875Y-163604869D01*
X218009401Y-163560310D01*
X218040772Y-163530239D01*
X218046634Y-163520365D01*
X218028977Y-163528860D01*
X217986990Y-163557193D01*
X217927589Y-163600078D01*
X217857688Y-163652224D01*
X217784202Y-163708344D01*
X217714045Y-163763149D01*
X217654132Y-163811350D01*
X217611379Y-163847659D01*
X217592699Y-163866787D01*
X217592398Y-163867781D01*
X216409585Y-163867781D01*
X216455964Y-163829790D01*
X216550702Y-163750280D01*
X216649300Y-163666008D01*
X216747167Y-163581038D01*
X216839714Y-163499435D01*
X216922350Y-163425265D01*
X216990485Y-163362591D01*
X217039528Y-163315480D01*
X217064889Y-163287996D01*
X217067182Y-163282799D01*
X217047128Y-163274011D01*
X216996871Y-163254371D01*
X216923883Y-163226742D01*
X216835636Y-163193988D01*
X216831126Y-163192330D01*
X216364200Y-163000180D01*
X215913464Y-162773678D01*
X215481627Y-162514823D01*
X215071395Y-162225616D01*
X214685476Y-161908059D01*
X214326578Y-161564152D01*
X213997407Y-161195895D01*
X213814359Y-160962828D01*
X213763736Y-160896388D01*
X213721985Y-160844130D01*
X213694798Y-160813043D01*
X213687843Y-160807461D01*
X213684619Y-160826288D01*
X213684145Y-160878131D01*
X213568747Y-160878131D01*
X213566656Y-160617011D01*
X213432617Y-160396490D01*
X213187957Y-159955715D01*
X212979070Y-159497201D01*
X212805882Y-159020725D01*
X212668317Y-158526065D01*
X212566301Y-158012996D01*
X212517936Y-157660026D01*
X212508590Y-157548382D01*
X212501659Y-157405877D01*
X212497145Y-157241673D01*
X212495047Y-157064932D01*
X212495364Y-156884815D01*
X212498098Y-156710483D01*
X212503248Y-156551098D01*
X212510814Y-156415821D01*
X212517936Y-156336900D01*
X212596602Y-155810419D01*
X212711343Y-155301422D01*
X212862197Y-154809817D01*
X213049200Y-154335514D01*
X213272390Y-153878421D01*
X213531805Y-153438448D01*
X213827482Y-153015503D01*
X213941759Y-152868708D01*
X214043818Y-152747120D01*
X214168137Y-152608438D01*
X214306284Y-152461369D01*
X214449829Y-152314621D01*
X214590341Y-152176901D01*
X214719388Y-152056916D01*
X214775745Y-152007355D01*
X215178938Y-151687304D01*
X215602869Y-151401264D01*
X216046016Y-151149899D01*
X216506860Y-150933872D01*
X216983878Y-150753844D01*
X217475550Y-150610478D01*
X217980356Y-150504438D01*
X218344174Y-150452372D01*
X218493365Y-150438873D01*
X218671200Y-150428902D01*
X218867272Y-150422540D01*
X219071175Y-150419868D01*
X219272503Y-150420965D01*
X219460849Y-150425912D01*
X219625807Y-150434790D01*
X219707394Y-150441846D01*
X220226562Y-150514541D01*
X220729592Y-150623891D01*
X221216912Y-150770072D01*
X221688949Y-150953261D01*
X222146129Y-151173634D01*
X222588881Y-151431368D01*
X223017632Y-151726639D01*
X223245753Y-151903585D01*
X223333259Y-151977693D01*
X223437633Y-152071609D01*
X223552793Y-152179332D01*
X223672654Y-152294860D01*
X223791133Y-152412192D01*
X223902148Y-152525326D01*
X223999614Y-152628261D01*
X224077448Y-152714996D01*
X224117813Y-152763909D01*
X224160226Y-152816745D01*
X224192840Y-152854157D01*
X224208026Y-152867681D01*
X224219114Y-152850592D01*
X224245941Y-152801833D01*
X224286322Y-152725596D01*
X224338069Y-152626075D01*
X224398997Y-152507465D01*
X224466919Y-152373958D01*
X224513318Y-152282100D01*
X224657183Y-151999442D01*
X224795542Y-151733393D01*
X224927196Y-151486027D01*
X225050946Y-151259419D01*
X225165594Y-151055643D01*
X225269941Y-150876774D01*
X225362787Y-150724887D01*
X225442935Y-150602055D01*
X225509186Y-150510354D01*
X225560340Y-150451859D01*
X225580472Y-150435320D01*
X225615284Y-150414666D01*
X225627770Y-150414811D01*
G04 #@! TO.C,U2*
D11*
X184150095Y-120356380D02*
X184150095Y-121165904D01*
X184197714Y-121261142D01*
X184245333Y-121308761D01*
X184340571Y-121356380D01*
X184531047Y-121356380D01*
X184626285Y-121308761D01*
X184673904Y-121261142D01*
X184721523Y-121165904D01*
X184721523Y-120356380D01*
X185150095Y-120451619D02*
X185197714Y-120404000D01*
X185292952Y-120356380D01*
X185531047Y-120356380D01*
X185626285Y-120404000D01*
X185673904Y-120451619D01*
X185721523Y-120546857D01*
X185721523Y-120642095D01*
X185673904Y-120784952D01*
X185102476Y-121356380D01*
X185721523Y-121356380D01*
G04 #@! TO.C,C1*
X181697333Y-118467142D02*
X181649714Y-118514761D01*
X181506857Y-118562380D01*
X181411619Y-118562380D01*
X181268761Y-118514761D01*
X181173523Y-118419523D01*
X181125904Y-118324285D01*
X181078285Y-118133809D01*
X181078285Y-117990952D01*
X181125904Y-117800476D01*
X181173523Y-117705238D01*
X181268761Y-117610000D01*
X181411619Y-117562380D01*
X181506857Y-117562380D01*
X181649714Y-117610000D01*
X181697333Y-117657619D01*
X182649714Y-118562380D02*
X182078285Y-118562380D01*
X182364000Y-118562380D02*
X182364000Y-117562380D01*
X182268761Y-117705238D01*
X182173523Y-117800476D01*
X182078285Y-117848095D01*
G04 #@! TO.C,C2*
X180603142Y-135435666D02*
X180650761Y-135483285D01*
X180698380Y-135626142D01*
X180698380Y-135721380D01*
X180650761Y-135864238D01*
X180555523Y-135959476D01*
X180460285Y-136007095D01*
X180269809Y-136054714D01*
X180126952Y-136054714D01*
X179936476Y-136007095D01*
X179841238Y-135959476D01*
X179746000Y-135864238D01*
X179698380Y-135721380D01*
X179698380Y-135626142D01*
X179746000Y-135483285D01*
X179793619Y-135435666D01*
X179793619Y-135054714D02*
X179746000Y-135007095D01*
X179698380Y-134911857D01*
X179698380Y-134673761D01*
X179746000Y-134578523D01*
X179793619Y-134530904D01*
X179888857Y-134483285D01*
X179984095Y-134483285D01*
X180126952Y-134530904D01*
X180698380Y-135102333D01*
X180698380Y-134483285D01*
G04 #@! TO.C,C3*
X215020142Y-116131666D02*
X215067761Y-116179285D01*
X215115380Y-116322142D01*
X215115380Y-116417380D01*
X215067761Y-116560238D01*
X214972523Y-116655476D01*
X214877285Y-116703095D01*
X214686809Y-116750714D01*
X214543952Y-116750714D01*
X214353476Y-116703095D01*
X214258238Y-116655476D01*
X214163000Y-116560238D01*
X214115380Y-116417380D01*
X214115380Y-116322142D01*
X214163000Y-116179285D01*
X214210619Y-116131666D01*
X214115380Y-115798333D02*
X214115380Y-115179285D01*
X214496333Y-115512619D01*
X214496333Y-115369761D01*
X214543952Y-115274523D01*
X214591571Y-115226904D01*
X214686809Y-115179285D01*
X214924904Y-115179285D01*
X215020142Y-115226904D01*
X215067761Y-115274523D01*
X215115380Y-115369761D01*
X215115380Y-115655476D01*
X215067761Y-115750714D01*
X215020142Y-115798333D01*
G04 #@! TO.C,C4*
X177395142Y-123229666D02*
X177442761Y-123277285D01*
X177490380Y-123420142D01*
X177490380Y-123515380D01*
X177442761Y-123658238D01*
X177347523Y-123753476D01*
X177252285Y-123801095D01*
X177061809Y-123848714D01*
X176918952Y-123848714D01*
X176728476Y-123801095D01*
X176633238Y-123753476D01*
X176538000Y-123658238D01*
X176490380Y-123515380D01*
X176490380Y-123420142D01*
X176538000Y-123277285D01*
X176585619Y-123229666D01*
X176823714Y-122372523D02*
X177490380Y-122372523D01*
X176442761Y-122610619D02*
X177157047Y-122848714D01*
X177157047Y-122229666D01*
G04 #@! TO.C,C5*
X177649142Y-127674666D02*
X177696761Y-127722285D01*
X177744380Y-127865142D01*
X177744380Y-127960380D01*
X177696761Y-128103238D01*
X177601523Y-128198476D01*
X177506285Y-128246095D01*
X177315809Y-128293714D01*
X177172952Y-128293714D01*
X176982476Y-128246095D01*
X176887238Y-128198476D01*
X176792000Y-128103238D01*
X176744380Y-127960380D01*
X176744380Y-127865142D01*
X176792000Y-127722285D01*
X176839619Y-127674666D01*
X176744380Y-126769904D02*
X176744380Y-127246095D01*
X177220571Y-127293714D01*
X177172952Y-127246095D01*
X177125333Y-127150857D01*
X177125333Y-126912761D01*
X177172952Y-126817523D01*
X177220571Y-126769904D01*
X177315809Y-126722285D01*
X177553904Y-126722285D01*
X177649142Y-126769904D01*
X177696761Y-126817523D01*
X177744380Y-126912761D01*
X177744380Y-127150857D01*
X177696761Y-127246095D01*
X177649142Y-127293714D01*
G04 #@! TO.C,U1*
X175824715Y-101289381D02*
X175253286Y-101289381D01*
X175539001Y-101289381D02*
X175539001Y-100289381D01*
X175443762Y-100432239D01*
X175348524Y-100527477D01*
X175253286Y-100575096D01*
X198208524Y-101289381D02*
X197637096Y-101289381D01*
X197922810Y-101289381D02*
X197922810Y-100289381D01*
X197827572Y-100432239D01*
X197732334Y-100527477D01*
X197637096Y-100575096D01*
X198827572Y-100289381D02*
X198922810Y-100289381D01*
X199018048Y-100337001D01*
X199065667Y-100384620D01*
X199113286Y-100479858D01*
X199160905Y-100670334D01*
X199160905Y-100908429D01*
X199113286Y-101098905D01*
X199065667Y-101194143D01*
X199018048Y-101241762D01*
X198922810Y-101289381D01*
X198827572Y-101289381D01*
X198732334Y-101241762D01*
X198684715Y-101194143D01*
X198637096Y-101098905D01*
X198589477Y-100908429D01*
X198589477Y-100670334D01*
X198637096Y-100479858D01*
X198684715Y-100384620D01*
X198732334Y-100337001D01*
X198827572Y-100289381D01*
X198208524Y-137865381D02*
X197637096Y-137865381D01*
X197922810Y-137865381D02*
X197922810Y-136865381D01*
X197827572Y-137008239D01*
X197732334Y-137103477D01*
X197637096Y-137151096D01*
X198827572Y-136865381D02*
X198922810Y-136865381D01*
X199018048Y-136913001D01*
X199065667Y-136960620D01*
X199113286Y-137055858D01*
X199160905Y-137246334D01*
X199160905Y-137484429D01*
X199113286Y-137674905D01*
X199065667Y-137770143D01*
X199018048Y-137817762D01*
X198922810Y-137865381D01*
X198827572Y-137865381D01*
X198732334Y-137817762D01*
X198684715Y-137770143D01*
X198637096Y-137674905D01*
X198589477Y-137484429D01*
X198589477Y-137246334D01*
X198637096Y-137055858D01*
X198684715Y-136960620D01*
X198732334Y-136913001D01*
X198827572Y-136865381D01*
X175824715Y-137865381D02*
X175253286Y-137865381D01*
X175539001Y-137865381D02*
X175539001Y-136865381D01*
X175443762Y-137008239D01*
X175348524Y-137103477D01*
X175253286Y-137151096D01*
X197589477Y-101559381D02*
X198256143Y-102559381D01*
X198256143Y-101559381D02*
X197589477Y-102559381D01*
X198541858Y-101559381D02*
X199208524Y-101559381D01*
X198779953Y-102559381D01*
X197589477Y-135595381D02*
X198256143Y-136595381D01*
X198256143Y-135595381D02*
X197589477Y-136595381D01*
X199065667Y-135595381D02*
X198875191Y-135595381D01*
X198779953Y-135643001D01*
X198732334Y-135690620D01*
X198637096Y-135833477D01*
X198589477Y-136023953D01*
X198589477Y-136404905D01*
X198637096Y-136500143D01*
X198684715Y-136547762D01*
X198779953Y-136595381D01*
X198970429Y-136595381D01*
X199065667Y-136547762D01*
X199113286Y-136500143D01*
X199160905Y-136404905D01*
X199160905Y-136166810D01*
X199113286Y-136071572D01*
X199065667Y-136023953D01*
X198970429Y-135976334D01*
X198779953Y-135976334D01*
X198684715Y-136023953D01*
X198637096Y-136071572D01*
X198589477Y-136166810D01*
X200518334Y-99162143D02*
X200470715Y-99209762D01*
X200327858Y-99257381D01*
X200232620Y-99257381D01*
X200089762Y-99209762D01*
X199994524Y-99114524D01*
X199946905Y-99019286D01*
X199899286Y-98828810D01*
X199899286Y-98685953D01*
X199946905Y-98495477D01*
X199994524Y-98400239D01*
X200089762Y-98305001D01*
X200232620Y-98257381D01*
X200327858Y-98257381D01*
X200470715Y-98305001D01*
X200518334Y-98352620D01*
X200899286Y-98352620D02*
X200946905Y-98305001D01*
X201042143Y-98257381D01*
X201280239Y-98257381D01*
X201375477Y-98305001D01*
X201423096Y-98352620D01*
X201470715Y-98447858D01*
X201470715Y-98543096D01*
X201423096Y-98685953D01*
X200851667Y-99257381D01*
X201470715Y-99257381D01*
X199946905Y-96463381D02*
X199946905Y-95463381D01*
X200185001Y-95463381D01*
X200327858Y-95511001D01*
X200423096Y-95606239D01*
X200470715Y-95701477D01*
X200518334Y-95891953D01*
X200518334Y-96034810D01*
X200470715Y-96225286D01*
X200423096Y-96320524D01*
X200327858Y-96415762D01*
X200185001Y-96463381D01*
X199946905Y-96463381D01*
X200899286Y-95558620D02*
X200946905Y-95511001D01*
X201042143Y-95463381D01*
X201280239Y-95463381D01*
X201375477Y-95511001D01*
X201423096Y-95558620D01*
X201470715Y-95653858D01*
X201470715Y-95749096D01*
X201423096Y-95891953D01*
X200851667Y-96463381D01*
X201470715Y-96463381D01*
X201042239Y-139119572D02*
X201185096Y-139167191D01*
X201232715Y-139214810D01*
X201280334Y-139310048D01*
X201280334Y-139452905D01*
X201232715Y-139548143D01*
X201185096Y-139595762D01*
X201089858Y-139643381D01*
X200708905Y-139643381D01*
X200708905Y-138643381D01*
X201042239Y-138643381D01*
X201137477Y-138691001D01*
X201185096Y-138738620D01*
X201232715Y-138833858D01*
X201232715Y-138929096D01*
X201185096Y-139024334D01*
X201137477Y-139071953D01*
X201042239Y-139119572D01*
X200708905Y-139119572D01*
X201661286Y-138738620D02*
X201708905Y-138691001D01*
X201804143Y-138643381D01*
X202042239Y-138643381D01*
X202137477Y-138691001D01*
X202185096Y-138738620D01*
X202232715Y-138833858D01*
X202232715Y-138929096D01*
X202185096Y-139071953D01*
X201613667Y-139643381D01*
X202232715Y-139643381D01*
X200732715Y-142151667D02*
X201208905Y-142151667D01*
X200637477Y-142437381D02*
X200970810Y-141437381D01*
X201304143Y-142437381D01*
X201589858Y-141532620D02*
X201637477Y-141485001D01*
X201732715Y-141437381D01*
X201970810Y-141437381D01*
X202066048Y-141485001D01*
X202113667Y-141532620D01*
X202161286Y-141627858D01*
X202161286Y-141723096D01*
X202113667Y-141865953D01*
X201542239Y-142437381D01*
X202161286Y-142437381D01*
G04 #@! TO.C,U3*
X223988380Y-115133333D02*
X223988380Y-114942857D01*
X224036000Y-114847619D01*
X224131238Y-114752380D01*
X224321714Y-114704761D01*
X224655047Y-114704761D01*
X224845523Y-114752380D01*
X224940761Y-114847619D01*
X224988380Y-114942857D01*
X224988380Y-115133333D01*
X224940761Y-115228571D01*
X224845523Y-115323809D01*
X224655047Y-115371428D01*
X224321714Y-115371428D01*
X224131238Y-115323809D01*
X224036000Y-115228571D01*
X223988380Y-115133333D01*
X224988380Y-114276190D02*
X223988380Y-114276190D01*
X224988380Y-113704761D02*
X224416952Y-114133333D01*
X223988380Y-113704761D02*
X224559809Y-114276190D01*
X224988380Y-113276190D02*
X223988380Y-113276190D01*
G04 #@! TD*
M02*
