M48
;DRILL file {KiCad (5.0.0)} date 09/29/18 13:07:31
;FORMAT={-:-/ absolute / inch / decimal}
FMAT,2
INCH,TZ
T1C0.0157
T2C0.0300
T3C0.0350
T4C0.0394
T5C0.1598
%
G90
G05
M72
T1
X4.755Y-2.875
X4.795Y-4.415
X4.87Y-4.355
X4.8723Y-4.06
X4.96Y-3.95
X5.16Y-4.735
X5.39Y-4.
X5.435Y-4.045
X5.475Y-3.9
X5.545Y-3.525
X5.6894Y-4.08
T2
X4.605Y-2.48
X4.705Y-2.48
X4.805Y-2.48
X4.905Y-2.48
X5.005Y-2.48
X5.375Y-2.48
X5.475Y-2.48
X5.575Y-2.48
X5.675Y-2.48
X5.775Y-2.48
T3
X6.315Y-3.45
X6.415Y-3.45
X6.515Y-3.45
T4
X4.525Y-3.1
X4.525Y-3.2
X4.525Y-4.8
X4.525Y-4.9
X4.625Y-3.1
X4.625Y-3.2
X4.625Y-4.8
X4.625Y-4.9
X4.725Y-3.1
X4.725Y-3.2
X4.725Y-4.8
X4.725Y-4.9
X4.825Y-3.1
X4.825Y-3.2
X4.825Y-4.8
X4.825Y-4.9
X4.925Y-3.1
X4.925Y-3.2
X4.925Y-4.8
X4.925Y-4.9
X5.025Y-3.1
X5.025Y-3.2
X5.025Y-4.8
X5.025Y-4.9
X5.125Y-3.1
X5.125Y-3.2
X5.125Y-4.8
X5.125Y-4.9
X5.225Y-3.1
X5.225Y-3.2
X5.225Y-4.8
X5.225Y-4.9
X5.325Y-3.1
X5.325Y-3.2
X5.325Y-4.8
X5.325Y-4.9
X5.425Y-3.1
X5.425Y-3.2
X5.425Y-4.8
X5.425Y-4.9
T5
X6.405Y-2.731
X6.72Y-2.731
T0
M30
