G04 #@! TF.GenerationSoftware,KiCad,Pcbnew,(5.0.0)*
G04 #@! TF.CreationDate,2018-10-03T21:49:54-05:00*
G04 #@! TF.ProjectId,DriveBoard_Hardware,4472697665426F6172645F4861726477,rev?*
G04 #@! TF.SameCoordinates,Original*
G04 #@! TF.FileFunction,Soldermask,Bot*
G04 #@! TF.FilePolarity,Negative*
%FSLAX46Y46*%
G04 Gerber Fmt 4.6, Leading zero omitted, Abs format (unit mm)*
G04 Created by KiCad (PCBNEW (5.0.0)) date 10/03/18 21:49:54*
%MOMM*%
%LPD*%
G01*
G04 APERTURE LIST*
%ADD10C,1.920000*%
%ADD11C,5.480000*%
%ADD12C,1.924000*%
%ADD13C,3.850000*%
G04 APERTURE END LIST*
D10*
G04 #@! TO.C,U1*
X118389001Y-111505001D03*
X141249001Y-65785001D03*
X138709001Y-65785001D03*
X131089001Y-65785001D03*
X128549001Y-108965001D03*
X133629001Y-65785001D03*
X136169001Y-65785001D03*
X133629001Y-111505001D03*
X138709001Y-108965001D03*
X128549001Y-65785001D03*
X126009001Y-65785001D03*
X138709001Y-111505001D03*
X133629001Y-108965001D03*
X131089001Y-108965001D03*
X118389001Y-108965001D03*
X120929001Y-108965001D03*
X123469001Y-108965001D03*
X126009001Y-108965001D03*
X136169001Y-108965001D03*
X141249001Y-108965001D03*
X120929001Y-111505001D03*
X123469001Y-111505001D03*
X126009001Y-111505001D03*
X128549001Y-111505001D03*
X131089001Y-111505001D03*
X136169001Y-111505001D03*
X141249001Y-111505001D03*
X118389001Y-68325001D03*
X120929001Y-68325001D03*
X123469001Y-68325001D03*
X126009001Y-68325001D03*
X128549001Y-68325001D03*
X131089001Y-68325001D03*
X133629001Y-68325001D03*
X136169001Y-68325001D03*
X138709001Y-68325001D03*
X141249001Y-68325001D03*
X118389001Y-65785001D03*
X120929001Y-65785001D03*
X123469001Y-65785001D03*
G04 #@! TD*
D11*
G04 #@! TO.C,Conn1*
X136677400Y-58675000D03*
X136677400Y-50674000D03*
G04 #@! TD*
D12*
G04 #@! TO.C,Conn2*
X129032000Y-101600000D03*
X129032000Y-99060000D03*
X129032000Y-96520000D03*
X129032000Y-93980000D03*
X129032000Y-91440000D03*
D13*
X120396000Y-102870000D03*
X120396000Y-90170000D03*
G04 #@! TD*
G04 #@! TO.C,Conn3*
X120396000Y-73406000D03*
X120396000Y-86106000D03*
D12*
X129032000Y-74676000D03*
X129032000Y-77216000D03*
X129032000Y-79756000D03*
X129032000Y-82296000D03*
X129032000Y-84836000D03*
G04 #@! TD*
G04 #@! TO.C,U3*
X162560000Y-62230000D03*
X160020000Y-62230000D03*
X157480000Y-62230000D03*
G04 #@! TD*
M02*
