G04 #@! TF.GenerationSoftware,KiCad,Pcbnew,(5.0.0)*
G04 #@! TF.CreationDate,2018-09-29T14:24:20-05:00*
G04 #@! TF.ProjectId,DriveBoard_Hardware,4472697665426F6172645F4861726477,rev?*
G04 #@! TF.SameCoordinates,Original*
G04 #@! TF.FileFunction,Paste,Top*
G04 #@! TF.FilePolarity,Positive*
%FSLAX46Y46*%
G04 Gerber Fmt 4.6, Leading zero omitted, Abs format (unit mm)*
G04 Created by KiCad (PCBNEW (5.0.0)) date 09/29/18 14:24:20*
%MOMM*%
%LPD*%
G01*
G04 APERTURE LIST*
%ADD10C,5.080000*%
%ADD11C,1.520000*%
%ADD12R,1.500000X0.600000*%
%ADD13C,0.100000*%
%ADD14C,0.950000*%
G04 APERTURE END LIST*
D10*
G04 #@! TO.C,Conn1*
X129540000Y-92329000D03*
X129540000Y-100330000D03*
G04 #@! TD*
D11*
G04 #@! TO.C,U1*
X88900000Y-126238000D03*
X111760000Y-80518000D03*
X109220000Y-80518000D03*
X101600000Y-80518000D03*
X99060000Y-123698000D03*
X104140000Y-80518000D03*
X106680000Y-80518000D03*
X104140000Y-126238000D03*
X109220000Y-123698000D03*
X99060000Y-80518000D03*
X96520000Y-80518000D03*
X109220000Y-126238000D03*
X104140000Y-123698000D03*
X101600000Y-123698000D03*
X88900000Y-123698000D03*
X91440000Y-123698000D03*
X93980000Y-123698000D03*
X96520000Y-123698000D03*
X106680000Y-123698000D03*
X111760000Y-123698000D03*
X91440000Y-126238000D03*
X93980000Y-126238000D03*
X96520000Y-126238000D03*
X99060000Y-126238000D03*
X101600000Y-126238000D03*
X106680000Y-126238000D03*
X111760000Y-126238000D03*
X88900000Y-83058000D03*
X91440000Y-83058000D03*
X93980000Y-83058000D03*
X96520000Y-83058000D03*
X99060000Y-83058000D03*
X101600000Y-83058000D03*
X104140000Y-83058000D03*
X106680000Y-83058000D03*
X109220000Y-83058000D03*
X111760000Y-83058000D03*
X88900000Y-80518000D03*
X91440000Y-80518000D03*
X93980000Y-80518000D03*
G04 #@! TD*
D12*
G04 #@! TO.C,U2*
X99007001Y-100330000D03*
X99007001Y-101600000D03*
X99007001Y-102870000D03*
X99007001Y-104140000D03*
X99007001Y-105410000D03*
X99007001Y-106680000D03*
X99007001Y-107950000D03*
X99007001Y-109220000D03*
X104407001Y-109220000D03*
X104407001Y-107950000D03*
X104407001Y-106680000D03*
X104407001Y-105410000D03*
X104407001Y-104140000D03*
X104407001Y-102870000D03*
X104407001Y-101600000D03*
X104407001Y-100330000D03*
G04 #@! TD*
D13*
G04 #@! TO.C,C1*
G36*
X96755779Y-101126144D02*
X96778834Y-101129563D01*
X96801443Y-101135227D01*
X96823387Y-101143079D01*
X96844457Y-101153044D01*
X96864448Y-101165026D01*
X96883168Y-101178910D01*
X96900438Y-101194562D01*
X96916090Y-101211832D01*
X96929974Y-101230552D01*
X96941956Y-101250543D01*
X96951921Y-101271613D01*
X96959773Y-101293557D01*
X96965437Y-101316166D01*
X96968856Y-101339221D01*
X96970000Y-101362500D01*
X96970000Y-101837500D01*
X96968856Y-101860779D01*
X96965437Y-101883834D01*
X96959773Y-101906443D01*
X96951921Y-101928387D01*
X96941956Y-101949457D01*
X96929974Y-101969448D01*
X96916090Y-101988168D01*
X96900438Y-102005438D01*
X96883168Y-102021090D01*
X96864448Y-102034974D01*
X96844457Y-102046956D01*
X96823387Y-102056921D01*
X96801443Y-102064773D01*
X96778834Y-102070437D01*
X96755779Y-102073856D01*
X96732500Y-102075000D01*
X96157500Y-102075000D01*
X96134221Y-102073856D01*
X96111166Y-102070437D01*
X96088557Y-102064773D01*
X96066613Y-102056921D01*
X96045543Y-102046956D01*
X96025552Y-102034974D01*
X96006832Y-102021090D01*
X95989562Y-102005438D01*
X95973910Y-101988168D01*
X95960026Y-101969448D01*
X95948044Y-101949457D01*
X95938079Y-101928387D01*
X95930227Y-101906443D01*
X95924563Y-101883834D01*
X95921144Y-101860779D01*
X95920000Y-101837500D01*
X95920000Y-101362500D01*
X95921144Y-101339221D01*
X95924563Y-101316166D01*
X95930227Y-101293557D01*
X95938079Y-101271613D01*
X95948044Y-101250543D01*
X95960026Y-101230552D01*
X95973910Y-101211832D01*
X95989562Y-101194562D01*
X96006832Y-101178910D01*
X96025552Y-101165026D01*
X96045543Y-101153044D01*
X96066613Y-101143079D01*
X96088557Y-101135227D01*
X96111166Y-101129563D01*
X96134221Y-101126144D01*
X96157500Y-101125000D01*
X96732500Y-101125000D01*
X96755779Y-101126144D01*
X96755779Y-101126144D01*
G37*
D14*
X96445000Y-101600000D03*
D13*
G36*
X95005779Y-101126144D02*
X95028834Y-101129563D01*
X95051443Y-101135227D01*
X95073387Y-101143079D01*
X95094457Y-101153044D01*
X95114448Y-101165026D01*
X95133168Y-101178910D01*
X95150438Y-101194562D01*
X95166090Y-101211832D01*
X95179974Y-101230552D01*
X95191956Y-101250543D01*
X95201921Y-101271613D01*
X95209773Y-101293557D01*
X95215437Y-101316166D01*
X95218856Y-101339221D01*
X95220000Y-101362500D01*
X95220000Y-101837500D01*
X95218856Y-101860779D01*
X95215437Y-101883834D01*
X95209773Y-101906443D01*
X95201921Y-101928387D01*
X95191956Y-101949457D01*
X95179974Y-101969448D01*
X95166090Y-101988168D01*
X95150438Y-102005438D01*
X95133168Y-102021090D01*
X95114448Y-102034974D01*
X95094457Y-102046956D01*
X95073387Y-102056921D01*
X95051443Y-102064773D01*
X95028834Y-102070437D01*
X95005779Y-102073856D01*
X94982500Y-102075000D01*
X94407500Y-102075000D01*
X94384221Y-102073856D01*
X94361166Y-102070437D01*
X94338557Y-102064773D01*
X94316613Y-102056921D01*
X94295543Y-102046956D01*
X94275552Y-102034974D01*
X94256832Y-102021090D01*
X94239562Y-102005438D01*
X94223910Y-101988168D01*
X94210026Y-101969448D01*
X94198044Y-101949457D01*
X94188079Y-101928387D01*
X94180227Y-101906443D01*
X94174563Y-101883834D01*
X94171144Y-101860779D01*
X94170000Y-101837500D01*
X94170000Y-101362500D01*
X94171144Y-101339221D01*
X94174563Y-101316166D01*
X94180227Y-101293557D01*
X94188079Y-101271613D01*
X94198044Y-101250543D01*
X94210026Y-101230552D01*
X94223910Y-101211832D01*
X94239562Y-101194562D01*
X94256832Y-101178910D01*
X94275552Y-101165026D01*
X94295543Y-101153044D01*
X94316613Y-101143079D01*
X94338557Y-101135227D01*
X94361166Y-101129563D01*
X94384221Y-101126144D01*
X94407500Y-101125000D01*
X94982500Y-101125000D01*
X95005779Y-101126144D01*
X95005779Y-101126144D01*
G37*
D14*
X94695000Y-101600000D03*
G04 #@! TD*
D13*
G04 #@! TO.C,C2*
G36*
X95005779Y-106206144D02*
X95028834Y-106209563D01*
X95051443Y-106215227D01*
X95073387Y-106223079D01*
X95094457Y-106233044D01*
X95114448Y-106245026D01*
X95133168Y-106258910D01*
X95150438Y-106274562D01*
X95166090Y-106291832D01*
X95179974Y-106310552D01*
X95191956Y-106330543D01*
X95201921Y-106351613D01*
X95209773Y-106373557D01*
X95215437Y-106396166D01*
X95218856Y-106419221D01*
X95220000Y-106442500D01*
X95220000Y-106917500D01*
X95218856Y-106940779D01*
X95215437Y-106963834D01*
X95209773Y-106986443D01*
X95201921Y-107008387D01*
X95191956Y-107029457D01*
X95179974Y-107049448D01*
X95166090Y-107068168D01*
X95150438Y-107085438D01*
X95133168Y-107101090D01*
X95114448Y-107114974D01*
X95094457Y-107126956D01*
X95073387Y-107136921D01*
X95051443Y-107144773D01*
X95028834Y-107150437D01*
X95005779Y-107153856D01*
X94982500Y-107155000D01*
X94407500Y-107155000D01*
X94384221Y-107153856D01*
X94361166Y-107150437D01*
X94338557Y-107144773D01*
X94316613Y-107136921D01*
X94295543Y-107126956D01*
X94275552Y-107114974D01*
X94256832Y-107101090D01*
X94239562Y-107085438D01*
X94223910Y-107068168D01*
X94210026Y-107049448D01*
X94198044Y-107029457D01*
X94188079Y-107008387D01*
X94180227Y-106986443D01*
X94174563Y-106963834D01*
X94171144Y-106940779D01*
X94170000Y-106917500D01*
X94170000Y-106442500D01*
X94171144Y-106419221D01*
X94174563Y-106396166D01*
X94180227Y-106373557D01*
X94188079Y-106351613D01*
X94198044Y-106330543D01*
X94210026Y-106310552D01*
X94223910Y-106291832D01*
X94239562Y-106274562D01*
X94256832Y-106258910D01*
X94275552Y-106245026D01*
X94295543Y-106233044D01*
X94316613Y-106223079D01*
X94338557Y-106215227D01*
X94361166Y-106209563D01*
X94384221Y-106206144D01*
X94407500Y-106205000D01*
X94982500Y-106205000D01*
X95005779Y-106206144D01*
X95005779Y-106206144D01*
G37*
D14*
X94695000Y-106680000D03*
D13*
G36*
X96755779Y-106206144D02*
X96778834Y-106209563D01*
X96801443Y-106215227D01*
X96823387Y-106223079D01*
X96844457Y-106233044D01*
X96864448Y-106245026D01*
X96883168Y-106258910D01*
X96900438Y-106274562D01*
X96916090Y-106291832D01*
X96929974Y-106310552D01*
X96941956Y-106330543D01*
X96951921Y-106351613D01*
X96959773Y-106373557D01*
X96965437Y-106396166D01*
X96968856Y-106419221D01*
X96970000Y-106442500D01*
X96970000Y-106917500D01*
X96968856Y-106940779D01*
X96965437Y-106963834D01*
X96959773Y-106986443D01*
X96951921Y-107008387D01*
X96941956Y-107029457D01*
X96929974Y-107049448D01*
X96916090Y-107068168D01*
X96900438Y-107085438D01*
X96883168Y-107101090D01*
X96864448Y-107114974D01*
X96844457Y-107126956D01*
X96823387Y-107136921D01*
X96801443Y-107144773D01*
X96778834Y-107150437D01*
X96755779Y-107153856D01*
X96732500Y-107155000D01*
X96157500Y-107155000D01*
X96134221Y-107153856D01*
X96111166Y-107150437D01*
X96088557Y-107144773D01*
X96066613Y-107136921D01*
X96045543Y-107126956D01*
X96025552Y-107114974D01*
X96006832Y-107101090D01*
X95989562Y-107085438D01*
X95973910Y-107068168D01*
X95960026Y-107049448D01*
X95948044Y-107029457D01*
X95938079Y-107008387D01*
X95930227Y-106986443D01*
X95924563Y-106963834D01*
X95921144Y-106940779D01*
X95920000Y-106917500D01*
X95920000Y-106442500D01*
X95921144Y-106419221D01*
X95924563Y-106396166D01*
X95930227Y-106373557D01*
X95938079Y-106351613D01*
X95948044Y-106330543D01*
X95960026Y-106310552D01*
X95973910Y-106291832D01*
X95989562Y-106274562D01*
X96006832Y-106258910D01*
X96025552Y-106245026D01*
X96045543Y-106233044D01*
X96066613Y-106223079D01*
X96088557Y-106215227D01*
X96111166Y-106209563D01*
X96134221Y-106206144D01*
X96157500Y-106205000D01*
X96732500Y-106205000D01*
X96755779Y-106206144D01*
X96755779Y-106206144D01*
G37*
D14*
X96445000Y-106680000D03*
G04 #@! TD*
D13*
G04 #@! TO.C,C3*
G36*
X124055779Y-102396144D02*
X124078834Y-102399563D01*
X124101443Y-102405227D01*
X124123387Y-102413079D01*
X124144457Y-102423044D01*
X124164448Y-102435026D01*
X124183168Y-102448910D01*
X124200438Y-102464562D01*
X124216090Y-102481832D01*
X124229974Y-102500552D01*
X124241956Y-102520543D01*
X124251921Y-102541613D01*
X124259773Y-102563557D01*
X124265437Y-102586166D01*
X124268856Y-102609221D01*
X124270000Y-102632500D01*
X124270000Y-103107500D01*
X124268856Y-103130779D01*
X124265437Y-103153834D01*
X124259773Y-103176443D01*
X124251921Y-103198387D01*
X124241956Y-103219457D01*
X124229974Y-103239448D01*
X124216090Y-103258168D01*
X124200438Y-103275438D01*
X124183168Y-103291090D01*
X124164448Y-103304974D01*
X124144457Y-103316956D01*
X124123387Y-103326921D01*
X124101443Y-103334773D01*
X124078834Y-103340437D01*
X124055779Y-103343856D01*
X124032500Y-103345000D01*
X123457500Y-103345000D01*
X123434221Y-103343856D01*
X123411166Y-103340437D01*
X123388557Y-103334773D01*
X123366613Y-103326921D01*
X123345543Y-103316956D01*
X123325552Y-103304974D01*
X123306832Y-103291090D01*
X123289562Y-103275438D01*
X123273910Y-103258168D01*
X123260026Y-103239448D01*
X123248044Y-103219457D01*
X123238079Y-103198387D01*
X123230227Y-103176443D01*
X123224563Y-103153834D01*
X123221144Y-103130779D01*
X123220000Y-103107500D01*
X123220000Y-102632500D01*
X123221144Y-102609221D01*
X123224563Y-102586166D01*
X123230227Y-102563557D01*
X123238079Y-102541613D01*
X123248044Y-102520543D01*
X123260026Y-102500552D01*
X123273910Y-102481832D01*
X123289562Y-102464562D01*
X123306832Y-102448910D01*
X123325552Y-102435026D01*
X123345543Y-102423044D01*
X123366613Y-102413079D01*
X123388557Y-102405227D01*
X123411166Y-102399563D01*
X123434221Y-102396144D01*
X123457500Y-102395000D01*
X124032500Y-102395000D01*
X124055779Y-102396144D01*
X124055779Y-102396144D01*
G37*
D14*
X123745000Y-102870000D03*
D13*
G36*
X122305779Y-102396144D02*
X122328834Y-102399563D01*
X122351443Y-102405227D01*
X122373387Y-102413079D01*
X122394457Y-102423044D01*
X122414448Y-102435026D01*
X122433168Y-102448910D01*
X122450438Y-102464562D01*
X122466090Y-102481832D01*
X122479974Y-102500552D01*
X122491956Y-102520543D01*
X122501921Y-102541613D01*
X122509773Y-102563557D01*
X122515437Y-102586166D01*
X122518856Y-102609221D01*
X122520000Y-102632500D01*
X122520000Y-103107500D01*
X122518856Y-103130779D01*
X122515437Y-103153834D01*
X122509773Y-103176443D01*
X122501921Y-103198387D01*
X122491956Y-103219457D01*
X122479974Y-103239448D01*
X122466090Y-103258168D01*
X122450438Y-103275438D01*
X122433168Y-103291090D01*
X122414448Y-103304974D01*
X122394457Y-103316956D01*
X122373387Y-103326921D01*
X122351443Y-103334773D01*
X122328834Y-103340437D01*
X122305779Y-103343856D01*
X122282500Y-103345000D01*
X121707500Y-103345000D01*
X121684221Y-103343856D01*
X121661166Y-103340437D01*
X121638557Y-103334773D01*
X121616613Y-103326921D01*
X121595543Y-103316956D01*
X121575552Y-103304974D01*
X121556832Y-103291090D01*
X121539562Y-103275438D01*
X121523910Y-103258168D01*
X121510026Y-103239448D01*
X121498044Y-103219457D01*
X121488079Y-103198387D01*
X121480227Y-103176443D01*
X121474563Y-103153834D01*
X121471144Y-103130779D01*
X121470000Y-103107500D01*
X121470000Y-102632500D01*
X121471144Y-102609221D01*
X121474563Y-102586166D01*
X121480227Y-102563557D01*
X121488079Y-102541613D01*
X121498044Y-102520543D01*
X121510026Y-102500552D01*
X121523910Y-102481832D01*
X121539562Y-102464562D01*
X121556832Y-102448910D01*
X121575552Y-102435026D01*
X121595543Y-102423044D01*
X121616613Y-102413079D01*
X121638557Y-102405227D01*
X121661166Y-102399563D01*
X121684221Y-102396144D01*
X121707500Y-102395000D01*
X122282500Y-102395000D01*
X122305779Y-102396144D01*
X122305779Y-102396144D01*
G37*
D14*
X121995000Y-102870000D03*
G04 #@! TD*
D13*
G04 #@! TO.C,C4*
G36*
X91700779Y-99881144D02*
X91723834Y-99884563D01*
X91746443Y-99890227D01*
X91768387Y-99898079D01*
X91789457Y-99908044D01*
X91809448Y-99920026D01*
X91828168Y-99933910D01*
X91845438Y-99949562D01*
X91861090Y-99966832D01*
X91874974Y-99985552D01*
X91886956Y-100005543D01*
X91896921Y-100026613D01*
X91904773Y-100048557D01*
X91910437Y-100071166D01*
X91913856Y-100094221D01*
X91915000Y-100117500D01*
X91915000Y-100692500D01*
X91913856Y-100715779D01*
X91910437Y-100738834D01*
X91904773Y-100761443D01*
X91896921Y-100783387D01*
X91886956Y-100804457D01*
X91874974Y-100824448D01*
X91861090Y-100843168D01*
X91845438Y-100860438D01*
X91828168Y-100876090D01*
X91809448Y-100889974D01*
X91789457Y-100901956D01*
X91768387Y-100911921D01*
X91746443Y-100919773D01*
X91723834Y-100925437D01*
X91700779Y-100928856D01*
X91677500Y-100930000D01*
X91202500Y-100930000D01*
X91179221Y-100928856D01*
X91156166Y-100925437D01*
X91133557Y-100919773D01*
X91111613Y-100911921D01*
X91090543Y-100901956D01*
X91070552Y-100889974D01*
X91051832Y-100876090D01*
X91034562Y-100860438D01*
X91018910Y-100843168D01*
X91005026Y-100824448D01*
X90993044Y-100804457D01*
X90983079Y-100783387D01*
X90975227Y-100761443D01*
X90969563Y-100738834D01*
X90966144Y-100715779D01*
X90965000Y-100692500D01*
X90965000Y-100117500D01*
X90966144Y-100094221D01*
X90969563Y-100071166D01*
X90975227Y-100048557D01*
X90983079Y-100026613D01*
X90993044Y-100005543D01*
X91005026Y-99985552D01*
X91018910Y-99966832D01*
X91034562Y-99949562D01*
X91051832Y-99933910D01*
X91070552Y-99920026D01*
X91090543Y-99908044D01*
X91111613Y-99898079D01*
X91133557Y-99890227D01*
X91156166Y-99884563D01*
X91179221Y-99881144D01*
X91202500Y-99880000D01*
X91677500Y-99880000D01*
X91700779Y-99881144D01*
X91700779Y-99881144D01*
G37*
D14*
X91440000Y-100405000D03*
D13*
G36*
X91700779Y-101631144D02*
X91723834Y-101634563D01*
X91746443Y-101640227D01*
X91768387Y-101648079D01*
X91789457Y-101658044D01*
X91809448Y-101670026D01*
X91828168Y-101683910D01*
X91845438Y-101699562D01*
X91861090Y-101716832D01*
X91874974Y-101735552D01*
X91886956Y-101755543D01*
X91896921Y-101776613D01*
X91904773Y-101798557D01*
X91910437Y-101821166D01*
X91913856Y-101844221D01*
X91915000Y-101867500D01*
X91915000Y-102442500D01*
X91913856Y-102465779D01*
X91910437Y-102488834D01*
X91904773Y-102511443D01*
X91896921Y-102533387D01*
X91886956Y-102554457D01*
X91874974Y-102574448D01*
X91861090Y-102593168D01*
X91845438Y-102610438D01*
X91828168Y-102626090D01*
X91809448Y-102639974D01*
X91789457Y-102651956D01*
X91768387Y-102661921D01*
X91746443Y-102669773D01*
X91723834Y-102675437D01*
X91700779Y-102678856D01*
X91677500Y-102680000D01*
X91202500Y-102680000D01*
X91179221Y-102678856D01*
X91156166Y-102675437D01*
X91133557Y-102669773D01*
X91111613Y-102661921D01*
X91090543Y-102651956D01*
X91070552Y-102639974D01*
X91051832Y-102626090D01*
X91034562Y-102610438D01*
X91018910Y-102593168D01*
X91005026Y-102574448D01*
X90993044Y-102554457D01*
X90983079Y-102533387D01*
X90975227Y-102511443D01*
X90969563Y-102488834D01*
X90966144Y-102465779D01*
X90965000Y-102442500D01*
X90965000Y-101867500D01*
X90966144Y-101844221D01*
X90969563Y-101821166D01*
X90975227Y-101798557D01*
X90983079Y-101776613D01*
X90993044Y-101755543D01*
X91005026Y-101735552D01*
X91018910Y-101716832D01*
X91034562Y-101699562D01*
X91051832Y-101683910D01*
X91070552Y-101670026D01*
X91090543Y-101658044D01*
X91111613Y-101648079D01*
X91133557Y-101640227D01*
X91156166Y-101634563D01*
X91179221Y-101631144D01*
X91202500Y-101630000D01*
X91677500Y-101630000D01*
X91700779Y-101631144D01*
X91700779Y-101631144D01*
G37*
D14*
X91440000Y-102155000D03*
G04 #@! TD*
D13*
G04 #@! TO.C,C5*
G36*
X95005779Y-103666144D02*
X95028834Y-103669563D01*
X95051443Y-103675227D01*
X95073387Y-103683079D01*
X95094457Y-103693044D01*
X95114448Y-103705026D01*
X95133168Y-103718910D01*
X95150438Y-103734562D01*
X95166090Y-103751832D01*
X95179974Y-103770552D01*
X95191956Y-103790543D01*
X95201921Y-103811613D01*
X95209773Y-103833557D01*
X95215437Y-103856166D01*
X95218856Y-103879221D01*
X95220000Y-103902500D01*
X95220000Y-104377500D01*
X95218856Y-104400779D01*
X95215437Y-104423834D01*
X95209773Y-104446443D01*
X95201921Y-104468387D01*
X95191956Y-104489457D01*
X95179974Y-104509448D01*
X95166090Y-104528168D01*
X95150438Y-104545438D01*
X95133168Y-104561090D01*
X95114448Y-104574974D01*
X95094457Y-104586956D01*
X95073387Y-104596921D01*
X95051443Y-104604773D01*
X95028834Y-104610437D01*
X95005779Y-104613856D01*
X94982500Y-104615000D01*
X94407500Y-104615000D01*
X94384221Y-104613856D01*
X94361166Y-104610437D01*
X94338557Y-104604773D01*
X94316613Y-104596921D01*
X94295543Y-104586956D01*
X94275552Y-104574974D01*
X94256832Y-104561090D01*
X94239562Y-104545438D01*
X94223910Y-104528168D01*
X94210026Y-104509448D01*
X94198044Y-104489457D01*
X94188079Y-104468387D01*
X94180227Y-104446443D01*
X94174563Y-104423834D01*
X94171144Y-104400779D01*
X94170000Y-104377500D01*
X94170000Y-103902500D01*
X94171144Y-103879221D01*
X94174563Y-103856166D01*
X94180227Y-103833557D01*
X94188079Y-103811613D01*
X94198044Y-103790543D01*
X94210026Y-103770552D01*
X94223910Y-103751832D01*
X94239562Y-103734562D01*
X94256832Y-103718910D01*
X94275552Y-103705026D01*
X94295543Y-103693044D01*
X94316613Y-103683079D01*
X94338557Y-103675227D01*
X94361166Y-103669563D01*
X94384221Y-103666144D01*
X94407500Y-103665000D01*
X94982500Y-103665000D01*
X95005779Y-103666144D01*
X95005779Y-103666144D01*
G37*
D14*
X94695000Y-104140000D03*
D13*
G36*
X96755779Y-103666144D02*
X96778834Y-103669563D01*
X96801443Y-103675227D01*
X96823387Y-103683079D01*
X96844457Y-103693044D01*
X96864448Y-103705026D01*
X96883168Y-103718910D01*
X96900438Y-103734562D01*
X96916090Y-103751832D01*
X96929974Y-103770552D01*
X96941956Y-103790543D01*
X96951921Y-103811613D01*
X96959773Y-103833557D01*
X96965437Y-103856166D01*
X96968856Y-103879221D01*
X96970000Y-103902500D01*
X96970000Y-104377500D01*
X96968856Y-104400779D01*
X96965437Y-104423834D01*
X96959773Y-104446443D01*
X96951921Y-104468387D01*
X96941956Y-104489457D01*
X96929974Y-104509448D01*
X96916090Y-104528168D01*
X96900438Y-104545438D01*
X96883168Y-104561090D01*
X96864448Y-104574974D01*
X96844457Y-104586956D01*
X96823387Y-104596921D01*
X96801443Y-104604773D01*
X96778834Y-104610437D01*
X96755779Y-104613856D01*
X96732500Y-104615000D01*
X96157500Y-104615000D01*
X96134221Y-104613856D01*
X96111166Y-104610437D01*
X96088557Y-104604773D01*
X96066613Y-104596921D01*
X96045543Y-104586956D01*
X96025552Y-104574974D01*
X96006832Y-104561090D01*
X95989562Y-104545438D01*
X95973910Y-104528168D01*
X95960026Y-104509448D01*
X95948044Y-104489457D01*
X95938079Y-104468387D01*
X95930227Y-104446443D01*
X95924563Y-104423834D01*
X95921144Y-104400779D01*
X95920000Y-104377500D01*
X95920000Y-103902500D01*
X95921144Y-103879221D01*
X95924563Y-103856166D01*
X95930227Y-103833557D01*
X95938079Y-103811613D01*
X95948044Y-103790543D01*
X95960026Y-103770552D01*
X95973910Y-103751832D01*
X95989562Y-103734562D01*
X96006832Y-103718910D01*
X96025552Y-103705026D01*
X96045543Y-103693044D01*
X96066613Y-103683079D01*
X96088557Y-103675227D01*
X96111166Y-103669563D01*
X96134221Y-103666144D01*
X96157500Y-103665000D01*
X96732500Y-103665000D01*
X96755779Y-103666144D01*
X96755779Y-103666144D01*
G37*
D14*
X96445000Y-104140000D03*
G04 #@! TD*
D13*
G04 #@! TO.C,C6*
G36*
X119615779Y-102396144D02*
X119638834Y-102399563D01*
X119661443Y-102405227D01*
X119683387Y-102413079D01*
X119704457Y-102423044D01*
X119724448Y-102435026D01*
X119743168Y-102448910D01*
X119760438Y-102464562D01*
X119776090Y-102481832D01*
X119789974Y-102500552D01*
X119801956Y-102520543D01*
X119811921Y-102541613D01*
X119819773Y-102563557D01*
X119825437Y-102586166D01*
X119828856Y-102609221D01*
X119830000Y-102632500D01*
X119830000Y-103107500D01*
X119828856Y-103130779D01*
X119825437Y-103153834D01*
X119819773Y-103176443D01*
X119811921Y-103198387D01*
X119801956Y-103219457D01*
X119789974Y-103239448D01*
X119776090Y-103258168D01*
X119760438Y-103275438D01*
X119743168Y-103291090D01*
X119724448Y-103304974D01*
X119704457Y-103316956D01*
X119683387Y-103326921D01*
X119661443Y-103334773D01*
X119638834Y-103340437D01*
X119615779Y-103343856D01*
X119592500Y-103345000D01*
X119017500Y-103345000D01*
X118994221Y-103343856D01*
X118971166Y-103340437D01*
X118948557Y-103334773D01*
X118926613Y-103326921D01*
X118905543Y-103316956D01*
X118885552Y-103304974D01*
X118866832Y-103291090D01*
X118849562Y-103275438D01*
X118833910Y-103258168D01*
X118820026Y-103239448D01*
X118808044Y-103219457D01*
X118798079Y-103198387D01*
X118790227Y-103176443D01*
X118784563Y-103153834D01*
X118781144Y-103130779D01*
X118780000Y-103107500D01*
X118780000Y-102632500D01*
X118781144Y-102609221D01*
X118784563Y-102586166D01*
X118790227Y-102563557D01*
X118798079Y-102541613D01*
X118808044Y-102520543D01*
X118820026Y-102500552D01*
X118833910Y-102481832D01*
X118849562Y-102464562D01*
X118866832Y-102448910D01*
X118885552Y-102435026D01*
X118905543Y-102423044D01*
X118926613Y-102413079D01*
X118948557Y-102405227D01*
X118971166Y-102399563D01*
X118994221Y-102396144D01*
X119017500Y-102395000D01*
X119592500Y-102395000D01*
X119615779Y-102396144D01*
X119615779Y-102396144D01*
G37*
D14*
X119305000Y-102870000D03*
D13*
G36*
X117865779Y-102396144D02*
X117888834Y-102399563D01*
X117911443Y-102405227D01*
X117933387Y-102413079D01*
X117954457Y-102423044D01*
X117974448Y-102435026D01*
X117993168Y-102448910D01*
X118010438Y-102464562D01*
X118026090Y-102481832D01*
X118039974Y-102500552D01*
X118051956Y-102520543D01*
X118061921Y-102541613D01*
X118069773Y-102563557D01*
X118075437Y-102586166D01*
X118078856Y-102609221D01*
X118080000Y-102632500D01*
X118080000Y-103107500D01*
X118078856Y-103130779D01*
X118075437Y-103153834D01*
X118069773Y-103176443D01*
X118061921Y-103198387D01*
X118051956Y-103219457D01*
X118039974Y-103239448D01*
X118026090Y-103258168D01*
X118010438Y-103275438D01*
X117993168Y-103291090D01*
X117974448Y-103304974D01*
X117954457Y-103316956D01*
X117933387Y-103326921D01*
X117911443Y-103334773D01*
X117888834Y-103340437D01*
X117865779Y-103343856D01*
X117842500Y-103345000D01*
X117267500Y-103345000D01*
X117244221Y-103343856D01*
X117221166Y-103340437D01*
X117198557Y-103334773D01*
X117176613Y-103326921D01*
X117155543Y-103316956D01*
X117135552Y-103304974D01*
X117116832Y-103291090D01*
X117099562Y-103275438D01*
X117083910Y-103258168D01*
X117070026Y-103239448D01*
X117058044Y-103219457D01*
X117048079Y-103198387D01*
X117040227Y-103176443D01*
X117034563Y-103153834D01*
X117031144Y-103130779D01*
X117030000Y-103107500D01*
X117030000Y-102632500D01*
X117031144Y-102609221D01*
X117034563Y-102586166D01*
X117040227Y-102563557D01*
X117048079Y-102541613D01*
X117058044Y-102520543D01*
X117070026Y-102500552D01*
X117083910Y-102481832D01*
X117099562Y-102464562D01*
X117116832Y-102448910D01*
X117135552Y-102435026D01*
X117155543Y-102423044D01*
X117176613Y-102413079D01*
X117198557Y-102405227D01*
X117221166Y-102399563D01*
X117244221Y-102396144D01*
X117267500Y-102395000D01*
X117842500Y-102395000D01*
X117865779Y-102396144D01*
X117865779Y-102396144D01*
G37*
D14*
X117555000Y-102870000D03*
G04 #@! TD*
M02*
