G04 #@! TF.GenerationSoftware,KiCad,Pcbnew,(5.0.0)*
G04 #@! TF.CreationDate,2018-09-29T14:20:13-05:00*
G04 #@! TF.ProjectId,DriveBoard_Hardware,4472697665426F6172645F4861726477,rev?*
G04 #@! TF.SameCoordinates,Original*
G04 #@! TF.FileFunction,Legend,Top*
G04 #@! TF.FilePolarity,Positive*
%FSLAX46Y46*%
G04 Gerber Fmt 4.6, Leading zero omitted, Abs format (unit mm)*
G04 Created by KiCad (PCBNEW (5.0.0)) date 09/29/18 14:20:13*
%MOMM*%
%LPD*%
G01*
G04 APERTURE LIST*
%ADD10C,0.150000*%
G04 APERTURE END LIST*
D10*
G04 #@! TO.C,Conn1*
X131318000Y-57150000D02*
G75*
G03X130200400Y-56032400I-1117600J0D01*
G01*
X130200400Y-56032400D02*
G75*
G03X129082800Y-57150000I0J-1117600D01*
G01*
X120142000Y-41402000D02*
X120142000Y-57150000D01*
X144780000Y-41402000D02*
X144780000Y-57150000D01*
X129057400Y-41402000D02*
X127838200Y-41402000D01*
X130200400Y-42545000D02*
G75*
G03X131343400Y-41402000I0J1143000D01*
G01*
X129057400Y-41402000D02*
G75*
G03X130200400Y-42545000I1143000J0D01*
G01*
X132511800Y-57150000D02*
X131318000Y-57150000D01*
X130200400Y-54838600D02*
X130200400Y-56007000D01*
X127889000Y-57150000D02*
X129057400Y-57150000D01*
X132461000Y-41402000D02*
X131368800Y-41402000D01*
X130200400Y-42545000D02*
X130200400Y-43713400D01*
X130200400Y-51562000D02*
X130200400Y-50419000D01*
X120167400Y-49250600D02*
X129057400Y-49250600D01*
X130200400Y-46990000D02*
X130200400Y-48133000D01*
X132486400Y-49276000D02*
X131343400Y-49276000D01*
X130200400Y-51562000D02*
X130200400Y-54864000D01*
X132486400Y-49276000D02*
X144780000Y-49276000D01*
X130200400Y-46990000D02*
X130200400Y-43713400D01*
X131343400Y-49276000D02*
G75*
G03X131343400Y-49276000I-1143000J0D01*
G01*
X132486400Y-57150000D02*
X144780000Y-57150000D01*
X127914400Y-57150000D02*
X120167400Y-57150000D01*
X120167400Y-41402000D02*
X127914400Y-41402000D01*
X132486400Y-41402000D02*
X144780000Y-41402000D01*
G04 #@! TO.C,Conn2*
X174498000Y-78740000D02*
X173990000Y-78740000D01*
X173990000Y-86360000D02*
X174498000Y-86360000D01*
X174498000Y-74295000D02*
X174498000Y-90805000D01*
X162560000Y-74295000D02*
X174498000Y-74295000D01*
X162560000Y-90805000D02*
X174498000Y-90805000D01*
X162560000Y-88900000D02*
X162560000Y-90805000D01*
X162560000Y-76200000D02*
X162560000Y-74295000D01*
X170180000Y-78740000D02*
X168910000Y-78740000D01*
X168910000Y-78740000D02*
X168910000Y-86360000D01*
X168910000Y-86360000D02*
X170180000Y-86360000D01*
X170180000Y-86360000D02*
X173990000Y-86360000D01*
X170180000Y-78740000D02*
X173990000Y-78740000D01*
X168910000Y-81280000D02*
X166370000Y-81280000D01*
X166370000Y-81280000D02*
X166370000Y-83820000D01*
X166370000Y-83820000D02*
X168910000Y-83820000D01*
X162560000Y-76200000D02*
X162560000Y-88900000D01*
X162560000Y-88900000D02*
X160020000Y-88900000D01*
X160020000Y-88900000D02*
X160020000Y-76200000D01*
X160020000Y-76200000D02*
X162560000Y-76200000D01*
G04 #@! TO.C,U1*
X142519001Y-107695001D02*
X117119001Y-107695001D01*
X117119001Y-69595001D02*
X142519001Y-69595001D01*
X142519001Y-112775001D02*
X142519001Y-107695001D01*
X117119001Y-107695001D02*
X117119001Y-112775001D01*
X117119001Y-112775001D02*
X142519001Y-112775001D01*
X142519001Y-69595001D02*
X142519001Y-64515001D01*
X142519001Y-64515001D02*
X117119001Y-64515001D01*
X117119001Y-64515001D02*
X117119001Y-69595001D01*
G04 #@! TO.C,U2*
X146370000Y-77600000D02*
X149270000Y-77600000D01*
X149270000Y-77600000D02*
X149270000Y-87500000D01*
X149270000Y-87500000D02*
X145370000Y-87500000D01*
X145370000Y-87500000D02*
X145370000Y-78600000D01*
X145370000Y-78600000D02*
X146370000Y-77600000D01*
G04 #@! TO.C,U3*
X167640000Y-53340000D02*
X165100000Y-50800000D01*
X165100000Y-50800000D02*
X165100000Y-45720000D01*
X165100000Y-45720000D02*
X167640000Y-43180000D01*
X167640000Y-43180000D02*
X172720000Y-43180000D01*
X172720000Y-43180000D02*
X175260000Y-45720000D01*
X175260000Y-45720000D02*
X175260000Y-50800000D01*
X175260000Y-50800000D02*
X172720000Y-53340000D01*
X172720000Y-53340000D02*
X167640000Y-53340000D01*
X175260000Y-40640000D02*
X165100000Y-40640000D01*
X175260000Y-57150000D02*
X165100000Y-57150000D01*
X165100000Y-57150000D02*
X165100000Y-40640000D01*
X175260000Y-40640000D02*
X175260000Y-57150000D01*
G04 #@! TO.C,U1*
X118674715Y-70809381D02*
X118103286Y-70809381D01*
X118389001Y-70809381D02*
X118389001Y-69809381D01*
X118293762Y-69952239D01*
X118198524Y-70047477D01*
X118103286Y-70095096D01*
X141058524Y-70809381D02*
X140487096Y-70809381D01*
X140772810Y-70809381D02*
X140772810Y-69809381D01*
X140677572Y-69952239D01*
X140582334Y-70047477D01*
X140487096Y-70095096D01*
X141677572Y-69809381D02*
X141772810Y-69809381D01*
X141868048Y-69857001D01*
X141915667Y-69904620D01*
X141963286Y-69999858D01*
X142010905Y-70190334D01*
X142010905Y-70428429D01*
X141963286Y-70618905D01*
X141915667Y-70714143D01*
X141868048Y-70761762D01*
X141772810Y-70809381D01*
X141677572Y-70809381D01*
X141582334Y-70761762D01*
X141534715Y-70714143D01*
X141487096Y-70618905D01*
X141439477Y-70428429D01*
X141439477Y-70190334D01*
X141487096Y-69999858D01*
X141534715Y-69904620D01*
X141582334Y-69857001D01*
X141677572Y-69809381D01*
X141058524Y-107385381D02*
X140487096Y-107385381D01*
X140772810Y-107385381D02*
X140772810Y-106385381D01*
X140677572Y-106528239D01*
X140582334Y-106623477D01*
X140487096Y-106671096D01*
X141677572Y-106385381D02*
X141772810Y-106385381D01*
X141868048Y-106433001D01*
X141915667Y-106480620D01*
X141963286Y-106575858D01*
X142010905Y-106766334D01*
X142010905Y-107004429D01*
X141963286Y-107194905D01*
X141915667Y-107290143D01*
X141868048Y-107337762D01*
X141772810Y-107385381D01*
X141677572Y-107385381D01*
X141582334Y-107337762D01*
X141534715Y-107290143D01*
X141487096Y-107194905D01*
X141439477Y-107004429D01*
X141439477Y-106766334D01*
X141487096Y-106575858D01*
X141534715Y-106480620D01*
X141582334Y-106433001D01*
X141677572Y-106385381D01*
X118674715Y-107385381D02*
X118103286Y-107385381D01*
X118389001Y-107385381D02*
X118389001Y-106385381D01*
X118293762Y-106528239D01*
X118198524Y-106623477D01*
X118103286Y-106671096D01*
X140439477Y-71079381D02*
X141106143Y-72079381D01*
X141106143Y-71079381D02*
X140439477Y-72079381D01*
X141391858Y-71079381D02*
X142058524Y-71079381D01*
X141629953Y-72079381D01*
X140439477Y-105115381D02*
X141106143Y-106115381D01*
X141106143Y-105115381D02*
X140439477Y-106115381D01*
X141915667Y-105115381D02*
X141725191Y-105115381D01*
X141629953Y-105163001D01*
X141582334Y-105210620D01*
X141487096Y-105353477D01*
X141439477Y-105543953D01*
X141439477Y-105924905D01*
X141487096Y-106020143D01*
X141534715Y-106067762D01*
X141629953Y-106115381D01*
X141820429Y-106115381D01*
X141915667Y-106067762D01*
X141963286Y-106020143D01*
X142010905Y-105924905D01*
X142010905Y-105686810D01*
X141963286Y-105591572D01*
X141915667Y-105543953D01*
X141820429Y-105496334D01*
X141629953Y-105496334D01*
X141534715Y-105543953D01*
X141487096Y-105591572D01*
X141439477Y-105686810D01*
X143368334Y-68682143D02*
X143320715Y-68729762D01*
X143177858Y-68777381D01*
X143082620Y-68777381D01*
X142939762Y-68729762D01*
X142844524Y-68634524D01*
X142796905Y-68539286D01*
X142749286Y-68348810D01*
X142749286Y-68205953D01*
X142796905Y-68015477D01*
X142844524Y-67920239D01*
X142939762Y-67825001D01*
X143082620Y-67777381D01*
X143177858Y-67777381D01*
X143320715Y-67825001D01*
X143368334Y-67872620D01*
X143749286Y-67872620D02*
X143796905Y-67825001D01*
X143892143Y-67777381D01*
X144130239Y-67777381D01*
X144225477Y-67825001D01*
X144273096Y-67872620D01*
X144320715Y-67967858D01*
X144320715Y-68063096D01*
X144273096Y-68205953D01*
X143701667Y-68777381D01*
X144320715Y-68777381D01*
X142796905Y-65983381D02*
X142796905Y-64983381D01*
X143035001Y-64983381D01*
X143177858Y-65031001D01*
X143273096Y-65126239D01*
X143320715Y-65221477D01*
X143368334Y-65411953D01*
X143368334Y-65554810D01*
X143320715Y-65745286D01*
X143273096Y-65840524D01*
X143177858Y-65935762D01*
X143035001Y-65983381D01*
X142796905Y-65983381D01*
X143749286Y-65078620D02*
X143796905Y-65031001D01*
X143892143Y-64983381D01*
X144130239Y-64983381D01*
X144225477Y-65031001D01*
X144273096Y-65078620D01*
X144320715Y-65173858D01*
X144320715Y-65269096D01*
X144273096Y-65411953D01*
X143701667Y-65983381D01*
X144320715Y-65983381D01*
X143892239Y-108639572D02*
X144035096Y-108687191D01*
X144082715Y-108734810D01*
X144130334Y-108830048D01*
X144130334Y-108972905D01*
X144082715Y-109068143D01*
X144035096Y-109115762D01*
X143939858Y-109163381D01*
X143558905Y-109163381D01*
X143558905Y-108163381D01*
X143892239Y-108163381D01*
X143987477Y-108211001D01*
X144035096Y-108258620D01*
X144082715Y-108353858D01*
X144082715Y-108449096D01*
X144035096Y-108544334D01*
X143987477Y-108591953D01*
X143892239Y-108639572D01*
X143558905Y-108639572D01*
X144511286Y-108258620D02*
X144558905Y-108211001D01*
X144654143Y-108163381D01*
X144892239Y-108163381D01*
X144987477Y-108211001D01*
X145035096Y-108258620D01*
X145082715Y-108353858D01*
X145082715Y-108449096D01*
X145035096Y-108591953D01*
X144463667Y-109163381D01*
X145082715Y-109163381D01*
X143582715Y-111671667D02*
X144058905Y-111671667D01*
X143487477Y-111957381D02*
X143820810Y-110957381D01*
X144154143Y-111957381D01*
X144439858Y-111052620D02*
X144487477Y-111005001D01*
X144582715Y-110957381D01*
X144820810Y-110957381D01*
X144916048Y-111005001D01*
X144963667Y-111052620D01*
X145011286Y-111147858D01*
X145011286Y-111243096D01*
X144963667Y-111385953D01*
X144392239Y-111957381D01*
X145011286Y-111957381D01*
G04 #@! TO.C,U2*
X146558095Y-76002380D02*
X146558095Y-76811904D01*
X146605714Y-76907142D01*
X146653333Y-76954761D01*
X146748571Y-77002380D01*
X146939047Y-77002380D01*
X147034285Y-76954761D01*
X147081904Y-76907142D01*
X147129523Y-76811904D01*
X147129523Y-76002380D01*
X147558095Y-76097619D02*
X147605714Y-76050000D01*
X147700952Y-76002380D01*
X147939047Y-76002380D01*
X148034285Y-76050000D01*
X148081904Y-76097619D01*
X148129523Y-76192857D01*
X148129523Y-76288095D01*
X148081904Y-76430952D01*
X147510476Y-77002380D01*
X148129523Y-77002380D01*
G04 #@! TO.C,U3*
X168076666Y-57872380D02*
X168267142Y-57872380D01*
X168362380Y-57920000D01*
X168457619Y-58015238D01*
X168505238Y-58205714D01*
X168505238Y-58539047D01*
X168457619Y-58729523D01*
X168362380Y-58824761D01*
X168267142Y-58872380D01*
X168076666Y-58872380D01*
X167981428Y-58824761D01*
X167886190Y-58729523D01*
X167838571Y-58539047D01*
X167838571Y-58205714D01*
X167886190Y-58015238D01*
X167981428Y-57920000D01*
X168076666Y-57872380D01*
X168933809Y-58872380D02*
X168933809Y-57872380D01*
X169505238Y-58872380D02*
X169076666Y-58300952D01*
X169505238Y-57872380D02*
X168933809Y-58443809D01*
X169933809Y-58872380D02*
X169933809Y-57872380D01*
G04 #@! TD*
M02*
