M48
;DRILL file {KiCad (5.0.0)} date 09/29/18 14:22:44
;FORMAT={-:-/ absolute / inch / decimal}
FMAT,2
INCH,TZ
T1C0.0157
T2C0.0300
T3C0.0350
T4C0.0394
T5C0.1598
%
G90
G05
M72
T1
X5.45Y-3.35
X5.45Y-3.5
X5.5Y-3.5939
X5.5499Y-3.4999
X5.6Y-3.55
X5.6Y-3.85
X5.6Y-3.9
X5.6Y-4.4
X5.6484Y-3.4882
X5.9Y-4.3
X5.9456Y-3.6362
X5.96Y-3.5219
X6.Y-3.3939
X6.05Y-3.7561
X6.1Y-3.55
X6.1Y-3.65
X6.4Y-3.4
X6.55Y-3.5
X6.75Y-3.5
X6.85Y-3.4
X7.5Y-3.3
X7.55Y-3.25
T2
X6.5Y-2.3
X6.6Y-2.3
X6.7Y-2.3
X6.8Y-2.3
X6.9Y-2.3
X7.2Y-2.3
X7.3Y-2.3
X7.4Y-2.3
X7.5Y-2.3
X7.6Y-2.3
T3
X6.25Y-4.1
X6.25Y-4.2
X6.25Y-4.3
T4
X5.4173Y-2.815
X5.4173Y-2.915
X5.4173Y-4.515
X5.4173Y-4.615
X5.5173Y-2.815
X5.5173Y-2.915
X5.5173Y-4.515
X5.5173Y-4.615
X5.6173Y-2.815
X5.6173Y-2.915
X5.6173Y-4.515
X5.6173Y-4.615
X5.7173Y-2.815
X5.7173Y-2.915
X5.7173Y-4.515
X5.7173Y-4.615
X5.8173Y-2.815
X5.8173Y-2.915
X5.8173Y-4.515
X5.8173Y-4.615
X5.9173Y-2.815
X5.9173Y-2.915
X5.9173Y-4.515
X5.9173Y-4.615
X6.0173Y-2.815
X6.0173Y-2.915
X6.0173Y-4.515
X6.0173Y-4.615
X6.1173Y-2.815
X6.1173Y-2.915
X6.1173Y-4.515
X6.1173Y-4.615
X6.2173Y-2.815
X6.2173Y-2.915
X6.2173Y-4.515
X6.2173Y-4.615
X6.3173Y-2.815
X6.3173Y-2.915
X6.3173Y-4.515
X6.3173Y-4.615
T5
X6.859Y-4.16
X6.859Y-4.475
T0
M30
