G04 #@! TF.GenerationSoftware,KiCad,Pcbnew,(5.0.0)*
G04 #@! TF.CreationDate,2018-09-29T16:31:49-05:00*
G04 #@! TF.ProjectId,Driveboard_Hardware,4472697665626F6172645F4861726477,rev?*
G04 #@! TF.SameCoordinates,Original*
G04 #@! TF.FileFunction,Legend,Top*
G04 #@! TF.FilePolarity,Positive*
%FSLAX46Y46*%
G04 Gerber Fmt 4.6, Leading zero omitted, Abs format (unit mm)*
G04 Created by KiCad (PCBNEW (5.0.0)) date 09/29/18 16:31:49*
%MOMM*%
%LPD*%
G01*
G04 APERTURE LIST*
%ADD10C,0.150000*%
%ADD11C,0.120000*%
G04 APERTURE END LIST*
D10*
G04 #@! TO.C,U1*
X89179001Y-133095001D02*
X89179001Y-128015001D01*
X89179001Y-128015001D02*
X63779001Y-128015001D01*
X63779001Y-128015001D02*
X63779001Y-133095001D01*
X63779001Y-133095001D02*
X89179001Y-133095001D01*
X89179001Y-89915001D02*
X89179001Y-84835001D01*
X89179001Y-84835001D02*
X63779001Y-84835001D01*
X63779001Y-84835001D02*
X63779001Y-89915001D01*
X63779001Y-89915001D02*
X89179001Y-89915001D01*
G04 #@! TO.C,U2*
X101144008Y-119097532D02*
X103684008Y-121637532D01*
X103684008Y-121637532D02*
X103684008Y-126717532D01*
X103684008Y-126717532D02*
X101144008Y-129257532D01*
X101144008Y-129257532D02*
X96064008Y-129257532D01*
X96064008Y-129257532D02*
X93524008Y-126717532D01*
X93524008Y-126717532D02*
X93524008Y-121637532D01*
X93524008Y-121637532D02*
X96064008Y-119097532D01*
X96064008Y-119097532D02*
X101144008Y-119097532D01*
X93524008Y-131797532D02*
X103684008Y-131797532D01*
X93524008Y-115287532D02*
X103684008Y-115287532D01*
X103684008Y-115287532D02*
X103684008Y-131797532D01*
X93524008Y-131797532D02*
X93524008Y-115287532D01*
D11*
G04 #@! TO.C,C1*
X96715733Y-111987532D02*
X97058267Y-111987532D01*
X96715733Y-110967532D02*
X97058267Y-110967532D01*
G04 #@! TO.C,C2*
X100920275Y-110967532D02*
X100577741Y-110967532D01*
X100920275Y-111987532D02*
X100577741Y-111987532D01*
G04 #@! TO.C,C3*
X76258267Y-104650000D02*
X75915733Y-104650000D01*
X76258267Y-103630000D02*
X75915733Y-103630000D01*
G04 #@! TO.C,C4*
X71823733Y-108710000D02*
X72166267Y-108710000D01*
X71823733Y-109730000D02*
X72166267Y-109730000D01*
G04 #@! TO.C,C5*
X71750133Y-104900000D02*
X72092667Y-104900000D01*
X71750133Y-105920000D02*
X72092667Y-105920000D01*
G04 #@! TO.C,C6*
X76028733Y-107440000D02*
X76371267Y-107440000D01*
X76028733Y-108460000D02*
X76371267Y-108460000D01*
D10*
G04 #@! TO.C,Conn2*
X68580000Y-64262000D02*
X68580000Y-64770000D01*
X76200000Y-64770000D02*
X76200000Y-64262000D01*
X64135000Y-64262000D02*
X80645000Y-64262000D01*
X64135000Y-76200000D02*
X64135000Y-64262000D01*
X80645000Y-76200000D02*
X80645000Y-64262000D01*
X78740000Y-76200000D02*
X80645000Y-76200000D01*
X66040000Y-76200000D02*
X64135000Y-76200000D01*
X68580000Y-68580000D02*
X68580000Y-69850000D01*
X68580000Y-69850000D02*
X76200000Y-69850000D01*
X76200000Y-69850000D02*
X76200000Y-68580000D01*
X76200000Y-68580000D02*
X76200000Y-64770000D01*
X68580000Y-68580000D02*
X68580000Y-64770000D01*
X71120000Y-69850000D02*
X71120000Y-72390000D01*
X71120000Y-72390000D02*
X73660000Y-72390000D01*
X73660000Y-72390000D02*
X73660000Y-69850000D01*
X66040000Y-76200000D02*
X78740000Y-76200000D01*
X78740000Y-76200000D02*
X78740000Y-78740000D01*
X78740000Y-78740000D02*
X66040000Y-78740000D01*
X66040000Y-78740000D02*
X66040000Y-76200000D01*
G04 #@! TO.C,Conn3*
X109220000Y-78740000D02*
X109220000Y-76200000D01*
X121920000Y-78740000D02*
X109220000Y-78740000D01*
X121920000Y-76200000D02*
X121920000Y-78740000D01*
X109220000Y-76200000D02*
X121920000Y-76200000D01*
X116840000Y-72390000D02*
X116840000Y-69850000D01*
X114300000Y-72390000D02*
X116840000Y-72390000D01*
X114300000Y-69850000D02*
X114300000Y-72390000D01*
X111760000Y-68580000D02*
X111760000Y-64770000D01*
X119380000Y-68580000D02*
X119380000Y-64770000D01*
X119380000Y-69850000D02*
X119380000Y-68580000D01*
X111760000Y-69850000D02*
X119380000Y-69850000D01*
X111760000Y-68580000D02*
X111760000Y-69850000D01*
X109220000Y-76200000D02*
X107315000Y-76200000D01*
X121920000Y-76200000D02*
X123825000Y-76200000D01*
X123825000Y-76200000D02*
X123825000Y-64262000D01*
X107315000Y-76200000D02*
X107315000Y-64262000D01*
X107315000Y-64262000D02*
X123825000Y-64262000D01*
X119380000Y-64770000D02*
X119380000Y-64262000D01*
X111760000Y-64262000D02*
X111760000Y-64770000D01*
G04 #@! TO.C,U3*
X83030000Y-102365000D02*
X85930000Y-102365000D01*
X85930000Y-102365000D02*
X85930000Y-112265000D01*
X85930000Y-112265000D02*
X82030000Y-112265000D01*
X82030000Y-112265000D02*
X82030000Y-103365000D01*
X82030000Y-103365000D02*
X83030000Y-102365000D01*
G04 #@! TO.C,Conn1*
X122682000Y-95250000D02*
G75*
G03X123799600Y-96367600I1117600J0D01*
G01*
X123799600Y-96367600D02*
G75*
G03X124917200Y-95250000I0J1117600D01*
G01*
X133858000Y-110998000D02*
X133858000Y-95250000D01*
X109220000Y-110998000D02*
X109220000Y-95250000D01*
X124942600Y-110998000D02*
X126161800Y-110998000D01*
X123799600Y-109855000D02*
G75*
G03X122656600Y-110998000I0J-1143000D01*
G01*
X124942600Y-110998000D02*
G75*
G03X123799600Y-109855000I-1143000J0D01*
G01*
X121488200Y-95250000D02*
X122682000Y-95250000D01*
X123799600Y-97561400D02*
X123799600Y-96393000D01*
X126111000Y-95250000D02*
X124942600Y-95250000D01*
X121539000Y-110998000D02*
X122631200Y-110998000D01*
X123799600Y-109855000D02*
X123799600Y-108686600D01*
X123799600Y-100838000D02*
X123799600Y-101981000D01*
X133832600Y-103149400D02*
X124942600Y-103149400D01*
X123799600Y-105410000D02*
X123799600Y-104267000D01*
X121513600Y-103124000D02*
X122656600Y-103124000D01*
X123799600Y-100838000D02*
X123799600Y-97536000D01*
X121513600Y-103124000D02*
X109220000Y-103124000D01*
X123799600Y-105410000D02*
X123799600Y-108686600D01*
X124942600Y-103124000D02*
G75*
G03X124942600Y-103124000I-1143000J0D01*
G01*
X121513600Y-95250000D02*
X109220000Y-95250000D01*
X126085600Y-95250000D02*
X133832600Y-95250000D01*
X133832600Y-110998000D02*
X126085600Y-110998000D01*
X121513600Y-110998000D02*
X109220000Y-110998000D01*
G04 #@! TO.C,U1*
X65334715Y-91129381D02*
X64763286Y-91129381D01*
X65049001Y-91129381D02*
X65049001Y-90129381D01*
X64953762Y-90272239D01*
X64858524Y-90367477D01*
X64763286Y-90415096D01*
X87972524Y-91129381D02*
X87401096Y-91129381D01*
X87686810Y-91129381D02*
X87686810Y-90129381D01*
X87591572Y-90272239D01*
X87496334Y-90367477D01*
X87401096Y-90415096D01*
X88591572Y-90129381D02*
X88686810Y-90129381D01*
X88782048Y-90177001D01*
X88829667Y-90224620D01*
X88877286Y-90319858D01*
X88924905Y-90510334D01*
X88924905Y-90748429D01*
X88877286Y-90938905D01*
X88829667Y-91034143D01*
X88782048Y-91081762D01*
X88686810Y-91129381D01*
X88591572Y-91129381D01*
X88496334Y-91081762D01*
X88448715Y-91034143D01*
X88401096Y-90938905D01*
X88353477Y-90748429D01*
X88353477Y-90510334D01*
X88401096Y-90319858D01*
X88448715Y-90224620D01*
X88496334Y-90177001D01*
X88591572Y-90129381D01*
X65334715Y-127705381D02*
X64763286Y-127705381D01*
X65049001Y-127705381D02*
X65049001Y-126705381D01*
X64953762Y-126848239D01*
X64858524Y-126943477D01*
X64763286Y-126991096D01*
X87972524Y-127705381D02*
X87401096Y-127705381D01*
X87686810Y-127705381D02*
X87686810Y-126705381D01*
X87591572Y-126848239D01*
X87496334Y-126943477D01*
X87401096Y-126991096D01*
X88591572Y-126705381D02*
X88686810Y-126705381D01*
X88782048Y-126753001D01*
X88829667Y-126800620D01*
X88877286Y-126895858D01*
X88924905Y-127086334D01*
X88924905Y-127324429D01*
X88877286Y-127514905D01*
X88829667Y-127610143D01*
X88782048Y-127657762D01*
X88686810Y-127705381D01*
X88591572Y-127705381D01*
X88496334Y-127657762D01*
X88448715Y-127610143D01*
X88401096Y-127514905D01*
X88353477Y-127324429D01*
X88353477Y-127086334D01*
X88401096Y-126895858D01*
X88448715Y-126800620D01*
X88496334Y-126753001D01*
X88591572Y-126705381D01*
X87353477Y-91399381D02*
X88020143Y-92399381D01*
X88020143Y-91399381D02*
X87353477Y-92399381D01*
X88448715Y-92399381D02*
X88639191Y-92399381D01*
X88734429Y-92351762D01*
X88782048Y-92304143D01*
X88877286Y-92161286D01*
X88924905Y-91970810D01*
X88924905Y-91589858D01*
X88877286Y-91494620D01*
X88829667Y-91447001D01*
X88734429Y-91399381D01*
X88543953Y-91399381D01*
X88448715Y-91447001D01*
X88401096Y-91494620D01*
X88353477Y-91589858D01*
X88353477Y-91827953D01*
X88401096Y-91923191D01*
X88448715Y-91970810D01*
X88543953Y-92018429D01*
X88734429Y-92018429D01*
X88829667Y-91970810D01*
X88877286Y-91923191D01*
X88924905Y-91827953D01*
X87353477Y-125435381D02*
X88020143Y-126435381D01*
X88020143Y-125435381D02*
X87353477Y-126435381D01*
X88543953Y-125863953D02*
X88448715Y-125816334D01*
X88401096Y-125768715D01*
X88353477Y-125673477D01*
X88353477Y-125625858D01*
X88401096Y-125530620D01*
X88448715Y-125483001D01*
X88543953Y-125435381D01*
X88734429Y-125435381D01*
X88829667Y-125483001D01*
X88877286Y-125530620D01*
X88924905Y-125625858D01*
X88924905Y-125673477D01*
X88877286Y-125768715D01*
X88829667Y-125816334D01*
X88734429Y-125863953D01*
X88543953Y-125863953D01*
X88448715Y-125911572D01*
X88401096Y-125959191D01*
X88353477Y-126054429D01*
X88353477Y-126244905D01*
X88401096Y-126340143D01*
X88448715Y-126387762D01*
X88543953Y-126435381D01*
X88734429Y-126435381D01*
X88829667Y-126387762D01*
X88877286Y-126340143D01*
X88924905Y-126244905D01*
X88924905Y-126054429D01*
X88877286Y-125959191D01*
X88829667Y-125911572D01*
X88734429Y-125863953D01*
X90028334Y-89002143D02*
X89980715Y-89049762D01*
X89837858Y-89097381D01*
X89742620Y-89097381D01*
X89599762Y-89049762D01*
X89504524Y-88954524D01*
X89456905Y-88859286D01*
X89409286Y-88668810D01*
X89409286Y-88525953D01*
X89456905Y-88335477D01*
X89504524Y-88240239D01*
X89599762Y-88145001D01*
X89742620Y-88097381D01*
X89837858Y-88097381D01*
X89980715Y-88145001D01*
X90028334Y-88192620D01*
X90980715Y-89097381D02*
X90409286Y-89097381D01*
X90695001Y-89097381D02*
X90695001Y-88097381D01*
X90599762Y-88240239D01*
X90504524Y-88335477D01*
X90409286Y-88383096D01*
X89456905Y-86811381D02*
X89456905Y-85811381D01*
X89695001Y-85811381D01*
X89837858Y-85859001D01*
X89933096Y-85954239D01*
X89980715Y-86049477D01*
X90028334Y-86239953D01*
X90028334Y-86382810D01*
X89980715Y-86573286D01*
X89933096Y-86668524D01*
X89837858Y-86763762D01*
X89695001Y-86811381D01*
X89456905Y-86811381D01*
X90980715Y-86811381D02*
X90409286Y-86811381D01*
X90695001Y-86811381D02*
X90695001Y-85811381D01*
X90599762Y-85954239D01*
X90504524Y-86049477D01*
X90409286Y-86097096D01*
X89790239Y-129213572D02*
X89933096Y-129261191D01*
X89980715Y-129308810D01*
X90028334Y-129404048D01*
X90028334Y-129546905D01*
X89980715Y-129642143D01*
X89933096Y-129689762D01*
X89837858Y-129737381D01*
X89456905Y-129737381D01*
X89456905Y-128737381D01*
X89790239Y-128737381D01*
X89885477Y-128785001D01*
X89933096Y-128832620D01*
X89980715Y-128927858D01*
X89980715Y-129023096D01*
X89933096Y-129118334D01*
X89885477Y-129165953D01*
X89790239Y-129213572D01*
X89456905Y-129213572D01*
X90980715Y-129737381D02*
X90409286Y-129737381D01*
X90695001Y-129737381D02*
X90695001Y-128737381D01*
X90599762Y-128880239D01*
X90504524Y-128975477D01*
X90409286Y-129023096D01*
X89480715Y-131991667D02*
X89956905Y-131991667D01*
X89385477Y-132277381D02*
X89718810Y-131277381D01*
X90052143Y-132277381D01*
X90909286Y-132277381D02*
X90337858Y-132277381D01*
X90623572Y-132277381D02*
X90623572Y-131277381D01*
X90528334Y-131420239D01*
X90433096Y-131515477D01*
X90337858Y-131563096D01*
G04 #@! TO.C,U2*
X99040674Y-113469912D02*
X99231150Y-113469912D01*
X99326388Y-113517532D01*
X99421627Y-113612770D01*
X99469246Y-113803246D01*
X99469246Y-114136579D01*
X99421627Y-114327055D01*
X99326388Y-114422293D01*
X99231150Y-114469912D01*
X99040674Y-114469912D01*
X98945436Y-114422293D01*
X98850198Y-114327055D01*
X98802579Y-114136579D01*
X98802579Y-113803246D01*
X98850198Y-113612770D01*
X98945436Y-113517532D01*
X99040674Y-113469912D01*
X99897817Y-114469912D02*
X99897817Y-113469912D01*
X100469246Y-114469912D02*
X100040674Y-113898484D01*
X100469246Y-113469912D02*
X99897817Y-114041341D01*
X100897817Y-114469912D02*
X100897817Y-113469912D01*
G04 #@! TO.C,C1*
X93987325Y-111863142D02*
X93939706Y-111910761D01*
X93796849Y-111958380D01*
X93701611Y-111958380D01*
X93558753Y-111910761D01*
X93463515Y-111815523D01*
X93415896Y-111720285D01*
X93368277Y-111529809D01*
X93368277Y-111386952D01*
X93415896Y-111196476D01*
X93463515Y-111101238D01*
X93558753Y-111006000D01*
X93701611Y-110958380D01*
X93796849Y-110958380D01*
X93939706Y-111006000D01*
X93987325Y-111053619D01*
X94939706Y-111958380D02*
X94368277Y-111958380D01*
X94653992Y-111958380D02*
X94653992Y-110958380D01*
X94558753Y-111101238D01*
X94463515Y-111196476D01*
X94368277Y-111244095D01*
G04 #@! TO.C,C2*
X103465333Y-111863142D02*
X103417714Y-111910761D01*
X103274857Y-111958380D01*
X103179619Y-111958380D01*
X103036761Y-111910761D01*
X102941523Y-111815523D01*
X102893904Y-111720285D01*
X102846285Y-111529809D01*
X102846285Y-111386952D01*
X102893904Y-111196476D01*
X102941523Y-111101238D01*
X103036761Y-111006000D01*
X103179619Y-110958380D01*
X103274857Y-110958380D01*
X103417714Y-111006000D01*
X103465333Y-111053619D01*
X103846285Y-111053619D02*
X103893904Y-111006000D01*
X103989142Y-110958380D01*
X104227238Y-110958380D01*
X104322476Y-111006000D01*
X104370095Y-111053619D01*
X104417714Y-111148857D01*
X104417714Y-111244095D01*
X104370095Y-111386952D01*
X103798666Y-111958380D01*
X104417714Y-111958380D01*
G04 #@! TO.C,C3*
X73239333Y-104497142D02*
X73191714Y-104544761D01*
X73048857Y-104592380D01*
X72953619Y-104592380D01*
X72810761Y-104544761D01*
X72715523Y-104449523D01*
X72667904Y-104354285D01*
X72620285Y-104163809D01*
X72620285Y-104020952D01*
X72667904Y-103830476D01*
X72715523Y-103735238D01*
X72810761Y-103640000D01*
X72953619Y-103592380D01*
X73048857Y-103592380D01*
X73191714Y-103640000D01*
X73239333Y-103687619D01*
X73572666Y-103592380D02*
X74191714Y-103592380D01*
X73858380Y-103973333D01*
X74001238Y-103973333D01*
X74096476Y-104020952D01*
X74144095Y-104068571D01*
X74191714Y-104163809D01*
X74191714Y-104401904D01*
X74144095Y-104497142D01*
X74096476Y-104544761D01*
X74001238Y-104592380D01*
X73715523Y-104592380D01*
X73620285Y-104544761D01*
X73572666Y-104497142D01*
G04 #@! TO.C,C4*
X68921333Y-109577142D02*
X68873714Y-109624761D01*
X68730857Y-109672380D01*
X68635619Y-109672380D01*
X68492761Y-109624761D01*
X68397523Y-109529523D01*
X68349904Y-109434285D01*
X68302285Y-109243809D01*
X68302285Y-109100952D01*
X68349904Y-108910476D01*
X68397523Y-108815238D01*
X68492761Y-108720000D01*
X68635619Y-108672380D01*
X68730857Y-108672380D01*
X68873714Y-108720000D01*
X68921333Y-108767619D01*
X69778476Y-109005714D02*
X69778476Y-109672380D01*
X69540380Y-108624761D02*
X69302285Y-109339047D01*
X69921333Y-109339047D01*
G04 #@! TO.C,C5*
X68921333Y-105767142D02*
X68873714Y-105814761D01*
X68730857Y-105862380D01*
X68635619Y-105862380D01*
X68492761Y-105814761D01*
X68397523Y-105719523D01*
X68349904Y-105624285D01*
X68302285Y-105433809D01*
X68302285Y-105290952D01*
X68349904Y-105100476D01*
X68397523Y-105005238D01*
X68492761Y-104910000D01*
X68635619Y-104862380D01*
X68730857Y-104862380D01*
X68873714Y-104910000D01*
X68921333Y-104957619D01*
X69826095Y-104862380D02*
X69349904Y-104862380D01*
X69302285Y-105338571D01*
X69349904Y-105290952D01*
X69445142Y-105243333D01*
X69683238Y-105243333D01*
X69778476Y-105290952D01*
X69826095Y-105338571D01*
X69873714Y-105433809D01*
X69873714Y-105671904D01*
X69826095Y-105767142D01*
X69778476Y-105814761D01*
X69683238Y-105862380D01*
X69445142Y-105862380D01*
X69349904Y-105814761D01*
X69302285Y-105767142D01*
G04 #@! TO.C,C6*
X73493333Y-108307142D02*
X73445714Y-108354761D01*
X73302857Y-108402380D01*
X73207619Y-108402380D01*
X73064761Y-108354761D01*
X72969523Y-108259523D01*
X72921904Y-108164285D01*
X72874285Y-107973809D01*
X72874285Y-107830952D01*
X72921904Y-107640476D01*
X72969523Y-107545238D01*
X73064761Y-107450000D01*
X73207619Y-107402380D01*
X73302857Y-107402380D01*
X73445714Y-107450000D01*
X73493333Y-107497619D01*
X74350476Y-107402380D02*
X74160000Y-107402380D01*
X74064761Y-107450000D01*
X74017142Y-107497619D01*
X73921904Y-107640476D01*
X73874285Y-107830952D01*
X73874285Y-108211904D01*
X73921904Y-108307142D01*
X73969523Y-108354761D01*
X74064761Y-108402380D01*
X74255238Y-108402380D01*
X74350476Y-108354761D01*
X74398095Y-108307142D01*
X74445714Y-108211904D01*
X74445714Y-107973809D01*
X74398095Y-107878571D01*
X74350476Y-107830952D01*
X74255238Y-107783333D01*
X74064761Y-107783333D01*
X73969523Y-107830952D01*
X73921904Y-107878571D01*
X73874285Y-107973809D01*
G04 #@! TO.C,U3*
X83218095Y-100767380D02*
X83218095Y-101576904D01*
X83265714Y-101672142D01*
X83313333Y-101719761D01*
X83408571Y-101767380D01*
X83599047Y-101767380D01*
X83694285Y-101719761D01*
X83741904Y-101672142D01*
X83789523Y-101576904D01*
X83789523Y-100767380D01*
X84170476Y-100767380D02*
X84789523Y-100767380D01*
X84456190Y-101148333D01*
X84599047Y-101148333D01*
X84694285Y-101195952D01*
X84741904Y-101243571D01*
X84789523Y-101338809D01*
X84789523Y-101576904D01*
X84741904Y-101672142D01*
X84694285Y-101719761D01*
X84599047Y-101767380D01*
X84313333Y-101767380D01*
X84218095Y-101719761D01*
X84170476Y-101672142D01*
G04 #@! TD*
M02*
