G04 #@! TF.GenerationSoftware,KiCad,Pcbnew,(5.0.0)*
G04 #@! TF.CreationDate,2018-09-29T14:24:20-05:00*
G04 #@! TF.ProjectId,DriveBoard_Hardware,4472697665426F6172645F4861726477,rev?*
G04 #@! TF.SameCoordinates,Original*
G04 #@! TF.FileFunction,Profile,NP*
%FSLAX46Y46*%
G04 Gerber Fmt 4.6, Leading zero omitted, Abs format (unit mm)*
G04 Created by KiCad (PCBNEW (5.0.0)) date 09/29/18 14:24:20*
%MOMM*%
%LPD*%
G01*
G04 APERTURE LIST*
%ADD10C,0.150000*%
G04 APERTURE END LIST*
D10*
X148590000Y-138176000D02*
X148590000Y-130048000D01*
X148590000Y-150876000D02*
X148590000Y-142240000D01*
X89662000Y-152908000D02*
X146558000Y-152908000D01*
X87630000Y-142240000D02*
X87630000Y-150876000D01*
X87630000Y-138176000D02*
X87630000Y-63690500D01*
X87630000Y-138176000D02*
G75*
G02X89662000Y-140208000I0J-2032000D01*
G01*
X89662000Y-140208000D02*
G75*
G02X87630000Y-142240000I-2032000J0D01*
G01*
X89662000Y-152908000D02*
G75*
G02X87630000Y-150876000I0J2032000D01*
G01*
X148590000Y-150876000D02*
G75*
G02X146558000Y-152908000I-2032000J0D01*
G01*
X148590000Y-142240000D02*
G75*
G02X146558000Y-140208000I0J2032000D01*
G01*
X146558000Y-140208000D02*
G75*
G02X148590000Y-138176000I2032000J0D01*
G01*
X146558000Y-128016000D02*
G75*
G02X148590000Y-130048000I0J-2032000D01*
G01*
X130810000Y-128016000D02*
X146558000Y-128016000D01*
X130810000Y-107188000D02*
X130810000Y-128016000D01*
X146558000Y-107188000D02*
X130810000Y-107188000D01*
X148590000Y-63690500D02*
X148590000Y-105156000D01*
X89662000Y-61658500D02*
X146558000Y-61658500D01*
X146558000Y-61658500D02*
G75*
G02X148590000Y-63690500I0J-2032000D01*
G01*
X87630000Y-63690500D02*
G75*
G02X89662000Y-61658500I2032000J0D01*
G01*
X148590000Y-105156000D02*
G75*
G02X146558000Y-107188000I-2032000J0D01*
G01*
M02*
