G04 #@! TF.GenerationSoftware,KiCad,Pcbnew,(5.0.0)*
G04 #@! TF.CreationDate,2018-10-03T21:48:04-05:00*
G04 #@! TF.ProjectId,DriveBoard_Hardware,4472697665426F6172645F4861726477,rev?*
G04 #@! TF.SameCoordinates,Original*
G04 #@! TF.FileFunction,Soldermask,Top*
G04 #@! TF.FilePolarity,Negative*
%FSLAX46Y46*%
G04 Gerber Fmt 4.6, Leading zero omitted, Abs format (unit mm)*
G04 Created by KiCad (PCBNEW (5.0.0)) date 10/03/18 21:48:04*
%MOMM*%
%LPD*%
G01*
G04 APERTURE LIST*
%ADD10R,1.900000X1.000000*%
%ADD11C,1.920000*%
%ADD12C,0.100000*%
%ADD13C,1.350000*%
%ADD14C,5.480000*%
%ADD15C,1.924000*%
%ADD16C,3.850000*%
G04 APERTURE END LIST*
D10*
G04 #@! TO.C,U2*
X130650000Y-89535000D03*
X130650000Y-90805000D03*
X130650000Y-92075000D03*
X130650000Y-93345000D03*
X130650000Y-94615000D03*
X130650000Y-95885000D03*
X130650000Y-97155000D03*
X130650000Y-98425000D03*
X136050000Y-98425000D03*
X136050000Y-97155000D03*
X136050000Y-95885000D03*
X136050000Y-94615000D03*
X136050000Y-93345000D03*
X136050000Y-92075000D03*
X136050000Y-90805000D03*
X136050000Y-89535000D03*
G04 #@! TD*
D11*
G04 #@! TO.C,U1*
X118389001Y-74675001D03*
X115849001Y-74675001D03*
X113309001Y-74675001D03*
X136169001Y-77215001D03*
X133629001Y-77215001D03*
X131089001Y-77215001D03*
X128549001Y-77215001D03*
X126009001Y-77215001D03*
X123469001Y-77215001D03*
X120929001Y-77215001D03*
X118389001Y-77215001D03*
X115849001Y-77215001D03*
X113309001Y-77215001D03*
X136169001Y-120395001D03*
X131089001Y-120395001D03*
X126009001Y-120395001D03*
X123469001Y-120395001D03*
X120929001Y-120395001D03*
X118389001Y-120395001D03*
X115849001Y-120395001D03*
X136169001Y-117855001D03*
X131089001Y-117855001D03*
X120929001Y-117855001D03*
X118389001Y-117855001D03*
X115849001Y-117855001D03*
X113309001Y-117855001D03*
X126009001Y-117855001D03*
X128549001Y-117855001D03*
X133629001Y-120395001D03*
X120929001Y-74675001D03*
X123469001Y-74675001D03*
X133629001Y-117855001D03*
X128549001Y-120395001D03*
X131089001Y-74675001D03*
X128549001Y-74675001D03*
X123469001Y-117855001D03*
X126009001Y-74675001D03*
X133629001Y-74675001D03*
X136169001Y-74675001D03*
X113309001Y-120395001D03*
G04 #@! TD*
D12*
G04 #@! TO.C,C1*
G36*
X128408581Y-90131625D02*
X128441343Y-90136485D01*
X128473471Y-90144533D01*
X128504656Y-90155691D01*
X128534596Y-90169852D01*
X128563005Y-90186879D01*
X128589608Y-90206609D01*
X128614149Y-90228851D01*
X128636391Y-90253392D01*
X128656121Y-90279995D01*
X128673148Y-90308404D01*
X128687309Y-90338344D01*
X128698467Y-90369529D01*
X128706515Y-90401657D01*
X128711375Y-90434419D01*
X128713000Y-90467500D01*
X128713000Y-91142500D01*
X128711375Y-91175581D01*
X128706515Y-91208343D01*
X128698467Y-91240471D01*
X128687309Y-91271656D01*
X128673148Y-91301596D01*
X128656121Y-91330005D01*
X128636391Y-91356608D01*
X128614149Y-91381149D01*
X128589608Y-91403391D01*
X128563005Y-91423121D01*
X128534596Y-91440148D01*
X128504656Y-91454309D01*
X128473471Y-91465467D01*
X128441343Y-91473515D01*
X128408581Y-91478375D01*
X128375500Y-91480000D01*
X127600500Y-91480000D01*
X127567419Y-91478375D01*
X127534657Y-91473515D01*
X127502529Y-91465467D01*
X127471344Y-91454309D01*
X127441404Y-91440148D01*
X127412995Y-91423121D01*
X127386392Y-91403391D01*
X127361851Y-91381149D01*
X127339609Y-91356608D01*
X127319879Y-91330005D01*
X127302852Y-91301596D01*
X127288691Y-91271656D01*
X127277533Y-91240471D01*
X127269485Y-91208343D01*
X127264625Y-91175581D01*
X127263000Y-91142500D01*
X127263000Y-90467500D01*
X127264625Y-90434419D01*
X127269485Y-90401657D01*
X127277533Y-90369529D01*
X127288691Y-90338344D01*
X127302852Y-90308404D01*
X127319879Y-90279995D01*
X127339609Y-90253392D01*
X127361851Y-90228851D01*
X127386392Y-90206609D01*
X127412995Y-90186879D01*
X127441404Y-90169852D01*
X127471344Y-90155691D01*
X127502529Y-90144533D01*
X127534657Y-90136485D01*
X127567419Y-90131625D01*
X127600500Y-90130000D01*
X128375500Y-90130000D01*
X128408581Y-90131625D01*
X128408581Y-90131625D01*
G37*
D13*
X127988000Y-90805000D03*
D12*
G36*
X126658581Y-90131625D02*
X126691343Y-90136485D01*
X126723471Y-90144533D01*
X126754656Y-90155691D01*
X126784596Y-90169852D01*
X126813005Y-90186879D01*
X126839608Y-90206609D01*
X126864149Y-90228851D01*
X126886391Y-90253392D01*
X126906121Y-90279995D01*
X126923148Y-90308404D01*
X126937309Y-90338344D01*
X126948467Y-90369529D01*
X126956515Y-90401657D01*
X126961375Y-90434419D01*
X126963000Y-90467500D01*
X126963000Y-91142500D01*
X126961375Y-91175581D01*
X126956515Y-91208343D01*
X126948467Y-91240471D01*
X126937309Y-91271656D01*
X126923148Y-91301596D01*
X126906121Y-91330005D01*
X126886391Y-91356608D01*
X126864149Y-91381149D01*
X126839608Y-91403391D01*
X126813005Y-91423121D01*
X126784596Y-91440148D01*
X126754656Y-91454309D01*
X126723471Y-91465467D01*
X126691343Y-91473515D01*
X126658581Y-91478375D01*
X126625500Y-91480000D01*
X125850500Y-91480000D01*
X125817419Y-91478375D01*
X125784657Y-91473515D01*
X125752529Y-91465467D01*
X125721344Y-91454309D01*
X125691404Y-91440148D01*
X125662995Y-91423121D01*
X125636392Y-91403391D01*
X125611851Y-91381149D01*
X125589609Y-91356608D01*
X125569879Y-91330005D01*
X125552852Y-91301596D01*
X125538691Y-91271656D01*
X125527533Y-91240471D01*
X125519485Y-91208343D01*
X125514625Y-91175581D01*
X125513000Y-91142500D01*
X125513000Y-90467500D01*
X125514625Y-90434419D01*
X125519485Y-90401657D01*
X125527533Y-90369529D01*
X125538691Y-90338344D01*
X125552852Y-90308404D01*
X125569879Y-90279995D01*
X125589609Y-90253392D01*
X125611851Y-90228851D01*
X125636392Y-90206609D01*
X125662995Y-90186879D01*
X125691404Y-90169852D01*
X125721344Y-90155691D01*
X125752529Y-90144533D01*
X125784657Y-90136485D01*
X125817419Y-90131625D01*
X125850500Y-90130000D01*
X126625500Y-90130000D01*
X126658581Y-90131625D01*
X126658581Y-90131625D01*
G37*
D13*
X126238000Y-90805000D03*
G04 #@! TD*
D12*
G04 #@! TO.C,C2*
G36*
X139245581Y-70446625D02*
X139278343Y-70451485D01*
X139310471Y-70459533D01*
X139341656Y-70470691D01*
X139371596Y-70484852D01*
X139400005Y-70501879D01*
X139426608Y-70521609D01*
X139451149Y-70543851D01*
X139473391Y-70568392D01*
X139493121Y-70594995D01*
X139510148Y-70623404D01*
X139524309Y-70653344D01*
X139535467Y-70684529D01*
X139543515Y-70716657D01*
X139548375Y-70749419D01*
X139550000Y-70782500D01*
X139550000Y-71457500D01*
X139548375Y-71490581D01*
X139543515Y-71523343D01*
X139535467Y-71555471D01*
X139524309Y-71586656D01*
X139510148Y-71616596D01*
X139493121Y-71645005D01*
X139473391Y-71671608D01*
X139451149Y-71696149D01*
X139426608Y-71718391D01*
X139400005Y-71738121D01*
X139371596Y-71755148D01*
X139341656Y-71769309D01*
X139310471Y-71780467D01*
X139278343Y-71788515D01*
X139245581Y-71793375D01*
X139212500Y-71795000D01*
X138437500Y-71795000D01*
X138404419Y-71793375D01*
X138371657Y-71788515D01*
X138339529Y-71780467D01*
X138308344Y-71769309D01*
X138278404Y-71755148D01*
X138249995Y-71738121D01*
X138223392Y-71718391D01*
X138198851Y-71696149D01*
X138176609Y-71671608D01*
X138156879Y-71645005D01*
X138139852Y-71616596D01*
X138125691Y-71586656D01*
X138114533Y-71555471D01*
X138106485Y-71523343D01*
X138101625Y-71490581D01*
X138100000Y-71457500D01*
X138100000Y-70782500D01*
X138101625Y-70749419D01*
X138106485Y-70716657D01*
X138114533Y-70684529D01*
X138125691Y-70653344D01*
X138139852Y-70623404D01*
X138156879Y-70594995D01*
X138176609Y-70568392D01*
X138198851Y-70543851D01*
X138223392Y-70521609D01*
X138249995Y-70501879D01*
X138278404Y-70484852D01*
X138308344Y-70470691D01*
X138339529Y-70459533D01*
X138371657Y-70451485D01*
X138404419Y-70446625D01*
X138437500Y-70445000D01*
X139212500Y-70445000D01*
X139245581Y-70446625D01*
X139245581Y-70446625D01*
G37*
D13*
X138825000Y-71120000D03*
D12*
G36*
X140995581Y-70446625D02*
X141028343Y-70451485D01*
X141060471Y-70459533D01*
X141091656Y-70470691D01*
X141121596Y-70484852D01*
X141150005Y-70501879D01*
X141176608Y-70521609D01*
X141201149Y-70543851D01*
X141223391Y-70568392D01*
X141243121Y-70594995D01*
X141260148Y-70623404D01*
X141274309Y-70653344D01*
X141285467Y-70684529D01*
X141293515Y-70716657D01*
X141298375Y-70749419D01*
X141300000Y-70782500D01*
X141300000Y-71457500D01*
X141298375Y-71490581D01*
X141293515Y-71523343D01*
X141285467Y-71555471D01*
X141274309Y-71586656D01*
X141260148Y-71616596D01*
X141243121Y-71645005D01*
X141223391Y-71671608D01*
X141201149Y-71696149D01*
X141176608Y-71718391D01*
X141150005Y-71738121D01*
X141121596Y-71755148D01*
X141091656Y-71769309D01*
X141060471Y-71780467D01*
X141028343Y-71788515D01*
X140995581Y-71793375D01*
X140962500Y-71795000D01*
X140187500Y-71795000D01*
X140154419Y-71793375D01*
X140121657Y-71788515D01*
X140089529Y-71780467D01*
X140058344Y-71769309D01*
X140028404Y-71755148D01*
X139999995Y-71738121D01*
X139973392Y-71718391D01*
X139948851Y-71696149D01*
X139926609Y-71671608D01*
X139906879Y-71645005D01*
X139889852Y-71616596D01*
X139875691Y-71586656D01*
X139864533Y-71555471D01*
X139856485Y-71523343D01*
X139851625Y-71490581D01*
X139850000Y-71457500D01*
X139850000Y-70782500D01*
X139851625Y-70749419D01*
X139856485Y-70716657D01*
X139864533Y-70684529D01*
X139875691Y-70653344D01*
X139889852Y-70623404D01*
X139906879Y-70594995D01*
X139926609Y-70568392D01*
X139948851Y-70543851D01*
X139973392Y-70521609D01*
X139999995Y-70501879D01*
X140028404Y-70484852D01*
X140058344Y-70470691D01*
X140089529Y-70459533D01*
X140121657Y-70451485D01*
X140154419Y-70446625D01*
X140187500Y-70445000D01*
X140962500Y-70445000D01*
X140995581Y-70446625D01*
X140995581Y-70446625D01*
G37*
D13*
X140575000Y-71120000D03*
G04 #@! TD*
D12*
G04 #@! TO.C,C3*
G36*
X153151581Y-58557625D02*
X153184343Y-58562485D01*
X153216471Y-58570533D01*
X153247656Y-58581691D01*
X153277596Y-58595852D01*
X153306005Y-58612879D01*
X153332608Y-58632609D01*
X153357149Y-58654851D01*
X153379391Y-58679392D01*
X153399121Y-58705995D01*
X153416148Y-58734404D01*
X153430309Y-58764344D01*
X153441467Y-58795529D01*
X153449515Y-58827657D01*
X153454375Y-58860419D01*
X153456000Y-58893500D01*
X153456000Y-59668500D01*
X153454375Y-59701581D01*
X153449515Y-59734343D01*
X153441467Y-59766471D01*
X153430309Y-59797656D01*
X153416148Y-59827596D01*
X153399121Y-59856005D01*
X153379391Y-59882608D01*
X153357149Y-59907149D01*
X153332608Y-59929391D01*
X153306005Y-59949121D01*
X153277596Y-59966148D01*
X153247656Y-59980309D01*
X153216471Y-59991467D01*
X153184343Y-59999515D01*
X153151581Y-60004375D01*
X153118500Y-60006000D01*
X152443500Y-60006000D01*
X152410419Y-60004375D01*
X152377657Y-59999515D01*
X152345529Y-59991467D01*
X152314344Y-59980309D01*
X152284404Y-59966148D01*
X152255995Y-59949121D01*
X152229392Y-59929391D01*
X152204851Y-59907149D01*
X152182609Y-59882608D01*
X152162879Y-59856005D01*
X152145852Y-59827596D01*
X152131691Y-59797656D01*
X152120533Y-59766471D01*
X152112485Y-59734343D01*
X152107625Y-59701581D01*
X152106000Y-59668500D01*
X152106000Y-58893500D01*
X152107625Y-58860419D01*
X152112485Y-58827657D01*
X152120533Y-58795529D01*
X152131691Y-58764344D01*
X152145852Y-58734404D01*
X152162879Y-58705995D01*
X152182609Y-58679392D01*
X152204851Y-58654851D01*
X152229392Y-58632609D01*
X152255995Y-58612879D01*
X152284404Y-58595852D01*
X152314344Y-58581691D01*
X152345529Y-58570533D01*
X152377657Y-58562485D01*
X152410419Y-58557625D01*
X152443500Y-58556000D01*
X153118500Y-58556000D01*
X153151581Y-58557625D01*
X153151581Y-58557625D01*
G37*
D13*
X152781000Y-59281000D03*
D12*
G36*
X153151581Y-56807625D02*
X153184343Y-56812485D01*
X153216471Y-56820533D01*
X153247656Y-56831691D01*
X153277596Y-56845852D01*
X153306005Y-56862879D01*
X153332608Y-56882609D01*
X153357149Y-56904851D01*
X153379391Y-56929392D01*
X153399121Y-56955995D01*
X153416148Y-56984404D01*
X153430309Y-57014344D01*
X153441467Y-57045529D01*
X153449515Y-57077657D01*
X153454375Y-57110419D01*
X153456000Y-57143500D01*
X153456000Y-57918500D01*
X153454375Y-57951581D01*
X153449515Y-57984343D01*
X153441467Y-58016471D01*
X153430309Y-58047656D01*
X153416148Y-58077596D01*
X153399121Y-58106005D01*
X153379391Y-58132608D01*
X153357149Y-58157149D01*
X153332608Y-58179391D01*
X153306005Y-58199121D01*
X153277596Y-58216148D01*
X153247656Y-58230309D01*
X153216471Y-58241467D01*
X153184343Y-58249515D01*
X153151581Y-58254375D01*
X153118500Y-58256000D01*
X152443500Y-58256000D01*
X152410419Y-58254375D01*
X152377657Y-58249515D01*
X152345529Y-58241467D01*
X152314344Y-58230309D01*
X152284404Y-58216148D01*
X152255995Y-58199121D01*
X152229392Y-58179391D01*
X152204851Y-58157149D01*
X152182609Y-58132608D01*
X152162879Y-58106005D01*
X152145852Y-58077596D01*
X152131691Y-58047656D01*
X152120533Y-58016471D01*
X152112485Y-57984343D01*
X152107625Y-57951581D01*
X152106000Y-57918500D01*
X152106000Y-57143500D01*
X152107625Y-57110419D01*
X152112485Y-57077657D01*
X152120533Y-57045529D01*
X152131691Y-57014344D01*
X152145852Y-56984404D01*
X152162879Y-56955995D01*
X152182609Y-56929392D01*
X152204851Y-56904851D01*
X152229392Y-56882609D01*
X152255995Y-56862879D01*
X152284404Y-56845852D01*
X152314344Y-56831691D01*
X152345529Y-56820533D01*
X152377657Y-56812485D01*
X152410419Y-56807625D01*
X152443500Y-56806000D01*
X153118500Y-56806000D01*
X153151581Y-56807625D01*
X153151581Y-56807625D01*
G37*
D13*
X152781000Y-57531000D03*
G04 #@! TD*
D12*
G04 #@! TO.C,C4*
G36*
X121338581Y-91655625D02*
X121371343Y-91660485D01*
X121403471Y-91668533D01*
X121434656Y-91679691D01*
X121464596Y-91693852D01*
X121493005Y-91710879D01*
X121519608Y-91730609D01*
X121544149Y-91752851D01*
X121566391Y-91777392D01*
X121586121Y-91803995D01*
X121603148Y-91832404D01*
X121617309Y-91862344D01*
X121628467Y-91893529D01*
X121636515Y-91925657D01*
X121641375Y-91958419D01*
X121643000Y-91991500D01*
X121643000Y-92666500D01*
X121641375Y-92699581D01*
X121636515Y-92732343D01*
X121628467Y-92764471D01*
X121617309Y-92795656D01*
X121603148Y-92825596D01*
X121586121Y-92854005D01*
X121566391Y-92880608D01*
X121544149Y-92905149D01*
X121519608Y-92927391D01*
X121493005Y-92947121D01*
X121464596Y-92964148D01*
X121434656Y-92978309D01*
X121403471Y-92989467D01*
X121371343Y-92997515D01*
X121338581Y-93002375D01*
X121305500Y-93004000D01*
X120530500Y-93004000D01*
X120497419Y-93002375D01*
X120464657Y-92997515D01*
X120432529Y-92989467D01*
X120401344Y-92978309D01*
X120371404Y-92964148D01*
X120342995Y-92947121D01*
X120316392Y-92927391D01*
X120291851Y-92905149D01*
X120269609Y-92880608D01*
X120249879Y-92854005D01*
X120232852Y-92825596D01*
X120218691Y-92795656D01*
X120207533Y-92764471D01*
X120199485Y-92732343D01*
X120194625Y-92699581D01*
X120193000Y-92666500D01*
X120193000Y-91991500D01*
X120194625Y-91958419D01*
X120199485Y-91925657D01*
X120207533Y-91893529D01*
X120218691Y-91862344D01*
X120232852Y-91832404D01*
X120249879Y-91803995D01*
X120269609Y-91777392D01*
X120291851Y-91752851D01*
X120316392Y-91730609D01*
X120342995Y-91710879D01*
X120371404Y-91693852D01*
X120401344Y-91679691D01*
X120432529Y-91668533D01*
X120464657Y-91660485D01*
X120497419Y-91655625D01*
X120530500Y-91654000D01*
X121305500Y-91654000D01*
X121338581Y-91655625D01*
X121338581Y-91655625D01*
G37*
D13*
X120918000Y-92329000D03*
D12*
G36*
X123088581Y-91655625D02*
X123121343Y-91660485D01*
X123153471Y-91668533D01*
X123184656Y-91679691D01*
X123214596Y-91693852D01*
X123243005Y-91710879D01*
X123269608Y-91730609D01*
X123294149Y-91752851D01*
X123316391Y-91777392D01*
X123336121Y-91803995D01*
X123353148Y-91832404D01*
X123367309Y-91862344D01*
X123378467Y-91893529D01*
X123386515Y-91925657D01*
X123391375Y-91958419D01*
X123393000Y-91991500D01*
X123393000Y-92666500D01*
X123391375Y-92699581D01*
X123386515Y-92732343D01*
X123378467Y-92764471D01*
X123367309Y-92795656D01*
X123353148Y-92825596D01*
X123336121Y-92854005D01*
X123316391Y-92880608D01*
X123294149Y-92905149D01*
X123269608Y-92927391D01*
X123243005Y-92947121D01*
X123214596Y-92964148D01*
X123184656Y-92978309D01*
X123153471Y-92989467D01*
X123121343Y-92997515D01*
X123088581Y-93002375D01*
X123055500Y-93004000D01*
X122280500Y-93004000D01*
X122247419Y-93002375D01*
X122214657Y-92997515D01*
X122182529Y-92989467D01*
X122151344Y-92978309D01*
X122121404Y-92964148D01*
X122092995Y-92947121D01*
X122066392Y-92927391D01*
X122041851Y-92905149D01*
X122019609Y-92880608D01*
X121999879Y-92854005D01*
X121982852Y-92825596D01*
X121968691Y-92795656D01*
X121957533Y-92764471D01*
X121949485Y-92732343D01*
X121944625Y-92699581D01*
X121943000Y-92666500D01*
X121943000Y-91991500D01*
X121944625Y-91958419D01*
X121949485Y-91925657D01*
X121957533Y-91893529D01*
X121968691Y-91862344D01*
X121982852Y-91832404D01*
X121999879Y-91803995D01*
X122019609Y-91777392D01*
X122041851Y-91752851D01*
X122066392Y-91730609D01*
X122092995Y-91710879D01*
X122121404Y-91693852D01*
X122151344Y-91679691D01*
X122182529Y-91668533D01*
X122214657Y-91660485D01*
X122247419Y-91655625D01*
X122280500Y-91654000D01*
X123055500Y-91654000D01*
X123088581Y-91655625D01*
X123088581Y-91655625D01*
G37*
D13*
X122668000Y-92329000D03*
G04 #@! TD*
D12*
G04 #@! TO.C,C5*
G36*
X126707523Y-94391270D02*
X126740285Y-94396130D01*
X126772413Y-94404178D01*
X126803598Y-94415336D01*
X126833538Y-94429497D01*
X126861947Y-94446524D01*
X126888550Y-94466254D01*
X126913091Y-94488496D01*
X126935333Y-94513037D01*
X126955063Y-94539640D01*
X126972090Y-94568049D01*
X126986251Y-94597989D01*
X126997409Y-94629174D01*
X127005457Y-94661302D01*
X127010317Y-94694064D01*
X127011942Y-94727145D01*
X127011942Y-95502145D01*
X127010317Y-95535226D01*
X127005457Y-95567988D01*
X126997409Y-95600116D01*
X126986251Y-95631301D01*
X126972090Y-95661241D01*
X126955063Y-95689650D01*
X126935333Y-95716253D01*
X126913091Y-95740794D01*
X126888550Y-95763036D01*
X126861947Y-95782766D01*
X126833538Y-95799793D01*
X126803598Y-95813954D01*
X126772413Y-95825112D01*
X126740285Y-95833160D01*
X126707523Y-95838020D01*
X126674442Y-95839645D01*
X125999442Y-95839645D01*
X125966361Y-95838020D01*
X125933599Y-95833160D01*
X125901471Y-95825112D01*
X125870286Y-95813954D01*
X125840346Y-95799793D01*
X125811937Y-95782766D01*
X125785334Y-95763036D01*
X125760793Y-95740794D01*
X125738551Y-95716253D01*
X125718821Y-95689650D01*
X125701794Y-95661241D01*
X125687633Y-95631301D01*
X125676475Y-95600116D01*
X125668427Y-95567988D01*
X125663567Y-95535226D01*
X125661942Y-95502145D01*
X125661942Y-94727145D01*
X125663567Y-94694064D01*
X125668427Y-94661302D01*
X125676475Y-94629174D01*
X125687633Y-94597989D01*
X125701794Y-94568049D01*
X125718821Y-94539640D01*
X125738551Y-94513037D01*
X125760793Y-94488496D01*
X125785334Y-94466254D01*
X125811937Y-94446524D01*
X125840346Y-94429497D01*
X125870286Y-94415336D01*
X125901471Y-94404178D01*
X125933599Y-94396130D01*
X125966361Y-94391270D01*
X125999442Y-94389645D01*
X126674442Y-94389645D01*
X126707523Y-94391270D01*
X126707523Y-94391270D01*
G37*
D13*
X126336942Y-95114645D03*
D12*
G36*
X126707523Y-92641270D02*
X126740285Y-92646130D01*
X126772413Y-92654178D01*
X126803598Y-92665336D01*
X126833538Y-92679497D01*
X126861947Y-92696524D01*
X126888550Y-92716254D01*
X126913091Y-92738496D01*
X126935333Y-92763037D01*
X126955063Y-92789640D01*
X126972090Y-92818049D01*
X126986251Y-92847989D01*
X126997409Y-92879174D01*
X127005457Y-92911302D01*
X127010317Y-92944064D01*
X127011942Y-92977145D01*
X127011942Y-93752145D01*
X127010317Y-93785226D01*
X127005457Y-93817988D01*
X126997409Y-93850116D01*
X126986251Y-93881301D01*
X126972090Y-93911241D01*
X126955063Y-93939650D01*
X126935333Y-93966253D01*
X126913091Y-93990794D01*
X126888550Y-94013036D01*
X126861947Y-94032766D01*
X126833538Y-94049793D01*
X126803598Y-94063954D01*
X126772413Y-94075112D01*
X126740285Y-94083160D01*
X126707523Y-94088020D01*
X126674442Y-94089645D01*
X125999442Y-94089645D01*
X125966361Y-94088020D01*
X125933599Y-94083160D01*
X125901471Y-94075112D01*
X125870286Y-94063954D01*
X125840346Y-94049793D01*
X125811937Y-94032766D01*
X125785334Y-94013036D01*
X125760793Y-93990794D01*
X125738551Y-93966253D01*
X125718821Y-93939650D01*
X125701794Y-93911241D01*
X125687633Y-93881301D01*
X125676475Y-93850116D01*
X125668427Y-93817988D01*
X125663567Y-93785226D01*
X125661942Y-93752145D01*
X125661942Y-92977145D01*
X125663567Y-92944064D01*
X125668427Y-92911302D01*
X125676475Y-92879174D01*
X125687633Y-92847989D01*
X125701794Y-92818049D01*
X125718821Y-92789640D01*
X125738551Y-92763037D01*
X125760793Y-92738496D01*
X125785334Y-92716254D01*
X125811937Y-92696524D01*
X125840346Y-92679497D01*
X125870286Y-92665336D01*
X125901471Y-92654178D01*
X125933599Y-92646130D01*
X125966361Y-92641270D01*
X125999442Y-92639645D01*
X126674442Y-92639645D01*
X126707523Y-92641270D01*
X126707523Y-92641270D01*
G37*
D13*
X126336942Y-93364645D03*
G04 #@! TD*
D12*
G04 #@! TO.C,C6*
G36*
X121539181Y-87058225D02*
X121571943Y-87063085D01*
X121604071Y-87071133D01*
X121635256Y-87082291D01*
X121665196Y-87096452D01*
X121693605Y-87113479D01*
X121720208Y-87133209D01*
X121744749Y-87155451D01*
X121766991Y-87179992D01*
X121786721Y-87206595D01*
X121803748Y-87235004D01*
X121817909Y-87264944D01*
X121829067Y-87296129D01*
X121837115Y-87328257D01*
X121841975Y-87361019D01*
X121843600Y-87394100D01*
X121843600Y-88069100D01*
X121841975Y-88102181D01*
X121837115Y-88134943D01*
X121829067Y-88167071D01*
X121817909Y-88198256D01*
X121803748Y-88228196D01*
X121786721Y-88256605D01*
X121766991Y-88283208D01*
X121744749Y-88307749D01*
X121720208Y-88329991D01*
X121693605Y-88349721D01*
X121665196Y-88366748D01*
X121635256Y-88380909D01*
X121604071Y-88392067D01*
X121571943Y-88400115D01*
X121539181Y-88404975D01*
X121506100Y-88406600D01*
X120731100Y-88406600D01*
X120698019Y-88404975D01*
X120665257Y-88400115D01*
X120633129Y-88392067D01*
X120601944Y-88380909D01*
X120572004Y-88366748D01*
X120543595Y-88349721D01*
X120516992Y-88329991D01*
X120492451Y-88307749D01*
X120470209Y-88283208D01*
X120450479Y-88256605D01*
X120433452Y-88228196D01*
X120419291Y-88198256D01*
X120408133Y-88167071D01*
X120400085Y-88134943D01*
X120395225Y-88102181D01*
X120393600Y-88069100D01*
X120393600Y-87394100D01*
X120395225Y-87361019D01*
X120400085Y-87328257D01*
X120408133Y-87296129D01*
X120419291Y-87264944D01*
X120433452Y-87235004D01*
X120450479Y-87206595D01*
X120470209Y-87179992D01*
X120492451Y-87155451D01*
X120516992Y-87133209D01*
X120543595Y-87113479D01*
X120572004Y-87096452D01*
X120601944Y-87082291D01*
X120633129Y-87071133D01*
X120665257Y-87063085D01*
X120698019Y-87058225D01*
X120731100Y-87056600D01*
X121506100Y-87056600D01*
X121539181Y-87058225D01*
X121539181Y-87058225D01*
G37*
D13*
X121118600Y-87731600D03*
D12*
G36*
X119789181Y-87058225D02*
X119821943Y-87063085D01*
X119854071Y-87071133D01*
X119885256Y-87082291D01*
X119915196Y-87096452D01*
X119943605Y-87113479D01*
X119970208Y-87133209D01*
X119994749Y-87155451D01*
X120016991Y-87179992D01*
X120036721Y-87206595D01*
X120053748Y-87235004D01*
X120067909Y-87264944D01*
X120079067Y-87296129D01*
X120087115Y-87328257D01*
X120091975Y-87361019D01*
X120093600Y-87394100D01*
X120093600Y-88069100D01*
X120091975Y-88102181D01*
X120087115Y-88134943D01*
X120079067Y-88167071D01*
X120067909Y-88198256D01*
X120053748Y-88228196D01*
X120036721Y-88256605D01*
X120016991Y-88283208D01*
X119994749Y-88307749D01*
X119970208Y-88329991D01*
X119943605Y-88349721D01*
X119915196Y-88366748D01*
X119885256Y-88380909D01*
X119854071Y-88392067D01*
X119821943Y-88400115D01*
X119789181Y-88404975D01*
X119756100Y-88406600D01*
X118981100Y-88406600D01*
X118948019Y-88404975D01*
X118915257Y-88400115D01*
X118883129Y-88392067D01*
X118851944Y-88380909D01*
X118822004Y-88366748D01*
X118793595Y-88349721D01*
X118766992Y-88329991D01*
X118742451Y-88307749D01*
X118720209Y-88283208D01*
X118700479Y-88256605D01*
X118683452Y-88228196D01*
X118669291Y-88198256D01*
X118658133Y-88167071D01*
X118650085Y-88134943D01*
X118645225Y-88102181D01*
X118643600Y-88069100D01*
X118643600Y-87394100D01*
X118645225Y-87361019D01*
X118650085Y-87328257D01*
X118658133Y-87296129D01*
X118669291Y-87264944D01*
X118683452Y-87235004D01*
X118700479Y-87206595D01*
X118720209Y-87179992D01*
X118742451Y-87155451D01*
X118766992Y-87133209D01*
X118793595Y-87113479D01*
X118822004Y-87096452D01*
X118851944Y-87082291D01*
X118883129Y-87071133D01*
X118915257Y-87063085D01*
X118948019Y-87058225D01*
X118981100Y-87056600D01*
X119756100Y-87056600D01*
X119789181Y-87058225D01*
X119789181Y-87058225D01*
G37*
D13*
X119368600Y-87731600D03*
G04 #@! TD*
D14*
G04 #@! TO.C,Conn1*
X143281400Y-60707000D03*
X143281400Y-52706000D03*
G04 #@! TD*
D15*
G04 #@! TO.C,Conn2*
X157480000Y-68580000D03*
X157480000Y-71120000D03*
X157480000Y-73660000D03*
X157480000Y-76200000D03*
X157480000Y-78740000D03*
D16*
X166116000Y-67310000D03*
X166116000Y-80010000D03*
G04 #@! TD*
G04 #@! TO.C,Conn3*
X166116000Y-97790000D03*
X166116000Y-85090000D03*
D15*
X157480000Y-96520000D03*
X157480000Y-93980000D03*
X157480000Y-91440000D03*
X157480000Y-88900000D03*
X157480000Y-86360000D03*
G04 #@! TD*
G04 #@! TO.C,U3*
X156819600Y-59334400D03*
X156819600Y-56794400D03*
X156819600Y-54254400D03*
G04 #@! TD*
M02*
