G04 #@! TF.GenerationSoftware,KiCad,Pcbnew,(5.0.0)*
G04 #@! TF.CreationDate,2018-10-03T22:17:31-05:00*
G04 #@! TF.ProjectId,DriveBoard_Hardware,4472697665426F6172645F4861726477,rev?*
G04 #@! TF.SameCoordinates,Original*
G04 #@! TF.FileFunction,Copper,L2,Bot,Signal*
G04 #@! TF.FilePolarity,Positive*
%FSLAX46Y46*%
G04 Gerber Fmt 4.6, Leading zero omitted, Abs format (unit mm)*
G04 Created by KiCad (PCBNEW (5.0.0)) date 10/03/18 22:17:31*
%MOMM*%
%LPD*%
G01*
G04 APERTURE LIST*
G04 #@! TA.AperFunction,ComponentPad*
%ADD10C,5.080000*%
G04 #@! TD*
G04 #@! TA.AperFunction,ComponentPad*
%ADD11C,1.524000*%
G04 #@! TD*
G04 #@! TA.AperFunction,ComponentPad*
%ADD12C,1.520000*%
G04 #@! TD*
G04 #@! TA.AperFunction,ViaPad*
%ADD13C,0.800000*%
G04 #@! TD*
G04 #@! TA.AperFunction,Conductor*
%ADD14C,0.381000*%
G04 #@! TD*
G04 #@! TA.AperFunction,Conductor*
%ADD15C,0.254000*%
G04 #@! TD*
G04 APERTURE END LIST*
D10*
G04 #@! TO.P,Conn1,1*
G04 #@! TO.N,GND*
X84353400Y-93727000D03*
G04 #@! TO.P,Conn1,2*
G04 #@! TO.N,/+12V*
X84353400Y-85726000D03*
G04 #@! TD*
D11*
G04 #@! TO.P,Conn2,1*
G04 #@! TO.N,Net-(Conn2-Pad1)*
X78613000Y-65532000D03*
G04 #@! TO.P,Conn2,2*
G04 #@! TO.N,Net-(Conn2-Pad2)*
X81153000Y-65532000D03*
G04 #@! TO.P,Conn2,3*
G04 #@! TO.N,GND*
X83693000Y-65532000D03*
G04 #@! TO.P,Conn2,4*
G04 #@! TO.N,TX_1_SL*
X86233000Y-65532000D03*
G04 #@! TO.P,Conn2,5*
G04 #@! TO.N,RX_1_SL*
X88773000Y-65532000D03*
G04 #@! TD*
G04 #@! TO.P,Conn3,5*
G04 #@! TO.N,RX_2_SL*
X108077000Y-65532000D03*
G04 #@! TO.P,Conn3,4*
G04 #@! TO.N,TX_2_SL*
X105537000Y-65532000D03*
G04 #@! TO.P,Conn3,3*
G04 #@! TO.N,GND*
X102997000Y-65532000D03*
G04 #@! TO.P,Conn3,2*
G04 #@! TO.N,Net-(Conn3-Pad2)*
X100457000Y-65532000D03*
G04 #@! TO.P,Conn3,1*
G04 #@! TO.N,Net-(Conn3-Pad1)*
X97917000Y-65532000D03*
G04 #@! TD*
D12*
G04 #@! TO.P,U1,+3V3*
G04 #@! TO.N,Net-(U1-Pad+3V3)*
X73914000Y-117983000D03*
G04 #@! TO.P,U1,PM6*
G04 #@! TO.N,Net-(U1-PadPM6)*
X96774000Y-72263000D03*
G04 #@! TO.P,U1,PQ1*
G04 #@! TO.N,Net-(U1-PadPQ1)*
X94234000Y-72263000D03*
G04 #@! TO.P,U1,PQ2*
G04 #@! TO.N,Net-(U1-PadPQ2)*
X86614000Y-72263000D03*
G04 #@! TO.P,U1,PK0*
G04 #@! TO.N,RX_2_IC*
X84074000Y-115443000D03*
G04 #@! TO.P,U1,PQ3*
G04 #@! TO.N,Net-(U1-PadPQ3)*
X89154000Y-72263000D03*
G04 #@! TO.P,U1,PP3*
G04 #@! TO.N,Net-(U1-PadPP3)*
X91694000Y-72263000D03*
G04 #@! TO.P,U1,PQ0*
G04 #@! TO.N,Net-(U1-PadPQ0)*
X89154000Y-117983000D03*
G04 #@! TO.P,U1,PA4*
G04 #@! TO.N,Net-(U1-PadPA4)*
X94234000Y-115443000D03*
G04 #@! TO.P,U1,Rese*
G04 #@! TO.N,Net-(U1-PadRese)*
X84074000Y-72263000D03*
G04 #@! TO.P,U1,PA7*
G04 #@! TO.N,Net-(U1-PadPA7)*
X81534000Y-72263000D03*
G04 #@! TO.P,U1,PN5*
G04 #@! TO.N,Net-(U1-PadPN5)*
X94234000Y-117983000D03*
G04 #@! TO.P,U1,PK2*
G04 #@! TO.N,Net-(U1-PadPK2)*
X89154000Y-115443000D03*
G04 #@! TO.P,U1,PK1*
G04 #@! TO.N,TX_2_IC*
X86614000Y-115443000D03*
G04 #@! TO.P,U1,+5V*
G04 #@! TO.N,+5V*
X73914000Y-115443000D03*
G04 #@! TO.P,U1,GND*
G04 #@! TO.N,GND*
X76454000Y-115443000D03*
G04 #@! TO.P,U1,PB4*
G04 #@! TO.N,Net-(U1-PadPB4)*
X78994000Y-115443000D03*
G04 #@! TO.P,U1,PB5*
G04 #@! TO.N,Net-(U1-PadPB5)*
X81534000Y-115443000D03*
G04 #@! TO.P,U1,PK3*
G04 #@! TO.N,Net-(U1-PadPK3)*
X91694000Y-115443000D03*
G04 #@! TO.P,U1,PA5*
G04 #@! TO.N,Net-(U1-PadPA5)*
X96774000Y-115443000D03*
G04 #@! TO.P,U1,PD2*
G04 #@! TO.N,Net-(U1-PadPD2)*
X76454000Y-117983000D03*
G04 #@! TO.P,U1,PP0*
G04 #@! TO.N,RX_1_IC*
X78994000Y-117983000D03*
G04 #@! TO.P,U1,PP1*
G04 #@! TO.N,TX_1_IC*
X81534000Y-117983000D03*
G04 #@! TO.P,U1,PD4*
G04 #@! TO.N,Net-(U1-PadPD4)*
X84074000Y-117983000D03*
G04 #@! TO.P,U1,PD5*
G04 #@! TO.N,Net-(U1-PadPD5)*
X86614000Y-117983000D03*
G04 #@! TO.P,U1,PP4*
G04 #@! TO.N,Net-(U1-PadPP4)*
X91694000Y-117983000D03*
G04 #@! TO.P,U1,PN4*
G04 #@! TO.N,Net-(U1-PadPN4)*
X96774000Y-117983000D03*
G04 #@! TO.P,U1,PG1*
G04 #@! TO.N,Net-(U1-PadPG1)*
X73914000Y-74803000D03*
G04 #@! TO.P,U1,PK4*
G04 #@! TO.N,Net-(U1-PadPK4)*
X76454000Y-74803000D03*
G04 #@! TO.P,U1,PK5*
G04 #@! TO.N,Net-(U1-PadPK5)*
X78994000Y-74803000D03*
G04 #@! TO.P,U1,PM0*
G04 #@! TO.N,Net-(U1-PadPM0)*
X81534000Y-74803000D03*
G04 #@! TO.P,U1,PM1*
G04 #@! TO.N,Net-(U1-PadPM1)*
X84074000Y-74803000D03*
G04 #@! TO.P,U1,PM2*
G04 #@! TO.N,Net-(U1-PadPM2)*
X86614000Y-74803000D03*
G04 #@! TO.P,U1,PH0*
G04 #@! TO.N,Net-(U1-PadPH0)*
X89154000Y-74803000D03*
G04 #@! TO.P,U1,PH1*
G04 #@! TO.N,Net-(U1-PadPH1)*
X91694000Y-74803000D03*
G04 #@! TO.P,U1,PK6*
G04 #@! TO.N,Net-(U1-PadPK6)*
X94234000Y-74803000D03*
G04 #@! TO.P,U1,PK7*
G04 #@! TO.N,Net-(U1-PadPK7)*
X96774000Y-74803000D03*
G04 #@! TO.P,U1,GND*
G04 #@! TO.N,GND*
X73914000Y-72263000D03*
G04 #@! TO.P,U1,PM7*
G04 #@! TO.N,Net-(U1-PadPM7)*
X76454000Y-72263000D03*
G04 #@! TO.P,U1,PP5*
G04 #@! TO.N,Net-(U1-PadPP5)*
X78994000Y-72263000D03*
G04 #@! TD*
D11*
G04 #@! TO.P,U3,1*
G04 #@! TO.N,/+12V*
X119507000Y-79375000D03*
G04 #@! TO.P,U3,2*
G04 #@! TO.N,GND*
X122047000Y-79375000D03*
G04 #@! TO.P,U3,3*
G04 #@! TO.N,+5V*
X124587000Y-79375000D03*
G04 #@! TD*
D13*
G04 #@! TO.N,GND*
X109670315Y-94742000D03*
X98806000Y-104140000D03*
X98806000Y-92075000D03*
G04 #@! TO.N,RX_2_SL*
X100330000Y-102997000D03*
G04 #@! TO.N,TX_2_SL*
X100330000Y-101600000D03*
G04 #@! TD*
D14*
G04 #@! TO.N,RX_2_SL*
X108077000Y-65532000D02*
X108077000Y-82423000D01*
X106934000Y-83566000D02*
X101346000Y-83566000D01*
X108077000Y-82423000D02*
X106934000Y-83566000D01*
X101346000Y-101981000D02*
X100330000Y-102997000D01*
X101346000Y-83566000D02*
X101346000Y-101981000D01*
G04 #@! TO.N,TX_2_SL*
X105537000Y-80899000D02*
X105156000Y-81280000D01*
X105537000Y-65532000D02*
X105537000Y-80899000D01*
X105156000Y-81280000D02*
X101759959Y-81280000D01*
X100330000Y-82709959D02*
X100330000Y-101600000D01*
X101759959Y-81280000D02*
X100330000Y-82709959D01*
G04 #@! TD*
D15*
G04 #@! TO.N,GND*
G36*
X131941009Y-53094090D02*
X132280352Y-53248381D01*
X132562752Y-53491712D01*
X132765506Y-53804523D01*
X132879348Y-54185184D01*
X132894000Y-54382350D01*
X132894001Y-96850412D01*
X132833910Y-97270009D01*
X132679619Y-97609352D01*
X132436288Y-97891752D01*
X132123479Y-98094506D01*
X131742815Y-98208348D01*
X131545649Y-98223000D01*
X115893925Y-98223000D01*
X115824000Y-98209091D01*
X115754074Y-98223000D01*
X115546972Y-98264195D01*
X115312119Y-98421119D01*
X115155195Y-98655972D01*
X115100091Y-98933000D01*
X115114000Y-99002926D01*
X115114001Y-119691069D01*
X115100091Y-119761000D01*
X115155195Y-120038028D01*
X115312119Y-120272881D01*
X115546972Y-120429805D01*
X115754074Y-120471000D01*
X115754075Y-120471000D01*
X115824000Y-120484909D01*
X115893926Y-120471000D01*
X131521419Y-120471000D01*
X131941009Y-120531090D01*
X132280352Y-120685381D01*
X132562752Y-120928712D01*
X132765506Y-121241523D01*
X132879348Y-121622184D01*
X132894001Y-121819363D01*
X132894000Y-129324760D01*
X132548241Y-129428164D01*
X132460769Y-129468582D01*
X132372806Y-129507929D01*
X132365502Y-129512601D01*
X132365498Y-129512603D01*
X132365499Y-129512603D01*
X131882040Y-129825966D01*
X131809447Y-129889293D01*
X131736045Y-129951763D01*
X131730343Y-129958300D01*
X131354266Y-130394759D01*
X131302347Y-130475942D01*
X131249446Y-130556475D01*
X131245808Y-130564350D01*
X131007347Y-131088817D01*
X130980300Y-131181309D01*
X130952129Y-131273452D01*
X130950847Y-131282031D01*
X130869171Y-131852346D01*
X130869171Y-131924766D01*
X130863362Y-131996963D01*
X130863952Y-132005618D01*
X130886272Y-132305966D01*
X130901826Y-132376711D01*
X130911654Y-132448455D01*
X130914088Y-132456781D01*
X131079164Y-133008758D01*
X131119591Y-133096250D01*
X131158930Y-133184194D01*
X131163603Y-133191501D01*
X131476966Y-133674961D01*
X131540328Y-133747594D01*
X131602763Y-133820955D01*
X131609296Y-133826654D01*
X131609300Y-133826658D01*
X131609305Y-133826661D01*
X132045759Y-134202734D01*
X132126942Y-134254653D01*
X132207475Y-134307554D01*
X132215346Y-134311190D01*
X132215349Y-134311192D01*
X132215352Y-134311193D01*
X132739817Y-134549653D01*
X132832309Y-134576700D01*
X132894001Y-134595561D01*
X132894000Y-142570418D01*
X132833910Y-142990009D01*
X132679619Y-143329352D01*
X132436288Y-143611752D01*
X132123479Y-143814506D01*
X131742815Y-143928348D01*
X131545649Y-143943000D01*
X74726581Y-143943000D01*
X74306991Y-143882910D01*
X73967648Y-143728619D01*
X73685248Y-143485288D01*
X73482494Y-143172479D01*
X73368652Y-142791815D01*
X73354000Y-142594649D01*
X73354000Y-134581239D01*
X73699758Y-134477836D01*
X73787250Y-134437409D01*
X73875194Y-134398070D01*
X73882498Y-134393399D01*
X73882502Y-134393397D01*
X74365961Y-134080034D01*
X74438594Y-134016672D01*
X74511955Y-133954237D01*
X74517654Y-133947704D01*
X74517658Y-133947700D01*
X74517661Y-133947695D01*
X74893734Y-133511241D01*
X74945653Y-133430058D01*
X74998554Y-133349525D01*
X75002192Y-133341650D01*
X75240653Y-132817183D01*
X75267700Y-132724691D01*
X75295871Y-132632548D01*
X75297153Y-132623969D01*
X75378829Y-132053653D01*
X75378829Y-131981233D01*
X75384638Y-131909036D01*
X75384048Y-131900382D01*
X75361728Y-131600033D01*
X75346174Y-131529288D01*
X75336346Y-131457544D01*
X75333912Y-131449219D01*
X75168836Y-130897241D01*
X75128418Y-130809769D01*
X75089071Y-130721806D01*
X75084397Y-130714499D01*
X74771034Y-130231040D01*
X74707707Y-130158447D01*
X74645237Y-130085045D01*
X74638700Y-130079343D01*
X74202241Y-129703266D01*
X74121058Y-129651347D01*
X74040525Y-129598446D01*
X74032654Y-129594810D01*
X74032651Y-129594808D01*
X74032648Y-129594807D01*
X73508183Y-129356347D01*
X73415691Y-129329300D01*
X73354000Y-129310439D01*
X73354000Y-119260978D01*
X73636517Y-119378000D01*
X74191483Y-119378000D01*
X74704204Y-119165624D01*
X75096624Y-118773204D01*
X75184000Y-118562260D01*
X75271376Y-118773204D01*
X75663796Y-119165624D01*
X76176517Y-119378000D01*
X76731483Y-119378000D01*
X77244204Y-119165624D01*
X77636624Y-118773204D01*
X77724000Y-118562260D01*
X77811376Y-118773204D01*
X78203796Y-119165624D01*
X78716517Y-119378000D01*
X79271483Y-119378000D01*
X79784204Y-119165624D01*
X80176624Y-118773204D01*
X80264000Y-118562260D01*
X80351376Y-118773204D01*
X80743796Y-119165624D01*
X81256517Y-119378000D01*
X81811483Y-119378000D01*
X82324204Y-119165624D01*
X82716624Y-118773204D01*
X82804000Y-118562260D01*
X82891376Y-118773204D01*
X83283796Y-119165624D01*
X83796517Y-119378000D01*
X84351483Y-119378000D01*
X84864204Y-119165624D01*
X85256624Y-118773204D01*
X85344000Y-118562260D01*
X85431376Y-118773204D01*
X85823796Y-119165624D01*
X86336517Y-119378000D01*
X86891483Y-119378000D01*
X87404204Y-119165624D01*
X87796624Y-118773204D01*
X87884000Y-118562260D01*
X87971376Y-118773204D01*
X88363796Y-119165624D01*
X88876517Y-119378000D01*
X89431483Y-119378000D01*
X89944204Y-119165624D01*
X90336624Y-118773204D01*
X90424000Y-118562260D01*
X90511376Y-118773204D01*
X90903796Y-119165624D01*
X91416517Y-119378000D01*
X91971483Y-119378000D01*
X92484204Y-119165624D01*
X92876624Y-118773204D01*
X92964000Y-118562260D01*
X93051376Y-118773204D01*
X93443796Y-119165624D01*
X93956517Y-119378000D01*
X94511483Y-119378000D01*
X95024204Y-119165624D01*
X95416624Y-118773204D01*
X95504000Y-118562260D01*
X95591376Y-118773204D01*
X95983796Y-119165624D01*
X96496517Y-119378000D01*
X97051483Y-119378000D01*
X97564204Y-119165624D01*
X97956624Y-118773204D01*
X98169000Y-118260483D01*
X98169000Y-117705517D01*
X97956624Y-117192796D01*
X97564204Y-116800376D01*
X97353260Y-116713000D01*
X97564204Y-116625624D01*
X97956624Y-116233204D01*
X98169000Y-115720483D01*
X98169000Y-115165517D01*
X97956624Y-114652796D01*
X97564204Y-114260376D01*
X97051483Y-114048000D01*
X96496517Y-114048000D01*
X95983796Y-114260376D01*
X95591376Y-114652796D01*
X95504000Y-114863740D01*
X95416624Y-114652796D01*
X95024204Y-114260376D01*
X94511483Y-114048000D01*
X93956517Y-114048000D01*
X93443796Y-114260376D01*
X93051376Y-114652796D01*
X92964000Y-114863740D01*
X92876624Y-114652796D01*
X92484204Y-114260376D01*
X91971483Y-114048000D01*
X91416517Y-114048000D01*
X90903796Y-114260376D01*
X90511376Y-114652796D01*
X90424000Y-114863740D01*
X90336624Y-114652796D01*
X89944204Y-114260376D01*
X89431483Y-114048000D01*
X88876517Y-114048000D01*
X88363796Y-114260376D01*
X87971376Y-114652796D01*
X87884000Y-114863740D01*
X87796624Y-114652796D01*
X87404204Y-114260376D01*
X86891483Y-114048000D01*
X86336517Y-114048000D01*
X85823796Y-114260376D01*
X85431376Y-114652796D01*
X85344000Y-114863740D01*
X85256624Y-114652796D01*
X84864204Y-114260376D01*
X84351483Y-114048000D01*
X83796517Y-114048000D01*
X83283796Y-114260376D01*
X82891376Y-114652796D01*
X82804000Y-114863740D01*
X82716624Y-114652796D01*
X82324204Y-114260376D01*
X81811483Y-114048000D01*
X81256517Y-114048000D01*
X80743796Y-114260376D01*
X80351376Y-114652796D01*
X80264000Y-114863740D01*
X80176624Y-114652796D01*
X79784204Y-114260376D01*
X79271483Y-114048000D01*
X78716517Y-114048000D01*
X78203796Y-114260376D01*
X77811376Y-114652796D01*
X77599000Y-115165517D01*
X77599000Y-115720483D01*
X77811376Y-116233204D01*
X78203796Y-116625624D01*
X78414740Y-116713000D01*
X78203796Y-116800376D01*
X77811376Y-117192796D01*
X77724000Y-117403740D01*
X77636624Y-117192796D01*
X77244204Y-116800376D01*
X76731483Y-116588000D01*
X76176517Y-116588000D01*
X75663796Y-116800376D01*
X75271376Y-117192796D01*
X75184000Y-117403740D01*
X75096624Y-117192796D01*
X74704204Y-116800376D01*
X74493260Y-116713000D01*
X74704204Y-116625624D01*
X75096624Y-116233204D01*
X75309000Y-115720483D01*
X75309000Y-115165517D01*
X75096624Y-114652796D01*
X74704204Y-114260376D01*
X74191483Y-114048000D01*
X73636517Y-114048000D01*
X73354000Y-114165022D01*
X73354000Y-101394126D01*
X99295000Y-101394126D01*
X99295000Y-101805874D01*
X99452569Y-102186280D01*
X99564789Y-102298500D01*
X99452569Y-102410720D01*
X99295000Y-102791126D01*
X99295000Y-103202874D01*
X99452569Y-103583280D01*
X99743720Y-103874431D01*
X100124126Y-104032000D01*
X100535874Y-104032000D01*
X100916280Y-103874431D01*
X101207431Y-103583280D01*
X101365000Y-103202874D01*
X101365000Y-103129432D01*
X101872226Y-102622207D01*
X101941152Y-102576152D01*
X102123604Y-102303094D01*
X102171500Y-102062303D01*
X102171500Y-102062302D01*
X102187672Y-101981000D01*
X102171500Y-101899699D01*
X102171500Y-84391500D01*
X106852699Y-84391500D01*
X106934000Y-84407672D01*
X107015301Y-84391500D01*
X107015303Y-84391500D01*
X107256094Y-84343604D01*
X107529152Y-84161152D01*
X107575209Y-84092223D01*
X108603226Y-83064207D01*
X108672152Y-83018152D01*
X108854604Y-82745094D01*
X108902500Y-82504303D01*
X108902500Y-82504299D01*
X108918671Y-82423001D01*
X108902500Y-82341703D01*
X108902500Y-79097119D01*
X118110000Y-79097119D01*
X118110000Y-79652881D01*
X118322680Y-80166337D01*
X118715663Y-80559320D01*
X119229119Y-80772000D01*
X119784881Y-80772000D01*
X120298337Y-80559320D01*
X120691320Y-80166337D01*
X120904000Y-79652881D01*
X120904000Y-79097119D01*
X123190000Y-79097119D01*
X123190000Y-79652881D01*
X123402680Y-80166337D01*
X123795663Y-80559320D01*
X124309119Y-80772000D01*
X124864881Y-80772000D01*
X125378337Y-80559320D01*
X125771320Y-80166337D01*
X125984000Y-79652881D01*
X125984000Y-79097119D01*
X125771320Y-78583663D01*
X125378337Y-78190680D01*
X124864881Y-77978000D01*
X124309119Y-77978000D01*
X123795663Y-78190680D01*
X123402680Y-78583663D01*
X123190000Y-79097119D01*
X120904000Y-79097119D01*
X120691320Y-78583663D01*
X120298337Y-78190680D01*
X119784881Y-77978000D01*
X119229119Y-77978000D01*
X118715663Y-78190680D01*
X118322680Y-78583663D01*
X118110000Y-79097119D01*
X108902500Y-79097119D01*
X108902500Y-66682157D01*
X109261320Y-66323337D01*
X109474000Y-65809881D01*
X109474000Y-65254119D01*
X109261320Y-64740663D01*
X108868337Y-64347680D01*
X108354881Y-64135000D01*
X107799119Y-64135000D01*
X107285663Y-64347680D01*
X106892680Y-64740663D01*
X106807000Y-64947513D01*
X106721320Y-64740663D01*
X106328337Y-64347680D01*
X105814881Y-64135000D01*
X105259119Y-64135000D01*
X104745663Y-64347680D01*
X104352680Y-64740663D01*
X104140000Y-65254119D01*
X104140000Y-65809881D01*
X104352680Y-66323337D01*
X104711500Y-66682157D01*
X104711501Y-80454500D01*
X101841256Y-80454500D01*
X101759958Y-80438329D01*
X101678660Y-80454500D01*
X101678656Y-80454500D01*
X101437865Y-80502396D01*
X101336290Y-80570267D01*
X101233731Y-80638794D01*
X101233730Y-80638795D01*
X101164807Y-80684848D01*
X101118754Y-80753771D01*
X99803777Y-82068750D01*
X99734848Y-82114807D01*
X99552396Y-82387866D01*
X99519947Y-82551000D01*
X99488328Y-82709959D01*
X99504500Y-82791261D01*
X99504501Y-100961788D01*
X99452569Y-101013720D01*
X99295000Y-101394126D01*
X73354000Y-101394126D01*
X73354000Y-85094453D01*
X81178400Y-85094453D01*
X81178400Y-86357547D01*
X81661765Y-87524493D01*
X82554907Y-88417635D01*
X83721853Y-88901000D01*
X84984947Y-88901000D01*
X86151893Y-88417635D01*
X87045035Y-87524493D01*
X87528400Y-86357547D01*
X87528400Y-85094453D01*
X87045035Y-83927507D01*
X86151893Y-83034365D01*
X84984947Y-82551000D01*
X83721853Y-82551000D01*
X82554907Y-83034365D01*
X81661765Y-83927507D01*
X81178400Y-85094453D01*
X73354000Y-85094453D01*
X73354000Y-76080978D01*
X73636517Y-76198000D01*
X74191483Y-76198000D01*
X74704204Y-75985624D01*
X75096624Y-75593204D01*
X75184000Y-75382260D01*
X75271376Y-75593204D01*
X75663796Y-75985624D01*
X76176517Y-76198000D01*
X76731483Y-76198000D01*
X77244204Y-75985624D01*
X77636624Y-75593204D01*
X77724000Y-75382260D01*
X77811376Y-75593204D01*
X78203796Y-75985624D01*
X78716517Y-76198000D01*
X79271483Y-76198000D01*
X79784204Y-75985624D01*
X80176624Y-75593204D01*
X80264000Y-75382260D01*
X80351376Y-75593204D01*
X80743796Y-75985624D01*
X81256517Y-76198000D01*
X81811483Y-76198000D01*
X82324204Y-75985624D01*
X82716624Y-75593204D01*
X82804000Y-75382260D01*
X82891376Y-75593204D01*
X83283796Y-75985624D01*
X83796517Y-76198000D01*
X84351483Y-76198000D01*
X84864204Y-75985624D01*
X85256624Y-75593204D01*
X85344000Y-75382260D01*
X85431376Y-75593204D01*
X85823796Y-75985624D01*
X86336517Y-76198000D01*
X86891483Y-76198000D01*
X87404204Y-75985624D01*
X87796624Y-75593204D01*
X87884000Y-75382260D01*
X87971376Y-75593204D01*
X88363796Y-75985624D01*
X88876517Y-76198000D01*
X89431483Y-76198000D01*
X89944204Y-75985624D01*
X90336624Y-75593204D01*
X90424000Y-75382260D01*
X90511376Y-75593204D01*
X90903796Y-75985624D01*
X91416517Y-76198000D01*
X91971483Y-76198000D01*
X92484204Y-75985624D01*
X92876624Y-75593204D01*
X92964000Y-75382260D01*
X93051376Y-75593204D01*
X93443796Y-75985624D01*
X93956517Y-76198000D01*
X94511483Y-76198000D01*
X95024204Y-75985624D01*
X95416624Y-75593204D01*
X95504000Y-75382260D01*
X95591376Y-75593204D01*
X95983796Y-75985624D01*
X96496517Y-76198000D01*
X97051483Y-76198000D01*
X97564204Y-75985624D01*
X97956624Y-75593204D01*
X98169000Y-75080483D01*
X98169000Y-74525517D01*
X97956624Y-74012796D01*
X97564204Y-73620376D01*
X97353260Y-73533000D01*
X97564204Y-73445624D01*
X97956624Y-73053204D01*
X98169000Y-72540483D01*
X98169000Y-71985517D01*
X97956624Y-71472796D01*
X97564204Y-71080376D01*
X97051483Y-70868000D01*
X96496517Y-70868000D01*
X95983796Y-71080376D01*
X95591376Y-71472796D01*
X95504000Y-71683740D01*
X95416624Y-71472796D01*
X95024204Y-71080376D01*
X94511483Y-70868000D01*
X93956517Y-70868000D01*
X93443796Y-71080376D01*
X93051376Y-71472796D01*
X92964000Y-71683740D01*
X92876624Y-71472796D01*
X92484204Y-71080376D01*
X91971483Y-70868000D01*
X91416517Y-70868000D01*
X90903796Y-71080376D01*
X90511376Y-71472796D01*
X90424000Y-71683740D01*
X90336624Y-71472796D01*
X89944204Y-71080376D01*
X89431483Y-70868000D01*
X88876517Y-70868000D01*
X88363796Y-71080376D01*
X87971376Y-71472796D01*
X87884000Y-71683740D01*
X87796624Y-71472796D01*
X87404204Y-71080376D01*
X86891483Y-70868000D01*
X86336517Y-70868000D01*
X85823796Y-71080376D01*
X85431376Y-71472796D01*
X85344000Y-71683740D01*
X85256624Y-71472796D01*
X84864204Y-71080376D01*
X84351483Y-70868000D01*
X83796517Y-70868000D01*
X83283796Y-71080376D01*
X82891376Y-71472796D01*
X82804000Y-71683740D01*
X82716624Y-71472796D01*
X82324204Y-71080376D01*
X81811483Y-70868000D01*
X81256517Y-70868000D01*
X80743796Y-71080376D01*
X80351376Y-71472796D01*
X80264000Y-71683740D01*
X80176624Y-71472796D01*
X79784204Y-71080376D01*
X79271483Y-70868000D01*
X78716517Y-70868000D01*
X78203796Y-71080376D01*
X77811376Y-71472796D01*
X77724000Y-71683740D01*
X77636624Y-71472796D01*
X77244204Y-71080376D01*
X76731483Y-70868000D01*
X76176517Y-70868000D01*
X75663796Y-71080376D01*
X75271376Y-71472796D01*
X75059000Y-71985517D01*
X75059000Y-72540483D01*
X75271376Y-73053204D01*
X75663796Y-73445624D01*
X75874740Y-73533000D01*
X75663796Y-73620376D01*
X75271376Y-74012796D01*
X75184000Y-74223740D01*
X75096624Y-74012796D01*
X74704204Y-73620376D01*
X74191483Y-73408000D01*
X73636517Y-73408000D01*
X73354000Y-73525022D01*
X73354000Y-65254119D01*
X77216000Y-65254119D01*
X77216000Y-65809881D01*
X77428680Y-66323337D01*
X77821663Y-66716320D01*
X78335119Y-66929000D01*
X78890881Y-66929000D01*
X79404337Y-66716320D01*
X79797320Y-66323337D01*
X79883000Y-66116487D01*
X79968680Y-66323337D01*
X80361663Y-66716320D01*
X80875119Y-66929000D01*
X81430881Y-66929000D01*
X81944337Y-66716320D01*
X82337320Y-66323337D01*
X82550000Y-65809881D01*
X82550000Y-65254119D01*
X84836000Y-65254119D01*
X84836000Y-65809881D01*
X85048680Y-66323337D01*
X85441663Y-66716320D01*
X85955119Y-66929000D01*
X86510881Y-66929000D01*
X87024337Y-66716320D01*
X87417320Y-66323337D01*
X87503000Y-66116487D01*
X87588680Y-66323337D01*
X87981663Y-66716320D01*
X88495119Y-66929000D01*
X89050881Y-66929000D01*
X89564337Y-66716320D01*
X89957320Y-66323337D01*
X90170000Y-65809881D01*
X90170000Y-65254119D01*
X96520000Y-65254119D01*
X96520000Y-65809881D01*
X96732680Y-66323337D01*
X97125663Y-66716320D01*
X97639119Y-66929000D01*
X98194881Y-66929000D01*
X98708337Y-66716320D01*
X99101320Y-66323337D01*
X99187000Y-66116487D01*
X99272680Y-66323337D01*
X99665663Y-66716320D01*
X100179119Y-66929000D01*
X100734881Y-66929000D01*
X101248337Y-66716320D01*
X101641320Y-66323337D01*
X101854000Y-65809881D01*
X101854000Y-65254119D01*
X101641320Y-64740663D01*
X101248337Y-64347680D01*
X100734881Y-64135000D01*
X100179119Y-64135000D01*
X99665663Y-64347680D01*
X99272680Y-64740663D01*
X99187000Y-64947513D01*
X99101320Y-64740663D01*
X98708337Y-64347680D01*
X98194881Y-64135000D01*
X97639119Y-64135000D01*
X97125663Y-64347680D01*
X96732680Y-64740663D01*
X96520000Y-65254119D01*
X90170000Y-65254119D01*
X89957320Y-64740663D01*
X89564337Y-64347680D01*
X89050881Y-64135000D01*
X88495119Y-64135000D01*
X87981663Y-64347680D01*
X87588680Y-64740663D01*
X87503000Y-64947513D01*
X87417320Y-64740663D01*
X87024337Y-64347680D01*
X86510881Y-64135000D01*
X85955119Y-64135000D01*
X85441663Y-64347680D01*
X85048680Y-64740663D01*
X84836000Y-65254119D01*
X82550000Y-65254119D01*
X82337320Y-64740663D01*
X81944337Y-64347680D01*
X81430881Y-64135000D01*
X80875119Y-64135000D01*
X80361663Y-64347680D01*
X79968680Y-64740663D01*
X79883000Y-64947513D01*
X79797320Y-64740663D01*
X79404337Y-64347680D01*
X78890881Y-64135000D01*
X78335119Y-64135000D01*
X77821663Y-64347680D01*
X77428680Y-64740663D01*
X77216000Y-65254119D01*
X73354000Y-65254119D01*
X73354000Y-56426567D01*
X74983000Y-56426567D01*
X74983000Y-57365433D01*
X75342289Y-58232833D01*
X76006167Y-58896711D01*
X76873567Y-59256000D01*
X77812433Y-59256000D01*
X78679833Y-58896711D01*
X79343711Y-58232833D01*
X79703000Y-57365433D01*
X79703000Y-56426567D01*
X87683000Y-56426567D01*
X87683000Y-57365433D01*
X88042289Y-58232833D01*
X88706167Y-58896711D01*
X89573567Y-59256000D01*
X90512433Y-59256000D01*
X91379833Y-58896711D01*
X92043711Y-58232833D01*
X92403000Y-57365433D01*
X92403000Y-56426567D01*
X94287000Y-56426567D01*
X94287000Y-57365433D01*
X94646289Y-58232833D01*
X95310167Y-58896711D01*
X96177567Y-59256000D01*
X97116433Y-59256000D01*
X97983833Y-58896711D01*
X98647711Y-58232833D01*
X99007000Y-57365433D01*
X99007000Y-56426567D01*
X106987000Y-56426567D01*
X106987000Y-57365433D01*
X107346289Y-58232833D01*
X108010167Y-58896711D01*
X108877567Y-59256000D01*
X109816433Y-59256000D01*
X110683833Y-58896711D01*
X111347711Y-58232833D01*
X111707000Y-57365433D01*
X111707000Y-56426567D01*
X111347711Y-55559167D01*
X110683833Y-54895289D01*
X109816433Y-54536000D01*
X108877567Y-54536000D01*
X108010167Y-54895289D01*
X107346289Y-55559167D01*
X106987000Y-56426567D01*
X99007000Y-56426567D01*
X98647711Y-55559167D01*
X97983833Y-54895289D01*
X97116433Y-54536000D01*
X96177567Y-54536000D01*
X95310167Y-54895289D01*
X94646289Y-55559167D01*
X94287000Y-56426567D01*
X92403000Y-56426567D01*
X92043711Y-55559167D01*
X91379833Y-54895289D01*
X90512433Y-54536000D01*
X89573567Y-54536000D01*
X88706167Y-54895289D01*
X88042289Y-55559167D01*
X87683000Y-56426567D01*
X79703000Y-56426567D01*
X79343711Y-55559167D01*
X78679833Y-54895289D01*
X77812433Y-54536000D01*
X76873567Y-54536000D01*
X76006167Y-54895289D01*
X75342289Y-55559167D01*
X74983000Y-56426567D01*
X73354000Y-56426567D01*
X73354000Y-54406581D01*
X73414090Y-53986991D01*
X73568381Y-53647648D01*
X73811712Y-53365248D01*
X74124523Y-53162494D01*
X74505184Y-53048652D01*
X74702350Y-53034000D01*
X131521419Y-53034000D01*
X131941009Y-53094090D01*
X131941009Y-53094090D01*
G37*
X131941009Y-53094090D02*
X132280352Y-53248381D01*
X132562752Y-53491712D01*
X132765506Y-53804523D01*
X132879348Y-54185184D01*
X132894000Y-54382350D01*
X132894001Y-96850412D01*
X132833910Y-97270009D01*
X132679619Y-97609352D01*
X132436288Y-97891752D01*
X132123479Y-98094506D01*
X131742815Y-98208348D01*
X131545649Y-98223000D01*
X115893925Y-98223000D01*
X115824000Y-98209091D01*
X115754074Y-98223000D01*
X115546972Y-98264195D01*
X115312119Y-98421119D01*
X115155195Y-98655972D01*
X115100091Y-98933000D01*
X115114000Y-99002926D01*
X115114001Y-119691069D01*
X115100091Y-119761000D01*
X115155195Y-120038028D01*
X115312119Y-120272881D01*
X115546972Y-120429805D01*
X115754074Y-120471000D01*
X115754075Y-120471000D01*
X115824000Y-120484909D01*
X115893926Y-120471000D01*
X131521419Y-120471000D01*
X131941009Y-120531090D01*
X132280352Y-120685381D01*
X132562752Y-120928712D01*
X132765506Y-121241523D01*
X132879348Y-121622184D01*
X132894001Y-121819363D01*
X132894000Y-129324760D01*
X132548241Y-129428164D01*
X132460769Y-129468582D01*
X132372806Y-129507929D01*
X132365502Y-129512601D01*
X132365498Y-129512603D01*
X132365499Y-129512603D01*
X131882040Y-129825966D01*
X131809447Y-129889293D01*
X131736045Y-129951763D01*
X131730343Y-129958300D01*
X131354266Y-130394759D01*
X131302347Y-130475942D01*
X131249446Y-130556475D01*
X131245808Y-130564350D01*
X131007347Y-131088817D01*
X130980300Y-131181309D01*
X130952129Y-131273452D01*
X130950847Y-131282031D01*
X130869171Y-131852346D01*
X130869171Y-131924766D01*
X130863362Y-131996963D01*
X130863952Y-132005618D01*
X130886272Y-132305966D01*
X130901826Y-132376711D01*
X130911654Y-132448455D01*
X130914088Y-132456781D01*
X131079164Y-133008758D01*
X131119591Y-133096250D01*
X131158930Y-133184194D01*
X131163603Y-133191501D01*
X131476966Y-133674961D01*
X131540328Y-133747594D01*
X131602763Y-133820955D01*
X131609296Y-133826654D01*
X131609300Y-133826658D01*
X131609305Y-133826661D01*
X132045759Y-134202734D01*
X132126942Y-134254653D01*
X132207475Y-134307554D01*
X132215346Y-134311190D01*
X132215349Y-134311192D01*
X132215352Y-134311193D01*
X132739817Y-134549653D01*
X132832309Y-134576700D01*
X132894001Y-134595561D01*
X132894000Y-142570418D01*
X132833910Y-142990009D01*
X132679619Y-143329352D01*
X132436288Y-143611752D01*
X132123479Y-143814506D01*
X131742815Y-143928348D01*
X131545649Y-143943000D01*
X74726581Y-143943000D01*
X74306991Y-143882910D01*
X73967648Y-143728619D01*
X73685248Y-143485288D01*
X73482494Y-143172479D01*
X73368652Y-142791815D01*
X73354000Y-142594649D01*
X73354000Y-134581239D01*
X73699758Y-134477836D01*
X73787250Y-134437409D01*
X73875194Y-134398070D01*
X73882498Y-134393399D01*
X73882502Y-134393397D01*
X74365961Y-134080034D01*
X74438594Y-134016672D01*
X74511955Y-133954237D01*
X74517654Y-133947704D01*
X74517658Y-133947700D01*
X74517661Y-133947695D01*
X74893734Y-133511241D01*
X74945653Y-133430058D01*
X74998554Y-133349525D01*
X75002192Y-133341650D01*
X75240653Y-132817183D01*
X75267700Y-132724691D01*
X75295871Y-132632548D01*
X75297153Y-132623969D01*
X75378829Y-132053653D01*
X75378829Y-131981233D01*
X75384638Y-131909036D01*
X75384048Y-131900382D01*
X75361728Y-131600033D01*
X75346174Y-131529288D01*
X75336346Y-131457544D01*
X75333912Y-131449219D01*
X75168836Y-130897241D01*
X75128418Y-130809769D01*
X75089071Y-130721806D01*
X75084397Y-130714499D01*
X74771034Y-130231040D01*
X74707707Y-130158447D01*
X74645237Y-130085045D01*
X74638700Y-130079343D01*
X74202241Y-129703266D01*
X74121058Y-129651347D01*
X74040525Y-129598446D01*
X74032654Y-129594810D01*
X74032651Y-129594808D01*
X74032648Y-129594807D01*
X73508183Y-129356347D01*
X73415691Y-129329300D01*
X73354000Y-129310439D01*
X73354000Y-119260978D01*
X73636517Y-119378000D01*
X74191483Y-119378000D01*
X74704204Y-119165624D01*
X75096624Y-118773204D01*
X75184000Y-118562260D01*
X75271376Y-118773204D01*
X75663796Y-119165624D01*
X76176517Y-119378000D01*
X76731483Y-119378000D01*
X77244204Y-119165624D01*
X77636624Y-118773204D01*
X77724000Y-118562260D01*
X77811376Y-118773204D01*
X78203796Y-119165624D01*
X78716517Y-119378000D01*
X79271483Y-119378000D01*
X79784204Y-119165624D01*
X80176624Y-118773204D01*
X80264000Y-118562260D01*
X80351376Y-118773204D01*
X80743796Y-119165624D01*
X81256517Y-119378000D01*
X81811483Y-119378000D01*
X82324204Y-119165624D01*
X82716624Y-118773204D01*
X82804000Y-118562260D01*
X82891376Y-118773204D01*
X83283796Y-119165624D01*
X83796517Y-119378000D01*
X84351483Y-119378000D01*
X84864204Y-119165624D01*
X85256624Y-118773204D01*
X85344000Y-118562260D01*
X85431376Y-118773204D01*
X85823796Y-119165624D01*
X86336517Y-119378000D01*
X86891483Y-119378000D01*
X87404204Y-119165624D01*
X87796624Y-118773204D01*
X87884000Y-118562260D01*
X87971376Y-118773204D01*
X88363796Y-119165624D01*
X88876517Y-119378000D01*
X89431483Y-119378000D01*
X89944204Y-119165624D01*
X90336624Y-118773204D01*
X90424000Y-118562260D01*
X90511376Y-118773204D01*
X90903796Y-119165624D01*
X91416517Y-119378000D01*
X91971483Y-119378000D01*
X92484204Y-119165624D01*
X92876624Y-118773204D01*
X92964000Y-118562260D01*
X93051376Y-118773204D01*
X93443796Y-119165624D01*
X93956517Y-119378000D01*
X94511483Y-119378000D01*
X95024204Y-119165624D01*
X95416624Y-118773204D01*
X95504000Y-118562260D01*
X95591376Y-118773204D01*
X95983796Y-119165624D01*
X96496517Y-119378000D01*
X97051483Y-119378000D01*
X97564204Y-119165624D01*
X97956624Y-118773204D01*
X98169000Y-118260483D01*
X98169000Y-117705517D01*
X97956624Y-117192796D01*
X97564204Y-116800376D01*
X97353260Y-116713000D01*
X97564204Y-116625624D01*
X97956624Y-116233204D01*
X98169000Y-115720483D01*
X98169000Y-115165517D01*
X97956624Y-114652796D01*
X97564204Y-114260376D01*
X97051483Y-114048000D01*
X96496517Y-114048000D01*
X95983796Y-114260376D01*
X95591376Y-114652796D01*
X95504000Y-114863740D01*
X95416624Y-114652796D01*
X95024204Y-114260376D01*
X94511483Y-114048000D01*
X93956517Y-114048000D01*
X93443796Y-114260376D01*
X93051376Y-114652796D01*
X92964000Y-114863740D01*
X92876624Y-114652796D01*
X92484204Y-114260376D01*
X91971483Y-114048000D01*
X91416517Y-114048000D01*
X90903796Y-114260376D01*
X90511376Y-114652796D01*
X90424000Y-114863740D01*
X90336624Y-114652796D01*
X89944204Y-114260376D01*
X89431483Y-114048000D01*
X88876517Y-114048000D01*
X88363796Y-114260376D01*
X87971376Y-114652796D01*
X87884000Y-114863740D01*
X87796624Y-114652796D01*
X87404204Y-114260376D01*
X86891483Y-114048000D01*
X86336517Y-114048000D01*
X85823796Y-114260376D01*
X85431376Y-114652796D01*
X85344000Y-114863740D01*
X85256624Y-114652796D01*
X84864204Y-114260376D01*
X84351483Y-114048000D01*
X83796517Y-114048000D01*
X83283796Y-114260376D01*
X82891376Y-114652796D01*
X82804000Y-114863740D01*
X82716624Y-114652796D01*
X82324204Y-114260376D01*
X81811483Y-114048000D01*
X81256517Y-114048000D01*
X80743796Y-114260376D01*
X80351376Y-114652796D01*
X80264000Y-114863740D01*
X80176624Y-114652796D01*
X79784204Y-114260376D01*
X79271483Y-114048000D01*
X78716517Y-114048000D01*
X78203796Y-114260376D01*
X77811376Y-114652796D01*
X77599000Y-115165517D01*
X77599000Y-115720483D01*
X77811376Y-116233204D01*
X78203796Y-116625624D01*
X78414740Y-116713000D01*
X78203796Y-116800376D01*
X77811376Y-117192796D01*
X77724000Y-117403740D01*
X77636624Y-117192796D01*
X77244204Y-116800376D01*
X76731483Y-116588000D01*
X76176517Y-116588000D01*
X75663796Y-116800376D01*
X75271376Y-117192796D01*
X75184000Y-117403740D01*
X75096624Y-117192796D01*
X74704204Y-116800376D01*
X74493260Y-116713000D01*
X74704204Y-116625624D01*
X75096624Y-116233204D01*
X75309000Y-115720483D01*
X75309000Y-115165517D01*
X75096624Y-114652796D01*
X74704204Y-114260376D01*
X74191483Y-114048000D01*
X73636517Y-114048000D01*
X73354000Y-114165022D01*
X73354000Y-101394126D01*
X99295000Y-101394126D01*
X99295000Y-101805874D01*
X99452569Y-102186280D01*
X99564789Y-102298500D01*
X99452569Y-102410720D01*
X99295000Y-102791126D01*
X99295000Y-103202874D01*
X99452569Y-103583280D01*
X99743720Y-103874431D01*
X100124126Y-104032000D01*
X100535874Y-104032000D01*
X100916280Y-103874431D01*
X101207431Y-103583280D01*
X101365000Y-103202874D01*
X101365000Y-103129432D01*
X101872226Y-102622207D01*
X101941152Y-102576152D01*
X102123604Y-102303094D01*
X102171500Y-102062303D01*
X102171500Y-102062302D01*
X102187672Y-101981000D01*
X102171500Y-101899699D01*
X102171500Y-84391500D01*
X106852699Y-84391500D01*
X106934000Y-84407672D01*
X107015301Y-84391500D01*
X107015303Y-84391500D01*
X107256094Y-84343604D01*
X107529152Y-84161152D01*
X107575209Y-84092223D01*
X108603226Y-83064207D01*
X108672152Y-83018152D01*
X108854604Y-82745094D01*
X108902500Y-82504303D01*
X108902500Y-82504299D01*
X108918671Y-82423001D01*
X108902500Y-82341703D01*
X108902500Y-79097119D01*
X118110000Y-79097119D01*
X118110000Y-79652881D01*
X118322680Y-80166337D01*
X118715663Y-80559320D01*
X119229119Y-80772000D01*
X119784881Y-80772000D01*
X120298337Y-80559320D01*
X120691320Y-80166337D01*
X120904000Y-79652881D01*
X120904000Y-79097119D01*
X123190000Y-79097119D01*
X123190000Y-79652881D01*
X123402680Y-80166337D01*
X123795663Y-80559320D01*
X124309119Y-80772000D01*
X124864881Y-80772000D01*
X125378337Y-80559320D01*
X125771320Y-80166337D01*
X125984000Y-79652881D01*
X125984000Y-79097119D01*
X125771320Y-78583663D01*
X125378337Y-78190680D01*
X124864881Y-77978000D01*
X124309119Y-77978000D01*
X123795663Y-78190680D01*
X123402680Y-78583663D01*
X123190000Y-79097119D01*
X120904000Y-79097119D01*
X120691320Y-78583663D01*
X120298337Y-78190680D01*
X119784881Y-77978000D01*
X119229119Y-77978000D01*
X118715663Y-78190680D01*
X118322680Y-78583663D01*
X118110000Y-79097119D01*
X108902500Y-79097119D01*
X108902500Y-66682157D01*
X109261320Y-66323337D01*
X109474000Y-65809881D01*
X109474000Y-65254119D01*
X109261320Y-64740663D01*
X108868337Y-64347680D01*
X108354881Y-64135000D01*
X107799119Y-64135000D01*
X107285663Y-64347680D01*
X106892680Y-64740663D01*
X106807000Y-64947513D01*
X106721320Y-64740663D01*
X106328337Y-64347680D01*
X105814881Y-64135000D01*
X105259119Y-64135000D01*
X104745663Y-64347680D01*
X104352680Y-64740663D01*
X104140000Y-65254119D01*
X104140000Y-65809881D01*
X104352680Y-66323337D01*
X104711500Y-66682157D01*
X104711501Y-80454500D01*
X101841256Y-80454500D01*
X101759958Y-80438329D01*
X101678660Y-80454500D01*
X101678656Y-80454500D01*
X101437865Y-80502396D01*
X101336290Y-80570267D01*
X101233731Y-80638794D01*
X101233730Y-80638795D01*
X101164807Y-80684848D01*
X101118754Y-80753771D01*
X99803777Y-82068750D01*
X99734848Y-82114807D01*
X99552396Y-82387866D01*
X99519947Y-82551000D01*
X99488328Y-82709959D01*
X99504500Y-82791261D01*
X99504501Y-100961788D01*
X99452569Y-101013720D01*
X99295000Y-101394126D01*
X73354000Y-101394126D01*
X73354000Y-85094453D01*
X81178400Y-85094453D01*
X81178400Y-86357547D01*
X81661765Y-87524493D01*
X82554907Y-88417635D01*
X83721853Y-88901000D01*
X84984947Y-88901000D01*
X86151893Y-88417635D01*
X87045035Y-87524493D01*
X87528400Y-86357547D01*
X87528400Y-85094453D01*
X87045035Y-83927507D01*
X86151893Y-83034365D01*
X84984947Y-82551000D01*
X83721853Y-82551000D01*
X82554907Y-83034365D01*
X81661765Y-83927507D01*
X81178400Y-85094453D01*
X73354000Y-85094453D01*
X73354000Y-76080978D01*
X73636517Y-76198000D01*
X74191483Y-76198000D01*
X74704204Y-75985624D01*
X75096624Y-75593204D01*
X75184000Y-75382260D01*
X75271376Y-75593204D01*
X75663796Y-75985624D01*
X76176517Y-76198000D01*
X76731483Y-76198000D01*
X77244204Y-75985624D01*
X77636624Y-75593204D01*
X77724000Y-75382260D01*
X77811376Y-75593204D01*
X78203796Y-75985624D01*
X78716517Y-76198000D01*
X79271483Y-76198000D01*
X79784204Y-75985624D01*
X80176624Y-75593204D01*
X80264000Y-75382260D01*
X80351376Y-75593204D01*
X80743796Y-75985624D01*
X81256517Y-76198000D01*
X81811483Y-76198000D01*
X82324204Y-75985624D01*
X82716624Y-75593204D01*
X82804000Y-75382260D01*
X82891376Y-75593204D01*
X83283796Y-75985624D01*
X83796517Y-76198000D01*
X84351483Y-76198000D01*
X84864204Y-75985624D01*
X85256624Y-75593204D01*
X85344000Y-75382260D01*
X85431376Y-75593204D01*
X85823796Y-75985624D01*
X86336517Y-76198000D01*
X86891483Y-76198000D01*
X87404204Y-75985624D01*
X87796624Y-75593204D01*
X87884000Y-75382260D01*
X87971376Y-75593204D01*
X88363796Y-75985624D01*
X88876517Y-76198000D01*
X89431483Y-76198000D01*
X89944204Y-75985624D01*
X90336624Y-75593204D01*
X90424000Y-75382260D01*
X90511376Y-75593204D01*
X90903796Y-75985624D01*
X91416517Y-76198000D01*
X91971483Y-76198000D01*
X92484204Y-75985624D01*
X92876624Y-75593204D01*
X92964000Y-75382260D01*
X93051376Y-75593204D01*
X93443796Y-75985624D01*
X93956517Y-76198000D01*
X94511483Y-76198000D01*
X95024204Y-75985624D01*
X95416624Y-75593204D01*
X95504000Y-75382260D01*
X95591376Y-75593204D01*
X95983796Y-75985624D01*
X96496517Y-76198000D01*
X97051483Y-76198000D01*
X97564204Y-75985624D01*
X97956624Y-75593204D01*
X98169000Y-75080483D01*
X98169000Y-74525517D01*
X97956624Y-74012796D01*
X97564204Y-73620376D01*
X97353260Y-73533000D01*
X97564204Y-73445624D01*
X97956624Y-73053204D01*
X98169000Y-72540483D01*
X98169000Y-71985517D01*
X97956624Y-71472796D01*
X97564204Y-71080376D01*
X97051483Y-70868000D01*
X96496517Y-70868000D01*
X95983796Y-71080376D01*
X95591376Y-71472796D01*
X95504000Y-71683740D01*
X95416624Y-71472796D01*
X95024204Y-71080376D01*
X94511483Y-70868000D01*
X93956517Y-70868000D01*
X93443796Y-71080376D01*
X93051376Y-71472796D01*
X92964000Y-71683740D01*
X92876624Y-71472796D01*
X92484204Y-71080376D01*
X91971483Y-70868000D01*
X91416517Y-70868000D01*
X90903796Y-71080376D01*
X90511376Y-71472796D01*
X90424000Y-71683740D01*
X90336624Y-71472796D01*
X89944204Y-71080376D01*
X89431483Y-70868000D01*
X88876517Y-70868000D01*
X88363796Y-71080376D01*
X87971376Y-71472796D01*
X87884000Y-71683740D01*
X87796624Y-71472796D01*
X87404204Y-71080376D01*
X86891483Y-70868000D01*
X86336517Y-70868000D01*
X85823796Y-71080376D01*
X85431376Y-71472796D01*
X85344000Y-71683740D01*
X85256624Y-71472796D01*
X84864204Y-71080376D01*
X84351483Y-70868000D01*
X83796517Y-70868000D01*
X83283796Y-71080376D01*
X82891376Y-71472796D01*
X82804000Y-71683740D01*
X82716624Y-71472796D01*
X82324204Y-71080376D01*
X81811483Y-70868000D01*
X81256517Y-70868000D01*
X80743796Y-71080376D01*
X80351376Y-71472796D01*
X80264000Y-71683740D01*
X80176624Y-71472796D01*
X79784204Y-71080376D01*
X79271483Y-70868000D01*
X78716517Y-70868000D01*
X78203796Y-71080376D01*
X77811376Y-71472796D01*
X77724000Y-71683740D01*
X77636624Y-71472796D01*
X77244204Y-71080376D01*
X76731483Y-70868000D01*
X76176517Y-70868000D01*
X75663796Y-71080376D01*
X75271376Y-71472796D01*
X75059000Y-71985517D01*
X75059000Y-72540483D01*
X75271376Y-73053204D01*
X75663796Y-73445624D01*
X75874740Y-73533000D01*
X75663796Y-73620376D01*
X75271376Y-74012796D01*
X75184000Y-74223740D01*
X75096624Y-74012796D01*
X74704204Y-73620376D01*
X74191483Y-73408000D01*
X73636517Y-73408000D01*
X73354000Y-73525022D01*
X73354000Y-65254119D01*
X77216000Y-65254119D01*
X77216000Y-65809881D01*
X77428680Y-66323337D01*
X77821663Y-66716320D01*
X78335119Y-66929000D01*
X78890881Y-66929000D01*
X79404337Y-66716320D01*
X79797320Y-66323337D01*
X79883000Y-66116487D01*
X79968680Y-66323337D01*
X80361663Y-66716320D01*
X80875119Y-66929000D01*
X81430881Y-66929000D01*
X81944337Y-66716320D01*
X82337320Y-66323337D01*
X82550000Y-65809881D01*
X82550000Y-65254119D01*
X84836000Y-65254119D01*
X84836000Y-65809881D01*
X85048680Y-66323337D01*
X85441663Y-66716320D01*
X85955119Y-66929000D01*
X86510881Y-66929000D01*
X87024337Y-66716320D01*
X87417320Y-66323337D01*
X87503000Y-66116487D01*
X87588680Y-66323337D01*
X87981663Y-66716320D01*
X88495119Y-66929000D01*
X89050881Y-66929000D01*
X89564337Y-66716320D01*
X89957320Y-66323337D01*
X90170000Y-65809881D01*
X90170000Y-65254119D01*
X96520000Y-65254119D01*
X96520000Y-65809881D01*
X96732680Y-66323337D01*
X97125663Y-66716320D01*
X97639119Y-66929000D01*
X98194881Y-66929000D01*
X98708337Y-66716320D01*
X99101320Y-66323337D01*
X99187000Y-66116487D01*
X99272680Y-66323337D01*
X99665663Y-66716320D01*
X100179119Y-66929000D01*
X100734881Y-66929000D01*
X101248337Y-66716320D01*
X101641320Y-66323337D01*
X101854000Y-65809881D01*
X101854000Y-65254119D01*
X101641320Y-64740663D01*
X101248337Y-64347680D01*
X100734881Y-64135000D01*
X100179119Y-64135000D01*
X99665663Y-64347680D01*
X99272680Y-64740663D01*
X99187000Y-64947513D01*
X99101320Y-64740663D01*
X98708337Y-64347680D01*
X98194881Y-64135000D01*
X97639119Y-64135000D01*
X97125663Y-64347680D01*
X96732680Y-64740663D01*
X96520000Y-65254119D01*
X90170000Y-65254119D01*
X89957320Y-64740663D01*
X89564337Y-64347680D01*
X89050881Y-64135000D01*
X88495119Y-64135000D01*
X87981663Y-64347680D01*
X87588680Y-64740663D01*
X87503000Y-64947513D01*
X87417320Y-64740663D01*
X87024337Y-64347680D01*
X86510881Y-64135000D01*
X85955119Y-64135000D01*
X85441663Y-64347680D01*
X85048680Y-64740663D01*
X84836000Y-65254119D01*
X82550000Y-65254119D01*
X82337320Y-64740663D01*
X81944337Y-64347680D01*
X81430881Y-64135000D01*
X80875119Y-64135000D01*
X80361663Y-64347680D01*
X79968680Y-64740663D01*
X79883000Y-64947513D01*
X79797320Y-64740663D01*
X79404337Y-64347680D01*
X78890881Y-64135000D01*
X78335119Y-64135000D01*
X77821663Y-64347680D01*
X77428680Y-64740663D01*
X77216000Y-65254119D01*
X73354000Y-65254119D01*
X73354000Y-56426567D01*
X74983000Y-56426567D01*
X74983000Y-57365433D01*
X75342289Y-58232833D01*
X76006167Y-58896711D01*
X76873567Y-59256000D01*
X77812433Y-59256000D01*
X78679833Y-58896711D01*
X79343711Y-58232833D01*
X79703000Y-57365433D01*
X79703000Y-56426567D01*
X87683000Y-56426567D01*
X87683000Y-57365433D01*
X88042289Y-58232833D01*
X88706167Y-58896711D01*
X89573567Y-59256000D01*
X90512433Y-59256000D01*
X91379833Y-58896711D01*
X92043711Y-58232833D01*
X92403000Y-57365433D01*
X92403000Y-56426567D01*
X94287000Y-56426567D01*
X94287000Y-57365433D01*
X94646289Y-58232833D01*
X95310167Y-58896711D01*
X96177567Y-59256000D01*
X97116433Y-59256000D01*
X97983833Y-58896711D01*
X98647711Y-58232833D01*
X99007000Y-57365433D01*
X99007000Y-56426567D01*
X106987000Y-56426567D01*
X106987000Y-57365433D01*
X107346289Y-58232833D01*
X108010167Y-58896711D01*
X108877567Y-59256000D01*
X109816433Y-59256000D01*
X110683833Y-58896711D01*
X111347711Y-58232833D01*
X111707000Y-57365433D01*
X111707000Y-56426567D01*
X111347711Y-55559167D01*
X110683833Y-54895289D01*
X109816433Y-54536000D01*
X108877567Y-54536000D01*
X108010167Y-54895289D01*
X107346289Y-55559167D01*
X106987000Y-56426567D01*
X99007000Y-56426567D01*
X98647711Y-55559167D01*
X97983833Y-54895289D01*
X97116433Y-54536000D01*
X96177567Y-54536000D01*
X95310167Y-54895289D01*
X94646289Y-55559167D01*
X94287000Y-56426567D01*
X92403000Y-56426567D01*
X92043711Y-55559167D01*
X91379833Y-54895289D01*
X90512433Y-54536000D01*
X89573567Y-54536000D01*
X88706167Y-54895289D01*
X88042289Y-55559167D01*
X87683000Y-56426567D01*
X79703000Y-56426567D01*
X79343711Y-55559167D01*
X78679833Y-54895289D01*
X77812433Y-54536000D01*
X76873567Y-54536000D01*
X76006167Y-54895289D01*
X75342289Y-55559167D01*
X74983000Y-56426567D01*
X73354000Y-56426567D01*
X73354000Y-54406581D01*
X73414090Y-53986991D01*
X73568381Y-53647648D01*
X73811712Y-53365248D01*
X74124523Y-53162494D01*
X74505184Y-53048652D01*
X74702350Y-53034000D01*
X131521419Y-53034000D01*
X131941009Y-53094090D01*
G04 #@! TD*
M02*
