G04 #@! TF.GenerationSoftware,KiCad,Pcbnew,(5.0.0)*
G04 #@! TF.CreationDate,2018-10-03T21:50:45-05:00*
G04 #@! TF.ProjectId,DriveBoard_Hardware,4472697665426F6172645F4861726477,rev?*
G04 #@! TF.SameCoordinates,Original*
G04 #@! TF.FileFunction,Soldermask,Top*
G04 #@! TF.FilePolarity,Negative*
%FSLAX46Y46*%
G04 Gerber Fmt 4.6, Leading zero omitted, Abs format (unit mm)*
G04 Created by KiCad (PCBNEW (5.0.0)) date 10/03/18 21:50:45*
%MOMM*%
%LPD*%
G01*
G04 APERTURE LIST*
%ADD10C,0.100000*%
%ADD11C,1.350000*%
%ADD12C,5.480000*%
%ADD13C,1.924000*%
%ADD14C,3.850000*%
%ADD15C,1.920000*%
%ADD16R,1.900000X1.000000*%
G04 APERTURE END LIST*
D10*
G04 #@! TO.C,C3*
G36*
X134990581Y-111939625D02*
X135023343Y-111944485D01*
X135055471Y-111952533D01*
X135086656Y-111963691D01*
X135116596Y-111977852D01*
X135145005Y-111994879D01*
X135171608Y-112014609D01*
X135196149Y-112036851D01*
X135218391Y-112061392D01*
X135238121Y-112087995D01*
X135255148Y-112116404D01*
X135269309Y-112146344D01*
X135280467Y-112177529D01*
X135288515Y-112209657D01*
X135293375Y-112242419D01*
X135295000Y-112275500D01*
X135295000Y-113050500D01*
X135293375Y-113083581D01*
X135288515Y-113116343D01*
X135280467Y-113148471D01*
X135269309Y-113179656D01*
X135255148Y-113209596D01*
X135238121Y-113238005D01*
X135218391Y-113264608D01*
X135196149Y-113289149D01*
X135171608Y-113311391D01*
X135145005Y-113331121D01*
X135116596Y-113348148D01*
X135086656Y-113362309D01*
X135055471Y-113373467D01*
X135023343Y-113381515D01*
X134990581Y-113386375D01*
X134957500Y-113388000D01*
X134282500Y-113388000D01*
X134249419Y-113386375D01*
X134216657Y-113381515D01*
X134184529Y-113373467D01*
X134153344Y-113362309D01*
X134123404Y-113348148D01*
X134094995Y-113331121D01*
X134068392Y-113311391D01*
X134043851Y-113289149D01*
X134021609Y-113264608D01*
X134001879Y-113238005D01*
X133984852Y-113209596D01*
X133970691Y-113179656D01*
X133959533Y-113148471D01*
X133951485Y-113116343D01*
X133946625Y-113083581D01*
X133945000Y-113050500D01*
X133945000Y-112275500D01*
X133946625Y-112242419D01*
X133951485Y-112209657D01*
X133959533Y-112177529D01*
X133970691Y-112146344D01*
X133984852Y-112116404D01*
X134001879Y-112087995D01*
X134021609Y-112061392D01*
X134043851Y-112036851D01*
X134068392Y-112014609D01*
X134094995Y-111994879D01*
X134123404Y-111977852D01*
X134153344Y-111963691D01*
X134184529Y-111952533D01*
X134216657Y-111944485D01*
X134249419Y-111939625D01*
X134282500Y-111938000D01*
X134957500Y-111938000D01*
X134990581Y-111939625D01*
X134990581Y-111939625D01*
G37*
D11*
X134620000Y-112663000D03*
D10*
G36*
X134990581Y-113689625D02*
X135023343Y-113694485D01*
X135055471Y-113702533D01*
X135086656Y-113713691D01*
X135116596Y-113727852D01*
X135145005Y-113744879D01*
X135171608Y-113764609D01*
X135196149Y-113786851D01*
X135218391Y-113811392D01*
X135238121Y-113837995D01*
X135255148Y-113866404D01*
X135269309Y-113896344D01*
X135280467Y-113927529D01*
X135288515Y-113959657D01*
X135293375Y-113992419D01*
X135295000Y-114025500D01*
X135295000Y-114800500D01*
X135293375Y-114833581D01*
X135288515Y-114866343D01*
X135280467Y-114898471D01*
X135269309Y-114929656D01*
X135255148Y-114959596D01*
X135238121Y-114988005D01*
X135218391Y-115014608D01*
X135196149Y-115039149D01*
X135171608Y-115061391D01*
X135145005Y-115081121D01*
X135116596Y-115098148D01*
X135086656Y-115112309D01*
X135055471Y-115123467D01*
X135023343Y-115131515D01*
X134990581Y-115136375D01*
X134957500Y-115138000D01*
X134282500Y-115138000D01*
X134249419Y-115136375D01*
X134216657Y-115131515D01*
X134184529Y-115123467D01*
X134153344Y-115112309D01*
X134123404Y-115098148D01*
X134094995Y-115081121D01*
X134068392Y-115061391D01*
X134043851Y-115039149D01*
X134021609Y-115014608D01*
X134001879Y-114988005D01*
X133984852Y-114959596D01*
X133970691Y-114929656D01*
X133959533Y-114898471D01*
X133951485Y-114866343D01*
X133946625Y-114833581D01*
X133945000Y-114800500D01*
X133945000Y-114025500D01*
X133946625Y-113992419D01*
X133951485Y-113959657D01*
X133959533Y-113927529D01*
X133970691Y-113896344D01*
X133984852Y-113866404D01*
X134001879Y-113837995D01*
X134021609Y-113811392D01*
X134043851Y-113786851D01*
X134068392Y-113764609D01*
X134094995Y-113744879D01*
X134123404Y-113727852D01*
X134153344Y-113713691D01*
X134184529Y-113702533D01*
X134216657Y-113694485D01*
X134249419Y-113689625D01*
X134282500Y-113688000D01*
X134957500Y-113688000D01*
X134990581Y-113689625D01*
X134990581Y-113689625D01*
G37*
D11*
X134620000Y-114413000D03*
G04 #@! TD*
D10*
G04 #@! TO.C,C1*
G36*
X87824581Y-101942625D02*
X87857343Y-101947485D01*
X87889471Y-101955533D01*
X87920656Y-101966691D01*
X87950596Y-101980852D01*
X87979005Y-101997879D01*
X88005608Y-102017609D01*
X88030149Y-102039851D01*
X88052391Y-102064392D01*
X88072121Y-102090995D01*
X88089148Y-102119404D01*
X88103309Y-102149344D01*
X88114467Y-102180529D01*
X88122515Y-102212657D01*
X88127375Y-102245419D01*
X88129000Y-102278500D01*
X88129000Y-102953500D01*
X88127375Y-102986581D01*
X88122515Y-103019343D01*
X88114467Y-103051471D01*
X88103309Y-103082656D01*
X88089148Y-103112596D01*
X88072121Y-103141005D01*
X88052391Y-103167608D01*
X88030149Y-103192149D01*
X88005608Y-103214391D01*
X87979005Y-103234121D01*
X87950596Y-103251148D01*
X87920656Y-103265309D01*
X87889471Y-103276467D01*
X87857343Y-103284515D01*
X87824581Y-103289375D01*
X87791500Y-103291000D01*
X87016500Y-103291000D01*
X86983419Y-103289375D01*
X86950657Y-103284515D01*
X86918529Y-103276467D01*
X86887344Y-103265309D01*
X86857404Y-103251148D01*
X86828995Y-103234121D01*
X86802392Y-103214391D01*
X86777851Y-103192149D01*
X86755609Y-103167608D01*
X86735879Y-103141005D01*
X86718852Y-103112596D01*
X86704691Y-103082656D01*
X86693533Y-103051471D01*
X86685485Y-103019343D01*
X86680625Y-102986581D01*
X86679000Y-102953500D01*
X86679000Y-102278500D01*
X86680625Y-102245419D01*
X86685485Y-102212657D01*
X86693533Y-102180529D01*
X86704691Y-102149344D01*
X86718852Y-102119404D01*
X86735879Y-102090995D01*
X86755609Y-102064392D01*
X86777851Y-102039851D01*
X86802392Y-102017609D01*
X86828995Y-101997879D01*
X86857404Y-101980852D01*
X86887344Y-101966691D01*
X86918529Y-101955533D01*
X86950657Y-101947485D01*
X86983419Y-101942625D01*
X87016500Y-101941000D01*
X87791500Y-101941000D01*
X87824581Y-101942625D01*
X87824581Y-101942625D01*
G37*
D11*
X87404000Y-102616000D03*
D10*
G36*
X89574581Y-101942625D02*
X89607343Y-101947485D01*
X89639471Y-101955533D01*
X89670656Y-101966691D01*
X89700596Y-101980852D01*
X89729005Y-101997879D01*
X89755608Y-102017609D01*
X89780149Y-102039851D01*
X89802391Y-102064392D01*
X89822121Y-102090995D01*
X89839148Y-102119404D01*
X89853309Y-102149344D01*
X89864467Y-102180529D01*
X89872515Y-102212657D01*
X89877375Y-102245419D01*
X89879000Y-102278500D01*
X89879000Y-102953500D01*
X89877375Y-102986581D01*
X89872515Y-103019343D01*
X89864467Y-103051471D01*
X89853309Y-103082656D01*
X89839148Y-103112596D01*
X89822121Y-103141005D01*
X89802391Y-103167608D01*
X89780149Y-103192149D01*
X89755608Y-103214391D01*
X89729005Y-103234121D01*
X89700596Y-103251148D01*
X89670656Y-103265309D01*
X89639471Y-103276467D01*
X89607343Y-103284515D01*
X89574581Y-103289375D01*
X89541500Y-103291000D01*
X88766500Y-103291000D01*
X88733419Y-103289375D01*
X88700657Y-103284515D01*
X88668529Y-103276467D01*
X88637344Y-103265309D01*
X88607404Y-103251148D01*
X88578995Y-103234121D01*
X88552392Y-103214391D01*
X88527851Y-103192149D01*
X88505609Y-103167608D01*
X88485879Y-103141005D01*
X88468852Y-103112596D01*
X88454691Y-103082656D01*
X88443533Y-103051471D01*
X88435485Y-103019343D01*
X88430625Y-102986581D01*
X88429000Y-102953500D01*
X88429000Y-102278500D01*
X88430625Y-102245419D01*
X88435485Y-102212657D01*
X88443533Y-102180529D01*
X88454691Y-102149344D01*
X88468852Y-102119404D01*
X88485879Y-102090995D01*
X88505609Y-102064392D01*
X88527851Y-102039851D01*
X88552392Y-102017609D01*
X88578995Y-101997879D01*
X88607404Y-101980852D01*
X88637344Y-101966691D01*
X88668529Y-101955533D01*
X88700657Y-101947485D01*
X88733419Y-101942625D01*
X88766500Y-101941000D01*
X89541500Y-101941000D01*
X89574581Y-101942625D01*
X89574581Y-101942625D01*
G37*
D11*
X89154000Y-102616000D03*
G04 #@! TD*
D10*
G04 #@! TO.C,C2*
G36*
X82158581Y-114451625D02*
X82191343Y-114456485D01*
X82223471Y-114464533D01*
X82254656Y-114475691D01*
X82284596Y-114489852D01*
X82313005Y-114506879D01*
X82339608Y-114526609D01*
X82364149Y-114548851D01*
X82386391Y-114573392D01*
X82406121Y-114599995D01*
X82423148Y-114628404D01*
X82437309Y-114658344D01*
X82448467Y-114689529D01*
X82456515Y-114721657D01*
X82461375Y-114754419D01*
X82463000Y-114787500D01*
X82463000Y-115562500D01*
X82461375Y-115595581D01*
X82456515Y-115628343D01*
X82448467Y-115660471D01*
X82437309Y-115691656D01*
X82423148Y-115721596D01*
X82406121Y-115750005D01*
X82386391Y-115776608D01*
X82364149Y-115801149D01*
X82339608Y-115823391D01*
X82313005Y-115843121D01*
X82284596Y-115860148D01*
X82254656Y-115874309D01*
X82223471Y-115885467D01*
X82191343Y-115893515D01*
X82158581Y-115898375D01*
X82125500Y-115900000D01*
X81450500Y-115900000D01*
X81417419Y-115898375D01*
X81384657Y-115893515D01*
X81352529Y-115885467D01*
X81321344Y-115874309D01*
X81291404Y-115860148D01*
X81262995Y-115843121D01*
X81236392Y-115823391D01*
X81211851Y-115801149D01*
X81189609Y-115776608D01*
X81169879Y-115750005D01*
X81152852Y-115721596D01*
X81138691Y-115691656D01*
X81127533Y-115660471D01*
X81119485Y-115628343D01*
X81114625Y-115595581D01*
X81113000Y-115562500D01*
X81113000Y-114787500D01*
X81114625Y-114754419D01*
X81119485Y-114721657D01*
X81127533Y-114689529D01*
X81138691Y-114658344D01*
X81152852Y-114628404D01*
X81169879Y-114599995D01*
X81189609Y-114573392D01*
X81211851Y-114548851D01*
X81236392Y-114526609D01*
X81262995Y-114506879D01*
X81291404Y-114489852D01*
X81321344Y-114475691D01*
X81352529Y-114464533D01*
X81384657Y-114456485D01*
X81417419Y-114451625D01*
X81450500Y-114450000D01*
X82125500Y-114450000D01*
X82158581Y-114451625D01*
X82158581Y-114451625D01*
G37*
D11*
X81788000Y-115175000D03*
D10*
G36*
X82158581Y-112701625D02*
X82191343Y-112706485D01*
X82223471Y-112714533D01*
X82254656Y-112725691D01*
X82284596Y-112739852D01*
X82313005Y-112756879D01*
X82339608Y-112776609D01*
X82364149Y-112798851D01*
X82386391Y-112823392D01*
X82406121Y-112849995D01*
X82423148Y-112878404D01*
X82437309Y-112908344D01*
X82448467Y-112939529D01*
X82456515Y-112971657D01*
X82461375Y-113004419D01*
X82463000Y-113037500D01*
X82463000Y-113812500D01*
X82461375Y-113845581D01*
X82456515Y-113878343D01*
X82448467Y-113910471D01*
X82437309Y-113941656D01*
X82423148Y-113971596D01*
X82406121Y-114000005D01*
X82386391Y-114026608D01*
X82364149Y-114051149D01*
X82339608Y-114073391D01*
X82313005Y-114093121D01*
X82284596Y-114110148D01*
X82254656Y-114124309D01*
X82223471Y-114135467D01*
X82191343Y-114143515D01*
X82158581Y-114148375D01*
X82125500Y-114150000D01*
X81450500Y-114150000D01*
X81417419Y-114148375D01*
X81384657Y-114143515D01*
X81352529Y-114135467D01*
X81321344Y-114124309D01*
X81291404Y-114110148D01*
X81262995Y-114093121D01*
X81236392Y-114073391D01*
X81211851Y-114051149D01*
X81189609Y-114026608D01*
X81169879Y-114000005D01*
X81152852Y-113971596D01*
X81138691Y-113941656D01*
X81127533Y-113910471D01*
X81119485Y-113878343D01*
X81114625Y-113845581D01*
X81113000Y-113812500D01*
X81113000Y-113037500D01*
X81114625Y-113004419D01*
X81119485Y-112971657D01*
X81127533Y-112939529D01*
X81138691Y-112908344D01*
X81152852Y-112878404D01*
X81169879Y-112849995D01*
X81189609Y-112823392D01*
X81211851Y-112798851D01*
X81236392Y-112776609D01*
X81262995Y-112756879D01*
X81291404Y-112739852D01*
X81321344Y-112725691D01*
X81352529Y-112714533D01*
X81384657Y-112706485D01*
X81417419Y-112701625D01*
X81450500Y-112700000D01*
X82125500Y-112700000D01*
X82158581Y-112701625D01*
X82158581Y-112701625D01*
G37*
D11*
X81788000Y-113425000D03*
G04 #@! TD*
D10*
G04 #@! TO.C,C4*
G36*
X82158581Y-105081625D02*
X82191343Y-105086485D01*
X82223471Y-105094533D01*
X82254656Y-105105691D01*
X82284596Y-105119852D01*
X82313005Y-105136879D01*
X82339608Y-105156609D01*
X82364149Y-105178851D01*
X82386391Y-105203392D01*
X82406121Y-105229995D01*
X82423148Y-105258404D01*
X82437309Y-105288344D01*
X82448467Y-105319529D01*
X82456515Y-105351657D01*
X82461375Y-105384419D01*
X82463000Y-105417500D01*
X82463000Y-106192500D01*
X82461375Y-106225581D01*
X82456515Y-106258343D01*
X82448467Y-106290471D01*
X82437309Y-106321656D01*
X82423148Y-106351596D01*
X82406121Y-106380005D01*
X82386391Y-106406608D01*
X82364149Y-106431149D01*
X82339608Y-106453391D01*
X82313005Y-106473121D01*
X82284596Y-106490148D01*
X82254656Y-106504309D01*
X82223471Y-106515467D01*
X82191343Y-106523515D01*
X82158581Y-106528375D01*
X82125500Y-106530000D01*
X81450500Y-106530000D01*
X81417419Y-106528375D01*
X81384657Y-106523515D01*
X81352529Y-106515467D01*
X81321344Y-106504309D01*
X81291404Y-106490148D01*
X81262995Y-106473121D01*
X81236392Y-106453391D01*
X81211851Y-106431149D01*
X81189609Y-106406608D01*
X81169879Y-106380005D01*
X81152852Y-106351596D01*
X81138691Y-106321656D01*
X81127533Y-106290471D01*
X81119485Y-106258343D01*
X81114625Y-106225581D01*
X81113000Y-106192500D01*
X81113000Y-105417500D01*
X81114625Y-105384419D01*
X81119485Y-105351657D01*
X81127533Y-105319529D01*
X81138691Y-105288344D01*
X81152852Y-105258404D01*
X81169879Y-105229995D01*
X81189609Y-105203392D01*
X81211851Y-105178851D01*
X81236392Y-105156609D01*
X81262995Y-105136879D01*
X81291404Y-105119852D01*
X81321344Y-105105691D01*
X81352529Y-105094533D01*
X81384657Y-105086485D01*
X81417419Y-105081625D01*
X81450500Y-105080000D01*
X82125500Y-105080000D01*
X82158581Y-105081625D01*
X82158581Y-105081625D01*
G37*
D11*
X81788000Y-105805000D03*
D10*
G36*
X82158581Y-106831625D02*
X82191343Y-106836485D01*
X82223471Y-106844533D01*
X82254656Y-106855691D01*
X82284596Y-106869852D01*
X82313005Y-106886879D01*
X82339608Y-106906609D01*
X82364149Y-106928851D01*
X82386391Y-106953392D01*
X82406121Y-106979995D01*
X82423148Y-107008404D01*
X82437309Y-107038344D01*
X82448467Y-107069529D01*
X82456515Y-107101657D01*
X82461375Y-107134419D01*
X82463000Y-107167500D01*
X82463000Y-107942500D01*
X82461375Y-107975581D01*
X82456515Y-108008343D01*
X82448467Y-108040471D01*
X82437309Y-108071656D01*
X82423148Y-108101596D01*
X82406121Y-108130005D01*
X82386391Y-108156608D01*
X82364149Y-108181149D01*
X82339608Y-108203391D01*
X82313005Y-108223121D01*
X82284596Y-108240148D01*
X82254656Y-108254309D01*
X82223471Y-108265467D01*
X82191343Y-108273515D01*
X82158581Y-108278375D01*
X82125500Y-108280000D01*
X81450500Y-108280000D01*
X81417419Y-108278375D01*
X81384657Y-108273515D01*
X81352529Y-108265467D01*
X81321344Y-108254309D01*
X81291404Y-108240148D01*
X81262995Y-108223121D01*
X81236392Y-108203391D01*
X81211851Y-108181149D01*
X81189609Y-108156608D01*
X81169879Y-108130005D01*
X81152852Y-108101596D01*
X81138691Y-108071656D01*
X81127533Y-108040471D01*
X81119485Y-108008343D01*
X81114625Y-107975581D01*
X81113000Y-107942500D01*
X81113000Y-107167500D01*
X81114625Y-107134419D01*
X81119485Y-107101657D01*
X81127533Y-107069529D01*
X81138691Y-107038344D01*
X81152852Y-107008404D01*
X81169879Y-106979995D01*
X81189609Y-106953392D01*
X81211851Y-106928851D01*
X81236392Y-106906609D01*
X81262995Y-106886879D01*
X81291404Y-106869852D01*
X81321344Y-106855691D01*
X81352529Y-106844533D01*
X81384657Y-106836485D01*
X81417419Y-106831625D01*
X81450500Y-106830000D01*
X82125500Y-106830000D01*
X82158581Y-106831625D01*
X82158581Y-106831625D01*
G37*
D11*
X81788000Y-107555000D03*
G04 #@! TD*
D10*
G04 #@! TO.C,C5*
G36*
X82158581Y-110641625D02*
X82191343Y-110646485D01*
X82223471Y-110654533D01*
X82254656Y-110665691D01*
X82284596Y-110679852D01*
X82313005Y-110696879D01*
X82339608Y-110716609D01*
X82364149Y-110738851D01*
X82386391Y-110763392D01*
X82406121Y-110789995D01*
X82423148Y-110818404D01*
X82437309Y-110848344D01*
X82448467Y-110879529D01*
X82456515Y-110911657D01*
X82461375Y-110944419D01*
X82463000Y-110977500D01*
X82463000Y-111752500D01*
X82461375Y-111785581D01*
X82456515Y-111818343D01*
X82448467Y-111850471D01*
X82437309Y-111881656D01*
X82423148Y-111911596D01*
X82406121Y-111940005D01*
X82386391Y-111966608D01*
X82364149Y-111991149D01*
X82339608Y-112013391D01*
X82313005Y-112033121D01*
X82284596Y-112050148D01*
X82254656Y-112064309D01*
X82223471Y-112075467D01*
X82191343Y-112083515D01*
X82158581Y-112088375D01*
X82125500Y-112090000D01*
X81450500Y-112090000D01*
X81417419Y-112088375D01*
X81384657Y-112083515D01*
X81352529Y-112075467D01*
X81321344Y-112064309D01*
X81291404Y-112050148D01*
X81262995Y-112033121D01*
X81236392Y-112013391D01*
X81211851Y-111991149D01*
X81189609Y-111966608D01*
X81169879Y-111940005D01*
X81152852Y-111911596D01*
X81138691Y-111881656D01*
X81127533Y-111850471D01*
X81119485Y-111818343D01*
X81114625Y-111785581D01*
X81113000Y-111752500D01*
X81113000Y-110977500D01*
X81114625Y-110944419D01*
X81119485Y-110911657D01*
X81127533Y-110879529D01*
X81138691Y-110848344D01*
X81152852Y-110818404D01*
X81169879Y-110789995D01*
X81189609Y-110763392D01*
X81211851Y-110738851D01*
X81236392Y-110716609D01*
X81262995Y-110696879D01*
X81291404Y-110679852D01*
X81321344Y-110665691D01*
X81352529Y-110654533D01*
X81384657Y-110646485D01*
X81417419Y-110641625D01*
X81450500Y-110640000D01*
X82125500Y-110640000D01*
X82158581Y-110641625D01*
X82158581Y-110641625D01*
G37*
D11*
X81788000Y-111365000D03*
D10*
G36*
X82158581Y-108891625D02*
X82191343Y-108896485D01*
X82223471Y-108904533D01*
X82254656Y-108915691D01*
X82284596Y-108929852D01*
X82313005Y-108946879D01*
X82339608Y-108966609D01*
X82364149Y-108988851D01*
X82386391Y-109013392D01*
X82406121Y-109039995D01*
X82423148Y-109068404D01*
X82437309Y-109098344D01*
X82448467Y-109129529D01*
X82456515Y-109161657D01*
X82461375Y-109194419D01*
X82463000Y-109227500D01*
X82463000Y-110002500D01*
X82461375Y-110035581D01*
X82456515Y-110068343D01*
X82448467Y-110100471D01*
X82437309Y-110131656D01*
X82423148Y-110161596D01*
X82406121Y-110190005D01*
X82386391Y-110216608D01*
X82364149Y-110241149D01*
X82339608Y-110263391D01*
X82313005Y-110283121D01*
X82284596Y-110300148D01*
X82254656Y-110314309D01*
X82223471Y-110325467D01*
X82191343Y-110333515D01*
X82158581Y-110338375D01*
X82125500Y-110340000D01*
X81450500Y-110340000D01*
X81417419Y-110338375D01*
X81384657Y-110333515D01*
X81352529Y-110325467D01*
X81321344Y-110314309D01*
X81291404Y-110300148D01*
X81262995Y-110283121D01*
X81236392Y-110263391D01*
X81211851Y-110241149D01*
X81189609Y-110216608D01*
X81169879Y-110190005D01*
X81152852Y-110161596D01*
X81138691Y-110131656D01*
X81127533Y-110100471D01*
X81119485Y-110068343D01*
X81114625Y-110035581D01*
X81113000Y-110002500D01*
X81113000Y-109227500D01*
X81114625Y-109194419D01*
X81119485Y-109161657D01*
X81127533Y-109129529D01*
X81138691Y-109098344D01*
X81152852Y-109068404D01*
X81169879Y-109039995D01*
X81189609Y-109013392D01*
X81211851Y-108988851D01*
X81236392Y-108966609D01*
X81262995Y-108946879D01*
X81291404Y-108929852D01*
X81321344Y-108915691D01*
X81352529Y-108904533D01*
X81384657Y-108896485D01*
X81417419Y-108891625D01*
X81450500Y-108890000D01*
X82125500Y-108890000D01*
X82158581Y-108891625D01*
X82158581Y-108891625D01*
G37*
D11*
X81788000Y-109615000D03*
G04 #@! TD*
D10*
G04 #@! TO.C,C6*
G36*
X129910581Y-113689625D02*
X129943343Y-113694485D01*
X129975471Y-113702533D01*
X130006656Y-113713691D01*
X130036596Y-113727852D01*
X130065005Y-113744879D01*
X130091608Y-113764609D01*
X130116149Y-113786851D01*
X130138391Y-113811392D01*
X130158121Y-113837995D01*
X130175148Y-113866404D01*
X130189309Y-113896344D01*
X130200467Y-113927529D01*
X130208515Y-113959657D01*
X130213375Y-113992419D01*
X130215000Y-114025500D01*
X130215000Y-114800500D01*
X130213375Y-114833581D01*
X130208515Y-114866343D01*
X130200467Y-114898471D01*
X130189309Y-114929656D01*
X130175148Y-114959596D01*
X130158121Y-114988005D01*
X130138391Y-115014608D01*
X130116149Y-115039149D01*
X130091608Y-115061391D01*
X130065005Y-115081121D01*
X130036596Y-115098148D01*
X130006656Y-115112309D01*
X129975471Y-115123467D01*
X129943343Y-115131515D01*
X129910581Y-115136375D01*
X129877500Y-115138000D01*
X129202500Y-115138000D01*
X129169419Y-115136375D01*
X129136657Y-115131515D01*
X129104529Y-115123467D01*
X129073344Y-115112309D01*
X129043404Y-115098148D01*
X129014995Y-115081121D01*
X128988392Y-115061391D01*
X128963851Y-115039149D01*
X128941609Y-115014608D01*
X128921879Y-114988005D01*
X128904852Y-114959596D01*
X128890691Y-114929656D01*
X128879533Y-114898471D01*
X128871485Y-114866343D01*
X128866625Y-114833581D01*
X128865000Y-114800500D01*
X128865000Y-114025500D01*
X128866625Y-113992419D01*
X128871485Y-113959657D01*
X128879533Y-113927529D01*
X128890691Y-113896344D01*
X128904852Y-113866404D01*
X128921879Y-113837995D01*
X128941609Y-113811392D01*
X128963851Y-113786851D01*
X128988392Y-113764609D01*
X129014995Y-113744879D01*
X129043404Y-113727852D01*
X129073344Y-113713691D01*
X129104529Y-113702533D01*
X129136657Y-113694485D01*
X129169419Y-113689625D01*
X129202500Y-113688000D01*
X129877500Y-113688000D01*
X129910581Y-113689625D01*
X129910581Y-113689625D01*
G37*
D11*
X129540000Y-114413000D03*
D10*
G36*
X129910581Y-111939625D02*
X129943343Y-111944485D01*
X129975471Y-111952533D01*
X130006656Y-111963691D01*
X130036596Y-111977852D01*
X130065005Y-111994879D01*
X130091608Y-112014609D01*
X130116149Y-112036851D01*
X130138391Y-112061392D01*
X130158121Y-112087995D01*
X130175148Y-112116404D01*
X130189309Y-112146344D01*
X130200467Y-112177529D01*
X130208515Y-112209657D01*
X130213375Y-112242419D01*
X130215000Y-112275500D01*
X130215000Y-113050500D01*
X130213375Y-113083581D01*
X130208515Y-113116343D01*
X130200467Y-113148471D01*
X130189309Y-113179656D01*
X130175148Y-113209596D01*
X130158121Y-113238005D01*
X130138391Y-113264608D01*
X130116149Y-113289149D01*
X130091608Y-113311391D01*
X130065005Y-113331121D01*
X130036596Y-113348148D01*
X130006656Y-113362309D01*
X129975471Y-113373467D01*
X129943343Y-113381515D01*
X129910581Y-113386375D01*
X129877500Y-113388000D01*
X129202500Y-113388000D01*
X129169419Y-113386375D01*
X129136657Y-113381515D01*
X129104529Y-113373467D01*
X129073344Y-113362309D01*
X129043404Y-113348148D01*
X129014995Y-113331121D01*
X128988392Y-113311391D01*
X128963851Y-113289149D01*
X128941609Y-113264608D01*
X128921879Y-113238005D01*
X128904852Y-113209596D01*
X128890691Y-113179656D01*
X128879533Y-113148471D01*
X128871485Y-113116343D01*
X128866625Y-113083581D01*
X128865000Y-113050500D01*
X128865000Y-112275500D01*
X128866625Y-112242419D01*
X128871485Y-112209657D01*
X128879533Y-112177529D01*
X128890691Y-112146344D01*
X128904852Y-112116404D01*
X128921879Y-112087995D01*
X128941609Y-112061392D01*
X128963851Y-112036851D01*
X128988392Y-112014609D01*
X129014995Y-111994879D01*
X129043404Y-111977852D01*
X129073344Y-111963691D01*
X129104529Y-111952533D01*
X129136657Y-111944485D01*
X129169419Y-111939625D01*
X129202500Y-111938000D01*
X129877500Y-111938000D01*
X129910581Y-111939625D01*
X129910581Y-111939625D01*
G37*
D11*
X129540000Y-112663000D03*
G04 #@! TD*
D12*
G04 #@! TO.C,Conn1*
X135508000Y-89433400D03*
X127507000Y-89433400D03*
G04 #@! TD*
D13*
G04 #@! TO.C,Conn2*
X100330000Y-84582000D03*
X102870000Y-84582000D03*
X105410000Y-84582000D03*
X107950000Y-84582000D03*
X110490000Y-84582000D03*
D14*
X99060000Y-75946000D03*
X111760000Y-75946000D03*
G04 #@! TD*
G04 #@! TO.C,Conn3*
X94488000Y-75946000D03*
X81788000Y-75946000D03*
D13*
X93218000Y-84582000D03*
X90678000Y-84582000D03*
X88138000Y-84582000D03*
X85598000Y-84582000D03*
X83058000Y-84582000D03*
G04 #@! TD*
D15*
G04 #@! TO.C,U1*
X80543001Y-137921001D03*
X103403001Y-92201001D03*
X100863001Y-92201001D03*
X93243001Y-92201001D03*
X90703001Y-135381001D03*
X95783001Y-92201001D03*
X98323001Y-92201001D03*
X95783001Y-137921001D03*
X100863001Y-135381001D03*
X90703001Y-92201001D03*
X88163001Y-92201001D03*
X100863001Y-137921001D03*
X95783001Y-135381001D03*
X93243001Y-135381001D03*
X80543001Y-135381001D03*
X83083001Y-135381001D03*
X85623001Y-135381001D03*
X88163001Y-135381001D03*
X98323001Y-135381001D03*
X103403001Y-135381001D03*
X83083001Y-137921001D03*
X85623001Y-137921001D03*
X88163001Y-137921001D03*
X90703001Y-137921001D03*
X93243001Y-137921001D03*
X98323001Y-137921001D03*
X103403001Y-137921001D03*
X80543001Y-94741001D03*
X83083001Y-94741001D03*
X85623001Y-94741001D03*
X88163001Y-94741001D03*
X90703001Y-94741001D03*
X93243001Y-94741001D03*
X95783001Y-94741001D03*
X98323001Y-94741001D03*
X100863001Y-94741001D03*
X103403001Y-94741001D03*
X80543001Y-92201001D03*
X83083001Y-92201001D03*
X85623001Y-92201001D03*
G04 #@! TD*
D16*
G04 #@! TO.C,U2*
X85438000Y-106045000D03*
X85438000Y-107315000D03*
X85438000Y-108585000D03*
X85438000Y-109855000D03*
X85438000Y-111125000D03*
X85438000Y-112395000D03*
X85438000Y-113665000D03*
X85438000Y-114935000D03*
X90838000Y-114935000D03*
X90838000Y-113665000D03*
X90838000Y-112395000D03*
X90838000Y-111125000D03*
X90838000Y-109855000D03*
X90838000Y-108585000D03*
X90838000Y-107315000D03*
X90838000Y-106045000D03*
G04 #@! TD*
D13*
G04 #@! TO.C,U3*
X134620000Y-109220000D03*
X132080000Y-109220000D03*
X129540000Y-109220000D03*
G04 #@! TD*
M02*
