G04 #@! TF.GenerationSoftware,KiCad,Pcbnew,(5.0.0)*
G04 #@! TF.CreationDate,2018-10-03T21:48:04-05:00*
G04 #@! TF.ProjectId,DriveBoard_Hardware,4472697665426F6172645F4861726477,rev?*
G04 #@! TF.SameCoordinates,Original*
G04 #@! TF.FileFunction,Copper,L2,Bot,Signal*
G04 #@! TF.FilePolarity,Positive*
%FSLAX46Y46*%
G04 Gerber Fmt 4.6, Leading zero omitted, Abs format (unit mm)*
G04 Created by KiCad (PCBNEW (5.0.0)) date 10/03/18 21:48:04*
%MOMM*%
%LPD*%
G01*
G04 APERTURE LIST*
G04 #@! TA.AperFunction,ComponentPad*
%ADD10C,1.520000*%
G04 #@! TD*
G04 #@! TA.AperFunction,ComponentPad*
%ADD11C,5.080000*%
G04 #@! TD*
G04 #@! TA.AperFunction,ComponentPad*
%ADD12C,1.524000*%
G04 #@! TD*
G04 #@! TA.AperFunction,ViaPad*
%ADD13C,0.800000*%
G04 #@! TD*
G04 #@! TA.AperFunction,Conductor*
%ADD14C,0.381000*%
G04 #@! TD*
G04 #@! TA.AperFunction,Conductor*
%ADD15C,0.254000*%
G04 #@! TD*
G04 APERTURE END LIST*
D10*
G04 #@! TO.P,U1,PP5*
G04 #@! TO.N,Net-(U1-PadPP5)*
X118389001Y-74675001D03*
G04 #@! TO.P,U1,PM7*
G04 #@! TO.N,Net-(U1-PadPM7)*
X115849001Y-74675001D03*
G04 #@! TO.P,U1,GND*
G04 #@! TO.N,GND*
X113309001Y-74675001D03*
G04 #@! TO.P,U1,PK7*
G04 #@! TO.N,Net-(U1-PadPK7)*
X136169001Y-77215001D03*
G04 #@! TO.P,U1,PK6*
G04 #@! TO.N,Net-(U1-PadPK6)*
X133629001Y-77215001D03*
G04 #@! TO.P,U1,PH1*
G04 #@! TO.N,Net-(U1-PadPH1)*
X131089001Y-77215001D03*
G04 #@! TO.P,U1,PH0*
G04 #@! TO.N,Net-(U1-PadPH0)*
X128549001Y-77215001D03*
G04 #@! TO.P,U1,PM2*
G04 #@! TO.N,Net-(U1-PadPM2)*
X126009001Y-77215001D03*
G04 #@! TO.P,U1,PM1*
G04 #@! TO.N,Net-(U1-PadPM1)*
X123469001Y-77215001D03*
G04 #@! TO.P,U1,PM0*
G04 #@! TO.N,Net-(U1-PadPM0)*
X120929001Y-77215001D03*
G04 #@! TO.P,U1,PK5*
G04 #@! TO.N,Net-(U1-PadPK5)*
X118389001Y-77215001D03*
G04 #@! TO.P,U1,PK4*
G04 #@! TO.N,Net-(U1-PadPK4)*
X115849001Y-77215001D03*
G04 #@! TO.P,U1,PG1*
G04 #@! TO.N,Net-(U1-PadPG1)*
X113309001Y-77215001D03*
G04 #@! TO.P,U1,PN4*
G04 #@! TO.N,Net-(U1-PadPN4)*
X136169001Y-120395001D03*
G04 #@! TO.P,U1,PP4*
G04 #@! TO.N,Net-(U1-PadPP4)*
X131089001Y-120395001D03*
G04 #@! TO.P,U1,PD5*
G04 #@! TO.N,Net-(U1-PadPD5)*
X126009001Y-120395001D03*
G04 #@! TO.P,U1,PD4*
G04 #@! TO.N,Net-(U1-PadPD4)*
X123469001Y-120395001D03*
G04 #@! TO.P,U1,PP1*
G04 #@! TO.N,TX_1_IC*
X120929001Y-120395001D03*
G04 #@! TO.P,U1,PP0*
G04 #@! TO.N,RX_1_IC*
X118389001Y-120395001D03*
G04 #@! TO.P,U1,PD2*
G04 #@! TO.N,Net-(U1-PadPD2)*
X115849001Y-120395001D03*
G04 #@! TO.P,U1,PA5*
G04 #@! TO.N,Net-(U1-PadPA5)*
X136169001Y-117855001D03*
G04 #@! TO.P,U1,PK3*
G04 #@! TO.N,Net-(U1-PadPK3)*
X131089001Y-117855001D03*
G04 #@! TO.P,U1,PB5*
G04 #@! TO.N,Net-(U1-PadPB5)*
X120929001Y-117855001D03*
G04 #@! TO.P,U1,PB4*
G04 #@! TO.N,Net-(U1-PadPB4)*
X118389001Y-117855001D03*
G04 #@! TO.P,U1,GND*
G04 #@! TO.N,GND*
X115849001Y-117855001D03*
G04 #@! TO.P,U1,+5V*
G04 #@! TO.N,+5V*
X113309001Y-117855001D03*
G04 #@! TO.P,U1,PK1*
G04 #@! TO.N,TX_2_IC*
X126009001Y-117855001D03*
G04 #@! TO.P,U1,PK2*
G04 #@! TO.N,Net-(U1-PadPK2)*
X128549001Y-117855001D03*
G04 #@! TO.P,U1,PN5*
G04 #@! TO.N,Net-(U1-PadPN5)*
X133629001Y-120395001D03*
G04 #@! TO.P,U1,PA7*
G04 #@! TO.N,Net-(U1-PadPA7)*
X120929001Y-74675001D03*
G04 #@! TO.P,U1,Rese*
G04 #@! TO.N,Net-(U1-PadRese)*
X123469001Y-74675001D03*
G04 #@! TO.P,U1,PA4*
G04 #@! TO.N,Net-(U1-PadPA4)*
X133629001Y-117855001D03*
G04 #@! TO.P,U1,PQ0*
G04 #@! TO.N,Net-(U1-PadPQ0)*
X128549001Y-120395001D03*
G04 #@! TO.P,U1,PP3*
G04 #@! TO.N,Net-(U1-PadPP3)*
X131089001Y-74675001D03*
G04 #@! TO.P,U1,PQ3*
G04 #@! TO.N,Net-(U1-PadPQ3)*
X128549001Y-74675001D03*
G04 #@! TO.P,U1,PK0*
G04 #@! TO.N,RX_2_IC*
X123469001Y-117855001D03*
G04 #@! TO.P,U1,PQ2*
G04 #@! TO.N,Net-(U1-PadPQ2)*
X126009001Y-74675001D03*
G04 #@! TO.P,U1,PQ1*
G04 #@! TO.N,Net-(U1-PadPQ1)*
X133629001Y-74675001D03*
G04 #@! TO.P,U1,PM6*
G04 #@! TO.N,Net-(U1-PadPM6)*
X136169001Y-74675001D03*
G04 #@! TO.P,U1,+3V3*
G04 #@! TO.N,Net-(U1-Pad+3V3)*
X113309001Y-120395001D03*
G04 #@! TD*
D11*
G04 #@! TO.P,Conn1,1*
G04 #@! TO.N,GND*
X143281400Y-60707000D03*
G04 #@! TO.P,Conn1,2*
G04 #@! TO.N,/+12V*
X143281400Y-52706000D03*
G04 #@! TD*
D12*
G04 #@! TO.P,Conn2,1*
G04 #@! TO.N,Net-(Conn2-Pad1)*
X157480000Y-68580000D03*
G04 #@! TO.P,Conn2,2*
G04 #@! TO.N,Net-(Conn2-Pad2)*
X157480000Y-71120000D03*
G04 #@! TO.P,Conn2,3*
G04 #@! TO.N,GND*
X157480000Y-73660000D03*
G04 #@! TO.P,Conn2,4*
G04 #@! TO.N,TX_1_SL*
X157480000Y-76200000D03*
G04 #@! TO.P,Conn2,5*
G04 #@! TO.N,RX_1_SL*
X157480000Y-78740000D03*
G04 #@! TD*
G04 #@! TO.P,Conn3,5*
G04 #@! TO.N,RX_2_SL*
X157480000Y-96520000D03*
G04 #@! TO.P,Conn3,4*
G04 #@! TO.N,TX_2_SL*
X157480000Y-93980000D03*
G04 #@! TO.P,Conn3,3*
G04 #@! TO.N,GND*
X157480000Y-91440000D03*
G04 #@! TO.P,Conn3,2*
G04 #@! TO.N,Net-(Conn3-Pad2)*
X157480000Y-88900000D03*
G04 #@! TO.P,Conn3,1*
G04 #@! TO.N,Net-(Conn3-Pad1)*
X157480000Y-86360000D03*
G04 #@! TD*
G04 #@! TO.P,U3,1*
G04 #@! TO.N,/+12V*
X156819600Y-59334400D03*
G04 #@! TO.P,U3,2*
G04 #@! TO.N,GND*
X156819600Y-56794400D03*
G04 #@! TO.P,U3,3*
G04 #@! TO.N,+5V*
X156819600Y-54254400D03*
G04 #@! TD*
D13*
G04 #@! TO.N,GND*
X124079000Y-90805000D03*
X123799600Y-87731600D03*
G04 #@! TO.N,Net-(C2-Pad1)*
X128270000Y-95885000D03*
X138825000Y-85965000D03*
G04 #@! TO.N,TX_1_SL*
X140970000Y-91440000D03*
G04 #@! TO.N,RX_1_SL*
X144627600Y-92710000D03*
G04 #@! TO.N,RX_2_SL*
X130683000Y-101092000D03*
G04 #@! TO.N,TX_2_SL*
X128270000Y-99822000D03*
G04 #@! TO.N,TX_1_IC*
X135763000Y-105537000D03*
X131445000Y-105791000D03*
G04 #@! TD*
D14*
G04 #@! TO.N,GND*
X123799600Y-90525600D02*
X124079000Y-90805000D01*
X123799600Y-87731600D02*
X123799600Y-90525600D01*
G04 #@! TO.N,Net-(C2-Pad1)*
X129309998Y-85965000D02*
X138825000Y-85965000D01*
X129304999Y-85969999D02*
X129309998Y-85965000D01*
X129304999Y-94284316D02*
X129304999Y-85969999D01*
X128447316Y-94284316D02*
X129304999Y-94284316D01*
X128270000Y-95885000D02*
X128270000Y-94461632D01*
X128270000Y-94461632D02*
X128447316Y-94284316D01*
G04 #@! TO.N,TX_1_SL*
X157480000Y-76200000D02*
X141020800Y-76200000D01*
X140970000Y-76250800D02*
X141020800Y-76200000D01*
X140970000Y-91440000D02*
X140970000Y-76250800D01*
G04 #@! TO.N,RX_1_SL*
X144627600Y-92144315D02*
X144627600Y-92710000D01*
X144665701Y-92106214D02*
X144627600Y-92144315D01*
X144665701Y-78854299D02*
X144665701Y-92106214D01*
X157480000Y-78740000D02*
X144780000Y-78740000D01*
X144780000Y-78740000D02*
X144665701Y-78854299D01*
G04 #@! TO.N,RX_2_SL*
X154559000Y-101092000D02*
X130683000Y-101092000D01*
X156718001Y-98932999D02*
X154559000Y-101092000D01*
X156718001Y-97281999D02*
X156718001Y-98932999D01*
X157480000Y-96520000D02*
X156718001Y-97281999D01*
G04 #@! TO.N,TX_2_SL*
X128270000Y-99822000D02*
X154108990Y-99822000D01*
X154305000Y-93980000D02*
X157480000Y-93980000D01*
X154108990Y-94176010D02*
X154305000Y-93980000D01*
X154108990Y-94176010D02*
X154108990Y-99822000D01*
G04 #@! TO.N,TX_1_IC*
X131699000Y-105537000D02*
X131445000Y-105791000D01*
X135763000Y-105537000D02*
X131699000Y-105537000D01*
G04 #@! TD*
D15*
G04 #@! TO.N,+5V*
G36*
X141482907Y-50014365D02*
X140589765Y-50907507D01*
X140106400Y-52074453D01*
X140106400Y-53337547D01*
X140589765Y-54504493D01*
X141482907Y-55397635D01*
X142649853Y-55881000D01*
X143912947Y-55881000D01*
X145079893Y-55397635D01*
X145973035Y-54504493D01*
X146456400Y-53337547D01*
X146456400Y-52074453D01*
X145973035Y-50907507D01*
X145079893Y-50014365D01*
X144398204Y-49732000D01*
X170916819Y-49732000D01*
X171336409Y-49792090D01*
X171675752Y-49946381D01*
X171958152Y-50189712D01*
X172160906Y-50502523D01*
X172274748Y-50883184D01*
X172289400Y-51080350D01*
X172289401Y-99263412D01*
X172229310Y-99683009D01*
X172075019Y-100022352D01*
X171831688Y-100304752D01*
X171518879Y-100507506D01*
X171138215Y-100621348D01*
X170941049Y-100636000D01*
X156182433Y-100636000D01*
X157244230Y-99574204D01*
X157313153Y-99528151D01*
X157384846Y-99420856D01*
X157495604Y-99255094D01*
X157495605Y-99255093D01*
X157543501Y-99014302D01*
X157543501Y-99014298D01*
X157559672Y-98933000D01*
X157543501Y-98851702D01*
X157543501Y-97917000D01*
X157757881Y-97917000D01*
X158271337Y-97704320D01*
X158655090Y-97320567D01*
X163756000Y-97320567D01*
X163756000Y-98259433D01*
X164115289Y-99126833D01*
X164779167Y-99790711D01*
X165646567Y-100150000D01*
X166585433Y-100150000D01*
X167452833Y-99790711D01*
X168116711Y-99126833D01*
X168476000Y-98259433D01*
X168476000Y-97320567D01*
X168116711Y-96453167D01*
X167452833Y-95789289D01*
X166585433Y-95430000D01*
X165646567Y-95430000D01*
X164779167Y-95789289D01*
X164115289Y-96453167D01*
X163756000Y-97320567D01*
X158655090Y-97320567D01*
X158664320Y-97311337D01*
X158877000Y-96797881D01*
X158877000Y-96242119D01*
X158664320Y-95728663D01*
X158271337Y-95335680D01*
X158064487Y-95250000D01*
X158271337Y-95164320D01*
X158664320Y-94771337D01*
X158877000Y-94257881D01*
X158877000Y-93702119D01*
X158664320Y-93188663D01*
X158271337Y-92795680D01*
X158064487Y-92710000D01*
X158271337Y-92624320D01*
X158664320Y-92231337D01*
X158877000Y-91717881D01*
X158877000Y-91162119D01*
X158664320Y-90648663D01*
X158271337Y-90255680D01*
X158064487Y-90170000D01*
X158271337Y-90084320D01*
X158664320Y-89691337D01*
X158877000Y-89177881D01*
X158877000Y-88622119D01*
X158664320Y-88108663D01*
X158271337Y-87715680D01*
X158064487Y-87630000D01*
X158271337Y-87544320D01*
X158664320Y-87151337D01*
X158877000Y-86637881D01*
X158877000Y-86082119D01*
X158664320Y-85568663D01*
X158271337Y-85175680D01*
X157757881Y-84963000D01*
X157202119Y-84963000D01*
X156688663Y-85175680D01*
X156295680Y-85568663D01*
X156083000Y-86082119D01*
X156083000Y-86637881D01*
X156295680Y-87151337D01*
X156688663Y-87544320D01*
X156895513Y-87630000D01*
X156688663Y-87715680D01*
X156295680Y-88108663D01*
X156083000Y-88622119D01*
X156083000Y-89177881D01*
X156295680Y-89691337D01*
X156688663Y-90084320D01*
X156895513Y-90170000D01*
X156688663Y-90255680D01*
X156295680Y-90648663D01*
X156083000Y-91162119D01*
X156083000Y-91717881D01*
X156295680Y-92231337D01*
X156688663Y-92624320D01*
X156895513Y-92710000D01*
X156688663Y-92795680D01*
X156329843Y-93154500D01*
X154386301Y-93154500D01*
X154304999Y-93138328D01*
X154223698Y-93154500D01*
X154223697Y-93154500D01*
X153982906Y-93202396D01*
X153709848Y-93384848D01*
X153663791Y-93453777D01*
X153582767Y-93534801D01*
X153513838Y-93580858D01*
X153331386Y-93853917D01*
X153283490Y-94094707D01*
X153267318Y-94176010D01*
X153283490Y-94257312D01*
X153283491Y-98996500D01*
X128908211Y-98996500D01*
X128856280Y-98944569D01*
X128475874Y-98787000D01*
X128064126Y-98787000D01*
X127683720Y-98944569D01*
X127392569Y-99235720D01*
X127235000Y-99616126D01*
X127235000Y-100027874D01*
X127392569Y-100408280D01*
X127683720Y-100699431D01*
X128064126Y-100857000D01*
X128475874Y-100857000D01*
X128856280Y-100699431D01*
X128908211Y-100647500D01*
X129746842Y-100647500D01*
X129648000Y-100886126D01*
X129648000Y-101297874D01*
X129805569Y-101678280D01*
X130096720Y-101969431D01*
X130477126Y-102127000D01*
X130888874Y-102127000D01*
X131269280Y-101969431D01*
X131321211Y-101917500D01*
X154477699Y-101917500D01*
X154509401Y-101923806D01*
X154509400Y-122104074D01*
X154495491Y-122174000D01*
X154550595Y-122451028D01*
X154707519Y-122685881D01*
X154942372Y-122842805D01*
X155101971Y-122874551D01*
X155219400Y-122897909D01*
X155289325Y-122884000D01*
X170916819Y-122884000D01*
X171336409Y-122944090D01*
X171675752Y-123098381D01*
X171958152Y-123341712D01*
X172160906Y-123654523D01*
X172274748Y-124035184D01*
X172289401Y-124232363D01*
X172289400Y-131723281D01*
X172203891Y-131749423D01*
X172111433Y-131776460D01*
X172103559Y-131780098D01*
X171582044Y-132024948D01*
X171501475Y-132077872D01*
X171420327Y-132129768D01*
X171413790Y-132135470D01*
X170981958Y-132516851D01*
X170919496Y-132590244D01*
X170856160Y-132662847D01*
X170851487Y-132670154D01*
X170544054Y-133157407D01*
X170504698Y-133245387D01*
X170464289Y-133332840D01*
X170461857Y-133341160D01*
X170461854Y-133341166D01*
X170461853Y-133341173D01*
X170303534Y-133895118D01*
X170290456Y-133990586D01*
X170276213Y-134085890D01*
X170276213Y-134094564D01*
X170279733Y-134670687D01*
X170293988Y-134766068D01*
X170307054Y-134861455D01*
X170309488Y-134869781D01*
X170474564Y-135421758D01*
X170514991Y-135509250D01*
X170554330Y-135597194D01*
X170559003Y-135604501D01*
X170872366Y-136087961D01*
X170935728Y-136160594D01*
X170998163Y-136233955D01*
X171004696Y-136239654D01*
X171004700Y-136239658D01*
X171004705Y-136239661D01*
X171441159Y-136615734D01*
X171522342Y-136667653D01*
X171602875Y-136720554D01*
X171610746Y-136724190D01*
X171610749Y-136724192D01*
X171610752Y-136724193D01*
X172135217Y-136962653D01*
X172227709Y-136989700D01*
X172289400Y-137008561D01*
X172289401Y-144983412D01*
X172229310Y-145403009D01*
X172075019Y-145742352D01*
X171831688Y-146024752D01*
X171518879Y-146227506D01*
X171138215Y-146341348D01*
X170941049Y-146356000D01*
X114121981Y-146356000D01*
X113702391Y-146295910D01*
X113363048Y-146141619D01*
X113080648Y-145898288D01*
X112877894Y-145585479D01*
X112764052Y-145204815D01*
X112749400Y-145007649D01*
X112749400Y-137008719D01*
X112834909Y-136982577D01*
X112927367Y-136955540D01*
X112935241Y-136951902D01*
X113456756Y-136707052D01*
X113537325Y-136654128D01*
X113618473Y-136602232D01*
X113625010Y-136596530D01*
X114056842Y-136215149D01*
X114119287Y-136141776D01*
X114182640Y-136069153D01*
X114187313Y-136061846D01*
X114494746Y-135574593D01*
X114534087Y-135486645D01*
X114574511Y-135399160D01*
X114576945Y-135390835D01*
X114735266Y-134836882D01*
X114748343Y-134741421D01*
X114762587Y-134646111D01*
X114762587Y-134637436D01*
X114759067Y-134061313D01*
X114744814Y-133965943D01*
X114731746Y-133870544D01*
X114729312Y-133862219D01*
X114564236Y-133310241D01*
X114523818Y-133222769D01*
X114484471Y-133134806D01*
X114479797Y-133127499D01*
X114166434Y-132644040D01*
X114103107Y-132571447D01*
X114040637Y-132498045D01*
X114034100Y-132492343D01*
X113597641Y-132116266D01*
X113516458Y-132064347D01*
X113435925Y-132011446D01*
X113428054Y-132007810D01*
X113428051Y-132007808D01*
X113428048Y-132007807D01*
X112903583Y-131769347D01*
X112811091Y-131742300D01*
X112749400Y-131723439D01*
X112749400Y-121673144D01*
X113031518Y-121790001D01*
X113586484Y-121790001D01*
X114099205Y-121577625D01*
X114491625Y-121185205D01*
X114579001Y-120974261D01*
X114666377Y-121185205D01*
X115058797Y-121577625D01*
X115571518Y-121790001D01*
X116126484Y-121790001D01*
X116639205Y-121577625D01*
X117031625Y-121185205D01*
X117119001Y-120974261D01*
X117206377Y-121185205D01*
X117598797Y-121577625D01*
X118111518Y-121790001D01*
X118666484Y-121790001D01*
X119179205Y-121577625D01*
X119571625Y-121185205D01*
X119659001Y-120974261D01*
X119746377Y-121185205D01*
X120138797Y-121577625D01*
X120651518Y-121790001D01*
X121206484Y-121790001D01*
X121719205Y-121577625D01*
X122111625Y-121185205D01*
X122199001Y-120974261D01*
X122286377Y-121185205D01*
X122678797Y-121577625D01*
X123191518Y-121790001D01*
X123746484Y-121790001D01*
X124259205Y-121577625D01*
X124651625Y-121185205D01*
X124739001Y-120974261D01*
X124826377Y-121185205D01*
X125218797Y-121577625D01*
X125731518Y-121790001D01*
X126286484Y-121790001D01*
X126799205Y-121577625D01*
X127191625Y-121185205D01*
X127279001Y-120974261D01*
X127366377Y-121185205D01*
X127758797Y-121577625D01*
X128271518Y-121790001D01*
X128826484Y-121790001D01*
X129339205Y-121577625D01*
X129731625Y-121185205D01*
X129819001Y-120974261D01*
X129906377Y-121185205D01*
X130298797Y-121577625D01*
X130811518Y-121790001D01*
X131366484Y-121790001D01*
X131879205Y-121577625D01*
X132271625Y-121185205D01*
X132359001Y-120974261D01*
X132446377Y-121185205D01*
X132838797Y-121577625D01*
X133351518Y-121790001D01*
X133906484Y-121790001D01*
X134419205Y-121577625D01*
X134811625Y-121185205D01*
X134899001Y-120974261D01*
X134986377Y-121185205D01*
X135378797Y-121577625D01*
X135891518Y-121790001D01*
X136446484Y-121790001D01*
X136959205Y-121577625D01*
X137351625Y-121185205D01*
X137564001Y-120672484D01*
X137564001Y-120117518D01*
X137351625Y-119604797D01*
X136959205Y-119212377D01*
X136748261Y-119125001D01*
X136959205Y-119037625D01*
X137351625Y-118645205D01*
X137564001Y-118132484D01*
X137564001Y-117577518D01*
X137351625Y-117064797D01*
X136959205Y-116672377D01*
X136446484Y-116460001D01*
X135891518Y-116460001D01*
X135378797Y-116672377D01*
X134986377Y-117064797D01*
X134899001Y-117275741D01*
X134811625Y-117064797D01*
X134419205Y-116672377D01*
X133906484Y-116460001D01*
X133351518Y-116460001D01*
X132838797Y-116672377D01*
X132446377Y-117064797D01*
X132359001Y-117275741D01*
X132271625Y-117064797D01*
X131879205Y-116672377D01*
X131366484Y-116460001D01*
X130811518Y-116460001D01*
X130298797Y-116672377D01*
X129906377Y-117064797D01*
X129819001Y-117275741D01*
X129731625Y-117064797D01*
X129339205Y-116672377D01*
X128826484Y-116460001D01*
X128271518Y-116460001D01*
X127758797Y-116672377D01*
X127366377Y-117064797D01*
X127279001Y-117275741D01*
X127191625Y-117064797D01*
X126799205Y-116672377D01*
X126286484Y-116460001D01*
X125731518Y-116460001D01*
X125218797Y-116672377D01*
X124826377Y-117064797D01*
X124739001Y-117275741D01*
X124651625Y-117064797D01*
X124259205Y-116672377D01*
X123746484Y-116460001D01*
X123191518Y-116460001D01*
X122678797Y-116672377D01*
X122286377Y-117064797D01*
X122199001Y-117275741D01*
X122111625Y-117064797D01*
X121719205Y-116672377D01*
X121206484Y-116460001D01*
X120651518Y-116460001D01*
X120138797Y-116672377D01*
X119746377Y-117064797D01*
X119659001Y-117275741D01*
X119571625Y-117064797D01*
X119179205Y-116672377D01*
X118666484Y-116460001D01*
X118111518Y-116460001D01*
X117598797Y-116672377D01*
X117206377Y-117064797D01*
X117119001Y-117275741D01*
X117031625Y-117064797D01*
X116639205Y-116672377D01*
X116126484Y-116460001D01*
X115571518Y-116460001D01*
X115058797Y-116672377D01*
X114666377Y-117064797D01*
X114454001Y-117577518D01*
X114454001Y-118132484D01*
X114666377Y-118645205D01*
X115058797Y-119037625D01*
X115269741Y-119125001D01*
X115058797Y-119212377D01*
X114666377Y-119604797D01*
X114579001Y-119815741D01*
X114491625Y-119604797D01*
X114099205Y-119212377D01*
X113586484Y-119000001D01*
X113031518Y-119000001D01*
X112749400Y-119116858D01*
X112749400Y-105585126D01*
X130410000Y-105585126D01*
X130410000Y-105996874D01*
X130567569Y-106377280D01*
X130858720Y-106668431D01*
X131239126Y-106826000D01*
X131650874Y-106826000D01*
X132031280Y-106668431D01*
X132322431Y-106377280D01*
X132328553Y-106362500D01*
X135124789Y-106362500D01*
X135176720Y-106414431D01*
X135557126Y-106572000D01*
X135968874Y-106572000D01*
X136349280Y-106414431D01*
X136640431Y-106123280D01*
X136798000Y-105742874D01*
X136798000Y-105331126D01*
X136640431Y-104950720D01*
X136349280Y-104659569D01*
X135968874Y-104502000D01*
X135557126Y-104502000D01*
X135176720Y-104659569D01*
X135124789Y-104711500D01*
X131780297Y-104711500D01*
X131698999Y-104695329D01*
X131617702Y-104711500D01*
X131617697Y-104711500D01*
X131393979Y-104756000D01*
X131239126Y-104756000D01*
X130858720Y-104913569D01*
X130567569Y-105204720D01*
X130410000Y-105585126D01*
X112749400Y-105585126D01*
X112749400Y-95679126D01*
X127235000Y-95679126D01*
X127235000Y-96090874D01*
X127392569Y-96471280D01*
X127683720Y-96762431D01*
X128064126Y-96920000D01*
X128475874Y-96920000D01*
X128856280Y-96762431D01*
X129147431Y-96471280D01*
X129305000Y-96090874D01*
X129305000Y-95679126D01*
X129147431Y-95298720D01*
X129095500Y-95246789D01*
X129095500Y-95109816D01*
X129223696Y-95109816D01*
X129304999Y-95125988D01*
X129386301Y-95109816D01*
X129386302Y-95109816D01*
X129627093Y-95061920D01*
X129900151Y-94879468D01*
X130082603Y-94606410D01*
X130146671Y-94284316D01*
X130130499Y-94203013D01*
X130130499Y-91234126D01*
X139935000Y-91234126D01*
X139935000Y-91645874D01*
X140092569Y-92026280D01*
X140383720Y-92317431D01*
X140764126Y-92475000D01*
X141175874Y-92475000D01*
X141556280Y-92317431D01*
X141847431Y-92026280D01*
X142005000Y-91645874D01*
X142005000Y-91234126D01*
X141847431Y-90853720D01*
X141795500Y-90801789D01*
X141795500Y-77025500D01*
X156329843Y-77025500D01*
X156688663Y-77384320D01*
X156895513Y-77470000D01*
X156688663Y-77555680D01*
X156329843Y-77914500D01*
X144861297Y-77914500D01*
X144779999Y-77898329D01*
X144698702Y-77914500D01*
X144698697Y-77914500D01*
X144457906Y-77962396D01*
X144184848Y-78144848D01*
X144139066Y-78213365D01*
X144070549Y-78259147D01*
X143888097Y-78532206D01*
X143846764Y-78740001D01*
X143824029Y-78854299D01*
X143840201Y-78935601D01*
X143840202Y-91871460D01*
X143809407Y-92026280D01*
X143799921Y-92073968D01*
X143750169Y-92123720D01*
X143592600Y-92504126D01*
X143592600Y-92915874D01*
X143750169Y-93296280D01*
X144041320Y-93587431D01*
X144421726Y-93745000D01*
X144833474Y-93745000D01*
X145213880Y-93587431D01*
X145505031Y-93296280D01*
X145662600Y-92915874D01*
X145662600Y-92504126D01*
X145505031Y-92123720D01*
X145504080Y-92122769D01*
X145507373Y-92106214D01*
X145491201Y-92024913D01*
X145491201Y-84620567D01*
X163756000Y-84620567D01*
X163756000Y-85559433D01*
X164115289Y-86426833D01*
X164779167Y-87090711D01*
X165646567Y-87450000D01*
X166585433Y-87450000D01*
X167452833Y-87090711D01*
X168116711Y-86426833D01*
X168476000Y-85559433D01*
X168476000Y-84620567D01*
X168116711Y-83753167D01*
X167452833Y-83089289D01*
X166585433Y-82730000D01*
X165646567Y-82730000D01*
X164779167Y-83089289D01*
X164115289Y-83753167D01*
X163756000Y-84620567D01*
X145491201Y-84620567D01*
X145491201Y-79565500D01*
X156329843Y-79565500D01*
X156688663Y-79924320D01*
X157202119Y-80137000D01*
X157757881Y-80137000D01*
X158271337Y-79924320D01*
X158655090Y-79540567D01*
X163756000Y-79540567D01*
X163756000Y-80479433D01*
X164115289Y-81346833D01*
X164779167Y-82010711D01*
X165646567Y-82370000D01*
X166585433Y-82370000D01*
X167452833Y-82010711D01*
X168116711Y-81346833D01*
X168476000Y-80479433D01*
X168476000Y-79540567D01*
X168116711Y-78673167D01*
X167452833Y-78009289D01*
X166585433Y-77650000D01*
X165646567Y-77650000D01*
X164779167Y-78009289D01*
X164115289Y-78673167D01*
X163756000Y-79540567D01*
X158655090Y-79540567D01*
X158664320Y-79531337D01*
X158877000Y-79017881D01*
X158877000Y-78462119D01*
X158664320Y-77948663D01*
X158271337Y-77555680D01*
X158064487Y-77470000D01*
X158271337Y-77384320D01*
X158664320Y-76991337D01*
X158877000Y-76477881D01*
X158877000Y-75922119D01*
X158664320Y-75408663D01*
X158271337Y-75015680D01*
X158064487Y-74930000D01*
X158271337Y-74844320D01*
X158664320Y-74451337D01*
X158877000Y-73937881D01*
X158877000Y-73382119D01*
X158664320Y-72868663D01*
X158271337Y-72475680D01*
X158064487Y-72390000D01*
X158271337Y-72304320D01*
X158664320Y-71911337D01*
X158877000Y-71397881D01*
X158877000Y-70842119D01*
X158664320Y-70328663D01*
X158271337Y-69935680D01*
X158064487Y-69850000D01*
X158271337Y-69764320D01*
X158664320Y-69371337D01*
X158877000Y-68857881D01*
X158877000Y-68302119D01*
X158664320Y-67788663D01*
X158271337Y-67395680D01*
X157757881Y-67183000D01*
X157202119Y-67183000D01*
X156688663Y-67395680D01*
X156295680Y-67788663D01*
X156083000Y-68302119D01*
X156083000Y-68857881D01*
X156295680Y-69371337D01*
X156688663Y-69764320D01*
X156895513Y-69850000D01*
X156688663Y-69935680D01*
X156295680Y-70328663D01*
X156083000Y-70842119D01*
X156083000Y-71397881D01*
X156295680Y-71911337D01*
X156688663Y-72304320D01*
X156895513Y-72390000D01*
X156688663Y-72475680D01*
X156295680Y-72868663D01*
X156083000Y-73382119D01*
X156083000Y-73937881D01*
X156295680Y-74451337D01*
X156688663Y-74844320D01*
X156895513Y-74930000D01*
X156688663Y-75015680D01*
X156329843Y-75374500D01*
X141102097Y-75374500D01*
X141020799Y-75358329D01*
X140939502Y-75374500D01*
X140939497Y-75374500D01*
X140698706Y-75422396D01*
X140425648Y-75604848D01*
X140405300Y-75635302D01*
X140374849Y-75655648D01*
X140328794Y-75724574D01*
X140192397Y-75928706D01*
X140128328Y-76250800D01*
X140144501Y-76332106D01*
X140144500Y-90801789D01*
X140092569Y-90853720D01*
X139935000Y-91234126D01*
X130130499Y-91234126D01*
X130130499Y-86790500D01*
X138186789Y-86790500D01*
X138238720Y-86842431D01*
X138619126Y-87000000D01*
X139030874Y-87000000D01*
X139411280Y-86842431D01*
X139702431Y-86551280D01*
X139860000Y-86170874D01*
X139860000Y-85759126D01*
X139702431Y-85378720D01*
X139411280Y-85087569D01*
X139030874Y-84930000D01*
X138619126Y-84930000D01*
X138238720Y-85087569D01*
X138186789Y-85139500D01*
X129391301Y-85139500D01*
X129309998Y-85123328D01*
X129228696Y-85139500D01*
X129228695Y-85139500D01*
X128987904Y-85187396D01*
X128714846Y-85369848D01*
X128712843Y-85372846D01*
X128709848Y-85374847D01*
X128663793Y-85443773D01*
X128527396Y-85647905D01*
X128463327Y-85969999D01*
X128479500Y-86051305D01*
X128479499Y-93449046D01*
X128447316Y-93442644D01*
X128366014Y-93458816D01*
X128366013Y-93458816D01*
X128125222Y-93506712D01*
X127852164Y-93689164D01*
X127806107Y-93758093D01*
X127743775Y-93820425D01*
X127674849Y-93866480D01*
X127628794Y-93935406D01*
X127492397Y-94139538D01*
X127428328Y-94461632D01*
X127444501Y-94542938D01*
X127444500Y-95246789D01*
X127392569Y-95298720D01*
X127235000Y-95679126D01*
X112749400Y-95679126D01*
X112749400Y-87525726D01*
X122764600Y-87525726D01*
X122764600Y-87937474D01*
X122922169Y-88317880D01*
X122974100Y-88369811D01*
X122974101Y-90444294D01*
X122957928Y-90525600D01*
X123013504Y-90804999D01*
X123021997Y-90847694D01*
X123044000Y-90880624D01*
X123044000Y-91010874D01*
X123201569Y-91391280D01*
X123492720Y-91682431D01*
X123873126Y-91840000D01*
X124284874Y-91840000D01*
X124665280Y-91682431D01*
X124956431Y-91391280D01*
X125114000Y-91010874D01*
X125114000Y-90599126D01*
X124956431Y-90218720D01*
X124665280Y-89927569D01*
X124625100Y-89910926D01*
X124625100Y-88369811D01*
X124677031Y-88317880D01*
X124834600Y-87937474D01*
X124834600Y-87525726D01*
X124677031Y-87145320D01*
X124385880Y-86854169D01*
X124005474Y-86696600D01*
X123593726Y-86696600D01*
X123213320Y-86854169D01*
X122922169Y-87145320D01*
X122764600Y-87525726D01*
X112749400Y-87525726D01*
X112749400Y-78493144D01*
X113031518Y-78610001D01*
X113586484Y-78610001D01*
X114099205Y-78397625D01*
X114491625Y-78005205D01*
X114579001Y-77794261D01*
X114666377Y-78005205D01*
X115058797Y-78397625D01*
X115571518Y-78610001D01*
X116126484Y-78610001D01*
X116639205Y-78397625D01*
X117031625Y-78005205D01*
X117119001Y-77794261D01*
X117206377Y-78005205D01*
X117598797Y-78397625D01*
X118111518Y-78610001D01*
X118666484Y-78610001D01*
X119179205Y-78397625D01*
X119571625Y-78005205D01*
X119659001Y-77794261D01*
X119746377Y-78005205D01*
X120138797Y-78397625D01*
X120651518Y-78610001D01*
X121206484Y-78610001D01*
X121719205Y-78397625D01*
X122111625Y-78005205D01*
X122199001Y-77794261D01*
X122286377Y-78005205D01*
X122678797Y-78397625D01*
X123191518Y-78610001D01*
X123746484Y-78610001D01*
X124259205Y-78397625D01*
X124651625Y-78005205D01*
X124739001Y-77794261D01*
X124826377Y-78005205D01*
X125218797Y-78397625D01*
X125731518Y-78610001D01*
X126286484Y-78610001D01*
X126799205Y-78397625D01*
X127191625Y-78005205D01*
X127279001Y-77794261D01*
X127366377Y-78005205D01*
X127758797Y-78397625D01*
X128271518Y-78610001D01*
X128826484Y-78610001D01*
X129339205Y-78397625D01*
X129731625Y-78005205D01*
X129819001Y-77794261D01*
X129906377Y-78005205D01*
X130298797Y-78397625D01*
X130811518Y-78610001D01*
X131366484Y-78610001D01*
X131879205Y-78397625D01*
X132271625Y-78005205D01*
X132359001Y-77794261D01*
X132446377Y-78005205D01*
X132838797Y-78397625D01*
X133351518Y-78610001D01*
X133906484Y-78610001D01*
X134419205Y-78397625D01*
X134811625Y-78005205D01*
X134899001Y-77794261D01*
X134986377Y-78005205D01*
X135378797Y-78397625D01*
X135891518Y-78610001D01*
X136446484Y-78610001D01*
X136959205Y-78397625D01*
X137351625Y-78005205D01*
X137564001Y-77492484D01*
X137564001Y-76937518D01*
X137351625Y-76424797D01*
X136959205Y-76032377D01*
X136748261Y-75945001D01*
X136959205Y-75857625D01*
X137351625Y-75465205D01*
X137564001Y-74952484D01*
X137564001Y-74397518D01*
X137351625Y-73884797D01*
X136959205Y-73492377D01*
X136446484Y-73280001D01*
X135891518Y-73280001D01*
X135378797Y-73492377D01*
X134986377Y-73884797D01*
X134899001Y-74095741D01*
X134811625Y-73884797D01*
X134419205Y-73492377D01*
X133906484Y-73280001D01*
X133351518Y-73280001D01*
X132838797Y-73492377D01*
X132446377Y-73884797D01*
X132359001Y-74095741D01*
X132271625Y-73884797D01*
X131879205Y-73492377D01*
X131366484Y-73280001D01*
X130811518Y-73280001D01*
X130298797Y-73492377D01*
X129906377Y-73884797D01*
X129819001Y-74095741D01*
X129731625Y-73884797D01*
X129339205Y-73492377D01*
X128826484Y-73280001D01*
X128271518Y-73280001D01*
X127758797Y-73492377D01*
X127366377Y-73884797D01*
X127279001Y-74095741D01*
X127191625Y-73884797D01*
X126799205Y-73492377D01*
X126286484Y-73280001D01*
X125731518Y-73280001D01*
X125218797Y-73492377D01*
X124826377Y-73884797D01*
X124739001Y-74095741D01*
X124651625Y-73884797D01*
X124259205Y-73492377D01*
X123746484Y-73280001D01*
X123191518Y-73280001D01*
X122678797Y-73492377D01*
X122286377Y-73884797D01*
X122199001Y-74095741D01*
X122111625Y-73884797D01*
X121719205Y-73492377D01*
X121206484Y-73280001D01*
X120651518Y-73280001D01*
X120138797Y-73492377D01*
X119746377Y-73884797D01*
X119659001Y-74095741D01*
X119571625Y-73884797D01*
X119179205Y-73492377D01*
X118666484Y-73280001D01*
X118111518Y-73280001D01*
X117598797Y-73492377D01*
X117206377Y-73884797D01*
X117119001Y-74095741D01*
X117031625Y-73884797D01*
X116639205Y-73492377D01*
X116126484Y-73280001D01*
X115571518Y-73280001D01*
X115058797Y-73492377D01*
X114666377Y-73884797D01*
X114579001Y-74095741D01*
X114491625Y-73884797D01*
X114099205Y-73492377D01*
X113586484Y-73280001D01*
X113031518Y-73280001D01*
X112749400Y-73396858D01*
X112749400Y-66840567D01*
X163756000Y-66840567D01*
X163756000Y-67779433D01*
X164115289Y-68646833D01*
X164779167Y-69310711D01*
X165646567Y-69670000D01*
X166585433Y-69670000D01*
X167452833Y-69310711D01*
X168116711Y-68646833D01*
X168476000Y-67779433D01*
X168476000Y-66840567D01*
X168116711Y-65973167D01*
X167452833Y-65309289D01*
X166585433Y-64950000D01*
X165646567Y-64950000D01*
X164779167Y-65309289D01*
X164115289Y-65973167D01*
X163756000Y-66840567D01*
X112749400Y-66840567D01*
X112749400Y-60075453D01*
X140106400Y-60075453D01*
X140106400Y-61338547D01*
X140589765Y-62505493D01*
X141482907Y-63398635D01*
X142649853Y-63882000D01*
X143912947Y-63882000D01*
X145079893Y-63398635D01*
X145973035Y-62505493D01*
X146456400Y-61338547D01*
X146456400Y-60075453D01*
X145973035Y-58908507D01*
X145079893Y-58015365D01*
X143912947Y-57532000D01*
X142649853Y-57532000D01*
X141482907Y-58015365D01*
X140589765Y-58908507D01*
X140106400Y-60075453D01*
X112749400Y-60075453D01*
X112749400Y-56516519D01*
X155422600Y-56516519D01*
X155422600Y-57072281D01*
X155635280Y-57585737D01*
X156028263Y-57978720D01*
X156235113Y-58064400D01*
X156028263Y-58150080D01*
X155635280Y-58543063D01*
X155422600Y-59056519D01*
X155422600Y-59612281D01*
X155635280Y-60125737D01*
X156028263Y-60518720D01*
X156541719Y-60731400D01*
X157097481Y-60731400D01*
X157610937Y-60518720D01*
X158003920Y-60125737D01*
X158216600Y-59612281D01*
X158216600Y-59056519D01*
X158003920Y-58543063D01*
X157610937Y-58150080D01*
X157404087Y-58064400D01*
X157610937Y-57978720D01*
X158003920Y-57585737D01*
X158216600Y-57072281D01*
X158216600Y-56516519D01*
X158003920Y-56003063D01*
X157610937Y-55610080D01*
X157097481Y-55397400D01*
X156541719Y-55397400D01*
X156028263Y-55610080D01*
X155635280Y-56003063D01*
X155422600Y-56516519D01*
X112749400Y-56516519D01*
X112749400Y-51104581D01*
X112809490Y-50684991D01*
X112963781Y-50345648D01*
X113207112Y-50063248D01*
X113519923Y-49860494D01*
X113900584Y-49746652D01*
X114097750Y-49732000D01*
X142164596Y-49732000D01*
X141482907Y-50014365D01*
X141482907Y-50014365D01*
G37*
X141482907Y-50014365D02*
X140589765Y-50907507D01*
X140106400Y-52074453D01*
X140106400Y-53337547D01*
X140589765Y-54504493D01*
X141482907Y-55397635D01*
X142649853Y-55881000D01*
X143912947Y-55881000D01*
X145079893Y-55397635D01*
X145973035Y-54504493D01*
X146456400Y-53337547D01*
X146456400Y-52074453D01*
X145973035Y-50907507D01*
X145079893Y-50014365D01*
X144398204Y-49732000D01*
X170916819Y-49732000D01*
X171336409Y-49792090D01*
X171675752Y-49946381D01*
X171958152Y-50189712D01*
X172160906Y-50502523D01*
X172274748Y-50883184D01*
X172289400Y-51080350D01*
X172289401Y-99263412D01*
X172229310Y-99683009D01*
X172075019Y-100022352D01*
X171831688Y-100304752D01*
X171518879Y-100507506D01*
X171138215Y-100621348D01*
X170941049Y-100636000D01*
X156182433Y-100636000D01*
X157244230Y-99574204D01*
X157313153Y-99528151D01*
X157384846Y-99420856D01*
X157495604Y-99255094D01*
X157495605Y-99255093D01*
X157543501Y-99014302D01*
X157543501Y-99014298D01*
X157559672Y-98933000D01*
X157543501Y-98851702D01*
X157543501Y-97917000D01*
X157757881Y-97917000D01*
X158271337Y-97704320D01*
X158655090Y-97320567D01*
X163756000Y-97320567D01*
X163756000Y-98259433D01*
X164115289Y-99126833D01*
X164779167Y-99790711D01*
X165646567Y-100150000D01*
X166585433Y-100150000D01*
X167452833Y-99790711D01*
X168116711Y-99126833D01*
X168476000Y-98259433D01*
X168476000Y-97320567D01*
X168116711Y-96453167D01*
X167452833Y-95789289D01*
X166585433Y-95430000D01*
X165646567Y-95430000D01*
X164779167Y-95789289D01*
X164115289Y-96453167D01*
X163756000Y-97320567D01*
X158655090Y-97320567D01*
X158664320Y-97311337D01*
X158877000Y-96797881D01*
X158877000Y-96242119D01*
X158664320Y-95728663D01*
X158271337Y-95335680D01*
X158064487Y-95250000D01*
X158271337Y-95164320D01*
X158664320Y-94771337D01*
X158877000Y-94257881D01*
X158877000Y-93702119D01*
X158664320Y-93188663D01*
X158271337Y-92795680D01*
X158064487Y-92710000D01*
X158271337Y-92624320D01*
X158664320Y-92231337D01*
X158877000Y-91717881D01*
X158877000Y-91162119D01*
X158664320Y-90648663D01*
X158271337Y-90255680D01*
X158064487Y-90170000D01*
X158271337Y-90084320D01*
X158664320Y-89691337D01*
X158877000Y-89177881D01*
X158877000Y-88622119D01*
X158664320Y-88108663D01*
X158271337Y-87715680D01*
X158064487Y-87630000D01*
X158271337Y-87544320D01*
X158664320Y-87151337D01*
X158877000Y-86637881D01*
X158877000Y-86082119D01*
X158664320Y-85568663D01*
X158271337Y-85175680D01*
X157757881Y-84963000D01*
X157202119Y-84963000D01*
X156688663Y-85175680D01*
X156295680Y-85568663D01*
X156083000Y-86082119D01*
X156083000Y-86637881D01*
X156295680Y-87151337D01*
X156688663Y-87544320D01*
X156895513Y-87630000D01*
X156688663Y-87715680D01*
X156295680Y-88108663D01*
X156083000Y-88622119D01*
X156083000Y-89177881D01*
X156295680Y-89691337D01*
X156688663Y-90084320D01*
X156895513Y-90170000D01*
X156688663Y-90255680D01*
X156295680Y-90648663D01*
X156083000Y-91162119D01*
X156083000Y-91717881D01*
X156295680Y-92231337D01*
X156688663Y-92624320D01*
X156895513Y-92710000D01*
X156688663Y-92795680D01*
X156329843Y-93154500D01*
X154386301Y-93154500D01*
X154304999Y-93138328D01*
X154223698Y-93154500D01*
X154223697Y-93154500D01*
X153982906Y-93202396D01*
X153709848Y-93384848D01*
X153663791Y-93453777D01*
X153582767Y-93534801D01*
X153513838Y-93580858D01*
X153331386Y-93853917D01*
X153283490Y-94094707D01*
X153267318Y-94176010D01*
X153283490Y-94257312D01*
X153283491Y-98996500D01*
X128908211Y-98996500D01*
X128856280Y-98944569D01*
X128475874Y-98787000D01*
X128064126Y-98787000D01*
X127683720Y-98944569D01*
X127392569Y-99235720D01*
X127235000Y-99616126D01*
X127235000Y-100027874D01*
X127392569Y-100408280D01*
X127683720Y-100699431D01*
X128064126Y-100857000D01*
X128475874Y-100857000D01*
X128856280Y-100699431D01*
X128908211Y-100647500D01*
X129746842Y-100647500D01*
X129648000Y-100886126D01*
X129648000Y-101297874D01*
X129805569Y-101678280D01*
X130096720Y-101969431D01*
X130477126Y-102127000D01*
X130888874Y-102127000D01*
X131269280Y-101969431D01*
X131321211Y-101917500D01*
X154477699Y-101917500D01*
X154509401Y-101923806D01*
X154509400Y-122104074D01*
X154495491Y-122174000D01*
X154550595Y-122451028D01*
X154707519Y-122685881D01*
X154942372Y-122842805D01*
X155101971Y-122874551D01*
X155219400Y-122897909D01*
X155289325Y-122884000D01*
X170916819Y-122884000D01*
X171336409Y-122944090D01*
X171675752Y-123098381D01*
X171958152Y-123341712D01*
X172160906Y-123654523D01*
X172274748Y-124035184D01*
X172289401Y-124232363D01*
X172289400Y-131723281D01*
X172203891Y-131749423D01*
X172111433Y-131776460D01*
X172103559Y-131780098D01*
X171582044Y-132024948D01*
X171501475Y-132077872D01*
X171420327Y-132129768D01*
X171413790Y-132135470D01*
X170981958Y-132516851D01*
X170919496Y-132590244D01*
X170856160Y-132662847D01*
X170851487Y-132670154D01*
X170544054Y-133157407D01*
X170504698Y-133245387D01*
X170464289Y-133332840D01*
X170461857Y-133341160D01*
X170461854Y-133341166D01*
X170461853Y-133341173D01*
X170303534Y-133895118D01*
X170290456Y-133990586D01*
X170276213Y-134085890D01*
X170276213Y-134094564D01*
X170279733Y-134670687D01*
X170293988Y-134766068D01*
X170307054Y-134861455D01*
X170309488Y-134869781D01*
X170474564Y-135421758D01*
X170514991Y-135509250D01*
X170554330Y-135597194D01*
X170559003Y-135604501D01*
X170872366Y-136087961D01*
X170935728Y-136160594D01*
X170998163Y-136233955D01*
X171004696Y-136239654D01*
X171004700Y-136239658D01*
X171004705Y-136239661D01*
X171441159Y-136615734D01*
X171522342Y-136667653D01*
X171602875Y-136720554D01*
X171610746Y-136724190D01*
X171610749Y-136724192D01*
X171610752Y-136724193D01*
X172135217Y-136962653D01*
X172227709Y-136989700D01*
X172289400Y-137008561D01*
X172289401Y-144983412D01*
X172229310Y-145403009D01*
X172075019Y-145742352D01*
X171831688Y-146024752D01*
X171518879Y-146227506D01*
X171138215Y-146341348D01*
X170941049Y-146356000D01*
X114121981Y-146356000D01*
X113702391Y-146295910D01*
X113363048Y-146141619D01*
X113080648Y-145898288D01*
X112877894Y-145585479D01*
X112764052Y-145204815D01*
X112749400Y-145007649D01*
X112749400Y-137008719D01*
X112834909Y-136982577D01*
X112927367Y-136955540D01*
X112935241Y-136951902D01*
X113456756Y-136707052D01*
X113537325Y-136654128D01*
X113618473Y-136602232D01*
X113625010Y-136596530D01*
X114056842Y-136215149D01*
X114119287Y-136141776D01*
X114182640Y-136069153D01*
X114187313Y-136061846D01*
X114494746Y-135574593D01*
X114534087Y-135486645D01*
X114574511Y-135399160D01*
X114576945Y-135390835D01*
X114735266Y-134836882D01*
X114748343Y-134741421D01*
X114762587Y-134646111D01*
X114762587Y-134637436D01*
X114759067Y-134061313D01*
X114744814Y-133965943D01*
X114731746Y-133870544D01*
X114729312Y-133862219D01*
X114564236Y-133310241D01*
X114523818Y-133222769D01*
X114484471Y-133134806D01*
X114479797Y-133127499D01*
X114166434Y-132644040D01*
X114103107Y-132571447D01*
X114040637Y-132498045D01*
X114034100Y-132492343D01*
X113597641Y-132116266D01*
X113516458Y-132064347D01*
X113435925Y-132011446D01*
X113428054Y-132007810D01*
X113428051Y-132007808D01*
X113428048Y-132007807D01*
X112903583Y-131769347D01*
X112811091Y-131742300D01*
X112749400Y-131723439D01*
X112749400Y-121673144D01*
X113031518Y-121790001D01*
X113586484Y-121790001D01*
X114099205Y-121577625D01*
X114491625Y-121185205D01*
X114579001Y-120974261D01*
X114666377Y-121185205D01*
X115058797Y-121577625D01*
X115571518Y-121790001D01*
X116126484Y-121790001D01*
X116639205Y-121577625D01*
X117031625Y-121185205D01*
X117119001Y-120974261D01*
X117206377Y-121185205D01*
X117598797Y-121577625D01*
X118111518Y-121790001D01*
X118666484Y-121790001D01*
X119179205Y-121577625D01*
X119571625Y-121185205D01*
X119659001Y-120974261D01*
X119746377Y-121185205D01*
X120138797Y-121577625D01*
X120651518Y-121790001D01*
X121206484Y-121790001D01*
X121719205Y-121577625D01*
X122111625Y-121185205D01*
X122199001Y-120974261D01*
X122286377Y-121185205D01*
X122678797Y-121577625D01*
X123191518Y-121790001D01*
X123746484Y-121790001D01*
X124259205Y-121577625D01*
X124651625Y-121185205D01*
X124739001Y-120974261D01*
X124826377Y-121185205D01*
X125218797Y-121577625D01*
X125731518Y-121790001D01*
X126286484Y-121790001D01*
X126799205Y-121577625D01*
X127191625Y-121185205D01*
X127279001Y-120974261D01*
X127366377Y-121185205D01*
X127758797Y-121577625D01*
X128271518Y-121790001D01*
X128826484Y-121790001D01*
X129339205Y-121577625D01*
X129731625Y-121185205D01*
X129819001Y-120974261D01*
X129906377Y-121185205D01*
X130298797Y-121577625D01*
X130811518Y-121790001D01*
X131366484Y-121790001D01*
X131879205Y-121577625D01*
X132271625Y-121185205D01*
X132359001Y-120974261D01*
X132446377Y-121185205D01*
X132838797Y-121577625D01*
X133351518Y-121790001D01*
X133906484Y-121790001D01*
X134419205Y-121577625D01*
X134811625Y-121185205D01*
X134899001Y-120974261D01*
X134986377Y-121185205D01*
X135378797Y-121577625D01*
X135891518Y-121790001D01*
X136446484Y-121790001D01*
X136959205Y-121577625D01*
X137351625Y-121185205D01*
X137564001Y-120672484D01*
X137564001Y-120117518D01*
X137351625Y-119604797D01*
X136959205Y-119212377D01*
X136748261Y-119125001D01*
X136959205Y-119037625D01*
X137351625Y-118645205D01*
X137564001Y-118132484D01*
X137564001Y-117577518D01*
X137351625Y-117064797D01*
X136959205Y-116672377D01*
X136446484Y-116460001D01*
X135891518Y-116460001D01*
X135378797Y-116672377D01*
X134986377Y-117064797D01*
X134899001Y-117275741D01*
X134811625Y-117064797D01*
X134419205Y-116672377D01*
X133906484Y-116460001D01*
X133351518Y-116460001D01*
X132838797Y-116672377D01*
X132446377Y-117064797D01*
X132359001Y-117275741D01*
X132271625Y-117064797D01*
X131879205Y-116672377D01*
X131366484Y-116460001D01*
X130811518Y-116460001D01*
X130298797Y-116672377D01*
X129906377Y-117064797D01*
X129819001Y-117275741D01*
X129731625Y-117064797D01*
X129339205Y-116672377D01*
X128826484Y-116460001D01*
X128271518Y-116460001D01*
X127758797Y-116672377D01*
X127366377Y-117064797D01*
X127279001Y-117275741D01*
X127191625Y-117064797D01*
X126799205Y-116672377D01*
X126286484Y-116460001D01*
X125731518Y-116460001D01*
X125218797Y-116672377D01*
X124826377Y-117064797D01*
X124739001Y-117275741D01*
X124651625Y-117064797D01*
X124259205Y-116672377D01*
X123746484Y-116460001D01*
X123191518Y-116460001D01*
X122678797Y-116672377D01*
X122286377Y-117064797D01*
X122199001Y-117275741D01*
X122111625Y-117064797D01*
X121719205Y-116672377D01*
X121206484Y-116460001D01*
X120651518Y-116460001D01*
X120138797Y-116672377D01*
X119746377Y-117064797D01*
X119659001Y-117275741D01*
X119571625Y-117064797D01*
X119179205Y-116672377D01*
X118666484Y-116460001D01*
X118111518Y-116460001D01*
X117598797Y-116672377D01*
X117206377Y-117064797D01*
X117119001Y-117275741D01*
X117031625Y-117064797D01*
X116639205Y-116672377D01*
X116126484Y-116460001D01*
X115571518Y-116460001D01*
X115058797Y-116672377D01*
X114666377Y-117064797D01*
X114454001Y-117577518D01*
X114454001Y-118132484D01*
X114666377Y-118645205D01*
X115058797Y-119037625D01*
X115269741Y-119125001D01*
X115058797Y-119212377D01*
X114666377Y-119604797D01*
X114579001Y-119815741D01*
X114491625Y-119604797D01*
X114099205Y-119212377D01*
X113586484Y-119000001D01*
X113031518Y-119000001D01*
X112749400Y-119116858D01*
X112749400Y-105585126D01*
X130410000Y-105585126D01*
X130410000Y-105996874D01*
X130567569Y-106377280D01*
X130858720Y-106668431D01*
X131239126Y-106826000D01*
X131650874Y-106826000D01*
X132031280Y-106668431D01*
X132322431Y-106377280D01*
X132328553Y-106362500D01*
X135124789Y-106362500D01*
X135176720Y-106414431D01*
X135557126Y-106572000D01*
X135968874Y-106572000D01*
X136349280Y-106414431D01*
X136640431Y-106123280D01*
X136798000Y-105742874D01*
X136798000Y-105331126D01*
X136640431Y-104950720D01*
X136349280Y-104659569D01*
X135968874Y-104502000D01*
X135557126Y-104502000D01*
X135176720Y-104659569D01*
X135124789Y-104711500D01*
X131780297Y-104711500D01*
X131698999Y-104695329D01*
X131617702Y-104711500D01*
X131617697Y-104711500D01*
X131393979Y-104756000D01*
X131239126Y-104756000D01*
X130858720Y-104913569D01*
X130567569Y-105204720D01*
X130410000Y-105585126D01*
X112749400Y-105585126D01*
X112749400Y-95679126D01*
X127235000Y-95679126D01*
X127235000Y-96090874D01*
X127392569Y-96471280D01*
X127683720Y-96762431D01*
X128064126Y-96920000D01*
X128475874Y-96920000D01*
X128856280Y-96762431D01*
X129147431Y-96471280D01*
X129305000Y-96090874D01*
X129305000Y-95679126D01*
X129147431Y-95298720D01*
X129095500Y-95246789D01*
X129095500Y-95109816D01*
X129223696Y-95109816D01*
X129304999Y-95125988D01*
X129386301Y-95109816D01*
X129386302Y-95109816D01*
X129627093Y-95061920D01*
X129900151Y-94879468D01*
X130082603Y-94606410D01*
X130146671Y-94284316D01*
X130130499Y-94203013D01*
X130130499Y-91234126D01*
X139935000Y-91234126D01*
X139935000Y-91645874D01*
X140092569Y-92026280D01*
X140383720Y-92317431D01*
X140764126Y-92475000D01*
X141175874Y-92475000D01*
X141556280Y-92317431D01*
X141847431Y-92026280D01*
X142005000Y-91645874D01*
X142005000Y-91234126D01*
X141847431Y-90853720D01*
X141795500Y-90801789D01*
X141795500Y-77025500D01*
X156329843Y-77025500D01*
X156688663Y-77384320D01*
X156895513Y-77470000D01*
X156688663Y-77555680D01*
X156329843Y-77914500D01*
X144861297Y-77914500D01*
X144779999Y-77898329D01*
X144698702Y-77914500D01*
X144698697Y-77914500D01*
X144457906Y-77962396D01*
X144184848Y-78144848D01*
X144139066Y-78213365D01*
X144070549Y-78259147D01*
X143888097Y-78532206D01*
X143846764Y-78740001D01*
X143824029Y-78854299D01*
X143840201Y-78935601D01*
X143840202Y-91871460D01*
X143809407Y-92026280D01*
X143799921Y-92073968D01*
X143750169Y-92123720D01*
X143592600Y-92504126D01*
X143592600Y-92915874D01*
X143750169Y-93296280D01*
X144041320Y-93587431D01*
X144421726Y-93745000D01*
X144833474Y-93745000D01*
X145213880Y-93587431D01*
X145505031Y-93296280D01*
X145662600Y-92915874D01*
X145662600Y-92504126D01*
X145505031Y-92123720D01*
X145504080Y-92122769D01*
X145507373Y-92106214D01*
X145491201Y-92024913D01*
X145491201Y-84620567D01*
X163756000Y-84620567D01*
X163756000Y-85559433D01*
X164115289Y-86426833D01*
X164779167Y-87090711D01*
X165646567Y-87450000D01*
X166585433Y-87450000D01*
X167452833Y-87090711D01*
X168116711Y-86426833D01*
X168476000Y-85559433D01*
X168476000Y-84620567D01*
X168116711Y-83753167D01*
X167452833Y-83089289D01*
X166585433Y-82730000D01*
X165646567Y-82730000D01*
X164779167Y-83089289D01*
X164115289Y-83753167D01*
X163756000Y-84620567D01*
X145491201Y-84620567D01*
X145491201Y-79565500D01*
X156329843Y-79565500D01*
X156688663Y-79924320D01*
X157202119Y-80137000D01*
X157757881Y-80137000D01*
X158271337Y-79924320D01*
X158655090Y-79540567D01*
X163756000Y-79540567D01*
X163756000Y-80479433D01*
X164115289Y-81346833D01*
X164779167Y-82010711D01*
X165646567Y-82370000D01*
X166585433Y-82370000D01*
X167452833Y-82010711D01*
X168116711Y-81346833D01*
X168476000Y-80479433D01*
X168476000Y-79540567D01*
X168116711Y-78673167D01*
X167452833Y-78009289D01*
X166585433Y-77650000D01*
X165646567Y-77650000D01*
X164779167Y-78009289D01*
X164115289Y-78673167D01*
X163756000Y-79540567D01*
X158655090Y-79540567D01*
X158664320Y-79531337D01*
X158877000Y-79017881D01*
X158877000Y-78462119D01*
X158664320Y-77948663D01*
X158271337Y-77555680D01*
X158064487Y-77470000D01*
X158271337Y-77384320D01*
X158664320Y-76991337D01*
X158877000Y-76477881D01*
X158877000Y-75922119D01*
X158664320Y-75408663D01*
X158271337Y-75015680D01*
X158064487Y-74930000D01*
X158271337Y-74844320D01*
X158664320Y-74451337D01*
X158877000Y-73937881D01*
X158877000Y-73382119D01*
X158664320Y-72868663D01*
X158271337Y-72475680D01*
X158064487Y-72390000D01*
X158271337Y-72304320D01*
X158664320Y-71911337D01*
X158877000Y-71397881D01*
X158877000Y-70842119D01*
X158664320Y-70328663D01*
X158271337Y-69935680D01*
X158064487Y-69850000D01*
X158271337Y-69764320D01*
X158664320Y-69371337D01*
X158877000Y-68857881D01*
X158877000Y-68302119D01*
X158664320Y-67788663D01*
X158271337Y-67395680D01*
X157757881Y-67183000D01*
X157202119Y-67183000D01*
X156688663Y-67395680D01*
X156295680Y-67788663D01*
X156083000Y-68302119D01*
X156083000Y-68857881D01*
X156295680Y-69371337D01*
X156688663Y-69764320D01*
X156895513Y-69850000D01*
X156688663Y-69935680D01*
X156295680Y-70328663D01*
X156083000Y-70842119D01*
X156083000Y-71397881D01*
X156295680Y-71911337D01*
X156688663Y-72304320D01*
X156895513Y-72390000D01*
X156688663Y-72475680D01*
X156295680Y-72868663D01*
X156083000Y-73382119D01*
X156083000Y-73937881D01*
X156295680Y-74451337D01*
X156688663Y-74844320D01*
X156895513Y-74930000D01*
X156688663Y-75015680D01*
X156329843Y-75374500D01*
X141102097Y-75374500D01*
X141020799Y-75358329D01*
X140939502Y-75374500D01*
X140939497Y-75374500D01*
X140698706Y-75422396D01*
X140425648Y-75604848D01*
X140405300Y-75635302D01*
X140374849Y-75655648D01*
X140328794Y-75724574D01*
X140192397Y-75928706D01*
X140128328Y-76250800D01*
X140144501Y-76332106D01*
X140144500Y-90801789D01*
X140092569Y-90853720D01*
X139935000Y-91234126D01*
X130130499Y-91234126D01*
X130130499Y-86790500D01*
X138186789Y-86790500D01*
X138238720Y-86842431D01*
X138619126Y-87000000D01*
X139030874Y-87000000D01*
X139411280Y-86842431D01*
X139702431Y-86551280D01*
X139860000Y-86170874D01*
X139860000Y-85759126D01*
X139702431Y-85378720D01*
X139411280Y-85087569D01*
X139030874Y-84930000D01*
X138619126Y-84930000D01*
X138238720Y-85087569D01*
X138186789Y-85139500D01*
X129391301Y-85139500D01*
X129309998Y-85123328D01*
X129228696Y-85139500D01*
X129228695Y-85139500D01*
X128987904Y-85187396D01*
X128714846Y-85369848D01*
X128712843Y-85372846D01*
X128709848Y-85374847D01*
X128663793Y-85443773D01*
X128527396Y-85647905D01*
X128463327Y-85969999D01*
X128479500Y-86051305D01*
X128479499Y-93449046D01*
X128447316Y-93442644D01*
X128366014Y-93458816D01*
X128366013Y-93458816D01*
X128125222Y-93506712D01*
X127852164Y-93689164D01*
X127806107Y-93758093D01*
X127743775Y-93820425D01*
X127674849Y-93866480D01*
X127628794Y-93935406D01*
X127492397Y-94139538D01*
X127428328Y-94461632D01*
X127444501Y-94542938D01*
X127444500Y-95246789D01*
X127392569Y-95298720D01*
X127235000Y-95679126D01*
X112749400Y-95679126D01*
X112749400Y-87525726D01*
X122764600Y-87525726D01*
X122764600Y-87937474D01*
X122922169Y-88317880D01*
X122974100Y-88369811D01*
X122974101Y-90444294D01*
X122957928Y-90525600D01*
X123013504Y-90804999D01*
X123021997Y-90847694D01*
X123044000Y-90880624D01*
X123044000Y-91010874D01*
X123201569Y-91391280D01*
X123492720Y-91682431D01*
X123873126Y-91840000D01*
X124284874Y-91840000D01*
X124665280Y-91682431D01*
X124956431Y-91391280D01*
X125114000Y-91010874D01*
X125114000Y-90599126D01*
X124956431Y-90218720D01*
X124665280Y-89927569D01*
X124625100Y-89910926D01*
X124625100Y-88369811D01*
X124677031Y-88317880D01*
X124834600Y-87937474D01*
X124834600Y-87525726D01*
X124677031Y-87145320D01*
X124385880Y-86854169D01*
X124005474Y-86696600D01*
X123593726Y-86696600D01*
X123213320Y-86854169D01*
X122922169Y-87145320D01*
X122764600Y-87525726D01*
X112749400Y-87525726D01*
X112749400Y-78493144D01*
X113031518Y-78610001D01*
X113586484Y-78610001D01*
X114099205Y-78397625D01*
X114491625Y-78005205D01*
X114579001Y-77794261D01*
X114666377Y-78005205D01*
X115058797Y-78397625D01*
X115571518Y-78610001D01*
X116126484Y-78610001D01*
X116639205Y-78397625D01*
X117031625Y-78005205D01*
X117119001Y-77794261D01*
X117206377Y-78005205D01*
X117598797Y-78397625D01*
X118111518Y-78610001D01*
X118666484Y-78610001D01*
X119179205Y-78397625D01*
X119571625Y-78005205D01*
X119659001Y-77794261D01*
X119746377Y-78005205D01*
X120138797Y-78397625D01*
X120651518Y-78610001D01*
X121206484Y-78610001D01*
X121719205Y-78397625D01*
X122111625Y-78005205D01*
X122199001Y-77794261D01*
X122286377Y-78005205D01*
X122678797Y-78397625D01*
X123191518Y-78610001D01*
X123746484Y-78610001D01*
X124259205Y-78397625D01*
X124651625Y-78005205D01*
X124739001Y-77794261D01*
X124826377Y-78005205D01*
X125218797Y-78397625D01*
X125731518Y-78610001D01*
X126286484Y-78610001D01*
X126799205Y-78397625D01*
X127191625Y-78005205D01*
X127279001Y-77794261D01*
X127366377Y-78005205D01*
X127758797Y-78397625D01*
X128271518Y-78610001D01*
X128826484Y-78610001D01*
X129339205Y-78397625D01*
X129731625Y-78005205D01*
X129819001Y-77794261D01*
X129906377Y-78005205D01*
X130298797Y-78397625D01*
X130811518Y-78610001D01*
X131366484Y-78610001D01*
X131879205Y-78397625D01*
X132271625Y-78005205D01*
X132359001Y-77794261D01*
X132446377Y-78005205D01*
X132838797Y-78397625D01*
X133351518Y-78610001D01*
X133906484Y-78610001D01*
X134419205Y-78397625D01*
X134811625Y-78005205D01*
X134899001Y-77794261D01*
X134986377Y-78005205D01*
X135378797Y-78397625D01*
X135891518Y-78610001D01*
X136446484Y-78610001D01*
X136959205Y-78397625D01*
X137351625Y-78005205D01*
X137564001Y-77492484D01*
X137564001Y-76937518D01*
X137351625Y-76424797D01*
X136959205Y-76032377D01*
X136748261Y-75945001D01*
X136959205Y-75857625D01*
X137351625Y-75465205D01*
X137564001Y-74952484D01*
X137564001Y-74397518D01*
X137351625Y-73884797D01*
X136959205Y-73492377D01*
X136446484Y-73280001D01*
X135891518Y-73280001D01*
X135378797Y-73492377D01*
X134986377Y-73884797D01*
X134899001Y-74095741D01*
X134811625Y-73884797D01*
X134419205Y-73492377D01*
X133906484Y-73280001D01*
X133351518Y-73280001D01*
X132838797Y-73492377D01*
X132446377Y-73884797D01*
X132359001Y-74095741D01*
X132271625Y-73884797D01*
X131879205Y-73492377D01*
X131366484Y-73280001D01*
X130811518Y-73280001D01*
X130298797Y-73492377D01*
X129906377Y-73884797D01*
X129819001Y-74095741D01*
X129731625Y-73884797D01*
X129339205Y-73492377D01*
X128826484Y-73280001D01*
X128271518Y-73280001D01*
X127758797Y-73492377D01*
X127366377Y-73884797D01*
X127279001Y-74095741D01*
X127191625Y-73884797D01*
X126799205Y-73492377D01*
X126286484Y-73280001D01*
X125731518Y-73280001D01*
X125218797Y-73492377D01*
X124826377Y-73884797D01*
X124739001Y-74095741D01*
X124651625Y-73884797D01*
X124259205Y-73492377D01*
X123746484Y-73280001D01*
X123191518Y-73280001D01*
X122678797Y-73492377D01*
X122286377Y-73884797D01*
X122199001Y-74095741D01*
X122111625Y-73884797D01*
X121719205Y-73492377D01*
X121206484Y-73280001D01*
X120651518Y-73280001D01*
X120138797Y-73492377D01*
X119746377Y-73884797D01*
X119659001Y-74095741D01*
X119571625Y-73884797D01*
X119179205Y-73492377D01*
X118666484Y-73280001D01*
X118111518Y-73280001D01*
X117598797Y-73492377D01*
X117206377Y-73884797D01*
X117119001Y-74095741D01*
X117031625Y-73884797D01*
X116639205Y-73492377D01*
X116126484Y-73280001D01*
X115571518Y-73280001D01*
X115058797Y-73492377D01*
X114666377Y-73884797D01*
X114579001Y-74095741D01*
X114491625Y-73884797D01*
X114099205Y-73492377D01*
X113586484Y-73280001D01*
X113031518Y-73280001D01*
X112749400Y-73396858D01*
X112749400Y-66840567D01*
X163756000Y-66840567D01*
X163756000Y-67779433D01*
X164115289Y-68646833D01*
X164779167Y-69310711D01*
X165646567Y-69670000D01*
X166585433Y-69670000D01*
X167452833Y-69310711D01*
X168116711Y-68646833D01*
X168476000Y-67779433D01*
X168476000Y-66840567D01*
X168116711Y-65973167D01*
X167452833Y-65309289D01*
X166585433Y-64950000D01*
X165646567Y-64950000D01*
X164779167Y-65309289D01*
X164115289Y-65973167D01*
X163756000Y-66840567D01*
X112749400Y-66840567D01*
X112749400Y-60075453D01*
X140106400Y-60075453D01*
X140106400Y-61338547D01*
X140589765Y-62505493D01*
X141482907Y-63398635D01*
X142649853Y-63882000D01*
X143912947Y-63882000D01*
X145079893Y-63398635D01*
X145973035Y-62505493D01*
X146456400Y-61338547D01*
X146456400Y-60075453D01*
X145973035Y-58908507D01*
X145079893Y-58015365D01*
X143912947Y-57532000D01*
X142649853Y-57532000D01*
X141482907Y-58015365D01*
X140589765Y-58908507D01*
X140106400Y-60075453D01*
X112749400Y-60075453D01*
X112749400Y-56516519D01*
X155422600Y-56516519D01*
X155422600Y-57072281D01*
X155635280Y-57585737D01*
X156028263Y-57978720D01*
X156235113Y-58064400D01*
X156028263Y-58150080D01*
X155635280Y-58543063D01*
X155422600Y-59056519D01*
X155422600Y-59612281D01*
X155635280Y-60125737D01*
X156028263Y-60518720D01*
X156541719Y-60731400D01*
X157097481Y-60731400D01*
X157610937Y-60518720D01*
X158003920Y-60125737D01*
X158216600Y-59612281D01*
X158216600Y-59056519D01*
X158003920Y-58543063D01*
X157610937Y-58150080D01*
X157404087Y-58064400D01*
X157610937Y-57978720D01*
X158003920Y-57585737D01*
X158216600Y-57072281D01*
X158216600Y-56516519D01*
X158003920Y-56003063D01*
X157610937Y-55610080D01*
X157097481Y-55397400D01*
X156541719Y-55397400D01*
X156028263Y-55610080D01*
X155635280Y-56003063D01*
X155422600Y-56516519D01*
X112749400Y-56516519D01*
X112749400Y-51104581D01*
X112809490Y-50684991D01*
X112963781Y-50345648D01*
X113207112Y-50063248D01*
X113519923Y-49860494D01*
X113900584Y-49746652D01*
X114097750Y-49732000D01*
X142164596Y-49732000D01*
X141482907Y-50014365D01*
G04 #@! TD*
M02*
