M48
;DRILL file {KiCad (5.0.0)} date 09/29/18 17:08:52
;FORMAT={-:-/ absolute / inch / decimal}
FMAT,2
INCH,TZ
T1C0.0157
T2C0.0300
T3C0.0350
T4C0.0394
T5C0.1598
%
G90
G05
M72
T1
X4.9789Y-4.19
X5.0299Y-4.15
X5.1921Y-4.15
X5.1921Y-4.19
X5.2989Y-3.6
X5.2989Y-3.7
X5.4297Y-3.7
X5.43Y-3.6
X5.7689Y-3.13
X5.77Y-3.03
X6.05Y-2.99
X6.0533Y-2.95
X6.1156Y-2.95
X6.1156Y-2.99
X6.2Y-2.54
X6.62Y-2.98
T2
X5.08Y-3.6
X5.08Y-3.7
X5.08Y-3.8
X5.08Y-3.9
X5.08Y-4.
X5.08Y-2.94
X5.08Y-3.04
X5.08Y-3.14
X5.08Y-3.24
X5.08Y-3.34
T3
X6.2Y-2.45
X6.3Y-2.45
X6.4Y-2.45
T4
X4.661Y-2.59
X4.661Y-2.69
X4.661Y-4.29
X4.661Y-4.39
X4.761Y-2.59
X4.761Y-2.69
X4.761Y-4.29
X4.761Y-4.39
X4.861Y-2.59
X4.861Y-2.69
X4.861Y-4.29
X4.861Y-4.39
X4.961Y-2.59
X4.961Y-2.69
X4.961Y-4.29
X4.961Y-4.39
X5.061Y-2.59
X5.061Y-2.69
X5.061Y-4.29
X5.061Y-4.39
X5.161Y-2.59
X5.161Y-2.69
X5.161Y-4.29
X5.161Y-4.39
X5.261Y-2.59
X5.261Y-2.69
X5.261Y-4.29
X5.261Y-4.39
X5.361Y-2.59
X5.361Y-2.69
X5.361Y-4.29
X5.361Y-4.39
X5.461Y-2.59
X5.461Y-2.69
X5.461Y-4.29
X5.461Y-4.39
X5.561Y-2.59
X5.561Y-2.69
X5.561Y-4.29
X5.561Y-4.39
T5
X5.381Y-1.995
X5.381Y-2.31
T0
M30
