G04 #@! TF.GenerationSoftware,KiCad,Pcbnew,(5.0.0)*
G04 #@! TF.CreationDate,2018-09-29T14:24:20-05:00*
G04 #@! TF.ProjectId,DriveBoard_Hardware,4472697665426F6172645F4861726477,rev?*
G04 #@! TF.SameCoordinates,Original*
G04 #@! TF.FileFunction,Copper,L2,Bot,Signal*
G04 #@! TF.FilePolarity,Positive*
%FSLAX46Y46*%
G04 Gerber Fmt 4.6, Leading zero omitted, Abs format (unit mm)*
G04 Created by KiCad (PCBNEW (5.0.0)) date 09/29/18 14:24:20*
%MOMM*%
%LPD*%
G01*
G04 APERTURE LIST*
G04 #@! TA.AperFunction,ComponentPad*
%ADD10C,5.080000*%
G04 #@! TD*
G04 #@! TA.AperFunction,ComponentPad*
%ADD11C,1.524000*%
G04 #@! TD*
G04 #@! TA.AperFunction,ComponentPad*
%ADD12C,1.520000*%
G04 #@! TD*
G04 #@! TA.AperFunction,ViaPad*
%ADD13C,0.800000*%
G04 #@! TD*
G04 #@! TA.AperFunction,Conductor*
%ADD14C,0.381000*%
G04 #@! TD*
G04 #@! TA.AperFunction,Conductor*
%ADD15C,0.254000*%
G04 #@! TD*
G04 APERTURE END LIST*
D10*
G04 #@! TO.P,Conn1,1*
G04 #@! TO.N,GND*
X129540000Y-92329000D03*
G04 #@! TO.P,Conn1,2*
G04 #@! TO.N,/+12V*
X129540000Y-100330000D03*
G04 #@! TD*
D11*
G04 #@! TO.P,Conn2,1*
G04 #@! TO.N,N/C*
X91440000Y-74930000D03*
G04 #@! TO.P,Conn2,2*
X93980000Y-74930000D03*
G04 #@! TO.P,Conn2,3*
G04 #@! TO.N,GND*
X96520000Y-74930000D03*
G04 #@! TO.P,Conn2,4*
G04 #@! TO.N,TX_1_SL*
X99060000Y-74930000D03*
G04 #@! TO.P,Conn2,5*
G04 #@! TO.N,RX_1_SL*
X101600000Y-74930000D03*
G04 #@! TD*
G04 #@! TO.P,Conn3,5*
G04 #@! TO.N,RX_2_SL*
X120650000Y-74930000D03*
G04 #@! TO.P,Conn3,4*
G04 #@! TO.N,TX_2_SL*
X118110000Y-74930000D03*
G04 #@! TO.P,Conn3,3*
G04 #@! TO.N,GND*
X115570000Y-74930000D03*
G04 #@! TO.P,Conn3,2*
G04 #@! TO.N,N/C*
X113030000Y-74930000D03*
G04 #@! TO.P,Conn3,1*
X110490000Y-74930000D03*
G04 #@! TD*
D12*
G04 #@! TO.P,U1,+3V3*
G04 #@! TO.N,N/C*
X88900000Y-126238000D03*
G04 #@! TO.P,U1,PM6*
X111760000Y-80518000D03*
G04 #@! TO.P,U1,PQ1*
X109220000Y-80518000D03*
G04 #@! TO.P,U1,PQ2*
X101600000Y-80518000D03*
G04 #@! TO.P,U1,PK0*
G04 #@! TO.N,RX_2_IC*
X99060000Y-123698000D03*
G04 #@! TO.P,U1,PQ3*
G04 #@! TO.N,N/C*
X104140000Y-80518000D03*
G04 #@! TO.P,U1,PP3*
X106680000Y-80518000D03*
G04 #@! TO.P,U1,PQ0*
X104140000Y-126238000D03*
G04 #@! TO.P,U1,PA4*
X109220000Y-123698000D03*
G04 #@! TO.P,U1,Rese*
X99060000Y-80518000D03*
G04 #@! TO.P,U1,PA7*
X96520000Y-80518000D03*
G04 #@! TO.P,U1,PN5*
X109220000Y-126238000D03*
G04 #@! TO.P,U1,PK2*
X104140000Y-123698000D03*
G04 #@! TO.P,U1,PK1*
G04 #@! TO.N,TX_2_IC*
X101600000Y-123698000D03*
G04 #@! TO.P,U1,+5V*
G04 #@! TO.N,+5V*
X88900000Y-123698000D03*
G04 #@! TO.P,U1,GND*
G04 #@! TO.N,GND*
X91440000Y-123698000D03*
G04 #@! TO.P,U1,PB4*
G04 #@! TO.N,N/C*
X93980000Y-123698000D03*
G04 #@! TO.P,U1,PB5*
X96520000Y-123698000D03*
G04 #@! TO.P,U1,PK3*
X106680000Y-123698000D03*
G04 #@! TO.P,U1,PA5*
X111760000Y-123698000D03*
G04 #@! TO.P,U1,PD2*
X91440000Y-126238000D03*
G04 #@! TO.P,U1,PP0*
G04 #@! TO.N,RX_1_IC*
X93980000Y-126238000D03*
G04 #@! TO.P,U1,PP1*
G04 #@! TO.N,TX_1_IC*
X96520000Y-126238000D03*
G04 #@! TO.P,U1,PD4*
G04 #@! TO.N,N/C*
X99060000Y-126238000D03*
G04 #@! TO.P,U1,PD5*
X101600000Y-126238000D03*
G04 #@! TO.P,U1,PP4*
X106680000Y-126238000D03*
G04 #@! TO.P,U1,PN4*
X111760000Y-126238000D03*
G04 #@! TO.P,U1,PG1*
X88900000Y-83058000D03*
G04 #@! TO.P,U1,PK4*
X91440000Y-83058000D03*
G04 #@! TO.P,U1,PK5*
X93980000Y-83058000D03*
G04 #@! TO.P,U1,PM0*
X96520000Y-83058000D03*
G04 #@! TO.P,U1,PM1*
X99060000Y-83058000D03*
G04 #@! TO.P,U1,PM2*
X101600000Y-83058000D03*
G04 #@! TO.P,U1,PH0*
X104140000Y-83058000D03*
G04 #@! TO.P,U1,PH1*
X106680000Y-83058000D03*
G04 #@! TO.P,U1,PK6*
X109220000Y-83058000D03*
G04 #@! TO.P,U1,PK7*
X111760000Y-83058000D03*
G04 #@! TO.P,U1,GND*
G04 #@! TO.N,GND*
X88900000Y-80518000D03*
G04 #@! TO.P,U1,PM7*
G04 #@! TO.N,N/C*
X91440000Y-80518000D03*
G04 #@! TO.P,U1,PP5*
X93980000Y-80518000D03*
G04 #@! TD*
D11*
G04 #@! TO.P,U3,1*
G04 #@! TO.N,/+12V*
X123190000Y-100330000D03*
G04 #@! TO.P,U3,2*
G04 #@! TO.N,GND*
X120650000Y-100330000D03*
G04 #@! TO.P,U3,3*
G04 #@! TO.N,+5V*
X118110000Y-100330000D03*
G04 #@! TD*
D13*
G04 #@! TO.N,GND*
X92964000Y-101600000D03*
X92964000Y-104140000D03*
G04 #@! TO.N,TX_1_SL*
X106299000Y-102870000D03*
G04 #@! TO.N,RX_1_SL*
X106299000Y-104140000D03*
G04 #@! TO.N,RX_2_SL*
X97409000Y-109220000D03*
G04 #@! TO.N,TX_2_SL*
X97409000Y-107950000D03*
G04 #@! TO.N,RX_1_IC*
X108458000Y-117856000D03*
G04 #@! TO.N,TX_1_IC*
X107569000Y-119888000D03*
G04 #@! TD*
D14*
G04 #@! TO.N,GND*
X92964000Y-101600000D02*
X92964000Y-104140000D01*
G04 #@! TO.N,TX_1_SL*
X106299000Y-102870000D02*
X106698999Y-102470001D01*
X106698999Y-102470001D02*
X106698999Y-85108999D01*
X106698999Y-85108999D02*
X106553000Y-84963000D01*
X106553000Y-84963000D02*
X100838000Y-84963000D01*
X100330000Y-84455000D02*
X100457000Y-84582000D01*
X100330000Y-76200000D02*
X100330000Y-84455000D01*
X99060000Y-74930000D02*
X100330000Y-76200000D01*
X100838000Y-84963000D02*
X100457000Y-84582000D01*
G04 #@! TO.N,RX_1_SL*
X102870000Y-76200000D02*
X101600000Y-74930000D01*
X107280009Y-103158991D02*
X107280009Y-84801009D01*
X106299000Y-104140000D02*
X107280009Y-103158991D01*
X107280009Y-84801009D02*
X106807000Y-84328000D01*
X106807000Y-84328000D02*
X103505000Y-84328000D01*
X103505000Y-84328000D02*
X102870000Y-83693000D01*
X102870000Y-83693000D02*
X102870000Y-76200000D01*
G04 #@! TO.N,RX_2_SL*
X120650000Y-76581000D02*
X120650000Y-74930000D01*
X114808000Y-109220000D02*
X116586000Y-107442000D01*
X97409000Y-109220000D02*
X114808000Y-109220000D01*
X116586000Y-107442000D02*
X116586000Y-78232000D01*
X116586000Y-78232000D02*
X117602000Y-77216000D01*
X117602000Y-77216000D02*
X120015000Y-77216000D01*
X120015000Y-77216000D02*
X120650000Y-76581000D01*
G04 #@! TO.N,TX_2_SL*
X118110000Y-74930000D02*
X115951000Y-77089000D01*
X115951000Y-77089000D02*
X115951000Y-106934000D01*
X115951000Y-106934000D02*
X114935000Y-107950000D01*
X114935000Y-107950000D02*
X97409000Y-107950000D01*
G04 #@! TO.N,RX_1_IC*
X107442000Y-118872000D02*
X108458000Y-117856000D01*
X96901000Y-118872000D02*
X107442000Y-118872000D01*
X95250000Y-124968000D02*
X95250000Y-120523000D01*
X96012000Y-119761000D02*
X96901000Y-118872000D01*
X95250000Y-120523000D02*
X96012000Y-119761000D01*
X93980000Y-126238000D02*
X95250000Y-124968000D01*
G04 #@! TO.N,TX_1_IC*
X96520000Y-126238000D02*
X97790000Y-124968000D01*
X97790000Y-124968000D02*
X97790000Y-121158000D01*
X97790000Y-121158000D02*
X98552000Y-120396000D01*
X98552000Y-120396000D02*
X107061000Y-120396000D01*
X107061000Y-120396000D02*
X107569000Y-119888000D01*
G04 #@! TD*
D15*
G04 #@! TO.N,+5V*
G36*
X146927009Y-62428590D02*
X147266352Y-62582881D01*
X147548752Y-62826212D01*
X147751506Y-63139023D01*
X147865348Y-63519684D01*
X147880000Y-63716850D01*
X147880001Y-105105412D01*
X147819910Y-105525009D01*
X147665619Y-105864352D01*
X147422288Y-106146752D01*
X147109479Y-106349506D01*
X146728815Y-106463348D01*
X146531649Y-106478000D01*
X130879925Y-106478000D01*
X130810000Y-106464091D01*
X130740074Y-106478000D01*
X130532972Y-106519195D01*
X130298119Y-106676119D01*
X130141195Y-106910972D01*
X130086091Y-107188000D01*
X130100000Y-107257926D01*
X130100001Y-127946069D01*
X130086091Y-128016000D01*
X130141195Y-128293028D01*
X130298119Y-128527881D01*
X130532972Y-128684805D01*
X130740074Y-128726000D01*
X130740075Y-128726000D01*
X130810000Y-128739909D01*
X130879926Y-128726000D01*
X146507419Y-128726000D01*
X146927009Y-128786090D01*
X147266352Y-128940381D01*
X147548752Y-129183712D01*
X147751506Y-129496523D01*
X147865348Y-129877184D01*
X147880001Y-130074363D01*
X147880000Y-137579760D01*
X147534241Y-137683164D01*
X147446769Y-137723582D01*
X147358806Y-137762929D01*
X147351502Y-137767601D01*
X147351498Y-137767603D01*
X147351499Y-137767603D01*
X146868040Y-138080966D01*
X146795447Y-138144293D01*
X146722045Y-138206763D01*
X146716343Y-138213300D01*
X146340266Y-138649759D01*
X146288347Y-138730942D01*
X146235446Y-138811475D01*
X146231808Y-138819350D01*
X145993347Y-139343817D01*
X145966300Y-139436309D01*
X145938129Y-139528452D01*
X145936847Y-139537031D01*
X145855171Y-140107346D01*
X145855171Y-140179766D01*
X145849362Y-140251963D01*
X145849952Y-140260618D01*
X145872272Y-140560966D01*
X145887826Y-140631711D01*
X145897654Y-140703455D01*
X145900088Y-140711781D01*
X146065164Y-141263758D01*
X146105591Y-141351250D01*
X146144930Y-141439194D01*
X146149603Y-141446501D01*
X146462966Y-141929961D01*
X146526328Y-142002594D01*
X146588763Y-142075955D01*
X146595296Y-142081654D01*
X146595300Y-142081658D01*
X146595305Y-142081661D01*
X147031759Y-142457734D01*
X147112942Y-142509653D01*
X147193475Y-142562554D01*
X147201346Y-142566190D01*
X147201349Y-142566192D01*
X147201352Y-142566193D01*
X147725817Y-142804653D01*
X147818309Y-142831700D01*
X147880001Y-142850561D01*
X147880000Y-150825418D01*
X147819910Y-151245009D01*
X147665619Y-151584352D01*
X147422288Y-151866752D01*
X147109479Y-152069506D01*
X146728815Y-152183348D01*
X146531649Y-152198000D01*
X89712581Y-152198000D01*
X89292991Y-152137910D01*
X88953648Y-151983619D01*
X88671248Y-151740288D01*
X88468494Y-151427479D01*
X88354652Y-151046815D01*
X88340000Y-150849649D01*
X88340000Y-142836239D01*
X88685758Y-142732836D01*
X88773250Y-142692409D01*
X88861194Y-142653070D01*
X88868498Y-142648399D01*
X88868502Y-142648397D01*
X89351961Y-142335034D01*
X89424594Y-142271672D01*
X89497955Y-142209237D01*
X89503654Y-142202704D01*
X89503658Y-142202700D01*
X89503661Y-142202695D01*
X89879734Y-141766241D01*
X89931653Y-141685058D01*
X89984554Y-141604525D01*
X89988192Y-141596650D01*
X90226653Y-141072183D01*
X90253700Y-140979691D01*
X90281871Y-140887548D01*
X90283153Y-140878969D01*
X90364829Y-140308653D01*
X90364829Y-140236233D01*
X90370638Y-140164036D01*
X90370048Y-140155382D01*
X90347728Y-139855033D01*
X90332174Y-139784288D01*
X90322346Y-139712544D01*
X90319912Y-139704219D01*
X90154836Y-139152241D01*
X90114418Y-139064769D01*
X90075071Y-138976806D01*
X90070397Y-138969499D01*
X89757034Y-138486040D01*
X89693707Y-138413447D01*
X89631237Y-138340045D01*
X89624700Y-138334343D01*
X89188241Y-137958266D01*
X89107058Y-137906347D01*
X89026525Y-137853446D01*
X89018654Y-137849810D01*
X89018651Y-137849808D01*
X89018648Y-137849807D01*
X88494183Y-137611347D01*
X88401691Y-137584300D01*
X88340000Y-137565439D01*
X88340000Y-127515978D01*
X88622517Y-127633000D01*
X89177483Y-127633000D01*
X89690204Y-127420624D01*
X90082624Y-127028204D01*
X90170000Y-126817260D01*
X90257376Y-127028204D01*
X90649796Y-127420624D01*
X91162517Y-127633000D01*
X91717483Y-127633000D01*
X92230204Y-127420624D01*
X92622624Y-127028204D01*
X92710000Y-126817260D01*
X92797376Y-127028204D01*
X93189796Y-127420624D01*
X93702517Y-127633000D01*
X94257483Y-127633000D01*
X94770204Y-127420624D01*
X95162624Y-127028204D01*
X95250000Y-126817260D01*
X95337376Y-127028204D01*
X95729796Y-127420624D01*
X96242517Y-127633000D01*
X96797483Y-127633000D01*
X97310204Y-127420624D01*
X97702624Y-127028204D01*
X97790000Y-126817260D01*
X97877376Y-127028204D01*
X98269796Y-127420624D01*
X98782517Y-127633000D01*
X99337483Y-127633000D01*
X99850204Y-127420624D01*
X100242624Y-127028204D01*
X100330000Y-126817260D01*
X100417376Y-127028204D01*
X100809796Y-127420624D01*
X101322517Y-127633000D01*
X101877483Y-127633000D01*
X102390204Y-127420624D01*
X102782624Y-127028204D01*
X102870000Y-126817260D01*
X102957376Y-127028204D01*
X103349796Y-127420624D01*
X103862517Y-127633000D01*
X104417483Y-127633000D01*
X104930204Y-127420624D01*
X105322624Y-127028204D01*
X105410000Y-126817260D01*
X105497376Y-127028204D01*
X105889796Y-127420624D01*
X106402517Y-127633000D01*
X106957483Y-127633000D01*
X107470204Y-127420624D01*
X107862624Y-127028204D01*
X107950000Y-126817260D01*
X108037376Y-127028204D01*
X108429796Y-127420624D01*
X108942517Y-127633000D01*
X109497483Y-127633000D01*
X110010204Y-127420624D01*
X110402624Y-127028204D01*
X110490000Y-126817260D01*
X110577376Y-127028204D01*
X110969796Y-127420624D01*
X111482517Y-127633000D01*
X112037483Y-127633000D01*
X112550204Y-127420624D01*
X112942624Y-127028204D01*
X113155000Y-126515483D01*
X113155000Y-125960517D01*
X112942624Y-125447796D01*
X112550204Y-125055376D01*
X112339260Y-124968000D01*
X112550204Y-124880624D01*
X112942624Y-124488204D01*
X113155000Y-123975483D01*
X113155000Y-123420517D01*
X112942624Y-122907796D01*
X112550204Y-122515376D01*
X112037483Y-122303000D01*
X111482517Y-122303000D01*
X110969796Y-122515376D01*
X110577376Y-122907796D01*
X110490000Y-123118740D01*
X110402624Y-122907796D01*
X110010204Y-122515376D01*
X109497483Y-122303000D01*
X108942517Y-122303000D01*
X108429796Y-122515376D01*
X108037376Y-122907796D01*
X107950000Y-123118740D01*
X107862624Y-122907796D01*
X107470204Y-122515376D01*
X106957483Y-122303000D01*
X106402517Y-122303000D01*
X105889796Y-122515376D01*
X105497376Y-122907796D01*
X105410000Y-123118740D01*
X105322624Y-122907796D01*
X104930204Y-122515376D01*
X104417483Y-122303000D01*
X103862517Y-122303000D01*
X103349796Y-122515376D01*
X102957376Y-122907796D01*
X102870000Y-123118740D01*
X102782624Y-122907796D01*
X102390204Y-122515376D01*
X101877483Y-122303000D01*
X101322517Y-122303000D01*
X100809796Y-122515376D01*
X100417376Y-122907796D01*
X100330000Y-123118740D01*
X100242624Y-122907796D01*
X99850204Y-122515376D01*
X99337483Y-122303000D01*
X98782517Y-122303000D01*
X98615500Y-122372181D01*
X98615500Y-121499932D01*
X98893933Y-121221500D01*
X106979699Y-121221500D01*
X107061000Y-121237672D01*
X107142301Y-121221500D01*
X107142303Y-121221500D01*
X107383094Y-121173604D01*
X107656152Y-120991152D01*
X107701690Y-120923000D01*
X107774874Y-120923000D01*
X108155280Y-120765431D01*
X108446431Y-120474280D01*
X108604000Y-120093874D01*
X108604000Y-119682126D01*
X108446431Y-119301720D01*
X108313072Y-119168361D01*
X108590433Y-118891000D01*
X108663874Y-118891000D01*
X109044280Y-118733431D01*
X109335431Y-118442280D01*
X109493000Y-118061874D01*
X109493000Y-117650126D01*
X109335431Y-117269720D01*
X109044280Y-116978569D01*
X108663874Y-116821000D01*
X108252126Y-116821000D01*
X107871720Y-116978569D01*
X107580569Y-117269720D01*
X107423000Y-117650126D01*
X107423000Y-117723567D01*
X107100068Y-118046500D01*
X96982303Y-118046500D01*
X96901000Y-118030328D01*
X96578905Y-118094396D01*
X96453642Y-118178095D01*
X96305848Y-118276848D01*
X96259793Y-118345774D01*
X95485776Y-119119792D01*
X95485773Y-119119794D01*
X94723775Y-119881793D01*
X94654849Y-119927848D01*
X94608794Y-119996774D01*
X94472397Y-120200906D01*
X94408328Y-120523000D01*
X94424501Y-120604306D01*
X94424501Y-122372181D01*
X94257483Y-122303000D01*
X93702517Y-122303000D01*
X93189796Y-122515376D01*
X92797376Y-122907796D01*
X92710000Y-123118740D01*
X92622624Y-122907796D01*
X92230204Y-122515376D01*
X91717483Y-122303000D01*
X91162517Y-122303000D01*
X90649796Y-122515376D01*
X90257376Y-122907796D01*
X90045000Y-123420517D01*
X90045000Y-123975483D01*
X90257376Y-124488204D01*
X90649796Y-124880624D01*
X90860740Y-124968000D01*
X90649796Y-125055376D01*
X90257376Y-125447796D01*
X90170000Y-125658740D01*
X90082624Y-125447796D01*
X89690204Y-125055376D01*
X89177483Y-124843000D01*
X88622517Y-124843000D01*
X88340000Y-124960022D01*
X88340000Y-107744126D01*
X96374000Y-107744126D01*
X96374000Y-108155874D01*
X96531569Y-108536280D01*
X96580289Y-108585000D01*
X96531569Y-108633720D01*
X96374000Y-109014126D01*
X96374000Y-109425874D01*
X96531569Y-109806280D01*
X96822720Y-110097431D01*
X97203126Y-110255000D01*
X97614874Y-110255000D01*
X97995280Y-110097431D01*
X98047211Y-110045500D01*
X114726699Y-110045500D01*
X114808000Y-110061672D01*
X114889301Y-110045500D01*
X114889303Y-110045500D01*
X115130094Y-109997604D01*
X115403152Y-109815152D01*
X115449209Y-109746223D01*
X117112226Y-108083207D01*
X117181152Y-108037152D01*
X117275435Y-107896048D01*
X117363604Y-107764095D01*
X117427672Y-107442000D01*
X117411500Y-107360697D01*
X117411500Y-100052119D01*
X119253000Y-100052119D01*
X119253000Y-100607881D01*
X119465680Y-101121337D01*
X119858663Y-101514320D01*
X120372119Y-101727000D01*
X120927881Y-101727000D01*
X121441337Y-101514320D01*
X121834320Y-101121337D01*
X121920000Y-100914487D01*
X122005680Y-101121337D01*
X122398663Y-101514320D01*
X122912119Y-101727000D01*
X123467881Y-101727000D01*
X123981337Y-101514320D01*
X124374320Y-101121337D01*
X124587000Y-100607881D01*
X124587000Y-100052119D01*
X124440508Y-99698453D01*
X126365000Y-99698453D01*
X126365000Y-100961547D01*
X126848365Y-102128493D01*
X127741507Y-103021635D01*
X128908453Y-103505000D01*
X130171547Y-103505000D01*
X131338493Y-103021635D01*
X132231635Y-102128493D01*
X132715000Y-100961547D01*
X132715000Y-99698453D01*
X132231635Y-98531507D01*
X131338493Y-97638365D01*
X130171547Y-97155000D01*
X128908453Y-97155000D01*
X127741507Y-97638365D01*
X126848365Y-98531507D01*
X126365000Y-99698453D01*
X124440508Y-99698453D01*
X124374320Y-99538663D01*
X123981337Y-99145680D01*
X123467881Y-98933000D01*
X122912119Y-98933000D01*
X122398663Y-99145680D01*
X122005680Y-99538663D01*
X121920000Y-99745513D01*
X121834320Y-99538663D01*
X121441337Y-99145680D01*
X120927881Y-98933000D01*
X120372119Y-98933000D01*
X119858663Y-99145680D01*
X119465680Y-99538663D01*
X119253000Y-100052119D01*
X117411500Y-100052119D01*
X117411500Y-91697453D01*
X126365000Y-91697453D01*
X126365000Y-92960547D01*
X126848365Y-94127493D01*
X127741507Y-95020635D01*
X128908453Y-95504000D01*
X130171547Y-95504000D01*
X131338493Y-95020635D01*
X132231635Y-94127493D01*
X132715000Y-92960547D01*
X132715000Y-91697453D01*
X132231635Y-90530507D01*
X131338493Y-89637365D01*
X130171547Y-89154000D01*
X128908453Y-89154000D01*
X127741507Y-89637365D01*
X126848365Y-90530507D01*
X126365000Y-91697453D01*
X117411500Y-91697453D01*
X117411500Y-78573932D01*
X117943933Y-78041500D01*
X119933699Y-78041500D01*
X120015000Y-78057672D01*
X120096301Y-78041500D01*
X120096303Y-78041500D01*
X120337094Y-77993604D01*
X120610152Y-77811152D01*
X120656209Y-77742223D01*
X121176226Y-77222207D01*
X121245152Y-77176152D01*
X121427604Y-76903094D01*
X121475500Y-76662303D01*
X121475500Y-76662302D01*
X121491672Y-76581000D01*
X121475500Y-76499697D01*
X121475500Y-76080157D01*
X121834320Y-75721337D01*
X122047000Y-75207881D01*
X122047000Y-74652119D01*
X121834320Y-74138663D01*
X121441337Y-73745680D01*
X120927881Y-73533000D01*
X120372119Y-73533000D01*
X119858663Y-73745680D01*
X119465680Y-74138663D01*
X119380000Y-74345513D01*
X119294320Y-74138663D01*
X118901337Y-73745680D01*
X118387881Y-73533000D01*
X117832119Y-73533000D01*
X117318663Y-73745680D01*
X116925680Y-74138663D01*
X116840000Y-74345513D01*
X116754320Y-74138663D01*
X116361337Y-73745680D01*
X115847881Y-73533000D01*
X115292119Y-73533000D01*
X114778663Y-73745680D01*
X114385680Y-74138663D01*
X114300000Y-74345513D01*
X114214320Y-74138663D01*
X113821337Y-73745680D01*
X113307881Y-73533000D01*
X112752119Y-73533000D01*
X112238663Y-73745680D01*
X111845680Y-74138663D01*
X111760000Y-74345513D01*
X111674320Y-74138663D01*
X111281337Y-73745680D01*
X110767881Y-73533000D01*
X110212119Y-73533000D01*
X109698663Y-73745680D01*
X109305680Y-74138663D01*
X109093000Y-74652119D01*
X109093000Y-75207881D01*
X109305680Y-75721337D01*
X109698663Y-76114320D01*
X110212119Y-76327000D01*
X110767881Y-76327000D01*
X111281337Y-76114320D01*
X111674320Y-75721337D01*
X111760000Y-75514487D01*
X111845680Y-75721337D01*
X112238663Y-76114320D01*
X112752119Y-76327000D01*
X113307881Y-76327000D01*
X113821337Y-76114320D01*
X114214320Y-75721337D01*
X114300000Y-75514487D01*
X114385680Y-75721337D01*
X114778663Y-76114320D01*
X115292119Y-76327000D01*
X115545568Y-76327000D01*
X115424777Y-76447791D01*
X115355848Y-76493848D01*
X115173396Y-76766907D01*
X115146307Y-76903094D01*
X115109328Y-77089000D01*
X115125500Y-77170302D01*
X115125501Y-106592066D01*
X114593068Y-107124500D01*
X98047211Y-107124500D01*
X97995280Y-107072569D01*
X97614874Y-106915000D01*
X97203126Y-106915000D01*
X96822720Y-107072569D01*
X96531569Y-107363720D01*
X96374000Y-107744126D01*
X88340000Y-107744126D01*
X88340000Y-101394126D01*
X91929000Y-101394126D01*
X91929000Y-101805874D01*
X92086569Y-102186280D01*
X92138500Y-102238211D01*
X92138501Y-103501788D01*
X92086569Y-103553720D01*
X91929000Y-103934126D01*
X91929000Y-104345874D01*
X92086569Y-104726280D01*
X92377720Y-105017431D01*
X92758126Y-105175000D01*
X93169874Y-105175000D01*
X93550280Y-105017431D01*
X93841431Y-104726280D01*
X93999000Y-104345874D01*
X93999000Y-103934126D01*
X93841431Y-103553720D01*
X93789500Y-103501789D01*
X93789500Y-102238211D01*
X93841431Y-102186280D01*
X93999000Y-101805874D01*
X93999000Y-101394126D01*
X93841431Y-101013720D01*
X93550280Y-100722569D01*
X93169874Y-100565000D01*
X92758126Y-100565000D01*
X92377720Y-100722569D01*
X92086569Y-101013720D01*
X91929000Y-101394126D01*
X88340000Y-101394126D01*
X88340000Y-84335978D01*
X88622517Y-84453000D01*
X89177483Y-84453000D01*
X89690204Y-84240624D01*
X90082624Y-83848204D01*
X90170000Y-83637260D01*
X90257376Y-83848204D01*
X90649796Y-84240624D01*
X91162517Y-84453000D01*
X91717483Y-84453000D01*
X92230204Y-84240624D01*
X92622624Y-83848204D01*
X92710000Y-83637260D01*
X92797376Y-83848204D01*
X93189796Y-84240624D01*
X93702517Y-84453000D01*
X94257483Y-84453000D01*
X94770204Y-84240624D01*
X95162624Y-83848204D01*
X95250000Y-83637260D01*
X95337376Y-83848204D01*
X95729796Y-84240624D01*
X96242517Y-84453000D01*
X96797483Y-84453000D01*
X97310204Y-84240624D01*
X97702624Y-83848204D01*
X97790000Y-83637260D01*
X97877376Y-83848204D01*
X98269796Y-84240624D01*
X98782517Y-84453000D01*
X99337483Y-84453000D01*
X99502306Y-84384728D01*
X99488328Y-84455000D01*
X99527135Y-84650094D01*
X99552397Y-84777094D01*
X99734849Y-85050152D01*
X99803775Y-85096207D01*
X100196793Y-85489225D01*
X100242848Y-85558152D01*
X100515906Y-85740604D01*
X100756697Y-85788500D01*
X100756701Y-85788500D01*
X100837999Y-85804671D01*
X100919297Y-85788500D01*
X105873500Y-85788500D01*
X105873499Y-101925972D01*
X105712720Y-101992569D01*
X105421569Y-102283720D01*
X105264000Y-102664126D01*
X105264000Y-103075874D01*
X105421569Y-103456280D01*
X105470289Y-103505000D01*
X105421569Y-103553720D01*
X105264000Y-103934126D01*
X105264000Y-104345874D01*
X105421569Y-104726280D01*
X105712720Y-105017431D01*
X106093126Y-105175000D01*
X106504874Y-105175000D01*
X106885280Y-105017431D01*
X107176431Y-104726280D01*
X107334000Y-104345874D01*
X107334000Y-104272432D01*
X107806235Y-103800198D01*
X107875161Y-103754143D01*
X108057613Y-103481085D01*
X108105509Y-103240294D01*
X108105509Y-103240290D01*
X108121680Y-103158992D01*
X108105509Y-103077694D01*
X108105509Y-84882312D01*
X108121681Y-84801009D01*
X108057613Y-84478914D01*
X107983400Y-84367848D01*
X107875161Y-84205857D01*
X107806232Y-84159800D01*
X107678630Y-84032198D01*
X107862624Y-83848204D01*
X107950000Y-83637260D01*
X108037376Y-83848204D01*
X108429796Y-84240624D01*
X108942517Y-84453000D01*
X109497483Y-84453000D01*
X110010204Y-84240624D01*
X110402624Y-83848204D01*
X110490000Y-83637260D01*
X110577376Y-83848204D01*
X110969796Y-84240624D01*
X111482517Y-84453000D01*
X112037483Y-84453000D01*
X112550204Y-84240624D01*
X112942624Y-83848204D01*
X113155000Y-83335483D01*
X113155000Y-82780517D01*
X112942624Y-82267796D01*
X112550204Y-81875376D01*
X112339260Y-81788000D01*
X112550204Y-81700624D01*
X112942624Y-81308204D01*
X113155000Y-80795483D01*
X113155000Y-80240517D01*
X112942624Y-79727796D01*
X112550204Y-79335376D01*
X112037483Y-79123000D01*
X111482517Y-79123000D01*
X110969796Y-79335376D01*
X110577376Y-79727796D01*
X110490000Y-79938740D01*
X110402624Y-79727796D01*
X110010204Y-79335376D01*
X109497483Y-79123000D01*
X108942517Y-79123000D01*
X108429796Y-79335376D01*
X108037376Y-79727796D01*
X107950000Y-79938740D01*
X107862624Y-79727796D01*
X107470204Y-79335376D01*
X106957483Y-79123000D01*
X106402517Y-79123000D01*
X105889796Y-79335376D01*
X105497376Y-79727796D01*
X105410000Y-79938740D01*
X105322624Y-79727796D01*
X104930204Y-79335376D01*
X104417483Y-79123000D01*
X103862517Y-79123000D01*
X103695500Y-79192181D01*
X103695500Y-76281297D01*
X103711671Y-76199999D01*
X103695500Y-76118701D01*
X103695500Y-76118697D01*
X103647604Y-75877906D01*
X103465152Y-75604848D01*
X103396226Y-75558793D01*
X102997000Y-75159567D01*
X102997000Y-74652119D01*
X102784320Y-74138663D01*
X102391337Y-73745680D01*
X101877881Y-73533000D01*
X101322119Y-73533000D01*
X100808663Y-73745680D01*
X100415680Y-74138663D01*
X100330000Y-74345513D01*
X100244320Y-74138663D01*
X99851337Y-73745680D01*
X99337881Y-73533000D01*
X98782119Y-73533000D01*
X98268663Y-73745680D01*
X97875680Y-74138663D01*
X97790000Y-74345513D01*
X97704320Y-74138663D01*
X97311337Y-73745680D01*
X96797881Y-73533000D01*
X96242119Y-73533000D01*
X95728663Y-73745680D01*
X95335680Y-74138663D01*
X95250000Y-74345513D01*
X95164320Y-74138663D01*
X94771337Y-73745680D01*
X94257881Y-73533000D01*
X93702119Y-73533000D01*
X93188663Y-73745680D01*
X92795680Y-74138663D01*
X92710000Y-74345513D01*
X92624320Y-74138663D01*
X92231337Y-73745680D01*
X91717881Y-73533000D01*
X91162119Y-73533000D01*
X90648663Y-73745680D01*
X90255680Y-74138663D01*
X90043000Y-74652119D01*
X90043000Y-75207881D01*
X90255680Y-75721337D01*
X90648663Y-76114320D01*
X91162119Y-76327000D01*
X91717881Y-76327000D01*
X92231337Y-76114320D01*
X92624320Y-75721337D01*
X92710000Y-75514487D01*
X92795680Y-75721337D01*
X93188663Y-76114320D01*
X93702119Y-76327000D01*
X94257881Y-76327000D01*
X94771337Y-76114320D01*
X95164320Y-75721337D01*
X95250000Y-75514487D01*
X95335680Y-75721337D01*
X95728663Y-76114320D01*
X96242119Y-76327000D01*
X96797881Y-76327000D01*
X97311337Y-76114320D01*
X97704320Y-75721337D01*
X97790000Y-75514487D01*
X97875680Y-75721337D01*
X98268663Y-76114320D01*
X98782119Y-76327000D01*
X99289567Y-76327000D01*
X99504500Y-76541933D01*
X99504500Y-79192181D01*
X99337483Y-79123000D01*
X98782517Y-79123000D01*
X98269796Y-79335376D01*
X97877376Y-79727796D01*
X97790000Y-79938740D01*
X97702624Y-79727796D01*
X97310204Y-79335376D01*
X96797483Y-79123000D01*
X96242517Y-79123000D01*
X95729796Y-79335376D01*
X95337376Y-79727796D01*
X95250000Y-79938740D01*
X95162624Y-79727796D01*
X94770204Y-79335376D01*
X94257483Y-79123000D01*
X93702517Y-79123000D01*
X93189796Y-79335376D01*
X92797376Y-79727796D01*
X92710000Y-79938740D01*
X92622624Y-79727796D01*
X92230204Y-79335376D01*
X91717483Y-79123000D01*
X91162517Y-79123000D01*
X90649796Y-79335376D01*
X90257376Y-79727796D01*
X90170000Y-79938740D01*
X90082624Y-79727796D01*
X89690204Y-79335376D01*
X89177483Y-79123000D01*
X88622517Y-79123000D01*
X88340000Y-79240022D01*
X88340000Y-67801544D01*
X88833167Y-68294711D01*
X89700567Y-68654000D01*
X90639433Y-68654000D01*
X91506833Y-68294711D01*
X92170711Y-67630833D01*
X92530000Y-66763433D01*
X92530000Y-65824567D01*
X100510000Y-65824567D01*
X100510000Y-66763433D01*
X100869289Y-67630833D01*
X101533167Y-68294711D01*
X102400567Y-68654000D01*
X103339433Y-68654000D01*
X104206833Y-68294711D01*
X104870711Y-67630833D01*
X105230000Y-66763433D01*
X105230000Y-65824567D01*
X106860000Y-65824567D01*
X106860000Y-66763433D01*
X107219289Y-67630833D01*
X107883167Y-68294711D01*
X108750567Y-68654000D01*
X109689433Y-68654000D01*
X110556833Y-68294711D01*
X111220711Y-67630833D01*
X111580000Y-66763433D01*
X111580000Y-65824567D01*
X119560000Y-65824567D01*
X119560000Y-66763433D01*
X119919289Y-67630833D01*
X120583167Y-68294711D01*
X121450567Y-68654000D01*
X122389433Y-68654000D01*
X123256833Y-68294711D01*
X123920711Y-67630833D01*
X124280000Y-66763433D01*
X124280000Y-65824567D01*
X123920711Y-64957167D01*
X123256833Y-64293289D01*
X122389433Y-63934000D01*
X121450567Y-63934000D01*
X120583167Y-64293289D01*
X119919289Y-64957167D01*
X119560000Y-65824567D01*
X111580000Y-65824567D01*
X111220711Y-64957167D01*
X110556833Y-64293289D01*
X109689433Y-63934000D01*
X108750567Y-63934000D01*
X107883167Y-64293289D01*
X107219289Y-64957167D01*
X106860000Y-65824567D01*
X105230000Y-65824567D01*
X104870711Y-64957167D01*
X104206833Y-64293289D01*
X103339433Y-63934000D01*
X102400567Y-63934000D01*
X101533167Y-64293289D01*
X100869289Y-64957167D01*
X100510000Y-65824567D01*
X92530000Y-65824567D01*
X92170711Y-64957167D01*
X91506833Y-64293289D01*
X90639433Y-63934000D01*
X89700567Y-63934000D01*
X88833167Y-64293289D01*
X88340000Y-64786456D01*
X88340000Y-63741081D01*
X88400090Y-63321491D01*
X88554381Y-62982148D01*
X88797712Y-62699748D01*
X89110523Y-62496994D01*
X89491184Y-62383152D01*
X89688350Y-62368500D01*
X146507419Y-62368500D01*
X146927009Y-62428590D01*
X146927009Y-62428590D01*
G37*
X146927009Y-62428590D02*
X147266352Y-62582881D01*
X147548752Y-62826212D01*
X147751506Y-63139023D01*
X147865348Y-63519684D01*
X147880000Y-63716850D01*
X147880001Y-105105412D01*
X147819910Y-105525009D01*
X147665619Y-105864352D01*
X147422288Y-106146752D01*
X147109479Y-106349506D01*
X146728815Y-106463348D01*
X146531649Y-106478000D01*
X130879925Y-106478000D01*
X130810000Y-106464091D01*
X130740074Y-106478000D01*
X130532972Y-106519195D01*
X130298119Y-106676119D01*
X130141195Y-106910972D01*
X130086091Y-107188000D01*
X130100000Y-107257926D01*
X130100001Y-127946069D01*
X130086091Y-128016000D01*
X130141195Y-128293028D01*
X130298119Y-128527881D01*
X130532972Y-128684805D01*
X130740074Y-128726000D01*
X130740075Y-128726000D01*
X130810000Y-128739909D01*
X130879926Y-128726000D01*
X146507419Y-128726000D01*
X146927009Y-128786090D01*
X147266352Y-128940381D01*
X147548752Y-129183712D01*
X147751506Y-129496523D01*
X147865348Y-129877184D01*
X147880001Y-130074363D01*
X147880000Y-137579760D01*
X147534241Y-137683164D01*
X147446769Y-137723582D01*
X147358806Y-137762929D01*
X147351502Y-137767601D01*
X147351498Y-137767603D01*
X147351499Y-137767603D01*
X146868040Y-138080966D01*
X146795447Y-138144293D01*
X146722045Y-138206763D01*
X146716343Y-138213300D01*
X146340266Y-138649759D01*
X146288347Y-138730942D01*
X146235446Y-138811475D01*
X146231808Y-138819350D01*
X145993347Y-139343817D01*
X145966300Y-139436309D01*
X145938129Y-139528452D01*
X145936847Y-139537031D01*
X145855171Y-140107346D01*
X145855171Y-140179766D01*
X145849362Y-140251963D01*
X145849952Y-140260618D01*
X145872272Y-140560966D01*
X145887826Y-140631711D01*
X145897654Y-140703455D01*
X145900088Y-140711781D01*
X146065164Y-141263758D01*
X146105591Y-141351250D01*
X146144930Y-141439194D01*
X146149603Y-141446501D01*
X146462966Y-141929961D01*
X146526328Y-142002594D01*
X146588763Y-142075955D01*
X146595296Y-142081654D01*
X146595300Y-142081658D01*
X146595305Y-142081661D01*
X147031759Y-142457734D01*
X147112942Y-142509653D01*
X147193475Y-142562554D01*
X147201346Y-142566190D01*
X147201349Y-142566192D01*
X147201352Y-142566193D01*
X147725817Y-142804653D01*
X147818309Y-142831700D01*
X147880001Y-142850561D01*
X147880000Y-150825418D01*
X147819910Y-151245009D01*
X147665619Y-151584352D01*
X147422288Y-151866752D01*
X147109479Y-152069506D01*
X146728815Y-152183348D01*
X146531649Y-152198000D01*
X89712581Y-152198000D01*
X89292991Y-152137910D01*
X88953648Y-151983619D01*
X88671248Y-151740288D01*
X88468494Y-151427479D01*
X88354652Y-151046815D01*
X88340000Y-150849649D01*
X88340000Y-142836239D01*
X88685758Y-142732836D01*
X88773250Y-142692409D01*
X88861194Y-142653070D01*
X88868498Y-142648399D01*
X88868502Y-142648397D01*
X89351961Y-142335034D01*
X89424594Y-142271672D01*
X89497955Y-142209237D01*
X89503654Y-142202704D01*
X89503658Y-142202700D01*
X89503661Y-142202695D01*
X89879734Y-141766241D01*
X89931653Y-141685058D01*
X89984554Y-141604525D01*
X89988192Y-141596650D01*
X90226653Y-141072183D01*
X90253700Y-140979691D01*
X90281871Y-140887548D01*
X90283153Y-140878969D01*
X90364829Y-140308653D01*
X90364829Y-140236233D01*
X90370638Y-140164036D01*
X90370048Y-140155382D01*
X90347728Y-139855033D01*
X90332174Y-139784288D01*
X90322346Y-139712544D01*
X90319912Y-139704219D01*
X90154836Y-139152241D01*
X90114418Y-139064769D01*
X90075071Y-138976806D01*
X90070397Y-138969499D01*
X89757034Y-138486040D01*
X89693707Y-138413447D01*
X89631237Y-138340045D01*
X89624700Y-138334343D01*
X89188241Y-137958266D01*
X89107058Y-137906347D01*
X89026525Y-137853446D01*
X89018654Y-137849810D01*
X89018651Y-137849808D01*
X89018648Y-137849807D01*
X88494183Y-137611347D01*
X88401691Y-137584300D01*
X88340000Y-137565439D01*
X88340000Y-127515978D01*
X88622517Y-127633000D01*
X89177483Y-127633000D01*
X89690204Y-127420624D01*
X90082624Y-127028204D01*
X90170000Y-126817260D01*
X90257376Y-127028204D01*
X90649796Y-127420624D01*
X91162517Y-127633000D01*
X91717483Y-127633000D01*
X92230204Y-127420624D01*
X92622624Y-127028204D01*
X92710000Y-126817260D01*
X92797376Y-127028204D01*
X93189796Y-127420624D01*
X93702517Y-127633000D01*
X94257483Y-127633000D01*
X94770204Y-127420624D01*
X95162624Y-127028204D01*
X95250000Y-126817260D01*
X95337376Y-127028204D01*
X95729796Y-127420624D01*
X96242517Y-127633000D01*
X96797483Y-127633000D01*
X97310204Y-127420624D01*
X97702624Y-127028204D01*
X97790000Y-126817260D01*
X97877376Y-127028204D01*
X98269796Y-127420624D01*
X98782517Y-127633000D01*
X99337483Y-127633000D01*
X99850204Y-127420624D01*
X100242624Y-127028204D01*
X100330000Y-126817260D01*
X100417376Y-127028204D01*
X100809796Y-127420624D01*
X101322517Y-127633000D01*
X101877483Y-127633000D01*
X102390204Y-127420624D01*
X102782624Y-127028204D01*
X102870000Y-126817260D01*
X102957376Y-127028204D01*
X103349796Y-127420624D01*
X103862517Y-127633000D01*
X104417483Y-127633000D01*
X104930204Y-127420624D01*
X105322624Y-127028204D01*
X105410000Y-126817260D01*
X105497376Y-127028204D01*
X105889796Y-127420624D01*
X106402517Y-127633000D01*
X106957483Y-127633000D01*
X107470204Y-127420624D01*
X107862624Y-127028204D01*
X107950000Y-126817260D01*
X108037376Y-127028204D01*
X108429796Y-127420624D01*
X108942517Y-127633000D01*
X109497483Y-127633000D01*
X110010204Y-127420624D01*
X110402624Y-127028204D01*
X110490000Y-126817260D01*
X110577376Y-127028204D01*
X110969796Y-127420624D01*
X111482517Y-127633000D01*
X112037483Y-127633000D01*
X112550204Y-127420624D01*
X112942624Y-127028204D01*
X113155000Y-126515483D01*
X113155000Y-125960517D01*
X112942624Y-125447796D01*
X112550204Y-125055376D01*
X112339260Y-124968000D01*
X112550204Y-124880624D01*
X112942624Y-124488204D01*
X113155000Y-123975483D01*
X113155000Y-123420517D01*
X112942624Y-122907796D01*
X112550204Y-122515376D01*
X112037483Y-122303000D01*
X111482517Y-122303000D01*
X110969796Y-122515376D01*
X110577376Y-122907796D01*
X110490000Y-123118740D01*
X110402624Y-122907796D01*
X110010204Y-122515376D01*
X109497483Y-122303000D01*
X108942517Y-122303000D01*
X108429796Y-122515376D01*
X108037376Y-122907796D01*
X107950000Y-123118740D01*
X107862624Y-122907796D01*
X107470204Y-122515376D01*
X106957483Y-122303000D01*
X106402517Y-122303000D01*
X105889796Y-122515376D01*
X105497376Y-122907796D01*
X105410000Y-123118740D01*
X105322624Y-122907796D01*
X104930204Y-122515376D01*
X104417483Y-122303000D01*
X103862517Y-122303000D01*
X103349796Y-122515376D01*
X102957376Y-122907796D01*
X102870000Y-123118740D01*
X102782624Y-122907796D01*
X102390204Y-122515376D01*
X101877483Y-122303000D01*
X101322517Y-122303000D01*
X100809796Y-122515376D01*
X100417376Y-122907796D01*
X100330000Y-123118740D01*
X100242624Y-122907796D01*
X99850204Y-122515376D01*
X99337483Y-122303000D01*
X98782517Y-122303000D01*
X98615500Y-122372181D01*
X98615500Y-121499932D01*
X98893933Y-121221500D01*
X106979699Y-121221500D01*
X107061000Y-121237672D01*
X107142301Y-121221500D01*
X107142303Y-121221500D01*
X107383094Y-121173604D01*
X107656152Y-120991152D01*
X107701690Y-120923000D01*
X107774874Y-120923000D01*
X108155280Y-120765431D01*
X108446431Y-120474280D01*
X108604000Y-120093874D01*
X108604000Y-119682126D01*
X108446431Y-119301720D01*
X108313072Y-119168361D01*
X108590433Y-118891000D01*
X108663874Y-118891000D01*
X109044280Y-118733431D01*
X109335431Y-118442280D01*
X109493000Y-118061874D01*
X109493000Y-117650126D01*
X109335431Y-117269720D01*
X109044280Y-116978569D01*
X108663874Y-116821000D01*
X108252126Y-116821000D01*
X107871720Y-116978569D01*
X107580569Y-117269720D01*
X107423000Y-117650126D01*
X107423000Y-117723567D01*
X107100068Y-118046500D01*
X96982303Y-118046500D01*
X96901000Y-118030328D01*
X96578905Y-118094396D01*
X96453642Y-118178095D01*
X96305848Y-118276848D01*
X96259793Y-118345774D01*
X95485776Y-119119792D01*
X95485773Y-119119794D01*
X94723775Y-119881793D01*
X94654849Y-119927848D01*
X94608794Y-119996774D01*
X94472397Y-120200906D01*
X94408328Y-120523000D01*
X94424501Y-120604306D01*
X94424501Y-122372181D01*
X94257483Y-122303000D01*
X93702517Y-122303000D01*
X93189796Y-122515376D01*
X92797376Y-122907796D01*
X92710000Y-123118740D01*
X92622624Y-122907796D01*
X92230204Y-122515376D01*
X91717483Y-122303000D01*
X91162517Y-122303000D01*
X90649796Y-122515376D01*
X90257376Y-122907796D01*
X90045000Y-123420517D01*
X90045000Y-123975483D01*
X90257376Y-124488204D01*
X90649796Y-124880624D01*
X90860740Y-124968000D01*
X90649796Y-125055376D01*
X90257376Y-125447796D01*
X90170000Y-125658740D01*
X90082624Y-125447796D01*
X89690204Y-125055376D01*
X89177483Y-124843000D01*
X88622517Y-124843000D01*
X88340000Y-124960022D01*
X88340000Y-107744126D01*
X96374000Y-107744126D01*
X96374000Y-108155874D01*
X96531569Y-108536280D01*
X96580289Y-108585000D01*
X96531569Y-108633720D01*
X96374000Y-109014126D01*
X96374000Y-109425874D01*
X96531569Y-109806280D01*
X96822720Y-110097431D01*
X97203126Y-110255000D01*
X97614874Y-110255000D01*
X97995280Y-110097431D01*
X98047211Y-110045500D01*
X114726699Y-110045500D01*
X114808000Y-110061672D01*
X114889301Y-110045500D01*
X114889303Y-110045500D01*
X115130094Y-109997604D01*
X115403152Y-109815152D01*
X115449209Y-109746223D01*
X117112226Y-108083207D01*
X117181152Y-108037152D01*
X117275435Y-107896048D01*
X117363604Y-107764095D01*
X117427672Y-107442000D01*
X117411500Y-107360697D01*
X117411500Y-100052119D01*
X119253000Y-100052119D01*
X119253000Y-100607881D01*
X119465680Y-101121337D01*
X119858663Y-101514320D01*
X120372119Y-101727000D01*
X120927881Y-101727000D01*
X121441337Y-101514320D01*
X121834320Y-101121337D01*
X121920000Y-100914487D01*
X122005680Y-101121337D01*
X122398663Y-101514320D01*
X122912119Y-101727000D01*
X123467881Y-101727000D01*
X123981337Y-101514320D01*
X124374320Y-101121337D01*
X124587000Y-100607881D01*
X124587000Y-100052119D01*
X124440508Y-99698453D01*
X126365000Y-99698453D01*
X126365000Y-100961547D01*
X126848365Y-102128493D01*
X127741507Y-103021635D01*
X128908453Y-103505000D01*
X130171547Y-103505000D01*
X131338493Y-103021635D01*
X132231635Y-102128493D01*
X132715000Y-100961547D01*
X132715000Y-99698453D01*
X132231635Y-98531507D01*
X131338493Y-97638365D01*
X130171547Y-97155000D01*
X128908453Y-97155000D01*
X127741507Y-97638365D01*
X126848365Y-98531507D01*
X126365000Y-99698453D01*
X124440508Y-99698453D01*
X124374320Y-99538663D01*
X123981337Y-99145680D01*
X123467881Y-98933000D01*
X122912119Y-98933000D01*
X122398663Y-99145680D01*
X122005680Y-99538663D01*
X121920000Y-99745513D01*
X121834320Y-99538663D01*
X121441337Y-99145680D01*
X120927881Y-98933000D01*
X120372119Y-98933000D01*
X119858663Y-99145680D01*
X119465680Y-99538663D01*
X119253000Y-100052119D01*
X117411500Y-100052119D01*
X117411500Y-91697453D01*
X126365000Y-91697453D01*
X126365000Y-92960547D01*
X126848365Y-94127493D01*
X127741507Y-95020635D01*
X128908453Y-95504000D01*
X130171547Y-95504000D01*
X131338493Y-95020635D01*
X132231635Y-94127493D01*
X132715000Y-92960547D01*
X132715000Y-91697453D01*
X132231635Y-90530507D01*
X131338493Y-89637365D01*
X130171547Y-89154000D01*
X128908453Y-89154000D01*
X127741507Y-89637365D01*
X126848365Y-90530507D01*
X126365000Y-91697453D01*
X117411500Y-91697453D01*
X117411500Y-78573932D01*
X117943933Y-78041500D01*
X119933699Y-78041500D01*
X120015000Y-78057672D01*
X120096301Y-78041500D01*
X120096303Y-78041500D01*
X120337094Y-77993604D01*
X120610152Y-77811152D01*
X120656209Y-77742223D01*
X121176226Y-77222207D01*
X121245152Y-77176152D01*
X121427604Y-76903094D01*
X121475500Y-76662303D01*
X121475500Y-76662302D01*
X121491672Y-76581000D01*
X121475500Y-76499697D01*
X121475500Y-76080157D01*
X121834320Y-75721337D01*
X122047000Y-75207881D01*
X122047000Y-74652119D01*
X121834320Y-74138663D01*
X121441337Y-73745680D01*
X120927881Y-73533000D01*
X120372119Y-73533000D01*
X119858663Y-73745680D01*
X119465680Y-74138663D01*
X119380000Y-74345513D01*
X119294320Y-74138663D01*
X118901337Y-73745680D01*
X118387881Y-73533000D01*
X117832119Y-73533000D01*
X117318663Y-73745680D01*
X116925680Y-74138663D01*
X116840000Y-74345513D01*
X116754320Y-74138663D01*
X116361337Y-73745680D01*
X115847881Y-73533000D01*
X115292119Y-73533000D01*
X114778663Y-73745680D01*
X114385680Y-74138663D01*
X114300000Y-74345513D01*
X114214320Y-74138663D01*
X113821337Y-73745680D01*
X113307881Y-73533000D01*
X112752119Y-73533000D01*
X112238663Y-73745680D01*
X111845680Y-74138663D01*
X111760000Y-74345513D01*
X111674320Y-74138663D01*
X111281337Y-73745680D01*
X110767881Y-73533000D01*
X110212119Y-73533000D01*
X109698663Y-73745680D01*
X109305680Y-74138663D01*
X109093000Y-74652119D01*
X109093000Y-75207881D01*
X109305680Y-75721337D01*
X109698663Y-76114320D01*
X110212119Y-76327000D01*
X110767881Y-76327000D01*
X111281337Y-76114320D01*
X111674320Y-75721337D01*
X111760000Y-75514487D01*
X111845680Y-75721337D01*
X112238663Y-76114320D01*
X112752119Y-76327000D01*
X113307881Y-76327000D01*
X113821337Y-76114320D01*
X114214320Y-75721337D01*
X114300000Y-75514487D01*
X114385680Y-75721337D01*
X114778663Y-76114320D01*
X115292119Y-76327000D01*
X115545568Y-76327000D01*
X115424777Y-76447791D01*
X115355848Y-76493848D01*
X115173396Y-76766907D01*
X115146307Y-76903094D01*
X115109328Y-77089000D01*
X115125500Y-77170302D01*
X115125501Y-106592066D01*
X114593068Y-107124500D01*
X98047211Y-107124500D01*
X97995280Y-107072569D01*
X97614874Y-106915000D01*
X97203126Y-106915000D01*
X96822720Y-107072569D01*
X96531569Y-107363720D01*
X96374000Y-107744126D01*
X88340000Y-107744126D01*
X88340000Y-101394126D01*
X91929000Y-101394126D01*
X91929000Y-101805874D01*
X92086569Y-102186280D01*
X92138500Y-102238211D01*
X92138501Y-103501788D01*
X92086569Y-103553720D01*
X91929000Y-103934126D01*
X91929000Y-104345874D01*
X92086569Y-104726280D01*
X92377720Y-105017431D01*
X92758126Y-105175000D01*
X93169874Y-105175000D01*
X93550280Y-105017431D01*
X93841431Y-104726280D01*
X93999000Y-104345874D01*
X93999000Y-103934126D01*
X93841431Y-103553720D01*
X93789500Y-103501789D01*
X93789500Y-102238211D01*
X93841431Y-102186280D01*
X93999000Y-101805874D01*
X93999000Y-101394126D01*
X93841431Y-101013720D01*
X93550280Y-100722569D01*
X93169874Y-100565000D01*
X92758126Y-100565000D01*
X92377720Y-100722569D01*
X92086569Y-101013720D01*
X91929000Y-101394126D01*
X88340000Y-101394126D01*
X88340000Y-84335978D01*
X88622517Y-84453000D01*
X89177483Y-84453000D01*
X89690204Y-84240624D01*
X90082624Y-83848204D01*
X90170000Y-83637260D01*
X90257376Y-83848204D01*
X90649796Y-84240624D01*
X91162517Y-84453000D01*
X91717483Y-84453000D01*
X92230204Y-84240624D01*
X92622624Y-83848204D01*
X92710000Y-83637260D01*
X92797376Y-83848204D01*
X93189796Y-84240624D01*
X93702517Y-84453000D01*
X94257483Y-84453000D01*
X94770204Y-84240624D01*
X95162624Y-83848204D01*
X95250000Y-83637260D01*
X95337376Y-83848204D01*
X95729796Y-84240624D01*
X96242517Y-84453000D01*
X96797483Y-84453000D01*
X97310204Y-84240624D01*
X97702624Y-83848204D01*
X97790000Y-83637260D01*
X97877376Y-83848204D01*
X98269796Y-84240624D01*
X98782517Y-84453000D01*
X99337483Y-84453000D01*
X99502306Y-84384728D01*
X99488328Y-84455000D01*
X99527135Y-84650094D01*
X99552397Y-84777094D01*
X99734849Y-85050152D01*
X99803775Y-85096207D01*
X100196793Y-85489225D01*
X100242848Y-85558152D01*
X100515906Y-85740604D01*
X100756697Y-85788500D01*
X100756701Y-85788500D01*
X100837999Y-85804671D01*
X100919297Y-85788500D01*
X105873500Y-85788500D01*
X105873499Y-101925972D01*
X105712720Y-101992569D01*
X105421569Y-102283720D01*
X105264000Y-102664126D01*
X105264000Y-103075874D01*
X105421569Y-103456280D01*
X105470289Y-103505000D01*
X105421569Y-103553720D01*
X105264000Y-103934126D01*
X105264000Y-104345874D01*
X105421569Y-104726280D01*
X105712720Y-105017431D01*
X106093126Y-105175000D01*
X106504874Y-105175000D01*
X106885280Y-105017431D01*
X107176431Y-104726280D01*
X107334000Y-104345874D01*
X107334000Y-104272432D01*
X107806235Y-103800198D01*
X107875161Y-103754143D01*
X108057613Y-103481085D01*
X108105509Y-103240294D01*
X108105509Y-103240290D01*
X108121680Y-103158992D01*
X108105509Y-103077694D01*
X108105509Y-84882312D01*
X108121681Y-84801009D01*
X108057613Y-84478914D01*
X107983400Y-84367848D01*
X107875161Y-84205857D01*
X107806232Y-84159800D01*
X107678630Y-84032198D01*
X107862624Y-83848204D01*
X107950000Y-83637260D01*
X108037376Y-83848204D01*
X108429796Y-84240624D01*
X108942517Y-84453000D01*
X109497483Y-84453000D01*
X110010204Y-84240624D01*
X110402624Y-83848204D01*
X110490000Y-83637260D01*
X110577376Y-83848204D01*
X110969796Y-84240624D01*
X111482517Y-84453000D01*
X112037483Y-84453000D01*
X112550204Y-84240624D01*
X112942624Y-83848204D01*
X113155000Y-83335483D01*
X113155000Y-82780517D01*
X112942624Y-82267796D01*
X112550204Y-81875376D01*
X112339260Y-81788000D01*
X112550204Y-81700624D01*
X112942624Y-81308204D01*
X113155000Y-80795483D01*
X113155000Y-80240517D01*
X112942624Y-79727796D01*
X112550204Y-79335376D01*
X112037483Y-79123000D01*
X111482517Y-79123000D01*
X110969796Y-79335376D01*
X110577376Y-79727796D01*
X110490000Y-79938740D01*
X110402624Y-79727796D01*
X110010204Y-79335376D01*
X109497483Y-79123000D01*
X108942517Y-79123000D01*
X108429796Y-79335376D01*
X108037376Y-79727796D01*
X107950000Y-79938740D01*
X107862624Y-79727796D01*
X107470204Y-79335376D01*
X106957483Y-79123000D01*
X106402517Y-79123000D01*
X105889796Y-79335376D01*
X105497376Y-79727796D01*
X105410000Y-79938740D01*
X105322624Y-79727796D01*
X104930204Y-79335376D01*
X104417483Y-79123000D01*
X103862517Y-79123000D01*
X103695500Y-79192181D01*
X103695500Y-76281297D01*
X103711671Y-76199999D01*
X103695500Y-76118701D01*
X103695500Y-76118697D01*
X103647604Y-75877906D01*
X103465152Y-75604848D01*
X103396226Y-75558793D01*
X102997000Y-75159567D01*
X102997000Y-74652119D01*
X102784320Y-74138663D01*
X102391337Y-73745680D01*
X101877881Y-73533000D01*
X101322119Y-73533000D01*
X100808663Y-73745680D01*
X100415680Y-74138663D01*
X100330000Y-74345513D01*
X100244320Y-74138663D01*
X99851337Y-73745680D01*
X99337881Y-73533000D01*
X98782119Y-73533000D01*
X98268663Y-73745680D01*
X97875680Y-74138663D01*
X97790000Y-74345513D01*
X97704320Y-74138663D01*
X97311337Y-73745680D01*
X96797881Y-73533000D01*
X96242119Y-73533000D01*
X95728663Y-73745680D01*
X95335680Y-74138663D01*
X95250000Y-74345513D01*
X95164320Y-74138663D01*
X94771337Y-73745680D01*
X94257881Y-73533000D01*
X93702119Y-73533000D01*
X93188663Y-73745680D01*
X92795680Y-74138663D01*
X92710000Y-74345513D01*
X92624320Y-74138663D01*
X92231337Y-73745680D01*
X91717881Y-73533000D01*
X91162119Y-73533000D01*
X90648663Y-73745680D01*
X90255680Y-74138663D01*
X90043000Y-74652119D01*
X90043000Y-75207881D01*
X90255680Y-75721337D01*
X90648663Y-76114320D01*
X91162119Y-76327000D01*
X91717881Y-76327000D01*
X92231337Y-76114320D01*
X92624320Y-75721337D01*
X92710000Y-75514487D01*
X92795680Y-75721337D01*
X93188663Y-76114320D01*
X93702119Y-76327000D01*
X94257881Y-76327000D01*
X94771337Y-76114320D01*
X95164320Y-75721337D01*
X95250000Y-75514487D01*
X95335680Y-75721337D01*
X95728663Y-76114320D01*
X96242119Y-76327000D01*
X96797881Y-76327000D01*
X97311337Y-76114320D01*
X97704320Y-75721337D01*
X97790000Y-75514487D01*
X97875680Y-75721337D01*
X98268663Y-76114320D01*
X98782119Y-76327000D01*
X99289567Y-76327000D01*
X99504500Y-76541933D01*
X99504500Y-79192181D01*
X99337483Y-79123000D01*
X98782517Y-79123000D01*
X98269796Y-79335376D01*
X97877376Y-79727796D01*
X97790000Y-79938740D01*
X97702624Y-79727796D01*
X97310204Y-79335376D01*
X96797483Y-79123000D01*
X96242517Y-79123000D01*
X95729796Y-79335376D01*
X95337376Y-79727796D01*
X95250000Y-79938740D01*
X95162624Y-79727796D01*
X94770204Y-79335376D01*
X94257483Y-79123000D01*
X93702517Y-79123000D01*
X93189796Y-79335376D01*
X92797376Y-79727796D01*
X92710000Y-79938740D01*
X92622624Y-79727796D01*
X92230204Y-79335376D01*
X91717483Y-79123000D01*
X91162517Y-79123000D01*
X90649796Y-79335376D01*
X90257376Y-79727796D01*
X90170000Y-79938740D01*
X90082624Y-79727796D01*
X89690204Y-79335376D01*
X89177483Y-79123000D01*
X88622517Y-79123000D01*
X88340000Y-79240022D01*
X88340000Y-67801544D01*
X88833167Y-68294711D01*
X89700567Y-68654000D01*
X90639433Y-68654000D01*
X91506833Y-68294711D01*
X92170711Y-67630833D01*
X92530000Y-66763433D01*
X92530000Y-65824567D01*
X100510000Y-65824567D01*
X100510000Y-66763433D01*
X100869289Y-67630833D01*
X101533167Y-68294711D01*
X102400567Y-68654000D01*
X103339433Y-68654000D01*
X104206833Y-68294711D01*
X104870711Y-67630833D01*
X105230000Y-66763433D01*
X105230000Y-65824567D01*
X106860000Y-65824567D01*
X106860000Y-66763433D01*
X107219289Y-67630833D01*
X107883167Y-68294711D01*
X108750567Y-68654000D01*
X109689433Y-68654000D01*
X110556833Y-68294711D01*
X111220711Y-67630833D01*
X111580000Y-66763433D01*
X111580000Y-65824567D01*
X119560000Y-65824567D01*
X119560000Y-66763433D01*
X119919289Y-67630833D01*
X120583167Y-68294711D01*
X121450567Y-68654000D01*
X122389433Y-68654000D01*
X123256833Y-68294711D01*
X123920711Y-67630833D01*
X124280000Y-66763433D01*
X124280000Y-65824567D01*
X123920711Y-64957167D01*
X123256833Y-64293289D01*
X122389433Y-63934000D01*
X121450567Y-63934000D01*
X120583167Y-64293289D01*
X119919289Y-64957167D01*
X119560000Y-65824567D01*
X111580000Y-65824567D01*
X111220711Y-64957167D01*
X110556833Y-64293289D01*
X109689433Y-63934000D01*
X108750567Y-63934000D01*
X107883167Y-64293289D01*
X107219289Y-64957167D01*
X106860000Y-65824567D01*
X105230000Y-65824567D01*
X104870711Y-64957167D01*
X104206833Y-64293289D01*
X103339433Y-63934000D01*
X102400567Y-63934000D01*
X101533167Y-64293289D01*
X100869289Y-64957167D01*
X100510000Y-65824567D01*
X92530000Y-65824567D01*
X92170711Y-64957167D01*
X91506833Y-64293289D01*
X90639433Y-63934000D01*
X89700567Y-63934000D01*
X88833167Y-64293289D01*
X88340000Y-64786456D01*
X88340000Y-63741081D01*
X88400090Y-63321491D01*
X88554381Y-62982148D01*
X88797712Y-62699748D01*
X89110523Y-62496994D01*
X89491184Y-62383152D01*
X89688350Y-62368500D01*
X146507419Y-62368500D01*
X146927009Y-62428590D01*
G04 #@! TD*
M02*
