G04 #@! TF.GenerationSoftware,KiCad,Pcbnew,(5.0.0)*
G04 #@! TF.CreationDate,2018-09-29T14:20:13-05:00*
G04 #@! TF.ProjectId,DriveBoard_Hardware,4472697665426F6172645F4861726477,rev?*
G04 #@! TF.SameCoordinates,Original*
G04 #@! TF.FileFunction,Paste,Top*
G04 #@! TF.FilePolarity,Positive*
%FSLAX46Y46*%
G04 Gerber Fmt 4.6, Leading zero omitted, Abs format (unit mm)*
G04 Created by KiCad (PCBNEW (5.0.0)) date 09/29/18 14:20:13*
%MOMM*%
%LPD*%
G01*
G04 APERTURE LIST*
%ADD10C,5.080000*%
%ADD11C,1.520000*%
%ADD12R,1.500000X0.600000*%
G04 APERTURE END LIST*
D10*
G04 #@! TO.C,Conn1*
X148361400Y-53087000D03*
X148361400Y-45086000D03*
G04 #@! TD*
D11*
G04 #@! TO.C,U1*
X118389001Y-111505001D03*
X141249001Y-65785001D03*
X138709001Y-65785001D03*
X131089001Y-65785001D03*
X128549001Y-108965001D03*
X133629001Y-65785001D03*
X136169001Y-65785001D03*
X133629001Y-111505001D03*
X138709001Y-108965001D03*
X128549001Y-65785001D03*
X126009001Y-65785001D03*
X138709001Y-111505001D03*
X133629001Y-108965001D03*
X131089001Y-108965001D03*
X118389001Y-108965001D03*
X120929001Y-108965001D03*
X123469001Y-108965001D03*
X126009001Y-108965001D03*
X136169001Y-108965001D03*
X141249001Y-108965001D03*
X120929001Y-111505001D03*
X123469001Y-111505001D03*
X126009001Y-111505001D03*
X128549001Y-111505001D03*
X131089001Y-111505001D03*
X136169001Y-111505001D03*
X141249001Y-111505001D03*
X118389001Y-68325001D03*
X120929001Y-68325001D03*
X123469001Y-68325001D03*
X126009001Y-68325001D03*
X128549001Y-68325001D03*
X131089001Y-68325001D03*
X133629001Y-68325001D03*
X136169001Y-68325001D03*
X138709001Y-68325001D03*
X141249001Y-68325001D03*
X118389001Y-65785001D03*
X120929001Y-65785001D03*
X123469001Y-65785001D03*
G04 #@! TD*
D12*
G04 #@! TO.C,U2*
X144620000Y-78105000D03*
X144620000Y-79375000D03*
X144620000Y-80645000D03*
X144620000Y-81915000D03*
X144620000Y-83185000D03*
X144620000Y-84455000D03*
X144620000Y-85725000D03*
X144620000Y-86995000D03*
X150020000Y-86995000D03*
X150020000Y-85725000D03*
X150020000Y-84455000D03*
X150020000Y-83185000D03*
X150020000Y-81915000D03*
X150020000Y-80645000D03*
X150020000Y-79375000D03*
X150020000Y-78105000D03*
G04 #@! TD*
M02*
