M48
;DRILL file {KiCad (5.0.0)} date 09/29/18 16:36:19
;FORMAT={-:-/ absolute / inch / decimal}
FMAT,2
INCH,TZ
T1C0.0157
T2C0.0300
T3C0.0350
T4C0.0394
T5C0.1598
%
G90
G05
M72
T1
X4.874Y-3.454
X4.885Y-3.575
X5.05Y-3.775
X5.05Y-3.93
X5.145Y-3.98
X5.175Y-4.165
X5.345Y-4.155
X5.4656Y-3.3844
X5.55Y-3.6
X5.694Y-3.65
T2
X6.2Y-2.7
X6.2Y-2.8
X6.2Y-2.9
X6.2Y-3.
X6.2Y-3.1
X6.2Y-3.4
X6.2Y-3.5
X6.2Y-3.6
X6.2Y-3.7
X6.2Y-3.8
T3
X6.174Y-2.136
X6.174Y-2.236
X6.174Y-2.336
T4
X4.461Y-2.94
X4.461Y-3.04
X4.461Y-4.64
X4.461Y-4.74
X4.561Y-2.94
X4.561Y-3.04
X4.561Y-4.64
X4.561Y-4.74
X4.661Y-2.94
X4.661Y-3.04
X4.661Y-4.64
X4.661Y-4.74
X4.761Y-2.94
X4.761Y-3.04
X4.761Y-4.64
X4.761Y-4.74
X4.861Y-2.94
X4.861Y-3.04
X4.861Y-4.64
X4.861Y-4.74
X4.961Y-2.94
X4.961Y-3.04
X4.961Y-4.64
X4.961Y-4.74
X5.061Y-2.94
X5.061Y-3.04
X5.061Y-4.64
X5.061Y-4.74
X5.161Y-2.94
X5.161Y-3.04
X5.161Y-4.64
X5.161Y-4.74
X5.261Y-2.94
X5.261Y-3.04
X5.261Y-4.64
X5.261Y-4.74
X5.361Y-2.94
X5.361Y-3.04
X5.361Y-4.64
X5.361Y-4.74
T5
X5.641Y-2.075
X5.641Y-2.39
T0
M30
