M48
;DRILL file {KiCad (5.0.0)} date 09/29/18 16:31:56
;FORMAT={-:-/ absolute / inch / decimal}
FMAT,2
INCH,TZ
T1C0.0157
T2C0.0300
T3C0.0350
T4C0.0394
T5C0.1598
%
G90
G05
M72
T1
X2.75Y-4.1
X2.91Y-4.1
X3.38Y-4.95
X3.48Y-4.05
X3.54Y-4.95
X3.55Y-3.2
X3.55Y-4.15
X3.6Y-3.15
X3.6Y-4.2
X4.54Y-3.6
X4.75Y-3.6
T2
X4.35Y-3.05
X4.45Y-3.05
X4.55Y-3.05
X4.65Y-3.05
X4.75Y-3.05
X2.65Y-3.05
X2.75Y-3.05
X2.85Y-3.05
X2.95Y-3.05
X3.05Y-3.05
T3
X3.782Y-4.5889
X3.882Y-4.5889
X3.982Y-4.5889
T4
X2.561Y-3.39
X2.561Y-3.49
X2.561Y-5.09
X2.561Y-5.19
X2.661Y-3.39
X2.661Y-3.49
X2.661Y-5.09
X2.661Y-5.19
X2.761Y-3.39
X2.761Y-3.49
X2.761Y-5.09
X2.761Y-5.19
X2.861Y-3.39
X2.861Y-3.49
X2.861Y-5.09
X2.861Y-5.19
X2.961Y-3.39
X2.961Y-3.49
X2.961Y-5.09
X2.961Y-5.19
X3.061Y-3.39
X3.061Y-3.49
X3.061Y-5.09
X3.061Y-5.19
X3.161Y-3.39
X3.161Y-3.49
X3.161Y-5.09
X3.161Y-5.19
X3.261Y-3.39
X3.261Y-3.49
X3.261Y-5.09
X3.261Y-5.19
X3.361Y-3.39
X3.361Y-3.49
X3.361Y-5.09
X3.361Y-5.19
X3.461Y-3.39
X3.461Y-3.49
X3.461Y-5.09
X3.461Y-5.19
T5
X4.159Y-3.91
X4.159Y-4.225
T0
M30
