G04 #@! TF.GenerationSoftware,KiCad,Pcbnew,(5.0.0)*
G04 #@! TF.CreationDate,2018-10-03T21:44:39-05:00*
G04 #@! TF.ProjectId,DriveBoard_Hardware,4472697665426F6172645F4861726477,rev?*
G04 #@! TF.SameCoordinates,Original*
G04 #@! TF.FileFunction,Copper,L1,Top,Signal*
G04 #@! TF.FilePolarity,Positive*
%FSLAX46Y46*%
G04 Gerber Fmt 4.6, Leading zero omitted, Abs format (unit mm)*
G04 Created by KiCad (PCBNEW (5.0.0)) date 10/03/18 21:44:39*
%MOMM*%
%LPD*%
G01*
G04 APERTURE LIST*
G04 #@! TA.AperFunction,ComponentPad*
%ADD10C,1.520000*%
G04 #@! TD*
G04 #@! TA.AperFunction,Conductor*
%ADD11C,0.100000*%
G04 #@! TD*
G04 #@! TA.AperFunction,SMDPad,CuDef*
%ADD12C,0.950000*%
G04 #@! TD*
G04 #@! TA.AperFunction,ComponentPad*
%ADD13C,5.080000*%
G04 #@! TD*
G04 #@! TA.AperFunction,ComponentPad*
%ADD14C,1.524000*%
G04 #@! TD*
G04 #@! TA.AperFunction,SMDPad,CuDef*
%ADD15R,1.500000X0.600000*%
G04 #@! TD*
G04 #@! TA.AperFunction,ViaPad*
%ADD16C,0.800000*%
G04 #@! TD*
G04 #@! TA.AperFunction,Conductor*
%ADD17C,0.381000*%
G04 #@! TD*
G04 #@! TA.AperFunction,Conductor*
%ADD18C,0.762000*%
G04 #@! TD*
G04 #@! TA.AperFunction,Conductor*
%ADD19C,0.254000*%
G04 #@! TD*
G04 APERTURE END LIST*
D10*
G04 #@! TO.P,U1,+3V3*
G04 #@! TO.N,Net-(U1-Pad+3V3)*
X114935000Y-124460000D03*
G04 #@! TO.P,U1,PM6*
G04 #@! TO.N,Net-(U1-PadPM6)*
X137795000Y-78740000D03*
G04 #@! TO.P,U1,PQ1*
G04 #@! TO.N,Net-(U1-PadPQ1)*
X135255000Y-78740000D03*
G04 #@! TO.P,U1,PQ2*
G04 #@! TO.N,Net-(U1-PadPQ2)*
X127635000Y-78740000D03*
G04 #@! TO.P,U1,PK0*
G04 #@! TO.N,RX_2_IC*
X125095000Y-121920000D03*
G04 #@! TO.P,U1,PQ3*
G04 #@! TO.N,Net-(U1-PadPQ3)*
X130175000Y-78740000D03*
G04 #@! TO.P,U1,PP3*
G04 #@! TO.N,Net-(U1-PadPP3)*
X132715000Y-78740000D03*
G04 #@! TO.P,U1,PQ0*
G04 #@! TO.N,Net-(U1-PadPQ0)*
X130175000Y-124460000D03*
G04 #@! TO.P,U1,PA4*
G04 #@! TO.N,Net-(U1-PadPA4)*
X135255000Y-121920000D03*
G04 #@! TO.P,U1,Rese*
G04 #@! TO.N,Net-(U1-PadRese)*
X125095000Y-78740000D03*
G04 #@! TO.P,U1,PA7*
G04 #@! TO.N,Net-(U1-PadPA7)*
X122555000Y-78740000D03*
G04 #@! TO.P,U1,PN5*
G04 #@! TO.N,Net-(U1-PadPN5)*
X135255000Y-124460000D03*
G04 #@! TO.P,U1,PK2*
G04 #@! TO.N,Net-(U1-PadPK2)*
X130175000Y-121920000D03*
G04 #@! TO.P,U1,PK1*
G04 #@! TO.N,TX_2_IC*
X127635000Y-121920000D03*
G04 #@! TO.P,U1,+5V*
G04 #@! TO.N,+5V*
X114935000Y-121920000D03*
G04 #@! TO.P,U1,GND*
G04 #@! TO.N,GND*
X117475000Y-121920000D03*
G04 #@! TO.P,U1,PB4*
G04 #@! TO.N,Net-(U1-PadPB4)*
X120015000Y-121920000D03*
G04 #@! TO.P,U1,PB5*
G04 #@! TO.N,Net-(U1-PadPB5)*
X122555000Y-121920000D03*
G04 #@! TO.P,U1,PK3*
G04 #@! TO.N,Net-(U1-PadPK3)*
X132715000Y-121920000D03*
G04 #@! TO.P,U1,PA5*
G04 #@! TO.N,Net-(U1-PadPA5)*
X137795000Y-121920000D03*
G04 #@! TO.P,U1,PD2*
G04 #@! TO.N,Net-(U1-PadPD2)*
X117475000Y-124460000D03*
G04 #@! TO.P,U1,PP0*
G04 #@! TO.N,RX_1_IC*
X120015000Y-124460000D03*
G04 #@! TO.P,U1,PP1*
G04 #@! TO.N,TX_1_IC*
X122555000Y-124460000D03*
G04 #@! TO.P,U1,PD4*
G04 #@! TO.N,Net-(U1-PadPD4)*
X125095000Y-124460000D03*
G04 #@! TO.P,U1,PD5*
G04 #@! TO.N,Net-(U1-PadPD5)*
X127635000Y-124460000D03*
G04 #@! TO.P,U1,PP4*
G04 #@! TO.N,Net-(U1-PadPP4)*
X132715000Y-124460000D03*
G04 #@! TO.P,U1,PN4*
G04 #@! TO.N,Net-(U1-PadPN4)*
X137795000Y-124460000D03*
G04 #@! TO.P,U1,PG1*
G04 #@! TO.N,Net-(U1-PadPG1)*
X114935000Y-81280000D03*
G04 #@! TO.P,U1,PK4*
G04 #@! TO.N,Net-(U1-PadPK4)*
X117475000Y-81280000D03*
G04 #@! TO.P,U1,PK5*
G04 #@! TO.N,Net-(U1-PadPK5)*
X120015000Y-81280000D03*
G04 #@! TO.P,U1,PM0*
G04 #@! TO.N,Net-(U1-PadPM0)*
X122555000Y-81280000D03*
G04 #@! TO.P,U1,PM1*
G04 #@! TO.N,Net-(U1-PadPM1)*
X125095000Y-81280000D03*
G04 #@! TO.P,U1,PM2*
G04 #@! TO.N,Net-(U1-PadPM2)*
X127635000Y-81280000D03*
G04 #@! TO.P,U1,PH0*
G04 #@! TO.N,Net-(U1-PadPH0)*
X130175000Y-81280000D03*
G04 #@! TO.P,U1,PH1*
G04 #@! TO.N,Net-(U1-PadPH1)*
X132715000Y-81280000D03*
G04 #@! TO.P,U1,PK6*
G04 #@! TO.N,Net-(U1-PadPK6)*
X135255000Y-81280000D03*
G04 #@! TO.P,U1,PK7*
G04 #@! TO.N,Net-(U1-PadPK7)*
X137795000Y-81280000D03*
G04 #@! TO.P,U1,GND*
G04 #@! TO.N,GND*
X114935000Y-78740000D03*
G04 #@! TO.P,U1,PM7*
G04 #@! TO.N,Net-(U1-PadPM7)*
X117475000Y-78740000D03*
G04 #@! TO.P,U1,PP5*
G04 #@! TO.N,Net-(U1-PadPP5)*
X120015000Y-78740000D03*
G04 #@! TD*
D11*
G04 #@! TO.N,Net-(C1-Pad1)*
G04 #@! TO.C,C1*
G36*
X119513779Y-102600144D02*
X119536834Y-102603563D01*
X119559443Y-102609227D01*
X119581387Y-102617079D01*
X119602457Y-102627044D01*
X119622448Y-102639026D01*
X119641168Y-102652910D01*
X119658438Y-102668562D01*
X119674090Y-102685832D01*
X119687974Y-102704552D01*
X119699956Y-102724543D01*
X119709921Y-102745613D01*
X119717773Y-102767557D01*
X119723437Y-102790166D01*
X119726856Y-102813221D01*
X119728000Y-102836500D01*
X119728000Y-103411500D01*
X119726856Y-103434779D01*
X119723437Y-103457834D01*
X119717773Y-103480443D01*
X119709921Y-103502387D01*
X119699956Y-103523457D01*
X119687974Y-103543448D01*
X119674090Y-103562168D01*
X119658438Y-103579438D01*
X119641168Y-103595090D01*
X119622448Y-103608974D01*
X119602457Y-103620956D01*
X119581387Y-103630921D01*
X119559443Y-103638773D01*
X119536834Y-103644437D01*
X119513779Y-103647856D01*
X119490500Y-103649000D01*
X119015500Y-103649000D01*
X118992221Y-103647856D01*
X118969166Y-103644437D01*
X118946557Y-103638773D01*
X118924613Y-103630921D01*
X118903543Y-103620956D01*
X118883552Y-103608974D01*
X118864832Y-103595090D01*
X118847562Y-103579438D01*
X118831910Y-103562168D01*
X118818026Y-103543448D01*
X118806044Y-103523457D01*
X118796079Y-103502387D01*
X118788227Y-103480443D01*
X118782563Y-103457834D01*
X118779144Y-103434779D01*
X118778000Y-103411500D01*
X118778000Y-102836500D01*
X118779144Y-102813221D01*
X118782563Y-102790166D01*
X118788227Y-102767557D01*
X118796079Y-102745613D01*
X118806044Y-102724543D01*
X118818026Y-102704552D01*
X118831910Y-102685832D01*
X118847562Y-102668562D01*
X118864832Y-102652910D01*
X118883552Y-102639026D01*
X118903543Y-102627044D01*
X118924613Y-102617079D01*
X118946557Y-102609227D01*
X118969166Y-102603563D01*
X118992221Y-102600144D01*
X119015500Y-102599000D01*
X119490500Y-102599000D01*
X119513779Y-102600144D01*
X119513779Y-102600144D01*
G37*
D12*
G04 #@! TD*
G04 #@! TO.P,C1,1*
G04 #@! TO.N,Net-(C1-Pad1)*
X119253000Y-103124000D03*
D11*
G04 #@! TO.N,GND*
G04 #@! TO.C,C1*
G36*
X119513779Y-104350144D02*
X119536834Y-104353563D01*
X119559443Y-104359227D01*
X119581387Y-104367079D01*
X119602457Y-104377044D01*
X119622448Y-104389026D01*
X119641168Y-104402910D01*
X119658438Y-104418562D01*
X119674090Y-104435832D01*
X119687974Y-104454552D01*
X119699956Y-104474543D01*
X119709921Y-104495613D01*
X119717773Y-104517557D01*
X119723437Y-104540166D01*
X119726856Y-104563221D01*
X119728000Y-104586500D01*
X119728000Y-105161500D01*
X119726856Y-105184779D01*
X119723437Y-105207834D01*
X119717773Y-105230443D01*
X119709921Y-105252387D01*
X119699956Y-105273457D01*
X119687974Y-105293448D01*
X119674090Y-105312168D01*
X119658438Y-105329438D01*
X119641168Y-105345090D01*
X119622448Y-105358974D01*
X119602457Y-105370956D01*
X119581387Y-105380921D01*
X119559443Y-105388773D01*
X119536834Y-105394437D01*
X119513779Y-105397856D01*
X119490500Y-105399000D01*
X119015500Y-105399000D01*
X118992221Y-105397856D01*
X118969166Y-105394437D01*
X118946557Y-105388773D01*
X118924613Y-105380921D01*
X118903543Y-105370956D01*
X118883552Y-105358974D01*
X118864832Y-105345090D01*
X118847562Y-105329438D01*
X118831910Y-105312168D01*
X118818026Y-105293448D01*
X118806044Y-105273457D01*
X118796079Y-105252387D01*
X118788227Y-105230443D01*
X118782563Y-105207834D01*
X118779144Y-105184779D01*
X118778000Y-105161500D01*
X118778000Y-104586500D01*
X118779144Y-104563221D01*
X118782563Y-104540166D01*
X118788227Y-104517557D01*
X118796079Y-104495613D01*
X118806044Y-104474543D01*
X118818026Y-104454552D01*
X118831910Y-104435832D01*
X118847562Y-104418562D01*
X118864832Y-104402910D01*
X118883552Y-104389026D01*
X118903543Y-104377044D01*
X118924613Y-104367079D01*
X118946557Y-104359227D01*
X118969166Y-104353563D01*
X118992221Y-104350144D01*
X119015500Y-104349000D01*
X119490500Y-104349000D01*
X119513779Y-104350144D01*
X119513779Y-104350144D01*
G37*
D12*
G04 #@! TD*
G04 #@! TO.P,C1,2*
G04 #@! TO.N,GND*
X119253000Y-104874000D03*
D11*
G04 #@! TO.N,GND*
G04 #@! TO.C,C2*
G36*
X119513779Y-115159144D02*
X119536834Y-115162563D01*
X119559443Y-115168227D01*
X119581387Y-115176079D01*
X119602457Y-115186044D01*
X119622448Y-115198026D01*
X119641168Y-115211910D01*
X119658438Y-115227562D01*
X119674090Y-115244832D01*
X119687974Y-115263552D01*
X119699956Y-115283543D01*
X119709921Y-115304613D01*
X119717773Y-115326557D01*
X119723437Y-115349166D01*
X119726856Y-115372221D01*
X119728000Y-115395500D01*
X119728000Y-115970500D01*
X119726856Y-115993779D01*
X119723437Y-116016834D01*
X119717773Y-116039443D01*
X119709921Y-116061387D01*
X119699956Y-116082457D01*
X119687974Y-116102448D01*
X119674090Y-116121168D01*
X119658438Y-116138438D01*
X119641168Y-116154090D01*
X119622448Y-116167974D01*
X119602457Y-116179956D01*
X119581387Y-116189921D01*
X119559443Y-116197773D01*
X119536834Y-116203437D01*
X119513779Y-116206856D01*
X119490500Y-116208000D01*
X119015500Y-116208000D01*
X118992221Y-116206856D01*
X118969166Y-116203437D01*
X118946557Y-116197773D01*
X118924613Y-116189921D01*
X118903543Y-116179956D01*
X118883552Y-116167974D01*
X118864832Y-116154090D01*
X118847562Y-116138438D01*
X118831910Y-116121168D01*
X118818026Y-116102448D01*
X118806044Y-116082457D01*
X118796079Y-116061387D01*
X118788227Y-116039443D01*
X118782563Y-116016834D01*
X118779144Y-115993779D01*
X118778000Y-115970500D01*
X118778000Y-115395500D01*
X118779144Y-115372221D01*
X118782563Y-115349166D01*
X118788227Y-115326557D01*
X118796079Y-115304613D01*
X118806044Y-115283543D01*
X118818026Y-115263552D01*
X118831910Y-115244832D01*
X118847562Y-115227562D01*
X118864832Y-115211910D01*
X118883552Y-115198026D01*
X118903543Y-115186044D01*
X118924613Y-115176079D01*
X118946557Y-115168227D01*
X118969166Y-115162563D01*
X118992221Y-115159144D01*
X119015500Y-115158000D01*
X119490500Y-115158000D01*
X119513779Y-115159144D01*
X119513779Y-115159144D01*
G37*
D12*
G04 #@! TD*
G04 #@! TO.P,C2,2*
G04 #@! TO.N,GND*
X119253000Y-115683000D03*
D11*
G04 #@! TO.N,Net-(C2-Pad1)*
G04 #@! TO.C,C2*
G36*
X119513779Y-113409144D02*
X119536834Y-113412563D01*
X119559443Y-113418227D01*
X119581387Y-113426079D01*
X119602457Y-113436044D01*
X119622448Y-113448026D01*
X119641168Y-113461910D01*
X119658438Y-113477562D01*
X119674090Y-113494832D01*
X119687974Y-113513552D01*
X119699956Y-113533543D01*
X119709921Y-113554613D01*
X119717773Y-113576557D01*
X119723437Y-113599166D01*
X119726856Y-113622221D01*
X119728000Y-113645500D01*
X119728000Y-114220500D01*
X119726856Y-114243779D01*
X119723437Y-114266834D01*
X119717773Y-114289443D01*
X119709921Y-114311387D01*
X119699956Y-114332457D01*
X119687974Y-114352448D01*
X119674090Y-114371168D01*
X119658438Y-114388438D01*
X119641168Y-114404090D01*
X119622448Y-114417974D01*
X119602457Y-114429956D01*
X119581387Y-114439921D01*
X119559443Y-114447773D01*
X119536834Y-114453437D01*
X119513779Y-114456856D01*
X119490500Y-114458000D01*
X119015500Y-114458000D01*
X118992221Y-114456856D01*
X118969166Y-114453437D01*
X118946557Y-114447773D01*
X118924613Y-114439921D01*
X118903543Y-114429956D01*
X118883552Y-114417974D01*
X118864832Y-114404090D01*
X118847562Y-114388438D01*
X118831910Y-114371168D01*
X118818026Y-114352448D01*
X118806044Y-114332457D01*
X118796079Y-114311387D01*
X118788227Y-114289443D01*
X118782563Y-114266834D01*
X118779144Y-114243779D01*
X118778000Y-114220500D01*
X118778000Y-113645500D01*
X118779144Y-113622221D01*
X118782563Y-113599166D01*
X118788227Y-113576557D01*
X118796079Y-113554613D01*
X118806044Y-113533543D01*
X118818026Y-113513552D01*
X118831910Y-113494832D01*
X118847562Y-113477562D01*
X118864832Y-113461910D01*
X118883552Y-113448026D01*
X118903543Y-113436044D01*
X118924613Y-113426079D01*
X118946557Y-113418227D01*
X118969166Y-113412563D01*
X118992221Y-113409144D01*
X119015500Y-113408000D01*
X119490500Y-113408000D01*
X119513779Y-113409144D01*
X119513779Y-113409144D01*
G37*
D12*
G04 #@! TD*
G04 #@! TO.P,C2,1*
G04 #@! TO.N,Net-(C2-Pad1)*
X119253000Y-113933000D03*
D11*
G04 #@! TO.N,/+12V*
G04 #@! TO.C,C3*
G36*
X144822779Y-105952144D02*
X144845834Y-105955563D01*
X144868443Y-105961227D01*
X144890387Y-105969079D01*
X144911457Y-105979044D01*
X144931448Y-105991026D01*
X144950168Y-106004910D01*
X144967438Y-106020562D01*
X144983090Y-106037832D01*
X144996974Y-106056552D01*
X145008956Y-106076543D01*
X145018921Y-106097613D01*
X145026773Y-106119557D01*
X145032437Y-106142166D01*
X145035856Y-106165221D01*
X145037000Y-106188500D01*
X145037000Y-106663500D01*
X145035856Y-106686779D01*
X145032437Y-106709834D01*
X145026773Y-106732443D01*
X145018921Y-106754387D01*
X145008956Y-106775457D01*
X144996974Y-106795448D01*
X144983090Y-106814168D01*
X144967438Y-106831438D01*
X144950168Y-106847090D01*
X144931448Y-106860974D01*
X144911457Y-106872956D01*
X144890387Y-106882921D01*
X144868443Y-106890773D01*
X144845834Y-106896437D01*
X144822779Y-106899856D01*
X144799500Y-106901000D01*
X144224500Y-106901000D01*
X144201221Y-106899856D01*
X144178166Y-106896437D01*
X144155557Y-106890773D01*
X144133613Y-106882921D01*
X144112543Y-106872956D01*
X144092552Y-106860974D01*
X144073832Y-106847090D01*
X144056562Y-106831438D01*
X144040910Y-106814168D01*
X144027026Y-106795448D01*
X144015044Y-106775457D01*
X144005079Y-106754387D01*
X143997227Y-106732443D01*
X143991563Y-106709834D01*
X143988144Y-106686779D01*
X143987000Y-106663500D01*
X143987000Y-106188500D01*
X143988144Y-106165221D01*
X143991563Y-106142166D01*
X143997227Y-106119557D01*
X144005079Y-106097613D01*
X144015044Y-106076543D01*
X144027026Y-106056552D01*
X144040910Y-106037832D01*
X144056562Y-106020562D01*
X144073832Y-106004910D01*
X144092552Y-105991026D01*
X144112543Y-105979044D01*
X144133613Y-105969079D01*
X144155557Y-105961227D01*
X144178166Y-105955563D01*
X144201221Y-105952144D01*
X144224500Y-105951000D01*
X144799500Y-105951000D01*
X144822779Y-105952144D01*
X144822779Y-105952144D01*
G37*
D12*
G04 #@! TD*
G04 #@! TO.P,C3,1*
G04 #@! TO.N,/+12V*
X144512000Y-106426000D03*
D11*
G04 #@! TO.N,GND*
G04 #@! TO.C,C3*
G36*
X143072779Y-105952144D02*
X143095834Y-105955563D01*
X143118443Y-105961227D01*
X143140387Y-105969079D01*
X143161457Y-105979044D01*
X143181448Y-105991026D01*
X143200168Y-106004910D01*
X143217438Y-106020562D01*
X143233090Y-106037832D01*
X143246974Y-106056552D01*
X143258956Y-106076543D01*
X143268921Y-106097613D01*
X143276773Y-106119557D01*
X143282437Y-106142166D01*
X143285856Y-106165221D01*
X143287000Y-106188500D01*
X143287000Y-106663500D01*
X143285856Y-106686779D01*
X143282437Y-106709834D01*
X143276773Y-106732443D01*
X143268921Y-106754387D01*
X143258956Y-106775457D01*
X143246974Y-106795448D01*
X143233090Y-106814168D01*
X143217438Y-106831438D01*
X143200168Y-106847090D01*
X143181448Y-106860974D01*
X143161457Y-106872956D01*
X143140387Y-106882921D01*
X143118443Y-106890773D01*
X143095834Y-106896437D01*
X143072779Y-106899856D01*
X143049500Y-106901000D01*
X142474500Y-106901000D01*
X142451221Y-106899856D01*
X142428166Y-106896437D01*
X142405557Y-106890773D01*
X142383613Y-106882921D01*
X142362543Y-106872956D01*
X142342552Y-106860974D01*
X142323832Y-106847090D01*
X142306562Y-106831438D01*
X142290910Y-106814168D01*
X142277026Y-106795448D01*
X142265044Y-106775457D01*
X142255079Y-106754387D01*
X142247227Y-106732443D01*
X142241563Y-106709834D01*
X142238144Y-106686779D01*
X142237000Y-106663500D01*
X142237000Y-106188500D01*
X142238144Y-106165221D01*
X142241563Y-106142166D01*
X142247227Y-106119557D01*
X142255079Y-106097613D01*
X142265044Y-106076543D01*
X142277026Y-106056552D01*
X142290910Y-106037832D01*
X142306562Y-106020562D01*
X142323832Y-106004910D01*
X142342552Y-105991026D01*
X142362543Y-105979044D01*
X142383613Y-105969079D01*
X142405557Y-105961227D01*
X142428166Y-105955563D01*
X142451221Y-105952144D01*
X142474500Y-105951000D01*
X143049500Y-105951000D01*
X143072779Y-105952144D01*
X143072779Y-105952144D01*
G37*
D12*
G04 #@! TD*
G04 #@! TO.P,C3,2*
G04 #@! TO.N,GND*
X142762000Y-106426000D03*
D11*
G04 #@! TO.N,Net-(C4-Pad1)*
G04 #@! TO.C,C4*
G36*
X119513779Y-97915144D02*
X119536834Y-97918563D01*
X119559443Y-97924227D01*
X119581387Y-97932079D01*
X119602457Y-97942044D01*
X119622448Y-97954026D01*
X119641168Y-97967910D01*
X119658438Y-97983562D01*
X119674090Y-98000832D01*
X119687974Y-98019552D01*
X119699956Y-98039543D01*
X119709921Y-98060613D01*
X119717773Y-98082557D01*
X119723437Y-98105166D01*
X119726856Y-98128221D01*
X119728000Y-98151500D01*
X119728000Y-98726500D01*
X119726856Y-98749779D01*
X119723437Y-98772834D01*
X119717773Y-98795443D01*
X119709921Y-98817387D01*
X119699956Y-98838457D01*
X119687974Y-98858448D01*
X119674090Y-98877168D01*
X119658438Y-98894438D01*
X119641168Y-98910090D01*
X119622448Y-98923974D01*
X119602457Y-98935956D01*
X119581387Y-98945921D01*
X119559443Y-98953773D01*
X119536834Y-98959437D01*
X119513779Y-98962856D01*
X119490500Y-98964000D01*
X119015500Y-98964000D01*
X118992221Y-98962856D01*
X118969166Y-98959437D01*
X118946557Y-98953773D01*
X118924613Y-98945921D01*
X118903543Y-98935956D01*
X118883552Y-98923974D01*
X118864832Y-98910090D01*
X118847562Y-98894438D01*
X118831910Y-98877168D01*
X118818026Y-98858448D01*
X118806044Y-98838457D01*
X118796079Y-98817387D01*
X118788227Y-98795443D01*
X118782563Y-98772834D01*
X118779144Y-98749779D01*
X118778000Y-98726500D01*
X118778000Y-98151500D01*
X118779144Y-98128221D01*
X118782563Y-98105166D01*
X118788227Y-98082557D01*
X118796079Y-98060613D01*
X118806044Y-98039543D01*
X118818026Y-98019552D01*
X118831910Y-98000832D01*
X118847562Y-97983562D01*
X118864832Y-97967910D01*
X118883552Y-97954026D01*
X118903543Y-97942044D01*
X118924613Y-97932079D01*
X118946557Y-97924227D01*
X118969166Y-97918563D01*
X118992221Y-97915144D01*
X119015500Y-97914000D01*
X119490500Y-97914000D01*
X119513779Y-97915144D01*
X119513779Y-97915144D01*
G37*
D12*
G04 #@! TD*
G04 #@! TO.P,C4,1*
G04 #@! TO.N,Net-(C4-Pad1)*
X119253000Y-98439000D03*
D11*
G04 #@! TO.N,Net-(C4-Pad2)*
G04 #@! TO.C,C4*
G36*
X119513779Y-99665144D02*
X119536834Y-99668563D01*
X119559443Y-99674227D01*
X119581387Y-99682079D01*
X119602457Y-99692044D01*
X119622448Y-99704026D01*
X119641168Y-99717910D01*
X119658438Y-99733562D01*
X119674090Y-99750832D01*
X119687974Y-99769552D01*
X119699956Y-99789543D01*
X119709921Y-99810613D01*
X119717773Y-99832557D01*
X119723437Y-99855166D01*
X119726856Y-99878221D01*
X119728000Y-99901500D01*
X119728000Y-100476500D01*
X119726856Y-100499779D01*
X119723437Y-100522834D01*
X119717773Y-100545443D01*
X119709921Y-100567387D01*
X119699956Y-100588457D01*
X119687974Y-100608448D01*
X119674090Y-100627168D01*
X119658438Y-100644438D01*
X119641168Y-100660090D01*
X119622448Y-100673974D01*
X119602457Y-100685956D01*
X119581387Y-100695921D01*
X119559443Y-100703773D01*
X119536834Y-100709437D01*
X119513779Y-100712856D01*
X119490500Y-100714000D01*
X119015500Y-100714000D01*
X118992221Y-100712856D01*
X118969166Y-100709437D01*
X118946557Y-100703773D01*
X118924613Y-100695921D01*
X118903543Y-100685956D01*
X118883552Y-100673974D01*
X118864832Y-100660090D01*
X118847562Y-100644438D01*
X118831910Y-100627168D01*
X118818026Y-100608448D01*
X118806044Y-100588457D01*
X118796079Y-100567387D01*
X118788227Y-100545443D01*
X118782563Y-100522834D01*
X118779144Y-100499779D01*
X118778000Y-100476500D01*
X118778000Y-99901500D01*
X118779144Y-99878221D01*
X118782563Y-99855166D01*
X118788227Y-99832557D01*
X118796079Y-99810613D01*
X118806044Y-99789543D01*
X118818026Y-99769552D01*
X118831910Y-99750832D01*
X118847562Y-99733562D01*
X118864832Y-99717910D01*
X118883552Y-99704026D01*
X118903543Y-99692044D01*
X118924613Y-99682079D01*
X118946557Y-99674227D01*
X118969166Y-99668563D01*
X118992221Y-99665144D01*
X119015500Y-99664000D01*
X119490500Y-99664000D01*
X119513779Y-99665144D01*
X119513779Y-99665144D01*
G37*
D12*
G04 #@! TD*
G04 #@! TO.P,C4,2*
G04 #@! TO.N,Net-(C4-Pad2)*
X119253000Y-100189000D03*
D11*
G04 #@! TO.N,Net-(C5-Pad2)*
G04 #@! TO.C,C5*
G36*
X119513779Y-109571144D02*
X119536834Y-109574563D01*
X119559443Y-109580227D01*
X119581387Y-109588079D01*
X119602457Y-109598044D01*
X119622448Y-109610026D01*
X119641168Y-109623910D01*
X119658438Y-109639562D01*
X119674090Y-109656832D01*
X119687974Y-109675552D01*
X119699956Y-109695543D01*
X119709921Y-109716613D01*
X119717773Y-109738557D01*
X119723437Y-109761166D01*
X119726856Y-109784221D01*
X119728000Y-109807500D01*
X119728000Y-110382500D01*
X119726856Y-110405779D01*
X119723437Y-110428834D01*
X119717773Y-110451443D01*
X119709921Y-110473387D01*
X119699956Y-110494457D01*
X119687974Y-110514448D01*
X119674090Y-110533168D01*
X119658438Y-110550438D01*
X119641168Y-110566090D01*
X119622448Y-110579974D01*
X119602457Y-110591956D01*
X119581387Y-110601921D01*
X119559443Y-110609773D01*
X119536834Y-110615437D01*
X119513779Y-110618856D01*
X119490500Y-110620000D01*
X119015500Y-110620000D01*
X118992221Y-110618856D01*
X118969166Y-110615437D01*
X118946557Y-110609773D01*
X118924613Y-110601921D01*
X118903543Y-110591956D01*
X118883552Y-110579974D01*
X118864832Y-110566090D01*
X118847562Y-110550438D01*
X118831910Y-110533168D01*
X118818026Y-110514448D01*
X118806044Y-110494457D01*
X118796079Y-110473387D01*
X118788227Y-110451443D01*
X118782563Y-110428834D01*
X118779144Y-110405779D01*
X118778000Y-110382500D01*
X118778000Y-109807500D01*
X118779144Y-109784221D01*
X118782563Y-109761166D01*
X118788227Y-109738557D01*
X118796079Y-109716613D01*
X118806044Y-109695543D01*
X118818026Y-109675552D01*
X118831910Y-109656832D01*
X118847562Y-109639562D01*
X118864832Y-109623910D01*
X118883552Y-109610026D01*
X118903543Y-109598044D01*
X118924613Y-109588079D01*
X118946557Y-109580227D01*
X118969166Y-109574563D01*
X118992221Y-109571144D01*
X119015500Y-109570000D01*
X119490500Y-109570000D01*
X119513779Y-109571144D01*
X119513779Y-109571144D01*
G37*
D12*
G04 #@! TD*
G04 #@! TO.P,C5,2*
G04 #@! TO.N,Net-(C5-Pad2)*
X119253000Y-110095000D03*
D11*
G04 #@! TO.N,Net-(C5-Pad1)*
G04 #@! TO.C,C5*
G36*
X119513779Y-107821144D02*
X119536834Y-107824563D01*
X119559443Y-107830227D01*
X119581387Y-107838079D01*
X119602457Y-107848044D01*
X119622448Y-107860026D01*
X119641168Y-107873910D01*
X119658438Y-107889562D01*
X119674090Y-107906832D01*
X119687974Y-107925552D01*
X119699956Y-107945543D01*
X119709921Y-107966613D01*
X119717773Y-107988557D01*
X119723437Y-108011166D01*
X119726856Y-108034221D01*
X119728000Y-108057500D01*
X119728000Y-108632500D01*
X119726856Y-108655779D01*
X119723437Y-108678834D01*
X119717773Y-108701443D01*
X119709921Y-108723387D01*
X119699956Y-108744457D01*
X119687974Y-108764448D01*
X119674090Y-108783168D01*
X119658438Y-108800438D01*
X119641168Y-108816090D01*
X119622448Y-108829974D01*
X119602457Y-108841956D01*
X119581387Y-108851921D01*
X119559443Y-108859773D01*
X119536834Y-108865437D01*
X119513779Y-108868856D01*
X119490500Y-108870000D01*
X119015500Y-108870000D01*
X118992221Y-108868856D01*
X118969166Y-108865437D01*
X118946557Y-108859773D01*
X118924613Y-108851921D01*
X118903543Y-108841956D01*
X118883552Y-108829974D01*
X118864832Y-108816090D01*
X118847562Y-108800438D01*
X118831910Y-108783168D01*
X118818026Y-108764448D01*
X118806044Y-108744457D01*
X118796079Y-108723387D01*
X118788227Y-108701443D01*
X118782563Y-108678834D01*
X118779144Y-108655779D01*
X118778000Y-108632500D01*
X118778000Y-108057500D01*
X118779144Y-108034221D01*
X118782563Y-108011166D01*
X118788227Y-107988557D01*
X118796079Y-107966613D01*
X118806044Y-107945543D01*
X118818026Y-107925552D01*
X118831910Y-107906832D01*
X118847562Y-107889562D01*
X118864832Y-107873910D01*
X118883552Y-107860026D01*
X118903543Y-107848044D01*
X118924613Y-107838079D01*
X118946557Y-107830227D01*
X118969166Y-107824563D01*
X118992221Y-107821144D01*
X119015500Y-107820000D01*
X119490500Y-107820000D01*
X119513779Y-107821144D01*
X119513779Y-107821144D01*
G37*
D12*
G04 #@! TD*
G04 #@! TO.P,C5,1*
G04 #@! TO.N,Net-(C5-Pad1)*
X119253000Y-108345000D03*
D11*
G04 #@! TO.N,GND*
G04 #@! TO.C,C6*
G36*
X143135779Y-100300144D02*
X143158834Y-100303563D01*
X143181443Y-100309227D01*
X143203387Y-100317079D01*
X143224457Y-100327044D01*
X143244448Y-100339026D01*
X143263168Y-100352910D01*
X143280438Y-100368562D01*
X143296090Y-100385832D01*
X143309974Y-100404552D01*
X143321956Y-100424543D01*
X143331921Y-100445613D01*
X143339773Y-100467557D01*
X143345437Y-100490166D01*
X143348856Y-100513221D01*
X143350000Y-100536500D01*
X143350000Y-101111500D01*
X143348856Y-101134779D01*
X143345437Y-101157834D01*
X143339773Y-101180443D01*
X143331921Y-101202387D01*
X143321956Y-101223457D01*
X143309974Y-101243448D01*
X143296090Y-101262168D01*
X143280438Y-101279438D01*
X143263168Y-101295090D01*
X143244448Y-101308974D01*
X143224457Y-101320956D01*
X143203387Y-101330921D01*
X143181443Y-101338773D01*
X143158834Y-101344437D01*
X143135779Y-101347856D01*
X143112500Y-101349000D01*
X142637500Y-101349000D01*
X142614221Y-101347856D01*
X142591166Y-101344437D01*
X142568557Y-101338773D01*
X142546613Y-101330921D01*
X142525543Y-101320956D01*
X142505552Y-101308974D01*
X142486832Y-101295090D01*
X142469562Y-101279438D01*
X142453910Y-101262168D01*
X142440026Y-101243448D01*
X142428044Y-101223457D01*
X142418079Y-101202387D01*
X142410227Y-101180443D01*
X142404563Y-101157834D01*
X142401144Y-101134779D01*
X142400000Y-101111500D01*
X142400000Y-100536500D01*
X142401144Y-100513221D01*
X142404563Y-100490166D01*
X142410227Y-100467557D01*
X142418079Y-100445613D01*
X142428044Y-100424543D01*
X142440026Y-100404552D01*
X142453910Y-100385832D01*
X142469562Y-100368562D01*
X142486832Y-100352910D01*
X142505552Y-100339026D01*
X142525543Y-100327044D01*
X142546613Y-100317079D01*
X142568557Y-100309227D01*
X142591166Y-100303563D01*
X142614221Y-100300144D01*
X142637500Y-100299000D01*
X143112500Y-100299000D01*
X143135779Y-100300144D01*
X143135779Y-100300144D01*
G37*
D12*
G04 #@! TD*
G04 #@! TO.P,C6,2*
G04 #@! TO.N,GND*
X142875000Y-100824000D03*
D11*
G04 #@! TO.N,+5V*
G04 #@! TO.C,C6*
G36*
X143135779Y-98550144D02*
X143158834Y-98553563D01*
X143181443Y-98559227D01*
X143203387Y-98567079D01*
X143224457Y-98577044D01*
X143244448Y-98589026D01*
X143263168Y-98602910D01*
X143280438Y-98618562D01*
X143296090Y-98635832D01*
X143309974Y-98654552D01*
X143321956Y-98674543D01*
X143331921Y-98695613D01*
X143339773Y-98717557D01*
X143345437Y-98740166D01*
X143348856Y-98763221D01*
X143350000Y-98786500D01*
X143350000Y-99361500D01*
X143348856Y-99384779D01*
X143345437Y-99407834D01*
X143339773Y-99430443D01*
X143331921Y-99452387D01*
X143321956Y-99473457D01*
X143309974Y-99493448D01*
X143296090Y-99512168D01*
X143280438Y-99529438D01*
X143263168Y-99545090D01*
X143244448Y-99558974D01*
X143224457Y-99570956D01*
X143203387Y-99580921D01*
X143181443Y-99588773D01*
X143158834Y-99594437D01*
X143135779Y-99597856D01*
X143112500Y-99599000D01*
X142637500Y-99599000D01*
X142614221Y-99597856D01*
X142591166Y-99594437D01*
X142568557Y-99588773D01*
X142546613Y-99580921D01*
X142525543Y-99570956D01*
X142505552Y-99558974D01*
X142486832Y-99545090D01*
X142469562Y-99529438D01*
X142453910Y-99512168D01*
X142440026Y-99493448D01*
X142428044Y-99473457D01*
X142418079Y-99452387D01*
X142410227Y-99430443D01*
X142404563Y-99407834D01*
X142401144Y-99384779D01*
X142400000Y-99361500D01*
X142400000Y-98786500D01*
X142401144Y-98763221D01*
X142404563Y-98740166D01*
X142410227Y-98717557D01*
X142418079Y-98695613D01*
X142428044Y-98674543D01*
X142440026Y-98654552D01*
X142453910Y-98635832D01*
X142469562Y-98618562D01*
X142486832Y-98602910D01*
X142505552Y-98589026D01*
X142525543Y-98577044D01*
X142546613Y-98567079D01*
X142568557Y-98559227D01*
X142591166Y-98553563D01*
X142614221Y-98550144D01*
X142637500Y-98549000D01*
X143112500Y-98549000D01*
X143135779Y-98550144D01*
X143135779Y-98550144D01*
G37*
D12*
G04 #@! TD*
G04 #@! TO.P,C6,1*
G04 #@! TO.N,+5V*
X142875000Y-99074000D03*
D13*
G04 #@! TO.P,Conn1,1*
G04 #@! TO.N,GND*
X162686000Y-69367400D03*
G04 #@! TO.P,Conn1,2*
G04 #@! TO.N,/+12V*
X170687000Y-69367400D03*
G04 #@! TD*
D14*
G04 #@! TO.P,Conn2,1*
G04 #@! TO.N,Net-(Conn2-Pad1)*
X136525000Y-62992000D03*
G04 #@! TO.P,Conn2,2*
G04 #@! TO.N,Net-(Conn2-Pad2)*
X139065000Y-62992000D03*
G04 #@! TO.P,Conn2,3*
G04 #@! TO.N,GND*
X141605000Y-62992000D03*
G04 #@! TO.P,Conn2,4*
G04 #@! TO.N,TX_1_SL*
X144145000Y-62992000D03*
G04 #@! TO.P,Conn2,5*
G04 #@! TO.N,RX_1_SL*
X146685000Y-62992000D03*
G04 #@! TD*
G04 #@! TO.P,Conn3,5*
G04 #@! TO.N,RX_2_SL*
X127127000Y-62992000D03*
G04 #@! TO.P,Conn3,4*
G04 #@! TO.N,TX_2_SL*
X124587000Y-62992000D03*
G04 #@! TO.P,Conn3,3*
G04 #@! TO.N,GND*
X122047000Y-62992000D03*
G04 #@! TO.P,Conn3,2*
G04 #@! TO.N,Net-(Conn3-Pad2)*
X119507000Y-62992000D03*
G04 #@! TO.P,Conn3,1*
G04 #@! TO.N,Net-(Conn3-Pad1)*
X116967000Y-62992000D03*
G04 #@! TD*
D15*
G04 #@! TO.P,U2,1*
G04 #@! TO.N,Net-(C4-Pad1)*
X128077000Y-99060000D03*
G04 #@! TO.P,U2,2*
G04 #@! TO.N,Net-(C1-Pad1)*
X128077000Y-100330000D03*
G04 #@! TO.P,U2,3*
G04 #@! TO.N,Net-(C4-Pad2)*
X128077000Y-101600000D03*
G04 #@! TO.P,U2,4*
G04 #@! TO.N,Net-(C5-Pad1)*
X128077000Y-102870000D03*
G04 #@! TO.P,U2,5*
G04 #@! TO.N,Net-(C5-Pad2)*
X128077000Y-104140000D03*
G04 #@! TO.P,U2,6*
G04 #@! TO.N,Net-(C2-Pad1)*
X128077000Y-105410000D03*
G04 #@! TO.P,U2,7*
G04 #@! TO.N,TX_2_SL*
X128077000Y-106680000D03*
G04 #@! TO.P,U2,8*
G04 #@! TO.N,RX_2_SL*
X128077000Y-107950000D03*
G04 #@! TO.P,U2,9*
G04 #@! TO.N,RX_2_IC*
X133477000Y-107950000D03*
G04 #@! TO.P,U2,10*
G04 #@! TO.N,TX_2_IC*
X133477000Y-106680000D03*
G04 #@! TO.P,U2,11*
G04 #@! TO.N,TX_1_IC*
X133477000Y-105410000D03*
G04 #@! TO.P,U2,12*
G04 #@! TO.N,RX_1_IC*
X133477000Y-104140000D03*
G04 #@! TO.P,U2,13*
G04 #@! TO.N,RX_1_SL*
X133477000Y-102870000D03*
G04 #@! TO.P,U2,14*
G04 #@! TO.N,TX_1_SL*
X133477000Y-101600000D03*
G04 #@! TO.P,U2,15*
G04 #@! TO.N,GND*
X133477000Y-100330000D03*
G04 #@! TO.P,U2,16*
G04 #@! TO.N,+5V*
X133477000Y-99060000D03*
G04 #@! TD*
D14*
G04 #@! TO.P,U3,1*
G04 #@! TO.N,/+12V*
X160401000Y-87630000D03*
G04 #@! TO.P,U3,2*
G04 #@! TO.N,GND*
X162941000Y-87630000D03*
G04 #@! TO.P,U3,3*
G04 #@! TO.N,+5V*
X165481000Y-87630000D03*
G04 #@! TD*
D16*
G04 #@! TO.N,Net-(C1-Pad1)*
X125984000Y-100330000D03*
X123755685Y-103124000D03*
G04 #@! TO.N,/+12V*
X140843000Y-89535000D03*
X144512000Y-103632000D03*
G04 #@! TO.N,+5V*
X139065000Y-99060000D03*
G04 #@! TO.N,TX_1_SL*
X136906000Y-101600000D03*
G04 #@! TO.N,RX_1_SL*
X138049000Y-102743000D03*
G04 #@! TO.N,RX_2_SL*
X121793000Y-112141000D03*
G04 #@! TO.N,TX_2_SL*
X123698000Y-110617000D03*
X120777000Y-73025000D03*
G04 #@! TO.N,TX_1_IC*
X131064000Y-120269000D03*
G04 #@! TD*
D17*
G04 #@! TO.N,Net-(C1-Pad1)*
X128077000Y-100330000D02*
X126946000Y-100330000D01*
X126946000Y-100330000D02*
X125984000Y-100330000D01*
X123755685Y-103124000D02*
X119253000Y-103124000D01*
D18*
G04 #@! TO.N,GND*
X142762000Y-100937000D02*
X142875000Y-100824000D01*
X142875000Y-100824000D02*
X142875000Y-100824000D01*
D17*
X142875000Y-106313000D02*
X142762000Y-106426000D01*
X118678000Y-104874000D02*
X118387490Y-105164510D01*
X119253000Y-104874000D02*
X118678000Y-104874000D01*
X142762000Y-106539000D02*
X142762000Y-106426000D01*
G04 #@! TO.N,Net-(C2-Pad1)*
X119253000Y-113308000D02*
X119253000Y-113933000D01*
X126946000Y-105410000D02*
X119253000Y-113103000D01*
X119253000Y-113103000D02*
X119253000Y-113308000D01*
X128077000Y-105410000D02*
X126946000Y-105410000D01*
G04 #@! TO.N,/+12V*
X160401000Y-79653400D02*
X170687000Y-69367400D01*
X160401000Y-87630000D02*
X160401000Y-79653400D01*
X160401000Y-87630000D02*
X148463000Y-87630000D01*
X148463000Y-87630000D02*
X146558000Y-89535000D01*
X146558000Y-89535000D02*
X140843000Y-89535000D01*
X144512000Y-106426000D02*
X144512000Y-103632000D01*
X144512000Y-103632000D02*
X144512000Y-103519000D01*
G04 #@! TO.N,Net-(C4-Pad1)*
X119874000Y-99060000D02*
X119253000Y-98439000D01*
X128077000Y-99060000D02*
X119874000Y-99060000D01*
G04 #@! TO.N,Net-(C4-Pad2)*
X120664000Y-101600000D02*
X119253000Y-100189000D01*
X128077000Y-101600000D02*
X120664000Y-101600000D01*
G04 #@! TO.N,Net-(C5-Pad2)*
X119253000Y-110095000D02*
X120664000Y-110095000D01*
X126619000Y-104140000D02*
X128077000Y-104140000D01*
X120664000Y-110095000D02*
X126619000Y-104140000D01*
G04 #@! TO.N,Net-(C5-Pad1)*
X121471000Y-108345000D02*
X119253000Y-108345000D01*
X128077000Y-102870000D02*
X126946000Y-102870000D01*
X126946000Y-102870000D02*
X121471000Y-108345000D01*
G04 #@! TO.N,+5V*
X142861000Y-99060000D02*
X142875000Y-99074000D01*
X133477000Y-99060000D02*
X139065000Y-99060000D01*
X139065000Y-99060000D02*
X142861000Y-99060000D01*
X142875000Y-99074000D02*
X143450000Y-99074000D01*
X147941000Y-99074000D02*
X142875000Y-99074000D01*
X148336000Y-98679000D02*
X147941000Y-99074000D01*
X148336000Y-89662000D02*
X148336000Y-98679000D01*
X165481000Y-87630000D02*
X163449000Y-89662000D01*
X163449000Y-89662000D02*
X148336000Y-89662000D01*
G04 #@! TO.N,TX_1_SL*
X133477000Y-101600000D02*
X136906000Y-101600000D01*
G04 #@! TO.N,RX_1_SL*
X133477000Y-102870000D02*
X137922000Y-102870000D01*
X137922000Y-102870000D02*
X138049000Y-102743000D01*
G04 #@! TO.N,RX_2_SL*
X122358685Y-112141000D02*
X121793000Y-112141000D01*
X128077000Y-108631000D02*
X124567000Y-112141000D01*
X124567000Y-112141000D02*
X122358685Y-112141000D01*
X128077000Y-107950000D02*
X128077000Y-108631000D01*
G04 #@! TO.N,TX_2_SL*
X128077000Y-106680000D02*
X127627000Y-106680000D01*
X123698000Y-110609000D02*
X123698000Y-110617000D01*
X127627000Y-106680000D02*
X123698000Y-110609000D01*
X124587000Y-69215000D02*
X124587000Y-62992000D01*
X120777000Y-73025000D02*
X124587000Y-69215000D01*
G04 #@! TO.N,RX_2_IC*
X133477000Y-113538000D02*
X125095000Y-121920000D01*
X133477000Y-107950000D02*
X133477000Y-113538000D01*
G04 #@! TO.N,TX_2_IC*
X134608000Y-106680000D02*
X135001000Y-107073000D01*
X133477000Y-106680000D02*
X134608000Y-106680000D01*
X135001000Y-114554000D02*
X127635000Y-121920000D01*
X135001000Y-107073000D02*
X135001000Y-114554000D01*
G04 #@! TO.N,RX_1_IC*
X134608000Y-104140000D02*
X137160000Y-106692000D01*
X133477000Y-104140000D02*
X134608000Y-104140000D01*
X120774999Y-123700001D02*
X120015000Y-124460000D01*
X130488243Y-123309499D02*
X121165501Y-123309499D01*
X131325501Y-122472241D02*
X130488243Y-123309499D01*
X121165501Y-123309499D02*
X120774999Y-123700001D01*
X131325501Y-121606757D02*
X131325501Y-122472241D01*
X137160000Y-115772258D02*
X131325501Y-121606757D01*
X137160000Y-106692000D02*
X137160000Y-115772258D01*
G04 #@! TO.N,TX_1_IC*
X134608000Y-105410000D02*
X136017000Y-106819000D01*
X133477000Y-105410000D02*
X134608000Y-105410000D01*
X136017000Y-106819000D02*
X136017000Y-115316000D01*
X136017000Y-115316000D02*
X131064000Y-120269000D01*
G04 #@! TD*
D19*
G04 #@! TO.N,GND*
G36*
X127060167Y-52355289D02*
X126396289Y-53019167D01*
X126037000Y-53886567D01*
X126037000Y-54825433D01*
X126396289Y-55692833D01*
X127060167Y-56356711D01*
X127927567Y-56716000D01*
X128866433Y-56716000D01*
X129733833Y-56356711D01*
X130397711Y-55692833D01*
X130757000Y-54825433D01*
X130757000Y-53886567D01*
X130397711Y-53019167D01*
X129733833Y-52355289D01*
X129472400Y-52247000D01*
X134179600Y-52247000D01*
X133918167Y-52355289D01*
X133254289Y-53019167D01*
X132895000Y-53886567D01*
X132895000Y-54825433D01*
X133254289Y-55692833D01*
X133918167Y-56356711D01*
X134785567Y-56716000D01*
X135724433Y-56716000D01*
X136591833Y-56356711D01*
X137255711Y-55692833D01*
X137615000Y-54825433D01*
X137615000Y-53886567D01*
X137255711Y-53019167D01*
X136591833Y-52355289D01*
X136330400Y-52247000D01*
X146879600Y-52247000D01*
X146618167Y-52355289D01*
X145954289Y-53019167D01*
X145595000Y-53886567D01*
X145595000Y-54825433D01*
X145954289Y-55692833D01*
X146618167Y-56356711D01*
X147485567Y-56716000D01*
X148424433Y-56716000D01*
X149291833Y-56356711D01*
X149955711Y-55692833D01*
X150315000Y-54825433D01*
X150315000Y-53886567D01*
X149955711Y-53019167D01*
X149291833Y-52355289D01*
X149030400Y-52247000D01*
X173940001Y-52247000D01*
X173940000Y-103329196D01*
X173879149Y-103754098D01*
X173721895Y-104099959D01*
X173473891Y-104387782D01*
X173155071Y-104594432D01*
X172768373Y-104710079D01*
X172567587Y-104725000D01*
X156912462Y-104725000D01*
X156845000Y-104711581D01*
X156777539Y-104725000D01*
X156777538Y-104725000D01*
X156577727Y-104764745D01*
X156351143Y-104916143D01*
X156199745Y-105142727D01*
X156146581Y-105410000D01*
X156160001Y-105477467D01*
X156160000Y-126170538D01*
X156146581Y-126238000D01*
X156199745Y-126505273D01*
X156351143Y-126731857D01*
X156577727Y-126883255D01*
X156845000Y-126936419D01*
X156912461Y-126923000D01*
X172544197Y-126923000D01*
X172969097Y-126983851D01*
X173314959Y-127141105D01*
X173602784Y-127389110D01*
X173809432Y-127707929D01*
X173925079Y-128094626D01*
X173940001Y-128295426D01*
X173940000Y-135807689D01*
X173925515Y-135809944D01*
X173836614Y-135837124D01*
X173747381Y-135863217D01*
X173739786Y-135866727D01*
X173739783Y-135866728D01*
X173739780Y-135866730D01*
X173218269Y-136111578D01*
X173140593Y-136162601D01*
X173062246Y-136212706D01*
X173055939Y-136218208D01*
X172624107Y-136599589D01*
X172563845Y-136670396D01*
X172502739Y-136740444D01*
X172498233Y-136747491D01*
X172498230Y-136747494D01*
X172498230Y-136747495D01*
X172190797Y-137234748D01*
X172152854Y-137319571D01*
X172113841Y-137404003D01*
X172111492Y-137412036D01*
X171953171Y-137965988D01*
X171940546Y-138058155D01*
X171926813Y-138150042D01*
X171926813Y-138158403D01*
X171926812Y-138158410D01*
X171926813Y-138158417D01*
X171930333Y-138734534D01*
X171944070Y-138826455D01*
X171956691Y-138918585D01*
X171959039Y-138926616D01*
X171959040Y-138926620D01*
X171959042Y-138926624D01*
X172124116Y-139478595D01*
X172163094Y-139562951D01*
X172201072Y-139647853D01*
X172205582Y-139654904D01*
X172518945Y-140138363D01*
X172580045Y-140208404D01*
X172640312Y-140279217D01*
X172646615Y-140284715D01*
X172646619Y-140284719D01*
X172646624Y-140284722D01*
X173083078Y-140660795D01*
X173161393Y-140710880D01*
X173239100Y-140761924D01*
X173246691Y-140765431D01*
X173246697Y-140765435D01*
X173246703Y-140765437D01*
X173771164Y-141003895D01*
X173860358Y-141029977D01*
X173940001Y-141054327D01*
X173940000Y-149076877D01*
X173882954Y-149475210D01*
X173725234Y-149822096D01*
X173476497Y-150110771D01*
X173156733Y-150318031D01*
X172758616Y-150437093D01*
X172683861Y-150445000D01*
X116248093Y-150445000D01*
X115745033Y-150381448D01*
X115313969Y-150210777D01*
X114938891Y-149938267D01*
X114643367Y-149581040D01*
X114445968Y-149161546D01*
X114352981Y-148674087D01*
X114350000Y-148579240D01*
X114350000Y-141052311D01*
X114364485Y-141050056D01*
X114453386Y-141022876D01*
X114542619Y-140996783D01*
X114550214Y-140993273D01*
X114550217Y-140993272D01*
X114550220Y-140993270D01*
X115071731Y-140748422D01*
X115149407Y-140697399D01*
X115227754Y-140647294D01*
X115234061Y-140641792D01*
X115665893Y-140260411D01*
X115726155Y-140189604D01*
X115787261Y-140119556D01*
X115791767Y-140112509D01*
X115791770Y-140112506D01*
X115791772Y-140112503D01*
X116099203Y-139625252D01*
X116137160Y-139540397D01*
X116176159Y-139455997D01*
X116178508Y-139447965D01*
X116336829Y-138894012D01*
X116349454Y-138801845D01*
X116363187Y-138709958D01*
X116363187Y-138701597D01*
X116363188Y-138701590D01*
X116363187Y-138701583D01*
X116359667Y-138125466D01*
X116345925Y-138033518D01*
X116333309Y-137941414D01*
X116330960Y-137933382D01*
X116165884Y-137381404D01*
X116126899Y-137297032D01*
X116088928Y-137212147D01*
X116084419Y-137205096D01*
X115771055Y-136721637D01*
X115709955Y-136651596D01*
X115649688Y-136580783D01*
X115643385Y-136575285D01*
X115643381Y-136575281D01*
X115643376Y-136575278D01*
X115206922Y-136199205D01*
X115128607Y-136149120D01*
X115050900Y-136098076D01*
X115043309Y-136094569D01*
X115043303Y-136094565D01*
X115043297Y-136094563D01*
X114518836Y-135856105D01*
X114429642Y-135830023D01*
X114350000Y-135805674D01*
X114350000Y-125727622D01*
X114657517Y-125855000D01*
X115212483Y-125855000D01*
X115725204Y-125642624D01*
X116117624Y-125250204D01*
X116205000Y-125039260D01*
X116292376Y-125250204D01*
X116684796Y-125642624D01*
X117197517Y-125855000D01*
X117752483Y-125855000D01*
X118265204Y-125642624D01*
X118657624Y-125250204D01*
X118745000Y-125039260D01*
X118832376Y-125250204D01*
X119224796Y-125642624D01*
X119737517Y-125855000D01*
X120292483Y-125855000D01*
X120805204Y-125642624D01*
X121197624Y-125250204D01*
X121285000Y-125039260D01*
X121372376Y-125250204D01*
X121764796Y-125642624D01*
X122277517Y-125855000D01*
X122832483Y-125855000D01*
X123345204Y-125642624D01*
X123737624Y-125250204D01*
X123825000Y-125039260D01*
X123912376Y-125250204D01*
X124304796Y-125642624D01*
X124817517Y-125855000D01*
X125372483Y-125855000D01*
X125885204Y-125642624D01*
X126277624Y-125250204D01*
X126365000Y-125039260D01*
X126452376Y-125250204D01*
X126844796Y-125642624D01*
X127357517Y-125855000D01*
X127912483Y-125855000D01*
X128425204Y-125642624D01*
X128817624Y-125250204D01*
X128905000Y-125039260D01*
X128992376Y-125250204D01*
X129384796Y-125642624D01*
X129897517Y-125855000D01*
X130452483Y-125855000D01*
X130965204Y-125642624D01*
X131357624Y-125250204D01*
X131445000Y-125039260D01*
X131532376Y-125250204D01*
X131924796Y-125642624D01*
X132437517Y-125855000D01*
X132992483Y-125855000D01*
X133505204Y-125642624D01*
X133897624Y-125250204D01*
X133985000Y-125039260D01*
X134072376Y-125250204D01*
X134464796Y-125642624D01*
X134977517Y-125855000D01*
X135532483Y-125855000D01*
X136045204Y-125642624D01*
X136437624Y-125250204D01*
X136525000Y-125039260D01*
X136612376Y-125250204D01*
X137004796Y-125642624D01*
X137517517Y-125855000D01*
X138072483Y-125855000D01*
X138585204Y-125642624D01*
X138977624Y-125250204D01*
X139190000Y-124737483D01*
X139190000Y-124182517D01*
X138977624Y-123669796D01*
X138585204Y-123277376D01*
X138374260Y-123190000D01*
X138585204Y-123102624D01*
X138977624Y-122710204D01*
X139190000Y-122197483D01*
X139190000Y-121642517D01*
X138977624Y-121129796D01*
X138585204Y-120737376D01*
X138072483Y-120525000D01*
X137517517Y-120525000D01*
X137004796Y-120737376D01*
X136612376Y-121129796D01*
X136525000Y-121340740D01*
X136437624Y-121129796D01*
X136045204Y-120737376D01*
X135532483Y-120525000D01*
X134977517Y-120525000D01*
X134464796Y-120737376D01*
X134072376Y-121129796D01*
X133985000Y-121340740D01*
X133897624Y-121129796D01*
X133505204Y-120737376D01*
X133404166Y-120695525D01*
X137686226Y-116413465D01*
X137755152Y-116367410D01*
X137937604Y-116094352D01*
X137985500Y-115853561D01*
X138001672Y-115772258D01*
X137985500Y-115690955D01*
X137985500Y-106773301D01*
X138001672Y-106691999D01*
X137972785Y-106546774D01*
X137937604Y-106369906D01*
X137816393Y-106188500D01*
X143339560Y-106188500D01*
X143339560Y-106663500D01*
X143406922Y-107002152D01*
X143598753Y-107289247D01*
X143885848Y-107481078D01*
X144224500Y-107548440D01*
X144799500Y-107548440D01*
X145138152Y-107481078D01*
X145425247Y-107289247D01*
X145617078Y-107002152D01*
X145684440Y-106663500D01*
X145684440Y-106188500D01*
X145617078Y-105849848D01*
X145425247Y-105562753D01*
X145337500Y-105504122D01*
X145337500Y-104270211D01*
X145389431Y-104218280D01*
X145547000Y-103837874D01*
X145547000Y-103426126D01*
X145389431Y-103045720D01*
X145098280Y-102754569D01*
X144717874Y-102597000D01*
X144306126Y-102597000D01*
X143925720Y-102754569D01*
X143634569Y-103045720D01*
X143477000Y-103426126D01*
X143477000Y-103837874D01*
X143634569Y-104218280D01*
X143686501Y-104270212D01*
X143686500Y-105504122D01*
X143598753Y-105562753D01*
X143406922Y-105849848D01*
X143339560Y-106188500D01*
X137816393Y-106188500D01*
X137755152Y-106096848D01*
X137686226Y-106050793D01*
X135330932Y-103695500D01*
X137643953Y-103695500D01*
X137843126Y-103778000D01*
X138254874Y-103778000D01*
X138635280Y-103620431D01*
X138926431Y-103329280D01*
X139084000Y-102948874D01*
X139084000Y-102537126D01*
X138926431Y-102156720D01*
X138635280Y-101865569D01*
X138254874Y-101708000D01*
X137941000Y-101708000D01*
X137941000Y-101394126D01*
X137783431Y-101013720D01*
X137492280Y-100722569D01*
X137111874Y-100565000D01*
X136700126Y-100565000D01*
X136319720Y-100722569D01*
X136267789Y-100774500D01*
X134583503Y-100774500D01*
X134474765Y-100701843D01*
X134227000Y-100652560D01*
X132727000Y-100652560D01*
X132479235Y-100701843D01*
X132269191Y-100842191D01*
X132128843Y-101052235D01*
X132079560Y-101300000D01*
X132079560Y-101900000D01*
X132128843Y-102147765D01*
X132187132Y-102235000D01*
X132128843Y-102322235D01*
X132079560Y-102570000D01*
X132079560Y-103170000D01*
X132128843Y-103417765D01*
X132187132Y-103505000D01*
X132128843Y-103592235D01*
X132079560Y-103840000D01*
X132079560Y-104440000D01*
X132128843Y-104687765D01*
X132187132Y-104775000D01*
X132128843Y-104862235D01*
X132079560Y-105110000D01*
X132079560Y-105710000D01*
X132128843Y-105957765D01*
X132187132Y-106045000D01*
X132128843Y-106132235D01*
X132079560Y-106380000D01*
X132079560Y-106980000D01*
X132128843Y-107227765D01*
X132187132Y-107315000D01*
X132128843Y-107402235D01*
X132079560Y-107650000D01*
X132079560Y-108250000D01*
X132128843Y-108497765D01*
X132269191Y-108707809D01*
X132479235Y-108848157D01*
X132651500Y-108882422D01*
X132651501Y-113196066D01*
X125322568Y-120525000D01*
X124817517Y-120525000D01*
X124304796Y-120737376D01*
X123912376Y-121129796D01*
X123825000Y-121340740D01*
X123737624Y-121129796D01*
X123345204Y-120737376D01*
X122832483Y-120525000D01*
X122277517Y-120525000D01*
X121764796Y-120737376D01*
X121372376Y-121129796D01*
X121285000Y-121340740D01*
X121197624Y-121129796D01*
X120805204Y-120737376D01*
X120292483Y-120525000D01*
X119737517Y-120525000D01*
X119224796Y-120737376D01*
X118832376Y-121129796D01*
X118620000Y-121642517D01*
X118620000Y-122197483D01*
X118832376Y-122710204D01*
X119224796Y-123102624D01*
X119435740Y-123190000D01*
X119224796Y-123277376D01*
X118832376Y-123669796D01*
X118745000Y-123880740D01*
X118657624Y-123669796D01*
X118265204Y-123277376D01*
X117752483Y-123065000D01*
X117197517Y-123065000D01*
X116684796Y-123277376D01*
X116292376Y-123669796D01*
X116205000Y-123880740D01*
X116117624Y-123669796D01*
X115725204Y-123277376D01*
X115514260Y-123190000D01*
X115725204Y-123102624D01*
X116117624Y-122710204D01*
X116330000Y-122197483D01*
X116330000Y-121642517D01*
X116117624Y-121129796D01*
X115725204Y-120737376D01*
X115212483Y-120525000D01*
X114657517Y-120525000D01*
X114350000Y-120652378D01*
X114350000Y-98151500D01*
X118130560Y-98151500D01*
X118130560Y-98726500D01*
X118197922Y-99065152D01*
X118364197Y-99314000D01*
X118197922Y-99562848D01*
X118130560Y-99901500D01*
X118130560Y-100476500D01*
X118197922Y-100815152D01*
X118389753Y-101102247D01*
X118676848Y-101294078D01*
X119015500Y-101361440D01*
X119258008Y-101361440D01*
X120022793Y-102126226D01*
X120049450Y-102166120D01*
X119829152Y-102018922D01*
X119490500Y-101951560D01*
X119015500Y-101951560D01*
X118676848Y-102018922D01*
X118389753Y-102210753D01*
X118197922Y-102497848D01*
X118130560Y-102836500D01*
X118130560Y-103411500D01*
X118197922Y-103750152D01*
X118389753Y-104037247D01*
X118676848Y-104229078D01*
X119015500Y-104296440D01*
X119490500Y-104296440D01*
X119829152Y-104229078D01*
X120116247Y-104037247D01*
X120174878Y-103949500D01*
X123117474Y-103949500D01*
X123169405Y-104001431D01*
X123549811Y-104159000D01*
X123961559Y-104159000D01*
X124341965Y-104001431D01*
X124633116Y-103710280D01*
X124790685Y-103329874D01*
X124790685Y-102918126D01*
X124633116Y-102537720D01*
X124520896Y-102425500D01*
X126223067Y-102425500D01*
X121129068Y-107519500D01*
X120174878Y-107519500D01*
X120116247Y-107431753D01*
X119829152Y-107239922D01*
X119490500Y-107172560D01*
X119015500Y-107172560D01*
X118676848Y-107239922D01*
X118389753Y-107431753D01*
X118197922Y-107718848D01*
X118130560Y-108057500D01*
X118130560Y-108632500D01*
X118197922Y-108971152D01*
X118364197Y-109220000D01*
X118197922Y-109468848D01*
X118130560Y-109807500D01*
X118130560Y-110382500D01*
X118197922Y-110721152D01*
X118389753Y-111008247D01*
X118676848Y-111200078D01*
X119015500Y-111267440D01*
X119490500Y-111267440D01*
X119829152Y-111200078D01*
X120116247Y-111008247D01*
X120174878Y-110920500D01*
X120268068Y-110920500D01*
X118726777Y-112461791D01*
X118657848Y-112507848D01*
X118475396Y-112780907D01*
X118434619Y-112985907D01*
X118433732Y-112990367D01*
X118389753Y-113019753D01*
X118197922Y-113306848D01*
X118130560Y-113645500D01*
X118130560Y-114220500D01*
X118197922Y-114559152D01*
X118389753Y-114846247D01*
X118676848Y-115038078D01*
X119015500Y-115105440D01*
X119490500Y-115105440D01*
X119829152Y-115038078D01*
X120116247Y-114846247D01*
X120308078Y-114559152D01*
X120375440Y-114220500D01*
X120375440Y-113645500D01*
X120308078Y-113306848D01*
X120271431Y-113252001D01*
X120880593Y-112642839D01*
X120915569Y-112727280D01*
X121206720Y-113018431D01*
X121587126Y-113176000D01*
X121998874Y-113176000D01*
X122379280Y-113018431D01*
X122431211Y-112966500D01*
X124485699Y-112966500D01*
X124567000Y-112982672D01*
X124648301Y-112966500D01*
X124648303Y-112966500D01*
X124889094Y-112918604D01*
X125162152Y-112736152D01*
X125208209Y-112667223D01*
X128603226Y-109272207D01*
X128672152Y-109226152D01*
X128854604Y-108953094D01*
X128867267Y-108889430D01*
X129074765Y-108848157D01*
X129284809Y-108707809D01*
X129425157Y-108497765D01*
X129474440Y-108250000D01*
X129474440Y-107650000D01*
X129425157Y-107402235D01*
X129366868Y-107315000D01*
X129425157Y-107227765D01*
X129474440Y-106980000D01*
X129474440Y-106380000D01*
X129425157Y-106132235D01*
X129366868Y-106045000D01*
X129425157Y-105957765D01*
X129474440Y-105710000D01*
X129474440Y-105110000D01*
X129425157Y-104862235D01*
X129366868Y-104775000D01*
X129425157Y-104687765D01*
X129474440Y-104440000D01*
X129474440Y-103840000D01*
X129425157Y-103592235D01*
X129366868Y-103505000D01*
X129425157Y-103417765D01*
X129474440Y-103170000D01*
X129474440Y-102570000D01*
X129425157Y-102322235D01*
X129366868Y-102235000D01*
X129425157Y-102147765D01*
X129474440Y-101900000D01*
X129474440Y-101300000D01*
X129425157Y-101052235D01*
X129366868Y-100965000D01*
X129425157Y-100877765D01*
X129474440Y-100630000D01*
X129474440Y-100030000D01*
X129425157Y-99782235D01*
X129366868Y-99695000D01*
X129425157Y-99607765D01*
X129474440Y-99360000D01*
X129474440Y-98760000D01*
X132079560Y-98760000D01*
X132079560Y-99360000D01*
X132128843Y-99607765D01*
X132269191Y-99817809D01*
X132479235Y-99958157D01*
X132727000Y-100007440D01*
X134227000Y-100007440D01*
X134474765Y-99958157D01*
X134583503Y-99885500D01*
X138426789Y-99885500D01*
X138478720Y-99937431D01*
X138859126Y-100095000D01*
X139270874Y-100095000D01*
X139651280Y-99937431D01*
X139703211Y-99885500D01*
X141943768Y-99885500D01*
X142011753Y-99987247D01*
X142298848Y-100179078D01*
X142637500Y-100246440D01*
X143112500Y-100246440D01*
X143451152Y-100179078D01*
X143738247Y-99987247D01*
X143796878Y-99899500D01*
X147859699Y-99899500D01*
X147941000Y-99915672D01*
X148022301Y-99899500D01*
X148022303Y-99899500D01*
X148263094Y-99851604D01*
X148536152Y-99669152D01*
X148582209Y-99600223D01*
X148862223Y-99320209D01*
X148931152Y-99274152D01*
X149113604Y-99001094D01*
X149161500Y-98760303D01*
X149161500Y-98760299D01*
X149177671Y-98679001D01*
X149161500Y-98597703D01*
X149161500Y-90487500D01*
X163367699Y-90487500D01*
X163449000Y-90503672D01*
X163530301Y-90487500D01*
X163530303Y-90487500D01*
X163771094Y-90439604D01*
X164044152Y-90257152D01*
X164090209Y-90188223D01*
X165251433Y-89027000D01*
X165758881Y-89027000D01*
X166272337Y-88814320D01*
X166665320Y-88421337D01*
X166878000Y-87907881D01*
X166878000Y-87352119D01*
X166665320Y-86838663D01*
X166272337Y-86445680D01*
X165758881Y-86233000D01*
X165203119Y-86233000D01*
X164689663Y-86445680D01*
X164296680Y-86838663D01*
X164084000Y-87352119D01*
X164084000Y-87859567D01*
X163107068Y-88836500D01*
X161138790Y-88836500D01*
X161192337Y-88814320D01*
X161585320Y-88421337D01*
X161798000Y-87907881D01*
X161798000Y-87352119D01*
X161585320Y-86838663D01*
X161226500Y-86479843D01*
X161226500Y-79995332D01*
X169082460Y-72139373D01*
X170055453Y-72542400D01*
X171318547Y-72542400D01*
X172485493Y-72059035D01*
X173378635Y-71165893D01*
X173862000Y-69998947D01*
X173862000Y-68735853D01*
X173378635Y-67568907D01*
X172485493Y-66675765D01*
X171318547Y-66192400D01*
X170055453Y-66192400D01*
X168888507Y-66675765D01*
X167995365Y-67568907D01*
X167512000Y-68735853D01*
X167512000Y-69998947D01*
X167915027Y-70971940D01*
X159874775Y-79012193D01*
X159805849Y-79058248D01*
X159759794Y-79127174D01*
X159623397Y-79331306D01*
X159559328Y-79653400D01*
X159575501Y-79734706D01*
X159575500Y-86479843D01*
X159250843Y-86804500D01*
X148544303Y-86804500D01*
X148463000Y-86788328D01*
X148140905Y-86852396D01*
X148004689Y-86943414D01*
X147867848Y-87034848D01*
X147821793Y-87103774D01*
X146216068Y-88709500D01*
X141481211Y-88709500D01*
X141429280Y-88657569D01*
X141048874Y-88500000D01*
X140637126Y-88500000D01*
X140256720Y-88657569D01*
X139965569Y-88948720D01*
X139808000Y-89329126D01*
X139808000Y-89740874D01*
X139965569Y-90121280D01*
X140256720Y-90412431D01*
X140637126Y-90570000D01*
X141048874Y-90570000D01*
X141429280Y-90412431D01*
X141481211Y-90360500D01*
X146476699Y-90360500D01*
X146558000Y-90376672D01*
X146639301Y-90360500D01*
X146639303Y-90360500D01*
X146880094Y-90312604D01*
X147153152Y-90130152D01*
X147199209Y-90061223D01*
X147510500Y-89749932D01*
X147510501Y-98248500D01*
X143796878Y-98248500D01*
X143738247Y-98160753D01*
X143451152Y-97968922D01*
X143112500Y-97901560D01*
X142637500Y-97901560D01*
X142298848Y-97968922D01*
X142011753Y-98160753D01*
X141962477Y-98234500D01*
X139703211Y-98234500D01*
X139651280Y-98182569D01*
X139270874Y-98025000D01*
X138859126Y-98025000D01*
X138478720Y-98182569D01*
X138426789Y-98234500D01*
X134583503Y-98234500D01*
X134474765Y-98161843D01*
X134227000Y-98112560D01*
X132727000Y-98112560D01*
X132479235Y-98161843D01*
X132269191Y-98302191D01*
X132128843Y-98512235D01*
X132079560Y-98760000D01*
X129474440Y-98760000D01*
X129425157Y-98512235D01*
X129284809Y-98302191D01*
X129074765Y-98161843D01*
X128827000Y-98112560D01*
X127327000Y-98112560D01*
X127079235Y-98161843D01*
X126970497Y-98234500D01*
X120375440Y-98234500D01*
X120375440Y-98151500D01*
X120308078Y-97812848D01*
X120116247Y-97525753D01*
X119829152Y-97333922D01*
X119490500Y-97266560D01*
X119015500Y-97266560D01*
X118676848Y-97333922D01*
X118389753Y-97525753D01*
X118197922Y-97812848D01*
X118130560Y-98151500D01*
X114350000Y-98151500D01*
X114350000Y-82547622D01*
X114657517Y-82675000D01*
X115212483Y-82675000D01*
X115725204Y-82462624D01*
X116117624Y-82070204D01*
X116205000Y-81859260D01*
X116292376Y-82070204D01*
X116684796Y-82462624D01*
X117197517Y-82675000D01*
X117752483Y-82675000D01*
X118265204Y-82462624D01*
X118657624Y-82070204D01*
X118745000Y-81859260D01*
X118832376Y-82070204D01*
X119224796Y-82462624D01*
X119737517Y-82675000D01*
X120292483Y-82675000D01*
X120805204Y-82462624D01*
X121197624Y-82070204D01*
X121285000Y-81859260D01*
X121372376Y-82070204D01*
X121764796Y-82462624D01*
X122277517Y-82675000D01*
X122832483Y-82675000D01*
X123345204Y-82462624D01*
X123737624Y-82070204D01*
X123825000Y-81859260D01*
X123912376Y-82070204D01*
X124304796Y-82462624D01*
X124817517Y-82675000D01*
X125372483Y-82675000D01*
X125885204Y-82462624D01*
X126277624Y-82070204D01*
X126365000Y-81859260D01*
X126452376Y-82070204D01*
X126844796Y-82462624D01*
X127357517Y-82675000D01*
X127912483Y-82675000D01*
X128425204Y-82462624D01*
X128817624Y-82070204D01*
X128905000Y-81859260D01*
X128992376Y-82070204D01*
X129384796Y-82462624D01*
X129897517Y-82675000D01*
X130452483Y-82675000D01*
X130965204Y-82462624D01*
X131357624Y-82070204D01*
X131445000Y-81859260D01*
X131532376Y-82070204D01*
X131924796Y-82462624D01*
X132437517Y-82675000D01*
X132992483Y-82675000D01*
X133505204Y-82462624D01*
X133897624Y-82070204D01*
X133985000Y-81859260D01*
X134072376Y-82070204D01*
X134464796Y-82462624D01*
X134977517Y-82675000D01*
X135532483Y-82675000D01*
X136045204Y-82462624D01*
X136437624Y-82070204D01*
X136525000Y-81859260D01*
X136612376Y-82070204D01*
X137004796Y-82462624D01*
X137517517Y-82675000D01*
X138072483Y-82675000D01*
X138585204Y-82462624D01*
X138977624Y-82070204D01*
X139190000Y-81557483D01*
X139190000Y-81002517D01*
X138977624Y-80489796D01*
X138585204Y-80097376D01*
X138374260Y-80010000D01*
X138585204Y-79922624D01*
X138977624Y-79530204D01*
X139190000Y-79017483D01*
X139190000Y-78462517D01*
X138977624Y-77949796D01*
X138585204Y-77557376D01*
X138072483Y-77345000D01*
X137517517Y-77345000D01*
X137004796Y-77557376D01*
X136612376Y-77949796D01*
X136525000Y-78160740D01*
X136437624Y-77949796D01*
X136045204Y-77557376D01*
X135532483Y-77345000D01*
X134977517Y-77345000D01*
X134464796Y-77557376D01*
X134072376Y-77949796D01*
X133985000Y-78160740D01*
X133897624Y-77949796D01*
X133505204Y-77557376D01*
X132992483Y-77345000D01*
X132437517Y-77345000D01*
X131924796Y-77557376D01*
X131532376Y-77949796D01*
X131445000Y-78160740D01*
X131357624Y-77949796D01*
X130965204Y-77557376D01*
X130452483Y-77345000D01*
X129897517Y-77345000D01*
X129384796Y-77557376D01*
X128992376Y-77949796D01*
X128905000Y-78160740D01*
X128817624Y-77949796D01*
X128425204Y-77557376D01*
X127912483Y-77345000D01*
X127357517Y-77345000D01*
X126844796Y-77557376D01*
X126452376Y-77949796D01*
X126365000Y-78160740D01*
X126277624Y-77949796D01*
X125885204Y-77557376D01*
X125372483Y-77345000D01*
X124817517Y-77345000D01*
X124304796Y-77557376D01*
X123912376Y-77949796D01*
X123825000Y-78160740D01*
X123737624Y-77949796D01*
X123345204Y-77557376D01*
X122832483Y-77345000D01*
X122277517Y-77345000D01*
X121764796Y-77557376D01*
X121372376Y-77949796D01*
X121285000Y-78160740D01*
X121197624Y-77949796D01*
X120805204Y-77557376D01*
X120292483Y-77345000D01*
X119737517Y-77345000D01*
X119224796Y-77557376D01*
X118832376Y-77949796D01*
X118745000Y-78160740D01*
X118657624Y-77949796D01*
X118265204Y-77557376D01*
X117752483Y-77345000D01*
X117197517Y-77345000D01*
X116684796Y-77557376D01*
X116292376Y-77949796D01*
X116080000Y-78462517D01*
X116080000Y-79017483D01*
X116292376Y-79530204D01*
X116684796Y-79922624D01*
X116895740Y-80010000D01*
X116684796Y-80097376D01*
X116292376Y-80489796D01*
X116205000Y-80700740D01*
X116117624Y-80489796D01*
X115725204Y-80097376D01*
X115212483Y-79885000D01*
X114657517Y-79885000D01*
X114350000Y-80012378D01*
X114350000Y-72819126D01*
X119742000Y-72819126D01*
X119742000Y-73230874D01*
X119899569Y-73611280D01*
X120190720Y-73902431D01*
X120571126Y-74060000D01*
X120982874Y-74060000D01*
X121363280Y-73902431D01*
X121654431Y-73611280D01*
X121812000Y-73230874D01*
X121812000Y-73157432D01*
X125113226Y-69856207D01*
X125182152Y-69810152D01*
X125364604Y-69537094D01*
X125412500Y-69296303D01*
X125412500Y-69296302D01*
X125428672Y-69215000D01*
X125412500Y-69133697D01*
X125412500Y-64142157D01*
X125771320Y-63783337D01*
X125857000Y-63576487D01*
X125942680Y-63783337D01*
X126335663Y-64176320D01*
X126849119Y-64389000D01*
X127404881Y-64389000D01*
X127918337Y-64176320D01*
X128311320Y-63783337D01*
X128524000Y-63269881D01*
X128524000Y-62714119D01*
X135128000Y-62714119D01*
X135128000Y-63269881D01*
X135340680Y-63783337D01*
X135733663Y-64176320D01*
X136247119Y-64389000D01*
X136802881Y-64389000D01*
X137316337Y-64176320D01*
X137709320Y-63783337D01*
X137795000Y-63576487D01*
X137880680Y-63783337D01*
X138273663Y-64176320D01*
X138787119Y-64389000D01*
X139342881Y-64389000D01*
X139856337Y-64176320D01*
X140249320Y-63783337D01*
X140462000Y-63269881D01*
X140462000Y-62714119D01*
X142748000Y-62714119D01*
X142748000Y-63269881D01*
X142960680Y-63783337D01*
X143353663Y-64176320D01*
X143867119Y-64389000D01*
X144422881Y-64389000D01*
X144936337Y-64176320D01*
X145329320Y-63783337D01*
X145415000Y-63576487D01*
X145500680Y-63783337D01*
X145893663Y-64176320D01*
X146407119Y-64389000D01*
X146962881Y-64389000D01*
X147476337Y-64176320D01*
X147869320Y-63783337D01*
X148082000Y-63269881D01*
X148082000Y-62714119D01*
X147869320Y-62200663D01*
X147476337Y-61807680D01*
X146962881Y-61595000D01*
X146407119Y-61595000D01*
X145893663Y-61807680D01*
X145500680Y-62200663D01*
X145415000Y-62407513D01*
X145329320Y-62200663D01*
X144936337Y-61807680D01*
X144422881Y-61595000D01*
X143867119Y-61595000D01*
X143353663Y-61807680D01*
X142960680Y-62200663D01*
X142748000Y-62714119D01*
X140462000Y-62714119D01*
X140249320Y-62200663D01*
X139856337Y-61807680D01*
X139342881Y-61595000D01*
X138787119Y-61595000D01*
X138273663Y-61807680D01*
X137880680Y-62200663D01*
X137795000Y-62407513D01*
X137709320Y-62200663D01*
X137316337Y-61807680D01*
X136802881Y-61595000D01*
X136247119Y-61595000D01*
X135733663Y-61807680D01*
X135340680Y-62200663D01*
X135128000Y-62714119D01*
X128524000Y-62714119D01*
X128311320Y-62200663D01*
X127918337Y-61807680D01*
X127404881Y-61595000D01*
X126849119Y-61595000D01*
X126335663Y-61807680D01*
X125942680Y-62200663D01*
X125857000Y-62407513D01*
X125771320Y-62200663D01*
X125378337Y-61807680D01*
X124864881Y-61595000D01*
X124309119Y-61595000D01*
X123795663Y-61807680D01*
X123402680Y-62200663D01*
X123190000Y-62714119D01*
X123190000Y-63269881D01*
X123402680Y-63783337D01*
X123761501Y-64142158D01*
X123761500Y-68873067D01*
X120644568Y-71990000D01*
X120571126Y-71990000D01*
X120190720Y-72147569D01*
X119899569Y-72438720D01*
X119742000Y-72819126D01*
X114350000Y-72819126D01*
X114350000Y-62714119D01*
X115570000Y-62714119D01*
X115570000Y-63269881D01*
X115782680Y-63783337D01*
X116175663Y-64176320D01*
X116689119Y-64389000D01*
X117244881Y-64389000D01*
X117758337Y-64176320D01*
X118151320Y-63783337D01*
X118237000Y-63576487D01*
X118322680Y-63783337D01*
X118715663Y-64176320D01*
X119229119Y-64389000D01*
X119784881Y-64389000D01*
X120298337Y-64176320D01*
X120691320Y-63783337D01*
X120904000Y-63269881D01*
X120904000Y-62714119D01*
X120691320Y-62200663D01*
X120298337Y-61807680D01*
X119784881Y-61595000D01*
X119229119Y-61595000D01*
X118715663Y-61807680D01*
X118322680Y-62200663D01*
X118237000Y-62407513D01*
X118151320Y-62200663D01*
X117758337Y-61807680D01*
X117244881Y-61595000D01*
X116689119Y-61595000D01*
X116175663Y-61807680D01*
X115782680Y-62200663D01*
X115570000Y-62714119D01*
X114350000Y-62714119D01*
X114350000Y-56346544D01*
X114360167Y-56356711D01*
X115227567Y-56716000D01*
X116166433Y-56716000D01*
X117033833Y-56356711D01*
X117697711Y-55692833D01*
X118057000Y-54825433D01*
X118057000Y-53886567D01*
X117697711Y-53019167D01*
X117033833Y-52355289D01*
X116772400Y-52247000D01*
X127321600Y-52247000D01*
X127060167Y-52355289D01*
X127060167Y-52355289D01*
G37*
X127060167Y-52355289D02*
X126396289Y-53019167D01*
X126037000Y-53886567D01*
X126037000Y-54825433D01*
X126396289Y-55692833D01*
X127060167Y-56356711D01*
X127927567Y-56716000D01*
X128866433Y-56716000D01*
X129733833Y-56356711D01*
X130397711Y-55692833D01*
X130757000Y-54825433D01*
X130757000Y-53886567D01*
X130397711Y-53019167D01*
X129733833Y-52355289D01*
X129472400Y-52247000D01*
X134179600Y-52247000D01*
X133918167Y-52355289D01*
X133254289Y-53019167D01*
X132895000Y-53886567D01*
X132895000Y-54825433D01*
X133254289Y-55692833D01*
X133918167Y-56356711D01*
X134785567Y-56716000D01*
X135724433Y-56716000D01*
X136591833Y-56356711D01*
X137255711Y-55692833D01*
X137615000Y-54825433D01*
X137615000Y-53886567D01*
X137255711Y-53019167D01*
X136591833Y-52355289D01*
X136330400Y-52247000D01*
X146879600Y-52247000D01*
X146618167Y-52355289D01*
X145954289Y-53019167D01*
X145595000Y-53886567D01*
X145595000Y-54825433D01*
X145954289Y-55692833D01*
X146618167Y-56356711D01*
X147485567Y-56716000D01*
X148424433Y-56716000D01*
X149291833Y-56356711D01*
X149955711Y-55692833D01*
X150315000Y-54825433D01*
X150315000Y-53886567D01*
X149955711Y-53019167D01*
X149291833Y-52355289D01*
X149030400Y-52247000D01*
X173940001Y-52247000D01*
X173940000Y-103329196D01*
X173879149Y-103754098D01*
X173721895Y-104099959D01*
X173473891Y-104387782D01*
X173155071Y-104594432D01*
X172768373Y-104710079D01*
X172567587Y-104725000D01*
X156912462Y-104725000D01*
X156845000Y-104711581D01*
X156777539Y-104725000D01*
X156777538Y-104725000D01*
X156577727Y-104764745D01*
X156351143Y-104916143D01*
X156199745Y-105142727D01*
X156146581Y-105410000D01*
X156160001Y-105477467D01*
X156160000Y-126170538D01*
X156146581Y-126238000D01*
X156199745Y-126505273D01*
X156351143Y-126731857D01*
X156577727Y-126883255D01*
X156845000Y-126936419D01*
X156912461Y-126923000D01*
X172544197Y-126923000D01*
X172969097Y-126983851D01*
X173314959Y-127141105D01*
X173602784Y-127389110D01*
X173809432Y-127707929D01*
X173925079Y-128094626D01*
X173940001Y-128295426D01*
X173940000Y-135807689D01*
X173925515Y-135809944D01*
X173836614Y-135837124D01*
X173747381Y-135863217D01*
X173739786Y-135866727D01*
X173739783Y-135866728D01*
X173739780Y-135866730D01*
X173218269Y-136111578D01*
X173140593Y-136162601D01*
X173062246Y-136212706D01*
X173055939Y-136218208D01*
X172624107Y-136599589D01*
X172563845Y-136670396D01*
X172502739Y-136740444D01*
X172498233Y-136747491D01*
X172498230Y-136747494D01*
X172498230Y-136747495D01*
X172190797Y-137234748D01*
X172152854Y-137319571D01*
X172113841Y-137404003D01*
X172111492Y-137412036D01*
X171953171Y-137965988D01*
X171940546Y-138058155D01*
X171926813Y-138150042D01*
X171926813Y-138158403D01*
X171926812Y-138158410D01*
X171926813Y-138158417D01*
X171930333Y-138734534D01*
X171944070Y-138826455D01*
X171956691Y-138918585D01*
X171959039Y-138926616D01*
X171959040Y-138926620D01*
X171959042Y-138926624D01*
X172124116Y-139478595D01*
X172163094Y-139562951D01*
X172201072Y-139647853D01*
X172205582Y-139654904D01*
X172518945Y-140138363D01*
X172580045Y-140208404D01*
X172640312Y-140279217D01*
X172646615Y-140284715D01*
X172646619Y-140284719D01*
X172646624Y-140284722D01*
X173083078Y-140660795D01*
X173161393Y-140710880D01*
X173239100Y-140761924D01*
X173246691Y-140765431D01*
X173246697Y-140765435D01*
X173246703Y-140765437D01*
X173771164Y-141003895D01*
X173860358Y-141029977D01*
X173940001Y-141054327D01*
X173940000Y-149076877D01*
X173882954Y-149475210D01*
X173725234Y-149822096D01*
X173476497Y-150110771D01*
X173156733Y-150318031D01*
X172758616Y-150437093D01*
X172683861Y-150445000D01*
X116248093Y-150445000D01*
X115745033Y-150381448D01*
X115313969Y-150210777D01*
X114938891Y-149938267D01*
X114643367Y-149581040D01*
X114445968Y-149161546D01*
X114352981Y-148674087D01*
X114350000Y-148579240D01*
X114350000Y-141052311D01*
X114364485Y-141050056D01*
X114453386Y-141022876D01*
X114542619Y-140996783D01*
X114550214Y-140993273D01*
X114550217Y-140993272D01*
X114550220Y-140993270D01*
X115071731Y-140748422D01*
X115149407Y-140697399D01*
X115227754Y-140647294D01*
X115234061Y-140641792D01*
X115665893Y-140260411D01*
X115726155Y-140189604D01*
X115787261Y-140119556D01*
X115791767Y-140112509D01*
X115791770Y-140112506D01*
X115791772Y-140112503D01*
X116099203Y-139625252D01*
X116137160Y-139540397D01*
X116176159Y-139455997D01*
X116178508Y-139447965D01*
X116336829Y-138894012D01*
X116349454Y-138801845D01*
X116363187Y-138709958D01*
X116363187Y-138701597D01*
X116363188Y-138701590D01*
X116363187Y-138701583D01*
X116359667Y-138125466D01*
X116345925Y-138033518D01*
X116333309Y-137941414D01*
X116330960Y-137933382D01*
X116165884Y-137381404D01*
X116126899Y-137297032D01*
X116088928Y-137212147D01*
X116084419Y-137205096D01*
X115771055Y-136721637D01*
X115709955Y-136651596D01*
X115649688Y-136580783D01*
X115643385Y-136575285D01*
X115643381Y-136575281D01*
X115643376Y-136575278D01*
X115206922Y-136199205D01*
X115128607Y-136149120D01*
X115050900Y-136098076D01*
X115043309Y-136094569D01*
X115043303Y-136094565D01*
X115043297Y-136094563D01*
X114518836Y-135856105D01*
X114429642Y-135830023D01*
X114350000Y-135805674D01*
X114350000Y-125727622D01*
X114657517Y-125855000D01*
X115212483Y-125855000D01*
X115725204Y-125642624D01*
X116117624Y-125250204D01*
X116205000Y-125039260D01*
X116292376Y-125250204D01*
X116684796Y-125642624D01*
X117197517Y-125855000D01*
X117752483Y-125855000D01*
X118265204Y-125642624D01*
X118657624Y-125250204D01*
X118745000Y-125039260D01*
X118832376Y-125250204D01*
X119224796Y-125642624D01*
X119737517Y-125855000D01*
X120292483Y-125855000D01*
X120805204Y-125642624D01*
X121197624Y-125250204D01*
X121285000Y-125039260D01*
X121372376Y-125250204D01*
X121764796Y-125642624D01*
X122277517Y-125855000D01*
X122832483Y-125855000D01*
X123345204Y-125642624D01*
X123737624Y-125250204D01*
X123825000Y-125039260D01*
X123912376Y-125250204D01*
X124304796Y-125642624D01*
X124817517Y-125855000D01*
X125372483Y-125855000D01*
X125885204Y-125642624D01*
X126277624Y-125250204D01*
X126365000Y-125039260D01*
X126452376Y-125250204D01*
X126844796Y-125642624D01*
X127357517Y-125855000D01*
X127912483Y-125855000D01*
X128425204Y-125642624D01*
X128817624Y-125250204D01*
X128905000Y-125039260D01*
X128992376Y-125250204D01*
X129384796Y-125642624D01*
X129897517Y-125855000D01*
X130452483Y-125855000D01*
X130965204Y-125642624D01*
X131357624Y-125250204D01*
X131445000Y-125039260D01*
X131532376Y-125250204D01*
X131924796Y-125642624D01*
X132437517Y-125855000D01*
X132992483Y-125855000D01*
X133505204Y-125642624D01*
X133897624Y-125250204D01*
X133985000Y-125039260D01*
X134072376Y-125250204D01*
X134464796Y-125642624D01*
X134977517Y-125855000D01*
X135532483Y-125855000D01*
X136045204Y-125642624D01*
X136437624Y-125250204D01*
X136525000Y-125039260D01*
X136612376Y-125250204D01*
X137004796Y-125642624D01*
X137517517Y-125855000D01*
X138072483Y-125855000D01*
X138585204Y-125642624D01*
X138977624Y-125250204D01*
X139190000Y-124737483D01*
X139190000Y-124182517D01*
X138977624Y-123669796D01*
X138585204Y-123277376D01*
X138374260Y-123190000D01*
X138585204Y-123102624D01*
X138977624Y-122710204D01*
X139190000Y-122197483D01*
X139190000Y-121642517D01*
X138977624Y-121129796D01*
X138585204Y-120737376D01*
X138072483Y-120525000D01*
X137517517Y-120525000D01*
X137004796Y-120737376D01*
X136612376Y-121129796D01*
X136525000Y-121340740D01*
X136437624Y-121129796D01*
X136045204Y-120737376D01*
X135532483Y-120525000D01*
X134977517Y-120525000D01*
X134464796Y-120737376D01*
X134072376Y-121129796D01*
X133985000Y-121340740D01*
X133897624Y-121129796D01*
X133505204Y-120737376D01*
X133404166Y-120695525D01*
X137686226Y-116413465D01*
X137755152Y-116367410D01*
X137937604Y-116094352D01*
X137985500Y-115853561D01*
X138001672Y-115772258D01*
X137985500Y-115690955D01*
X137985500Y-106773301D01*
X138001672Y-106691999D01*
X137972785Y-106546774D01*
X137937604Y-106369906D01*
X137816393Y-106188500D01*
X143339560Y-106188500D01*
X143339560Y-106663500D01*
X143406922Y-107002152D01*
X143598753Y-107289247D01*
X143885848Y-107481078D01*
X144224500Y-107548440D01*
X144799500Y-107548440D01*
X145138152Y-107481078D01*
X145425247Y-107289247D01*
X145617078Y-107002152D01*
X145684440Y-106663500D01*
X145684440Y-106188500D01*
X145617078Y-105849848D01*
X145425247Y-105562753D01*
X145337500Y-105504122D01*
X145337500Y-104270211D01*
X145389431Y-104218280D01*
X145547000Y-103837874D01*
X145547000Y-103426126D01*
X145389431Y-103045720D01*
X145098280Y-102754569D01*
X144717874Y-102597000D01*
X144306126Y-102597000D01*
X143925720Y-102754569D01*
X143634569Y-103045720D01*
X143477000Y-103426126D01*
X143477000Y-103837874D01*
X143634569Y-104218280D01*
X143686501Y-104270212D01*
X143686500Y-105504122D01*
X143598753Y-105562753D01*
X143406922Y-105849848D01*
X143339560Y-106188500D01*
X137816393Y-106188500D01*
X137755152Y-106096848D01*
X137686226Y-106050793D01*
X135330932Y-103695500D01*
X137643953Y-103695500D01*
X137843126Y-103778000D01*
X138254874Y-103778000D01*
X138635280Y-103620431D01*
X138926431Y-103329280D01*
X139084000Y-102948874D01*
X139084000Y-102537126D01*
X138926431Y-102156720D01*
X138635280Y-101865569D01*
X138254874Y-101708000D01*
X137941000Y-101708000D01*
X137941000Y-101394126D01*
X137783431Y-101013720D01*
X137492280Y-100722569D01*
X137111874Y-100565000D01*
X136700126Y-100565000D01*
X136319720Y-100722569D01*
X136267789Y-100774500D01*
X134583503Y-100774500D01*
X134474765Y-100701843D01*
X134227000Y-100652560D01*
X132727000Y-100652560D01*
X132479235Y-100701843D01*
X132269191Y-100842191D01*
X132128843Y-101052235D01*
X132079560Y-101300000D01*
X132079560Y-101900000D01*
X132128843Y-102147765D01*
X132187132Y-102235000D01*
X132128843Y-102322235D01*
X132079560Y-102570000D01*
X132079560Y-103170000D01*
X132128843Y-103417765D01*
X132187132Y-103505000D01*
X132128843Y-103592235D01*
X132079560Y-103840000D01*
X132079560Y-104440000D01*
X132128843Y-104687765D01*
X132187132Y-104775000D01*
X132128843Y-104862235D01*
X132079560Y-105110000D01*
X132079560Y-105710000D01*
X132128843Y-105957765D01*
X132187132Y-106045000D01*
X132128843Y-106132235D01*
X132079560Y-106380000D01*
X132079560Y-106980000D01*
X132128843Y-107227765D01*
X132187132Y-107315000D01*
X132128843Y-107402235D01*
X132079560Y-107650000D01*
X132079560Y-108250000D01*
X132128843Y-108497765D01*
X132269191Y-108707809D01*
X132479235Y-108848157D01*
X132651500Y-108882422D01*
X132651501Y-113196066D01*
X125322568Y-120525000D01*
X124817517Y-120525000D01*
X124304796Y-120737376D01*
X123912376Y-121129796D01*
X123825000Y-121340740D01*
X123737624Y-121129796D01*
X123345204Y-120737376D01*
X122832483Y-120525000D01*
X122277517Y-120525000D01*
X121764796Y-120737376D01*
X121372376Y-121129796D01*
X121285000Y-121340740D01*
X121197624Y-121129796D01*
X120805204Y-120737376D01*
X120292483Y-120525000D01*
X119737517Y-120525000D01*
X119224796Y-120737376D01*
X118832376Y-121129796D01*
X118620000Y-121642517D01*
X118620000Y-122197483D01*
X118832376Y-122710204D01*
X119224796Y-123102624D01*
X119435740Y-123190000D01*
X119224796Y-123277376D01*
X118832376Y-123669796D01*
X118745000Y-123880740D01*
X118657624Y-123669796D01*
X118265204Y-123277376D01*
X117752483Y-123065000D01*
X117197517Y-123065000D01*
X116684796Y-123277376D01*
X116292376Y-123669796D01*
X116205000Y-123880740D01*
X116117624Y-123669796D01*
X115725204Y-123277376D01*
X115514260Y-123190000D01*
X115725204Y-123102624D01*
X116117624Y-122710204D01*
X116330000Y-122197483D01*
X116330000Y-121642517D01*
X116117624Y-121129796D01*
X115725204Y-120737376D01*
X115212483Y-120525000D01*
X114657517Y-120525000D01*
X114350000Y-120652378D01*
X114350000Y-98151500D01*
X118130560Y-98151500D01*
X118130560Y-98726500D01*
X118197922Y-99065152D01*
X118364197Y-99314000D01*
X118197922Y-99562848D01*
X118130560Y-99901500D01*
X118130560Y-100476500D01*
X118197922Y-100815152D01*
X118389753Y-101102247D01*
X118676848Y-101294078D01*
X119015500Y-101361440D01*
X119258008Y-101361440D01*
X120022793Y-102126226D01*
X120049450Y-102166120D01*
X119829152Y-102018922D01*
X119490500Y-101951560D01*
X119015500Y-101951560D01*
X118676848Y-102018922D01*
X118389753Y-102210753D01*
X118197922Y-102497848D01*
X118130560Y-102836500D01*
X118130560Y-103411500D01*
X118197922Y-103750152D01*
X118389753Y-104037247D01*
X118676848Y-104229078D01*
X119015500Y-104296440D01*
X119490500Y-104296440D01*
X119829152Y-104229078D01*
X120116247Y-104037247D01*
X120174878Y-103949500D01*
X123117474Y-103949500D01*
X123169405Y-104001431D01*
X123549811Y-104159000D01*
X123961559Y-104159000D01*
X124341965Y-104001431D01*
X124633116Y-103710280D01*
X124790685Y-103329874D01*
X124790685Y-102918126D01*
X124633116Y-102537720D01*
X124520896Y-102425500D01*
X126223067Y-102425500D01*
X121129068Y-107519500D01*
X120174878Y-107519500D01*
X120116247Y-107431753D01*
X119829152Y-107239922D01*
X119490500Y-107172560D01*
X119015500Y-107172560D01*
X118676848Y-107239922D01*
X118389753Y-107431753D01*
X118197922Y-107718848D01*
X118130560Y-108057500D01*
X118130560Y-108632500D01*
X118197922Y-108971152D01*
X118364197Y-109220000D01*
X118197922Y-109468848D01*
X118130560Y-109807500D01*
X118130560Y-110382500D01*
X118197922Y-110721152D01*
X118389753Y-111008247D01*
X118676848Y-111200078D01*
X119015500Y-111267440D01*
X119490500Y-111267440D01*
X119829152Y-111200078D01*
X120116247Y-111008247D01*
X120174878Y-110920500D01*
X120268068Y-110920500D01*
X118726777Y-112461791D01*
X118657848Y-112507848D01*
X118475396Y-112780907D01*
X118434619Y-112985907D01*
X118433732Y-112990367D01*
X118389753Y-113019753D01*
X118197922Y-113306848D01*
X118130560Y-113645500D01*
X118130560Y-114220500D01*
X118197922Y-114559152D01*
X118389753Y-114846247D01*
X118676848Y-115038078D01*
X119015500Y-115105440D01*
X119490500Y-115105440D01*
X119829152Y-115038078D01*
X120116247Y-114846247D01*
X120308078Y-114559152D01*
X120375440Y-114220500D01*
X120375440Y-113645500D01*
X120308078Y-113306848D01*
X120271431Y-113252001D01*
X120880593Y-112642839D01*
X120915569Y-112727280D01*
X121206720Y-113018431D01*
X121587126Y-113176000D01*
X121998874Y-113176000D01*
X122379280Y-113018431D01*
X122431211Y-112966500D01*
X124485699Y-112966500D01*
X124567000Y-112982672D01*
X124648301Y-112966500D01*
X124648303Y-112966500D01*
X124889094Y-112918604D01*
X125162152Y-112736152D01*
X125208209Y-112667223D01*
X128603226Y-109272207D01*
X128672152Y-109226152D01*
X128854604Y-108953094D01*
X128867267Y-108889430D01*
X129074765Y-108848157D01*
X129284809Y-108707809D01*
X129425157Y-108497765D01*
X129474440Y-108250000D01*
X129474440Y-107650000D01*
X129425157Y-107402235D01*
X129366868Y-107315000D01*
X129425157Y-107227765D01*
X129474440Y-106980000D01*
X129474440Y-106380000D01*
X129425157Y-106132235D01*
X129366868Y-106045000D01*
X129425157Y-105957765D01*
X129474440Y-105710000D01*
X129474440Y-105110000D01*
X129425157Y-104862235D01*
X129366868Y-104775000D01*
X129425157Y-104687765D01*
X129474440Y-104440000D01*
X129474440Y-103840000D01*
X129425157Y-103592235D01*
X129366868Y-103505000D01*
X129425157Y-103417765D01*
X129474440Y-103170000D01*
X129474440Y-102570000D01*
X129425157Y-102322235D01*
X129366868Y-102235000D01*
X129425157Y-102147765D01*
X129474440Y-101900000D01*
X129474440Y-101300000D01*
X129425157Y-101052235D01*
X129366868Y-100965000D01*
X129425157Y-100877765D01*
X129474440Y-100630000D01*
X129474440Y-100030000D01*
X129425157Y-99782235D01*
X129366868Y-99695000D01*
X129425157Y-99607765D01*
X129474440Y-99360000D01*
X129474440Y-98760000D01*
X132079560Y-98760000D01*
X132079560Y-99360000D01*
X132128843Y-99607765D01*
X132269191Y-99817809D01*
X132479235Y-99958157D01*
X132727000Y-100007440D01*
X134227000Y-100007440D01*
X134474765Y-99958157D01*
X134583503Y-99885500D01*
X138426789Y-99885500D01*
X138478720Y-99937431D01*
X138859126Y-100095000D01*
X139270874Y-100095000D01*
X139651280Y-99937431D01*
X139703211Y-99885500D01*
X141943768Y-99885500D01*
X142011753Y-99987247D01*
X142298848Y-100179078D01*
X142637500Y-100246440D01*
X143112500Y-100246440D01*
X143451152Y-100179078D01*
X143738247Y-99987247D01*
X143796878Y-99899500D01*
X147859699Y-99899500D01*
X147941000Y-99915672D01*
X148022301Y-99899500D01*
X148022303Y-99899500D01*
X148263094Y-99851604D01*
X148536152Y-99669152D01*
X148582209Y-99600223D01*
X148862223Y-99320209D01*
X148931152Y-99274152D01*
X149113604Y-99001094D01*
X149161500Y-98760303D01*
X149161500Y-98760299D01*
X149177671Y-98679001D01*
X149161500Y-98597703D01*
X149161500Y-90487500D01*
X163367699Y-90487500D01*
X163449000Y-90503672D01*
X163530301Y-90487500D01*
X163530303Y-90487500D01*
X163771094Y-90439604D01*
X164044152Y-90257152D01*
X164090209Y-90188223D01*
X165251433Y-89027000D01*
X165758881Y-89027000D01*
X166272337Y-88814320D01*
X166665320Y-88421337D01*
X166878000Y-87907881D01*
X166878000Y-87352119D01*
X166665320Y-86838663D01*
X166272337Y-86445680D01*
X165758881Y-86233000D01*
X165203119Y-86233000D01*
X164689663Y-86445680D01*
X164296680Y-86838663D01*
X164084000Y-87352119D01*
X164084000Y-87859567D01*
X163107068Y-88836500D01*
X161138790Y-88836500D01*
X161192337Y-88814320D01*
X161585320Y-88421337D01*
X161798000Y-87907881D01*
X161798000Y-87352119D01*
X161585320Y-86838663D01*
X161226500Y-86479843D01*
X161226500Y-79995332D01*
X169082460Y-72139373D01*
X170055453Y-72542400D01*
X171318547Y-72542400D01*
X172485493Y-72059035D01*
X173378635Y-71165893D01*
X173862000Y-69998947D01*
X173862000Y-68735853D01*
X173378635Y-67568907D01*
X172485493Y-66675765D01*
X171318547Y-66192400D01*
X170055453Y-66192400D01*
X168888507Y-66675765D01*
X167995365Y-67568907D01*
X167512000Y-68735853D01*
X167512000Y-69998947D01*
X167915027Y-70971940D01*
X159874775Y-79012193D01*
X159805849Y-79058248D01*
X159759794Y-79127174D01*
X159623397Y-79331306D01*
X159559328Y-79653400D01*
X159575501Y-79734706D01*
X159575500Y-86479843D01*
X159250843Y-86804500D01*
X148544303Y-86804500D01*
X148463000Y-86788328D01*
X148140905Y-86852396D01*
X148004689Y-86943414D01*
X147867848Y-87034848D01*
X147821793Y-87103774D01*
X146216068Y-88709500D01*
X141481211Y-88709500D01*
X141429280Y-88657569D01*
X141048874Y-88500000D01*
X140637126Y-88500000D01*
X140256720Y-88657569D01*
X139965569Y-88948720D01*
X139808000Y-89329126D01*
X139808000Y-89740874D01*
X139965569Y-90121280D01*
X140256720Y-90412431D01*
X140637126Y-90570000D01*
X141048874Y-90570000D01*
X141429280Y-90412431D01*
X141481211Y-90360500D01*
X146476699Y-90360500D01*
X146558000Y-90376672D01*
X146639301Y-90360500D01*
X146639303Y-90360500D01*
X146880094Y-90312604D01*
X147153152Y-90130152D01*
X147199209Y-90061223D01*
X147510500Y-89749932D01*
X147510501Y-98248500D01*
X143796878Y-98248500D01*
X143738247Y-98160753D01*
X143451152Y-97968922D01*
X143112500Y-97901560D01*
X142637500Y-97901560D01*
X142298848Y-97968922D01*
X142011753Y-98160753D01*
X141962477Y-98234500D01*
X139703211Y-98234500D01*
X139651280Y-98182569D01*
X139270874Y-98025000D01*
X138859126Y-98025000D01*
X138478720Y-98182569D01*
X138426789Y-98234500D01*
X134583503Y-98234500D01*
X134474765Y-98161843D01*
X134227000Y-98112560D01*
X132727000Y-98112560D01*
X132479235Y-98161843D01*
X132269191Y-98302191D01*
X132128843Y-98512235D01*
X132079560Y-98760000D01*
X129474440Y-98760000D01*
X129425157Y-98512235D01*
X129284809Y-98302191D01*
X129074765Y-98161843D01*
X128827000Y-98112560D01*
X127327000Y-98112560D01*
X127079235Y-98161843D01*
X126970497Y-98234500D01*
X120375440Y-98234500D01*
X120375440Y-98151500D01*
X120308078Y-97812848D01*
X120116247Y-97525753D01*
X119829152Y-97333922D01*
X119490500Y-97266560D01*
X119015500Y-97266560D01*
X118676848Y-97333922D01*
X118389753Y-97525753D01*
X118197922Y-97812848D01*
X118130560Y-98151500D01*
X114350000Y-98151500D01*
X114350000Y-82547622D01*
X114657517Y-82675000D01*
X115212483Y-82675000D01*
X115725204Y-82462624D01*
X116117624Y-82070204D01*
X116205000Y-81859260D01*
X116292376Y-82070204D01*
X116684796Y-82462624D01*
X117197517Y-82675000D01*
X117752483Y-82675000D01*
X118265204Y-82462624D01*
X118657624Y-82070204D01*
X118745000Y-81859260D01*
X118832376Y-82070204D01*
X119224796Y-82462624D01*
X119737517Y-82675000D01*
X120292483Y-82675000D01*
X120805204Y-82462624D01*
X121197624Y-82070204D01*
X121285000Y-81859260D01*
X121372376Y-82070204D01*
X121764796Y-82462624D01*
X122277517Y-82675000D01*
X122832483Y-82675000D01*
X123345204Y-82462624D01*
X123737624Y-82070204D01*
X123825000Y-81859260D01*
X123912376Y-82070204D01*
X124304796Y-82462624D01*
X124817517Y-82675000D01*
X125372483Y-82675000D01*
X125885204Y-82462624D01*
X126277624Y-82070204D01*
X126365000Y-81859260D01*
X126452376Y-82070204D01*
X126844796Y-82462624D01*
X127357517Y-82675000D01*
X127912483Y-82675000D01*
X128425204Y-82462624D01*
X128817624Y-82070204D01*
X128905000Y-81859260D01*
X128992376Y-82070204D01*
X129384796Y-82462624D01*
X129897517Y-82675000D01*
X130452483Y-82675000D01*
X130965204Y-82462624D01*
X131357624Y-82070204D01*
X131445000Y-81859260D01*
X131532376Y-82070204D01*
X131924796Y-82462624D01*
X132437517Y-82675000D01*
X132992483Y-82675000D01*
X133505204Y-82462624D01*
X133897624Y-82070204D01*
X133985000Y-81859260D01*
X134072376Y-82070204D01*
X134464796Y-82462624D01*
X134977517Y-82675000D01*
X135532483Y-82675000D01*
X136045204Y-82462624D01*
X136437624Y-82070204D01*
X136525000Y-81859260D01*
X136612376Y-82070204D01*
X137004796Y-82462624D01*
X137517517Y-82675000D01*
X138072483Y-82675000D01*
X138585204Y-82462624D01*
X138977624Y-82070204D01*
X139190000Y-81557483D01*
X139190000Y-81002517D01*
X138977624Y-80489796D01*
X138585204Y-80097376D01*
X138374260Y-80010000D01*
X138585204Y-79922624D01*
X138977624Y-79530204D01*
X139190000Y-79017483D01*
X139190000Y-78462517D01*
X138977624Y-77949796D01*
X138585204Y-77557376D01*
X138072483Y-77345000D01*
X137517517Y-77345000D01*
X137004796Y-77557376D01*
X136612376Y-77949796D01*
X136525000Y-78160740D01*
X136437624Y-77949796D01*
X136045204Y-77557376D01*
X135532483Y-77345000D01*
X134977517Y-77345000D01*
X134464796Y-77557376D01*
X134072376Y-77949796D01*
X133985000Y-78160740D01*
X133897624Y-77949796D01*
X133505204Y-77557376D01*
X132992483Y-77345000D01*
X132437517Y-77345000D01*
X131924796Y-77557376D01*
X131532376Y-77949796D01*
X131445000Y-78160740D01*
X131357624Y-77949796D01*
X130965204Y-77557376D01*
X130452483Y-77345000D01*
X129897517Y-77345000D01*
X129384796Y-77557376D01*
X128992376Y-77949796D01*
X128905000Y-78160740D01*
X128817624Y-77949796D01*
X128425204Y-77557376D01*
X127912483Y-77345000D01*
X127357517Y-77345000D01*
X126844796Y-77557376D01*
X126452376Y-77949796D01*
X126365000Y-78160740D01*
X126277624Y-77949796D01*
X125885204Y-77557376D01*
X125372483Y-77345000D01*
X124817517Y-77345000D01*
X124304796Y-77557376D01*
X123912376Y-77949796D01*
X123825000Y-78160740D01*
X123737624Y-77949796D01*
X123345204Y-77557376D01*
X122832483Y-77345000D01*
X122277517Y-77345000D01*
X121764796Y-77557376D01*
X121372376Y-77949796D01*
X121285000Y-78160740D01*
X121197624Y-77949796D01*
X120805204Y-77557376D01*
X120292483Y-77345000D01*
X119737517Y-77345000D01*
X119224796Y-77557376D01*
X118832376Y-77949796D01*
X118745000Y-78160740D01*
X118657624Y-77949796D01*
X118265204Y-77557376D01*
X117752483Y-77345000D01*
X117197517Y-77345000D01*
X116684796Y-77557376D01*
X116292376Y-77949796D01*
X116080000Y-78462517D01*
X116080000Y-79017483D01*
X116292376Y-79530204D01*
X116684796Y-79922624D01*
X116895740Y-80010000D01*
X116684796Y-80097376D01*
X116292376Y-80489796D01*
X116205000Y-80700740D01*
X116117624Y-80489796D01*
X115725204Y-80097376D01*
X115212483Y-79885000D01*
X114657517Y-79885000D01*
X114350000Y-80012378D01*
X114350000Y-72819126D01*
X119742000Y-72819126D01*
X119742000Y-73230874D01*
X119899569Y-73611280D01*
X120190720Y-73902431D01*
X120571126Y-74060000D01*
X120982874Y-74060000D01*
X121363280Y-73902431D01*
X121654431Y-73611280D01*
X121812000Y-73230874D01*
X121812000Y-73157432D01*
X125113226Y-69856207D01*
X125182152Y-69810152D01*
X125364604Y-69537094D01*
X125412500Y-69296303D01*
X125412500Y-69296302D01*
X125428672Y-69215000D01*
X125412500Y-69133697D01*
X125412500Y-64142157D01*
X125771320Y-63783337D01*
X125857000Y-63576487D01*
X125942680Y-63783337D01*
X126335663Y-64176320D01*
X126849119Y-64389000D01*
X127404881Y-64389000D01*
X127918337Y-64176320D01*
X128311320Y-63783337D01*
X128524000Y-63269881D01*
X128524000Y-62714119D01*
X135128000Y-62714119D01*
X135128000Y-63269881D01*
X135340680Y-63783337D01*
X135733663Y-64176320D01*
X136247119Y-64389000D01*
X136802881Y-64389000D01*
X137316337Y-64176320D01*
X137709320Y-63783337D01*
X137795000Y-63576487D01*
X137880680Y-63783337D01*
X138273663Y-64176320D01*
X138787119Y-64389000D01*
X139342881Y-64389000D01*
X139856337Y-64176320D01*
X140249320Y-63783337D01*
X140462000Y-63269881D01*
X140462000Y-62714119D01*
X142748000Y-62714119D01*
X142748000Y-63269881D01*
X142960680Y-63783337D01*
X143353663Y-64176320D01*
X143867119Y-64389000D01*
X144422881Y-64389000D01*
X144936337Y-64176320D01*
X145329320Y-63783337D01*
X145415000Y-63576487D01*
X145500680Y-63783337D01*
X145893663Y-64176320D01*
X146407119Y-64389000D01*
X146962881Y-64389000D01*
X147476337Y-64176320D01*
X147869320Y-63783337D01*
X148082000Y-63269881D01*
X148082000Y-62714119D01*
X147869320Y-62200663D01*
X147476337Y-61807680D01*
X146962881Y-61595000D01*
X146407119Y-61595000D01*
X145893663Y-61807680D01*
X145500680Y-62200663D01*
X145415000Y-62407513D01*
X145329320Y-62200663D01*
X144936337Y-61807680D01*
X144422881Y-61595000D01*
X143867119Y-61595000D01*
X143353663Y-61807680D01*
X142960680Y-62200663D01*
X142748000Y-62714119D01*
X140462000Y-62714119D01*
X140249320Y-62200663D01*
X139856337Y-61807680D01*
X139342881Y-61595000D01*
X138787119Y-61595000D01*
X138273663Y-61807680D01*
X137880680Y-62200663D01*
X137795000Y-62407513D01*
X137709320Y-62200663D01*
X137316337Y-61807680D01*
X136802881Y-61595000D01*
X136247119Y-61595000D01*
X135733663Y-61807680D01*
X135340680Y-62200663D01*
X135128000Y-62714119D01*
X128524000Y-62714119D01*
X128311320Y-62200663D01*
X127918337Y-61807680D01*
X127404881Y-61595000D01*
X126849119Y-61595000D01*
X126335663Y-61807680D01*
X125942680Y-62200663D01*
X125857000Y-62407513D01*
X125771320Y-62200663D01*
X125378337Y-61807680D01*
X124864881Y-61595000D01*
X124309119Y-61595000D01*
X123795663Y-61807680D01*
X123402680Y-62200663D01*
X123190000Y-62714119D01*
X123190000Y-63269881D01*
X123402680Y-63783337D01*
X123761501Y-64142158D01*
X123761500Y-68873067D01*
X120644568Y-71990000D01*
X120571126Y-71990000D01*
X120190720Y-72147569D01*
X119899569Y-72438720D01*
X119742000Y-72819126D01*
X114350000Y-72819126D01*
X114350000Y-62714119D01*
X115570000Y-62714119D01*
X115570000Y-63269881D01*
X115782680Y-63783337D01*
X116175663Y-64176320D01*
X116689119Y-64389000D01*
X117244881Y-64389000D01*
X117758337Y-64176320D01*
X118151320Y-63783337D01*
X118237000Y-63576487D01*
X118322680Y-63783337D01*
X118715663Y-64176320D01*
X119229119Y-64389000D01*
X119784881Y-64389000D01*
X120298337Y-64176320D01*
X120691320Y-63783337D01*
X120904000Y-63269881D01*
X120904000Y-62714119D01*
X120691320Y-62200663D01*
X120298337Y-61807680D01*
X119784881Y-61595000D01*
X119229119Y-61595000D01*
X118715663Y-61807680D01*
X118322680Y-62200663D01*
X118237000Y-62407513D01*
X118151320Y-62200663D01*
X117758337Y-61807680D01*
X117244881Y-61595000D01*
X116689119Y-61595000D01*
X116175663Y-61807680D01*
X115782680Y-62200663D01*
X115570000Y-62714119D01*
X114350000Y-62714119D01*
X114350000Y-56346544D01*
X114360167Y-56356711D01*
X115227567Y-56716000D01*
X116166433Y-56716000D01*
X117033833Y-56356711D01*
X117697711Y-55692833D01*
X118057000Y-54825433D01*
X118057000Y-53886567D01*
X117697711Y-53019167D01*
X117033833Y-52355289D01*
X116772400Y-52247000D01*
X127321600Y-52247000D01*
X127060167Y-52355289D01*
G04 #@! TD*
M02*
