G04 #@! TF.GenerationSoftware,KiCad,Pcbnew,(5.0.0)*
G04 #@! TF.CreationDate,2018-10-03T21:43:00-05:00*
G04 #@! TF.ProjectId,DriveBoard_Hardware,4472697665426F6172645F4861726477,rev?*
G04 #@! TF.SameCoordinates,Original*
G04 #@! TF.FileFunction,Soldermask,Top*
G04 #@! TF.FilePolarity,Negative*
%FSLAX46Y46*%
G04 Gerber Fmt 4.6, Leading zero omitted, Abs format (unit mm)*
G04 Created by KiCad (PCBNEW (5.0.0)) date 10/03/18 21:43:00*
%MOMM*%
%LPD*%
G01*
G04 APERTURE LIST*
%ADD10C,5.480000*%
%ADD11C,1.920000*%
%ADD12C,1.924000*%
%ADD13C,3.850000*%
%ADD14R,1.900000X1.000000*%
%ADD15C,0.100000*%
%ADD16C,1.350000*%
G04 APERTURE END LIST*
D10*
G04 #@! TO.C,Conn1*
X142519400Y-107951000D03*
X142519400Y-99950000D03*
G04 #@! TD*
D11*
G04 #@! TO.C,U1*
X125730000Y-132080000D03*
X148590000Y-86360000D03*
X146050000Y-86360000D03*
X138430000Y-86360000D03*
X135890000Y-129540000D03*
X140970000Y-86360000D03*
X143510000Y-86360000D03*
X140970000Y-132080000D03*
X146050000Y-129540000D03*
X135890000Y-86360000D03*
X133350000Y-86360000D03*
X146050000Y-132080000D03*
X140970000Y-129540000D03*
X138430000Y-129540000D03*
X125730000Y-129540000D03*
X128270000Y-129540000D03*
X130810000Y-129540000D03*
X133350000Y-129540000D03*
X143510000Y-129540000D03*
X148590000Y-129540000D03*
X128270000Y-132080000D03*
X130810000Y-132080000D03*
X133350000Y-132080000D03*
X135890000Y-132080000D03*
X138430000Y-132080000D03*
X143510000Y-132080000D03*
X148590000Y-132080000D03*
X125730000Y-88900000D03*
X128270000Y-88900000D03*
X130810000Y-88900000D03*
X133350000Y-88900000D03*
X135890000Y-88900000D03*
X138430000Y-88900000D03*
X140970000Y-88900000D03*
X143510000Y-88900000D03*
X146050000Y-88900000D03*
X148590000Y-88900000D03*
X125730000Y-86360000D03*
X128270000Y-86360000D03*
X130810000Y-86360000D03*
G04 #@! TD*
D12*
G04 #@! TO.C,Conn2*
X170815000Y-72009000D03*
X173355000Y-72009000D03*
X175895000Y-72009000D03*
X178435000Y-72009000D03*
X180975000Y-72009000D03*
D13*
X169545000Y-63373000D03*
X182245000Y-63373000D03*
G04 #@! TD*
D14*
G04 #@! TO.C,U2*
X156461500Y-68770500D03*
X156461500Y-70040500D03*
X156461500Y-71310500D03*
X156461500Y-72580500D03*
X156461500Y-73850500D03*
X156461500Y-75120500D03*
X156461500Y-76390500D03*
X156461500Y-77660500D03*
X161861500Y-77660500D03*
X161861500Y-76390500D03*
X161861500Y-75120500D03*
X161861500Y-73850500D03*
X161861500Y-72580500D03*
X161861500Y-71310500D03*
X161861500Y-70040500D03*
X161861500Y-68770500D03*
G04 #@! TD*
D15*
G04 #@! TO.C,C1*
G36*
X154154081Y-69367125D02*
X154186843Y-69371985D01*
X154218971Y-69380033D01*
X154250156Y-69391191D01*
X154280096Y-69405352D01*
X154308505Y-69422379D01*
X154335108Y-69442109D01*
X154359649Y-69464351D01*
X154381891Y-69488892D01*
X154401621Y-69515495D01*
X154418648Y-69543904D01*
X154432809Y-69573844D01*
X154443967Y-69605029D01*
X154452015Y-69637157D01*
X154456875Y-69669919D01*
X154458500Y-69703000D01*
X154458500Y-70378000D01*
X154456875Y-70411081D01*
X154452015Y-70443843D01*
X154443967Y-70475971D01*
X154432809Y-70507156D01*
X154418648Y-70537096D01*
X154401621Y-70565505D01*
X154381891Y-70592108D01*
X154359649Y-70616649D01*
X154335108Y-70638891D01*
X154308505Y-70658621D01*
X154280096Y-70675648D01*
X154250156Y-70689809D01*
X154218971Y-70700967D01*
X154186843Y-70709015D01*
X154154081Y-70713875D01*
X154121000Y-70715500D01*
X153346000Y-70715500D01*
X153312919Y-70713875D01*
X153280157Y-70709015D01*
X153248029Y-70700967D01*
X153216844Y-70689809D01*
X153186904Y-70675648D01*
X153158495Y-70658621D01*
X153131892Y-70638891D01*
X153107351Y-70616649D01*
X153085109Y-70592108D01*
X153065379Y-70565505D01*
X153048352Y-70537096D01*
X153034191Y-70507156D01*
X153023033Y-70475971D01*
X153014985Y-70443843D01*
X153010125Y-70411081D01*
X153008500Y-70378000D01*
X153008500Y-69703000D01*
X153010125Y-69669919D01*
X153014985Y-69637157D01*
X153023033Y-69605029D01*
X153034191Y-69573844D01*
X153048352Y-69543904D01*
X153065379Y-69515495D01*
X153085109Y-69488892D01*
X153107351Y-69464351D01*
X153131892Y-69442109D01*
X153158495Y-69422379D01*
X153186904Y-69405352D01*
X153216844Y-69391191D01*
X153248029Y-69380033D01*
X153280157Y-69371985D01*
X153312919Y-69367125D01*
X153346000Y-69365500D01*
X154121000Y-69365500D01*
X154154081Y-69367125D01*
X154154081Y-69367125D01*
G37*
D16*
X153733500Y-70040500D03*
D15*
G36*
X152404081Y-69367125D02*
X152436843Y-69371985D01*
X152468971Y-69380033D01*
X152500156Y-69391191D01*
X152530096Y-69405352D01*
X152558505Y-69422379D01*
X152585108Y-69442109D01*
X152609649Y-69464351D01*
X152631891Y-69488892D01*
X152651621Y-69515495D01*
X152668648Y-69543904D01*
X152682809Y-69573844D01*
X152693967Y-69605029D01*
X152702015Y-69637157D01*
X152706875Y-69669919D01*
X152708500Y-69703000D01*
X152708500Y-70378000D01*
X152706875Y-70411081D01*
X152702015Y-70443843D01*
X152693967Y-70475971D01*
X152682809Y-70507156D01*
X152668648Y-70537096D01*
X152651621Y-70565505D01*
X152631891Y-70592108D01*
X152609649Y-70616649D01*
X152585108Y-70638891D01*
X152558505Y-70658621D01*
X152530096Y-70675648D01*
X152500156Y-70689809D01*
X152468971Y-70700967D01*
X152436843Y-70709015D01*
X152404081Y-70713875D01*
X152371000Y-70715500D01*
X151596000Y-70715500D01*
X151562919Y-70713875D01*
X151530157Y-70709015D01*
X151498029Y-70700967D01*
X151466844Y-70689809D01*
X151436904Y-70675648D01*
X151408495Y-70658621D01*
X151381892Y-70638891D01*
X151357351Y-70616649D01*
X151335109Y-70592108D01*
X151315379Y-70565505D01*
X151298352Y-70537096D01*
X151284191Y-70507156D01*
X151273033Y-70475971D01*
X151264985Y-70443843D01*
X151260125Y-70411081D01*
X151258500Y-70378000D01*
X151258500Y-69703000D01*
X151260125Y-69669919D01*
X151264985Y-69637157D01*
X151273033Y-69605029D01*
X151284191Y-69573844D01*
X151298352Y-69543904D01*
X151315379Y-69515495D01*
X151335109Y-69488892D01*
X151357351Y-69464351D01*
X151381892Y-69442109D01*
X151408495Y-69422379D01*
X151436904Y-69405352D01*
X151466844Y-69391191D01*
X151498029Y-69380033D01*
X151530157Y-69371985D01*
X151562919Y-69367125D01*
X151596000Y-69365500D01*
X152371000Y-69365500D01*
X152404081Y-69367125D01*
X152404081Y-69367125D01*
G37*
D16*
X151983500Y-70040500D03*
G04 #@! TD*
D15*
G04 #@! TO.C,C2*
G36*
X152721581Y-74510625D02*
X152754343Y-74515485D01*
X152786471Y-74523533D01*
X152817656Y-74534691D01*
X152847596Y-74548852D01*
X152876005Y-74565879D01*
X152902608Y-74585609D01*
X152927149Y-74607851D01*
X152949391Y-74632392D01*
X152969121Y-74658995D01*
X152986148Y-74687404D01*
X153000309Y-74717344D01*
X153011467Y-74748529D01*
X153019515Y-74780657D01*
X153024375Y-74813419D01*
X153026000Y-74846500D01*
X153026000Y-75521500D01*
X153024375Y-75554581D01*
X153019515Y-75587343D01*
X153011467Y-75619471D01*
X153000309Y-75650656D01*
X152986148Y-75680596D01*
X152969121Y-75709005D01*
X152949391Y-75735608D01*
X152927149Y-75760149D01*
X152902608Y-75782391D01*
X152876005Y-75802121D01*
X152847596Y-75819148D01*
X152817656Y-75833309D01*
X152786471Y-75844467D01*
X152754343Y-75852515D01*
X152721581Y-75857375D01*
X152688500Y-75859000D01*
X151913500Y-75859000D01*
X151880419Y-75857375D01*
X151847657Y-75852515D01*
X151815529Y-75844467D01*
X151784344Y-75833309D01*
X151754404Y-75819148D01*
X151725995Y-75802121D01*
X151699392Y-75782391D01*
X151674851Y-75760149D01*
X151652609Y-75735608D01*
X151632879Y-75709005D01*
X151615852Y-75680596D01*
X151601691Y-75650656D01*
X151590533Y-75619471D01*
X151582485Y-75587343D01*
X151577625Y-75554581D01*
X151576000Y-75521500D01*
X151576000Y-74846500D01*
X151577625Y-74813419D01*
X151582485Y-74780657D01*
X151590533Y-74748529D01*
X151601691Y-74717344D01*
X151615852Y-74687404D01*
X151632879Y-74658995D01*
X151652609Y-74632392D01*
X151674851Y-74607851D01*
X151699392Y-74585609D01*
X151725995Y-74565879D01*
X151754404Y-74548852D01*
X151784344Y-74534691D01*
X151815529Y-74523533D01*
X151847657Y-74515485D01*
X151880419Y-74510625D01*
X151913500Y-74509000D01*
X152688500Y-74509000D01*
X152721581Y-74510625D01*
X152721581Y-74510625D01*
G37*
D16*
X152301000Y-75184000D03*
D15*
G36*
X154471581Y-74510625D02*
X154504343Y-74515485D01*
X154536471Y-74523533D01*
X154567656Y-74534691D01*
X154597596Y-74548852D01*
X154626005Y-74565879D01*
X154652608Y-74585609D01*
X154677149Y-74607851D01*
X154699391Y-74632392D01*
X154719121Y-74658995D01*
X154736148Y-74687404D01*
X154750309Y-74717344D01*
X154761467Y-74748529D01*
X154769515Y-74780657D01*
X154774375Y-74813419D01*
X154776000Y-74846500D01*
X154776000Y-75521500D01*
X154774375Y-75554581D01*
X154769515Y-75587343D01*
X154761467Y-75619471D01*
X154750309Y-75650656D01*
X154736148Y-75680596D01*
X154719121Y-75709005D01*
X154699391Y-75735608D01*
X154677149Y-75760149D01*
X154652608Y-75782391D01*
X154626005Y-75802121D01*
X154597596Y-75819148D01*
X154567656Y-75833309D01*
X154536471Y-75844467D01*
X154504343Y-75852515D01*
X154471581Y-75857375D01*
X154438500Y-75859000D01*
X153663500Y-75859000D01*
X153630419Y-75857375D01*
X153597657Y-75852515D01*
X153565529Y-75844467D01*
X153534344Y-75833309D01*
X153504404Y-75819148D01*
X153475995Y-75802121D01*
X153449392Y-75782391D01*
X153424851Y-75760149D01*
X153402609Y-75735608D01*
X153382879Y-75709005D01*
X153365852Y-75680596D01*
X153351691Y-75650656D01*
X153340533Y-75619471D01*
X153332485Y-75587343D01*
X153327625Y-75554581D01*
X153326000Y-75521500D01*
X153326000Y-74846500D01*
X153327625Y-74813419D01*
X153332485Y-74780657D01*
X153340533Y-74748529D01*
X153351691Y-74717344D01*
X153365852Y-74687404D01*
X153382879Y-74658995D01*
X153402609Y-74632392D01*
X153424851Y-74607851D01*
X153449392Y-74585609D01*
X153475995Y-74565879D01*
X153504404Y-74548852D01*
X153534344Y-74534691D01*
X153565529Y-74523533D01*
X153597657Y-74515485D01*
X153630419Y-74510625D01*
X153663500Y-74509000D01*
X154438500Y-74509000D01*
X154471581Y-74510625D01*
X154471581Y-74510625D01*
G37*
D16*
X154051000Y-75184000D03*
G04 #@! TD*
D15*
G04 #@! TO.C,C3*
G36*
X129897081Y-93179625D02*
X129929843Y-93184485D01*
X129961971Y-93192533D01*
X129993156Y-93203691D01*
X130023096Y-93217852D01*
X130051505Y-93234879D01*
X130078108Y-93254609D01*
X130102649Y-93276851D01*
X130124891Y-93301392D01*
X130144621Y-93327995D01*
X130161648Y-93356404D01*
X130175809Y-93386344D01*
X130186967Y-93417529D01*
X130195015Y-93449657D01*
X130199875Y-93482419D01*
X130201500Y-93515500D01*
X130201500Y-94190500D01*
X130199875Y-94223581D01*
X130195015Y-94256343D01*
X130186967Y-94288471D01*
X130175809Y-94319656D01*
X130161648Y-94349596D01*
X130144621Y-94378005D01*
X130124891Y-94404608D01*
X130102649Y-94429149D01*
X130078108Y-94451391D01*
X130051505Y-94471121D01*
X130023096Y-94488148D01*
X129993156Y-94502309D01*
X129961971Y-94513467D01*
X129929843Y-94521515D01*
X129897081Y-94526375D01*
X129864000Y-94528000D01*
X129089000Y-94528000D01*
X129055919Y-94526375D01*
X129023157Y-94521515D01*
X128991029Y-94513467D01*
X128959844Y-94502309D01*
X128929904Y-94488148D01*
X128901495Y-94471121D01*
X128874892Y-94451391D01*
X128850351Y-94429149D01*
X128828109Y-94404608D01*
X128808379Y-94378005D01*
X128791352Y-94349596D01*
X128777191Y-94319656D01*
X128766033Y-94288471D01*
X128757985Y-94256343D01*
X128753125Y-94223581D01*
X128751500Y-94190500D01*
X128751500Y-93515500D01*
X128753125Y-93482419D01*
X128757985Y-93449657D01*
X128766033Y-93417529D01*
X128777191Y-93386344D01*
X128791352Y-93356404D01*
X128808379Y-93327995D01*
X128828109Y-93301392D01*
X128850351Y-93276851D01*
X128874892Y-93254609D01*
X128901495Y-93234879D01*
X128929904Y-93217852D01*
X128959844Y-93203691D01*
X128991029Y-93192533D01*
X129023157Y-93184485D01*
X129055919Y-93179625D01*
X129089000Y-93178000D01*
X129864000Y-93178000D01*
X129897081Y-93179625D01*
X129897081Y-93179625D01*
G37*
D16*
X129476500Y-93853000D03*
D15*
G36*
X128147081Y-93179625D02*
X128179843Y-93184485D01*
X128211971Y-93192533D01*
X128243156Y-93203691D01*
X128273096Y-93217852D01*
X128301505Y-93234879D01*
X128328108Y-93254609D01*
X128352649Y-93276851D01*
X128374891Y-93301392D01*
X128394621Y-93327995D01*
X128411648Y-93356404D01*
X128425809Y-93386344D01*
X128436967Y-93417529D01*
X128445015Y-93449657D01*
X128449875Y-93482419D01*
X128451500Y-93515500D01*
X128451500Y-94190500D01*
X128449875Y-94223581D01*
X128445015Y-94256343D01*
X128436967Y-94288471D01*
X128425809Y-94319656D01*
X128411648Y-94349596D01*
X128394621Y-94378005D01*
X128374891Y-94404608D01*
X128352649Y-94429149D01*
X128328108Y-94451391D01*
X128301505Y-94471121D01*
X128273096Y-94488148D01*
X128243156Y-94502309D01*
X128211971Y-94513467D01*
X128179843Y-94521515D01*
X128147081Y-94526375D01*
X128114000Y-94528000D01*
X127339000Y-94528000D01*
X127305919Y-94526375D01*
X127273157Y-94521515D01*
X127241029Y-94513467D01*
X127209844Y-94502309D01*
X127179904Y-94488148D01*
X127151495Y-94471121D01*
X127124892Y-94451391D01*
X127100351Y-94429149D01*
X127078109Y-94404608D01*
X127058379Y-94378005D01*
X127041352Y-94349596D01*
X127027191Y-94319656D01*
X127016033Y-94288471D01*
X127007985Y-94256343D01*
X127003125Y-94223581D01*
X127001500Y-94190500D01*
X127001500Y-93515500D01*
X127003125Y-93482419D01*
X127007985Y-93449657D01*
X127016033Y-93417529D01*
X127027191Y-93386344D01*
X127041352Y-93356404D01*
X127058379Y-93327995D01*
X127078109Y-93301392D01*
X127100351Y-93276851D01*
X127124892Y-93254609D01*
X127151495Y-93234879D01*
X127179904Y-93217852D01*
X127209844Y-93203691D01*
X127241029Y-93192533D01*
X127273157Y-93184485D01*
X127305919Y-93179625D01*
X127339000Y-93178000D01*
X128114000Y-93178000D01*
X128147081Y-93179625D01*
X128147081Y-93179625D01*
G37*
D16*
X127726500Y-93853000D03*
G04 #@! TD*
D15*
G04 #@! TO.C,C4*
G36*
X147436581Y-68442125D02*
X147469343Y-68446985D01*
X147501471Y-68455033D01*
X147532656Y-68466191D01*
X147562596Y-68480352D01*
X147591005Y-68497379D01*
X147617608Y-68517109D01*
X147642149Y-68539351D01*
X147664391Y-68563892D01*
X147684121Y-68590495D01*
X147701148Y-68618904D01*
X147715309Y-68648844D01*
X147726467Y-68680029D01*
X147734515Y-68712157D01*
X147739375Y-68744919D01*
X147741000Y-68778000D01*
X147741000Y-69553000D01*
X147739375Y-69586081D01*
X147734515Y-69618843D01*
X147726467Y-69650971D01*
X147715309Y-69682156D01*
X147701148Y-69712096D01*
X147684121Y-69740505D01*
X147664391Y-69767108D01*
X147642149Y-69791649D01*
X147617608Y-69813891D01*
X147591005Y-69833621D01*
X147562596Y-69850648D01*
X147532656Y-69864809D01*
X147501471Y-69875967D01*
X147469343Y-69884015D01*
X147436581Y-69888875D01*
X147403500Y-69890500D01*
X146728500Y-69890500D01*
X146695419Y-69888875D01*
X146662657Y-69884015D01*
X146630529Y-69875967D01*
X146599344Y-69864809D01*
X146569404Y-69850648D01*
X146540995Y-69833621D01*
X146514392Y-69813891D01*
X146489851Y-69791649D01*
X146467609Y-69767108D01*
X146447879Y-69740505D01*
X146430852Y-69712096D01*
X146416691Y-69682156D01*
X146405533Y-69650971D01*
X146397485Y-69618843D01*
X146392625Y-69586081D01*
X146391000Y-69553000D01*
X146391000Y-68778000D01*
X146392625Y-68744919D01*
X146397485Y-68712157D01*
X146405533Y-68680029D01*
X146416691Y-68648844D01*
X146430852Y-68618904D01*
X146447879Y-68590495D01*
X146467609Y-68563892D01*
X146489851Y-68539351D01*
X146514392Y-68517109D01*
X146540995Y-68497379D01*
X146569404Y-68480352D01*
X146599344Y-68466191D01*
X146630529Y-68455033D01*
X146662657Y-68446985D01*
X146695419Y-68442125D01*
X146728500Y-68440500D01*
X147403500Y-68440500D01*
X147436581Y-68442125D01*
X147436581Y-68442125D01*
G37*
D16*
X147066000Y-69165500D03*
D15*
G36*
X147436581Y-70192125D02*
X147469343Y-70196985D01*
X147501471Y-70205033D01*
X147532656Y-70216191D01*
X147562596Y-70230352D01*
X147591005Y-70247379D01*
X147617608Y-70267109D01*
X147642149Y-70289351D01*
X147664391Y-70313892D01*
X147684121Y-70340495D01*
X147701148Y-70368904D01*
X147715309Y-70398844D01*
X147726467Y-70430029D01*
X147734515Y-70462157D01*
X147739375Y-70494919D01*
X147741000Y-70528000D01*
X147741000Y-71303000D01*
X147739375Y-71336081D01*
X147734515Y-71368843D01*
X147726467Y-71400971D01*
X147715309Y-71432156D01*
X147701148Y-71462096D01*
X147684121Y-71490505D01*
X147664391Y-71517108D01*
X147642149Y-71541649D01*
X147617608Y-71563891D01*
X147591005Y-71583621D01*
X147562596Y-71600648D01*
X147532656Y-71614809D01*
X147501471Y-71625967D01*
X147469343Y-71634015D01*
X147436581Y-71638875D01*
X147403500Y-71640500D01*
X146728500Y-71640500D01*
X146695419Y-71638875D01*
X146662657Y-71634015D01*
X146630529Y-71625967D01*
X146599344Y-71614809D01*
X146569404Y-71600648D01*
X146540995Y-71583621D01*
X146514392Y-71563891D01*
X146489851Y-71541649D01*
X146467609Y-71517108D01*
X146447879Y-71490505D01*
X146430852Y-71462096D01*
X146416691Y-71432156D01*
X146405533Y-71400971D01*
X146397485Y-71368843D01*
X146392625Y-71336081D01*
X146391000Y-71303000D01*
X146391000Y-70528000D01*
X146392625Y-70494919D01*
X146397485Y-70462157D01*
X146405533Y-70430029D01*
X146416691Y-70398844D01*
X146430852Y-70368904D01*
X146447879Y-70340495D01*
X146467609Y-70313892D01*
X146489851Y-70289351D01*
X146514392Y-70267109D01*
X146540995Y-70247379D01*
X146569404Y-70230352D01*
X146599344Y-70216191D01*
X146630529Y-70205033D01*
X146662657Y-70196985D01*
X146695419Y-70192125D01*
X146728500Y-70190500D01*
X147403500Y-70190500D01*
X147436581Y-70192125D01*
X147436581Y-70192125D01*
G37*
D16*
X147066000Y-70915500D03*
G04 #@! TD*
D15*
G04 #@! TO.C,C5*
G36*
X147246081Y-73924625D02*
X147278843Y-73929485D01*
X147310971Y-73937533D01*
X147342156Y-73948691D01*
X147372096Y-73962852D01*
X147400505Y-73979879D01*
X147427108Y-73999609D01*
X147451649Y-74021851D01*
X147473891Y-74046392D01*
X147493621Y-74072995D01*
X147510648Y-74101404D01*
X147524809Y-74131344D01*
X147535967Y-74162529D01*
X147544015Y-74194657D01*
X147548875Y-74227419D01*
X147550500Y-74260500D01*
X147550500Y-75035500D01*
X147548875Y-75068581D01*
X147544015Y-75101343D01*
X147535967Y-75133471D01*
X147524809Y-75164656D01*
X147510648Y-75194596D01*
X147493621Y-75223005D01*
X147473891Y-75249608D01*
X147451649Y-75274149D01*
X147427108Y-75296391D01*
X147400505Y-75316121D01*
X147372096Y-75333148D01*
X147342156Y-75347309D01*
X147310971Y-75358467D01*
X147278843Y-75366515D01*
X147246081Y-75371375D01*
X147213000Y-75373000D01*
X146538000Y-75373000D01*
X146504919Y-75371375D01*
X146472157Y-75366515D01*
X146440029Y-75358467D01*
X146408844Y-75347309D01*
X146378904Y-75333148D01*
X146350495Y-75316121D01*
X146323892Y-75296391D01*
X146299351Y-75274149D01*
X146277109Y-75249608D01*
X146257379Y-75223005D01*
X146240352Y-75194596D01*
X146226191Y-75164656D01*
X146215033Y-75133471D01*
X146206985Y-75101343D01*
X146202125Y-75068581D01*
X146200500Y-75035500D01*
X146200500Y-74260500D01*
X146202125Y-74227419D01*
X146206985Y-74194657D01*
X146215033Y-74162529D01*
X146226191Y-74131344D01*
X146240352Y-74101404D01*
X146257379Y-74072995D01*
X146277109Y-74046392D01*
X146299351Y-74021851D01*
X146323892Y-73999609D01*
X146350495Y-73979879D01*
X146378904Y-73962852D01*
X146408844Y-73948691D01*
X146440029Y-73937533D01*
X146472157Y-73929485D01*
X146504919Y-73924625D01*
X146538000Y-73923000D01*
X147213000Y-73923000D01*
X147246081Y-73924625D01*
X147246081Y-73924625D01*
G37*
D16*
X146875500Y-74648000D03*
D15*
G36*
X147246081Y-72174625D02*
X147278843Y-72179485D01*
X147310971Y-72187533D01*
X147342156Y-72198691D01*
X147372096Y-72212852D01*
X147400505Y-72229879D01*
X147427108Y-72249609D01*
X147451649Y-72271851D01*
X147473891Y-72296392D01*
X147493621Y-72322995D01*
X147510648Y-72351404D01*
X147524809Y-72381344D01*
X147535967Y-72412529D01*
X147544015Y-72444657D01*
X147548875Y-72477419D01*
X147550500Y-72510500D01*
X147550500Y-73285500D01*
X147548875Y-73318581D01*
X147544015Y-73351343D01*
X147535967Y-73383471D01*
X147524809Y-73414656D01*
X147510648Y-73444596D01*
X147493621Y-73473005D01*
X147473891Y-73499608D01*
X147451649Y-73524149D01*
X147427108Y-73546391D01*
X147400505Y-73566121D01*
X147372096Y-73583148D01*
X147342156Y-73597309D01*
X147310971Y-73608467D01*
X147278843Y-73616515D01*
X147246081Y-73621375D01*
X147213000Y-73623000D01*
X146538000Y-73623000D01*
X146504919Y-73621375D01*
X146472157Y-73616515D01*
X146440029Y-73608467D01*
X146408844Y-73597309D01*
X146378904Y-73583148D01*
X146350495Y-73566121D01*
X146323892Y-73546391D01*
X146299351Y-73524149D01*
X146277109Y-73499608D01*
X146257379Y-73473005D01*
X146240352Y-73444596D01*
X146226191Y-73414656D01*
X146215033Y-73383471D01*
X146206985Y-73351343D01*
X146202125Y-73318581D01*
X146200500Y-73285500D01*
X146200500Y-72510500D01*
X146202125Y-72477419D01*
X146206985Y-72444657D01*
X146215033Y-72412529D01*
X146226191Y-72381344D01*
X146240352Y-72351404D01*
X146257379Y-72322995D01*
X146277109Y-72296392D01*
X146299351Y-72271851D01*
X146323892Y-72249609D01*
X146350495Y-72229879D01*
X146378904Y-72212852D01*
X146408844Y-72198691D01*
X146440029Y-72187533D01*
X146472157Y-72179485D01*
X146504919Y-72174625D01*
X146538000Y-72173000D01*
X147213000Y-72173000D01*
X147246081Y-72174625D01*
X147246081Y-72174625D01*
G37*
D16*
X146875500Y-72898000D03*
G04 #@! TD*
D15*
G04 #@! TO.C,C6*
G36*
X163184581Y-85114625D02*
X163217343Y-85119485D01*
X163249471Y-85127533D01*
X163280656Y-85138691D01*
X163310596Y-85152852D01*
X163339005Y-85169879D01*
X163365608Y-85189609D01*
X163390149Y-85211851D01*
X163412391Y-85236392D01*
X163432121Y-85262995D01*
X163449148Y-85291404D01*
X163463309Y-85321344D01*
X163474467Y-85352529D01*
X163482515Y-85384657D01*
X163487375Y-85417419D01*
X163489000Y-85450500D01*
X163489000Y-86225500D01*
X163487375Y-86258581D01*
X163482515Y-86291343D01*
X163474467Y-86323471D01*
X163463309Y-86354656D01*
X163449148Y-86384596D01*
X163432121Y-86413005D01*
X163412391Y-86439608D01*
X163390149Y-86464149D01*
X163365608Y-86486391D01*
X163339005Y-86506121D01*
X163310596Y-86523148D01*
X163280656Y-86537309D01*
X163249471Y-86548467D01*
X163217343Y-86556515D01*
X163184581Y-86561375D01*
X163151500Y-86563000D01*
X162476500Y-86563000D01*
X162443419Y-86561375D01*
X162410657Y-86556515D01*
X162378529Y-86548467D01*
X162347344Y-86537309D01*
X162317404Y-86523148D01*
X162288995Y-86506121D01*
X162262392Y-86486391D01*
X162237851Y-86464149D01*
X162215609Y-86439608D01*
X162195879Y-86413005D01*
X162178852Y-86384596D01*
X162164691Y-86354656D01*
X162153533Y-86323471D01*
X162145485Y-86291343D01*
X162140625Y-86258581D01*
X162139000Y-86225500D01*
X162139000Y-85450500D01*
X162140625Y-85417419D01*
X162145485Y-85384657D01*
X162153533Y-85352529D01*
X162164691Y-85321344D01*
X162178852Y-85291404D01*
X162195879Y-85262995D01*
X162215609Y-85236392D01*
X162237851Y-85211851D01*
X162262392Y-85189609D01*
X162288995Y-85169879D01*
X162317404Y-85152852D01*
X162347344Y-85138691D01*
X162378529Y-85127533D01*
X162410657Y-85119485D01*
X162443419Y-85114625D01*
X162476500Y-85113000D01*
X163151500Y-85113000D01*
X163184581Y-85114625D01*
X163184581Y-85114625D01*
G37*
D16*
X162814000Y-85838000D03*
D15*
G36*
X163184581Y-83364625D02*
X163217343Y-83369485D01*
X163249471Y-83377533D01*
X163280656Y-83388691D01*
X163310596Y-83402852D01*
X163339005Y-83419879D01*
X163365608Y-83439609D01*
X163390149Y-83461851D01*
X163412391Y-83486392D01*
X163432121Y-83512995D01*
X163449148Y-83541404D01*
X163463309Y-83571344D01*
X163474467Y-83602529D01*
X163482515Y-83634657D01*
X163487375Y-83667419D01*
X163489000Y-83700500D01*
X163489000Y-84475500D01*
X163487375Y-84508581D01*
X163482515Y-84541343D01*
X163474467Y-84573471D01*
X163463309Y-84604656D01*
X163449148Y-84634596D01*
X163432121Y-84663005D01*
X163412391Y-84689608D01*
X163390149Y-84714149D01*
X163365608Y-84736391D01*
X163339005Y-84756121D01*
X163310596Y-84773148D01*
X163280656Y-84787309D01*
X163249471Y-84798467D01*
X163217343Y-84806515D01*
X163184581Y-84811375D01*
X163151500Y-84813000D01*
X162476500Y-84813000D01*
X162443419Y-84811375D01*
X162410657Y-84806515D01*
X162378529Y-84798467D01*
X162347344Y-84787309D01*
X162317404Y-84773148D01*
X162288995Y-84756121D01*
X162262392Y-84736391D01*
X162237851Y-84714149D01*
X162215609Y-84689608D01*
X162195879Y-84663005D01*
X162178852Y-84634596D01*
X162164691Y-84604656D01*
X162153533Y-84573471D01*
X162145485Y-84541343D01*
X162140625Y-84508581D01*
X162139000Y-84475500D01*
X162139000Y-83700500D01*
X162140625Y-83667419D01*
X162145485Y-83634657D01*
X162153533Y-83602529D01*
X162164691Y-83571344D01*
X162178852Y-83541404D01*
X162195879Y-83512995D01*
X162215609Y-83486392D01*
X162237851Y-83461851D01*
X162262392Y-83439609D01*
X162288995Y-83419879D01*
X162317404Y-83402852D01*
X162347344Y-83388691D01*
X162378529Y-83377533D01*
X162410657Y-83369485D01*
X162443419Y-83364625D01*
X162476500Y-83363000D01*
X163151500Y-83363000D01*
X163184581Y-83364625D01*
X163184581Y-83364625D01*
G37*
D16*
X162814000Y-84088000D03*
G04 #@! TD*
D12*
G04 #@! TO.C,Conn3*
X130365500Y-72009000D03*
X132905500Y-72009000D03*
X135445500Y-72009000D03*
X137985500Y-72009000D03*
X140525500Y-72009000D03*
D13*
X129095500Y-63373000D03*
X141795500Y-63373000D03*
G04 #@! TD*
D12*
G04 #@! TO.C,U3*
X168592500Y-88455500D03*
X168592500Y-85915500D03*
X168592500Y-83375500D03*
G04 #@! TD*
M02*
