G04 #@! TF.GenerationSoftware,KiCad,Pcbnew,(5.0.0)*
G04 #@! TF.CreationDate,2018-10-03T21:44:39-05:00*
G04 #@! TF.ProjectId,DriveBoard_Hardware,4472697665426F6172645F4861726477,rev?*
G04 #@! TF.SameCoordinates,Original*
G04 #@! TF.FileFunction,Soldermask,Top*
G04 #@! TF.FilePolarity,Negative*
%FSLAX46Y46*%
G04 Gerber Fmt 4.6, Leading zero omitted, Abs format (unit mm)*
G04 Created by KiCad (PCBNEW (5.0.0)) date 10/03/18 21:44:39*
%MOMM*%
%LPD*%
G01*
G04 APERTURE LIST*
%ADD10C,1.520000*%
%ADD11C,0.100000*%
%ADD12C,0.950000*%
%ADD13C,5.080000*%
%ADD14C,1.524000*%
%ADD15C,3.450000*%
%ADD16R,1.500000X0.600000*%
G04 APERTURE END LIST*
D10*
G04 #@! TO.C,U1*
X114935000Y-124460000D03*
X137795000Y-78740000D03*
X135255000Y-78740000D03*
X127635000Y-78740000D03*
X125095000Y-121920000D03*
X130175000Y-78740000D03*
X132715000Y-78740000D03*
X130175000Y-124460000D03*
X135255000Y-121920000D03*
X125095000Y-78740000D03*
X122555000Y-78740000D03*
X135255000Y-124460000D03*
X130175000Y-121920000D03*
X127635000Y-121920000D03*
X114935000Y-121920000D03*
X117475000Y-121920000D03*
X120015000Y-121920000D03*
X122555000Y-121920000D03*
X132715000Y-121920000D03*
X137795000Y-121920000D03*
X117475000Y-124460000D03*
X120015000Y-124460000D03*
X122555000Y-124460000D03*
X125095000Y-124460000D03*
X127635000Y-124460000D03*
X132715000Y-124460000D03*
X137795000Y-124460000D03*
X114935000Y-81280000D03*
X117475000Y-81280000D03*
X120015000Y-81280000D03*
X122555000Y-81280000D03*
X125095000Y-81280000D03*
X127635000Y-81280000D03*
X130175000Y-81280000D03*
X132715000Y-81280000D03*
X135255000Y-81280000D03*
X137795000Y-81280000D03*
X114935000Y-78740000D03*
X117475000Y-78740000D03*
X120015000Y-78740000D03*
G04 #@! TD*
D11*
G04 #@! TO.C,C1*
G36*
X119513779Y-102600144D02*
X119536834Y-102603563D01*
X119559443Y-102609227D01*
X119581387Y-102617079D01*
X119602457Y-102627044D01*
X119622448Y-102639026D01*
X119641168Y-102652910D01*
X119658438Y-102668562D01*
X119674090Y-102685832D01*
X119687974Y-102704552D01*
X119699956Y-102724543D01*
X119709921Y-102745613D01*
X119717773Y-102767557D01*
X119723437Y-102790166D01*
X119726856Y-102813221D01*
X119728000Y-102836500D01*
X119728000Y-103411500D01*
X119726856Y-103434779D01*
X119723437Y-103457834D01*
X119717773Y-103480443D01*
X119709921Y-103502387D01*
X119699956Y-103523457D01*
X119687974Y-103543448D01*
X119674090Y-103562168D01*
X119658438Y-103579438D01*
X119641168Y-103595090D01*
X119622448Y-103608974D01*
X119602457Y-103620956D01*
X119581387Y-103630921D01*
X119559443Y-103638773D01*
X119536834Y-103644437D01*
X119513779Y-103647856D01*
X119490500Y-103649000D01*
X119015500Y-103649000D01*
X118992221Y-103647856D01*
X118969166Y-103644437D01*
X118946557Y-103638773D01*
X118924613Y-103630921D01*
X118903543Y-103620956D01*
X118883552Y-103608974D01*
X118864832Y-103595090D01*
X118847562Y-103579438D01*
X118831910Y-103562168D01*
X118818026Y-103543448D01*
X118806044Y-103523457D01*
X118796079Y-103502387D01*
X118788227Y-103480443D01*
X118782563Y-103457834D01*
X118779144Y-103434779D01*
X118778000Y-103411500D01*
X118778000Y-102836500D01*
X118779144Y-102813221D01*
X118782563Y-102790166D01*
X118788227Y-102767557D01*
X118796079Y-102745613D01*
X118806044Y-102724543D01*
X118818026Y-102704552D01*
X118831910Y-102685832D01*
X118847562Y-102668562D01*
X118864832Y-102652910D01*
X118883552Y-102639026D01*
X118903543Y-102627044D01*
X118924613Y-102617079D01*
X118946557Y-102609227D01*
X118969166Y-102603563D01*
X118992221Y-102600144D01*
X119015500Y-102599000D01*
X119490500Y-102599000D01*
X119513779Y-102600144D01*
X119513779Y-102600144D01*
G37*
D12*
X119253000Y-103124000D03*
D11*
G36*
X119513779Y-104350144D02*
X119536834Y-104353563D01*
X119559443Y-104359227D01*
X119581387Y-104367079D01*
X119602457Y-104377044D01*
X119622448Y-104389026D01*
X119641168Y-104402910D01*
X119658438Y-104418562D01*
X119674090Y-104435832D01*
X119687974Y-104454552D01*
X119699956Y-104474543D01*
X119709921Y-104495613D01*
X119717773Y-104517557D01*
X119723437Y-104540166D01*
X119726856Y-104563221D01*
X119728000Y-104586500D01*
X119728000Y-105161500D01*
X119726856Y-105184779D01*
X119723437Y-105207834D01*
X119717773Y-105230443D01*
X119709921Y-105252387D01*
X119699956Y-105273457D01*
X119687974Y-105293448D01*
X119674090Y-105312168D01*
X119658438Y-105329438D01*
X119641168Y-105345090D01*
X119622448Y-105358974D01*
X119602457Y-105370956D01*
X119581387Y-105380921D01*
X119559443Y-105388773D01*
X119536834Y-105394437D01*
X119513779Y-105397856D01*
X119490500Y-105399000D01*
X119015500Y-105399000D01*
X118992221Y-105397856D01*
X118969166Y-105394437D01*
X118946557Y-105388773D01*
X118924613Y-105380921D01*
X118903543Y-105370956D01*
X118883552Y-105358974D01*
X118864832Y-105345090D01*
X118847562Y-105329438D01*
X118831910Y-105312168D01*
X118818026Y-105293448D01*
X118806044Y-105273457D01*
X118796079Y-105252387D01*
X118788227Y-105230443D01*
X118782563Y-105207834D01*
X118779144Y-105184779D01*
X118778000Y-105161500D01*
X118778000Y-104586500D01*
X118779144Y-104563221D01*
X118782563Y-104540166D01*
X118788227Y-104517557D01*
X118796079Y-104495613D01*
X118806044Y-104474543D01*
X118818026Y-104454552D01*
X118831910Y-104435832D01*
X118847562Y-104418562D01*
X118864832Y-104402910D01*
X118883552Y-104389026D01*
X118903543Y-104377044D01*
X118924613Y-104367079D01*
X118946557Y-104359227D01*
X118969166Y-104353563D01*
X118992221Y-104350144D01*
X119015500Y-104349000D01*
X119490500Y-104349000D01*
X119513779Y-104350144D01*
X119513779Y-104350144D01*
G37*
D12*
X119253000Y-104874000D03*
G04 #@! TD*
D11*
G04 #@! TO.C,C2*
G36*
X119513779Y-115159144D02*
X119536834Y-115162563D01*
X119559443Y-115168227D01*
X119581387Y-115176079D01*
X119602457Y-115186044D01*
X119622448Y-115198026D01*
X119641168Y-115211910D01*
X119658438Y-115227562D01*
X119674090Y-115244832D01*
X119687974Y-115263552D01*
X119699956Y-115283543D01*
X119709921Y-115304613D01*
X119717773Y-115326557D01*
X119723437Y-115349166D01*
X119726856Y-115372221D01*
X119728000Y-115395500D01*
X119728000Y-115970500D01*
X119726856Y-115993779D01*
X119723437Y-116016834D01*
X119717773Y-116039443D01*
X119709921Y-116061387D01*
X119699956Y-116082457D01*
X119687974Y-116102448D01*
X119674090Y-116121168D01*
X119658438Y-116138438D01*
X119641168Y-116154090D01*
X119622448Y-116167974D01*
X119602457Y-116179956D01*
X119581387Y-116189921D01*
X119559443Y-116197773D01*
X119536834Y-116203437D01*
X119513779Y-116206856D01*
X119490500Y-116208000D01*
X119015500Y-116208000D01*
X118992221Y-116206856D01*
X118969166Y-116203437D01*
X118946557Y-116197773D01*
X118924613Y-116189921D01*
X118903543Y-116179956D01*
X118883552Y-116167974D01*
X118864832Y-116154090D01*
X118847562Y-116138438D01*
X118831910Y-116121168D01*
X118818026Y-116102448D01*
X118806044Y-116082457D01*
X118796079Y-116061387D01*
X118788227Y-116039443D01*
X118782563Y-116016834D01*
X118779144Y-115993779D01*
X118778000Y-115970500D01*
X118778000Y-115395500D01*
X118779144Y-115372221D01*
X118782563Y-115349166D01*
X118788227Y-115326557D01*
X118796079Y-115304613D01*
X118806044Y-115283543D01*
X118818026Y-115263552D01*
X118831910Y-115244832D01*
X118847562Y-115227562D01*
X118864832Y-115211910D01*
X118883552Y-115198026D01*
X118903543Y-115186044D01*
X118924613Y-115176079D01*
X118946557Y-115168227D01*
X118969166Y-115162563D01*
X118992221Y-115159144D01*
X119015500Y-115158000D01*
X119490500Y-115158000D01*
X119513779Y-115159144D01*
X119513779Y-115159144D01*
G37*
D12*
X119253000Y-115683000D03*
D11*
G36*
X119513779Y-113409144D02*
X119536834Y-113412563D01*
X119559443Y-113418227D01*
X119581387Y-113426079D01*
X119602457Y-113436044D01*
X119622448Y-113448026D01*
X119641168Y-113461910D01*
X119658438Y-113477562D01*
X119674090Y-113494832D01*
X119687974Y-113513552D01*
X119699956Y-113533543D01*
X119709921Y-113554613D01*
X119717773Y-113576557D01*
X119723437Y-113599166D01*
X119726856Y-113622221D01*
X119728000Y-113645500D01*
X119728000Y-114220500D01*
X119726856Y-114243779D01*
X119723437Y-114266834D01*
X119717773Y-114289443D01*
X119709921Y-114311387D01*
X119699956Y-114332457D01*
X119687974Y-114352448D01*
X119674090Y-114371168D01*
X119658438Y-114388438D01*
X119641168Y-114404090D01*
X119622448Y-114417974D01*
X119602457Y-114429956D01*
X119581387Y-114439921D01*
X119559443Y-114447773D01*
X119536834Y-114453437D01*
X119513779Y-114456856D01*
X119490500Y-114458000D01*
X119015500Y-114458000D01*
X118992221Y-114456856D01*
X118969166Y-114453437D01*
X118946557Y-114447773D01*
X118924613Y-114439921D01*
X118903543Y-114429956D01*
X118883552Y-114417974D01*
X118864832Y-114404090D01*
X118847562Y-114388438D01*
X118831910Y-114371168D01*
X118818026Y-114352448D01*
X118806044Y-114332457D01*
X118796079Y-114311387D01*
X118788227Y-114289443D01*
X118782563Y-114266834D01*
X118779144Y-114243779D01*
X118778000Y-114220500D01*
X118778000Y-113645500D01*
X118779144Y-113622221D01*
X118782563Y-113599166D01*
X118788227Y-113576557D01*
X118796079Y-113554613D01*
X118806044Y-113533543D01*
X118818026Y-113513552D01*
X118831910Y-113494832D01*
X118847562Y-113477562D01*
X118864832Y-113461910D01*
X118883552Y-113448026D01*
X118903543Y-113436044D01*
X118924613Y-113426079D01*
X118946557Y-113418227D01*
X118969166Y-113412563D01*
X118992221Y-113409144D01*
X119015500Y-113408000D01*
X119490500Y-113408000D01*
X119513779Y-113409144D01*
X119513779Y-113409144D01*
G37*
D12*
X119253000Y-113933000D03*
G04 #@! TD*
D11*
G04 #@! TO.C,C3*
G36*
X144822779Y-105952144D02*
X144845834Y-105955563D01*
X144868443Y-105961227D01*
X144890387Y-105969079D01*
X144911457Y-105979044D01*
X144931448Y-105991026D01*
X144950168Y-106004910D01*
X144967438Y-106020562D01*
X144983090Y-106037832D01*
X144996974Y-106056552D01*
X145008956Y-106076543D01*
X145018921Y-106097613D01*
X145026773Y-106119557D01*
X145032437Y-106142166D01*
X145035856Y-106165221D01*
X145037000Y-106188500D01*
X145037000Y-106663500D01*
X145035856Y-106686779D01*
X145032437Y-106709834D01*
X145026773Y-106732443D01*
X145018921Y-106754387D01*
X145008956Y-106775457D01*
X144996974Y-106795448D01*
X144983090Y-106814168D01*
X144967438Y-106831438D01*
X144950168Y-106847090D01*
X144931448Y-106860974D01*
X144911457Y-106872956D01*
X144890387Y-106882921D01*
X144868443Y-106890773D01*
X144845834Y-106896437D01*
X144822779Y-106899856D01*
X144799500Y-106901000D01*
X144224500Y-106901000D01*
X144201221Y-106899856D01*
X144178166Y-106896437D01*
X144155557Y-106890773D01*
X144133613Y-106882921D01*
X144112543Y-106872956D01*
X144092552Y-106860974D01*
X144073832Y-106847090D01*
X144056562Y-106831438D01*
X144040910Y-106814168D01*
X144027026Y-106795448D01*
X144015044Y-106775457D01*
X144005079Y-106754387D01*
X143997227Y-106732443D01*
X143991563Y-106709834D01*
X143988144Y-106686779D01*
X143987000Y-106663500D01*
X143987000Y-106188500D01*
X143988144Y-106165221D01*
X143991563Y-106142166D01*
X143997227Y-106119557D01*
X144005079Y-106097613D01*
X144015044Y-106076543D01*
X144027026Y-106056552D01*
X144040910Y-106037832D01*
X144056562Y-106020562D01*
X144073832Y-106004910D01*
X144092552Y-105991026D01*
X144112543Y-105979044D01*
X144133613Y-105969079D01*
X144155557Y-105961227D01*
X144178166Y-105955563D01*
X144201221Y-105952144D01*
X144224500Y-105951000D01*
X144799500Y-105951000D01*
X144822779Y-105952144D01*
X144822779Y-105952144D01*
G37*
D12*
X144512000Y-106426000D03*
D11*
G36*
X143072779Y-105952144D02*
X143095834Y-105955563D01*
X143118443Y-105961227D01*
X143140387Y-105969079D01*
X143161457Y-105979044D01*
X143181448Y-105991026D01*
X143200168Y-106004910D01*
X143217438Y-106020562D01*
X143233090Y-106037832D01*
X143246974Y-106056552D01*
X143258956Y-106076543D01*
X143268921Y-106097613D01*
X143276773Y-106119557D01*
X143282437Y-106142166D01*
X143285856Y-106165221D01*
X143287000Y-106188500D01*
X143287000Y-106663500D01*
X143285856Y-106686779D01*
X143282437Y-106709834D01*
X143276773Y-106732443D01*
X143268921Y-106754387D01*
X143258956Y-106775457D01*
X143246974Y-106795448D01*
X143233090Y-106814168D01*
X143217438Y-106831438D01*
X143200168Y-106847090D01*
X143181448Y-106860974D01*
X143161457Y-106872956D01*
X143140387Y-106882921D01*
X143118443Y-106890773D01*
X143095834Y-106896437D01*
X143072779Y-106899856D01*
X143049500Y-106901000D01*
X142474500Y-106901000D01*
X142451221Y-106899856D01*
X142428166Y-106896437D01*
X142405557Y-106890773D01*
X142383613Y-106882921D01*
X142362543Y-106872956D01*
X142342552Y-106860974D01*
X142323832Y-106847090D01*
X142306562Y-106831438D01*
X142290910Y-106814168D01*
X142277026Y-106795448D01*
X142265044Y-106775457D01*
X142255079Y-106754387D01*
X142247227Y-106732443D01*
X142241563Y-106709834D01*
X142238144Y-106686779D01*
X142237000Y-106663500D01*
X142237000Y-106188500D01*
X142238144Y-106165221D01*
X142241563Y-106142166D01*
X142247227Y-106119557D01*
X142255079Y-106097613D01*
X142265044Y-106076543D01*
X142277026Y-106056552D01*
X142290910Y-106037832D01*
X142306562Y-106020562D01*
X142323832Y-106004910D01*
X142342552Y-105991026D01*
X142362543Y-105979044D01*
X142383613Y-105969079D01*
X142405557Y-105961227D01*
X142428166Y-105955563D01*
X142451221Y-105952144D01*
X142474500Y-105951000D01*
X143049500Y-105951000D01*
X143072779Y-105952144D01*
X143072779Y-105952144D01*
G37*
D12*
X142762000Y-106426000D03*
G04 #@! TD*
D11*
G04 #@! TO.C,C4*
G36*
X119513779Y-97915144D02*
X119536834Y-97918563D01*
X119559443Y-97924227D01*
X119581387Y-97932079D01*
X119602457Y-97942044D01*
X119622448Y-97954026D01*
X119641168Y-97967910D01*
X119658438Y-97983562D01*
X119674090Y-98000832D01*
X119687974Y-98019552D01*
X119699956Y-98039543D01*
X119709921Y-98060613D01*
X119717773Y-98082557D01*
X119723437Y-98105166D01*
X119726856Y-98128221D01*
X119728000Y-98151500D01*
X119728000Y-98726500D01*
X119726856Y-98749779D01*
X119723437Y-98772834D01*
X119717773Y-98795443D01*
X119709921Y-98817387D01*
X119699956Y-98838457D01*
X119687974Y-98858448D01*
X119674090Y-98877168D01*
X119658438Y-98894438D01*
X119641168Y-98910090D01*
X119622448Y-98923974D01*
X119602457Y-98935956D01*
X119581387Y-98945921D01*
X119559443Y-98953773D01*
X119536834Y-98959437D01*
X119513779Y-98962856D01*
X119490500Y-98964000D01*
X119015500Y-98964000D01*
X118992221Y-98962856D01*
X118969166Y-98959437D01*
X118946557Y-98953773D01*
X118924613Y-98945921D01*
X118903543Y-98935956D01*
X118883552Y-98923974D01*
X118864832Y-98910090D01*
X118847562Y-98894438D01*
X118831910Y-98877168D01*
X118818026Y-98858448D01*
X118806044Y-98838457D01*
X118796079Y-98817387D01*
X118788227Y-98795443D01*
X118782563Y-98772834D01*
X118779144Y-98749779D01*
X118778000Y-98726500D01*
X118778000Y-98151500D01*
X118779144Y-98128221D01*
X118782563Y-98105166D01*
X118788227Y-98082557D01*
X118796079Y-98060613D01*
X118806044Y-98039543D01*
X118818026Y-98019552D01*
X118831910Y-98000832D01*
X118847562Y-97983562D01*
X118864832Y-97967910D01*
X118883552Y-97954026D01*
X118903543Y-97942044D01*
X118924613Y-97932079D01*
X118946557Y-97924227D01*
X118969166Y-97918563D01*
X118992221Y-97915144D01*
X119015500Y-97914000D01*
X119490500Y-97914000D01*
X119513779Y-97915144D01*
X119513779Y-97915144D01*
G37*
D12*
X119253000Y-98439000D03*
D11*
G36*
X119513779Y-99665144D02*
X119536834Y-99668563D01*
X119559443Y-99674227D01*
X119581387Y-99682079D01*
X119602457Y-99692044D01*
X119622448Y-99704026D01*
X119641168Y-99717910D01*
X119658438Y-99733562D01*
X119674090Y-99750832D01*
X119687974Y-99769552D01*
X119699956Y-99789543D01*
X119709921Y-99810613D01*
X119717773Y-99832557D01*
X119723437Y-99855166D01*
X119726856Y-99878221D01*
X119728000Y-99901500D01*
X119728000Y-100476500D01*
X119726856Y-100499779D01*
X119723437Y-100522834D01*
X119717773Y-100545443D01*
X119709921Y-100567387D01*
X119699956Y-100588457D01*
X119687974Y-100608448D01*
X119674090Y-100627168D01*
X119658438Y-100644438D01*
X119641168Y-100660090D01*
X119622448Y-100673974D01*
X119602457Y-100685956D01*
X119581387Y-100695921D01*
X119559443Y-100703773D01*
X119536834Y-100709437D01*
X119513779Y-100712856D01*
X119490500Y-100714000D01*
X119015500Y-100714000D01*
X118992221Y-100712856D01*
X118969166Y-100709437D01*
X118946557Y-100703773D01*
X118924613Y-100695921D01*
X118903543Y-100685956D01*
X118883552Y-100673974D01*
X118864832Y-100660090D01*
X118847562Y-100644438D01*
X118831910Y-100627168D01*
X118818026Y-100608448D01*
X118806044Y-100588457D01*
X118796079Y-100567387D01*
X118788227Y-100545443D01*
X118782563Y-100522834D01*
X118779144Y-100499779D01*
X118778000Y-100476500D01*
X118778000Y-99901500D01*
X118779144Y-99878221D01*
X118782563Y-99855166D01*
X118788227Y-99832557D01*
X118796079Y-99810613D01*
X118806044Y-99789543D01*
X118818026Y-99769552D01*
X118831910Y-99750832D01*
X118847562Y-99733562D01*
X118864832Y-99717910D01*
X118883552Y-99704026D01*
X118903543Y-99692044D01*
X118924613Y-99682079D01*
X118946557Y-99674227D01*
X118969166Y-99668563D01*
X118992221Y-99665144D01*
X119015500Y-99664000D01*
X119490500Y-99664000D01*
X119513779Y-99665144D01*
X119513779Y-99665144D01*
G37*
D12*
X119253000Y-100189000D03*
G04 #@! TD*
D11*
G04 #@! TO.C,C5*
G36*
X119513779Y-109571144D02*
X119536834Y-109574563D01*
X119559443Y-109580227D01*
X119581387Y-109588079D01*
X119602457Y-109598044D01*
X119622448Y-109610026D01*
X119641168Y-109623910D01*
X119658438Y-109639562D01*
X119674090Y-109656832D01*
X119687974Y-109675552D01*
X119699956Y-109695543D01*
X119709921Y-109716613D01*
X119717773Y-109738557D01*
X119723437Y-109761166D01*
X119726856Y-109784221D01*
X119728000Y-109807500D01*
X119728000Y-110382500D01*
X119726856Y-110405779D01*
X119723437Y-110428834D01*
X119717773Y-110451443D01*
X119709921Y-110473387D01*
X119699956Y-110494457D01*
X119687974Y-110514448D01*
X119674090Y-110533168D01*
X119658438Y-110550438D01*
X119641168Y-110566090D01*
X119622448Y-110579974D01*
X119602457Y-110591956D01*
X119581387Y-110601921D01*
X119559443Y-110609773D01*
X119536834Y-110615437D01*
X119513779Y-110618856D01*
X119490500Y-110620000D01*
X119015500Y-110620000D01*
X118992221Y-110618856D01*
X118969166Y-110615437D01*
X118946557Y-110609773D01*
X118924613Y-110601921D01*
X118903543Y-110591956D01*
X118883552Y-110579974D01*
X118864832Y-110566090D01*
X118847562Y-110550438D01*
X118831910Y-110533168D01*
X118818026Y-110514448D01*
X118806044Y-110494457D01*
X118796079Y-110473387D01*
X118788227Y-110451443D01*
X118782563Y-110428834D01*
X118779144Y-110405779D01*
X118778000Y-110382500D01*
X118778000Y-109807500D01*
X118779144Y-109784221D01*
X118782563Y-109761166D01*
X118788227Y-109738557D01*
X118796079Y-109716613D01*
X118806044Y-109695543D01*
X118818026Y-109675552D01*
X118831910Y-109656832D01*
X118847562Y-109639562D01*
X118864832Y-109623910D01*
X118883552Y-109610026D01*
X118903543Y-109598044D01*
X118924613Y-109588079D01*
X118946557Y-109580227D01*
X118969166Y-109574563D01*
X118992221Y-109571144D01*
X119015500Y-109570000D01*
X119490500Y-109570000D01*
X119513779Y-109571144D01*
X119513779Y-109571144D01*
G37*
D12*
X119253000Y-110095000D03*
D11*
G36*
X119513779Y-107821144D02*
X119536834Y-107824563D01*
X119559443Y-107830227D01*
X119581387Y-107838079D01*
X119602457Y-107848044D01*
X119622448Y-107860026D01*
X119641168Y-107873910D01*
X119658438Y-107889562D01*
X119674090Y-107906832D01*
X119687974Y-107925552D01*
X119699956Y-107945543D01*
X119709921Y-107966613D01*
X119717773Y-107988557D01*
X119723437Y-108011166D01*
X119726856Y-108034221D01*
X119728000Y-108057500D01*
X119728000Y-108632500D01*
X119726856Y-108655779D01*
X119723437Y-108678834D01*
X119717773Y-108701443D01*
X119709921Y-108723387D01*
X119699956Y-108744457D01*
X119687974Y-108764448D01*
X119674090Y-108783168D01*
X119658438Y-108800438D01*
X119641168Y-108816090D01*
X119622448Y-108829974D01*
X119602457Y-108841956D01*
X119581387Y-108851921D01*
X119559443Y-108859773D01*
X119536834Y-108865437D01*
X119513779Y-108868856D01*
X119490500Y-108870000D01*
X119015500Y-108870000D01*
X118992221Y-108868856D01*
X118969166Y-108865437D01*
X118946557Y-108859773D01*
X118924613Y-108851921D01*
X118903543Y-108841956D01*
X118883552Y-108829974D01*
X118864832Y-108816090D01*
X118847562Y-108800438D01*
X118831910Y-108783168D01*
X118818026Y-108764448D01*
X118806044Y-108744457D01*
X118796079Y-108723387D01*
X118788227Y-108701443D01*
X118782563Y-108678834D01*
X118779144Y-108655779D01*
X118778000Y-108632500D01*
X118778000Y-108057500D01*
X118779144Y-108034221D01*
X118782563Y-108011166D01*
X118788227Y-107988557D01*
X118796079Y-107966613D01*
X118806044Y-107945543D01*
X118818026Y-107925552D01*
X118831910Y-107906832D01*
X118847562Y-107889562D01*
X118864832Y-107873910D01*
X118883552Y-107860026D01*
X118903543Y-107848044D01*
X118924613Y-107838079D01*
X118946557Y-107830227D01*
X118969166Y-107824563D01*
X118992221Y-107821144D01*
X119015500Y-107820000D01*
X119490500Y-107820000D01*
X119513779Y-107821144D01*
X119513779Y-107821144D01*
G37*
D12*
X119253000Y-108345000D03*
G04 #@! TD*
D11*
G04 #@! TO.C,C6*
G36*
X143135779Y-100300144D02*
X143158834Y-100303563D01*
X143181443Y-100309227D01*
X143203387Y-100317079D01*
X143224457Y-100327044D01*
X143244448Y-100339026D01*
X143263168Y-100352910D01*
X143280438Y-100368562D01*
X143296090Y-100385832D01*
X143309974Y-100404552D01*
X143321956Y-100424543D01*
X143331921Y-100445613D01*
X143339773Y-100467557D01*
X143345437Y-100490166D01*
X143348856Y-100513221D01*
X143350000Y-100536500D01*
X143350000Y-101111500D01*
X143348856Y-101134779D01*
X143345437Y-101157834D01*
X143339773Y-101180443D01*
X143331921Y-101202387D01*
X143321956Y-101223457D01*
X143309974Y-101243448D01*
X143296090Y-101262168D01*
X143280438Y-101279438D01*
X143263168Y-101295090D01*
X143244448Y-101308974D01*
X143224457Y-101320956D01*
X143203387Y-101330921D01*
X143181443Y-101338773D01*
X143158834Y-101344437D01*
X143135779Y-101347856D01*
X143112500Y-101349000D01*
X142637500Y-101349000D01*
X142614221Y-101347856D01*
X142591166Y-101344437D01*
X142568557Y-101338773D01*
X142546613Y-101330921D01*
X142525543Y-101320956D01*
X142505552Y-101308974D01*
X142486832Y-101295090D01*
X142469562Y-101279438D01*
X142453910Y-101262168D01*
X142440026Y-101243448D01*
X142428044Y-101223457D01*
X142418079Y-101202387D01*
X142410227Y-101180443D01*
X142404563Y-101157834D01*
X142401144Y-101134779D01*
X142400000Y-101111500D01*
X142400000Y-100536500D01*
X142401144Y-100513221D01*
X142404563Y-100490166D01*
X142410227Y-100467557D01*
X142418079Y-100445613D01*
X142428044Y-100424543D01*
X142440026Y-100404552D01*
X142453910Y-100385832D01*
X142469562Y-100368562D01*
X142486832Y-100352910D01*
X142505552Y-100339026D01*
X142525543Y-100327044D01*
X142546613Y-100317079D01*
X142568557Y-100309227D01*
X142591166Y-100303563D01*
X142614221Y-100300144D01*
X142637500Y-100299000D01*
X143112500Y-100299000D01*
X143135779Y-100300144D01*
X143135779Y-100300144D01*
G37*
D12*
X142875000Y-100824000D03*
D11*
G36*
X143135779Y-98550144D02*
X143158834Y-98553563D01*
X143181443Y-98559227D01*
X143203387Y-98567079D01*
X143224457Y-98577044D01*
X143244448Y-98589026D01*
X143263168Y-98602910D01*
X143280438Y-98618562D01*
X143296090Y-98635832D01*
X143309974Y-98654552D01*
X143321956Y-98674543D01*
X143331921Y-98695613D01*
X143339773Y-98717557D01*
X143345437Y-98740166D01*
X143348856Y-98763221D01*
X143350000Y-98786500D01*
X143350000Y-99361500D01*
X143348856Y-99384779D01*
X143345437Y-99407834D01*
X143339773Y-99430443D01*
X143331921Y-99452387D01*
X143321956Y-99473457D01*
X143309974Y-99493448D01*
X143296090Y-99512168D01*
X143280438Y-99529438D01*
X143263168Y-99545090D01*
X143244448Y-99558974D01*
X143224457Y-99570956D01*
X143203387Y-99580921D01*
X143181443Y-99588773D01*
X143158834Y-99594437D01*
X143135779Y-99597856D01*
X143112500Y-99599000D01*
X142637500Y-99599000D01*
X142614221Y-99597856D01*
X142591166Y-99594437D01*
X142568557Y-99588773D01*
X142546613Y-99580921D01*
X142525543Y-99570956D01*
X142505552Y-99558974D01*
X142486832Y-99545090D01*
X142469562Y-99529438D01*
X142453910Y-99512168D01*
X142440026Y-99493448D01*
X142428044Y-99473457D01*
X142418079Y-99452387D01*
X142410227Y-99430443D01*
X142404563Y-99407834D01*
X142401144Y-99384779D01*
X142400000Y-99361500D01*
X142400000Y-98786500D01*
X142401144Y-98763221D01*
X142404563Y-98740166D01*
X142410227Y-98717557D01*
X142418079Y-98695613D01*
X142428044Y-98674543D01*
X142440026Y-98654552D01*
X142453910Y-98635832D01*
X142469562Y-98618562D01*
X142486832Y-98602910D01*
X142505552Y-98589026D01*
X142525543Y-98577044D01*
X142546613Y-98567079D01*
X142568557Y-98559227D01*
X142591166Y-98553563D01*
X142614221Y-98550144D01*
X142637500Y-98549000D01*
X143112500Y-98549000D01*
X143135779Y-98550144D01*
X143135779Y-98550144D01*
G37*
D12*
X142875000Y-99074000D03*
G04 #@! TD*
D13*
G04 #@! TO.C,Conn1*
X162686000Y-69367400D03*
X170687000Y-69367400D03*
G04 #@! TD*
D14*
G04 #@! TO.C,Conn2*
X136525000Y-62992000D03*
X139065000Y-62992000D03*
X141605000Y-62992000D03*
X144145000Y-62992000D03*
X146685000Y-62992000D03*
D15*
X135255000Y-54356000D03*
X147955000Y-54356000D03*
G04 #@! TD*
G04 #@! TO.C,Conn3*
X128397000Y-54356000D03*
X115697000Y-54356000D03*
D14*
X127127000Y-62992000D03*
X124587000Y-62992000D03*
X122047000Y-62992000D03*
X119507000Y-62992000D03*
X116967000Y-62992000D03*
G04 #@! TD*
D16*
G04 #@! TO.C,U2*
X128077000Y-99060000D03*
X128077000Y-100330000D03*
X128077000Y-101600000D03*
X128077000Y-102870000D03*
X128077000Y-104140000D03*
X128077000Y-105410000D03*
X128077000Y-106680000D03*
X128077000Y-107950000D03*
X133477000Y-107950000D03*
X133477000Y-106680000D03*
X133477000Y-105410000D03*
X133477000Y-104140000D03*
X133477000Y-102870000D03*
X133477000Y-101600000D03*
X133477000Y-100330000D03*
X133477000Y-99060000D03*
G04 #@! TD*
D14*
G04 #@! TO.C,U3*
X160401000Y-87630000D03*
X162941000Y-87630000D03*
X165481000Y-87630000D03*
G04 #@! TD*
M02*
