G04 #@! TF.GenerationSoftware,KiCad,Pcbnew,(5.0.0)*
G04 #@! TF.CreationDate,2018-09-29T14:24:20-05:00*
G04 #@! TF.ProjectId,DriveBoard_Hardware,4472697665426F6172645F4861726477,rev?*
G04 #@! TF.SameCoordinates,Original*
G04 #@! TF.FileFunction,Legend,Top*
G04 #@! TF.FilePolarity,Positive*
%FSLAX46Y46*%
G04 Gerber Fmt 4.6, Leading zero omitted, Abs format (unit mm)*
G04 Created by KiCad (PCBNEW (5.0.0)) date 09/29/18 14:24:20*
%MOMM*%
%LPD*%
G01*
G04 APERTURE LIST*
%ADD10C,0.300000*%
%ADD11C,0.150000*%
%ADD12C,0.120000*%
G04 APERTURE END LIST*
D10*
X91777857Y-132513571D02*
X92635000Y-132513571D01*
X92206428Y-134013571D02*
X92206428Y-132513571D01*
X93135000Y-134013571D02*
X93135000Y-133013571D01*
X93135000Y-133299285D02*
X93206428Y-133156428D01*
X93277857Y-133085000D01*
X93420714Y-133013571D01*
X93563571Y-133013571D01*
X94706428Y-134013571D02*
X94706428Y-133227857D01*
X94635000Y-133085000D01*
X94492142Y-133013571D01*
X94206428Y-133013571D01*
X94063571Y-133085000D01*
X94706428Y-133942142D02*
X94563571Y-134013571D01*
X94206428Y-134013571D01*
X94063571Y-133942142D01*
X93992142Y-133799285D01*
X93992142Y-133656428D01*
X94063571Y-133513571D01*
X94206428Y-133442142D01*
X94563571Y-133442142D01*
X94706428Y-133370714D01*
X95420714Y-134013571D02*
X95420714Y-133013571D01*
X95420714Y-132513571D02*
X95349285Y-132585000D01*
X95420714Y-132656428D01*
X95492142Y-132585000D01*
X95420714Y-132513571D01*
X95420714Y-132656428D01*
X96135000Y-133013571D02*
X96135000Y-134013571D01*
X96135000Y-133156428D02*
X96206428Y-133085000D01*
X96349285Y-133013571D01*
X96563571Y-133013571D01*
X96706428Y-133085000D01*
X96777857Y-133227857D01*
X96777857Y-134013571D01*
X97492142Y-134013571D02*
X97492142Y-133013571D01*
X97492142Y-132513571D02*
X97420714Y-132585000D01*
X97492142Y-132656428D01*
X97563571Y-132585000D01*
X97492142Y-132513571D01*
X97492142Y-132656428D01*
X98206428Y-133013571D02*
X98206428Y-134013571D01*
X98206428Y-133156428D02*
X98277857Y-133085000D01*
X98420714Y-133013571D01*
X98635000Y-133013571D01*
X98777857Y-133085000D01*
X98849285Y-133227857D01*
X98849285Y-134013571D01*
X100206428Y-133013571D02*
X100206428Y-134227857D01*
X100135000Y-134370714D01*
X100063571Y-134442142D01*
X99920714Y-134513571D01*
X99706428Y-134513571D01*
X99563571Y-134442142D01*
X100206428Y-133942142D02*
X100063571Y-134013571D01*
X99777857Y-134013571D01*
X99635000Y-133942142D01*
X99563571Y-133870714D01*
X99492142Y-133727857D01*
X99492142Y-133299285D01*
X99563571Y-133156428D01*
X99635000Y-133085000D01*
X99777857Y-133013571D01*
X100063571Y-133013571D01*
X100206428Y-133085000D01*
X102563571Y-133227857D02*
X102777857Y-133299285D01*
X102849285Y-133370714D01*
X102920714Y-133513571D01*
X102920714Y-133727857D01*
X102849285Y-133870714D01*
X102777857Y-133942142D01*
X102635000Y-134013571D01*
X102063571Y-134013571D01*
X102063571Y-132513571D01*
X102563571Y-132513571D01*
X102706428Y-132585000D01*
X102777857Y-132656428D01*
X102849285Y-132799285D01*
X102849285Y-132942142D01*
X102777857Y-133085000D01*
X102706428Y-133156428D01*
X102563571Y-133227857D01*
X102063571Y-133227857D01*
X103777857Y-134013571D02*
X103635000Y-133942142D01*
X103563571Y-133870714D01*
X103492142Y-133727857D01*
X103492142Y-133299285D01*
X103563571Y-133156428D01*
X103635000Y-133085000D01*
X103777857Y-133013571D01*
X103992142Y-133013571D01*
X104135000Y-133085000D01*
X104206428Y-133156428D01*
X104277857Y-133299285D01*
X104277857Y-133727857D01*
X104206428Y-133870714D01*
X104135000Y-133942142D01*
X103992142Y-134013571D01*
X103777857Y-134013571D01*
X105563571Y-134013571D02*
X105563571Y-133227857D01*
X105492142Y-133085000D01*
X105349285Y-133013571D01*
X105063571Y-133013571D01*
X104920714Y-133085000D01*
X105563571Y-133942142D02*
X105420714Y-134013571D01*
X105063571Y-134013571D01*
X104920714Y-133942142D01*
X104849285Y-133799285D01*
X104849285Y-133656428D01*
X104920714Y-133513571D01*
X105063571Y-133442142D01*
X105420714Y-133442142D01*
X105563571Y-133370714D01*
X106277857Y-134013571D02*
X106277857Y-133013571D01*
X106277857Y-133299285D02*
X106349285Y-133156428D01*
X106420714Y-133085000D01*
X106563571Y-133013571D01*
X106706428Y-133013571D01*
X107849285Y-134013571D02*
X107849285Y-132513571D01*
X107849285Y-133942142D02*
X107706428Y-134013571D01*
X107420714Y-134013571D01*
X107277857Y-133942142D01*
X107206428Y-133870714D01*
X107135000Y-133727857D01*
X107135000Y-133299285D01*
X107206428Y-133156428D01*
X107277857Y-133085000D01*
X107420714Y-133013571D01*
X107706428Y-133013571D01*
X107849285Y-133085000D01*
X108635000Y-133942142D02*
X108635000Y-134013571D01*
X108563571Y-134156428D01*
X108492142Y-134227857D01*
X111277857Y-134013571D02*
X110777857Y-133299285D01*
X110420714Y-134013571D02*
X110420714Y-132513571D01*
X110992142Y-132513571D01*
X111135000Y-132585000D01*
X111206428Y-132656428D01*
X111277857Y-132799285D01*
X111277857Y-133013571D01*
X111206428Y-133156428D01*
X111135000Y-133227857D01*
X110992142Y-133299285D01*
X110420714Y-133299285D01*
X112492142Y-133942142D02*
X112349285Y-134013571D01*
X112063571Y-134013571D01*
X111920714Y-133942142D01*
X111849285Y-133799285D01*
X111849285Y-133227857D01*
X111920714Y-133085000D01*
X112063571Y-133013571D01*
X112349285Y-133013571D01*
X112492142Y-133085000D01*
X112563571Y-133227857D01*
X112563571Y-133370714D01*
X111849285Y-133513571D01*
X113063571Y-133013571D02*
X113420714Y-134013571D01*
X113777857Y-133013571D01*
X116277857Y-134013571D02*
X115420714Y-134013571D01*
X115849285Y-134013571D02*
X115849285Y-132513571D01*
X115706428Y-132727857D01*
X115563571Y-132870714D01*
X115420714Y-132942142D01*
X91992142Y-136563571D02*
X91992142Y-135063571D01*
X92492142Y-136135000D01*
X92992142Y-135063571D01*
X92992142Y-136563571D01*
X94349285Y-136563571D02*
X94349285Y-135777857D01*
X94277857Y-135635000D01*
X94135000Y-135563571D01*
X93849285Y-135563571D01*
X93706428Y-135635000D01*
X94349285Y-136492142D02*
X94206428Y-136563571D01*
X93849285Y-136563571D01*
X93706428Y-136492142D01*
X93635000Y-136349285D01*
X93635000Y-136206428D01*
X93706428Y-136063571D01*
X93849285Y-135992142D01*
X94206428Y-135992142D01*
X94349285Y-135920714D01*
X95063571Y-136563571D02*
X95063571Y-135563571D01*
X95063571Y-135849285D02*
X95135000Y-135706428D01*
X95206428Y-135635000D01*
X95349285Y-135563571D01*
X95492142Y-135563571D01*
X95920714Y-136492142D02*
X96063571Y-136563571D01*
X96349285Y-136563571D01*
X96492142Y-136492142D01*
X96563571Y-136349285D01*
X96563571Y-136277857D01*
X96492142Y-136135000D01*
X96349285Y-136063571D01*
X96135000Y-136063571D01*
X95992142Y-135992142D01*
X95920714Y-135849285D01*
X95920714Y-135777857D01*
X95992142Y-135635000D01*
X96135000Y-135563571D01*
X96349285Y-135563571D01*
X96492142Y-135635000D01*
X99206428Y-136563571D02*
X98706428Y-135849285D01*
X98349285Y-136563571D02*
X98349285Y-135063571D01*
X98920714Y-135063571D01*
X99063571Y-135135000D01*
X99135000Y-135206428D01*
X99206428Y-135349285D01*
X99206428Y-135563571D01*
X99135000Y-135706428D01*
X99063571Y-135777857D01*
X98920714Y-135849285D01*
X98349285Y-135849285D01*
X100063571Y-136563571D02*
X99920714Y-136492142D01*
X99849285Y-136420714D01*
X99777857Y-136277857D01*
X99777857Y-135849285D01*
X99849285Y-135706428D01*
X99920714Y-135635000D01*
X100063571Y-135563571D01*
X100277857Y-135563571D01*
X100420714Y-135635000D01*
X100492142Y-135706428D01*
X100563571Y-135849285D01*
X100563571Y-136277857D01*
X100492142Y-136420714D01*
X100420714Y-136492142D01*
X100277857Y-136563571D01*
X100063571Y-136563571D01*
X101063571Y-135563571D02*
X101420714Y-136563571D01*
X101777857Y-135563571D01*
X102920714Y-136492142D02*
X102777857Y-136563571D01*
X102492142Y-136563571D01*
X102349285Y-136492142D01*
X102277857Y-136349285D01*
X102277857Y-135777857D01*
X102349285Y-135635000D01*
X102492142Y-135563571D01*
X102777857Y-135563571D01*
X102920714Y-135635000D01*
X102992142Y-135777857D01*
X102992142Y-135920714D01*
X102277857Y-136063571D01*
X103635000Y-136563571D02*
X103635000Y-135563571D01*
X103635000Y-135849285D02*
X103706428Y-135706428D01*
X103777857Y-135635000D01*
X103920714Y-135563571D01*
X104063571Y-135563571D01*
X105635000Y-135206428D02*
X105706428Y-135135000D01*
X105849285Y-135063571D01*
X106206428Y-135063571D01*
X106349285Y-135135000D01*
X106420714Y-135206428D01*
X106492142Y-135349285D01*
X106492142Y-135492142D01*
X106420714Y-135706428D01*
X105563571Y-136563571D01*
X106492142Y-136563571D01*
X107420714Y-135063571D02*
X107563571Y-135063571D01*
X107706428Y-135135000D01*
X107777857Y-135206428D01*
X107849285Y-135349285D01*
X107920714Y-135635000D01*
X107920714Y-135992142D01*
X107849285Y-136277857D01*
X107777857Y-136420714D01*
X107706428Y-136492142D01*
X107563571Y-136563571D01*
X107420714Y-136563571D01*
X107277857Y-136492142D01*
X107206428Y-136420714D01*
X107135000Y-136277857D01*
X107063571Y-135992142D01*
X107063571Y-135635000D01*
X107135000Y-135349285D01*
X107206428Y-135206428D01*
X107277857Y-135135000D01*
X107420714Y-135063571D01*
X109349285Y-136563571D02*
X108492142Y-136563571D01*
X108920714Y-136563571D02*
X108920714Y-135063571D01*
X108777857Y-135277857D01*
X108635000Y-135420714D01*
X108492142Y-135492142D01*
X110206428Y-135706428D02*
X110063571Y-135635000D01*
X109992142Y-135563571D01*
X109920714Y-135420714D01*
X109920714Y-135349285D01*
X109992142Y-135206428D01*
X110063571Y-135135000D01*
X110206428Y-135063571D01*
X110492142Y-135063571D01*
X110635000Y-135135000D01*
X110706428Y-135206428D01*
X110777857Y-135349285D01*
X110777857Y-135420714D01*
X110706428Y-135563571D01*
X110635000Y-135635000D01*
X110492142Y-135706428D01*
X110206428Y-135706428D01*
X110063571Y-135777857D01*
X109992142Y-135849285D01*
X109920714Y-135992142D01*
X109920714Y-136277857D01*
X109992142Y-136420714D01*
X110063571Y-136492142D01*
X110206428Y-136563571D01*
X110492142Y-136563571D01*
X110635000Y-136492142D01*
X110706428Y-136420714D01*
X110777857Y-136277857D01*
X110777857Y-135992142D01*
X110706428Y-135849285D01*
X110635000Y-135777857D01*
X110492142Y-135706428D01*
X91992142Y-139113571D02*
X91992142Y-137613571D01*
X92492142Y-138685000D01*
X92992142Y-137613571D01*
X92992142Y-139113571D01*
X93706428Y-139113571D02*
X93706428Y-138113571D01*
X93706428Y-137613571D02*
X93635000Y-137685000D01*
X93706428Y-137756428D01*
X93777857Y-137685000D01*
X93706428Y-137613571D01*
X93706428Y-137756428D01*
X94349285Y-139042142D02*
X94492142Y-139113571D01*
X94777857Y-139113571D01*
X94920714Y-139042142D01*
X94992142Y-138899285D01*
X94992142Y-138827857D01*
X94920714Y-138685000D01*
X94777857Y-138613571D01*
X94563571Y-138613571D01*
X94420714Y-138542142D01*
X94349285Y-138399285D01*
X94349285Y-138327857D01*
X94420714Y-138185000D01*
X94563571Y-138113571D01*
X94777857Y-138113571D01*
X94920714Y-138185000D01*
X95563571Y-139042142D02*
X95706428Y-139113571D01*
X95992142Y-139113571D01*
X96135000Y-139042142D01*
X96206428Y-138899285D01*
X96206428Y-138827857D01*
X96135000Y-138685000D01*
X95992142Y-138613571D01*
X95777857Y-138613571D01*
X95635000Y-138542142D01*
X95563571Y-138399285D01*
X95563571Y-138327857D01*
X95635000Y-138185000D01*
X95777857Y-138113571D01*
X95992142Y-138113571D01*
X96135000Y-138185000D01*
X97063571Y-139113571D02*
X96920714Y-139042142D01*
X96849285Y-138970714D01*
X96777857Y-138827857D01*
X96777857Y-138399285D01*
X96849285Y-138256428D01*
X96920714Y-138185000D01*
X97063571Y-138113571D01*
X97277857Y-138113571D01*
X97420714Y-138185000D01*
X97492142Y-138256428D01*
X97563571Y-138399285D01*
X97563571Y-138827857D01*
X97492142Y-138970714D01*
X97420714Y-139042142D01*
X97277857Y-139113571D01*
X97063571Y-139113571D01*
X98849285Y-138113571D02*
X98849285Y-139113571D01*
X98206428Y-138113571D02*
X98206428Y-138899285D01*
X98277857Y-139042142D01*
X98420714Y-139113571D01*
X98635000Y-139113571D01*
X98777857Y-139042142D01*
X98849285Y-138970714D01*
X99563571Y-139113571D02*
X99563571Y-138113571D01*
X99563571Y-138399285D02*
X99635000Y-138256428D01*
X99706428Y-138185000D01*
X99849285Y-138113571D01*
X99992142Y-138113571D01*
X100492142Y-139113571D02*
X100492142Y-138113571D01*
X100492142Y-137613571D02*
X100420714Y-137685000D01*
X100492142Y-137756428D01*
X100563571Y-137685000D01*
X100492142Y-137613571D01*
X100492142Y-137756428D01*
X102277857Y-139042142D02*
X102492142Y-139113571D01*
X102849285Y-139113571D01*
X102992142Y-139042142D01*
X103063571Y-138970714D01*
X103135000Y-138827857D01*
X103135000Y-138685000D01*
X103063571Y-138542142D01*
X102992142Y-138470714D01*
X102849285Y-138399285D01*
X102563571Y-138327857D01*
X102420714Y-138256428D01*
X102349285Y-138185000D01*
X102277857Y-138042142D01*
X102277857Y-137899285D01*
X102349285Y-137756428D01*
X102420714Y-137685000D01*
X102563571Y-137613571D01*
X102920714Y-137613571D01*
X103135000Y-137685000D01*
X104992142Y-139113571D02*
X104920714Y-139113571D01*
X104777857Y-139042142D01*
X104563571Y-138827857D01*
X104206428Y-138399285D01*
X104063571Y-138185000D01*
X103992142Y-137970714D01*
X103992142Y-137827857D01*
X104063571Y-137685000D01*
X104206428Y-137613571D01*
X104277857Y-137613571D01*
X104420714Y-137685000D01*
X104492142Y-137827857D01*
X104492142Y-137899285D01*
X104420714Y-138042142D01*
X104349285Y-138113571D01*
X103920714Y-138399285D01*
X103849285Y-138470714D01*
X103777857Y-138613571D01*
X103777857Y-138827857D01*
X103849285Y-138970714D01*
X103920714Y-139042142D01*
X104063571Y-139113571D01*
X104277857Y-139113571D01*
X104420714Y-139042142D01*
X104492142Y-138970714D01*
X104706428Y-138685000D01*
X104777857Y-138470714D01*
X104777857Y-138327857D01*
X105420714Y-137613571D02*
X106277857Y-137613571D01*
X105849285Y-139113571D02*
X105849285Y-137613571D01*
X91920714Y-141235000D02*
X92635000Y-141235000D01*
X91777857Y-141663571D02*
X92277857Y-140163571D01*
X92777857Y-141663571D01*
X93277857Y-140663571D02*
X93277857Y-141663571D01*
X93277857Y-140806428D02*
X93349285Y-140735000D01*
X93492142Y-140663571D01*
X93706428Y-140663571D01*
X93849285Y-140735000D01*
X93920714Y-140877857D01*
X93920714Y-141663571D01*
X95277857Y-141663571D02*
X95277857Y-140163571D01*
X95277857Y-141592142D02*
X95135000Y-141663571D01*
X94849285Y-141663571D01*
X94706428Y-141592142D01*
X94635000Y-141520714D01*
X94563571Y-141377857D01*
X94563571Y-140949285D01*
X94635000Y-140806428D01*
X94706428Y-140735000D01*
X94849285Y-140663571D01*
X95135000Y-140663571D01*
X95277857Y-140735000D01*
X95992142Y-141663571D02*
X95992142Y-140663571D01*
X95992142Y-140949285D02*
X96063571Y-140806428D01*
X96135000Y-140735000D01*
X96277857Y-140663571D01*
X96420714Y-140663571D01*
X97492142Y-141592142D02*
X97349285Y-141663571D01*
X97063571Y-141663571D01*
X96920714Y-141592142D01*
X96849285Y-141449285D01*
X96849285Y-140877857D01*
X96920714Y-140735000D01*
X97063571Y-140663571D01*
X97349285Y-140663571D01*
X97492142Y-140735000D01*
X97563571Y-140877857D01*
X97563571Y-141020714D01*
X96849285Y-141163571D01*
X98063571Y-140663571D02*
X98349285Y-141663571D01*
X98635000Y-140949285D01*
X98920714Y-141663571D01*
X99206428Y-140663571D01*
X100706428Y-140163571D02*
X101206428Y-141663571D01*
X101706428Y-140163571D01*
X102849285Y-141663571D02*
X102849285Y-140877857D01*
X102777857Y-140735000D01*
X102635000Y-140663571D01*
X102349285Y-140663571D01*
X102206428Y-140735000D01*
X102849285Y-141592142D02*
X102706428Y-141663571D01*
X102349285Y-141663571D01*
X102206428Y-141592142D01*
X102135000Y-141449285D01*
X102135000Y-141306428D01*
X102206428Y-141163571D01*
X102349285Y-141092142D01*
X102706428Y-141092142D01*
X102849285Y-141020714D01*
X103563571Y-140663571D02*
X103563571Y-141663571D01*
X103563571Y-140806428D02*
X103635000Y-140735000D01*
X103777857Y-140663571D01*
X103992142Y-140663571D01*
X104135000Y-140735000D01*
X104206428Y-140877857D01*
X104206428Y-141663571D01*
X106063571Y-141663571D02*
X106063571Y-140163571D01*
X106063571Y-140877857D02*
X106920714Y-140877857D01*
X106920714Y-141663571D02*
X106920714Y-140163571D01*
X107849285Y-141663571D02*
X107706428Y-141592142D01*
X107635000Y-141520714D01*
X107563571Y-141377857D01*
X107563571Y-140949285D01*
X107635000Y-140806428D01*
X107706428Y-140735000D01*
X107849285Y-140663571D01*
X108063571Y-140663571D01*
X108206428Y-140735000D01*
X108277857Y-140806428D01*
X108349285Y-140949285D01*
X108349285Y-141377857D01*
X108277857Y-141520714D01*
X108206428Y-141592142D01*
X108063571Y-141663571D01*
X107849285Y-141663571D01*
X108992142Y-141663571D02*
X108992142Y-140663571D01*
X108992142Y-140949285D02*
X109063571Y-140806428D01*
X109135000Y-140735000D01*
X109277857Y-140663571D01*
X109420714Y-140663571D01*
X109920714Y-140663571D02*
X109920714Y-141663571D01*
X109920714Y-140806428D02*
X109992142Y-140735000D01*
X110135000Y-140663571D01*
X110349285Y-140663571D01*
X110492142Y-140735000D01*
X110563571Y-140877857D01*
X110563571Y-141663571D01*
X92484285Y-78148571D02*
X92484285Y-76648571D01*
X92984285Y-77720000D01*
X93484285Y-76648571D01*
X93484285Y-78148571D01*
X94412857Y-78148571D02*
X94270000Y-78077142D01*
X94198571Y-78005714D01*
X94127142Y-77862857D01*
X94127142Y-77434285D01*
X94198571Y-77291428D01*
X94270000Y-77220000D01*
X94412857Y-77148571D01*
X94627142Y-77148571D01*
X94770000Y-77220000D01*
X94841428Y-77291428D01*
X94912857Y-77434285D01*
X94912857Y-77862857D01*
X94841428Y-78005714D01*
X94770000Y-78077142D01*
X94627142Y-78148571D01*
X94412857Y-78148571D01*
X95341428Y-77148571D02*
X95912857Y-77148571D01*
X95555714Y-76648571D02*
X95555714Y-77934285D01*
X95627142Y-78077142D01*
X95770000Y-78148571D01*
X95912857Y-78148571D01*
X96627142Y-78148571D02*
X96484285Y-78077142D01*
X96412857Y-78005714D01*
X96341428Y-77862857D01*
X96341428Y-77434285D01*
X96412857Y-77291428D01*
X96484285Y-77220000D01*
X96627142Y-77148571D01*
X96841428Y-77148571D01*
X96984285Y-77220000D01*
X97055714Y-77291428D01*
X97127142Y-77434285D01*
X97127142Y-77862857D01*
X97055714Y-78005714D01*
X96984285Y-78077142D01*
X96841428Y-78148571D01*
X96627142Y-78148571D01*
X97770000Y-78148571D02*
X97770000Y-77148571D01*
X97770000Y-77434285D02*
X97841428Y-77291428D01*
X97912857Y-77220000D01*
X98055714Y-77148571D01*
X98198571Y-77148571D01*
X100627142Y-78148571D02*
X99770000Y-78148571D01*
X100198571Y-78148571D02*
X100198571Y-76648571D01*
X100055714Y-76862857D01*
X99912857Y-77005714D01*
X99770000Y-77077142D01*
X111534285Y-78148571D02*
X111534285Y-76648571D01*
X112034285Y-77720000D01*
X112534285Y-76648571D01*
X112534285Y-78148571D01*
X113462857Y-78148571D02*
X113320000Y-78077142D01*
X113248571Y-78005714D01*
X113177142Y-77862857D01*
X113177142Y-77434285D01*
X113248571Y-77291428D01*
X113320000Y-77220000D01*
X113462857Y-77148571D01*
X113677142Y-77148571D01*
X113820000Y-77220000D01*
X113891428Y-77291428D01*
X113962857Y-77434285D01*
X113962857Y-77862857D01*
X113891428Y-78005714D01*
X113820000Y-78077142D01*
X113677142Y-78148571D01*
X113462857Y-78148571D01*
X114391428Y-77148571D02*
X114962857Y-77148571D01*
X114605714Y-76648571D02*
X114605714Y-77934285D01*
X114677142Y-78077142D01*
X114820000Y-78148571D01*
X114962857Y-78148571D01*
X115677142Y-78148571D02*
X115534285Y-78077142D01*
X115462857Y-78005714D01*
X115391428Y-77862857D01*
X115391428Y-77434285D01*
X115462857Y-77291428D01*
X115534285Y-77220000D01*
X115677142Y-77148571D01*
X115891428Y-77148571D01*
X116034285Y-77220000D01*
X116105714Y-77291428D01*
X116177142Y-77434285D01*
X116177142Y-77862857D01*
X116105714Y-78005714D01*
X116034285Y-78077142D01*
X115891428Y-78148571D01*
X115677142Y-78148571D01*
X116820000Y-78148571D02*
X116820000Y-77148571D01*
X116820000Y-77434285D02*
X116891428Y-77291428D01*
X116962857Y-77220000D01*
X117105714Y-77148571D01*
X117248571Y-77148571D01*
X118820000Y-76791428D02*
X118891428Y-76720000D01*
X119034285Y-76648571D01*
X119391428Y-76648571D01*
X119534285Y-76720000D01*
X119605714Y-76791428D01*
X119677142Y-76934285D01*
X119677142Y-77077142D01*
X119605714Y-77291428D01*
X118748571Y-78148571D01*
X119677142Y-78148571D01*
X117407928Y-91888571D02*
X117693642Y-91888571D01*
X117836500Y-91960000D01*
X117979357Y-92102857D01*
X118050785Y-92388571D01*
X118050785Y-92888571D01*
X117979357Y-93174285D01*
X117836500Y-93317142D01*
X117693642Y-93388571D01*
X117407928Y-93388571D01*
X117265071Y-93317142D01*
X117122214Y-93174285D01*
X117050785Y-92888571D01*
X117050785Y-92388571D01*
X117122214Y-92102857D01*
X117265071Y-91960000D01*
X117407928Y-91888571D01*
X118693642Y-93388571D02*
X118693642Y-91888571D01*
X119550785Y-93388571D02*
X118907928Y-92531428D01*
X119550785Y-91888571D02*
X118693642Y-92745714D01*
X120193642Y-93388571D02*
X120193642Y-91888571D01*
X122765071Y-91888571D02*
X122050785Y-91888571D01*
X121979357Y-92602857D01*
X122050785Y-92531428D01*
X122193642Y-92460000D01*
X122550785Y-92460000D01*
X122693642Y-92531428D01*
X122765071Y-92602857D01*
X122836500Y-92745714D01*
X122836500Y-93102857D01*
X122765071Y-93245714D01*
X122693642Y-93317142D01*
X122550785Y-93388571D01*
X122193642Y-93388571D01*
X122050785Y-93317142D01*
X121979357Y-93245714D01*
X123265071Y-91888571D02*
X123765071Y-93388571D01*
X124265071Y-91888571D01*
D11*
G04 #@! TO.C,Conn1*
X146583400Y-88266000D02*
G75*
G03X147701000Y-89383600I1117600J0D01*
G01*
X147701000Y-89383600D02*
G75*
G03X148818600Y-88266000I0J1117600D01*
G01*
X157759400Y-104014000D02*
X157759400Y-88266000D01*
X133121400Y-104014000D02*
X133121400Y-88266000D01*
X148844000Y-104014000D02*
X150063200Y-104014000D01*
X147701000Y-102871000D02*
G75*
G03X146558000Y-104014000I0J-1143000D01*
G01*
X148844000Y-104014000D02*
G75*
G03X147701000Y-102871000I-1143000J0D01*
G01*
X145389600Y-88266000D02*
X146583400Y-88266000D01*
X147701000Y-90577400D02*
X147701000Y-89409000D01*
X150012400Y-88266000D02*
X148844000Y-88266000D01*
X145440400Y-104014000D02*
X146532600Y-104014000D01*
X147701000Y-102871000D02*
X147701000Y-101702600D01*
X147701000Y-93854000D02*
X147701000Y-94997000D01*
X157734000Y-96165400D02*
X148844000Y-96165400D01*
X147701000Y-98426000D02*
X147701000Y-97283000D01*
X145415000Y-96140000D02*
X146558000Y-96140000D01*
X147701000Y-93854000D02*
X147701000Y-90552000D01*
X145415000Y-96140000D02*
X133121400Y-96140000D01*
X147701000Y-98426000D02*
X147701000Y-101702600D01*
X148844000Y-96140000D02*
G75*
G03X148844000Y-96140000I-1143000J0D01*
G01*
X145415000Y-88266000D02*
X133121400Y-88266000D01*
X149987000Y-88266000D02*
X157734000Y-88266000D01*
X157734000Y-104014000D02*
X149987000Y-104014000D01*
X145415000Y-104014000D02*
X133121400Y-104014000D01*
G04 #@! TO.C,Conn2*
X92710000Y-61722000D02*
X92710000Y-62230000D01*
X100330000Y-62230000D02*
X100330000Y-61722000D01*
X88265000Y-61722000D02*
X104775000Y-61722000D01*
X88265000Y-73660000D02*
X88265000Y-61722000D01*
X104775000Y-73660000D02*
X104775000Y-61722000D01*
X102870000Y-73660000D02*
X104775000Y-73660000D01*
X90170000Y-73660000D02*
X88265000Y-73660000D01*
X92710000Y-66040000D02*
X92710000Y-67310000D01*
X92710000Y-67310000D02*
X100330000Y-67310000D01*
X100330000Y-67310000D02*
X100330000Y-66040000D01*
X100330000Y-66040000D02*
X100330000Y-62230000D01*
X92710000Y-66040000D02*
X92710000Y-62230000D01*
X95250000Y-67310000D02*
X95250000Y-69850000D01*
X95250000Y-69850000D02*
X97790000Y-69850000D01*
X97790000Y-69850000D02*
X97790000Y-67310000D01*
X90170000Y-73660000D02*
X102870000Y-73660000D01*
X102870000Y-73660000D02*
X102870000Y-76200000D01*
X102870000Y-76200000D02*
X90170000Y-76200000D01*
X90170000Y-76200000D02*
X90170000Y-73660000D01*
G04 #@! TO.C,Conn3*
X109220000Y-76200000D02*
X109220000Y-73660000D01*
X121920000Y-76200000D02*
X109220000Y-76200000D01*
X121920000Y-73660000D02*
X121920000Y-76200000D01*
X109220000Y-73660000D02*
X121920000Y-73660000D01*
X116840000Y-69850000D02*
X116840000Y-67310000D01*
X114300000Y-69850000D02*
X116840000Y-69850000D01*
X114300000Y-67310000D02*
X114300000Y-69850000D01*
X111760000Y-66040000D02*
X111760000Y-62230000D01*
X119380000Y-66040000D02*
X119380000Y-62230000D01*
X119380000Y-67310000D02*
X119380000Y-66040000D01*
X111760000Y-67310000D02*
X119380000Y-67310000D01*
X111760000Y-66040000D02*
X111760000Y-67310000D01*
X109220000Y-73660000D02*
X107315000Y-73660000D01*
X121920000Y-73660000D02*
X123825000Y-73660000D01*
X123825000Y-73660000D02*
X123825000Y-61722000D01*
X107315000Y-73660000D02*
X107315000Y-61722000D01*
X107315000Y-61722000D02*
X123825000Y-61722000D01*
X119380000Y-62230000D02*
X119380000Y-61722000D01*
X111760000Y-61722000D02*
X111760000Y-62230000D01*
G04 #@! TO.C,U1*
X113030000Y-122428000D02*
X87630000Y-122428000D01*
X87630000Y-84328000D02*
X113030000Y-84328000D01*
X113030000Y-127508000D02*
X113030000Y-122428000D01*
X87630000Y-122428000D02*
X87630000Y-127508000D01*
X87630000Y-127508000D02*
X113030000Y-127508000D01*
X113030000Y-84328000D02*
X113030000Y-79248000D01*
X113030000Y-79248000D02*
X87630000Y-79248000D01*
X87630000Y-79248000D02*
X87630000Y-84328000D01*
G04 #@! TO.C,U2*
X100757001Y-99825000D02*
X103657001Y-99825000D01*
X103657001Y-99825000D02*
X103657001Y-109725000D01*
X103657001Y-109725000D02*
X99757001Y-109725000D01*
X99757001Y-109725000D02*
X99757001Y-100825000D01*
X99757001Y-100825000D02*
X100757001Y-99825000D01*
G04 #@! TO.C,U3*
X118110000Y-97790000D02*
X115570000Y-95250000D01*
X115570000Y-95250000D02*
X115570000Y-90170000D01*
X115570000Y-90170000D02*
X118110000Y-87630000D01*
X118110000Y-87630000D02*
X123190000Y-87630000D01*
X123190000Y-87630000D02*
X125730000Y-90170000D01*
X125730000Y-90170000D02*
X125730000Y-95250000D01*
X125730000Y-95250000D02*
X123190000Y-97790000D01*
X123190000Y-97790000D02*
X118110000Y-97790000D01*
X125730000Y-85090000D02*
X115570000Y-85090000D01*
X125730000Y-101600000D02*
X115570000Y-101600000D01*
X115570000Y-101600000D02*
X115570000Y-85090000D01*
X125730000Y-85090000D02*
X125730000Y-101600000D01*
D12*
G04 #@! TO.C,C1*
X95741267Y-102110000D02*
X95398733Y-102110000D01*
X95741267Y-101090000D02*
X95398733Y-101090000D01*
G04 #@! TO.C,C2*
X95741267Y-106170000D02*
X95398733Y-106170000D01*
X95741267Y-107190000D02*
X95398733Y-107190000D01*
G04 #@! TO.C,C3*
X123041267Y-103380000D02*
X122698733Y-103380000D01*
X123041267Y-102360000D02*
X122698733Y-102360000D01*
G04 #@! TO.C,C4*
X91950000Y-101108733D02*
X91950000Y-101451267D01*
X90930000Y-101108733D02*
X90930000Y-101451267D01*
G04 #@! TO.C,C5*
X95741267Y-103630000D02*
X95398733Y-103630000D01*
X95741267Y-104650000D02*
X95398733Y-104650000D01*
G04 #@! TO.C,C6*
X118258733Y-103380000D02*
X118601267Y-103380000D01*
X118258733Y-102360000D02*
X118601267Y-102360000D01*
G04 #@! TO.C,U1*
D11*
X89185714Y-85542380D02*
X88614285Y-85542380D01*
X88900000Y-85542380D02*
X88900000Y-84542380D01*
X88804761Y-84685238D01*
X88709523Y-84780476D01*
X88614285Y-84828095D01*
X111569523Y-85542380D02*
X110998095Y-85542380D01*
X111283809Y-85542380D02*
X111283809Y-84542380D01*
X111188571Y-84685238D01*
X111093333Y-84780476D01*
X110998095Y-84828095D01*
X112188571Y-84542380D02*
X112283809Y-84542380D01*
X112379047Y-84590000D01*
X112426666Y-84637619D01*
X112474285Y-84732857D01*
X112521904Y-84923333D01*
X112521904Y-85161428D01*
X112474285Y-85351904D01*
X112426666Y-85447142D01*
X112379047Y-85494761D01*
X112283809Y-85542380D01*
X112188571Y-85542380D01*
X112093333Y-85494761D01*
X112045714Y-85447142D01*
X111998095Y-85351904D01*
X111950476Y-85161428D01*
X111950476Y-84923333D01*
X111998095Y-84732857D01*
X112045714Y-84637619D01*
X112093333Y-84590000D01*
X112188571Y-84542380D01*
X111569523Y-122118380D02*
X110998095Y-122118380D01*
X111283809Y-122118380D02*
X111283809Y-121118380D01*
X111188571Y-121261238D01*
X111093333Y-121356476D01*
X110998095Y-121404095D01*
X112188571Y-121118380D02*
X112283809Y-121118380D01*
X112379047Y-121166000D01*
X112426666Y-121213619D01*
X112474285Y-121308857D01*
X112521904Y-121499333D01*
X112521904Y-121737428D01*
X112474285Y-121927904D01*
X112426666Y-122023142D01*
X112379047Y-122070761D01*
X112283809Y-122118380D01*
X112188571Y-122118380D01*
X112093333Y-122070761D01*
X112045714Y-122023142D01*
X111998095Y-121927904D01*
X111950476Y-121737428D01*
X111950476Y-121499333D01*
X111998095Y-121308857D01*
X112045714Y-121213619D01*
X112093333Y-121166000D01*
X112188571Y-121118380D01*
X89185714Y-122118380D02*
X88614285Y-122118380D01*
X88900000Y-122118380D02*
X88900000Y-121118380D01*
X88804761Y-121261238D01*
X88709523Y-121356476D01*
X88614285Y-121404095D01*
X110950476Y-85812380D02*
X111617142Y-86812380D01*
X111617142Y-85812380D02*
X110950476Y-86812380D01*
X111902857Y-85812380D02*
X112569523Y-85812380D01*
X112140952Y-86812380D01*
X110950476Y-119848380D02*
X111617142Y-120848380D01*
X111617142Y-119848380D02*
X110950476Y-120848380D01*
X112426666Y-119848380D02*
X112236190Y-119848380D01*
X112140952Y-119896000D01*
X112093333Y-119943619D01*
X111998095Y-120086476D01*
X111950476Y-120276952D01*
X111950476Y-120657904D01*
X111998095Y-120753142D01*
X112045714Y-120800761D01*
X112140952Y-120848380D01*
X112331428Y-120848380D01*
X112426666Y-120800761D01*
X112474285Y-120753142D01*
X112521904Y-120657904D01*
X112521904Y-120419809D01*
X112474285Y-120324571D01*
X112426666Y-120276952D01*
X112331428Y-120229333D01*
X112140952Y-120229333D01*
X112045714Y-120276952D01*
X111998095Y-120324571D01*
X111950476Y-120419809D01*
X113879333Y-83415142D02*
X113831714Y-83462761D01*
X113688857Y-83510380D01*
X113593619Y-83510380D01*
X113450761Y-83462761D01*
X113355523Y-83367523D01*
X113307904Y-83272285D01*
X113260285Y-83081809D01*
X113260285Y-82938952D01*
X113307904Y-82748476D01*
X113355523Y-82653238D01*
X113450761Y-82558000D01*
X113593619Y-82510380D01*
X113688857Y-82510380D01*
X113831714Y-82558000D01*
X113879333Y-82605619D01*
X114260285Y-82605619D02*
X114307904Y-82558000D01*
X114403142Y-82510380D01*
X114641238Y-82510380D01*
X114736476Y-82558000D01*
X114784095Y-82605619D01*
X114831714Y-82700857D01*
X114831714Y-82796095D01*
X114784095Y-82938952D01*
X114212666Y-83510380D01*
X114831714Y-83510380D01*
X113307904Y-80716380D02*
X113307904Y-79716380D01*
X113546000Y-79716380D01*
X113688857Y-79764000D01*
X113784095Y-79859238D01*
X113831714Y-79954476D01*
X113879333Y-80144952D01*
X113879333Y-80287809D01*
X113831714Y-80478285D01*
X113784095Y-80573523D01*
X113688857Y-80668761D01*
X113546000Y-80716380D01*
X113307904Y-80716380D01*
X114260285Y-79811619D02*
X114307904Y-79764000D01*
X114403142Y-79716380D01*
X114641238Y-79716380D01*
X114736476Y-79764000D01*
X114784095Y-79811619D01*
X114831714Y-79906857D01*
X114831714Y-80002095D01*
X114784095Y-80144952D01*
X114212666Y-80716380D01*
X114831714Y-80716380D01*
X114403238Y-123372571D02*
X114546095Y-123420190D01*
X114593714Y-123467809D01*
X114641333Y-123563047D01*
X114641333Y-123705904D01*
X114593714Y-123801142D01*
X114546095Y-123848761D01*
X114450857Y-123896380D01*
X114069904Y-123896380D01*
X114069904Y-122896380D01*
X114403238Y-122896380D01*
X114498476Y-122944000D01*
X114546095Y-122991619D01*
X114593714Y-123086857D01*
X114593714Y-123182095D01*
X114546095Y-123277333D01*
X114498476Y-123324952D01*
X114403238Y-123372571D01*
X114069904Y-123372571D01*
X115022285Y-122991619D02*
X115069904Y-122944000D01*
X115165142Y-122896380D01*
X115403238Y-122896380D01*
X115498476Y-122944000D01*
X115546095Y-122991619D01*
X115593714Y-123086857D01*
X115593714Y-123182095D01*
X115546095Y-123324952D01*
X114974666Y-123896380D01*
X115593714Y-123896380D01*
X114093714Y-126404666D02*
X114569904Y-126404666D01*
X113998476Y-126690380D02*
X114331809Y-125690380D01*
X114665142Y-126690380D01*
X114950857Y-125785619D02*
X114998476Y-125738000D01*
X115093714Y-125690380D01*
X115331809Y-125690380D01*
X115427047Y-125738000D01*
X115474666Y-125785619D01*
X115522285Y-125880857D01*
X115522285Y-125976095D01*
X115474666Y-126118952D01*
X114903238Y-126690380D01*
X115522285Y-126690380D01*
G04 #@! TO.C,U2*
X100945096Y-98227380D02*
X100945096Y-99036904D01*
X100992715Y-99132142D01*
X101040334Y-99179761D01*
X101135572Y-99227380D01*
X101326048Y-99227380D01*
X101421286Y-99179761D01*
X101468905Y-99132142D01*
X101516524Y-99036904D01*
X101516524Y-98227380D01*
X101945096Y-98322619D02*
X101992715Y-98275000D01*
X102087953Y-98227380D01*
X102326048Y-98227380D01*
X102421286Y-98275000D01*
X102468905Y-98322619D01*
X102516524Y-98417857D01*
X102516524Y-98513095D01*
X102468905Y-98655952D01*
X101897477Y-99227380D01*
X102516524Y-99227380D01*
G04 #@! TO.C,C1*
X95403333Y-103387142D02*
X95355714Y-103434761D01*
X95212857Y-103482380D01*
X95117619Y-103482380D01*
X94974761Y-103434761D01*
X94879523Y-103339523D01*
X94831904Y-103244285D01*
X94784285Y-103053809D01*
X94784285Y-102910952D01*
X94831904Y-102720476D01*
X94879523Y-102625238D01*
X94974761Y-102530000D01*
X95117619Y-102482380D01*
X95212857Y-102482380D01*
X95355714Y-102530000D01*
X95403333Y-102577619D01*
X96355714Y-103482380D02*
X95784285Y-103482380D01*
X96070000Y-103482380D02*
X96070000Y-102482380D01*
X95974761Y-102625238D01*
X95879523Y-102720476D01*
X95784285Y-102768095D01*
G04 #@! TO.C,C2*
X95403333Y-108467142D02*
X95355714Y-108514761D01*
X95212857Y-108562380D01*
X95117619Y-108562380D01*
X94974761Y-108514761D01*
X94879523Y-108419523D01*
X94831904Y-108324285D01*
X94784285Y-108133809D01*
X94784285Y-107990952D01*
X94831904Y-107800476D01*
X94879523Y-107705238D01*
X94974761Y-107610000D01*
X95117619Y-107562380D01*
X95212857Y-107562380D01*
X95355714Y-107610000D01*
X95403333Y-107657619D01*
X95784285Y-107657619D02*
X95831904Y-107610000D01*
X95927142Y-107562380D01*
X96165238Y-107562380D01*
X96260476Y-107610000D01*
X96308095Y-107657619D01*
X96355714Y-107752857D01*
X96355714Y-107848095D01*
X96308095Y-107990952D01*
X95736666Y-108562380D01*
X96355714Y-108562380D01*
G04 #@! TO.C,C3*
X122703333Y-104657142D02*
X122655714Y-104704761D01*
X122512857Y-104752380D01*
X122417619Y-104752380D01*
X122274761Y-104704761D01*
X122179523Y-104609523D01*
X122131904Y-104514285D01*
X122084285Y-104323809D01*
X122084285Y-104180952D01*
X122131904Y-103990476D01*
X122179523Y-103895238D01*
X122274761Y-103800000D01*
X122417619Y-103752380D01*
X122512857Y-103752380D01*
X122655714Y-103800000D01*
X122703333Y-103847619D01*
X123036666Y-103752380D02*
X123655714Y-103752380D01*
X123322380Y-104133333D01*
X123465238Y-104133333D01*
X123560476Y-104180952D01*
X123608095Y-104228571D01*
X123655714Y-104323809D01*
X123655714Y-104561904D01*
X123608095Y-104657142D01*
X123560476Y-104704761D01*
X123465238Y-104752380D01*
X123179523Y-104752380D01*
X123084285Y-104704761D01*
X123036666Y-104657142D01*
G04 #@! TO.C,C4*
X93227142Y-101446666D02*
X93274761Y-101494285D01*
X93322380Y-101637142D01*
X93322380Y-101732380D01*
X93274761Y-101875238D01*
X93179523Y-101970476D01*
X93084285Y-102018095D01*
X92893809Y-102065714D01*
X92750952Y-102065714D01*
X92560476Y-102018095D01*
X92465238Y-101970476D01*
X92370000Y-101875238D01*
X92322380Y-101732380D01*
X92322380Y-101637142D01*
X92370000Y-101494285D01*
X92417619Y-101446666D01*
X92655714Y-100589523D02*
X93322380Y-100589523D01*
X92274761Y-100827619D02*
X92989047Y-101065714D01*
X92989047Y-100446666D01*
G04 #@! TO.C,C5*
X95403333Y-105927142D02*
X95355714Y-105974761D01*
X95212857Y-106022380D01*
X95117619Y-106022380D01*
X94974761Y-105974761D01*
X94879523Y-105879523D01*
X94831904Y-105784285D01*
X94784285Y-105593809D01*
X94784285Y-105450952D01*
X94831904Y-105260476D01*
X94879523Y-105165238D01*
X94974761Y-105070000D01*
X95117619Y-105022380D01*
X95212857Y-105022380D01*
X95355714Y-105070000D01*
X95403333Y-105117619D01*
X96308095Y-105022380D02*
X95831904Y-105022380D01*
X95784285Y-105498571D01*
X95831904Y-105450952D01*
X95927142Y-105403333D01*
X96165238Y-105403333D01*
X96260476Y-105450952D01*
X96308095Y-105498571D01*
X96355714Y-105593809D01*
X96355714Y-105831904D01*
X96308095Y-105927142D01*
X96260476Y-105974761D01*
X96165238Y-106022380D01*
X95927142Y-106022380D01*
X95831904Y-105974761D01*
X95784285Y-105927142D01*
G04 #@! TO.C,C6*
X118263333Y-101797142D02*
X118215714Y-101844761D01*
X118072857Y-101892380D01*
X117977619Y-101892380D01*
X117834761Y-101844761D01*
X117739523Y-101749523D01*
X117691904Y-101654285D01*
X117644285Y-101463809D01*
X117644285Y-101320952D01*
X117691904Y-101130476D01*
X117739523Y-101035238D01*
X117834761Y-100940000D01*
X117977619Y-100892380D01*
X118072857Y-100892380D01*
X118215714Y-100940000D01*
X118263333Y-100987619D01*
X119120476Y-100892380D02*
X118930000Y-100892380D01*
X118834761Y-100940000D01*
X118787142Y-100987619D01*
X118691904Y-101130476D01*
X118644285Y-101320952D01*
X118644285Y-101701904D01*
X118691904Y-101797142D01*
X118739523Y-101844761D01*
X118834761Y-101892380D01*
X119025238Y-101892380D01*
X119120476Y-101844761D01*
X119168095Y-101797142D01*
X119215714Y-101701904D01*
X119215714Y-101463809D01*
X119168095Y-101368571D01*
X119120476Y-101320952D01*
X119025238Y-101273333D01*
X118834761Y-101273333D01*
X118739523Y-101320952D01*
X118691904Y-101368571D01*
X118644285Y-101463809D01*
G04 #@! TD*
M02*
