G04 #@! TF.GenerationSoftware,KiCad,Pcbnew,(5.0.0)*
G04 #@! TF.CreationDate,2018-09-29T16:55:19-05:00*
G04 #@! TF.ProjectId,Driveboard_Hardware,4472697665626F6172645F4861726477,rev?*
G04 #@! TF.SameCoordinates,Original*
G04 #@! TF.FileFunction,Copper,L2,Bot,Signal*
G04 #@! TF.FilePolarity,Positive*
%FSLAX46Y46*%
G04 Gerber Fmt 4.6, Leading zero omitted, Abs format (unit mm)*
G04 Created by KiCad (PCBNEW (5.0.0)) date 09/29/18 16:55:19*
%MOMM*%
%LPD*%
G01*
G04 APERTURE LIST*
G04 #@! TA.AperFunction,ComponentPad*
%ADD10C,1.520000*%
G04 #@! TD*
G04 #@! TA.AperFunction,ComponentPad*
%ADD11C,1.524000*%
G04 #@! TD*
G04 #@! TA.AperFunction,ComponentPad*
%ADD12C,5.080000*%
G04 #@! TD*
G04 #@! TA.AperFunction,ViaPad*
%ADD13C,0.800000*%
G04 #@! TD*
G04 #@! TA.AperFunction,Conductor*
%ADD14C,0.381000*%
G04 #@! TD*
G04 #@! TA.AperFunction,Conductor*
%ADD15C,0.254000*%
G04 #@! TD*
G04 APERTURE END LIST*
D10*
G04 #@! TO.P,U1,+5V*
G04 #@! TO.N,Net-(C2-Pad1)*
X65049001Y-129285001D03*
G04 #@! TO.P,U1,GND*
G04 #@! TO.N,Earth*
X67589001Y-129285001D03*
G04 #@! TO.P,U1,PE0*
G04 #@! TO.N,Net-(U1-PadPE0)*
X70129001Y-129285001D03*
G04 #@! TO.P,U1,PE1*
G04 #@! TO.N,Net-(U1-PadPE1)*
X72669001Y-129285001D03*
G04 #@! TO.P,U1,PE2*
G04 #@! TO.N,Net-(U1-PadPE2)*
X75209001Y-129285001D03*
G04 #@! TO.P,U1,PE3*
G04 #@! TO.N,Net-(U1-PadPE3)*
X77749001Y-129285001D03*
G04 #@! TO.P,U1,PD7*
G04 #@! TO.N,Net-(U1-PadPD7)*
X80289001Y-129285001D03*
G04 #@! TO.P,U1,PA6*
G04 #@! TO.N,Net-(U1-PadPA6)*
X82829001Y-129285001D03*
G04 #@! TO.P,U1,PM4*
G04 #@! TO.N,Net-(U1-PadPM4)*
X85369001Y-129285001D03*
G04 #@! TO.P,U1,PM5*
G04 #@! TO.N,Net-(U1-PadPM5)*
X87909001Y-129285001D03*
G04 #@! TO.P,U1,+3V3*
G04 #@! TO.N,Net-(U1-Pad+3V3)*
X65049001Y-131825001D03*
G04 #@! TO.P,U1,PE4*
G04 #@! TO.N,Net-(U1-PadPE4)*
X67589001Y-131825001D03*
G04 #@! TO.P,U1,PC4*
G04 #@! TO.N,Net-(U1-PadPC4)*
X70129001Y-131825001D03*
G04 #@! TO.P,U1,PC5*
G04 #@! TO.N,Net-(U1-PadPC5)*
X72669001Y-131825001D03*
G04 #@! TO.P,U1,PC6*
G04 #@! TO.N,Net-(U1-PadPC6)*
X75209001Y-131825001D03*
G04 #@! TO.P,U1,PE5*
G04 #@! TO.N,Net-(U1-PadPE5)*
X77749001Y-131825001D03*
G04 #@! TO.P,U1,PD3*
G04 #@! TO.N,Net-(U1-PadPD3)*
X80289001Y-131825001D03*
G04 #@! TO.P,U1,PC7*
G04 #@! TO.N,Net-(U1-PadPC7)*
X82829001Y-131825001D03*
G04 #@! TO.P,U1,PB2*
G04 #@! TO.N,Net-(U1-PadPB2)*
X85369001Y-131825001D03*
G04 #@! TO.P,U1,PB3*
G04 #@! TO.N,Net-(U1-PadPB3)*
X87909001Y-131825001D03*
G04 #@! TO.P,U1,PF1*
G04 #@! TO.N,Net-(U1-PadPF1)*
X65049001Y-88645001D03*
G04 #@! TO.P,U1,PF2*
G04 #@! TO.N,Net-(U1-PadPF2)*
X67589001Y-88645001D03*
G04 #@! TO.P,U1,PF3*
G04 #@! TO.N,Net-(U1-PadPF3)*
X70129001Y-88645001D03*
G04 #@! TO.P,U1,PG0*
G04 #@! TO.N,Net-(U1-PadPG0)*
X72669001Y-88645001D03*
G04 #@! TO.P,U1,PL4*
G04 #@! TO.N,Net-(U1-PadPL4)*
X75209001Y-88645001D03*
G04 #@! TO.P,U1,PL5*
G04 #@! TO.N,Net-(U1-PadPL5)*
X77749001Y-88645001D03*
G04 #@! TO.P,U1,PL0*
G04 #@! TO.N,Net-(U1-PadPL0)*
X80289001Y-88645001D03*
G04 #@! TO.P,U1,PL1*
G04 #@! TO.N,Net-(U1-PadPL1)*
X82829001Y-88645001D03*
G04 #@! TO.P,U1,PL2*
G04 #@! TO.N,Net-(U1-PadPL2)*
X85369001Y-88645001D03*
G04 #@! TO.P,U1,PL3*
G04 #@! TO.N,Net-(U1-PadPL3)*
X87909001Y-88645001D03*
G04 #@! TO.P,U1,GND*
G04 #@! TO.N,Earth*
X65049001Y-86105001D03*
G04 #@! TO.P,U1,PM3*
G04 #@! TO.N,Net-(U1-PadPM3)*
X67589001Y-86105001D03*
G04 #@! TO.P,U1,PH2*
G04 #@! TO.N,Net-(U1-PadPH2)*
X70129001Y-86105001D03*
G04 #@! TO.P,U1,PH3*
G04 #@! TO.N,Net-(U1-PadPH3)*
X72669001Y-86105001D03*
G04 #@! TO.P,U1,Rese*
G04 #@! TO.N,Net-(U1-PadRese)*
X75209001Y-86105001D03*
G04 #@! TO.P,U1,PD1*
G04 #@! TO.N,Net-(U1-PadPD1)*
X77749001Y-86105001D03*
G04 #@! TO.P,U1,PD0*
G04 #@! TO.N,Net-(U1-PadPD0)*
X80289001Y-86105001D03*
G04 #@! TO.P,U1,PN2*
G04 #@! TO.N,Net-(U1-PadPN2)*
X82829001Y-86105001D03*
G04 #@! TO.P,U1,PN3*
G04 #@! TO.N,Net-(U1-PadPN3)*
X85369001Y-86105001D03*
G04 #@! TO.P,U1,PP2*
G04 #@! TO.N,Net-(U1-PadPP2)*
X87909001Y-86105001D03*
G04 #@! TD*
D11*
G04 #@! TO.P,U2,1*
G04 #@! TO.N,Net-(C1-Pad1)*
X96064008Y-116557532D03*
G04 #@! TO.P,U2,2*
G04 #@! TO.N,Earth*
X98604008Y-116557532D03*
G04 #@! TO.P,U2,3*
G04 #@! TO.N,Net-(C2-Pad1)*
X101144008Y-116557532D03*
G04 #@! TD*
G04 #@! TO.P,Conn2,1*
G04 #@! TO.N,Net-(Conn2-Pad1)*
X67310000Y-77470000D03*
G04 #@! TO.P,Conn2,2*
G04 #@! TO.N,Net-(Conn2-Pad2)*
X69850000Y-77470000D03*
G04 #@! TO.P,Conn2,3*
G04 #@! TO.N,Earth*
X72390000Y-77470000D03*
G04 #@! TO.P,Conn2,4*
G04 #@! TO.N,Net-(Conn2-Pad4)*
X74930000Y-77470000D03*
G04 #@! TO.P,Conn2,5*
G04 #@! TO.N,Net-(Conn2-Pad5)*
X77470000Y-77470000D03*
G04 #@! TD*
G04 #@! TO.P,Conn3,5*
G04 #@! TO.N,Net-(Conn3-Pad5)*
X120650000Y-77470000D03*
G04 #@! TO.P,Conn3,4*
G04 #@! TO.N,Net-(Conn3-Pad4)*
X118110000Y-77470000D03*
G04 #@! TO.P,Conn3,3*
G04 #@! TO.N,Earth*
X115570000Y-77470000D03*
G04 #@! TO.P,Conn3,2*
G04 #@! TO.N,Net-(Conn3-Pad2)*
X113030000Y-77470000D03*
G04 #@! TO.P,Conn3,1*
G04 #@! TO.N,Net-(Conn3-Pad1)*
X110490000Y-77470000D03*
G04 #@! TD*
D12*
G04 #@! TO.P,Conn1,1*
G04 #@! TO.N,Earth*
X105638600Y-99313000D03*
G04 #@! TO.P,Conn1,2*
G04 #@! TO.N,Net-(C1-Pad1)*
X105638600Y-107314000D03*
G04 #@! TD*
D13*
G04 #@! TO.N,Earth*
X73914000Y-104140000D03*
X69850000Y-104140000D03*
G04 #@! TO.N,Net-(C2-Pad1)*
X88392000Y-102870000D03*
G04 #@! TO.N,Net-(Conn2-Pad4)*
X90170000Y-105410000D03*
X90170000Y-81280000D03*
G04 #@! TO.N,Net-(Conn2-Pad5)*
X91440000Y-106680000D03*
X91440000Y-80010000D03*
G04 #@! TO.N,Net-(Conn3-Pad5)*
X120650000Y-91440000D03*
X115316000Y-91440000D03*
G04 #@! TO.N,Net-(U1-PadPE2)*
X85852000Y-125730000D03*
X89916000Y-125730000D03*
G04 #@! TD*
D14*
G04 #@! TO.N,Earth*
X73914000Y-104140000D02*
X69850000Y-104140000D01*
G04 #@! TO.N,Net-(Conn2-Pad4)*
X90170000Y-105410000D02*
X90170000Y-81280000D01*
G04 #@! TO.N,Net-(Conn2-Pad5)*
X91440000Y-80010000D02*
X91440000Y-106680000D01*
G04 #@! TO.N,Net-(Conn3-Pad5)*
X120650000Y-91440000D02*
X115316000Y-91440000D01*
G04 #@! TO.N,Net-(U1-PadPE2)*
X85852000Y-125730000D02*
X89916000Y-125730000D01*
X89916000Y-125730000D02*
X89916000Y-125730000D01*
G04 #@! TD*
D15*
G04 #@! TO.N,Net-(C2-Pad1)*
G36*
X123051009Y-63000090D02*
X123390352Y-63154381D01*
X123672752Y-63397712D01*
X123875506Y-63710523D01*
X123989348Y-64091184D01*
X124004001Y-64288363D01*
X124004001Y-67698247D01*
X123920711Y-67497167D01*
X123256833Y-66833289D01*
X122389433Y-66474000D01*
X121450567Y-66474000D01*
X120583167Y-66833289D01*
X119919289Y-67497167D01*
X119560000Y-68364567D01*
X119560000Y-69303433D01*
X119919289Y-70170833D01*
X120583167Y-70834711D01*
X121450567Y-71194000D01*
X122389433Y-71194000D01*
X123256833Y-70834711D01*
X123920711Y-70170833D01*
X124004001Y-69969754D01*
X124004000Y-110693419D01*
X123943910Y-111113009D01*
X123789619Y-111452352D01*
X123546288Y-111734752D01*
X123233479Y-111937506D01*
X122852815Y-112051348D01*
X122655649Y-112066000D01*
X107003926Y-112066000D01*
X106934000Y-112052091D01*
X106864075Y-112066000D01*
X106864074Y-112066000D01*
X106656972Y-112107195D01*
X106422119Y-112264119D01*
X106265195Y-112498972D01*
X106210091Y-112776000D01*
X106224001Y-112845931D01*
X106224000Y-133534074D01*
X106210091Y-133604000D01*
X106265195Y-133881028D01*
X106422119Y-134115881D01*
X106656972Y-134272805D01*
X106816571Y-134304551D01*
X106934000Y-134327909D01*
X107003925Y-134314000D01*
X122631419Y-134314000D01*
X123051009Y-134374090D01*
X123390352Y-134528381D01*
X123672752Y-134771712D01*
X123875506Y-135084523D01*
X123989348Y-135465184D01*
X124004000Y-135662350D01*
X124004001Y-143153281D01*
X123918491Y-143179423D01*
X123826033Y-143206460D01*
X123818159Y-143210098D01*
X123296644Y-143454948D01*
X123216075Y-143507872D01*
X123134927Y-143559768D01*
X123128390Y-143565470D01*
X122696558Y-143946851D01*
X122634096Y-144020244D01*
X122570760Y-144092847D01*
X122566087Y-144100154D01*
X122258654Y-144587407D01*
X122219298Y-144675387D01*
X122178889Y-144762840D01*
X122176457Y-144771160D01*
X122176454Y-144771166D01*
X122176453Y-144771173D01*
X122018134Y-145325118D01*
X122005056Y-145420586D01*
X121990813Y-145515890D01*
X121990813Y-145524564D01*
X121994333Y-146100687D01*
X122008588Y-146196068D01*
X122021654Y-146291455D01*
X122024088Y-146299781D01*
X122189164Y-146851758D01*
X122229591Y-146939250D01*
X122268930Y-147027194D01*
X122273603Y-147034501D01*
X122586966Y-147517961D01*
X122650328Y-147590594D01*
X122712763Y-147663955D01*
X122719296Y-147669654D01*
X122719300Y-147669658D01*
X122719305Y-147669661D01*
X123155759Y-148045734D01*
X123236942Y-148097653D01*
X123317475Y-148150554D01*
X123325346Y-148154190D01*
X123325349Y-148154192D01*
X123325352Y-148154193D01*
X123849817Y-148392653D01*
X123942309Y-148419700D01*
X124004000Y-148438561D01*
X124004001Y-156413412D01*
X123943910Y-156833009D01*
X123789619Y-157172352D01*
X123546288Y-157454752D01*
X123233479Y-157657506D01*
X122852815Y-157771348D01*
X122655649Y-157786000D01*
X66338667Y-157786000D01*
X65840301Y-157723042D01*
X65415111Y-157554697D01*
X65045141Y-157285899D01*
X64753645Y-156933541D01*
X64558933Y-156519756D01*
X64466907Y-156037339D01*
X64464000Y-155944836D01*
X64464000Y-148438719D01*
X64549509Y-148412577D01*
X64641967Y-148385540D01*
X64649841Y-148381902D01*
X65171356Y-148137052D01*
X65251925Y-148084128D01*
X65333073Y-148032232D01*
X65339610Y-148026530D01*
X65771442Y-147645149D01*
X65833887Y-147571776D01*
X65897240Y-147499153D01*
X65901913Y-147491846D01*
X66209346Y-147004593D01*
X66248687Y-146916645D01*
X66289111Y-146829160D01*
X66291545Y-146820835D01*
X66449866Y-146266882D01*
X66462943Y-146171421D01*
X66477187Y-146076111D01*
X66477187Y-146067436D01*
X66473667Y-145491313D01*
X66459414Y-145395943D01*
X66446346Y-145300544D01*
X66443912Y-145292219D01*
X66278836Y-144740241D01*
X66238418Y-144652769D01*
X66199071Y-144564806D01*
X66194397Y-144557499D01*
X65881034Y-144074040D01*
X65817707Y-144001447D01*
X65755237Y-143928045D01*
X65748700Y-143922343D01*
X65312241Y-143546266D01*
X65231058Y-143494347D01*
X65150525Y-143441446D01*
X65142654Y-143437810D01*
X65142651Y-143437808D01*
X65142648Y-143437807D01*
X64618183Y-143199347D01*
X64525691Y-143172300D01*
X64464000Y-143153439D01*
X64464000Y-133092623D01*
X64771518Y-133220001D01*
X65326484Y-133220001D01*
X65839205Y-133007625D01*
X66231625Y-132615205D01*
X66319001Y-132404261D01*
X66406377Y-132615205D01*
X66798797Y-133007625D01*
X67311518Y-133220001D01*
X67866484Y-133220001D01*
X68379205Y-133007625D01*
X68771625Y-132615205D01*
X68859001Y-132404261D01*
X68946377Y-132615205D01*
X69338797Y-133007625D01*
X69851518Y-133220001D01*
X70406484Y-133220001D01*
X70919205Y-133007625D01*
X71311625Y-132615205D01*
X71399001Y-132404261D01*
X71486377Y-132615205D01*
X71878797Y-133007625D01*
X72391518Y-133220001D01*
X72946484Y-133220001D01*
X73459205Y-133007625D01*
X73851625Y-132615205D01*
X73939001Y-132404261D01*
X74026377Y-132615205D01*
X74418797Y-133007625D01*
X74931518Y-133220001D01*
X75486484Y-133220001D01*
X75999205Y-133007625D01*
X76391625Y-132615205D01*
X76479001Y-132404261D01*
X76566377Y-132615205D01*
X76958797Y-133007625D01*
X77471518Y-133220001D01*
X78026484Y-133220001D01*
X78539205Y-133007625D01*
X78931625Y-132615205D01*
X79019001Y-132404261D01*
X79106377Y-132615205D01*
X79498797Y-133007625D01*
X80011518Y-133220001D01*
X80566484Y-133220001D01*
X81079205Y-133007625D01*
X81471625Y-132615205D01*
X81559001Y-132404261D01*
X81646377Y-132615205D01*
X82038797Y-133007625D01*
X82551518Y-133220001D01*
X83106484Y-133220001D01*
X83619205Y-133007625D01*
X84011625Y-132615205D01*
X84099001Y-132404261D01*
X84186377Y-132615205D01*
X84578797Y-133007625D01*
X85091518Y-133220001D01*
X85646484Y-133220001D01*
X86159205Y-133007625D01*
X86551625Y-132615205D01*
X86639001Y-132404261D01*
X86726377Y-132615205D01*
X87118797Y-133007625D01*
X87631518Y-133220001D01*
X88186484Y-133220001D01*
X88699205Y-133007625D01*
X89091625Y-132615205D01*
X89304001Y-132102484D01*
X89304001Y-131547518D01*
X89091625Y-131034797D01*
X88699205Y-130642377D01*
X88488261Y-130555001D01*
X88699205Y-130467625D01*
X89091625Y-130075205D01*
X89304001Y-129562484D01*
X89304001Y-129007518D01*
X89091625Y-128494797D01*
X88699205Y-128102377D01*
X88186484Y-127890001D01*
X87631518Y-127890001D01*
X87118797Y-128102377D01*
X86726377Y-128494797D01*
X86639001Y-128705741D01*
X86551625Y-128494797D01*
X86159205Y-128102377D01*
X85646484Y-127890001D01*
X85091518Y-127890001D01*
X84578797Y-128102377D01*
X84186377Y-128494797D01*
X84099001Y-128705741D01*
X84011625Y-128494797D01*
X83619205Y-128102377D01*
X83106484Y-127890001D01*
X82551518Y-127890001D01*
X82038797Y-128102377D01*
X81646377Y-128494797D01*
X81559001Y-128705741D01*
X81471625Y-128494797D01*
X81079205Y-128102377D01*
X80566484Y-127890001D01*
X80011518Y-127890001D01*
X79498797Y-128102377D01*
X79106377Y-128494797D01*
X79019001Y-128705741D01*
X78931625Y-128494797D01*
X78539205Y-128102377D01*
X78026484Y-127890001D01*
X77471518Y-127890001D01*
X76958797Y-128102377D01*
X76566377Y-128494797D01*
X76479001Y-128705741D01*
X76391625Y-128494797D01*
X75999205Y-128102377D01*
X75486484Y-127890001D01*
X74931518Y-127890001D01*
X74418797Y-128102377D01*
X74026377Y-128494797D01*
X73939001Y-128705741D01*
X73851625Y-128494797D01*
X73459205Y-128102377D01*
X72946484Y-127890001D01*
X72391518Y-127890001D01*
X71878797Y-128102377D01*
X71486377Y-128494797D01*
X71399001Y-128705741D01*
X71311625Y-128494797D01*
X70919205Y-128102377D01*
X70406484Y-127890001D01*
X69851518Y-127890001D01*
X69338797Y-128102377D01*
X68946377Y-128494797D01*
X68859001Y-128705741D01*
X68771625Y-128494797D01*
X68379205Y-128102377D01*
X67866484Y-127890001D01*
X67311518Y-127890001D01*
X66798797Y-128102377D01*
X66406377Y-128494797D01*
X66194001Y-129007518D01*
X66194001Y-129562484D01*
X66406377Y-130075205D01*
X66798797Y-130467625D01*
X67009741Y-130555001D01*
X66798797Y-130642377D01*
X66406377Y-131034797D01*
X66319001Y-131245741D01*
X66231625Y-131034797D01*
X65839205Y-130642377D01*
X65326484Y-130430001D01*
X64771518Y-130430001D01*
X64464000Y-130557379D01*
X64464000Y-125524126D01*
X84817000Y-125524126D01*
X84817000Y-125935874D01*
X84974569Y-126316280D01*
X85265720Y-126607431D01*
X85646126Y-126765000D01*
X86057874Y-126765000D01*
X86438280Y-126607431D01*
X86490211Y-126555500D01*
X89277789Y-126555500D01*
X89329720Y-126607431D01*
X89710126Y-126765000D01*
X90121874Y-126765000D01*
X90502280Y-126607431D01*
X90793431Y-126316280D01*
X90951000Y-125935874D01*
X90951000Y-125524126D01*
X90793431Y-125143720D01*
X90502280Y-124852569D01*
X90121874Y-124695000D01*
X89710126Y-124695000D01*
X89329720Y-124852569D01*
X89277789Y-124904500D01*
X86490211Y-124904500D01*
X86438280Y-124852569D01*
X86057874Y-124695000D01*
X85646126Y-124695000D01*
X85265720Y-124852569D01*
X84974569Y-125143720D01*
X84817000Y-125524126D01*
X64464000Y-125524126D01*
X64464000Y-116279651D01*
X94667008Y-116279651D01*
X94667008Y-116835413D01*
X94879688Y-117348869D01*
X95272671Y-117741852D01*
X95786127Y-117954532D01*
X96341889Y-117954532D01*
X96855345Y-117741852D01*
X97248328Y-117348869D01*
X97334008Y-117142019D01*
X97419688Y-117348869D01*
X97812671Y-117741852D01*
X98326127Y-117954532D01*
X98881889Y-117954532D01*
X99395345Y-117741852D01*
X99788328Y-117348869D01*
X100001008Y-116835413D01*
X100001008Y-116279651D01*
X99788328Y-115766195D01*
X99395345Y-115373212D01*
X98881889Y-115160532D01*
X98326127Y-115160532D01*
X97812671Y-115373212D01*
X97419688Y-115766195D01*
X97334008Y-115973045D01*
X97248328Y-115766195D01*
X96855345Y-115373212D01*
X96341889Y-115160532D01*
X95786127Y-115160532D01*
X95272671Y-115373212D01*
X94879688Y-115766195D01*
X94667008Y-116279651D01*
X64464000Y-116279651D01*
X64464000Y-103934126D01*
X68815000Y-103934126D01*
X68815000Y-104345874D01*
X68972569Y-104726280D01*
X69263720Y-105017431D01*
X69644126Y-105175000D01*
X70055874Y-105175000D01*
X70436280Y-105017431D01*
X70488211Y-104965500D01*
X73275789Y-104965500D01*
X73327720Y-105017431D01*
X73708126Y-105175000D01*
X74119874Y-105175000D01*
X74500280Y-105017431D01*
X74791431Y-104726280D01*
X74949000Y-104345874D01*
X74949000Y-103934126D01*
X74791431Y-103553720D01*
X74500280Y-103262569D01*
X74119874Y-103105000D01*
X73708126Y-103105000D01*
X73327720Y-103262569D01*
X73275789Y-103314500D01*
X70488211Y-103314500D01*
X70436280Y-103262569D01*
X70055874Y-103105000D01*
X69644126Y-103105000D01*
X69263720Y-103262569D01*
X68972569Y-103553720D01*
X68815000Y-103934126D01*
X64464000Y-103934126D01*
X64464000Y-89912623D01*
X64771518Y-90040001D01*
X65326484Y-90040001D01*
X65839205Y-89827625D01*
X66231625Y-89435205D01*
X66319001Y-89224261D01*
X66406377Y-89435205D01*
X66798797Y-89827625D01*
X67311518Y-90040001D01*
X67866484Y-90040001D01*
X68379205Y-89827625D01*
X68771625Y-89435205D01*
X68859001Y-89224261D01*
X68946377Y-89435205D01*
X69338797Y-89827625D01*
X69851518Y-90040001D01*
X70406484Y-90040001D01*
X70919205Y-89827625D01*
X71311625Y-89435205D01*
X71399001Y-89224261D01*
X71486377Y-89435205D01*
X71878797Y-89827625D01*
X72391518Y-90040001D01*
X72946484Y-90040001D01*
X73459205Y-89827625D01*
X73851625Y-89435205D01*
X73939001Y-89224261D01*
X74026377Y-89435205D01*
X74418797Y-89827625D01*
X74931518Y-90040001D01*
X75486484Y-90040001D01*
X75999205Y-89827625D01*
X76391625Y-89435205D01*
X76479001Y-89224261D01*
X76566377Y-89435205D01*
X76958797Y-89827625D01*
X77471518Y-90040001D01*
X78026484Y-90040001D01*
X78539205Y-89827625D01*
X78931625Y-89435205D01*
X79019001Y-89224261D01*
X79106377Y-89435205D01*
X79498797Y-89827625D01*
X80011518Y-90040001D01*
X80566484Y-90040001D01*
X81079205Y-89827625D01*
X81471625Y-89435205D01*
X81559001Y-89224261D01*
X81646377Y-89435205D01*
X82038797Y-89827625D01*
X82551518Y-90040001D01*
X83106484Y-90040001D01*
X83619205Y-89827625D01*
X84011625Y-89435205D01*
X84099001Y-89224261D01*
X84186377Y-89435205D01*
X84578797Y-89827625D01*
X85091518Y-90040001D01*
X85646484Y-90040001D01*
X86159205Y-89827625D01*
X86551625Y-89435205D01*
X86639001Y-89224261D01*
X86726377Y-89435205D01*
X87118797Y-89827625D01*
X87631518Y-90040001D01*
X88186484Y-90040001D01*
X88699205Y-89827625D01*
X89091625Y-89435205D01*
X89304001Y-88922484D01*
X89304001Y-88367518D01*
X89091625Y-87854797D01*
X88699205Y-87462377D01*
X88488261Y-87375001D01*
X88699205Y-87287625D01*
X89091625Y-86895205D01*
X89304001Y-86382484D01*
X89304001Y-85827518D01*
X89091625Y-85314797D01*
X88699205Y-84922377D01*
X88186484Y-84710001D01*
X87631518Y-84710001D01*
X87118797Y-84922377D01*
X86726377Y-85314797D01*
X86639001Y-85525741D01*
X86551625Y-85314797D01*
X86159205Y-84922377D01*
X85646484Y-84710001D01*
X85091518Y-84710001D01*
X84578797Y-84922377D01*
X84186377Y-85314797D01*
X84099001Y-85525741D01*
X84011625Y-85314797D01*
X83619205Y-84922377D01*
X83106484Y-84710001D01*
X82551518Y-84710001D01*
X82038797Y-84922377D01*
X81646377Y-85314797D01*
X81559001Y-85525741D01*
X81471625Y-85314797D01*
X81079205Y-84922377D01*
X80566484Y-84710001D01*
X80011518Y-84710001D01*
X79498797Y-84922377D01*
X79106377Y-85314797D01*
X79019001Y-85525741D01*
X78931625Y-85314797D01*
X78539205Y-84922377D01*
X78026484Y-84710001D01*
X77471518Y-84710001D01*
X76958797Y-84922377D01*
X76566377Y-85314797D01*
X76479001Y-85525741D01*
X76391625Y-85314797D01*
X75999205Y-84922377D01*
X75486484Y-84710001D01*
X74931518Y-84710001D01*
X74418797Y-84922377D01*
X74026377Y-85314797D01*
X73939001Y-85525741D01*
X73851625Y-85314797D01*
X73459205Y-84922377D01*
X72946484Y-84710001D01*
X72391518Y-84710001D01*
X71878797Y-84922377D01*
X71486377Y-85314797D01*
X71399001Y-85525741D01*
X71311625Y-85314797D01*
X70919205Y-84922377D01*
X70406484Y-84710001D01*
X69851518Y-84710001D01*
X69338797Y-84922377D01*
X68946377Y-85314797D01*
X68859001Y-85525741D01*
X68771625Y-85314797D01*
X68379205Y-84922377D01*
X67866484Y-84710001D01*
X67311518Y-84710001D01*
X66798797Y-84922377D01*
X66406377Y-85314797D01*
X66319001Y-85525741D01*
X66231625Y-85314797D01*
X65839205Y-84922377D01*
X65326484Y-84710001D01*
X64771518Y-84710001D01*
X64464000Y-84837379D01*
X64464000Y-81074126D01*
X89135000Y-81074126D01*
X89135000Y-81485874D01*
X89292569Y-81866280D01*
X89344501Y-81918212D01*
X89344500Y-104771789D01*
X89292569Y-104823720D01*
X89135000Y-105204126D01*
X89135000Y-105615874D01*
X89292569Y-105996280D01*
X89583720Y-106287431D01*
X89964126Y-106445000D01*
X90375874Y-106445000D01*
X90425595Y-106424405D01*
X90405000Y-106474126D01*
X90405000Y-106885874D01*
X90562569Y-107266280D01*
X90853720Y-107557431D01*
X91234126Y-107715000D01*
X91645874Y-107715000D01*
X92026280Y-107557431D01*
X92317431Y-107266280D01*
X92475000Y-106885874D01*
X92475000Y-106682453D01*
X102463600Y-106682453D01*
X102463600Y-107945547D01*
X102946965Y-109112493D01*
X103840107Y-110005635D01*
X105007053Y-110489000D01*
X106270147Y-110489000D01*
X107437093Y-110005635D01*
X108330235Y-109112493D01*
X108813600Y-107945547D01*
X108813600Y-106682453D01*
X108330235Y-105515507D01*
X107437093Y-104622365D01*
X106270147Y-104139000D01*
X105007053Y-104139000D01*
X103840107Y-104622365D01*
X102946965Y-105515507D01*
X102463600Y-106682453D01*
X92475000Y-106682453D01*
X92475000Y-106474126D01*
X92317431Y-106093720D01*
X92265500Y-106041789D01*
X92265500Y-98681453D01*
X102463600Y-98681453D01*
X102463600Y-99944547D01*
X102946965Y-101111493D01*
X103840107Y-102004635D01*
X105007053Y-102488000D01*
X106270147Y-102488000D01*
X107437093Y-102004635D01*
X108330235Y-101111493D01*
X108813600Y-99944547D01*
X108813600Y-98681453D01*
X108330235Y-97514507D01*
X107437093Y-96621365D01*
X106270147Y-96138000D01*
X105007053Y-96138000D01*
X103840107Y-96621365D01*
X102946965Y-97514507D01*
X102463600Y-98681453D01*
X92265500Y-98681453D01*
X92265500Y-91234126D01*
X114281000Y-91234126D01*
X114281000Y-91645874D01*
X114438569Y-92026280D01*
X114729720Y-92317431D01*
X115110126Y-92475000D01*
X115521874Y-92475000D01*
X115902280Y-92317431D01*
X115954211Y-92265500D01*
X120011789Y-92265500D01*
X120063720Y-92317431D01*
X120444126Y-92475000D01*
X120855874Y-92475000D01*
X121236280Y-92317431D01*
X121527431Y-92026280D01*
X121685000Y-91645874D01*
X121685000Y-91234126D01*
X121527431Y-90853720D01*
X121236280Y-90562569D01*
X120855874Y-90405000D01*
X120444126Y-90405000D01*
X120063720Y-90562569D01*
X120011789Y-90614500D01*
X115954211Y-90614500D01*
X115902280Y-90562569D01*
X115521874Y-90405000D01*
X115110126Y-90405000D01*
X114729720Y-90562569D01*
X114438569Y-90853720D01*
X114281000Y-91234126D01*
X92265500Y-91234126D01*
X92265500Y-80648211D01*
X92317431Y-80596280D01*
X92475000Y-80215874D01*
X92475000Y-79804126D01*
X92317431Y-79423720D01*
X92026280Y-79132569D01*
X91645874Y-78975000D01*
X91234126Y-78975000D01*
X90853720Y-79132569D01*
X90562569Y-79423720D01*
X90405000Y-79804126D01*
X90405000Y-80215874D01*
X90425595Y-80265595D01*
X90375874Y-80245000D01*
X89964126Y-80245000D01*
X89583720Y-80402569D01*
X89292569Y-80693720D01*
X89135000Y-81074126D01*
X64464000Y-81074126D01*
X64464000Y-77192119D01*
X65913000Y-77192119D01*
X65913000Y-77747881D01*
X66125680Y-78261337D01*
X66518663Y-78654320D01*
X67032119Y-78867000D01*
X67587881Y-78867000D01*
X68101337Y-78654320D01*
X68494320Y-78261337D01*
X68580000Y-78054487D01*
X68665680Y-78261337D01*
X69058663Y-78654320D01*
X69572119Y-78867000D01*
X70127881Y-78867000D01*
X70641337Y-78654320D01*
X71034320Y-78261337D01*
X71120000Y-78054487D01*
X71205680Y-78261337D01*
X71598663Y-78654320D01*
X72112119Y-78867000D01*
X72667881Y-78867000D01*
X73181337Y-78654320D01*
X73574320Y-78261337D01*
X73660000Y-78054487D01*
X73745680Y-78261337D01*
X74138663Y-78654320D01*
X74652119Y-78867000D01*
X75207881Y-78867000D01*
X75721337Y-78654320D01*
X76114320Y-78261337D01*
X76200000Y-78054487D01*
X76285680Y-78261337D01*
X76678663Y-78654320D01*
X77192119Y-78867000D01*
X77747881Y-78867000D01*
X78261337Y-78654320D01*
X78654320Y-78261337D01*
X78867000Y-77747881D01*
X78867000Y-77192119D01*
X109093000Y-77192119D01*
X109093000Y-77747881D01*
X109305680Y-78261337D01*
X109698663Y-78654320D01*
X110212119Y-78867000D01*
X110767881Y-78867000D01*
X111281337Y-78654320D01*
X111674320Y-78261337D01*
X111760000Y-78054487D01*
X111845680Y-78261337D01*
X112238663Y-78654320D01*
X112752119Y-78867000D01*
X113307881Y-78867000D01*
X113821337Y-78654320D01*
X114214320Y-78261337D01*
X114300000Y-78054487D01*
X114385680Y-78261337D01*
X114778663Y-78654320D01*
X115292119Y-78867000D01*
X115847881Y-78867000D01*
X116361337Y-78654320D01*
X116754320Y-78261337D01*
X116840000Y-78054487D01*
X116925680Y-78261337D01*
X117318663Y-78654320D01*
X117832119Y-78867000D01*
X118387881Y-78867000D01*
X118901337Y-78654320D01*
X119294320Y-78261337D01*
X119380000Y-78054487D01*
X119465680Y-78261337D01*
X119858663Y-78654320D01*
X120372119Y-78867000D01*
X120927881Y-78867000D01*
X121441337Y-78654320D01*
X121834320Y-78261337D01*
X122047000Y-77747881D01*
X122047000Y-77192119D01*
X121834320Y-76678663D01*
X121441337Y-76285680D01*
X120927881Y-76073000D01*
X120372119Y-76073000D01*
X119858663Y-76285680D01*
X119465680Y-76678663D01*
X119380000Y-76885513D01*
X119294320Y-76678663D01*
X118901337Y-76285680D01*
X118387881Y-76073000D01*
X117832119Y-76073000D01*
X117318663Y-76285680D01*
X116925680Y-76678663D01*
X116840000Y-76885513D01*
X116754320Y-76678663D01*
X116361337Y-76285680D01*
X115847881Y-76073000D01*
X115292119Y-76073000D01*
X114778663Y-76285680D01*
X114385680Y-76678663D01*
X114300000Y-76885513D01*
X114214320Y-76678663D01*
X113821337Y-76285680D01*
X113307881Y-76073000D01*
X112752119Y-76073000D01*
X112238663Y-76285680D01*
X111845680Y-76678663D01*
X111760000Y-76885513D01*
X111674320Y-76678663D01*
X111281337Y-76285680D01*
X110767881Y-76073000D01*
X110212119Y-76073000D01*
X109698663Y-76285680D01*
X109305680Y-76678663D01*
X109093000Y-77192119D01*
X78867000Y-77192119D01*
X78654320Y-76678663D01*
X78261337Y-76285680D01*
X77747881Y-76073000D01*
X77192119Y-76073000D01*
X76678663Y-76285680D01*
X76285680Y-76678663D01*
X76200000Y-76885513D01*
X76114320Y-76678663D01*
X75721337Y-76285680D01*
X75207881Y-76073000D01*
X74652119Y-76073000D01*
X74138663Y-76285680D01*
X73745680Y-76678663D01*
X73660000Y-76885513D01*
X73574320Y-76678663D01*
X73181337Y-76285680D01*
X72667881Y-76073000D01*
X72112119Y-76073000D01*
X71598663Y-76285680D01*
X71205680Y-76678663D01*
X71120000Y-76885513D01*
X71034320Y-76678663D01*
X70641337Y-76285680D01*
X70127881Y-76073000D01*
X69572119Y-76073000D01*
X69058663Y-76285680D01*
X68665680Y-76678663D01*
X68580000Y-76885513D01*
X68494320Y-76678663D01*
X68101337Y-76285680D01*
X67587881Y-76073000D01*
X67032119Y-76073000D01*
X66518663Y-76285680D01*
X66125680Y-76678663D01*
X65913000Y-77192119D01*
X64464000Y-77192119D01*
X64464000Y-70595544D01*
X64703167Y-70834711D01*
X65570567Y-71194000D01*
X66509433Y-71194000D01*
X67376833Y-70834711D01*
X68040711Y-70170833D01*
X68400000Y-69303433D01*
X68400000Y-68364567D01*
X76380000Y-68364567D01*
X76380000Y-69303433D01*
X76739289Y-70170833D01*
X77403167Y-70834711D01*
X78270567Y-71194000D01*
X79209433Y-71194000D01*
X80076833Y-70834711D01*
X80740711Y-70170833D01*
X81100000Y-69303433D01*
X81100000Y-68364567D01*
X106860000Y-68364567D01*
X106860000Y-69303433D01*
X107219289Y-70170833D01*
X107883167Y-70834711D01*
X108750567Y-71194000D01*
X109689433Y-71194000D01*
X110556833Y-70834711D01*
X111220711Y-70170833D01*
X111580000Y-69303433D01*
X111580000Y-68364567D01*
X111220711Y-67497167D01*
X110556833Y-66833289D01*
X109689433Y-66474000D01*
X108750567Y-66474000D01*
X107883167Y-66833289D01*
X107219289Y-67497167D01*
X106860000Y-68364567D01*
X81100000Y-68364567D01*
X80740711Y-67497167D01*
X80076833Y-66833289D01*
X79209433Y-66474000D01*
X78270567Y-66474000D01*
X77403167Y-66833289D01*
X76739289Y-67497167D01*
X76380000Y-68364567D01*
X68400000Y-68364567D01*
X68040711Y-67497167D01*
X67376833Y-66833289D01*
X66509433Y-66474000D01*
X65570567Y-66474000D01*
X64703167Y-66833289D01*
X64464000Y-67072456D01*
X64464000Y-64312581D01*
X64524090Y-63892991D01*
X64678381Y-63553648D01*
X64921712Y-63271248D01*
X65234523Y-63068494D01*
X65615184Y-62954652D01*
X65812350Y-62940000D01*
X122631419Y-62940000D01*
X123051009Y-63000090D01*
X123051009Y-63000090D01*
G37*
X123051009Y-63000090D02*
X123390352Y-63154381D01*
X123672752Y-63397712D01*
X123875506Y-63710523D01*
X123989348Y-64091184D01*
X124004001Y-64288363D01*
X124004001Y-67698247D01*
X123920711Y-67497167D01*
X123256833Y-66833289D01*
X122389433Y-66474000D01*
X121450567Y-66474000D01*
X120583167Y-66833289D01*
X119919289Y-67497167D01*
X119560000Y-68364567D01*
X119560000Y-69303433D01*
X119919289Y-70170833D01*
X120583167Y-70834711D01*
X121450567Y-71194000D01*
X122389433Y-71194000D01*
X123256833Y-70834711D01*
X123920711Y-70170833D01*
X124004001Y-69969754D01*
X124004000Y-110693419D01*
X123943910Y-111113009D01*
X123789619Y-111452352D01*
X123546288Y-111734752D01*
X123233479Y-111937506D01*
X122852815Y-112051348D01*
X122655649Y-112066000D01*
X107003926Y-112066000D01*
X106934000Y-112052091D01*
X106864075Y-112066000D01*
X106864074Y-112066000D01*
X106656972Y-112107195D01*
X106422119Y-112264119D01*
X106265195Y-112498972D01*
X106210091Y-112776000D01*
X106224001Y-112845931D01*
X106224000Y-133534074D01*
X106210091Y-133604000D01*
X106265195Y-133881028D01*
X106422119Y-134115881D01*
X106656972Y-134272805D01*
X106816571Y-134304551D01*
X106934000Y-134327909D01*
X107003925Y-134314000D01*
X122631419Y-134314000D01*
X123051009Y-134374090D01*
X123390352Y-134528381D01*
X123672752Y-134771712D01*
X123875506Y-135084523D01*
X123989348Y-135465184D01*
X124004000Y-135662350D01*
X124004001Y-143153281D01*
X123918491Y-143179423D01*
X123826033Y-143206460D01*
X123818159Y-143210098D01*
X123296644Y-143454948D01*
X123216075Y-143507872D01*
X123134927Y-143559768D01*
X123128390Y-143565470D01*
X122696558Y-143946851D01*
X122634096Y-144020244D01*
X122570760Y-144092847D01*
X122566087Y-144100154D01*
X122258654Y-144587407D01*
X122219298Y-144675387D01*
X122178889Y-144762840D01*
X122176457Y-144771160D01*
X122176454Y-144771166D01*
X122176453Y-144771173D01*
X122018134Y-145325118D01*
X122005056Y-145420586D01*
X121990813Y-145515890D01*
X121990813Y-145524564D01*
X121994333Y-146100687D01*
X122008588Y-146196068D01*
X122021654Y-146291455D01*
X122024088Y-146299781D01*
X122189164Y-146851758D01*
X122229591Y-146939250D01*
X122268930Y-147027194D01*
X122273603Y-147034501D01*
X122586966Y-147517961D01*
X122650328Y-147590594D01*
X122712763Y-147663955D01*
X122719296Y-147669654D01*
X122719300Y-147669658D01*
X122719305Y-147669661D01*
X123155759Y-148045734D01*
X123236942Y-148097653D01*
X123317475Y-148150554D01*
X123325346Y-148154190D01*
X123325349Y-148154192D01*
X123325352Y-148154193D01*
X123849817Y-148392653D01*
X123942309Y-148419700D01*
X124004000Y-148438561D01*
X124004001Y-156413412D01*
X123943910Y-156833009D01*
X123789619Y-157172352D01*
X123546288Y-157454752D01*
X123233479Y-157657506D01*
X122852815Y-157771348D01*
X122655649Y-157786000D01*
X66338667Y-157786000D01*
X65840301Y-157723042D01*
X65415111Y-157554697D01*
X65045141Y-157285899D01*
X64753645Y-156933541D01*
X64558933Y-156519756D01*
X64466907Y-156037339D01*
X64464000Y-155944836D01*
X64464000Y-148438719D01*
X64549509Y-148412577D01*
X64641967Y-148385540D01*
X64649841Y-148381902D01*
X65171356Y-148137052D01*
X65251925Y-148084128D01*
X65333073Y-148032232D01*
X65339610Y-148026530D01*
X65771442Y-147645149D01*
X65833887Y-147571776D01*
X65897240Y-147499153D01*
X65901913Y-147491846D01*
X66209346Y-147004593D01*
X66248687Y-146916645D01*
X66289111Y-146829160D01*
X66291545Y-146820835D01*
X66449866Y-146266882D01*
X66462943Y-146171421D01*
X66477187Y-146076111D01*
X66477187Y-146067436D01*
X66473667Y-145491313D01*
X66459414Y-145395943D01*
X66446346Y-145300544D01*
X66443912Y-145292219D01*
X66278836Y-144740241D01*
X66238418Y-144652769D01*
X66199071Y-144564806D01*
X66194397Y-144557499D01*
X65881034Y-144074040D01*
X65817707Y-144001447D01*
X65755237Y-143928045D01*
X65748700Y-143922343D01*
X65312241Y-143546266D01*
X65231058Y-143494347D01*
X65150525Y-143441446D01*
X65142654Y-143437810D01*
X65142651Y-143437808D01*
X65142648Y-143437807D01*
X64618183Y-143199347D01*
X64525691Y-143172300D01*
X64464000Y-143153439D01*
X64464000Y-133092623D01*
X64771518Y-133220001D01*
X65326484Y-133220001D01*
X65839205Y-133007625D01*
X66231625Y-132615205D01*
X66319001Y-132404261D01*
X66406377Y-132615205D01*
X66798797Y-133007625D01*
X67311518Y-133220001D01*
X67866484Y-133220001D01*
X68379205Y-133007625D01*
X68771625Y-132615205D01*
X68859001Y-132404261D01*
X68946377Y-132615205D01*
X69338797Y-133007625D01*
X69851518Y-133220001D01*
X70406484Y-133220001D01*
X70919205Y-133007625D01*
X71311625Y-132615205D01*
X71399001Y-132404261D01*
X71486377Y-132615205D01*
X71878797Y-133007625D01*
X72391518Y-133220001D01*
X72946484Y-133220001D01*
X73459205Y-133007625D01*
X73851625Y-132615205D01*
X73939001Y-132404261D01*
X74026377Y-132615205D01*
X74418797Y-133007625D01*
X74931518Y-133220001D01*
X75486484Y-133220001D01*
X75999205Y-133007625D01*
X76391625Y-132615205D01*
X76479001Y-132404261D01*
X76566377Y-132615205D01*
X76958797Y-133007625D01*
X77471518Y-133220001D01*
X78026484Y-133220001D01*
X78539205Y-133007625D01*
X78931625Y-132615205D01*
X79019001Y-132404261D01*
X79106377Y-132615205D01*
X79498797Y-133007625D01*
X80011518Y-133220001D01*
X80566484Y-133220001D01*
X81079205Y-133007625D01*
X81471625Y-132615205D01*
X81559001Y-132404261D01*
X81646377Y-132615205D01*
X82038797Y-133007625D01*
X82551518Y-133220001D01*
X83106484Y-133220001D01*
X83619205Y-133007625D01*
X84011625Y-132615205D01*
X84099001Y-132404261D01*
X84186377Y-132615205D01*
X84578797Y-133007625D01*
X85091518Y-133220001D01*
X85646484Y-133220001D01*
X86159205Y-133007625D01*
X86551625Y-132615205D01*
X86639001Y-132404261D01*
X86726377Y-132615205D01*
X87118797Y-133007625D01*
X87631518Y-133220001D01*
X88186484Y-133220001D01*
X88699205Y-133007625D01*
X89091625Y-132615205D01*
X89304001Y-132102484D01*
X89304001Y-131547518D01*
X89091625Y-131034797D01*
X88699205Y-130642377D01*
X88488261Y-130555001D01*
X88699205Y-130467625D01*
X89091625Y-130075205D01*
X89304001Y-129562484D01*
X89304001Y-129007518D01*
X89091625Y-128494797D01*
X88699205Y-128102377D01*
X88186484Y-127890001D01*
X87631518Y-127890001D01*
X87118797Y-128102377D01*
X86726377Y-128494797D01*
X86639001Y-128705741D01*
X86551625Y-128494797D01*
X86159205Y-128102377D01*
X85646484Y-127890001D01*
X85091518Y-127890001D01*
X84578797Y-128102377D01*
X84186377Y-128494797D01*
X84099001Y-128705741D01*
X84011625Y-128494797D01*
X83619205Y-128102377D01*
X83106484Y-127890001D01*
X82551518Y-127890001D01*
X82038797Y-128102377D01*
X81646377Y-128494797D01*
X81559001Y-128705741D01*
X81471625Y-128494797D01*
X81079205Y-128102377D01*
X80566484Y-127890001D01*
X80011518Y-127890001D01*
X79498797Y-128102377D01*
X79106377Y-128494797D01*
X79019001Y-128705741D01*
X78931625Y-128494797D01*
X78539205Y-128102377D01*
X78026484Y-127890001D01*
X77471518Y-127890001D01*
X76958797Y-128102377D01*
X76566377Y-128494797D01*
X76479001Y-128705741D01*
X76391625Y-128494797D01*
X75999205Y-128102377D01*
X75486484Y-127890001D01*
X74931518Y-127890001D01*
X74418797Y-128102377D01*
X74026377Y-128494797D01*
X73939001Y-128705741D01*
X73851625Y-128494797D01*
X73459205Y-128102377D01*
X72946484Y-127890001D01*
X72391518Y-127890001D01*
X71878797Y-128102377D01*
X71486377Y-128494797D01*
X71399001Y-128705741D01*
X71311625Y-128494797D01*
X70919205Y-128102377D01*
X70406484Y-127890001D01*
X69851518Y-127890001D01*
X69338797Y-128102377D01*
X68946377Y-128494797D01*
X68859001Y-128705741D01*
X68771625Y-128494797D01*
X68379205Y-128102377D01*
X67866484Y-127890001D01*
X67311518Y-127890001D01*
X66798797Y-128102377D01*
X66406377Y-128494797D01*
X66194001Y-129007518D01*
X66194001Y-129562484D01*
X66406377Y-130075205D01*
X66798797Y-130467625D01*
X67009741Y-130555001D01*
X66798797Y-130642377D01*
X66406377Y-131034797D01*
X66319001Y-131245741D01*
X66231625Y-131034797D01*
X65839205Y-130642377D01*
X65326484Y-130430001D01*
X64771518Y-130430001D01*
X64464000Y-130557379D01*
X64464000Y-125524126D01*
X84817000Y-125524126D01*
X84817000Y-125935874D01*
X84974569Y-126316280D01*
X85265720Y-126607431D01*
X85646126Y-126765000D01*
X86057874Y-126765000D01*
X86438280Y-126607431D01*
X86490211Y-126555500D01*
X89277789Y-126555500D01*
X89329720Y-126607431D01*
X89710126Y-126765000D01*
X90121874Y-126765000D01*
X90502280Y-126607431D01*
X90793431Y-126316280D01*
X90951000Y-125935874D01*
X90951000Y-125524126D01*
X90793431Y-125143720D01*
X90502280Y-124852569D01*
X90121874Y-124695000D01*
X89710126Y-124695000D01*
X89329720Y-124852569D01*
X89277789Y-124904500D01*
X86490211Y-124904500D01*
X86438280Y-124852569D01*
X86057874Y-124695000D01*
X85646126Y-124695000D01*
X85265720Y-124852569D01*
X84974569Y-125143720D01*
X84817000Y-125524126D01*
X64464000Y-125524126D01*
X64464000Y-116279651D01*
X94667008Y-116279651D01*
X94667008Y-116835413D01*
X94879688Y-117348869D01*
X95272671Y-117741852D01*
X95786127Y-117954532D01*
X96341889Y-117954532D01*
X96855345Y-117741852D01*
X97248328Y-117348869D01*
X97334008Y-117142019D01*
X97419688Y-117348869D01*
X97812671Y-117741852D01*
X98326127Y-117954532D01*
X98881889Y-117954532D01*
X99395345Y-117741852D01*
X99788328Y-117348869D01*
X100001008Y-116835413D01*
X100001008Y-116279651D01*
X99788328Y-115766195D01*
X99395345Y-115373212D01*
X98881889Y-115160532D01*
X98326127Y-115160532D01*
X97812671Y-115373212D01*
X97419688Y-115766195D01*
X97334008Y-115973045D01*
X97248328Y-115766195D01*
X96855345Y-115373212D01*
X96341889Y-115160532D01*
X95786127Y-115160532D01*
X95272671Y-115373212D01*
X94879688Y-115766195D01*
X94667008Y-116279651D01*
X64464000Y-116279651D01*
X64464000Y-103934126D01*
X68815000Y-103934126D01*
X68815000Y-104345874D01*
X68972569Y-104726280D01*
X69263720Y-105017431D01*
X69644126Y-105175000D01*
X70055874Y-105175000D01*
X70436280Y-105017431D01*
X70488211Y-104965500D01*
X73275789Y-104965500D01*
X73327720Y-105017431D01*
X73708126Y-105175000D01*
X74119874Y-105175000D01*
X74500280Y-105017431D01*
X74791431Y-104726280D01*
X74949000Y-104345874D01*
X74949000Y-103934126D01*
X74791431Y-103553720D01*
X74500280Y-103262569D01*
X74119874Y-103105000D01*
X73708126Y-103105000D01*
X73327720Y-103262569D01*
X73275789Y-103314500D01*
X70488211Y-103314500D01*
X70436280Y-103262569D01*
X70055874Y-103105000D01*
X69644126Y-103105000D01*
X69263720Y-103262569D01*
X68972569Y-103553720D01*
X68815000Y-103934126D01*
X64464000Y-103934126D01*
X64464000Y-89912623D01*
X64771518Y-90040001D01*
X65326484Y-90040001D01*
X65839205Y-89827625D01*
X66231625Y-89435205D01*
X66319001Y-89224261D01*
X66406377Y-89435205D01*
X66798797Y-89827625D01*
X67311518Y-90040001D01*
X67866484Y-90040001D01*
X68379205Y-89827625D01*
X68771625Y-89435205D01*
X68859001Y-89224261D01*
X68946377Y-89435205D01*
X69338797Y-89827625D01*
X69851518Y-90040001D01*
X70406484Y-90040001D01*
X70919205Y-89827625D01*
X71311625Y-89435205D01*
X71399001Y-89224261D01*
X71486377Y-89435205D01*
X71878797Y-89827625D01*
X72391518Y-90040001D01*
X72946484Y-90040001D01*
X73459205Y-89827625D01*
X73851625Y-89435205D01*
X73939001Y-89224261D01*
X74026377Y-89435205D01*
X74418797Y-89827625D01*
X74931518Y-90040001D01*
X75486484Y-90040001D01*
X75999205Y-89827625D01*
X76391625Y-89435205D01*
X76479001Y-89224261D01*
X76566377Y-89435205D01*
X76958797Y-89827625D01*
X77471518Y-90040001D01*
X78026484Y-90040001D01*
X78539205Y-89827625D01*
X78931625Y-89435205D01*
X79019001Y-89224261D01*
X79106377Y-89435205D01*
X79498797Y-89827625D01*
X80011518Y-90040001D01*
X80566484Y-90040001D01*
X81079205Y-89827625D01*
X81471625Y-89435205D01*
X81559001Y-89224261D01*
X81646377Y-89435205D01*
X82038797Y-89827625D01*
X82551518Y-90040001D01*
X83106484Y-90040001D01*
X83619205Y-89827625D01*
X84011625Y-89435205D01*
X84099001Y-89224261D01*
X84186377Y-89435205D01*
X84578797Y-89827625D01*
X85091518Y-90040001D01*
X85646484Y-90040001D01*
X86159205Y-89827625D01*
X86551625Y-89435205D01*
X86639001Y-89224261D01*
X86726377Y-89435205D01*
X87118797Y-89827625D01*
X87631518Y-90040001D01*
X88186484Y-90040001D01*
X88699205Y-89827625D01*
X89091625Y-89435205D01*
X89304001Y-88922484D01*
X89304001Y-88367518D01*
X89091625Y-87854797D01*
X88699205Y-87462377D01*
X88488261Y-87375001D01*
X88699205Y-87287625D01*
X89091625Y-86895205D01*
X89304001Y-86382484D01*
X89304001Y-85827518D01*
X89091625Y-85314797D01*
X88699205Y-84922377D01*
X88186484Y-84710001D01*
X87631518Y-84710001D01*
X87118797Y-84922377D01*
X86726377Y-85314797D01*
X86639001Y-85525741D01*
X86551625Y-85314797D01*
X86159205Y-84922377D01*
X85646484Y-84710001D01*
X85091518Y-84710001D01*
X84578797Y-84922377D01*
X84186377Y-85314797D01*
X84099001Y-85525741D01*
X84011625Y-85314797D01*
X83619205Y-84922377D01*
X83106484Y-84710001D01*
X82551518Y-84710001D01*
X82038797Y-84922377D01*
X81646377Y-85314797D01*
X81559001Y-85525741D01*
X81471625Y-85314797D01*
X81079205Y-84922377D01*
X80566484Y-84710001D01*
X80011518Y-84710001D01*
X79498797Y-84922377D01*
X79106377Y-85314797D01*
X79019001Y-85525741D01*
X78931625Y-85314797D01*
X78539205Y-84922377D01*
X78026484Y-84710001D01*
X77471518Y-84710001D01*
X76958797Y-84922377D01*
X76566377Y-85314797D01*
X76479001Y-85525741D01*
X76391625Y-85314797D01*
X75999205Y-84922377D01*
X75486484Y-84710001D01*
X74931518Y-84710001D01*
X74418797Y-84922377D01*
X74026377Y-85314797D01*
X73939001Y-85525741D01*
X73851625Y-85314797D01*
X73459205Y-84922377D01*
X72946484Y-84710001D01*
X72391518Y-84710001D01*
X71878797Y-84922377D01*
X71486377Y-85314797D01*
X71399001Y-85525741D01*
X71311625Y-85314797D01*
X70919205Y-84922377D01*
X70406484Y-84710001D01*
X69851518Y-84710001D01*
X69338797Y-84922377D01*
X68946377Y-85314797D01*
X68859001Y-85525741D01*
X68771625Y-85314797D01*
X68379205Y-84922377D01*
X67866484Y-84710001D01*
X67311518Y-84710001D01*
X66798797Y-84922377D01*
X66406377Y-85314797D01*
X66319001Y-85525741D01*
X66231625Y-85314797D01*
X65839205Y-84922377D01*
X65326484Y-84710001D01*
X64771518Y-84710001D01*
X64464000Y-84837379D01*
X64464000Y-81074126D01*
X89135000Y-81074126D01*
X89135000Y-81485874D01*
X89292569Y-81866280D01*
X89344501Y-81918212D01*
X89344500Y-104771789D01*
X89292569Y-104823720D01*
X89135000Y-105204126D01*
X89135000Y-105615874D01*
X89292569Y-105996280D01*
X89583720Y-106287431D01*
X89964126Y-106445000D01*
X90375874Y-106445000D01*
X90425595Y-106424405D01*
X90405000Y-106474126D01*
X90405000Y-106885874D01*
X90562569Y-107266280D01*
X90853720Y-107557431D01*
X91234126Y-107715000D01*
X91645874Y-107715000D01*
X92026280Y-107557431D01*
X92317431Y-107266280D01*
X92475000Y-106885874D01*
X92475000Y-106682453D01*
X102463600Y-106682453D01*
X102463600Y-107945547D01*
X102946965Y-109112493D01*
X103840107Y-110005635D01*
X105007053Y-110489000D01*
X106270147Y-110489000D01*
X107437093Y-110005635D01*
X108330235Y-109112493D01*
X108813600Y-107945547D01*
X108813600Y-106682453D01*
X108330235Y-105515507D01*
X107437093Y-104622365D01*
X106270147Y-104139000D01*
X105007053Y-104139000D01*
X103840107Y-104622365D01*
X102946965Y-105515507D01*
X102463600Y-106682453D01*
X92475000Y-106682453D01*
X92475000Y-106474126D01*
X92317431Y-106093720D01*
X92265500Y-106041789D01*
X92265500Y-98681453D01*
X102463600Y-98681453D01*
X102463600Y-99944547D01*
X102946965Y-101111493D01*
X103840107Y-102004635D01*
X105007053Y-102488000D01*
X106270147Y-102488000D01*
X107437093Y-102004635D01*
X108330235Y-101111493D01*
X108813600Y-99944547D01*
X108813600Y-98681453D01*
X108330235Y-97514507D01*
X107437093Y-96621365D01*
X106270147Y-96138000D01*
X105007053Y-96138000D01*
X103840107Y-96621365D01*
X102946965Y-97514507D01*
X102463600Y-98681453D01*
X92265500Y-98681453D01*
X92265500Y-91234126D01*
X114281000Y-91234126D01*
X114281000Y-91645874D01*
X114438569Y-92026280D01*
X114729720Y-92317431D01*
X115110126Y-92475000D01*
X115521874Y-92475000D01*
X115902280Y-92317431D01*
X115954211Y-92265500D01*
X120011789Y-92265500D01*
X120063720Y-92317431D01*
X120444126Y-92475000D01*
X120855874Y-92475000D01*
X121236280Y-92317431D01*
X121527431Y-92026280D01*
X121685000Y-91645874D01*
X121685000Y-91234126D01*
X121527431Y-90853720D01*
X121236280Y-90562569D01*
X120855874Y-90405000D01*
X120444126Y-90405000D01*
X120063720Y-90562569D01*
X120011789Y-90614500D01*
X115954211Y-90614500D01*
X115902280Y-90562569D01*
X115521874Y-90405000D01*
X115110126Y-90405000D01*
X114729720Y-90562569D01*
X114438569Y-90853720D01*
X114281000Y-91234126D01*
X92265500Y-91234126D01*
X92265500Y-80648211D01*
X92317431Y-80596280D01*
X92475000Y-80215874D01*
X92475000Y-79804126D01*
X92317431Y-79423720D01*
X92026280Y-79132569D01*
X91645874Y-78975000D01*
X91234126Y-78975000D01*
X90853720Y-79132569D01*
X90562569Y-79423720D01*
X90405000Y-79804126D01*
X90405000Y-80215874D01*
X90425595Y-80265595D01*
X90375874Y-80245000D01*
X89964126Y-80245000D01*
X89583720Y-80402569D01*
X89292569Y-80693720D01*
X89135000Y-81074126D01*
X64464000Y-81074126D01*
X64464000Y-77192119D01*
X65913000Y-77192119D01*
X65913000Y-77747881D01*
X66125680Y-78261337D01*
X66518663Y-78654320D01*
X67032119Y-78867000D01*
X67587881Y-78867000D01*
X68101337Y-78654320D01*
X68494320Y-78261337D01*
X68580000Y-78054487D01*
X68665680Y-78261337D01*
X69058663Y-78654320D01*
X69572119Y-78867000D01*
X70127881Y-78867000D01*
X70641337Y-78654320D01*
X71034320Y-78261337D01*
X71120000Y-78054487D01*
X71205680Y-78261337D01*
X71598663Y-78654320D01*
X72112119Y-78867000D01*
X72667881Y-78867000D01*
X73181337Y-78654320D01*
X73574320Y-78261337D01*
X73660000Y-78054487D01*
X73745680Y-78261337D01*
X74138663Y-78654320D01*
X74652119Y-78867000D01*
X75207881Y-78867000D01*
X75721337Y-78654320D01*
X76114320Y-78261337D01*
X76200000Y-78054487D01*
X76285680Y-78261337D01*
X76678663Y-78654320D01*
X77192119Y-78867000D01*
X77747881Y-78867000D01*
X78261337Y-78654320D01*
X78654320Y-78261337D01*
X78867000Y-77747881D01*
X78867000Y-77192119D01*
X109093000Y-77192119D01*
X109093000Y-77747881D01*
X109305680Y-78261337D01*
X109698663Y-78654320D01*
X110212119Y-78867000D01*
X110767881Y-78867000D01*
X111281337Y-78654320D01*
X111674320Y-78261337D01*
X111760000Y-78054487D01*
X111845680Y-78261337D01*
X112238663Y-78654320D01*
X112752119Y-78867000D01*
X113307881Y-78867000D01*
X113821337Y-78654320D01*
X114214320Y-78261337D01*
X114300000Y-78054487D01*
X114385680Y-78261337D01*
X114778663Y-78654320D01*
X115292119Y-78867000D01*
X115847881Y-78867000D01*
X116361337Y-78654320D01*
X116754320Y-78261337D01*
X116840000Y-78054487D01*
X116925680Y-78261337D01*
X117318663Y-78654320D01*
X117832119Y-78867000D01*
X118387881Y-78867000D01*
X118901337Y-78654320D01*
X119294320Y-78261337D01*
X119380000Y-78054487D01*
X119465680Y-78261337D01*
X119858663Y-78654320D01*
X120372119Y-78867000D01*
X120927881Y-78867000D01*
X121441337Y-78654320D01*
X121834320Y-78261337D01*
X122047000Y-77747881D01*
X122047000Y-77192119D01*
X121834320Y-76678663D01*
X121441337Y-76285680D01*
X120927881Y-76073000D01*
X120372119Y-76073000D01*
X119858663Y-76285680D01*
X119465680Y-76678663D01*
X119380000Y-76885513D01*
X119294320Y-76678663D01*
X118901337Y-76285680D01*
X118387881Y-76073000D01*
X117832119Y-76073000D01*
X117318663Y-76285680D01*
X116925680Y-76678663D01*
X116840000Y-76885513D01*
X116754320Y-76678663D01*
X116361337Y-76285680D01*
X115847881Y-76073000D01*
X115292119Y-76073000D01*
X114778663Y-76285680D01*
X114385680Y-76678663D01*
X114300000Y-76885513D01*
X114214320Y-76678663D01*
X113821337Y-76285680D01*
X113307881Y-76073000D01*
X112752119Y-76073000D01*
X112238663Y-76285680D01*
X111845680Y-76678663D01*
X111760000Y-76885513D01*
X111674320Y-76678663D01*
X111281337Y-76285680D01*
X110767881Y-76073000D01*
X110212119Y-76073000D01*
X109698663Y-76285680D01*
X109305680Y-76678663D01*
X109093000Y-77192119D01*
X78867000Y-77192119D01*
X78654320Y-76678663D01*
X78261337Y-76285680D01*
X77747881Y-76073000D01*
X77192119Y-76073000D01*
X76678663Y-76285680D01*
X76285680Y-76678663D01*
X76200000Y-76885513D01*
X76114320Y-76678663D01*
X75721337Y-76285680D01*
X75207881Y-76073000D01*
X74652119Y-76073000D01*
X74138663Y-76285680D01*
X73745680Y-76678663D01*
X73660000Y-76885513D01*
X73574320Y-76678663D01*
X73181337Y-76285680D01*
X72667881Y-76073000D01*
X72112119Y-76073000D01*
X71598663Y-76285680D01*
X71205680Y-76678663D01*
X71120000Y-76885513D01*
X71034320Y-76678663D01*
X70641337Y-76285680D01*
X70127881Y-76073000D01*
X69572119Y-76073000D01*
X69058663Y-76285680D01*
X68665680Y-76678663D01*
X68580000Y-76885513D01*
X68494320Y-76678663D01*
X68101337Y-76285680D01*
X67587881Y-76073000D01*
X67032119Y-76073000D01*
X66518663Y-76285680D01*
X66125680Y-76678663D01*
X65913000Y-77192119D01*
X64464000Y-77192119D01*
X64464000Y-70595544D01*
X64703167Y-70834711D01*
X65570567Y-71194000D01*
X66509433Y-71194000D01*
X67376833Y-70834711D01*
X68040711Y-70170833D01*
X68400000Y-69303433D01*
X68400000Y-68364567D01*
X76380000Y-68364567D01*
X76380000Y-69303433D01*
X76739289Y-70170833D01*
X77403167Y-70834711D01*
X78270567Y-71194000D01*
X79209433Y-71194000D01*
X80076833Y-70834711D01*
X80740711Y-70170833D01*
X81100000Y-69303433D01*
X81100000Y-68364567D01*
X106860000Y-68364567D01*
X106860000Y-69303433D01*
X107219289Y-70170833D01*
X107883167Y-70834711D01*
X108750567Y-71194000D01*
X109689433Y-71194000D01*
X110556833Y-70834711D01*
X111220711Y-70170833D01*
X111580000Y-69303433D01*
X111580000Y-68364567D01*
X111220711Y-67497167D01*
X110556833Y-66833289D01*
X109689433Y-66474000D01*
X108750567Y-66474000D01*
X107883167Y-66833289D01*
X107219289Y-67497167D01*
X106860000Y-68364567D01*
X81100000Y-68364567D01*
X80740711Y-67497167D01*
X80076833Y-66833289D01*
X79209433Y-66474000D01*
X78270567Y-66474000D01*
X77403167Y-66833289D01*
X76739289Y-67497167D01*
X76380000Y-68364567D01*
X68400000Y-68364567D01*
X68040711Y-67497167D01*
X67376833Y-66833289D01*
X66509433Y-66474000D01*
X65570567Y-66474000D01*
X64703167Y-66833289D01*
X64464000Y-67072456D01*
X64464000Y-64312581D01*
X64524090Y-63892991D01*
X64678381Y-63553648D01*
X64921712Y-63271248D01*
X65234523Y-63068494D01*
X65615184Y-62954652D01*
X65812350Y-62940000D01*
X122631419Y-62940000D01*
X123051009Y-63000090D01*
G04 #@! TD*
M02*
