G04 #@! TF.GenerationSoftware,KiCad,Pcbnew,(5.0.0)*
G04 #@! TF.CreationDate,2018-09-29T17:15:45-05:00*
G04 #@! TF.ProjectId,DriveBoard_Hardware,4472697665426F6172645F4861726477,rev?*
G04 #@! TF.SameCoordinates,Original*
G04 #@! TF.FileFunction,Copper,L2,Bot,Signal*
G04 #@! TF.FilePolarity,Positive*
%FSLAX46Y46*%
G04 Gerber Fmt 4.6, Leading zero omitted, Abs format (unit mm)*
G04 Created by KiCad (PCBNEW (5.0.0)) date 09/29/18 17:15:45*
%MOMM*%
%LPD*%
G01*
G04 APERTURE LIST*
G04 #@! TA.AperFunction,ComponentPad*
%ADD10C,5.080000*%
G04 #@! TD*
G04 #@! TA.AperFunction,ComponentPad*
%ADD11C,1.524000*%
G04 #@! TD*
G04 #@! TA.AperFunction,ComponentPad*
%ADD12C,1.520000*%
G04 #@! TD*
G04 #@! TA.AperFunction,ViaPad*
%ADD13C,0.800000*%
G04 #@! TD*
G04 #@! TA.AperFunction,Conductor*
%ADD14C,0.762000*%
G04 #@! TD*
G04 #@! TA.AperFunction,Conductor*
%ADD15C,0.254000*%
G04 #@! TD*
G04 APERTURE END LIST*
D10*
G04 #@! TO.P,Conn1,2*
G04 #@! TO.N,/+12V*
X135508000Y-89433400D03*
G04 #@! TO.P,Conn1,1*
G04 #@! TO.N,GND*
X127507000Y-89433400D03*
G04 #@! TD*
D11*
G04 #@! TO.P,Conn2,1*
G04 #@! TO.N,Net-(Conn2-Pad1)*
X100330000Y-84582000D03*
G04 #@! TO.P,Conn2,2*
G04 #@! TO.N,Net-(Conn2-Pad2)*
X102870000Y-84582000D03*
G04 #@! TO.P,Conn2,3*
G04 #@! TO.N,GND*
X105410000Y-84582000D03*
G04 #@! TO.P,Conn2,4*
G04 #@! TO.N,TX_1_SL*
X107950000Y-84582000D03*
G04 #@! TO.P,Conn2,5*
G04 #@! TO.N,RX_1_SL*
X110490000Y-84582000D03*
G04 #@! TD*
G04 #@! TO.P,Conn3,5*
G04 #@! TO.N,RX_2_SL*
X93218000Y-84582000D03*
G04 #@! TO.P,Conn3,4*
G04 #@! TO.N,TX_2_SL*
X90678000Y-84582000D03*
G04 #@! TO.P,Conn3,3*
G04 #@! TO.N,GND*
X88138000Y-84582000D03*
G04 #@! TO.P,Conn3,2*
G04 #@! TO.N,Net-(Conn3-Pad2)*
X85598000Y-84582000D03*
G04 #@! TO.P,Conn3,1*
G04 #@! TO.N,Net-(Conn3-Pad1)*
X83058000Y-84582000D03*
G04 #@! TD*
D12*
G04 #@! TO.P,U1,+3V3*
G04 #@! TO.N,Net-(U1-Pad+3V3)*
X80543001Y-137921001D03*
G04 #@! TO.P,U1,PM6*
G04 #@! TO.N,Net-(U1-PadPM6)*
X103403001Y-92201001D03*
G04 #@! TO.P,U1,PQ1*
G04 #@! TO.N,Net-(U1-PadPQ1)*
X100863001Y-92201001D03*
G04 #@! TO.P,U1,PQ2*
G04 #@! TO.N,Net-(U1-PadPQ2)*
X93243001Y-92201001D03*
G04 #@! TO.P,U1,PK0*
G04 #@! TO.N,RX_2_IC*
X90703001Y-135381001D03*
G04 #@! TO.P,U1,PQ3*
G04 #@! TO.N,Net-(U1-PadPQ3)*
X95783001Y-92201001D03*
G04 #@! TO.P,U1,PP3*
G04 #@! TO.N,Net-(U1-PadPP3)*
X98323001Y-92201001D03*
G04 #@! TO.P,U1,PQ0*
G04 #@! TO.N,Net-(U1-PadPQ0)*
X95783001Y-137921001D03*
G04 #@! TO.P,U1,PA4*
G04 #@! TO.N,Net-(U1-PadPA4)*
X100863001Y-135381001D03*
G04 #@! TO.P,U1,Rese*
G04 #@! TO.N,Net-(U1-PadRese)*
X90703001Y-92201001D03*
G04 #@! TO.P,U1,PA7*
G04 #@! TO.N,Net-(U1-PadPA7)*
X88163001Y-92201001D03*
G04 #@! TO.P,U1,PN5*
G04 #@! TO.N,Net-(U1-PadPN5)*
X100863001Y-137921001D03*
G04 #@! TO.P,U1,PK2*
G04 #@! TO.N,Net-(U1-PadPK2)*
X95783001Y-135381001D03*
G04 #@! TO.P,U1,PK1*
G04 #@! TO.N,TX_2_IC*
X93243001Y-135381001D03*
G04 #@! TO.P,U1,+5V*
G04 #@! TO.N,+5V*
X80543001Y-135381001D03*
G04 #@! TO.P,U1,GND*
G04 #@! TO.N,GND*
X83083001Y-135381001D03*
G04 #@! TO.P,U1,PB4*
G04 #@! TO.N,Net-(U1-PadPB4)*
X85623001Y-135381001D03*
G04 #@! TO.P,U1,PB5*
G04 #@! TO.N,Net-(U1-PadPB5)*
X88163001Y-135381001D03*
G04 #@! TO.P,U1,PK3*
G04 #@! TO.N,Net-(U1-PadPK3)*
X98323001Y-135381001D03*
G04 #@! TO.P,U1,PA5*
G04 #@! TO.N,Net-(U1-PadPA5)*
X103403001Y-135381001D03*
G04 #@! TO.P,U1,PD2*
G04 #@! TO.N,Net-(U1-PadPD2)*
X83083001Y-137921001D03*
G04 #@! TO.P,U1,PP0*
G04 #@! TO.N,RX_1_IC*
X85623001Y-137921001D03*
G04 #@! TO.P,U1,PP1*
G04 #@! TO.N,TX_1_IC*
X88163001Y-137921001D03*
G04 #@! TO.P,U1,PD4*
G04 #@! TO.N,Net-(U1-PadPD4)*
X90703001Y-137921001D03*
G04 #@! TO.P,U1,PD5*
G04 #@! TO.N,Net-(U1-PadPD5)*
X93243001Y-137921001D03*
G04 #@! TO.P,U1,PP4*
G04 #@! TO.N,Net-(U1-PadPP4)*
X98323001Y-137921001D03*
G04 #@! TO.P,U1,PN4*
G04 #@! TO.N,Net-(U1-PadPN4)*
X103403001Y-137921001D03*
G04 #@! TO.P,U1,PG1*
G04 #@! TO.N,Net-(U1-PadPG1)*
X80543001Y-94741001D03*
G04 #@! TO.P,U1,PK4*
G04 #@! TO.N,Net-(U1-PadPK4)*
X83083001Y-94741001D03*
G04 #@! TO.P,U1,PK5*
G04 #@! TO.N,Net-(U1-PadPK5)*
X85623001Y-94741001D03*
G04 #@! TO.P,U1,PM0*
G04 #@! TO.N,Net-(U1-PadPM0)*
X88163001Y-94741001D03*
G04 #@! TO.P,U1,PM1*
G04 #@! TO.N,Net-(U1-PadPM1)*
X90703001Y-94741001D03*
G04 #@! TO.P,U1,PM2*
G04 #@! TO.N,Net-(U1-PadPM2)*
X93243001Y-94741001D03*
G04 #@! TO.P,U1,PH0*
G04 #@! TO.N,Net-(U1-PadPH0)*
X95783001Y-94741001D03*
G04 #@! TO.P,U1,PH1*
G04 #@! TO.N,Net-(U1-PadPH1)*
X98323001Y-94741001D03*
G04 #@! TO.P,U1,PK6*
G04 #@! TO.N,Net-(U1-PadPK6)*
X100863001Y-94741001D03*
G04 #@! TO.P,U1,PK7*
G04 #@! TO.N,Net-(U1-PadPK7)*
X103403001Y-94741001D03*
G04 #@! TO.P,U1,GND*
G04 #@! TO.N,GND*
X80543001Y-92201001D03*
G04 #@! TO.P,U1,PM7*
G04 #@! TO.N,Net-(U1-PadPM7)*
X83083001Y-92201001D03*
G04 #@! TO.P,U1,PP5*
G04 #@! TO.N,Net-(U1-PadPP5)*
X85623001Y-92201001D03*
G04 #@! TD*
D11*
G04 #@! TO.P,U3,1*
G04 #@! TO.N,/+12V*
X134620000Y-109220000D03*
G04 #@! TO.P,U3,2*
G04 #@! TO.N,GND*
X132080000Y-109220000D03*
G04 #@! TO.P,U3,3*
G04 #@! TO.N,+5V*
X129540000Y-109220000D03*
G04 #@! TD*
D13*
G04 #@! TO.N,TX_1_SL*
X105918000Y-108458000D03*
G04 #@! TO.N,RX_1_SL*
X107696000Y-109728000D03*
G04 #@! TO.N,RX_2_SL*
X97282000Y-99060000D03*
X96266000Y-118364000D03*
X104394000Y-98298000D03*
G04 #@! TO.N,+5V*
X92350000Y-106045000D03*
G04 #@! TO.N,TX_2_SL*
X98044000Y-120142000D03*
G04 #@! TO.N,RX_2_IC*
X90932000Y-115824000D03*
G04 #@! TO.N,TX_2_IC*
X92710000Y-115824000D03*
G04 #@! TO.N,RX_1_IC*
X94742000Y-115824000D03*
G04 #@! TO.N,TX_1_IC*
X93726000Y-115824000D03*
G04 #@! TD*
D14*
G04 #@! TO.N,GND*
X80518000Y-92176000D02*
X80543001Y-92201001D01*
X83058000Y-135356000D02*
X83083001Y-135381001D01*
G04 #@! TO.N,/+12V*
X134620000Y-90170000D02*
X135636000Y-89154000D01*
G04 #@! TO.N,TX_1_SL*
X107950000Y-106426000D02*
X105918000Y-108458000D01*
X105918000Y-108458000D02*
X105918000Y-108458000D01*
X107950000Y-106426000D02*
X107950000Y-84582000D01*
G04 #@! TO.N,RX_1_SL*
X110490000Y-106934000D02*
X107696000Y-109728000D01*
X107696000Y-109728000D02*
X107696000Y-109728000D01*
X110490000Y-106934000D02*
X110490000Y-84582000D01*
G04 #@! TO.N,+5V*
X84074000Y-117602000D02*
X84074000Y-117602000D01*
G04 #@! TO.N,RX_2_SL*
X94742000Y-89154000D02*
X94742000Y-89154000D01*
X97282000Y-99060000D02*
X97282000Y-117348000D01*
X97282000Y-117348000D02*
X96266000Y-118364000D01*
X96266000Y-118364000D02*
X96266000Y-118364000D01*
X104394000Y-98298000D02*
X104394000Y-98298000D01*
X106426000Y-96266000D02*
X104394000Y-98298000D01*
X106426000Y-90170000D02*
X106426000Y-96266000D01*
X105410000Y-89154000D02*
X106426000Y-90170000D01*
X94742000Y-89154000D02*
X105410000Y-89154000D01*
X93218000Y-84582000D02*
X93218000Y-87630000D01*
X93218000Y-87630000D02*
X94742000Y-89154000D01*
G04 #@! TO.N,+5V*
X83058000Y-118364000D02*
X83058000Y-118364000D01*
G04 #@! TO.N,TX_2_SL*
X90678000Y-87884000D02*
X93218000Y-90424000D01*
X93218000Y-90424000D02*
X93218000Y-90424000D01*
X105156000Y-94972684D02*
X103354684Y-96774000D01*
X105156000Y-91186000D02*
X105156000Y-94972684D01*
X103354684Y-96774000D02*
X100330000Y-96774000D01*
X100330000Y-96774000D02*
X99060000Y-98044000D01*
X99060000Y-98044000D02*
X99060000Y-119126000D01*
X99060000Y-119126000D02*
X98044000Y-120142000D01*
X98044000Y-120142000D02*
X98044000Y-120142000D01*
X93218000Y-90424000D02*
X104394000Y-90424000D01*
X104394000Y-90424000D02*
X105156000Y-91186000D01*
X90678000Y-84582000D02*
X90678000Y-87884000D01*
G04 #@! TO.N,RX_2_IC*
X90932000Y-135152002D02*
X90703001Y-135381001D01*
X90932000Y-115824000D02*
X90932000Y-135152002D01*
G04 #@! TO.N,TX_2_IC*
X92710000Y-134848000D02*
X93243001Y-135381001D01*
X92710000Y-115824000D02*
X92710000Y-134848000D01*
G04 #@! TO.N,RX_1_IC*
X94742000Y-131572000D02*
X94742000Y-115824000D01*
X95758000Y-132588000D02*
X94742000Y-131572000D01*
X105156000Y-132588000D02*
X95758000Y-132588000D01*
X106172000Y-133604000D02*
X105156000Y-132588000D01*
X85623001Y-138995803D02*
X85598000Y-139020804D01*
X85623001Y-137921001D02*
X85623001Y-138995803D01*
X85598000Y-139020804D02*
X85598000Y-139700000D01*
X85598000Y-139700000D02*
X86614000Y-140716000D01*
X86614000Y-140716000D02*
X105156000Y-140716000D01*
X106172000Y-139700000D02*
X106172000Y-133604000D01*
X105156000Y-140716000D02*
X106172000Y-139700000D01*
G04 #@! TO.N,TX_1_IC*
X93726000Y-121412000D02*
X93726000Y-121412000D01*
X88923000Y-138681000D02*
X88163001Y-137921001D01*
X89916000Y-139674000D02*
X88923000Y-138681000D01*
X89916000Y-139700000D02*
X89916000Y-139674000D01*
X104140000Y-139700000D02*
X89916000Y-139700000D01*
X93726000Y-115824000D02*
X93726000Y-132588000D01*
X93726000Y-132588000D02*
X94742000Y-133604000D01*
X94742000Y-133604000D02*
X104140000Y-133604000D01*
X104140000Y-133604000D02*
X105156000Y-134620000D01*
X105156000Y-134620000D02*
X105156000Y-138684000D01*
X105156000Y-138684000D02*
X104140000Y-139700000D01*
G04 #@! TD*
D15*
G04 #@! TO.N,+5V*
G36*
X138545009Y-71636090D02*
X138884352Y-71790381D01*
X139166752Y-72033712D01*
X139369506Y-72346523D01*
X139483348Y-72727184D01*
X139498001Y-72924363D01*
X139498000Y-116789419D01*
X139437910Y-117209009D01*
X139283619Y-117548352D01*
X139040288Y-117830752D01*
X138727479Y-118033506D01*
X138346815Y-118147348D01*
X138149649Y-118162000D01*
X122497926Y-118162000D01*
X122428000Y-118148091D01*
X122358075Y-118162000D01*
X122358074Y-118162000D01*
X122150972Y-118203195D01*
X121916119Y-118360119D01*
X121759195Y-118594972D01*
X121704091Y-118872000D01*
X121718001Y-118941931D01*
X121718000Y-139630074D01*
X121704091Y-139700000D01*
X121759195Y-139977028D01*
X121916119Y-140211881D01*
X122150972Y-140368805D01*
X122310571Y-140400551D01*
X122428000Y-140423909D01*
X122497925Y-140410000D01*
X138125419Y-140410000D01*
X138545009Y-140470090D01*
X138884352Y-140624381D01*
X139166752Y-140867712D01*
X139369506Y-141180523D01*
X139483348Y-141561184D01*
X139498001Y-141758363D01*
X139498000Y-149249281D01*
X139412491Y-149275423D01*
X139320033Y-149302460D01*
X139312159Y-149306098D01*
X138790644Y-149550948D01*
X138710075Y-149603872D01*
X138628927Y-149655768D01*
X138622390Y-149661470D01*
X138190558Y-150042851D01*
X138128096Y-150116244D01*
X138064760Y-150188847D01*
X138060087Y-150196154D01*
X137752654Y-150683407D01*
X137713298Y-150771387D01*
X137672889Y-150858840D01*
X137670457Y-150867160D01*
X137670454Y-150867166D01*
X137670453Y-150867173D01*
X137512134Y-151421118D01*
X137499056Y-151516586D01*
X137484813Y-151611890D01*
X137484813Y-151620564D01*
X137488333Y-152196687D01*
X137502588Y-152292068D01*
X137515654Y-152387455D01*
X137518088Y-152395781D01*
X137683164Y-152947758D01*
X137723591Y-153035250D01*
X137762930Y-153123194D01*
X137767603Y-153130501D01*
X138080966Y-153613961D01*
X138144328Y-153686594D01*
X138206763Y-153759955D01*
X138213296Y-153765654D01*
X138213300Y-153765658D01*
X138213305Y-153765661D01*
X138649759Y-154141734D01*
X138730942Y-154193653D01*
X138811475Y-154246554D01*
X138819346Y-154250190D01*
X138819349Y-154250192D01*
X138819352Y-154250193D01*
X139343817Y-154488653D01*
X139436309Y-154515700D01*
X139498001Y-154534561D01*
X139498000Y-162509418D01*
X139437910Y-162929009D01*
X139283619Y-163268352D01*
X139040288Y-163550752D01*
X138727479Y-163753506D01*
X138346815Y-163867348D01*
X138149649Y-163882000D01*
X81832667Y-163882000D01*
X81334301Y-163819042D01*
X80909111Y-163650697D01*
X80539141Y-163381899D01*
X80247645Y-163029541D01*
X80052933Y-162615756D01*
X79960907Y-162133339D01*
X79958000Y-162040836D01*
X79958000Y-154534719D01*
X80043509Y-154508577D01*
X80135967Y-154481540D01*
X80143841Y-154477902D01*
X80665356Y-154233052D01*
X80745925Y-154180128D01*
X80827073Y-154128232D01*
X80833610Y-154122530D01*
X81265442Y-153741149D01*
X81327887Y-153667776D01*
X81391240Y-153595153D01*
X81395913Y-153587846D01*
X81703346Y-153100593D01*
X81742687Y-153012645D01*
X81783111Y-152925160D01*
X81785545Y-152916835D01*
X81943866Y-152362882D01*
X81956943Y-152267421D01*
X81971187Y-152172111D01*
X81971187Y-152163436D01*
X81967667Y-151587313D01*
X81953414Y-151491943D01*
X81940346Y-151396544D01*
X81937912Y-151388219D01*
X81772836Y-150836241D01*
X81732418Y-150748769D01*
X81693071Y-150660806D01*
X81688397Y-150653499D01*
X81375034Y-150170040D01*
X81311707Y-150097447D01*
X81249237Y-150024045D01*
X81242700Y-150018343D01*
X80806241Y-149642266D01*
X80725058Y-149590347D01*
X80644525Y-149537446D01*
X80636654Y-149533810D01*
X80636651Y-149533808D01*
X80636648Y-149533807D01*
X80112183Y-149295347D01*
X80019691Y-149268300D01*
X79958000Y-149249439D01*
X79958000Y-139188623D01*
X80265518Y-139316001D01*
X80820484Y-139316001D01*
X81333205Y-139103625D01*
X81725625Y-138711205D01*
X81813001Y-138500261D01*
X81900377Y-138711205D01*
X82292797Y-139103625D01*
X82805518Y-139316001D01*
X83360484Y-139316001D01*
X83873205Y-139103625D01*
X84265625Y-138711205D01*
X84353001Y-138500261D01*
X84440377Y-138711205D01*
X84593267Y-138864095D01*
X84583973Y-138910823D01*
X84562096Y-139020804D01*
X84582000Y-139120867D01*
X84582000Y-139599937D01*
X84562096Y-139700000D01*
X84582000Y-139800063D01*
X84582000Y-139800065D01*
X84594727Y-139864045D01*
X84640950Y-140096423D01*
X84718097Y-140211881D01*
X84865506Y-140432495D01*
X84950337Y-140489177D01*
X85824822Y-141363663D01*
X85881505Y-141448495D01*
X86217577Y-141673051D01*
X86513935Y-141732000D01*
X86513936Y-141732000D01*
X86614000Y-141751904D01*
X86714063Y-141732000D01*
X105055937Y-141732000D01*
X105156000Y-141751904D01*
X105256063Y-141732000D01*
X105256065Y-141732000D01*
X105552423Y-141673051D01*
X105888495Y-141448495D01*
X105945179Y-141363661D01*
X106819663Y-140489177D01*
X106904495Y-140432495D01*
X107129051Y-140096423D01*
X107188000Y-139800065D01*
X107188000Y-139800064D01*
X107207904Y-139700000D01*
X107188000Y-139599937D01*
X107188000Y-133704063D01*
X107207904Y-133604000D01*
X107162786Y-133377177D01*
X107129051Y-133207577D01*
X106904495Y-132871505D01*
X106819663Y-132814822D01*
X105945179Y-131940339D01*
X105888495Y-131855505D01*
X105552423Y-131630949D01*
X105256065Y-131572000D01*
X105256063Y-131572000D01*
X105156000Y-131552096D01*
X105055937Y-131572000D01*
X96178841Y-131572000D01*
X95758000Y-131151160D01*
X95758000Y-119273856D01*
X95865723Y-119318476D01*
X95869577Y-119321051D01*
X95874123Y-119321955D01*
X96060126Y-119399000D01*
X96261455Y-119399000D01*
X96266000Y-119399904D01*
X96270545Y-119399000D01*
X96471874Y-119399000D01*
X96657877Y-119321955D01*
X96662423Y-119321051D01*
X96666277Y-119318476D01*
X96852280Y-119241431D01*
X96994641Y-119099070D01*
X96998495Y-119096495D01*
X97001070Y-119092641D01*
X97143431Y-118950280D01*
X97162431Y-118904409D01*
X97929663Y-118137178D01*
X98014495Y-118080495D01*
X98044001Y-118036336D01*
X98044001Y-118705158D01*
X97503591Y-119245569D01*
X97457720Y-119264569D01*
X97315359Y-119406930D01*
X97311505Y-119409505D01*
X97308930Y-119413359D01*
X97166569Y-119555720D01*
X97089524Y-119741723D01*
X97086949Y-119745577D01*
X97086045Y-119750123D01*
X97009000Y-119936126D01*
X97009000Y-120137455D01*
X97008096Y-120142000D01*
X97009000Y-120146545D01*
X97009000Y-120347874D01*
X97086045Y-120533877D01*
X97086949Y-120538423D01*
X97089524Y-120542277D01*
X97166569Y-120728280D01*
X97308930Y-120870641D01*
X97311505Y-120874495D01*
X97315359Y-120877070D01*
X97457720Y-121019431D01*
X97643723Y-121096476D01*
X97647577Y-121099051D01*
X97652123Y-121099955D01*
X97838126Y-121177000D01*
X98039455Y-121177000D01*
X98044000Y-121177904D01*
X98048545Y-121177000D01*
X98249874Y-121177000D01*
X98435877Y-121099955D01*
X98440423Y-121099051D01*
X98444277Y-121096476D01*
X98630280Y-121019431D01*
X98772641Y-120877070D01*
X98776495Y-120874495D01*
X98779070Y-120870641D01*
X98921431Y-120728280D01*
X98940431Y-120682409D01*
X99707663Y-119915178D01*
X99792495Y-119858495D01*
X100017051Y-119522423D01*
X100076000Y-119226065D01*
X100076000Y-119226064D01*
X100095904Y-119126000D01*
X100076000Y-119025937D01*
X100076000Y-98464840D01*
X100750841Y-97790000D01*
X103254621Y-97790000D01*
X103354684Y-97809904D01*
X103454747Y-97790000D01*
X103454749Y-97790000D01*
X103486784Y-97783628D01*
X103439524Y-97897723D01*
X103436949Y-97901577D01*
X103436045Y-97906123D01*
X103359000Y-98092126D01*
X103359000Y-98293455D01*
X103358096Y-98298000D01*
X103359000Y-98302545D01*
X103359000Y-98503874D01*
X103436045Y-98689877D01*
X103436949Y-98694423D01*
X103439524Y-98698277D01*
X103516569Y-98884280D01*
X103658930Y-99026641D01*
X103661505Y-99030495D01*
X103665359Y-99033070D01*
X103807720Y-99175431D01*
X103993723Y-99252476D01*
X103997577Y-99255051D01*
X104002123Y-99255955D01*
X104188126Y-99333000D01*
X104389455Y-99333000D01*
X104394000Y-99333904D01*
X104398545Y-99333000D01*
X104599874Y-99333000D01*
X104785877Y-99255955D01*
X104790423Y-99255051D01*
X104794277Y-99252476D01*
X104980280Y-99175431D01*
X105122641Y-99033070D01*
X105126495Y-99030495D01*
X105129070Y-99026641D01*
X105271431Y-98884280D01*
X105290432Y-98838409D01*
X106934000Y-97194840D01*
X106934000Y-106005159D01*
X105377591Y-107561568D01*
X105331720Y-107580569D01*
X105189359Y-107722930D01*
X105185505Y-107725505D01*
X105182930Y-107729359D01*
X105040569Y-107871720D01*
X104963524Y-108057723D01*
X104960949Y-108061577D01*
X104960045Y-108066123D01*
X104883000Y-108252126D01*
X104883000Y-108453455D01*
X104882096Y-108458000D01*
X104883000Y-108462545D01*
X104883000Y-108663874D01*
X104960045Y-108849877D01*
X104960949Y-108854423D01*
X104963524Y-108858277D01*
X105040569Y-109044280D01*
X105182930Y-109186641D01*
X105185505Y-109190495D01*
X105189359Y-109193070D01*
X105331720Y-109335431D01*
X105517723Y-109412476D01*
X105521577Y-109415051D01*
X105526123Y-109415955D01*
X105712126Y-109493000D01*
X105913455Y-109493000D01*
X105918000Y-109493904D01*
X105922545Y-109493000D01*
X106123874Y-109493000D01*
X106309877Y-109415955D01*
X106314423Y-109415051D01*
X106318277Y-109412476D01*
X106504280Y-109335431D01*
X106646641Y-109193070D01*
X106650495Y-109190495D01*
X106653070Y-109186641D01*
X106795431Y-109044280D01*
X106814432Y-108998409D01*
X108597664Y-107215177D01*
X108682495Y-107158495D01*
X108907051Y-106822423D01*
X108966000Y-106526065D01*
X108966000Y-106526064D01*
X108985904Y-106426000D01*
X108966000Y-106325937D01*
X108966000Y-85541657D01*
X109134320Y-85373337D01*
X109220000Y-85166487D01*
X109305680Y-85373337D01*
X109474001Y-85541658D01*
X109474000Y-106513159D01*
X107155591Y-108831568D01*
X107109720Y-108850569D01*
X106967359Y-108992930D01*
X106963505Y-108995505D01*
X106960930Y-108999359D01*
X106818569Y-109141720D01*
X106741524Y-109327723D01*
X106738949Y-109331577D01*
X106738045Y-109336123D01*
X106661000Y-109522126D01*
X106661000Y-109723455D01*
X106660096Y-109728000D01*
X106661000Y-109732545D01*
X106661000Y-109933874D01*
X106738045Y-110119877D01*
X106738949Y-110124423D01*
X106741524Y-110128277D01*
X106818569Y-110314280D01*
X106960930Y-110456641D01*
X106963505Y-110460495D01*
X106967359Y-110463070D01*
X107109720Y-110605431D01*
X107295723Y-110682476D01*
X107299577Y-110685051D01*
X107304123Y-110685955D01*
X107490126Y-110763000D01*
X107691455Y-110763000D01*
X107696000Y-110763904D01*
X107700545Y-110763000D01*
X107901874Y-110763000D01*
X108087877Y-110685955D01*
X108092423Y-110685051D01*
X108096277Y-110682476D01*
X108282280Y-110605431D01*
X108424641Y-110463070D01*
X108428495Y-110460495D01*
X108431070Y-110456641D01*
X108573431Y-110314280D01*
X108592432Y-110268409D01*
X109918722Y-108942119D01*
X130683000Y-108942119D01*
X130683000Y-109497881D01*
X130895680Y-110011337D01*
X131288663Y-110404320D01*
X131802119Y-110617000D01*
X132357881Y-110617000D01*
X132871337Y-110404320D01*
X133264320Y-110011337D01*
X133350000Y-109804487D01*
X133435680Y-110011337D01*
X133828663Y-110404320D01*
X134342119Y-110617000D01*
X134897881Y-110617000D01*
X135411337Y-110404320D01*
X135804320Y-110011337D01*
X136017000Y-109497881D01*
X136017000Y-108942119D01*
X135804320Y-108428663D01*
X135411337Y-108035680D01*
X134897881Y-107823000D01*
X134342119Y-107823000D01*
X133828663Y-108035680D01*
X133435680Y-108428663D01*
X133350000Y-108635513D01*
X133264320Y-108428663D01*
X132871337Y-108035680D01*
X132357881Y-107823000D01*
X131802119Y-107823000D01*
X131288663Y-108035680D01*
X130895680Y-108428663D01*
X130683000Y-108942119D01*
X109918722Y-108942119D01*
X111137664Y-107723177D01*
X111222495Y-107666495D01*
X111447051Y-107330423D01*
X111506000Y-107034065D01*
X111506000Y-107034064D01*
X111525904Y-106934000D01*
X111506000Y-106833936D01*
X111506000Y-88801853D01*
X124332000Y-88801853D01*
X124332000Y-90064947D01*
X124815365Y-91231893D01*
X125708507Y-92125035D01*
X126875453Y-92608400D01*
X128138547Y-92608400D01*
X129305493Y-92125035D01*
X130198635Y-91231893D01*
X130682000Y-90064947D01*
X130682000Y-88801853D01*
X132333000Y-88801853D01*
X132333000Y-90064947D01*
X132816365Y-91231893D01*
X133709507Y-92125035D01*
X134876453Y-92608400D01*
X136139547Y-92608400D01*
X137306493Y-92125035D01*
X138199635Y-91231893D01*
X138683000Y-90064947D01*
X138683000Y-88801853D01*
X138199635Y-87634907D01*
X137306493Y-86741765D01*
X136139547Y-86258400D01*
X134876453Y-86258400D01*
X133709507Y-86741765D01*
X132816365Y-87634907D01*
X132333000Y-88801853D01*
X130682000Y-88801853D01*
X130198635Y-87634907D01*
X129305493Y-86741765D01*
X128138547Y-86258400D01*
X126875453Y-86258400D01*
X125708507Y-86741765D01*
X124815365Y-87634907D01*
X124332000Y-88801853D01*
X111506000Y-88801853D01*
X111506000Y-85541657D01*
X111674320Y-85373337D01*
X111887000Y-84859881D01*
X111887000Y-84304119D01*
X111674320Y-83790663D01*
X111281337Y-83397680D01*
X110767881Y-83185000D01*
X110212119Y-83185000D01*
X109698663Y-83397680D01*
X109305680Y-83790663D01*
X109220000Y-83997513D01*
X109134320Y-83790663D01*
X108741337Y-83397680D01*
X108227881Y-83185000D01*
X107672119Y-83185000D01*
X107158663Y-83397680D01*
X106765680Y-83790663D01*
X106680000Y-83997513D01*
X106594320Y-83790663D01*
X106201337Y-83397680D01*
X105687881Y-83185000D01*
X105132119Y-83185000D01*
X104618663Y-83397680D01*
X104225680Y-83790663D01*
X104140000Y-83997513D01*
X104054320Y-83790663D01*
X103661337Y-83397680D01*
X103147881Y-83185000D01*
X102592119Y-83185000D01*
X102078663Y-83397680D01*
X101685680Y-83790663D01*
X101600000Y-83997513D01*
X101514320Y-83790663D01*
X101121337Y-83397680D01*
X100607881Y-83185000D01*
X100052119Y-83185000D01*
X99538663Y-83397680D01*
X99145680Y-83790663D01*
X98933000Y-84304119D01*
X98933000Y-84859881D01*
X99145680Y-85373337D01*
X99538663Y-85766320D01*
X100052119Y-85979000D01*
X100607881Y-85979000D01*
X101121337Y-85766320D01*
X101514320Y-85373337D01*
X101600000Y-85166487D01*
X101685680Y-85373337D01*
X102078663Y-85766320D01*
X102592119Y-85979000D01*
X103147881Y-85979000D01*
X103661337Y-85766320D01*
X104054320Y-85373337D01*
X104140000Y-85166487D01*
X104225680Y-85373337D01*
X104618663Y-85766320D01*
X105132119Y-85979000D01*
X105687881Y-85979000D01*
X106201337Y-85766320D01*
X106594320Y-85373337D01*
X106680000Y-85166487D01*
X106765680Y-85373337D01*
X106934001Y-85541658D01*
X106934001Y-89241160D01*
X106199179Y-88506339D01*
X106142495Y-88421505D01*
X105806423Y-88196949D01*
X105510065Y-88138000D01*
X105510063Y-88138000D01*
X105410000Y-88118096D01*
X105309937Y-88138000D01*
X95162841Y-88138000D01*
X94234000Y-87209160D01*
X94234000Y-85541657D01*
X94402320Y-85373337D01*
X94615000Y-84859881D01*
X94615000Y-84304119D01*
X94402320Y-83790663D01*
X94009337Y-83397680D01*
X93495881Y-83185000D01*
X92940119Y-83185000D01*
X92426663Y-83397680D01*
X92033680Y-83790663D01*
X91948000Y-83997513D01*
X91862320Y-83790663D01*
X91469337Y-83397680D01*
X90955881Y-83185000D01*
X90400119Y-83185000D01*
X89886663Y-83397680D01*
X89493680Y-83790663D01*
X89408000Y-83997513D01*
X89322320Y-83790663D01*
X88929337Y-83397680D01*
X88415881Y-83185000D01*
X87860119Y-83185000D01*
X87346663Y-83397680D01*
X86953680Y-83790663D01*
X86868000Y-83997513D01*
X86782320Y-83790663D01*
X86389337Y-83397680D01*
X85875881Y-83185000D01*
X85320119Y-83185000D01*
X84806663Y-83397680D01*
X84413680Y-83790663D01*
X84328000Y-83997513D01*
X84242320Y-83790663D01*
X83849337Y-83397680D01*
X83335881Y-83185000D01*
X82780119Y-83185000D01*
X82266663Y-83397680D01*
X81873680Y-83790663D01*
X81661000Y-84304119D01*
X81661000Y-84859881D01*
X81873680Y-85373337D01*
X82266663Y-85766320D01*
X82780119Y-85979000D01*
X83335881Y-85979000D01*
X83849337Y-85766320D01*
X84242320Y-85373337D01*
X84328000Y-85166487D01*
X84413680Y-85373337D01*
X84806663Y-85766320D01*
X85320119Y-85979000D01*
X85875881Y-85979000D01*
X86389337Y-85766320D01*
X86782320Y-85373337D01*
X86868000Y-85166487D01*
X86953680Y-85373337D01*
X87346663Y-85766320D01*
X87860119Y-85979000D01*
X88415881Y-85979000D01*
X88929337Y-85766320D01*
X89322320Y-85373337D01*
X89408000Y-85166487D01*
X89493680Y-85373337D01*
X89662000Y-85541657D01*
X89662001Y-87783932D01*
X89642096Y-87884000D01*
X89670426Y-88026423D01*
X89720950Y-88280423D01*
X89945506Y-88616495D01*
X90030338Y-88673178D01*
X92414167Y-91057007D01*
X92060377Y-91410797D01*
X91973001Y-91621741D01*
X91885625Y-91410797D01*
X91493205Y-91018377D01*
X90980484Y-90806001D01*
X90425518Y-90806001D01*
X89912797Y-91018377D01*
X89520377Y-91410797D01*
X89433001Y-91621741D01*
X89345625Y-91410797D01*
X88953205Y-91018377D01*
X88440484Y-90806001D01*
X87885518Y-90806001D01*
X87372797Y-91018377D01*
X86980377Y-91410797D01*
X86893001Y-91621741D01*
X86805625Y-91410797D01*
X86413205Y-91018377D01*
X85900484Y-90806001D01*
X85345518Y-90806001D01*
X84832797Y-91018377D01*
X84440377Y-91410797D01*
X84353001Y-91621741D01*
X84265625Y-91410797D01*
X83873205Y-91018377D01*
X83360484Y-90806001D01*
X82805518Y-90806001D01*
X82292797Y-91018377D01*
X81900377Y-91410797D01*
X81813001Y-91621741D01*
X81725625Y-91410797D01*
X81333205Y-91018377D01*
X80820484Y-90806001D01*
X80265518Y-90806001D01*
X79958000Y-90933379D01*
X79958000Y-77453544D01*
X80451167Y-77946711D01*
X81318567Y-78306000D01*
X82257433Y-78306000D01*
X83124833Y-77946711D01*
X83788711Y-77282833D01*
X84148000Y-76415433D01*
X84148000Y-75476567D01*
X92128000Y-75476567D01*
X92128000Y-76415433D01*
X92487289Y-77282833D01*
X93151167Y-77946711D01*
X94018567Y-78306000D01*
X94957433Y-78306000D01*
X95824833Y-77946711D01*
X96488711Y-77282833D01*
X96774000Y-76594085D01*
X97059289Y-77282833D01*
X97723167Y-77946711D01*
X98590567Y-78306000D01*
X99529433Y-78306000D01*
X100396833Y-77946711D01*
X101060711Y-77282833D01*
X101420000Y-76415433D01*
X101420000Y-75476567D01*
X109400000Y-75476567D01*
X109400000Y-76415433D01*
X109759289Y-77282833D01*
X110423167Y-77946711D01*
X111290567Y-78306000D01*
X112229433Y-78306000D01*
X113096833Y-77946711D01*
X113760711Y-77282833D01*
X114120000Y-76415433D01*
X114120000Y-75476567D01*
X113760711Y-74609167D01*
X113096833Y-73945289D01*
X112229433Y-73586000D01*
X111290567Y-73586000D01*
X110423167Y-73945289D01*
X109759289Y-74609167D01*
X109400000Y-75476567D01*
X101420000Y-75476567D01*
X101060711Y-74609167D01*
X100396833Y-73945289D01*
X99529433Y-73586000D01*
X98590567Y-73586000D01*
X97723167Y-73945289D01*
X97059289Y-74609167D01*
X96774000Y-75297915D01*
X96488711Y-74609167D01*
X95824833Y-73945289D01*
X94957433Y-73586000D01*
X94018567Y-73586000D01*
X93151167Y-73945289D01*
X92487289Y-74609167D01*
X92128000Y-75476567D01*
X84148000Y-75476567D01*
X83788711Y-74609167D01*
X83124833Y-73945289D01*
X82257433Y-73586000D01*
X81318567Y-73586000D01*
X80451167Y-73945289D01*
X79958000Y-74438456D01*
X79958000Y-72948581D01*
X80018090Y-72528991D01*
X80172381Y-72189648D01*
X80415712Y-71907248D01*
X80728523Y-71704494D01*
X81109184Y-71590652D01*
X81306350Y-71576000D01*
X138125419Y-71576000D01*
X138545009Y-71636090D01*
X138545009Y-71636090D01*
G37*
X138545009Y-71636090D02*
X138884352Y-71790381D01*
X139166752Y-72033712D01*
X139369506Y-72346523D01*
X139483348Y-72727184D01*
X139498001Y-72924363D01*
X139498000Y-116789419D01*
X139437910Y-117209009D01*
X139283619Y-117548352D01*
X139040288Y-117830752D01*
X138727479Y-118033506D01*
X138346815Y-118147348D01*
X138149649Y-118162000D01*
X122497926Y-118162000D01*
X122428000Y-118148091D01*
X122358075Y-118162000D01*
X122358074Y-118162000D01*
X122150972Y-118203195D01*
X121916119Y-118360119D01*
X121759195Y-118594972D01*
X121704091Y-118872000D01*
X121718001Y-118941931D01*
X121718000Y-139630074D01*
X121704091Y-139700000D01*
X121759195Y-139977028D01*
X121916119Y-140211881D01*
X122150972Y-140368805D01*
X122310571Y-140400551D01*
X122428000Y-140423909D01*
X122497925Y-140410000D01*
X138125419Y-140410000D01*
X138545009Y-140470090D01*
X138884352Y-140624381D01*
X139166752Y-140867712D01*
X139369506Y-141180523D01*
X139483348Y-141561184D01*
X139498001Y-141758363D01*
X139498000Y-149249281D01*
X139412491Y-149275423D01*
X139320033Y-149302460D01*
X139312159Y-149306098D01*
X138790644Y-149550948D01*
X138710075Y-149603872D01*
X138628927Y-149655768D01*
X138622390Y-149661470D01*
X138190558Y-150042851D01*
X138128096Y-150116244D01*
X138064760Y-150188847D01*
X138060087Y-150196154D01*
X137752654Y-150683407D01*
X137713298Y-150771387D01*
X137672889Y-150858840D01*
X137670457Y-150867160D01*
X137670454Y-150867166D01*
X137670453Y-150867173D01*
X137512134Y-151421118D01*
X137499056Y-151516586D01*
X137484813Y-151611890D01*
X137484813Y-151620564D01*
X137488333Y-152196687D01*
X137502588Y-152292068D01*
X137515654Y-152387455D01*
X137518088Y-152395781D01*
X137683164Y-152947758D01*
X137723591Y-153035250D01*
X137762930Y-153123194D01*
X137767603Y-153130501D01*
X138080966Y-153613961D01*
X138144328Y-153686594D01*
X138206763Y-153759955D01*
X138213296Y-153765654D01*
X138213300Y-153765658D01*
X138213305Y-153765661D01*
X138649759Y-154141734D01*
X138730942Y-154193653D01*
X138811475Y-154246554D01*
X138819346Y-154250190D01*
X138819349Y-154250192D01*
X138819352Y-154250193D01*
X139343817Y-154488653D01*
X139436309Y-154515700D01*
X139498001Y-154534561D01*
X139498000Y-162509418D01*
X139437910Y-162929009D01*
X139283619Y-163268352D01*
X139040288Y-163550752D01*
X138727479Y-163753506D01*
X138346815Y-163867348D01*
X138149649Y-163882000D01*
X81832667Y-163882000D01*
X81334301Y-163819042D01*
X80909111Y-163650697D01*
X80539141Y-163381899D01*
X80247645Y-163029541D01*
X80052933Y-162615756D01*
X79960907Y-162133339D01*
X79958000Y-162040836D01*
X79958000Y-154534719D01*
X80043509Y-154508577D01*
X80135967Y-154481540D01*
X80143841Y-154477902D01*
X80665356Y-154233052D01*
X80745925Y-154180128D01*
X80827073Y-154128232D01*
X80833610Y-154122530D01*
X81265442Y-153741149D01*
X81327887Y-153667776D01*
X81391240Y-153595153D01*
X81395913Y-153587846D01*
X81703346Y-153100593D01*
X81742687Y-153012645D01*
X81783111Y-152925160D01*
X81785545Y-152916835D01*
X81943866Y-152362882D01*
X81956943Y-152267421D01*
X81971187Y-152172111D01*
X81971187Y-152163436D01*
X81967667Y-151587313D01*
X81953414Y-151491943D01*
X81940346Y-151396544D01*
X81937912Y-151388219D01*
X81772836Y-150836241D01*
X81732418Y-150748769D01*
X81693071Y-150660806D01*
X81688397Y-150653499D01*
X81375034Y-150170040D01*
X81311707Y-150097447D01*
X81249237Y-150024045D01*
X81242700Y-150018343D01*
X80806241Y-149642266D01*
X80725058Y-149590347D01*
X80644525Y-149537446D01*
X80636654Y-149533810D01*
X80636651Y-149533808D01*
X80636648Y-149533807D01*
X80112183Y-149295347D01*
X80019691Y-149268300D01*
X79958000Y-149249439D01*
X79958000Y-139188623D01*
X80265518Y-139316001D01*
X80820484Y-139316001D01*
X81333205Y-139103625D01*
X81725625Y-138711205D01*
X81813001Y-138500261D01*
X81900377Y-138711205D01*
X82292797Y-139103625D01*
X82805518Y-139316001D01*
X83360484Y-139316001D01*
X83873205Y-139103625D01*
X84265625Y-138711205D01*
X84353001Y-138500261D01*
X84440377Y-138711205D01*
X84593267Y-138864095D01*
X84583973Y-138910823D01*
X84562096Y-139020804D01*
X84582000Y-139120867D01*
X84582000Y-139599937D01*
X84562096Y-139700000D01*
X84582000Y-139800063D01*
X84582000Y-139800065D01*
X84594727Y-139864045D01*
X84640950Y-140096423D01*
X84718097Y-140211881D01*
X84865506Y-140432495D01*
X84950337Y-140489177D01*
X85824822Y-141363663D01*
X85881505Y-141448495D01*
X86217577Y-141673051D01*
X86513935Y-141732000D01*
X86513936Y-141732000D01*
X86614000Y-141751904D01*
X86714063Y-141732000D01*
X105055937Y-141732000D01*
X105156000Y-141751904D01*
X105256063Y-141732000D01*
X105256065Y-141732000D01*
X105552423Y-141673051D01*
X105888495Y-141448495D01*
X105945179Y-141363661D01*
X106819663Y-140489177D01*
X106904495Y-140432495D01*
X107129051Y-140096423D01*
X107188000Y-139800065D01*
X107188000Y-139800064D01*
X107207904Y-139700000D01*
X107188000Y-139599937D01*
X107188000Y-133704063D01*
X107207904Y-133604000D01*
X107162786Y-133377177D01*
X107129051Y-133207577D01*
X106904495Y-132871505D01*
X106819663Y-132814822D01*
X105945179Y-131940339D01*
X105888495Y-131855505D01*
X105552423Y-131630949D01*
X105256065Y-131572000D01*
X105256063Y-131572000D01*
X105156000Y-131552096D01*
X105055937Y-131572000D01*
X96178841Y-131572000D01*
X95758000Y-131151160D01*
X95758000Y-119273856D01*
X95865723Y-119318476D01*
X95869577Y-119321051D01*
X95874123Y-119321955D01*
X96060126Y-119399000D01*
X96261455Y-119399000D01*
X96266000Y-119399904D01*
X96270545Y-119399000D01*
X96471874Y-119399000D01*
X96657877Y-119321955D01*
X96662423Y-119321051D01*
X96666277Y-119318476D01*
X96852280Y-119241431D01*
X96994641Y-119099070D01*
X96998495Y-119096495D01*
X97001070Y-119092641D01*
X97143431Y-118950280D01*
X97162431Y-118904409D01*
X97929663Y-118137178D01*
X98014495Y-118080495D01*
X98044001Y-118036336D01*
X98044001Y-118705158D01*
X97503591Y-119245569D01*
X97457720Y-119264569D01*
X97315359Y-119406930D01*
X97311505Y-119409505D01*
X97308930Y-119413359D01*
X97166569Y-119555720D01*
X97089524Y-119741723D01*
X97086949Y-119745577D01*
X97086045Y-119750123D01*
X97009000Y-119936126D01*
X97009000Y-120137455D01*
X97008096Y-120142000D01*
X97009000Y-120146545D01*
X97009000Y-120347874D01*
X97086045Y-120533877D01*
X97086949Y-120538423D01*
X97089524Y-120542277D01*
X97166569Y-120728280D01*
X97308930Y-120870641D01*
X97311505Y-120874495D01*
X97315359Y-120877070D01*
X97457720Y-121019431D01*
X97643723Y-121096476D01*
X97647577Y-121099051D01*
X97652123Y-121099955D01*
X97838126Y-121177000D01*
X98039455Y-121177000D01*
X98044000Y-121177904D01*
X98048545Y-121177000D01*
X98249874Y-121177000D01*
X98435877Y-121099955D01*
X98440423Y-121099051D01*
X98444277Y-121096476D01*
X98630280Y-121019431D01*
X98772641Y-120877070D01*
X98776495Y-120874495D01*
X98779070Y-120870641D01*
X98921431Y-120728280D01*
X98940431Y-120682409D01*
X99707663Y-119915178D01*
X99792495Y-119858495D01*
X100017051Y-119522423D01*
X100076000Y-119226065D01*
X100076000Y-119226064D01*
X100095904Y-119126000D01*
X100076000Y-119025937D01*
X100076000Y-98464840D01*
X100750841Y-97790000D01*
X103254621Y-97790000D01*
X103354684Y-97809904D01*
X103454747Y-97790000D01*
X103454749Y-97790000D01*
X103486784Y-97783628D01*
X103439524Y-97897723D01*
X103436949Y-97901577D01*
X103436045Y-97906123D01*
X103359000Y-98092126D01*
X103359000Y-98293455D01*
X103358096Y-98298000D01*
X103359000Y-98302545D01*
X103359000Y-98503874D01*
X103436045Y-98689877D01*
X103436949Y-98694423D01*
X103439524Y-98698277D01*
X103516569Y-98884280D01*
X103658930Y-99026641D01*
X103661505Y-99030495D01*
X103665359Y-99033070D01*
X103807720Y-99175431D01*
X103993723Y-99252476D01*
X103997577Y-99255051D01*
X104002123Y-99255955D01*
X104188126Y-99333000D01*
X104389455Y-99333000D01*
X104394000Y-99333904D01*
X104398545Y-99333000D01*
X104599874Y-99333000D01*
X104785877Y-99255955D01*
X104790423Y-99255051D01*
X104794277Y-99252476D01*
X104980280Y-99175431D01*
X105122641Y-99033070D01*
X105126495Y-99030495D01*
X105129070Y-99026641D01*
X105271431Y-98884280D01*
X105290432Y-98838409D01*
X106934000Y-97194840D01*
X106934000Y-106005159D01*
X105377591Y-107561568D01*
X105331720Y-107580569D01*
X105189359Y-107722930D01*
X105185505Y-107725505D01*
X105182930Y-107729359D01*
X105040569Y-107871720D01*
X104963524Y-108057723D01*
X104960949Y-108061577D01*
X104960045Y-108066123D01*
X104883000Y-108252126D01*
X104883000Y-108453455D01*
X104882096Y-108458000D01*
X104883000Y-108462545D01*
X104883000Y-108663874D01*
X104960045Y-108849877D01*
X104960949Y-108854423D01*
X104963524Y-108858277D01*
X105040569Y-109044280D01*
X105182930Y-109186641D01*
X105185505Y-109190495D01*
X105189359Y-109193070D01*
X105331720Y-109335431D01*
X105517723Y-109412476D01*
X105521577Y-109415051D01*
X105526123Y-109415955D01*
X105712126Y-109493000D01*
X105913455Y-109493000D01*
X105918000Y-109493904D01*
X105922545Y-109493000D01*
X106123874Y-109493000D01*
X106309877Y-109415955D01*
X106314423Y-109415051D01*
X106318277Y-109412476D01*
X106504280Y-109335431D01*
X106646641Y-109193070D01*
X106650495Y-109190495D01*
X106653070Y-109186641D01*
X106795431Y-109044280D01*
X106814432Y-108998409D01*
X108597664Y-107215177D01*
X108682495Y-107158495D01*
X108907051Y-106822423D01*
X108966000Y-106526065D01*
X108966000Y-106526064D01*
X108985904Y-106426000D01*
X108966000Y-106325937D01*
X108966000Y-85541657D01*
X109134320Y-85373337D01*
X109220000Y-85166487D01*
X109305680Y-85373337D01*
X109474001Y-85541658D01*
X109474000Y-106513159D01*
X107155591Y-108831568D01*
X107109720Y-108850569D01*
X106967359Y-108992930D01*
X106963505Y-108995505D01*
X106960930Y-108999359D01*
X106818569Y-109141720D01*
X106741524Y-109327723D01*
X106738949Y-109331577D01*
X106738045Y-109336123D01*
X106661000Y-109522126D01*
X106661000Y-109723455D01*
X106660096Y-109728000D01*
X106661000Y-109732545D01*
X106661000Y-109933874D01*
X106738045Y-110119877D01*
X106738949Y-110124423D01*
X106741524Y-110128277D01*
X106818569Y-110314280D01*
X106960930Y-110456641D01*
X106963505Y-110460495D01*
X106967359Y-110463070D01*
X107109720Y-110605431D01*
X107295723Y-110682476D01*
X107299577Y-110685051D01*
X107304123Y-110685955D01*
X107490126Y-110763000D01*
X107691455Y-110763000D01*
X107696000Y-110763904D01*
X107700545Y-110763000D01*
X107901874Y-110763000D01*
X108087877Y-110685955D01*
X108092423Y-110685051D01*
X108096277Y-110682476D01*
X108282280Y-110605431D01*
X108424641Y-110463070D01*
X108428495Y-110460495D01*
X108431070Y-110456641D01*
X108573431Y-110314280D01*
X108592432Y-110268409D01*
X109918722Y-108942119D01*
X130683000Y-108942119D01*
X130683000Y-109497881D01*
X130895680Y-110011337D01*
X131288663Y-110404320D01*
X131802119Y-110617000D01*
X132357881Y-110617000D01*
X132871337Y-110404320D01*
X133264320Y-110011337D01*
X133350000Y-109804487D01*
X133435680Y-110011337D01*
X133828663Y-110404320D01*
X134342119Y-110617000D01*
X134897881Y-110617000D01*
X135411337Y-110404320D01*
X135804320Y-110011337D01*
X136017000Y-109497881D01*
X136017000Y-108942119D01*
X135804320Y-108428663D01*
X135411337Y-108035680D01*
X134897881Y-107823000D01*
X134342119Y-107823000D01*
X133828663Y-108035680D01*
X133435680Y-108428663D01*
X133350000Y-108635513D01*
X133264320Y-108428663D01*
X132871337Y-108035680D01*
X132357881Y-107823000D01*
X131802119Y-107823000D01*
X131288663Y-108035680D01*
X130895680Y-108428663D01*
X130683000Y-108942119D01*
X109918722Y-108942119D01*
X111137664Y-107723177D01*
X111222495Y-107666495D01*
X111447051Y-107330423D01*
X111506000Y-107034065D01*
X111506000Y-107034064D01*
X111525904Y-106934000D01*
X111506000Y-106833936D01*
X111506000Y-88801853D01*
X124332000Y-88801853D01*
X124332000Y-90064947D01*
X124815365Y-91231893D01*
X125708507Y-92125035D01*
X126875453Y-92608400D01*
X128138547Y-92608400D01*
X129305493Y-92125035D01*
X130198635Y-91231893D01*
X130682000Y-90064947D01*
X130682000Y-88801853D01*
X132333000Y-88801853D01*
X132333000Y-90064947D01*
X132816365Y-91231893D01*
X133709507Y-92125035D01*
X134876453Y-92608400D01*
X136139547Y-92608400D01*
X137306493Y-92125035D01*
X138199635Y-91231893D01*
X138683000Y-90064947D01*
X138683000Y-88801853D01*
X138199635Y-87634907D01*
X137306493Y-86741765D01*
X136139547Y-86258400D01*
X134876453Y-86258400D01*
X133709507Y-86741765D01*
X132816365Y-87634907D01*
X132333000Y-88801853D01*
X130682000Y-88801853D01*
X130198635Y-87634907D01*
X129305493Y-86741765D01*
X128138547Y-86258400D01*
X126875453Y-86258400D01*
X125708507Y-86741765D01*
X124815365Y-87634907D01*
X124332000Y-88801853D01*
X111506000Y-88801853D01*
X111506000Y-85541657D01*
X111674320Y-85373337D01*
X111887000Y-84859881D01*
X111887000Y-84304119D01*
X111674320Y-83790663D01*
X111281337Y-83397680D01*
X110767881Y-83185000D01*
X110212119Y-83185000D01*
X109698663Y-83397680D01*
X109305680Y-83790663D01*
X109220000Y-83997513D01*
X109134320Y-83790663D01*
X108741337Y-83397680D01*
X108227881Y-83185000D01*
X107672119Y-83185000D01*
X107158663Y-83397680D01*
X106765680Y-83790663D01*
X106680000Y-83997513D01*
X106594320Y-83790663D01*
X106201337Y-83397680D01*
X105687881Y-83185000D01*
X105132119Y-83185000D01*
X104618663Y-83397680D01*
X104225680Y-83790663D01*
X104140000Y-83997513D01*
X104054320Y-83790663D01*
X103661337Y-83397680D01*
X103147881Y-83185000D01*
X102592119Y-83185000D01*
X102078663Y-83397680D01*
X101685680Y-83790663D01*
X101600000Y-83997513D01*
X101514320Y-83790663D01*
X101121337Y-83397680D01*
X100607881Y-83185000D01*
X100052119Y-83185000D01*
X99538663Y-83397680D01*
X99145680Y-83790663D01*
X98933000Y-84304119D01*
X98933000Y-84859881D01*
X99145680Y-85373337D01*
X99538663Y-85766320D01*
X100052119Y-85979000D01*
X100607881Y-85979000D01*
X101121337Y-85766320D01*
X101514320Y-85373337D01*
X101600000Y-85166487D01*
X101685680Y-85373337D01*
X102078663Y-85766320D01*
X102592119Y-85979000D01*
X103147881Y-85979000D01*
X103661337Y-85766320D01*
X104054320Y-85373337D01*
X104140000Y-85166487D01*
X104225680Y-85373337D01*
X104618663Y-85766320D01*
X105132119Y-85979000D01*
X105687881Y-85979000D01*
X106201337Y-85766320D01*
X106594320Y-85373337D01*
X106680000Y-85166487D01*
X106765680Y-85373337D01*
X106934001Y-85541658D01*
X106934001Y-89241160D01*
X106199179Y-88506339D01*
X106142495Y-88421505D01*
X105806423Y-88196949D01*
X105510065Y-88138000D01*
X105510063Y-88138000D01*
X105410000Y-88118096D01*
X105309937Y-88138000D01*
X95162841Y-88138000D01*
X94234000Y-87209160D01*
X94234000Y-85541657D01*
X94402320Y-85373337D01*
X94615000Y-84859881D01*
X94615000Y-84304119D01*
X94402320Y-83790663D01*
X94009337Y-83397680D01*
X93495881Y-83185000D01*
X92940119Y-83185000D01*
X92426663Y-83397680D01*
X92033680Y-83790663D01*
X91948000Y-83997513D01*
X91862320Y-83790663D01*
X91469337Y-83397680D01*
X90955881Y-83185000D01*
X90400119Y-83185000D01*
X89886663Y-83397680D01*
X89493680Y-83790663D01*
X89408000Y-83997513D01*
X89322320Y-83790663D01*
X88929337Y-83397680D01*
X88415881Y-83185000D01*
X87860119Y-83185000D01*
X87346663Y-83397680D01*
X86953680Y-83790663D01*
X86868000Y-83997513D01*
X86782320Y-83790663D01*
X86389337Y-83397680D01*
X85875881Y-83185000D01*
X85320119Y-83185000D01*
X84806663Y-83397680D01*
X84413680Y-83790663D01*
X84328000Y-83997513D01*
X84242320Y-83790663D01*
X83849337Y-83397680D01*
X83335881Y-83185000D01*
X82780119Y-83185000D01*
X82266663Y-83397680D01*
X81873680Y-83790663D01*
X81661000Y-84304119D01*
X81661000Y-84859881D01*
X81873680Y-85373337D01*
X82266663Y-85766320D01*
X82780119Y-85979000D01*
X83335881Y-85979000D01*
X83849337Y-85766320D01*
X84242320Y-85373337D01*
X84328000Y-85166487D01*
X84413680Y-85373337D01*
X84806663Y-85766320D01*
X85320119Y-85979000D01*
X85875881Y-85979000D01*
X86389337Y-85766320D01*
X86782320Y-85373337D01*
X86868000Y-85166487D01*
X86953680Y-85373337D01*
X87346663Y-85766320D01*
X87860119Y-85979000D01*
X88415881Y-85979000D01*
X88929337Y-85766320D01*
X89322320Y-85373337D01*
X89408000Y-85166487D01*
X89493680Y-85373337D01*
X89662000Y-85541657D01*
X89662001Y-87783932D01*
X89642096Y-87884000D01*
X89670426Y-88026423D01*
X89720950Y-88280423D01*
X89945506Y-88616495D01*
X90030338Y-88673178D01*
X92414167Y-91057007D01*
X92060377Y-91410797D01*
X91973001Y-91621741D01*
X91885625Y-91410797D01*
X91493205Y-91018377D01*
X90980484Y-90806001D01*
X90425518Y-90806001D01*
X89912797Y-91018377D01*
X89520377Y-91410797D01*
X89433001Y-91621741D01*
X89345625Y-91410797D01*
X88953205Y-91018377D01*
X88440484Y-90806001D01*
X87885518Y-90806001D01*
X87372797Y-91018377D01*
X86980377Y-91410797D01*
X86893001Y-91621741D01*
X86805625Y-91410797D01*
X86413205Y-91018377D01*
X85900484Y-90806001D01*
X85345518Y-90806001D01*
X84832797Y-91018377D01*
X84440377Y-91410797D01*
X84353001Y-91621741D01*
X84265625Y-91410797D01*
X83873205Y-91018377D01*
X83360484Y-90806001D01*
X82805518Y-90806001D01*
X82292797Y-91018377D01*
X81900377Y-91410797D01*
X81813001Y-91621741D01*
X81725625Y-91410797D01*
X81333205Y-91018377D01*
X80820484Y-90806001D01*
X80265518Y-90806001D01*
X79958000Y-90933379D01*
X79958000Y-77453544D01*
X80451167Y-77946711D01*
X81318567Y-78306000D01*
X82257433Y-78306000D01*
X83124833Y-77946711D01*
X83788711Y-77282833D01*
X84148000Y-76415433D01*
X84148000Y-75476567D01*
X92128000Y-75476567D01*
X92128000Y-76415433D01*
X92487289Y-77282833D01*
X93151167Y-77946711D01*
X94018567Y-78306000D01*
X94957433Y-78306000D01*
X95824833Y-77946711D01*
X96488711Y-77282833D01*
X96774000Y-76594085D01*
X97059289Y-77282833D01*
X97723167Y-77946711D01*
X98590567Y-78306000D01*
X99529433Y-78306000D01*
X100396833Y-77946711D01*
X101060711Y-77282833D01*
X101420000Y-76415433D01*
X101420000Y-75476567D01*
X109400000Y-75476567D01*
X109400000Y-76415433D01*
X109759289Y-77282833D01*
X110423167Y-77946711D01*
X111290567Y-78306000D01*
X112229433Y-78306000D01*
X113096833Y-77946711D01*
X113760711Y-77282833D01*
X114120000Y-76415433D01*
X114120000Y-75476567D01*
X113760711Y-74609167D01*
X113096833Y-73945289D01*
X112229433Y-73586000D01*
X111290567Y-73586000D01*
X110423167Y-73945289D01*
X109759289Y-74609167D01*
X109400000Y-75476567D01*
X101420000Y-75476567D01*
X101060711Y-74609167D01*
X100396833Y-73945289D01*
X99529433Y-73586000D01*
X98590567Y-73586000D01*
X97723167Y-73945289D01*
X97059289Y-74609167D01*
X96774000Y-75297915D01*
X96488711Y-74609167D01*
X95824833Y-73945289D01*
X94957433Y-73586000D01*
X94018567Y-73586000D01*
X93151167Y-73945289D01*
X92487289Y-74609167D01*
X92128000Y-75476567D01*
X84148000Y-75476567D01*
X83788711Y-74609167D01*
X83124833Y-73945289D01*
X82257433Y-73586000D01*
X81318567Y-73586000D01*
X80451167Y-73945289D01*
X79958000Y-74438456D01*
X79958000Y-72948581D01*
X80018090Y-72528991D01*
X80172381Y-72189648D01*
X80415712Y-71907248D01*
X80728523Y-71704494D01*
X81109184Y-71590652D01*
X81306350Y-71576000D01*
X138125419Y-71576000D01*
X138545009Y-71636090D01*
G36*
X99680377Y-95531205D02*
X99960722Y-95811550D01*
X99933577Y-95816949D01*
X99933576Y-95816950D01*
X99933575Y-95816950D01*
X99854814Y-95869577D01*
X99597505Y-96041505D01*
X99540822Y-96126337D01*
X98412339Y-97254820D01*
X98327505Y-97311505D01*
X98102949Y-97647578D01*
X98052426Y-97901577D01*
X98024096Y-98044000D01*
X98044000Y-98144063D01*
X98044000Y-98358289D01*
X98017070Y-98331359D01*
X98014495Y-98327505D01*
X98010641Y-98324930D01*
X97868280Y-98182569D01*
X97682275Y-98105523D01*
X97678422Y-98102949D01*
X97673878Y-98102045D01*
X97487874Y-98025000D01*
X97286545Y-98025000D01*
X97282000Y-98024096D01*
X97277455Y-98025000D01*
X97076126Y-98025000D01*
X96890123Y-98102045D01*
X96885577Y-98102949D01*
X96881723Y-98105524D01*
X96695720Y-98182569D01*
X96553359Y-98324930D01*
X96549505Y-98327505D01*
X96546930Y-98331359D01*
X96404569Y-98473720D01*
X96327523Y-98659725D01*
X96324949Y-98663578D01*
X96324045Y-98668122D01*
X96247000Y-98854126D01*
X96247000Y-99265874D01*
X96266000Y-99311744D01*
X96266001Y-116927158D01*
X95758000Y-117435160D01*
X95758000Y-116075744D01*
X95777000Y-116029874D01*
X95777000Y-115618126D01*
X95699955Y-115432123D01*
X95699051Y-115427577D01*
X95696476Y-115423723D01*
X95619431Y-115237720D01*
X95477070Y-115095359D01*
X95474495Y-115091505D01*
X95470641Y-115088930D01*
X95328280Y-114946569D01*
X95142277Y-114869524D01*
X95138423Y-114866949D01*
X95133877Y-114866045D01*
X94947874Y-114789000D01*
X94746545Y-114789000D01*
X94742000Y-114788096D01*
X94737455Y-114789000D01*
X94536126Y-114789000D01*
X94350122Y-114866045D01*
X94345578Y-114866949D01*
X94341725Y-114869523D01*
X94234000Y-114914144D01*
X94126275Y-114869523D01*
X94122422Y-114866949D01*
X94117878Y-114866045D01*
X93931874Y-114789000D01*
X93730545Y-114789000D01*
X93726000Y-114788096D01*
X93721455Y-114789000D01*
X93520126Y-114789000D01*
X93334123Y-114866045D01*
X93329577Y-114866949D01*
X93325723Y-114869524D01*
X93218000Y-114914144D01*
X93110275Y-114869523D01*
X93106422Y-114866949D01*
X93101878Y-114866045D01*
X92915874Y-114789000D01*
X92714545Y-114789000D01*
X92710000Y-114788096D01*
X92705455Y-114789000D01*
X92504126Y-114789000D01*
X92318123Y-114866045D01*
X92313577Y-114866949D01*
X92309723Y-114869524D01*
X92123720Y-114946569D01*
X91981359Y-115088930D01*
X91977505Y-115091505D01*
X91974930Y-115095359D01*
X91832569Y-115237720D01*
X91821000Y-115265650D01*
X91809431Y-115237720D01*
X91667070Y-115095359D01*
X91664495Y-115091505D01*
X91660641Y-115088930D01*
X91518280Y-114946569D01*
X91332275Y-114869523D01*
X91328422Y-114866949D01*
X91323878Y-114866045D01*
X91137874Y-114789000D01*
X90936545Y-114789000D01*
X90932000Y-114788096D01*
X90927455Y-114789000D01*
X90726126Y-114789000D01*
X90540123Y-114866045D01*
X90535577Y-114866949D01*
X90531723Y-114869524D01*
X90345720Y-114946569D01*
X90203359Y-115088930D01*
X90199505Y-115091505D01*
X90196930Y-115095359D01*
X90054569Y-115237720D01*
X89977523Y-115423725D01*
X89974949Y-115427578D01*
X89974045Y-115432122D01*
X89897000Y-115618126D01*
X89897000Y-116029874D01*
X89916000Y-116075744D01*
X89916001Y-134197050D01*
X89912797Y-134198377D01*
X89520377Y-134590797D01*
X89433001Y-134801741D01*
X89345625Y-134590797D01*
X88953205Y-134198377D01*
X88440484Y-133986001D01*
X87885518Y-133986001D01*
X87372797Y-134198377D01*
X86980377Y-134590797D01*
X86893001Y-134801741D01*
X86805625Y-134590797D01*
X86413205Y-134198377D01*
X85900484Y-133986001D01*
X85345518Y-133986001D01*
X84832797Y-134198377D01*
X84440377Y-134590797D01*
X84353001Y-134801741D01*
X84265625Y-134590797D01*
X83873205Y-134198377D01*
X83360484Y-133986001D01*
X82805518Y-133986001D01*
X82292797Y-134198377D01*
X81900377Y-134590797D01*
X81688001Y-135103518D01*
X81688001Y-135658484D01*
X81900377Y-136171205D01*
X82292797Y-136563625D01*
X82503741Y-136651001D01*
X82292797Y-136738377D01*
X81900377Y-137130797D01*
X81813001Y-137341741D01*
X81725625Y-137130797D01*
X81333205Y-136738377D01*
X80820484Y-136526001D01*
X80265518Y-136526001D01*
X79958000Y-136653379D01*
X79958000Y-96008623D01*
X80265518Y-96136001D01*
X80820484Y-96136001D01*
X81333205Y-95923625D01*
X81725625Y-95531205D01*
X81813001Y-95320261D01*
X81900377Y-95531205D01*
X82292797Y-95923625D01*
X82805518Y-96136001D01*
X83360484Y-96136001D01*
X83873205Y-95923625D01*
X84265625Y-95531205D01*
X84353001Y-95320261D01*
X84440377Y-95531205D01*
X84832797Y-95923625D01*
X85345518Y-96136001D01*
X85900484Y-96136001D01*
X86413205Y-95923625D01*
X86805625Y-95531205D01*
X86893001Y-95320261D01*
X86980377Y-95531205D01*
X87372797Y-95923625D01*
X87885518Y-96136001D01*
X88440484Y-96136001D01*
X88953205Y-95923625D01*
X89345625Y-95531205D01*
X89433001Y-95320261D01*
X89520377Y-95531205D01*
X89912797Y-95923625D01*
X90425518Y-96136001D01*
X90980484Y-96136001D01*
X91493205Y-95923625D01*
X91885625Y-95531205D01*
X91973001Y-95320261D01*
X92060377Y-95531205D01*
X92452797Y-95923625D01*
X92965518Y-96136001D01*
X93520484Y-96136001D01*
X94033205Y-95923625D01*
X94425625Y-95531205D01*
X94513001Y-95320261D01*
X94600377Y-95531205D01*
X94992797Y-95923625D01*
X95505518Y-96136001D01*
X96060484Y-96136001D01*
X96573205Y-95923625D01*
X96965625Y-95531205D01*
X97053001Y-95320261D01*
X97140377Y-95531205D01*
X97532797Y-95923625D01*
X98045518Y-96136001D01*
X98600484Y-96136001D01*
X99113205Y-95923625D01*
X99505625Y-95531205D01*
X99593001Y-95320261D01*
X99680377Y-95531205D01*
X99680377Y-95531205D01*
G37*
X99680377Y-95531205D02*
X99960722Y-95811550D01*
X99933577Y-95816949D01*
X99933576Y-95816950D01*
X99933575Y-95816950D01*
X99854814Y-95869577D01*
X99597505Y-96041505D01*
X99540822Y-96126337D01*
X98412339Y-97254820D01*
X98327505Y-97311505D01*
X98102949Y-97647578D01*
X98052426Y-97901577D01*
X98024096Y-98044000D01*
X98044000Y-98144063D01*
X98044000Y-98358289D01*
X98017070Y-98331359D01*
X98014495Y-98327505D01*
X98010641Y-98324930D01*
X97868280Y-98182569D01*
X97682275Y-98105523D01*
X97678422Y-98102949D01*
X97673878Y-98102045D01*
X97487874Y-98025000D01*
X97286545Y-98025000D01*
X97282000Y-98024096D01*
X97277455Y-98025000D01*
X97076126Y-98025000D01*
X96890123Y-98102045D01*
X96885577Y-98102949D01*
X96881723Y-98105524D01*
X96695720Y-98182569D01*
X96553359Y-98324930D01*
X96549505Y-98327505D01*
X96546930Y-98331359D01*
X96404569Y-98473720D01*
X96327523Y-98659725D01*
X96324949Y-98663578D01*
X96324045Y-98668122D01*
X96247000Y-98854126D01*
X96247000Y-99265874D01*
X96266000Y-99311744D01*
X96266001Y-116927158D01*
X95758000Y-117435160D01*
X95758000Y-116075744D01*
X95777000Y-116029874D01*
X95777000Y-115618126D01*
X95699955Y-115432123D01*
X95699051Y-115427577D01*
X95696476Y-115423723D01*
X95619431Y-115237720D01*
X95477070Y-115095359D01*
X95474495Y-115091505D01*
X95470641Y-115088930D01*
X95328280Y-114946569D01*
X95142277Y-114869524D01*
X95138423Y-114866949D01*
X95133877Y-114866045D01*
X94947874Y-114789000D01*
X94746545Y-114789000D01*
X94742000Y-114788096D01*
X94737455Y-114789000D01*
X94536126Y-114789000D01*
X94350122Y-114866045D01*
X94345578Y-114866949D01*
X94341725Y-114869523D01*
X94234000Y-114914144D01*
X94126275Y-114869523D01*
X94122422Y-114866949D01*
X94117878Y-114866045D01*
X93931874Y-114789000D01*
X93730545Y-114789000D01*
X93726000Y-114788096D01*
X93721455Y-114789000D01*
X93520126Y-114789000D01*
X93334123Y-114866045D01*
X93329577Y-114866949D01*
X93325723Y-114869524D01*
X93218000Y-114914144D01*
X93110275Y-114869523D01*
X93106422Y-114866949D01*
X93101878Y-114866045D01*
X92915874Y-114789000D01*
X92714545Y-114789000D01*
X92710000Y-114788096D01*
X92705455Y-114789000D01*
X92504126Y-114789000D01*
X92318123Y-114866045D01*
X92313577Y-114866949D01*
X92309723Y-114869524D01*
X92123720Y-114946569D01*
X91981359Y-115088930D01*
X91977505Y-115091505D01*
X91974930Y-115095359D01*
X91832569Y-115237720D01*
X91821000Y-115265650D01*
X91809431Y-115237720D01*
X91667070Y-115095359D01*
X91664495Y-115091505D01*
X91660641Y-115088930D01*
X91518280Y-114946569D01*
X91332275Y-114869523D01*
X91328422Y-114866949D01*
X91323878Y-114866045D01*
X91137874Y-114789000D01*
X90936545Y-114789000D01*
X90932000Y-114788096D01*
X90927455Y-114789000D01*
X90726126Y-114789000D01*
X90540123Y-114866045D01*
X90535577Y-114866949D01*
X90531723Y-114869524D01*
X90345720Y-114946569D01*
X90203359Y-115088930D01*
X90199505Y-115091505D01*
X90196930Y-115095359D01*
X90054569Y-115237720D01*
X89977523Y-115423725D01*
X89974949Y-115427578D01*
X89974045Y-115432122D01*
X89897000Y-115618126D01*
X89897000Y-116029874D01*
X89916000Y-116075744D01*
X89916001Y-134197050D01*
X89912797Y-134198377D01*
X89520377Y-134590797D01*
X89433001Y-134801741D01*
X89345625Y-134590797D01*
X88953205Y-134198377D01*
X88440484Y-133986001D01*
X87885518Y-133986001D01*
X87372797Y-134198377D01*
X86980377Y-134590797D01*
X86893001Y-134801741D01*
X86805625Y-134590797D01*
X86413205Y-134198377D01*
X85900484Y-133986001D01*
X85345518Y-133986001D01*
X84832797Y-134198377D01*
X84440377Y-134590797D01*
X84353001Y-134801741D01*
X84265625Y-134590797D01*
X83873205Y-134198377D01*
X83360484Y-133986001D01*
X82805518Y-133986001D01*
X82292797Y-134198377D01*
X81900377Y-134590797D01*
X81688001Y-135103518D01*
X81688001Y-135658484D01*
X81900377Y-136171205D01*
X82292797Y-136563625D01*
X82503741Y-136651001D01*
X82292797Y-136738377D01*
X81900377Y-137130797D01*
X81813001Y-137341741D01*
X81725625Y-137130797D01*
X81333205Y-136738377D01*
X80820484Y-136526001D01*
X80265518Y-136526001D01*
X79958000Y-136653379D01*
X79958000Y-96008623D01*
X80265518Y-96136001D01*
X80820484Y-96136001D01*
X81333205Y-95923625D01*
X81725625Y-95531205D01*
X81813001Y-95320261D01*
X81900377Y-95531205D01*
X82292797Y-95923625D01*
X82805518Y-96136001D01*
X83360484Y-96136001D01*
X83873205Y-95923625D01*
X84265625Y-95531205D01*
X84353001Y-95320261D01*
X84440377Y-95531205D01*
X84832797Y-95923625D01*
X85345518Y-96136001D01*
X85900484Y-96136001D01*
X86413205Y-95923625D01*
X86805625Y-95531205D01*
X86893001Y-95320261D01*
X86980377Y-95531205D01*
X87372797Y-95923625D01*
X87885518Y-96136001D01*
X88440484Y-96136001D01*
X88953205Y-95923625D01*
X89345625Y-95531205D01*
X89433001Y-95320261D01*
X89520377Y-95531205D01*
X89912797Y-95923625D01*
X90425518Y-96136001D01*
X90980484Y-96136001D01*
X91493205Y-95923625D01*
X91885625Y-95531205D01*
X91973001Y-95320261D01*
X92060377Y-95531205D01*
X92452797Y-95923625D01*
X92965518Y-96136001D01*
X93520484Y-96136001D01*
X94033205Y-95923625D01*
X94425625Y-95531205D01*
X94513001Y-95320261D01*
X94600377Y-95531205D01*
X94992797Y-95923625D01*
X95505518Y-96136001D01*
X96060484Y-96136001D01*
X96573205Y-95923625D01*
X96965625Y-95531205D01*
X97053001Y-95320261D01*
X97140377Y-95531205D01*
X97532797Y-95923625D01*
X98045518Y-96136001D01*
X98600484Y-96136001D01*
X99113205Y-95923625D01*
X99505625Y-95531205D01*
X99593001Y-95320261D01*
X99680377Y-95531205D01*
G04 #@! TD*
M02*
