G04 #@! TF.GenerationSoftware,KiCad,Pcbnew,(5.0.0)*
G04 #@! TF.CreationDate,2018-09-29T17:06:36-05:00*
G04 #@! TF.ProjectId,DriveBoard_Hardware,4472697665426F6172645F4861726477,rev?*
G04 #@! TF.SameCoordinates,Original*
G04 #@! TF.FileFunction,Legend,Top*
G04 #@! TF.FilePolarity,Positive*
%FSLAX46Y46*%
G04 Gerber Fmt 4.6, Leading zero omitted, Abs format (unit mm)*
G04 Created by KiCad (PCBNEW (5.0.0)) date 09/29/18 17:06:36*
%MOMM*%
%LPD*%
G01*
G04 APERTURE LIST*
%ADD10C,0.300000*%
%ADD11C,0.150000*%
%ADD12C,0.120000*%
%ADD13C,0.010000*%
G04 APERTURE END LIST*
D10*
X30137714Y-122344571D02*
X30137714Y-120844571D01*
X30494857Y-120844571D01*
X30709142Y-120916000D01*
X30851999Y-121058857D01*
X30923428Y-121201714D01*
X30994857Y-121487428D01*
X30994857Y-121701714D01*
X30923428Y-121987428D01*
X30851999Y-122130285D01*
X30709142Y-122273142D01*
X30494857Y-122344571D01*
X30137714Y-122344571D01*
X31637714Y-122344571D02*
X31637714Y-121344571D01*
X31637714Y-121630285D02*
X31709142Y-121487428D01*
X31780571Y-121416000D01*
X31923428Y-121344571D01*
X32066285Y-121344571D01*
X32566285Y-122344571D02*
X32566285Y-121344571D01*
X32566285Y-120844571D02*
X32494857Y-120916000D01*
X32566285Y-120987428D01*
X32637714Y-120916000D01*
X32566285Y-120844571D01*
X32566285Y-120987428D01*
X33137714Y-121344571D02*
X33494857Y-122344571D01*
X33851999Y-121344571D01*
X34994857Y-122273142D02*
X34851999Y-122344571D01*
X34566285Y-122344571D01*
X34423428Y-122273142D01*
X34351999Y-122130285D01*
X34351999Y-121558857D01*
X34423428Y-121416000D01*
X34566285Y-121344571D01*
X34851999Y-121344571D01*
X34994857Y-121416000D01*
X35066285Y-121558857D01*
X35066285Y-121701714D01*
X34351999Y-121844571D01*
X35709142Y-122344571D02*
X35709142Y-120844571D01*
X35709142Y-121416000D02*
X35851999Y-121344571D01*
X36137714Y-121344571D01*
X36280571Y-121416000D01*
X36351999Y-121487428D01*
X36423428Y-121630285D01*
X36423428Y-122058857D01*
X36351999Y-122201714D01*
X36280571Y-122273142D01*
X36137714Y-122344571D01*
X35851999Y-122344571D01*
X35709142Y-122273142D01*
X37280571Y-122344571D02*
X37137714Y-122273142D01*
X37066285Y-122201714D01*
X36994857Y-122058857D01*
X36994857Y-121630285D01*
X37066285Y-121487428D01*
X37137714Y-121416000D01*
X37280571Y-121344571D01*
X37494857Y-121344571D01*
X37637714Y-121416000D01*
X37709142Y-121487428D01*
X37780571Y-121630285D01*
X37780571Y-122058857D01*
X37709142Y-122201714D01*
X37637714Y-122273142D01*
X37494857Y-122344571D01*
X37280571Y-122344571D01*
X39066285Y-122344571D02*
X39066285Y-121558857D01*
X38994857Y-121416000D01*
X38851999Y-121344571D01*
X38566285Y-121344571D01*
X38423428Y-121416000D01*
X39066285Y-122273142D02*
X38923428Y-122344571D01*
X38566285Y-122344571D01*
X38423428Y-122273142D01*
X38351999Y-122130285D01*
X38351999Y-121987428D01*
X38423428Y-121844571D01*
X38566285Y-121773142D01*
X38923428Y-121773142D01*
X39066285Y-121701714D01*
X39780571Y-122344571D02*
X39780571Y-121344571D01*
X39780571Y-121630285D02*
X39851999Y-121487428D01*
X39923428Y-121416000D01*
X40066285Y-121344571D01*
X40209142Y-121344571D01*
X41351999Y-122344571D02*
X41351999Y-120844571D01*
X41351999Y-122273142D02*
X41209142Y-122344571D01*
X40923428Y-122344571D01*
X40780571Y-122273142D01*
X40709142Y-122201714D01*
X40637714Y-122058857D01*
X40637714Y-121630285D01*
X40709142Y-121487428D01*
X40780571Y-121416000D01*
X40923428Y-121344571D01*
X41209142Y-121344571D01*
X41351999Y-121416000D01*
X43209142Y-122344571D02*
X43209142Y-120844571D01*
X43209142Y-121558857D02*
X44066285Y-121558857D01*
X44066285Y-122344571D02*
X44066285Y-120844571D01*
X45423428Y-122344571D02*
X45423428Y-121558857D01*
X45351999Y-121416000D01*
X45209142Y-121344571D01*
X44923428Y-121344571D01*
X44780571Y-121416000D01*
X45423428Y-122273142D02*
X45280571Y-122344571D01*
X44923428Y-122344571D01*
X44780571Y-122273142D01*
X44709142Y-122130285D01*
X44709142Y-121987428D01*
X44780571Y-121844571D01*
X44923428Y-121773142D01*
X45280571Y-121773142D01*
X45423428Y-121701714D01*
X46137714Y-122344571D02*
X46137714Y-121344571D01*
X46137714Y-121630285D02*
X46209142Y-121487428D01*
X46280571Y-121416000D01*
X46423428Y-121344571D01*
X46566285Y-121344571D01*
X47709142Y-122344571D02*
X47709142Y-120844571D01*
X47709142Y-122273142D02*
X47566285Y-122344571D01*
X47280571Y-122344571D01*
X47137714Y-122273142D01*
X47066285Y-122201714D01*
X46994857Y-122058857D01*
X46994857Y-121630285D01*
X47066285Y-121487428D01*
X47137714Y-121416000D01*
X47280571Y-121344571D01*
X47566285Y-121344571D01*
X47709142Y-121416000D01*
X48280571Y-121344571D02*
X48566285Y-122344571D01*
X48851999Y-121630285D01*
X49137714Y-122344571D01*
X49423428Y-121344571D01*
X50637714Y-122344571D02*
X50637714Y-121558857D01*
X50566285Y-121416000D01*
X50423428Y-121344571D01*
X50137714Y-121344571D01*
X49994857Y-121416000D01*
X50637714Y-122273142D02*
X50494857Y-122344571D01*
X50137714Y-122344571D01*
X49994857Y-122273142D01*
X49923428Y-122130285D01*
X49923428Y-121987428D01*
X49994857Y-121844571D01*
X50137714Y-121773142D01*
X50494857Y-121773142D01*
X50637714Y-121701714D01*
X51351999Y-122344571D02*
X51351999Y-121344571D01*
X51351999Y-121630285D02*
X51423428Y-121487428D01*
X51494857Y-121416000D01*
X51637714Y-121344571D01*
X51780571Y-121344571D01*
X52851999Y-122273142D02*
X52709142Y-122344571D01*
X52423428Y-122344571D01*
X52280571Y-122273142D01*
X52209142Y-122130285D01*
X52209142Y-121558857D01*
X52280571Y-121416000D01*
X52423428Y-121344571D01*
X52709142Y-121344571D01*
X52851999Y-121416000D01*
X52923428Y-121558857D01*
X52923428Y-121701714D01*
X52209142Y-121844571D01*
X55566285Y-122344571D02*
X55066285Y-121630285D01*
X54709142Y-122344571D02*
X54709142Y-120844571D01*
X55280571Y-120844571D01*
X55423428Y-120916000D01*
X55494857Y-120987428D01*
X55566285Y-121130285D01*
X55566285Y-121344571D01*
X55494857Y-121487428D01*
X55423428Y-121558857D01*
X55280571Y-121630285D01*
X54709142Y-121630285D01*
X56780571Y-122273142D02*
X56637714Y-122344571D01*
X56351999Y-122344571D01*
X56209142Y-122273142D01*
X56137714Y-122130285D01*
X56137714Y-121558857D01*
X56209142Y-121416000D01*
X56351999Y-121344571D01*
X56637714Y-121344571D01*
X56780571Y-121416000D01*
X56851999Y-121558857D01*
X56851999Y-121701714D01*
X56137714Y-121844571D01*
X57351999Y-121344571D02*
X57709142Y-122344571D01*
X58066285Y-121344571D01*
X59423428Y-122344571D02*
X58566285Y-122344571D01*
X58994857Y-122344571D02*
X58994857Y-120844571D01*
X58851999Y-121058857D01*
X58709142Y-121201714D01*
X58566285Y-121273142D01*
X61209142Y-122344571D02*
X61209142Y-120844571D01*
X61709142Y-121916000D01*
X62209142Y-120844571D01*
X62209142Y-122344571D01*
X63780571Y-122344571D02*
X63280571Y-121630285D01*
X62923428Y-122344571D02*
X62923428Y-120844571D01*
X63494857Y-120844571D01*
X63637714Y-120916000D01*
X63709142Y-120987428D01*
X63780571Y-121130285D01*
X63780571Y-121344571D01*
X63709142Y-121487428D01*
X63637714Y-121558857D01*
X63494857Y-121630285D01*
X62923428Y-121630285D01*
X64423428Y-122344571D02*
X64423428Y-120844571D01*
X64780571Y-120844571D01*
X64994857Y-120916000D01*
X65137714Y-121058857D01*
X65209142Y-121201714D01*
X65280571Y-121487428D01*
X65280571Y-121701714D01*
X65209142Y-121987428D01*
X65137714Y-122130285D01*
X64994857Y-122273142D01*
X64780571Y-122344571D01*
X64423428Y-122344571D01*
X65709142Y-120844571D02*
X66566285Y-120844571D01*
X66137714Y-122344571D02*
X66137714Y-120844571D01*
X68209142Y-122344571D02*
X68209142Y-120844571D01*
X69066285Y-122344571D01*
X69066285Y-120844571D01*
X69780571Y-122344571D02*
X69780571Y-121344571D01*
X69780571Y-120844571D02*
X69709142Y-120916000D01*
X69780571Y-120987428D01*
X69851999Y-120916000D01*
X69780571Y-120844571D01*
X69780571Y-120987428D01*
X71137714Y-122273142D02*
X70994857Y-122344571D01*
X70709142Y-122344571D01*
X70566285Y-122273142D01*
X70494857Y-122201714D01*
X70423428Y-122058857D01*
X70423428Y-121630285D01*
X70494857Y-121487428D01*
X70566285Y-121416000D01*
X70709142Y-121344571D01*
X70994857Y-121344571D01*
X71137714Y-121416000D01*
X71780571Y-122344571D02*
X71780571Y-120844571D01*
X71923428Y-121773142D02*
X72351999Y-122344571D01*
X72351999Y-121344571D02*
X71780571Y-121916000D01*
X73852000Y-122201714D02*
X73780571Y-122273142D01*
X73566285Y-122344571D01*
X73423428Y-122344571D01*
X73209142Y-122273142D01*
X73066285Y-122130285D01*
X72994857Y-121987428D01*
X72923428Y-121701714D01*
X72923428Y-121487428D01*
X72994857Y-121201714D01*
X73066285Y-121058857D01*
X73209142Y-120916000D01*
X73423428Y-120844571D01*
X73566285Y-120844571D01*
X73780571Y-120916000D01*
X73852000Y-120987428D01*
X74709142Y-122344571D02*
X74566285Y-122273142D01*
X74494857Y-122130285D01*
X74494857Y-120844571D01*
X75923428Y-122344571D02*
X75923428Y-121558857D01*
X75851999Y-121416000D01*
X75709142Y-121344571D01*
X75423428Y-121344571D01*
X75280571Y-121416000D01*
X75923428Y-122273142D02*
X75780571Y-122344571D01*
X75423428Y-122344571D01*
X75280571Y-122273142D01*
X75209142Y-122130285D01*
X75209142Y-121987428D01*
X75280571Y-121844571D01*
X75423428Y-121773142D01*
X75780571Y-121773142D01*
X75923428Y-121701714D01*
X76637714Y-122344571D02*
X76637714Y-121344571D01*
X76637714Y-121630285D02*
X76709142Y-121487428D01*
X76780571Y-121416000D01*
X76923428Y-121344571D01*
X77066285Y-121344571D01*
X77566285Y-122344571D02*
X77566285Y-120844571D01*
X77709142Y-121773142D02*
X78137714Y-122344571D01*
X78137714Y-121344571D02*
X77566285Y-121916000D01*
D11*
G04 #@! TO.C,U3*
X58420000Y-88900000D02*
X60960000Y-86360000D01*
X60960000Y-86360000D02*
X66040000Y-86360000D01*
X66040000Y-86360000D02*
X68580000Y-88900000D01*
X68580000Y-88900000D02*
X68580000Y-93980000D01*
X68580000Y-93980000D02*
X66040000Y-96520000D01*
X66040000Y-96520000D02*
X60960000Y-96520000D01*
X60960000Y-96520000D02*
X58420000Y-93980000D01*
X58420000Y-93980000D02*
X58420000Y-88900000D01*
X71120000Y-96520000D02*
X71120000Y-86360000D01*
X54610000Y-96520000D02*
X54610000Y-86360000D01*
X54610000Y-86360000D02*
X71120000Y-86360000D01*
X71120000Y-96520000D02*
X54610000Y-96520000D01*
D12*
G04 #@! TO.C,C1*
X36578000Y-82124733D02*
X36578000Y-82467267D01*
X35558000Y-82124733D02*
X35558000Y-82467267D01*
G04 #@! TO.C,C2*
X30990000Y-86023267D02*
X30990000Y-85680733D01*
X29970000Y-86023267D02*
X29970000Y-85680733D01*
G04 #@! TO.C,C3*
X30859000Y-89833267D02*
X30859000Y-89490733D01*
X31879000Y-89833267D02*
X31879000Y-89490733D01*
G04 #@! TO.C,C4*
X36451000Y-78187733D02*
X36451000Y-78530267D01*
X35431000Y-78187733D02*
X35431000Y-78530267D01*
G04 #@! TO.C,C5*
X33145000Y-85553733D02*
X33145000Y-85896267D01*
X34165000Y-85553733D02*
X34165000Y-85896267D01*
G04 #@! TO.C,C6*
X52773733Y-78615000D02*
X53116267Y-78615000D01*
X52773733Y-77595000D02*
X53116267Y-77595000D01*
D11*
G04 #@! TO.C,Conn1*
X29718000Y-75565000D02*
G75*
G03X28600400Y-74447400I-1117600J0D01*
G01*
X28600400Y-74447400D02*
G75*
G03X27482800Y-75565000I0J-1117600D01*
G01*
X18542000Y-59817000D02*
X18542000Y-75565000D01*
X43180000Y-59817000D02*
X43180000Y-75565000D01*
X27457400Y-59817000D02*
X26238200Y-59817000D01*
X28600400Y-60960000D02*
G75*
G03X29743400Y-59817000I0J1143000D01*
G01*
X27457400Y-59817000D02*
G75*
G03X28600400Y-60960000I1143000J0D01*
G01*
X30911800Y-75565000D02*
X29718000Y-75565000D01*
X28600400Y-73253600D02*
X28600400Y-74422000D01*
X26289000Y-75565000D02*
X27457400Y-75565000D01*
X30861000Y-59817000D02*
X29768800Y-59817000D01*
X28600400Y-60960000D02*
X28600400Y-62128400D01*
X28600400Y-69977000D02*
X28600400Y-68834000D01*
X18567400Y-67665600D02*
X27457400Y-67665600D01*
X28600400Y-65405000D02*
X28600400Y-66548000D01*
X30886400Y-67691000D02*
X29743400Y-67691000D01*
X28600400Y-69977000D02*
X28600400Y-73279000D01*
X30886400Y-67691000D02*
X43180000Y-67691000D01*
X28600400Y-65405000D02*
X28600400Y-62128400D01*
X29743400Y-67691000D02*
G75*
G03X29743400Y-67691000I-1143000J0D01*
G01*
X30886400Y-75565000D02*
X43180000Y-75565000D01*
X26314400Y-75565000D02*
X18567400Y-75565000D01*
X18567400Y-59817000D02*
X26314400Y-59817000D01*
X30886400Y-59817000D02*
X43180000Y-59817000D01*
G04 #@! TO.C,Conn2*
X88773000Y-67310000D02*
X88265000Y-67310000D01*
X88265000Y-74930000D02*
X88773000Y-74930000D01*
X88773000Y-62865000D02*
X88773000Y-79375000D01*
X76835000Y-62865000D02*
X88773000Y-62865000D01*
X76835000Y-79375000D02*
X88773000Y-79375000D01*
X76835000Y-77470000D02*
X76835000Y-79375000D01*
X76835000Y-64770000D02*
X76835000Y-62865000D01*
X84455000Y-67310000D02*
X83185000Y-67310000D01*
X83185000Y-67310000D02*
X83185000Y-74930000D01*
X83185000Y-74930000D02*
X84455000Y-74930000D01*
X84455000Y-74930000D02*
X88265000Y-74930000D01*
X84455000Y-67310000D02*
X88265000Y-67310000D01*
X83185000Y-69850000D02*
X80645000Y-69850000D01*
X80645000Y-69850000D02*
X80645000Y-72390000D01*
X80645000Y-72390000D02*
X83185000Y-72390000D01*
X76835000Y-64770000D02*
X76835000Y-77470000D01*
X76835000Y-77470000D02*
X74295000Y-77470000D01*
X74295000Y-77470000D02*
X74295000Y-64770000D01*
X74295000Y-64770000D02*
X76835000Y-64770000D01*
G04 #@! TO.C,Conn3*
X74295000Y-47625000D02*
X76835000Y-47625000D01*
X74295000Y-60325000D02*
X74295000Y-47625000D01*
X76835000Y-60325000D02*
X74295000Y-60325000D01*
X76835000Y-47625000D02*
X76835000Y-60325000D01*
X80645000Y-55245000D02*
X83185000Y-55245000D01*
X80645000Y-52705000D02*
X80645000Y-55245000D01*
X83185000Y-52705000D02*
X80645000Y-52705000D01*
X84455000Y-50165000D02*
X88265000Y-50165000D01*
X84455000Y-57785000D02*
X88265000Y-57785000D01*
X83185000Y-57785000D02*
X84455000Y-57785000D01*
X83185000Y-50165000D02*
X83185000Y-57785000D01*
X84455000Y-50165000D02*
X83185000Y-50165000D01*
X76835000Y-47625000D02*
X76835000Y-45720000D01*
X76835000Y-60325000D02*
X76835000Y-62230000D01*
X76835000Y-62230000D02*
X88773000Y-62230000D01*
X76835000Y-45720000D02*
X88773000Y-45720000D01*
X88773000Y-45720000D02*
X88773000Y-62230000D01*
X88265000Y-57785000D02*
X88773000Y-57785000D01*
X88773000Y-50165000D02*
X88265000Y-50165000D01*
G04 #@! TO.C,U1*
X53619001Y-97535001D02*
X28219001Y-97535001D01*
X28219001Y-59435001D02*
X53619001Y-59435001D01*
X53619001Y-102615001D02*
X53619001Y-97535001D01*
X28219001Y-97535001D02*
X28219001Y-102615001D01*
X28219001Y-102615001D02*
X53619001Y-102615001D01*
X53619001Y-59435001D02*
X53619001Y-54355001D01*
X53619001Y-54355001D02*
X28219001Y-54355001D01*
X28219001Y-54355001D02*
X28219001Y-59435001D01*
G04 #@! TO.C,U2*
X42865000Y-80140000D02*
X45765000Y-80140000D01*
X45765000Y-80140000D02*
X45765000Y-90040000D01*
X45765000Y-90040000D02*
X41865000Y-90040000D01*
X41865000Y-90040000D02*
X41865000Y-81140000D01*
X41865000Y-81140000D02*
X42865000Y-80140000D01*
D13*
G04 #@! TO.C,G\002A\002A\002A*
G36*
X86162401Y-104346566D02*
X86211300Y-104353618D01*
X86251114Y-104365193D01*
X86257187Y-104367822D01*
X86281558Y-104379116D01*
X86259147Y-104375325D01*
X86181145Y-104366577D01*
X86108085Y-104367160D01*
X86043284Y-104377037D01*
X86040608Y-104377701D01*
X85965095Y-104402534D01*
X85886405Y-104439745D01*
X85804270Y-104489553D01*
X85718422Y-104552177D01*
X85628592Y-104627834D01*
X85534511Y-104716743D01*
X85435912Y-104819124D01*
X85332526Y-104935193D01*
X85281008Y-104995968D01*
X85233280Y-105053612D01*
X85187682Y-105109823D01*
X85143501Y-105165634D01*
X85100022Y-105222079D01*
X85056530Y-105280191D01*
X85012311Y-105341001D01*
X84966650Y-105405543D01*
X84918832Y-105474851D01*
X84868144Y-105549956D01*
X84813870Y-105631893D01*
X84755296Y-105721693D01*
X84691708Y-105820389D01*
X84622391Y-105929016D01*
X84546629Y-106048605D01*
X84482962Y-106149588D01*
X84337775Y-106383712D01*
X84198132Y-106615812D01*
X84066277Y-106842142D01*
X84033092Y-106900382D01*
X84003103Y-106953001D01*
X83968358Y-107013520D01*
X83931720Y-107076985D01*
X83896048Y-107138440D01*
X83864748Y-107192001D01*
X83833574Y-107245441D01*
X83799377Y-107304623D01*
X83764797Y-107364942D01*
X83732473Y-107421794D01*
X83705045Y-107470574D01*
X83704168Y-107472148D01*
X83680513Y-107514515D01*
X83658072Y-107554574D01*
X83638339Y-107589668D01*
X83622806Y-107617143D01*
X83612966Y-107634345D01*
X83612657Y-107634878D01*
X83593864Y-107667138D01*
X83564862Y-107590054D01*
X83549650Y-107551931D01*
X83530739Y-107508147D01*
X83509075Y-107460564D01*
X83485609Y-107411042D01*
X83461289Y-107361443D01*
X83437064Y-107313628D01*
X83413882Y-107269459D01*
X83392693Y-107230797D01*
X83374444Y-107199503D01*
X83360086Y-107177439D01*
X83350566Y-107166465D01*
X83348498Y-107165588D01*
X83343478Y-107171834D01*
X83332703Y-107189153D01*
X83317415Y-107215420D01*
X83298857Y-107248506D01*
X83281920Y-107279514D01*
X83254572Y-107329961D01*
X83225246Y-107383710D01*
X83194836Y-107439157D01*
X83164235Y-107494696D01*
X83134335Y-107548722D01*
X83106031Y-107599629D01*
X83080214Y-107645812D01*
X83057779Y-107685666D01*
X83039618Y-107717585D01*
X83026625Y-107739964D01*
X83019692Y-107751197D01*
X83019054Y-107752029D01*
X83018536Y-107748750D01*
X83022507Y-107734021D01*
X83030212Y-107710383D01*
X83037918Y-107688529D01*
X83056633Y-107637106D01*
X83077437Y-107580379D01*
X83099734Y-107519932D01*
X83122930Y-107457348D01*
X83146431Y-107394212D01*
X83169641Y-107332106D01*
X83191967Y-107272616D01*
X83212814Y-107217324D01*
X83231586Y-107167814D01*
X83247690Y-107125671D01*
X83260531Y-107092477D01*
X83269513Y-107069817D01*
X83274044Y-107059275D01*
X83274364Y-107058759D01*
X83280665Y-107061680D01*
X83292484Y-107074757D01*
X83307556Y-107095391D01*
X83311756Y-107101714D01*
X83327339Y-107124745D01*
X83340039Y-107141888D01*
X83347585Y-107150119D01*
X83348362Y-107150433D01*
X83353092Y-107144073D01*
X83363726Y-107126377D01*
X83379200Y-107099224D01*
X83398451Y-107064494D01*
X83420416Y-107024070D01*
X83431529Y-107003348D01*
X83457700Y-106954619D01*
X83489035Y-106896720D01*
X83523418Y-106833528D01*
X83558736Y-106768923D01*
X83592876Y-106706783D01*
X83613599Y-106669253D01*
X83643680Y-106614813D01*
X83679015Y-106550712D01*
X83717706Y-106480403D01*
X83757853Y-106407341D01*
X83797556Y-106334982D01*
X83834916Y-106266780D01*
X83847941Y-106242970D01*
X83908475Y-106133141D01*
X83967934Y-106026971D01*
X84025673Y-105925544D01*
X84081048Y-105829937D01*
X84133416Y-105741234D01*
X84182132Y-105660512D01*
X84226552Y-105588854D01*
X84266032Y-105527340D01*
X84299928Y-105477051D01*
X84325531Y-105441752D01*
X84361393Y-105398509D01*
X84393378Y-105367418D01*
X84420954Y-105348775D01*
X84443593Y-105342875D01*
X84460763Y-105350015D01*
X84468742Y-105361792D01*
X84476137Y-105381748D01*
X84477410Y-105393480D01*
X84473201Y-105395047D01*
X84464152Y-105384506D01*
X84462242Y-105381476D01*
X84447827Y-105363966D01*
X84434433Y-105359072D01*
X84434256Y-105359104D01*
X84420216Y-105368065D01*
X84400771Y-105390443D01*
X84376158Y-105425817D01*
X84346612Y-105473769D01*
X84312370Y-105533880D01*
X84273669Y-105605729D01*
X84230743Y-105688898D01*
X84183830Y-105782968D01*
X84133167Y-105887520D01*
X84115086Y-105925470D01*
X84097279Y-105963413D01*
X84075545Y-106010413D01*
X84050431Y-106065239D01*
X84022484Y-106126662D01*
X83992249Y-106193453D01*
X83960275Y-106264383D01*
X83927108Y-106338221D01*
X83893295Y-106413739D01*
X83859383Y-106489707D01*
X83825918Y-106564895D01*
X83793448Y-106638074D01*
X83762519Y-106708014D01*
X83733679Y-106773487D01*
X83707473Y-106833261D01*
X83684450Y-106886109D01*
X83665155Y-106930800D01*
X83650136Y-106966106D01*
X83639939Y-106990795D01*
X83635112Y-107003640D01*
X83634829Y-107005221D01*
X83639402Y-106999876D01*
X83651115Y-106983767D01*
X83668807Y-106958559D01*
X83691320Y-106925914D01*
X83717497Y-106887494D01*
X83737823Y-106857395D01*
X83771708Y-106807354D01*
X83811824Y-106748636D01*
X83857148Y-106682705D01*
X83906656Y-106611024D01*
X83959323Y-106535057D01*
X84014127Y-106456265D01*
X84070042Y-106376111D01*
X84126045Y-106296060D01*
X84181112Y-106217573D01*
X84234219Y-106142114D01*
X84284341Y-106071145D01*
X84330456Y-106006130D01*
X84371539Y-105948531D01*
X84406566Y-105899812D01*
X84434513Y-105861435D01*
X84442397Y-105850764D01*
X84578769Y-105669429D01*
X84708821Y-105501203D01*
X84832835Y-105345792D01*
X84951093Y-105202903D01*
X85063877Y-105072241D01*
X85171469Y-104953513D01*
X85274151Y-104846424D01*
X85372204Y-104750680D01*
X85465912Y-104665987D01*
X85555555Y-104592052D01*
X85641416Y-104528580D01*
X85723777Y-104475277D01*
X85802920Y-104431849D01*
X85803441Y-104431590D01*
X85862435Y-104403435D01*
X85912646Y-104382299D01*
X85957750Y-104366959D01*
X86001427Y-104356190D01*
X86047354Y-104348769D01*
X86055245Y-104347801D01*
X86108891Y-104344478D01*
X86162401Y-104346566D01*
X86162401Y-104346566D01*
G37*
X86162401Y-104346566D02*
X86211300Y-104353618D01*
X86251114Y-104365193D01*
X86257187Y-104367822D01*
X86281558Y-104379116D01*
X86259147Y-104375325D01*
X86181145Y-104366577D01*
X86108085Y-104367160D01*
X86043284Y-104377037D01*
X86040608Y-104377701D01*
X85965095Y-104402534D01*
X85886405Y-104439745D01*
X85804270Y-104489553D01*
X85718422Y-104552177D01*
X85628592Y-104627834D01*
X85534511Y-104716743D01*
X85435912Y-104819124D01*
X85332526Y-104935193D01*
X85281008Y-104995968D01*
X85233280Y-105053612D01*
X85187682Y-105109823D01*
X85143501Y-105165634D01*
X85100022Y-105222079D01*
X85056530Y-105280191D01*
X85012311Y-105341001D01*
X84966650Y-105405543D01*
X84918832Y-105474851D01*
X84868144Y-105549956D01*
X84813870Y-105631893D01*
X84755296Y-105721693D01*
X84691708Y-105820389D01*
X84622391Y-105929016D01*
X84546629Y-106048605D01*
X84482962Y-106149588D01*
X84337775Y-106383712D01*
X84198132Y-106615812D01*
X84066277Y-106842142D01*
X84033092Y-106900382D01*
X84003103Y-106953001D01*
X83968358Y-107013520D01*
X83931720Y-107076985D01*
X83896048Y-107138440D01*
X83864748Y-107192001D01*
X83833574Y-107245441D01*
X83799377Y-107304623D01*
X83764797Y-107364942D01*
X83732473Y-107421794D01*
X83705045Y-107470574D01*
X83704168Y-107472148D01*
X83680513Y-107514515D01*
X83658072Y-107554574D01*
X83638339Y-107589668D01*
X83622806Y-107617143D01*
X83612966Y-107634345D01*
X83612657Y-107634878D01*
X83593864Y-107667138D01*
X83564862Y-107590054D01*
X83549650Y-107551931D01*
X83530739Y-107508147D01*
X83509075Y-107460564D01*
X83485609Y-107411042D01*
X83461289Y-107361443D01*
X83437064Y-107313628D01*
X83413882Y-107269459D01*
X83392693Y-107230797D01*
X83374444Y-107199503D01*
X83360086Y-107177439D01*
X83350566Y-107166465D01*
X83348498Y-107165588D01*
X83343478Y-107171834D01*
X83332703Y-107189153D01*
X83317415Y-107215420D01*
X83298857Y-107248506D01*
X83281920Y-107279514D01*
X83254572Y-107329961D01*
X83225246Y-107383710D01*
X83194836Y-107439157D01*
X83164235Y-107494696D01*
X83134335Y-107548722D01*
X83106031Y-107599629D01*
X83080214Y-107645812D01*
X83057779Y-107685666D01*
X83039618Y-107717585D01*
X83026625Y-107739964D01*
X83019692Y-107751197D01*
X83019054Y-107752029D01*
X83018536Y-107748750D01*
X83022507Y-107734021D01*
X83030212Y-107710383D01*
X83037918Y-107688529D01*
X83056633Y-107637106D01*
X83077437Y-107580379D01*
X83099734Y-107519932D01*
X83122930Y-107457348D01*
X83146431Y-107394212D01*
X83169641Y-107332106D01*
X83191967Y-107272616D01*
X83212814Y-107217324D01*
X83231586Y-107167814D01*
X83247690Y-107125671D01*
X83260531Y-107092477D01*
X83269513Y-107069817D01*
X83274044Y-107059275D01*
X83274364Y-107058759D01*
X83280665Y-107061680D01*
X83292484Y-107074757D01*
X83307556Y-107095391D01*
X83311756Y-107101714D01*
X83327339Y-107124745D01*
X83340039Y-107141888D01*
X83347585Y-107150119D01*
X83348362Y-107150433D01*
X83353092Y-107144073D01*
X83363726Y-107126377D01*
X83379200Y-107099224D01*
X83398451Y-107064494D01*
X83420416Y-107024070D01*
X83431529Y-107003348D01*
X83457700Y-106954619D01*
X83489035Y-106896720D01*
X83523418Y-106833528D01*
X83558736Y-106768923D01*
X83592876Y-106706783D01*
X83613599Y-106669253D01*
X83643680Y-106614813D01*
X83679015Y-106550712D01*
X83717706Y-106480403D01*
X83757853Y-106407341D01*
X83797556Y-106334982D01*
X83834916Y-106266780D01*
X83847941Y-106242970D01*
X83908475Y-106133141D01*
X83967934Y-106026971D01*
X84025673Y-105925544D01*
X84081048Y-105829937D01*
X84133416Y-105741234D01*
X84182132Y-105660512D01*
X84226552Y-105588854D01*
X84266032Y-105527340D01*
X84299928Y-105477051D01*
X84325531Y-105441752D01*
X84361393Y-105398509D01*
X84393378Y-105367418D01*
X84420954Y-105348775D01*
X84443593Y-105342875D01*
X84460763Y-105350015D01*
X84468742Y-105361792D01*
X84476137Y-105381748D01*
X84477410Y-105393480D01*
X84473201Y-105395047D01*
X84464152Y-105384506D01*
X84462242Y-105381476D01*
X84447827Y-105363966D01*
X84434433Y-105359072D01*
X84434256Y-105359104D01*
X84420216Y-105368065D01*
X84400771Y-105390443D01*
X84376158Y-105425817D01*
X84346612Y-105473769D01*
X84312370Y-105533880D01*
X84273669Y-105605729D01*
X84230743Y-105688898D01*
X84183830Y-105782968D01*
X84133167Y-105887520D01*
X84115086Y-105925470D01*
X84097279Y-105963413D01*
X84075545Y-106010413D01*
X84050431Y-106065239D01*
X84022484Y-106126662D01*
X83992249Y-106193453D01*
X83960275Y-106264383D01*
X83927108Y-106338221D01*
X83893295Y-106413739D01*
X83859383Y-106489707D01*
X83825918Y-106564895D01*
X83793448Y-106638074D01*
X83762519Y-106708014D01*
X83733679Y-106773487D01*
X83707473Y-106833261D01*
X83684450Y-106886109D01*
X83665155Y-106930800D01*
X83650136Y-106966106D01*
X83639939Y-106990795D01*
X83635112Y-107003640D01*
X83634829Y-107005221D01*
X83639402Y-106999876D01*
X83651115Y-106983767D01*
X83668807Y-106958559D01*
X83691320Y-106925914D01*
X83717497Y-106887494D01*
X83737823Y-106857395D01*
X83771708Y-106807354D01*
X83811824Y-106748636D01*
X83857148Y-106682705D01*
X83906656Y-106611024D01*
X83959323Y-106535057D01*
X84014127Y-106456265D01*
X84070042Y-106376111D01*
X84126045Y-106296060D01*
X84181112Y-106217573D01*
X84234219Y-106142114D01*
X84284341Y-106071145D01*
X84330456Y-106006130D01*
X84371539Y-105948531D01*
X84406566Y-105899812D01*
X84434513Y-105861435D01*
X84442397Y-105850764D01*
X84578769Y-105669429D01*
X84708821Y-105501203D01*
X84832835Y-105345792D01*
X84951093Y-105202903D01*
X85063877Y-105072241D01*
X85171469Y-104953513D01*
X85274151Y-104846424D01*
X85372204Y-104750680D01*
X85465912Y-104665987D01*
X85555555Y-104592052D01*
X85641416Y-104528580D01*
X85723777Y-104475277D01*
X85802920Y-104431849D01*
X85803441Y-104431590D01*
X85862435Y-104403435D01*
X85912646Y-104382299D01*
X85957750Y-104366959D01*
X86001427Y-104356190D01*
X86047354Y-104348769D01*
X86055245Y-104347801D01*
X86108891Y-104344478D01*
X86162401Y-104346566D01*
G36*
X83013176Y-107766970D02*
X83009441Y-107770706D01*
X83005706Y-107766970D01*
X83009441Y-107763235D01*
X83013176Y-107766970D01*
X83013176Y-107766970D01*
G37*
X83013176Y-107766970D02*
X83009441Y-107770706D01*
X83005706Y-107766970D01*
X83009441Y-107763235D01*
X83013176Y-107766970D01*
G36*
X83714063Y-106012092D02*
X83710151Y-106021096D01*
X83697428Y-106040250D01*
X83690129Y-106050585D01*
X83676475Y-106070741D01*
X83663096Y-106092864D01*
X83649154Y-106118724D01*
X83633809Y-106150090D01*
X83616222Y-106188731D01*
X83595552Y-106236416D01*
X83570961Y-106294915D01*
X83549068Y-106347852D01*
X83530449Y-106393560D01*
X83507485Y-106450689D01*
X83481172Y-106516704D01*
X83452506Y-106589073D01*
X83422482Y-106665260D01*
X83392095Y-106742733D01*
X83362342Y-106818958D01*
X83334218Y-106891401D01*
X83308719Y-106957528D01*
X83286839Y-107014805D01*
X83282486Y-107026296D01*
X83274422Y-107047623D01*
X83232519Y-106990244D01*
X83213992Y-106966255D01*
X83198348Y-106948545D01*
X83187751Y-106939433D01*
X83184736Y-106939036D01*
X83180556Y-106946663D01*
X83170451Y-106966618D01*
X83154977Y-106997768D01*
X83134689Y-107038976D01*
X83110142Y-107089110D01*
X83081892Y-107147033D01*
X83050492Y-107211612D01*
X83016499Y-107281711D01*
X82980468Y-107356197D01*
X82966089Y-107385970D01*
X82883305Y-107557363D01*
X82806487Y-107716191D01*
X82735181Y-107863382D01*
X82668932Y-107999862D01*
X82607289Y-108126560D01*
X82549796Y-108244402D01*
X82496002Y-108354316D01*
X82445451Y-108457229D01*
X82397690Y-108554068D01*
X82352267Y-108645761D01*
X82308727Y-108733236D01*
X82266617Y-108817418D01*
X82242647Y-108865147D01*
X82210160Y-108930124D01*
X82182419Y-108985983D01*
X82158437Y-109034004D01*
X82137228Y-109075471D01*
X82117805Y-109111667D01*
X82099181Y-109143873D01*
X82080371Y-109173373D01*
X82060387Y-109201449D01*
X82038242Y-109229384D01*
X82012950Y-109258460D01*
X81983525Y-109289960D01*
X81948979Y-109325166D01*
X81908327Y-109365362D01*
X81860582Y-109411829D01*
X81804756Y-109465850D01*
X81739863Y-109528708D01*
X81709558Y-109558159D01*
X81654897Y-109611645D01*
X81601419Y-109664532D01*
X81550520Y-109715402D01*
X81503596Y-109762837D01*
X81462042Y-109805419D01*
X81427253Y-109841728D01*
X81400625Y-109870346D01*
X81385125Y-109887953D01*
X81342971Y-109937518D01*
X81291854Y-109996126D01*
X81233270Y-110062148D01*
X81168713Y-110133958D01*
X81099678Y-110209925D01*
X81027662Y-110288423D01*
X80954157Y-110367822D01*
X80880661Y-110446495D01*
X80808666Y-110522813D01*
X80739670Y-110595149D01*
X80675166Y-110661873D01*
X80664611Y-110672687D01*
X80628913Y-110709312D01*
X80597039Y-110742212D01*
X80570367Y-110769949D01*
X80550273Y-110791087D01*
X80538137Y-110804185D01*
X80535089Y-110807919D01*
X80544272Y-110811190D01*
X80565076Y-110817175D01*
X80594590Y-110825132D01*
X80629899Y-110834318D01*
X80668089Y-110843989D01*
X80706249Y-110853404D01*
X80741463Y-110861820D01*
X80770819Y-110868493D01*
X80782160Y-110870898D01*
X80830139Y-110879945D01*
X80865007Y-110884709D01*
X80887942Y-110885279D01*
X80900122Y-110881742D01*
X80901925Y-110879780D01*
X80909063Y-110872738D01*
X80925213Y-110858743D01*
X80947665Y-110840105D01*
X80963999Y-110826879D01*
X81022264Y-110780139D01*
X80963308Y-110835745D01*
X80904351Y-110891351D01*
X80929690Y-110895886D01*
X80974603Y-110902382D01*
X81028433Y-110907644D01*
X81089143Y-110911687D01*
X81154691Y-110914526D01*
X81223039Y-110916176D01*
X81292146Y-110916651D01*
X81359974Y-110915967D01*
X81424481Y-110914139D01*
X81483630Y-110911181D01*
X81535379Y-110907109D01*
X81577690Y-110901937D01*
X81608522Y-110895680D01*
X81621882Y-110890819D01*
X81630424Y-110882005D01*
X81645543Y-110861521D01*
X81666434Y-110830686D01*
X81692290Y-110790822D01*
X81722306Y-110743246D01*
X81755677Y-110689280D01*
X81791597Y-110630243D01*
X81829259Y-110567455D01*
X81867859Y-110502235D01*
X81906591Y-110435904D01*
X81944649Y-110369781D01*
X81981228Y-110305186D01*
X82001073Y-110269617D01*
X82032565Y-110213798D01*
X82066387Y-110155521D01*
X82100568Y-110098069D01*
X82133136Y-110044725D01*
X82162119Y-109998771D01*
X82180547Y-109970794D01*
X82208117Y-109928696D01*
X82240136Y-109877549D01*
X82274082Y-109821521D01*
X82307435Y-109764778D01*
X82337675Y-109711488D01*
X82340701Y-109706021D01*
X82377827Y-109640430D01*
X82414336Y-109579808D01*
X82452853Y-109520080D01*
X82496005Y-109457172D01*
X82545312Y-109388521D01*
X82650900Y-109240995D01*
X82750677Y-109095240D01*
X82846963Y-108947662D01*
X82942078Y-108794665D01*
X83038341Y-108632656D01*
X83083072Y-108555117D01*
X83109914Y-108508994D01*
X83134339Y-108469181D01*
X83158550Y-108432558D01*
X83184748Y-108396007D01*
X83215134Y-108356407D01*
X83251911Y-108310639D01*
X83278136Y-108278706D01*
X83314330Y-108234801D01*
X83350332Y-108191009D01*
X83384101Y-108149819D01*
X83413594Y-108113725D01*
X83436771Y-108085219D01*
X83446418Y-108073264D01*
X83469636Y-108044663D01*
X83499033Y-108008898D01*
X83531115Y-107970199D01*
X83562392Y-107932790D01*
X83567563Y-107926643D01*
X83593029Y-107895808D01*
X83614637Y-107868509D01*
X83630700Y-107846970D01*
X83639530Y-107833414D01*
X83640706Y-107830330D01*
X83638712Y-107819112D01*
X83633584Y-107798724D01*
X83626596Y-107773558D01*
X83619025Y-107748004D01*
X83612147Y-107726453D01*
X83607237Y-107713298D01*
X83606147Y-107711407D01*
X83599624Y-107714432D01*
X83585607Y-107725533D01*
X83568223Y-107741289D01*
X83550982Y-107756825D01*
X83542912Y-107761973D01*
X83544476Y-107756444D01*
X83544888Y-107755764D01*
X83555333Y-107737603D01*
X83568182Y-107713751D01*
X83573251Y-107703948D01*
X83583446Y-107684785D01*
X83589699Y-107677344D01*
X83594622Y-107679920D01*
X83598910Y-107687208D01*
X83602931Y-107693321D01*
X83608009Y-107695415D01*
X83616065Y-107692291D01*
X83629018Y-107682748D01*
X83648790Y-107665585D01*
X83677300Y-107639601D01*
X83682094Y-107635195D01*
X83766648Y-107558106D01*
X83841976Y-107490874D01*
X83909189Y-107432571D01*
X83969401Y-107382269D01*
X84023725Y-107339039D01*
X84073273Y-107301954D01*
X84119158Y-107270085D01*
X84122558Y-107267829D01*
X84183376Y-107230171D01*
X84235417Y-107203364D01*
X84278424Y-107187501D01*
X84312137Y-107182672D01*
X84336297Y-107188970D01*
X84339206Y-107190975D01*
X84347181Y-107197961D01*
X84345696Y-107201372D01*
X84332588Y-107202539D01*
X84320124Y-107202703D01*
X84286819Y-107207643D01*
X84253773Y-107223450D01*
X84252302Y-107224376D01*
X84226136Y-107242864D01*
X84192246Y-107269597D01*
X84153386Y-107302168D01*
X84112310Y-107338170D01*
X84071770Y-107375196D01*
X84034521Y-107410839D01*
X84006764Y-107439027D01*
X83983713Y-107463599D01*
X83954511Y-107495102D01*
X83920692Y-107531847D01*
X83883788Y-107572146D01*
X83845334Y-107614309D01*
X83806860Y-107656648D01*
X83769901Y-107697474D01*
X83735990Y-107735098D01*
X83706658Y-107767832D01*
X83683439Y-107793986D01*
X83667866Y-107811872D01*
X83662758Y-107818024D01*
X83646292Y-107838957D01*
X83666498Y-107929964D01*
X83683096Y-108009010D01*
X83696002Y-108081352D01*
X83705704Y-108151214D01*
X83712691Y-108222818D01*
X83717451Y-108300389D01*
X83720472Y-108388149D01*
X83720727Y-108398961D01*
X83721663Y-108520410D01*
X83718408Y-108631275D01*
X83710573Y-108735417D01*
X83697772Y-108836700D01*
X83679618Y-108938988D01*
X83655969Y-109045127D01*
X83604257Y-109227228D01*
X83538882Y-109403930D01*
X83460370Y-109574514D01*
X83369249Y-109738262D01*
X83266043Y-109894457D01*
X83151280Y-110042380D01*
X83025485Y-110181315D01*
X82889184Y-110310544D01*
X82742904Y-110429348D01*
X82587170Y-110537010D01*
X82541743Y-110565181D01*
X82386707Y-110651247D01*
X82224529Y-110726535D01*
X82057694Y-110790107D01*
X81888687Y-110841028D01*
X81719992Y-110878361D01*
X81702088Y-110881508D01*
X81662817Y-110889502D01*
X81637478Y-110897746D01*
X81625256Y-110906291D01*
X81618479Y-110915955D01*
X81604518Y-110936084D01*
X81584650Y-110964829D01*
X81560153Y-111000341D01*
X81532302Y-111040771D01*
X81510328Y-111072706D01*
X81428344Y-111189097D01*
X81351221Y-111292614D01*
X81278117Y-111384191D01*
X81208191Y-111464763D01*
X81140601Y-111535267D01*
X81074507Y-111596637D01*
X81009067Y-111649809D01*
X80959680Y-111685025D01*
X80916153Y-111711601D01*
X80866045Y-111737941D01*
X80814108Y-111761844D01*
X80765095Y-111781110D01*
X80726795Y-111792818D01*
X80665530Y-111803696D01*
X80599236Y-111808533D01*
X80534425Y-111807106D01*
X80486674Y-111801053D01*
X80398144Y-111776685D01*
X80313297Y-111737865D01*
X80232247Y-111684648D01*
X80204191Y-111662120D01*
X80182535Y-111645256D01*
X80164907Y-111636502D01*
X80144866Y-111633309D01*
X80130621Y-111633000D01*
X80030507Y-111627132D01*
X79928922Y-111610187D01*
X79904763Y-111603630D01*
X80456859Y-111603630D01*
X80467201Y-111610117D01*
X80476911Y-111613150D01*
X80491081Y-111614780D01*
X80515589Y-111615579D01*
X80545850Y-111615428D01*
X80555353Y-111615180D01*
X80598931Y-111612033D01*
X80634890Y-111604795D01*
X80665759Y-111593998D01*
X80716257Y-111570941D01*
X80761449Y-111544537D01*
X80805364Y-111512018D01*
X80852032Y-111470617D01*
X80868576Y-111454677D01*
X80892991Y-111430355D01*
X80911139Y-111411429D01*
X80921673Y-111399375D01*
X80923251Y-111395670D01*
X80921411Y-111396637D01*
X80844196Y-111444594D01*
X80777478Y-111482837D01*
X80720688Y-111511692D01*
X80717970Y-111512954D01*
X80677879Y-111530138D01*
X80631963Y-111547698D01*
X80584376Y-111564239D01*
X80539271Y-111578362D01*
X80500801Y-111588673D01*
X80480554Y-111592793D01*
X80461337Y-111597702D01*
X80456859Y-111603630D01*
X79904763Y-111603630D01*
X79829309Y-111583152D01*
X79735110Y-111547012D01*
X79649766Y-111502755D01*
X79627524Y-111488780D01*
X79601799Y-111473812D01*
X79576513Y-111462178D01*
X79561764Y-111457522D01*
X79542312Y-111451744D01*
X79514973Y-111441305D01*
X79485183Y-111428306D01*
X79480838Y-111426265D01*
X79421076Y-111389747D01*
X79420980Y-111389656D01*
X80148486Y-111389656D01*
X80150964Y-111395579D01*
X80157947Y-111403587D01*
X80159595Y-111405342D01*
X80168941Y-111414558D01*
X80178229Y-111420256D01*
X80190348Y-111422522D01*
X80208187Y-111421445D01*
X80234635Y-111417111D01*
X80272581Y-111409608D01*
X80276251Y-111408863D01*
X80306779Y-111402056D01*
X80341754Y-111393299D01*
X80378472Y-111383392D01*
X80414228Y-111373135D01*
X80446318Y-111363328D01*
X80472040Y-111354770D01*
X80488688Y-111348260D01*
X80493560Y-111344600D01*
X80493555Y-111344594D01*
X80485474Y-111344563D01*
X80466269Y-111346831D01*
X80439501Y-111350946D01*
X80428099Y-111352897D01*
X80395508Y-111357856D01*
X80353493Y-111363143D01*
X80307539Y-111368119D01*
X80264258Y-111372051D01*
X80218245Y-111375806D01*
X80185392Y-111378894D01*
X80163969Y-111381864D01*
X80152244Y-111385268D01*
X80148486Y-111389656D01*
X79420980Y-111389656D01*
X79369258Y-111341122D01*
X79325884Y-111281235D01*
X79291454Y-111210936D01*
X79266468Y-111131069D01*
X79251426Y-111042484D01*
X79250818Y-111036584D01*
X79245561Y-111004459D01*
X79236330Y-110966367D01*
X79225029Y-110930073D01*
X79223927Y-110927029D01*
X79194685Y-110837027D01*
X79190923Y-110822441D01*
X79336501Y-110822441D01*
X79339759Y-110875876D01*
X79343061Y-110908415D01*
X79349785Y-110935094D01*
X79362081Y-110963007D01*
X79371446Y-110980464D01*
X79435015Y-111083287D01*
X79504035Y-111172608D01*
X79578979Y-111249014D01*
X79610323Y-111275769D01*
X79655147Y-111312081D01*
X79703706Y-111307450D01*
X79729000Y-111304655D01*
X79747662Y-111301874D01*
X79755377Y-111299822D01*
X79756978Y-111297810D01*
X79755552Y-111295158D01*
X79748751Y-111290202D01*
X79734227Y-111281278D01*
X79709630Y-111266725D01*
X79703706Y-111263234D01*
X79622057Y-111208218D01*
X79548743Y-111143886D01*
X79482570Y-111068907D01*
X79422345Y-110981950D01*
X79373634Y-110895079D01*
X79336501Y-110822441D01*
X79190923Y-110822441D01*
X79168110Y-110733998D01*
X79144559Y-110619678D01*
X79124393Y-110495800D01*
X79108657Y-110370470D01*
X79105224Y-110331355D01*
X79102344Y-110283763D01*
X79100033Y-110229962D01*
X79098306Y-110172217D01*
X79097178Y-110112795D01*
X79096667Y-110053962D01*
X79096787Y-109997985D01*
X79097555Y-109947130D01*
X79098987Y-109903663D01*
X79101098Y-109869852D01*
X79103905Y-109847962D01*
X79104969Y-109843794D01*
X79109086Y-109832493D01*
X79111374Y-109831920D01*
X79112475Y-109843586D01*
X79112929Y-109862470D01*
X79115355Y-109921824D01*
X79120582Y-109992308D01*
X79128170Y-110070466D01*
X79137677Y-110152846D01*
X79148660Y-110235991D01*
X79160678Y-110316446D01*
X79173289Y-110390758D01*
X79186052Y-110455471D01*
X79192232Y-110482647D01*
X79203646Y-110528145D01*
X79215744Y-110573018D01*
X79227835Y-110615045D01*
X79239228Y-110652006D01*
X79249231Y-110681679D01*
X79257154Y-110701844D01*
X79262306Y-110710279D01*
X79263066Y-110710304D01*
X79269928Y-110698211D01*
X79273358Y-110674455D01*
X79273362Y-110641914D01*
X79269944Y-110603465D01*
X79263111Y-110561985D01*
X79262779Y-110560363D01*
X79251958Y-110504683D01*
X79243164Y-110451389D01*
X79236191Y-110397946D01*
X79230829Y-110341816D01*
X79226872Y-110280464D01*
X79224110Y-110211352D01*
X79222337Y-110131946D01*
X79221468Y-110056706D01*
X79220304Y-109911217D01*
X79263306Y-109911217D01*
X79264024Y-109940245D01*
X79265506Y-109976390D01*
X79267622Y-110017056D01*
X79270243Y-110059652D01*
X79273239Y-110101583D01*
X79276479Y-110140256D01*
X79278536Y-110161294D01*
X79282686Y-110196359D01*
X79288200Y-110236568D01*
X79294588Y-110278987D01*
X79301358Y-110320684D01*
X79308021Y-110358724D01*
X79314086Y-110390175D01*
X79319062Y-110412104D01*
X79321938Y-110420836D01*
X79325972Y-110417802D01*
X79333370Y-110402838D01*
X79343123Y-110378302D01*
X79354219Y-110346551D01*
X79355584Y-110342395D01*
X79372391Y-110292275D01*
X79387421Y-110250187D01*
X79400105Y-110217562D01*
X79409875Y-110195832D01*
X79416162Y-110186428D01*
X79417551Y-110186414D01*
X79417300Y-110194503D01*
X79414324Y-110214289D01*
X79409117Y-110242881D01*
X79402171Y-110277386D01*
X79401471Y-110280714D01*
X79391933Y-110327814D01*
X79381773Y-110381110D01*
X79372471Y-110432716D01*
X79367685Y-110460997D01*
X79353142Y-110550142D01*
X79375843Y-110615321D01*
X79394838Y-110665302D01*
X79418328Y-110720110D01*
X79444332Y-110775628D01*
X79470874Y-110827741D01*
X79495975Y-110872331D01*
X79509987Y-110894455D01*
X79545612Y-110941636D01*
X79588843Y-110990240D01*
X79635152Y-111035564D01*
X79680008Y-111072904D01*
X79686222Y-111077448D01*
X79708833Y-111092316D01*
X79736676Y-111108697D01*
X79766769Y-111125082D01*
X79796127Y-111139962D01*
X79821768Y-111151830D01*
X79840708Y-111159175D01*
X79849963Y-111160490D01*
X79850145Y-111160344D01*
X79848770Y-111152578D01*
X79842310Y-111134846D01*
X79832080Y-111110685D01*
X79829807Y-111105635D01*
X79807751Y-111054878D01*
X79782940Y-110994121D01*
X79756998Y-110927652D01*
X79731549Y-110859755D01*
X79708218Y-110794716D01*
X79688629Y-110736822D01*
X79681429Y-110714117D01*
X79668979Y-110672503D01*
X79655547Y-110625470D01*
X79641736Y-110575366D01*
X79628151Y-110524540D01*
X79615398Y-110475339D01*
X79604079Y-110430112D01*
X79594800Y-110391207D01*
X79588165Y-110360972D01*
X79584779Y-110341754D01*
X79584471Y-110337496D01*
X79587195Y-110340358D01*
X79594793Y-110355628D01*
X79606623Y-110381828D01*
X79622042Y-110417481D01*
X79640409Y-110461108D01*
X79661081Y-110511232D01*
X79676729Y-110549764D01*
X79709536Y-110630392D01*
X79738381Y-110699615D01*
X79764481Y-110760043D01*
X79789057Y-110814286D01*
X79813326Y-110864955D01*
X79838506Y-110914658D01*
X79865816Y-110966005D01*
X79896475Y-111021607D01*
X79899787Y-111027530D01*
X79929584Y-111080359D01*
X79953351Y-111121408D01*
X79972076Y-111152091D01*
X79986747Y-111173817D01*
X79998351Y-111187998D01*
X80007878Y-111196046D01*
X80016314Y-111199372D01*
X80020295Y-111199706D01*
X80033835Y-111195726D01*
X80056145Y-111184986D01*
X80083747Y-111169281D01*
X80104494Y-111156205D01*
X80134946Y-111135253D01*
X80172660Y-111107865D01*
X80213421Y-111077176D01*
X80253018Y-111046321D01*
X80264062Y-111037483D01*
X80271223Y-111031617D01*
X80704764Y-111031617D01*
X80708500Y-111035353D01*
X80712235Y-111031617D01*
X80708500Y-111027882D01*
X80704764Y-111031617D01*
X80271223Y-111031617D01*
X80278933Y-111025301D01*
X80719706Y-111025301D01*
X80725416Y-111023886D01*
X80742486Y-111012941D01*
X80770822Y-110992531D01*
X80810332Y-110962722D01*
X80830368Y-110947312D01*
X80855527Y-110927328D01*
X80875100Y-110910723D01*
X80886791Y-110899517D01*
X80888975Y-110895838D01*
X80882395Y-110899003D01*
X80866749Y-110909562D01*
X80844613Y-110925543D01*
X80818565Y-110944975D01*
X80791180Y-110965888D01*
X80765037Y-110986311D01*
X80742711Y-111004273D01*
X80726779Y-111017803D01*
X80719818Y-111024931D01*
X80719706Y-111025301D01*
X80278933Y-111025301D01*
X80296217Y-111011144D01*
X80331520Y-110981515D01*
X80368263Y-110950111D01*
X80404733Y-110918447D01*
X80439220Y-110888038D01*
X80470014Y-110860399D01*
X80495404Y-110837044D01*
X80513680Y-110819488D01*
X80523131Y-110809246D01*
X80523985Y-110807309D01*
X80516512Y-110804035D01*
X80497784Y-110796716D01*
X80470585Y-110786420D01*
X80437700Y-110774214D01*
X80436020Y-110773596D01*
X80262021Y-110701993D01*
X80094056Y-110617587D01*
X79933133Y-110521125D01*
X79780261Y-110413353D01*
X79636450Y-110295017D01*
X79502707Y-110166861D01*
X79380042Y-110029631D01*
X79311830Y-109942779D01*
X79292966Y-109918021D01*
X79277407Y-109898547D01*
X79267276Y-109886962D01*
X79264684Y-109884882D01*
X79263483Y-109891898D01*
X79263306Y-109911217D01*
X79220304Y-109911217D01*
X79219525Y-109813911D01*
X79169575Y-109731735D01*
X79078403Y-109567482D01*
X79000562Y-109396618D01*
X78936024Y-109219060D01*
X78884761Y-109034726D01*
X78846745Y-108843533D01*
X78828722Y-108712000D01*
X78825239Y-108670396D01*
X78822657Y-108617292D01*
X78820974Y-108556102D01*
X78820192Y-108490240D01*
X78820311Y-108423120D01*
X78821330Y-108358155D01*
X78823249Y-108298761D01*
X78826068Y-108248350D01*
X78828722Y-108218941D01*
X78858037Y-108022749D01*
X78900795Y-107833073D01*
X78957010Y-107649878D01*
X79026696Y-107473130D01*
X79109867Y-107302796D01*
X79206537Y-107138841D01*
X79316720Y-106981232D01*
X79359305Y-106926529D01*
X79397338Y-106881220D01*
X79443665Y-106829540D01*
X79495145Y-106774736D01*
X79548636Y-106720050D01*
X79600998Y-106668729D01*
X79649087Y-106624017D01*
X79670088Y-106605548D01*
X79820337Y-106486282D01*
X79978313Y-106379691D01*
X80143451Y-106286020D01*
X80315183Y-106205518D01*
X80492942Y-106138431D01*
X80676162Y-106085007D01*
X80864277Y-106045491D01*
X80999853Y-106026089D01*
X81055448Y-106021058D01*
X81121718Y-106017343D01*
X81194783Y-106014972D01*
X81270767Y-106013976D01*
X81345791Y-106014385D01*
X81415978Y-106016228D01*
X81477449Y-106019537D01*
X81507853Y-106022166D01*
X81701319Y-106049256D01*
X81888772Y-106090005D01*
X82070370Y-106144479D01*
X82246273Y-106212743D01*
X82416640Y-106294865D01*
X82581630Y-106390909D01*
X82741403Y-106500941D01*
X82826411Y-106566879D01*
X82859020Y-106594495D01*
X82897915Y-106629493D01*
X82940829Y-106669635D01*
X82985495Y-106712686D01*
X83029646Y-106756410D01*
X83071015Y-106798569D01*
X83107335Y-106836927D01*
X83136340Y-106869249D01*
X83151382Y-106887476D01*
X83167187Y-106907165D01*
X83179341Y-106921107D01*
X83185000Y-106926147D01*
X83189132Y-106919778D01*
X83199129Y-106901608D01*
X83214176Y-106873199D01*
X83233460Y-106836113D01*
X83256164Y-106791913D01*
X83281475Y-106742162D01*
X83298766Y-106707931D01*
X83352377Y-106602600D01*
X83403936Y-106503457D01*
X83452996Y-106411277D01*
X83499112Y-106326832D01*
X83541835Y-106250896D01*
X83580719Y-106184241D01*
X83615318Y-106127640D01*
X83645185Y-106081868D01*
X83669873Y-106047696D01*
X83688935Y-106025897D01*
X83696438Y-106019734D01*
X83709410Y-106012038D01*
X83714063Y-106012092D01*
X83714063Y-106012092D01*
G37*
X83714063Y-106012092D02*
X83710151Y-106021096D01*
X83697428Y-106040250D01*
X83690129Y-106050585D01*
X83676475Y-106070741D01*
X83663096Y-106092864D01*
X83649154Y-106118724D01*
X83633809Y-106150090D01*
X83616222Y-106188731D01*
X83595552Y-106236416D01*
X83570961Y-106294915D01*
X83549068Y-106347852D01*
X83530449Y-106393560D01*
X83507485Y-106450689D01*
X83481172Y-106516704D01*
X83452506Y-106589073D01*
X83422482Y-106665260D01*
X83392095Y-106742733D01*
X83362342Y-106818958D01*
X83334218Y-106891401D01*
X83308719Y-106957528D01*
X83286839Y-107014805D01*
X83282486Y-107026296D01*
X83274422Y-107047623D01*
X83232519Y-106990244D01*
X83213992Y-106966255D01*
X83198348Y-106948545D01*
X83187751Y-106939433D01*
X83184736Y-106939036D01*
X83180556Y-106946663D01*
X83170451Y-106966618D01*
X83154977Y-106997768D01*
X83134689Y-107038976D01*
X83110142Y-107089110D01*
X83081892Y-107147033D01*
X83050492Y-107211612D01*
X83016499Y-107281711D01*
X82980468Y-107356197D01*
X82966089Y-107385970D01*
X82883305Y-107557363D01*
X82806487Y-107716191D01*
X82735181Y-107863382D01*
X82668932Y-107999862D01*
X82607289Y-108126560D01*
X82549796Y-108244402D01*
X82496002Y-108354316D01*
X82445451Y-108457229D01*
X82397690Y-108554068D01*
X82352267Y-108645761D01*
X82308727Y-108733236D01*
X82266617Y-108817418D01*
X82242647Y-108865147D01*
X82210160Y-108930124D01*
X82182419Y-108985983D01*
X82158437Y-109034004D01*
X82137228Y-109075471D01*
X82117805Y-109111667D01*
X82099181Y-109143873D01*
X82080371Y-109173373D01*
X82060387Y-109201449D01*
X82038242Y-109229384D01*
X82012950Y-109258460D01*
X81983525Y-109289960D01*
X81948979Y-109325166D01*
X81908327Y-109365362D01*
X81860582Y-109411829D01*
X81804756Y-109465850D01*
X81739863Y-109528708D01*
X81709558Y-109558159D01*
X81654897Y-109611645D01*
X81601419Y-109664532D01*
X81550520Y-109715402D01*
X81503596Y-109762837D01*
X81462042Y-109805419D01*
X81427253Y-109841728D01*
X81400625Y-109870346D01*
X81385125Y-109887953D01*
X81342971Y-109937518D01*
X81291854Y-109996126D01*
X81233270Y-110062148D01*
X81168713Y-110133958D01*
X81099678Y-110209925D01*
X81027662Y-110288423D01*
X80954157Y-110367822D01*
X80880661Y-110446495D01*
X80808666Y-110522813D01*
X80739670Y-110595149D01*
X80675166Y-110661873D01*
X80664611Y-110672687D01*
X80628913Y-110709312D01*
X80597039Y-110742212D01*
X80570367Y-110769949D01*
X80550273Y-110791087D01*
X80538137Y-110804185D01*
X80535089Y-110807919D01*
X80544272Y-110811190D01*
X80565076Y-110817175D01*
X80594590Y-110825132D01*
X80629899Y-110834318D01*
X80668089Y-110843989D01*
X80706249Y-110853404D01*
X80741463Y-110861820D01*
X80770819Y-110868493D01*
X80782160Y-110870898D01*
X80830139Y-110879945D01*
X80865007Y-110884709D01*
X80887942Y-110885279D01*
X80900122Y-110881742D01*
X80901925Y-110879780D01*
X80909063Y-110872738D01*
X80925213Y-110858743D01*
X80947665Y-110840105D01*
X80963999Y-110826879D01*
X81022264Y-110780139D01*
X80963308Y-110835745D01*
X80904351Y-110891351D01*
X80929690Y-110895886D01*
X80974603Y-110902382D01*
X81028433Y-110907644D01*
X81089143Y-110911687D01*
X81154691Y-110914526D01*
X81223039Y-110916176D01*
X81292146Y-110916651D01*
X81359974Y-110915967D01*
X81424481Y-110914139D01*
X81483630Y-110911181D01*
X81535379Y-110907109D01*
X81577690Y-110901937D01*
X81608522Y-110895680D01*
X81621882Y-110890819D01*
X81630424Y-110882005D01*
X81645543Y-110861521D01*
X81666434Y-110830686D01*
X81692290Y-110790822D01*
X81722306Y-110743246D01*
X81755677Y-110689280D01*
X81791597Y-110630243D01*
X81829259Y-110567455D01*
X81867859Y-110502235D01*
X81906591Y-110435904D01*
X81944649Y-110369781D01*
X81981228Y-110305186D01*
X82001073Y-110269617D01*
X82032565Y-110213798D01*
X82066387Y-110155521D01*
X82100568Y-110098069D01*
X82133136Y-110044725D01*
X82162119Y-109998771D01*
X82180547Y-109970794D01*
X82208117Y-109928696D01*
X82240136Y-109877549D01*
X82274082Y-109821521D01*
X82307435Y-109764778D01*
X82337675Y-109711488D01*
X82340701Y-109706021D01*
X82377827Y-109640430D01*
X82414336Y-109579808D01*
X82452853Y-109520080D01*
X82496005Y-109457172D01*
X82545312Y-109388521D01*
X82650900Y-109240995D01*
X82750677Y-109095240D01*
X82846963Y-108947662D01*
X82942078Y-108794665D01*
X83038341Y-108632656D01*
X83083072Y-108555117D01*
X83109914Y-108508994D01*
X83134339Y-108469181D01*
X83158550Y-108432558D01*
X83184748Y-108396007D01*
X83215134Y-108356407D01*
X83251911Y-108310639D01*
X83278136Y-108278706D01*
X83314330Y-108234801D01*
X83350332Y-108191009D01*
X83384101Y-108149819D01*
X83413594Y-108113725D01*
X83436771Y-108085219D01*
X83446418Y-108073264D01*
X83469636Y-108044663D01*
X83499033Y-108008898D01*
X83531115Y-107970199D01*
X83562392Y-107932790D01*
X83567563Y-107926643D01*
X83593029Y-107895808D01*
X83614637Y-107868509D01*
X83630700Y-107846970D01*
X83639530Y-107833414D01*
X83640706Y-107830330D01*
X83638712Y-107819112D01*
X83633584Y-107798724D01*
X83626596Y-107773558D01*
X83619025Y-107748004D01*
X83612147Y-107726453D01*
X83607237Y-107713298D01*
X83606147Y-107711407D01*
X83599624Y-107714432D01*
X83585607Y-107725533D01*
X83568223Y-107741289D01*
X83550982Y-107756825D01*
X83542912Y-107761973D01*
X83544476Y-107756444D01*
X83544888Y-107755764D01*
X83555333Y-107737603D01*
X83568182Y-107713751D01*
X83573251Y-107703948D01*
X83583446Y-107684785D01*
X83589699Y-107677344D01*
X83594622Y-107679920D01*
X83598910Y-107687208D01*
X83602931Y-107693321D01*
X83608009Y-107695415D01*
X83616065Y-107692291D01*
X83629018Y-107682748D01*
X83648790Y-107665585D01*
X83677300Y-107639601D01*
X83682094Y-107635195D01*
X83766648Y-107558106D01*
X83841976Y-107490874D01*
X83909189Y-107432571D01*
X83969401Y-107382269D01*
X84023725Y-107339039D01*
X84073273Y-107301954D01*
X84119158Y-107270085D01*
X84122558Y-107267829D01*
X84183376Y-107230171D01*
X84235417Y-107203364D01*
X84278424Y-107187501D01*
X84312137Y-107182672D01*
X84336297Y-107188970D01*
X84339206Y-107190975D01*
X84347181Y-107197961D01*
X84345696Y-107201372D01*
X84332588Y-107202539D01*
X84320124Y-107202703D01*
X84286819Y-107207643D01*
X84253773Y-107223450D01*
X84252302Y-107224376D01*
X84226136Y-107242864D01*
X84192246Y-107269597D01*
X84153386Y-107302168D01*
X84112310Y-107338170D01*
X84071770Y-107375196D01*
X84034521Y-107410839D01*
X84006764Y-107439027D01*
X83983713Y-107463599D01*
X83954511Y-107495102D01*
X83920692Y-107531847D01*
X83883788Y-107572146D01*
X83845334Y-107614309D01*
X83806860Y-107656648D01*
X83769901Y-107697474D01*
X83735990Y-107735098D01*
X83706658Y-107767832D01*
X83683439Y-107793986D01*
X83667866Y-107811872D01*
X83662758Y-107818024D01*
X83646292Y-107838957D01*
X83666498Y-107929964D01*
X83683096Y-108009010D01*
X83696002Y-108081352D01*
X83705704Y-108151214D01*
X83712691Y-108222818D01*
X83717451Y-108300389D01*
X83720472Y-108388149D01*
X83720727Y-108398961D01*
X83721663Y-108520410D01*
X83718408Y-108631275D01*
X83710573Y-108735417D01*
X83697772Y-108836700D01*
X83679618Y-108938988D01*
X83655969Y-109045127D01*
X83604257Y-109227228D01*
X83538882Y-109403930D01*
X83460370Y-109574514D01*
X83369249Y-109738262D01*
X83266043Y-109894457D01*
X83151280Y-110042380D01*
X83025485Y-110181315D01*
X82889184Y-110310544D01*
X82742904Y-110429348D01*
X82587170Y-110537010D01*
X82541743Y-110565181D01*
X82386707Y-110651247D01*
X82224529Y-110726535D01*
X82057694Y-110790107D01*
X81888687Y-110841028D01*
X81719992Y-110878361D01*
X81702088Y-110881508D01*
X81662817Y-110889502D01*
X81637478Y-110897746D01*
X81625256Y-110906291D01*
X81618479Y-110915955D01*
X81604518Y-110936084D01*
X81584650Y-110964829D01*
X81560153Y-111000341D01*
X81532302Y-111040771D01*
X81510328Y-111072706D01*
X81428344Y-111189097D01*
X81351221Y-111292614D01*
X81278117Y-111384191D01*
X81208191Y-111464763D01*
X81140601Y-111535267D01*
X81074507Y-111596637D01*
X81009067Y-111649809D01*
X80959680Y-111685025D01*
X80916153Y-111711601D01*
X80866045Y-111737941D01*
X80814108Y-111761844D01*
X80765095Y-111781110D01*
X80726795Y-111792818D01*
X80665530Y-111803696D01*
X80599236Y-111808533D01*
X80534425Y-111807106D01*
X80486674Y-111801053D01*
X80398144Y-111776685D01*
X80313297Y-111737865D01*
X80232247Y-111684648D01*
X80204191Y-111662120D01*
X80182535Y-111645256D01*
X80164907Y-111636502D01*
X80144866Y-111633309D01*
X80130621Y-111633000D01*
X80030507Y-111627132D01*
X79928922Y-111610187D01*
X79904763Y-111603630D01*
X80456859Y-111603630D01*
X80467201Y-111610117D01*
X80476911Y-111613150D01*
X80491081Y-111614780D01*
X80515589Y-111615579D01*
X80545850Y-111615428D01*
X80555353Y-111615180D01*
X80598931Y-111612033D01*
X80634890Y-111604795D01*
X80665759Y-111593998D01*
X80716257Y-111570941D01*
X80761449Y-111544537D01*
X80805364Y-111512018D01*
X80852032Y-111470617D01*
X80868576Y-111454677D01*
X80892991Y-111430355D01*
X80911139Y-111411429D01*
X80921673Y-111399375D01*
X80923251Y-111395670D01*
X80921411Y-111396637D01*
X80844196Y-111444594D01*
X80777478Y-111482837D01*
X80720688Y-111511692D01*
X80717970Y-111512954D01*
X80677879Y-111530138D01*
X80631963Y-111547698D01*
X80584376Y-111564239D01*
X80539271Y-111578362D01*
X80500801Y-111588673D01*
X80480554Y-111592793D01*
X80461337Y-111597702D01*
X80456859Y-111603630D01*
X79904763Y-111603630D01*
X79829309Y-111583152D01*
X79735110Y-111547012D01*
X79649766Y-111502755D01*
X79627524Y-111488780D01*
X79601799Y-111473812D01*
X79576513Y-111462178D01*
X79561764Y-111457522D01*
X79542312Y-111451744D01*
X79514973Y-111441305D01*
X79485183Y-111428306D01*
X79480838Y-111426265D01*
X79421076Y-111389747D01*
X79420980Y-111389656D01*
X80148486Y-111389656D01*
X80150964Y-111395579D01*
X80157947Y-111403587D01*
X80159595Y-111405342D01*
X80168941Y-111414558D01*
X80178229Y-111420256D01*
X80190348Y-111422522D01*
X80208187Y-111421445D01*
X80234635Y-111417111D01*
X80272581Y-111409608D01*
X80276251Y-111408863D01*
X80306779Y-111402056D01*
X80341754Y-111393299D01*
X80378472Y-111383392D01*
X80414228Y-111373135D01*
X80446318Y-111363328D01*
X80472040Y-111354770D01*
X80488688Y-111348260D01*
X80493560Y-111344600D01*
X80493555Y-111344594D01*
X80485474Y-111344563D01*
X80466269Y-111346831D01*
X80439501Y-111350946D01*
X80428099Y-111352897D01*
X80395508Y-111357856D01*
X80353493Y-111363143D01*
X80307539Y-111368119D01*
X80264258Y-111372051D01*
X80218245Y-111375806D01*
X80185392Y-111378894D01*
X80163969Y-111381864D01*
X80152244Y-111385268D01*
X80148486Y-111389656D01*
X79420980Y-111389656D01*
X79369258Y-111341122D01*
X79325884Y-111281235D01*
X79291454Y-111210936D01*
X79266468Y-111131069D01*
X79251426Y-111042484D01*
X79250818Y-111036584D01*
X79245561Y-111004459D01*
X79236330Y-110966367D01*
X79225029Y-110930073D01*
X79223927Y-110927029D01*
X79194685Y-110837027D01*
X79190923Y-110822441D01*
X79336501Y-110822441D01*
X79339759Y-110875876D01*
X79343061Y-110908415D01*
X79349785Y-110935094D01*
X79362081Y-110963007D01*
X79371446Y-110980464D01*
X79435015Y-111083287D01*
X79504035Y-111172608D01*
X79578979Y-111249014D01*
X79610323Y-111275769D01*
X79655147Y-111312081D01*
X79703706Y-111307450D01*
X79729000Y-111304655D01*
X79747662Y-111301874D01*
X79755377Y-111299822D01*
X79756978Y-111297810D01*
X79755552Y-111295158D01*
X79748751Y-111290202D01*
X79734227Y-111281278D01*
X79709630Y-111266725D01*
X79703706Y-111263234D01*
X79622057Y-111208218D01*
X79548743Y-111143886D01*
X79482570Y-111068907D01*
X79422345Y-110981950D01*
X79373634Y-110895079D01*
X79336501Y-110822441D01*
X79190923Y-110822441D01*
X79168110Y-110733998D01*
X79144559Y-110619678D01*
X79124393Y-110495800D01*
X79108657Y-110370470D01*
X79105224Y-110331355D01*
X79102344Y-110283763D01*
X79100033Y-110229962D01*
X79098306Y-110172217D01*
X79097178Y-110112795D01*
X79096667Y-110053962D01*
X79096787Y-109997985D01*
X79097555Y-109947130D01*
X79098987Y-109903663D01*
X79101098Y-109869852D01*
X79103905Y-109847962D01*
X79104969Y-109843794D01*
X79109086Y-109832493D01*
X79111374Y-109831920D01*
X79112475Y-109843586D01*
X79112929Y-109862470D01*
X79115355Y-109921824D01*
X79120582Y-109992308D01*
X79128170Y-110070466D01*
X79137677Y-110152846D01*
X79148660Y-110235991D01*
X79160678Y-110316446D01*
X79173289Y-110390758D01*
X79186052Y-110455471D01*
X79192232Y-110482647D01*
X79203646Y-110528145D01*
X79215744Y-110573018D01*
X79227835Y-110615045D01*
X79239228Y-110652006D01*
X79249231Y-110681679D01*
X79257154Y-110701844D01*
X79262306Y-110710279D01*
X79263066Y-110710304D01*
X79269928Y-110698211D01*
X79273358Y-110674455D01*
X79273362Y-110641914D01*
X79269944Y-110603465D01*
X79263111Y-110561985D01*
X79262779Y-110560363D01*
X79251958Y-110504683D01*
X79243164Y-110451389D01*
X79236191Y-110397946D01*
X79230829Y-110341816D01*
X79226872Y-110280464D01*
X79224110Y-110211352D01*
X79222337Y-110131946D01*
X79221468Y-110056706D01*
X79220304Y-109911217D01*
X79263306Y-109911217D01*
X79264024Y-109940245D01*
X79265506Y-109976390D01*
X79267622Y-110017056D01*
X79270243Y-110059652D01*
X79273239Y-110101583D01*
X79276479Y-110140256D01*
X79278536Y-110161294D01*
X79282686Y-110196359D01*
X79288200Y-110236568D01*
X79294588Y-110278987D01*
X79301358Y-110320684D01*
X79308021Y-110358724D01*
X79314086Y-110390175D01*
X79319062Y-110412104D01*
X79321938Y-110420836D01*
X79325972Y-110417802D01*
X79333370Y-110402838D01*
X79343123Y-110378302D01*
X79354219Y-110346551D01*
X79355584Y-110342395D01*
X79372391Y-110292275D01*
X79387421Y-110250187D01*
X79400105Y-110217562D01*
X79409875Y-110195832D01*
X79416162Y-110186428D01*
X79417551Y-110186414D01*
X79417300Y-110194503D01*
X79414324Y-110214289D01*
X79409117Y-110242881D01*
X79402171Y-110277386D01*
X79401471Y-110280714D01*
X79391933Y-110327814D01*
X79381773Y-110381110D01*
X79372471Y-110432716D01*
X79367685Y-110460997D01*
X79353142Y-110550142D01*
X79375843Y-110615321D01*
X79394838Y-110665302D01*
X79418328Y-110720110D01*
X79444332Y-110775628D01*
X79470874Y-110827741D01*
X79495975Y-110872331D01*
X79509987Y-110894455D01*
X79545612Y-110941636D01*
X79588843Y-110990240D01*
X79635152Y-111035564D01*
X79680008Y-111072904D01*
X79686222Y-111077448D01*
X79708833Y-111092316D01*
X79736676Y-111108697D01*
X79766769Y-111125082D01*
X79796127Y-111139962D01*
X79821768Y-111151830D01*
X79840708Y-111159175D01*
X79849963Y-111160490D01*
X79850145Y-111160344D01*
X79848770Y-111152578D01*
X79842310Y-111134846D01*
X79832080Y-111110685D01*
X79829807Y-111105635D01*
X79807751Y-111054878D01*
X79782940Y-110994121D01*
X79756998Y-110927652D01*
X79731549Y-110859755D01*
X79708218Y-110794716D01*
X79688629Y-110736822D01*
X79681429Y-110714117D01*
X79668979Y-110672503D01*
X79655547Y-110625470D01*
X79641736Y-110575366D01*
X79628151Y-110524540D01*
X79615398Y-110475339D01*
X79604079Y-110430112D01*
X79594800Y-110391207D01*
X79588165Y-110360972D01*
X79584779Y-110341754D01*
X79584471Y-110337496D01*
X79587195Y-110340358D01*
X79594793Y-110355628D01*
X79606623Y-110381828D01*
X79622042Y-110417481D01*
X79640409Y-110461108D01*
X79661081Y-110511232D01*
X79676729Y-110549764D01*
X79709536Y-110630392D01*
X79738381Y-110699615D01*
X79764481Y-110760043D01*
X79789057Y-110814286D01*
X79813326Y-110864955D01*
X79838506Y-110914658D01*
X79865816Y-110966005D01*
X79896475Y-111021607D01*
X79899787Y-111027530D01*
X79929584Y-111080359D01*
X79953351Y-111121408D01*
X79972076Y-111152091D01*
X79986747Y-111173817D01*
X79998351Y-111187998D01*
X80007878Y-111196046D01*
X80016314Y-111199372D01*
X80020295Y-111199706D01*
X80033835Y-111195726D01*
X80056145Y-111184986D01*
X80083747Y-111169281D01*
X80104494Y-111156205D01*
X80134946Y-111135253D01*
X80172660Y-111107865D01*
X80213421Y-111077176D01*
X80253018Y-111046321D01*
X80264062Y-111037483D01*
X80271223Y-111031617D01*
X80704764Y-111031617D01*
X80708500Y-111035353D01*
X80712235Y-111031617D01*
X80708500Y-111027882D01*
X80704764Y-111031617D01*
X80271223Y-111031617D01*
X80278933Y-111025301D01*
X80719706Y-111025301D01*
X80725416Y-111023886D01*
X80742486Y-111012941D01*
X80770822Y-110992531D01*
X80810332Y-110962722D01*
X80830368Y-110947312D01*
X80855527Y-110927328D01*
X80875100Y-110910723D01*
X80886791Y-110899517D01*
X80888975Y-110895838D01*
X80882395Y-110899003D01*
X80866749Y-110909562D01*
X80844613Y-110925543D01*
X80818565Y-110944975D01*
X80791180Y-110965888D01*
X80765037Y-110986311D01*
X80742711Y-111004273D01*
X80726779Y-111017803D01*
X80719818Y-111024931D01*
X80719706Y-111025301D01*
X80278933Y-111025301D01*
X80296217Y-111011144D01*
X80331520Y-110981515D01*
X80368263Y-110950111D01*
X80404733Y-110918447D01*
X80439220Y-110888038D01*
X80470014Y-110860399D01*
X80495404Y-110837044D01*
X80513680Y-110819488D01*
X80523131Y-110809246D01*
X80523985Y-110807309D01*
X80516512Y-110804035D01*
X80497784Y-110796716D01*
X80470585Y-110786420D01*
X80437700Y-110774214D01*
X80436020Y-110773596D01*
X80262021Y-110701993D01*
X80094056Y-110617587D01*
X79933133Y-110521125D01*
X79780261Y-110413353D01*
X79636450Y-110295017D01*
X79502707Y-110166861D01*
X79380042Y-110029631D01*
X79311830Y-109942779D01*
X79292966Y-109918021D01*
X79277407Y-109898547D01*
X79267276Y-109886962D01*
X79264684Y-109884882D01*
X79263483Y-109891898D01*
X79263306Y-109911217D01*
X79220304Y-109911217D01*
X79219525Y-109813911D01*
X79169575Y-109731735D01*
X79078403Y-109567482D01*
X79000562Y-109396618D01*
X78936024Y-109219060D01*
X78884761Y-109034726D01*
X78846745Y-108843533D01*
X78828722Y-108712000D01*
X78825239Y-108670396D01*
X78822657Y-108617292D01*
X78820974Y-108556102D01*
X78820192Y-108490240D01*
X78820311Y-108423120D01*
X78821330Y-108358155D01*
X78823249Y-108298761D01*
X78826068Y-108248350D01*
X78828722Y-108218941D01*
X78858037Y-108022749D01*
X78900795Y-107833073D01*
X78957010Y-107649878D01*
X79026696Y-107473130D01*
X79109867Y-107302796D01*
X79206537Y-107138841D01*
X79316720Y-106981232D01*
X79359305Y-106926529D01*
X79397338Y-106881220D01*
X79443665Y-106829540D01*
X79495145Y-106774736D01*
X79548636Y-106720050D01*
X79600998Y-106668729D01*
X79649087Y-106624017D01*
X79670088Y-106605548D01*
X79820337Y-106486282D01*
X79978313Y-106379691D01*
X80143451Y-106286020D01*
X80315183Y-106205518D01*
X80492942Y-106138431D01*
X80676162Y-106085007D01*
X80864277Y-106045491D01*
X80999853Y-106026089D01*
X81055448Y-106021058D01*
X81121718Y-106017343D01*
X81194783Y-106014972D01*
X81270767Y-106013976D01*
X81345791Y-106014385D01*
X81415978Y-106016228D01*
X81477449Y-106019537D01*
X81507853Y-106022166D01*
X81701319Y-106049256D01*
X81888772Y-106090005D01*
X82070370Y-106144479D01*
X82246273Y-106212743D01*
X82416640Y-106294865D01*
X82581630Y-106390909D01*
X82741403Y-106500941D01*
X82826411Y-106566879D01*
X82859020Y-106594495D01*
X82897915Y-106629493D01*
X82940829Y-106669635D01*
X82985495Y-106712686D01*
X83029646Y-106756410D01*
X83071015Y-106798569D01*
X83107335Y-106836927D01*
X83136340Y-106869249D01*
X83151382Y-106887476D01*
X83167187Y-106907165D01*
X83179341Y-106921107D01*
X83185000Y-106926147D01*
X83189132Y-106919778D01*
X83199129Y-106901608D01*
X83214176Y-106873199D01*
X83233460Y-106836113D01*
X83256164Y-106791913D01*
X83281475Y-106742162D01*
X83298766Y-106707931D01*
X83352377Y-106602600D01*
X83403936Y-106503457D01*
X83452996Y-106411277D01*
X83499112Y-106326832D01*
X83541835Y-106250896D01*
X83580719Y-106184241D01*
X83615318Y-106127640D01*
X83645185Y-106081868D01*
X83669873Y-106047696D01*
X83688935Y-106025897D01*
X83696438Y-106019734D01*
X83709410Y-106012038D01*
X83714063Y-106012092D01*
G04 #@! TO.C,U3*
D11*
X52792380Y-91003333D02*
X52792380Y-90812857D01*
X52840000Y-90717619D01*
X52935238Y-90622380D01*
X53125714Y-90574761D01*
X53459047Y-90574761D01*
X53649523Y-90622380D01*
X53744761Y-90717619D01*
X53792380Y-90812857D01*
X53792380Y-91003333D01*
X53744761Y-91098571D01*
X53649523Y-91193809D01*
X53459047Y-91241428D01*
X53125714Y-91241428D01*
X52935238Y-91193809D01*
X52840000Y-91098571D01*
X52792380Y-91003333D01*
X53792380Y-90146190D02*
X52792380Y-90146190D01*
X53792380Y-89574761D02*
X53220952Y-90003333D01*
X52792380Y-89574761D02*
X53363809Y-90146190D01*
X53792380Y-89146190D02*
X52792380Y-89146190D01*
G04 #@! TO.C,C1*
X37855142Y-82462666D02*
X37902761Y-82510285D01*
X37950380Y-82653142D01*
X37950380Y-82748380D01*
X37902761Y-82891238D01*
X37807523Y-82986476D01*
X37712285Y-83034095D01*
X37521809Y-83081714D01*
X37378952Y-83081714D01*
X37188476Y-83034095D01*
X37093238Y-82986476D01*
X36998000Y-82891238D01*
X36950380Y-82748380D01*
X36950380Y-82653142D01*
X36998000Y-82510285D01*
X37045619Y-82462666D01*
X37950380Y-81510285D02*
X37950380Y-82081714D01*
X37950380Y-81796000D02*
X36950380Y-81796000D01*
X37093238Y-81891238D01*
X37188476Y-81986476D01*
X37236095Y-82081714D01*
G04 #@! TO.C,C2*
X29407142Y-86018666D02*
X29454761Y-86066285D01*
X29502380Y-86209142D01*
X29502380Y-86304380D01*
X29454761Y-86447238D01*
X29359523Y-86542476D01*
X29264285Y-86590095D01*
X29073809Y-86637714D01*
X28930952Y-86637714D01*
X28740476Y-86590095D01*
X28645238Y-86542476D01*
X28550000Y-86447238D01*
X28502380Y-86304380D01*
X28502380Y-86209142D01*
X28550000Y-86066285D01*
X28597619Y-86018666D01*
X28597619Y-85637714D02*
X28550000Y-85590095D01*
X28502380Y-85494857D01*
X28502380Y-85256761D01*
X28550000Y-85161523D01*
X28597619Y-85113904D01*
X28692857Y-85066285D01*
X28788095Y-85066285D01*
X28930952Y-85113904D01*
X29502380Y-85685333D01*
X29502380Y-85066285D01*
G04 #@! TO.C,C3*
X30296142Y-89828666D02*
X30343761Y-89876285D01*
X30391380Y-90019142D01*
X30391380Y-90114380D01*
X30343761Y-90257238D01*
X30248523Y-90352476D01*
X30153285Y-90400095D01*
X29962809Y-90447714D01*
X29819952Y-90447714D01*
X29629476Y-90400095D01*
X29534238Y-90352476D01*
X29439000Y-90257238D01*
X29391380Y-90114380D01*
X29391380Y-90019142D01*
X29439000Y-89876285D01*
X29486619Y-89828666D01*
X29391380Y-89495333D02*
X29391380Y-88876285D01*
X29772333Y-89209619D01*
X29772333Y-89066761D01*
X29819952Y-88971523D01*
X29867571Y-88923904D01*
X29962809Y-88876285D01*
X30200904Y-88876285D01*
X30296142Y-88923904D01*
X30343761Y-88971523D01*
X30391380Y-89066761D01*
X30391380Y-89352476D01*
X30343761Y-89447714D01*
X30296142Y-89495333D01*
G04 #@! TO.C,C4*
X37728142Y-78525666D02*
X37775761Y-78573285D01*
X37823380Y-78716142D01*
X37823380Y-78811380D01*
X37775761Y-78954238D01*
X37680523Y-79049476D01*
X37585285Y-79097095D01*
X37394809Y-79144714D01*
X37251952Y-79144714D01*
X37061476Y-79097095D01*
X36966238Y-79049476D01*
X36871000Y-78954238D01*
X36823380Y-78811380D01*
X36823380Y-78716142D01*
X36871000Y-78573285D01*
X36918619Y-78525666D01*
X37156714Y-77668523D02*
X37823380Y-77668523D01*
X36775761Y-77906619D02*
X37490047Y-78144714D01*
X37490047Y-77525666D01*
G04 #@! TO.C,C5*
X35442142Y-85891666D02*
X35489761Y-85939285D01*
X35537380Y-86082142D01*
X35537380Y-86177380D01*
X35489761Y-86320238D01*
X35394523Y-86415476D01*
X35299285Y-86463095D01*
X35108809Y-86510714D01*
X34965952Y-86510714D01*
X34775476Y-86463095D01*
X34680238Y-86415476D01*
X34585000Y-86320238D01*
X34537380Y-86177380D01*
X34537380Y-86082142D01*
X34585000Y-85939285D01*
X34632619Y-85891666D01*
X34537380Y-84986904D02*
X34537380Y-85463095D01*
X35013571Y-85510714D01*
X34965952Y-85463095D01*
X34918333Y-85367857D01*
X34918333Y-85129761D01*
X34965952Y-85034523D01*
X35013571Y-84986904D01*
X35108809Y-84939285D01*
X35346904Y-84939285D01*
X35442142Y-84986904D01*
X35489761Y-85034523D01*
X35537380Y-85129761D01*
X35537380Y-85367857D01*
X35489761Y-85463095D01*
X35442142Y-85510714D01*
G04 #@! TO.C,C6*
X52949600Y-77952142D02*
X52901981Y-77999761D01*
X52759124Y-78047380D01*
X52663886Y-78047380D01*
X52521028Y-77999761D01*
X52425790Y-77904523D01*
X52378171Y-77809285D01*
X52330552Y-77618809D01*
X52330552Y-77475952D01*
X52378171Y-77285476D01*
X52425790Y-77190238D01*
X52521028Y-77095000D01*
X52663886Y-77047380D01*
X52759124Y-77047380D01*
X52901981Y-77095000D01*
X52949600Y-77142619D01*
X53806743Y-77047380D02*
X53616267Y-77047380D01*
X53521028Y-77095000D01*
X53473409Y-77142619D01*
X53378171Y-77285476D01*
X53330552Y-77475952D01*
X53330552Y-77856904D01*
X53378171Y-77952142D01*
X53425790Y-77999761D01*
X53521028Y-78047380D01*
X53711505Y-78047380D01*
X53806743Y-77999761D01*
X53854362Y-77952142D01*
X53901981Y-77856904D01*
X53901981Y-77618809D01*
X53854362Y-77523571D01*
X53806743Y-77475952D01*
X53711505Y-77428333D01*
X53521028Y-77428333D01*
X53425790Y-77475952D01*
X53378171Y-77523571D01*
X53330552Y-77618809D01*
G04 #@! TO.C,U1*
X29774715Y-60649381D02*
X29203286Y-60649381D01*
X29489001Y-60649381D02*
X29489001Y-59649381D01*
X29393762Y-59792239D01*
X29298524Y-59887477D01*
X29203286Y-59935096D01*
X52158524Y-60649381D02*
X51587096Y-60649381D01*
X51872810Y-60649381D02*
X51872810Y-59649381D01*
X51777572Y-59792239D01*
X51682334Y-59887477D01*
X51587096Y-59935096D01*
X52777572Y-59649381D02*
X52872810Y-59649381D01*
X52968048Y-59697001D01*
X53015667Y-59744620D01*
X53063286Y-59839858D01*
X53110905Y-60030334D01*
X53110905Y-60268429D01*
X53063286Y-60458905D01*
X53015667Y-60554143D01*
X52968048Y-60601762D01*
X52872810Y-60649381D01*
X52777572Y-60649381D01*
X52682334Y-60601762D01*
X52634715Y-60554143D01*
X52587096Y-60458905D01*
X52539477Y-60268429D01*
X52539477Y-60030334D01*
X52587096Y-59839858D01*
X52634715Y-59744620D01*
X52682334Y-59697001D01*
X52777572Y-59649381D01*
X52158524Y-97225381D02*
X51587096Y-97225381D01*
X51872810Y-97225381D02*
X51872810Y-96225381D01*
X51777572Y-96368239D01*
X51682334Y-96463477D01*
X51587096Y-96511096D01*
X52777572Y-96225381D02*
X52872810Y-96225381D01*
X52968048Y-96273001D01*
X53015667Y-96320620D01*
X53063286Y-96415858D01*
X53110905Y-96606334D01*
X53110905Y-96844429D01*
X53063286Y-97034905D01*
X53015667Y-97130143D01*
X52968048Y-97177762D01*
X52872810Y-97225381D01*
X52777572Y-97225381D01*
X52682334Y-97177762D01*
X52634715Y-97130143D01*
X52587096Y-97034905D01*
X52539477Y-96844429D01*
X52539477Y-96606334D01*
X52587096Y-96415858D01*
X52634715Y-96320620D01*
X52682334Y-96273001D01*
X52777572Y-96225381D01*
X29774715Y-97225381D02*
X29203286Y-97225381D01*
X29489001Y-97225381D02*
X29489001Y-96225381D01*
X29393762Y-96368239D01*
X29298524Y-96463477D01*
X29203286Y-96511096D01*
X51539477Y-60919381D02*
X52206143Y-61919381D01*
X52206143Y-60919381D02*
X51539477Y-61919381D01*
X52491858Y-60919381D02*
X53158524Y-60919381D01*
X52729953Y-61919381D01*
X51539477Y-94955381D02*
X52206143Y-95955381D01*
X52206143Y-94955381D02*
X51539477Y-95955381D01*
X53015667Y-94955381D02*
X52825191Y-94955381D01*
X52729953Y-95003001D01*
X52682334Y-95050620D01*
X52587096Y-95193477D01*
X52539477Y-95383953D01*
X52539477Y-95764905D01*
X52587096Y-95860143D01*
X52634715Y-95907762D01*
X52729953Y-95955381D01*
X52920429Y-95955381D01*
X53015667Y-95907762D01*
X53063286Y-95860143D01*
X53110905Y-95764905D01*
X53110905Y-95526810D01*
X53063286Y-95431572D01*
X53015667Y-95383953D01*
X52920429Y-95336334D01*
X52729953Y-95336334D01*
X52634715Y-95383953D01*
X52587096Y-95431572D01*
X52539477Y-95526810D01*
X54468334Y-58522143D02*
X54420715Y-58569762D01*
X54277858Y-58617381D01*
X54182620Y-58617381D01*
X54039762Y-58569762D01*
X53944524Y-58474524D01*
X53896905Y-58379286D01*
X53849286Y-58188810D01*
X53849286Y-58045953D01*
X53896905Y-57855477D01*
X53944524Y-57760239D01*
X54039762Y-57665001D01*
X54182620Y-57617381D01*
X54277858Y-57617381D01*
X54420715Y-57665001D01*
X54468334Y-57712620D01*
X54849286Y-57712620D02*
X54896905Y-57665001D01*
X54992143Y-57617381D01*
X55230239Y-57617381D01*
X55325477Y-57665001D01*
X55373096Y-57712620D01*
X55420715Y-57807858D01*
X55420715Y-57903096D01*
X55373096Y-58045953D01*
X54801667Y-58617381D01*
X55420715Y-58617381D01*
X53896905Y-55823381D02*
X53896905Y-54823381D01*
X54135001Y-54823381D01*
X54277858Y-54871001D01*
X54373096Y-54966239D01*
X54420715Y-55061477D01*
X54468334Y-55251953D01*
X54468334Y-55394810D01*
X54420715Y-55585286D01*
X54373096Y-55680524D01*
X54277858Y-55775762D01*
X54135001Y-55823381D01*
X53896905Y-55823381D01*
X54849286Y-54918620D02*
X54896905Y-54871001D01*
X54992143Y-54823381D01*
X55230239Y-54823381D01*
X55325477Y-54871001D01*
X55373096Y-54918620D01*
X55420715Y-55013858D01*
X55420715Y-55109096D01*
X55373096Y-55251953D01*
X54801667Y-55823381D01*
X55420715Y-55823381D01*
X54992239Y-98479572D02*
X55135096Y-98527191D01*
X55182715Y-98574810D01*
X55230334Y-98670048D01*
X55230334Y-98812905D01*
X55182715Y-98908143D01*
X55135096Y-98955762D01*
X55039858Y-99003381D01*
X54658905Y-99003381D01*
X54658905Y-98003381D01*
X54992239Y-98003381D01*
X55087477Y-98051001D01*
X55135096Y-98098620D01*
X55182715Y-98193858D01*
X55182715Y-98289096D01*
X55135096Y-98384334D01*
X55087477Y-98431953D01*
X54992239Y-98479572D01*
X54658905Y-98479572D01*
X55611286Y-98098620D02*
X55658905Y-98051001D01*
X55754143Y-98003381D01*
X55992239Y-98003381D01*
X56087477Y-98051001D01*
X56135096Y-98098620D01*
X56182715Y-98193858D01*
X56182715Y-98289096D01*
X56135096Y-98431953D01*
X55563667Y-99003381D01*
X56182715Y-99003381D01*
X54682715Y-101511667D02*
X55158905Y-101511667D01*
X54587477Y-101797381D02*
X54920810Y-100797381D01*
X55254143Y-101797381D01*
X55539858Y-100892620D02*
X55587477Y-100845001D01*
X55682715Y-100797381D01*
X55920810Y-100797381D01*
X56016048Y-100845001D01*
X56063667Y-100892620D01*
X56111286Y-100987858D01*
X56111286Y-101083096D01*
X56063667Y-101225953D01*
X55492239Y-101797381D01*
X56111286Y-101797381D01*
G04 #@! TO.C,U2*
X43053095Y-78542380D02*
X43053095Y-79351904D01*
X43100714Y-79447142D01*
X43148333Y-79494761D01*
X43243571Y-79542380D01*
X43434047Y-79542380D01*
X43529285Y-79494761D01*
X43576904Y-79447142D01*
X43624523Y-79351904D01*
X43624523Y-78542380D01*
X44053095Y-78637619D02*
X44100714Y-78590000D01*
X44195952Y-78542380D01*
X44434047Y-78542380D01*
X44529285Y-78590000D01*
X44576904Y-78637619D01*
X44624523Y-78732857D01*
X44624523Y-78828095D01*
X44576904Y-78970952D01*
X44005476Y-79542380D01*
X44624523Y-79542380D01*
G04 #@! TD*
M02*
