M48
;DRILL file {KiCad (5.0.0)} date 10/03/18 21:50:46
;FORMAT={-:-/ absolute / inch / decimal}
FMAT,2
INCH,TZ
T1C0.0157
T2C0.0300
T3C0.0350
T4C0.0394
T5C0.1598
%
G90
G05
M72
T1
X3.58Y-4.56
X3.6358Y-4.175
X3.65Y-4.56
X3.69Y-4.56
X3.73Y-4.56
X3.79Y-4.66
X3.83Y-3.9
X3.86Y-4.73
X4.11Y-3.87
X4.17Y-4.27
X4.24Y-4.32
T2
X3.27Y-3.33
X3.37Y-3.33
X3.47Y-3.33
X3.57Y-3.33
X3.67Y-3.33
X3.95Y-3.33
X4.05Y-3.33
X4.15Y-3.33
X4.25Y-3.33
X4.35Y-3.33
T3
X5.1Y-4.3
X5.2Y-4.3
X5.3Y-4.3
T4
X3.171Y-3.63
X3.171Y-3.73
X3.171Y-5.33
X3.171Y-5.43
X3.271Y-3.63
X3.271Y-3.73
X3.271Y-5.33
X3.271Y-5.43
X3.371Y-3.63
X3.371Y-3.73
X3.371Y-5.33
X3.371Y-5.43
X3.471Y-3.63
X3.471Y-3.73
X3.471Y-5.33
X3.471Y-5.43
X3.571Y-3.63
X3.571Y-3.73
X3.571Y-5.33
X3.571Y-5.43
X3.671Y-3.63
X3.671Y-3.73
X3.671Y-5.33
X3.671Y-5.43
X3.771Y-3.63
X3.771Y-3.73
X3.771Y-5.33
X3.771Y-5.43
X3.871Y-3.63
X3.871Y-3.73
X3.871Y-5.33
X3.871Y-5.43
X3.971Y-3.63
X3.971Y-3.73
X3.971Y-5.33
X3.971Y-5.43
X4.071Y-3.63
X4.071Y-3.73
X4.071Y-5.33
X4.071Y-5.43
T5
X5.02Y-3.521
X5.335Y-3.521
T0
M30
