G04 #@! TF.GenerationSoftware,KiCad,Pcbnew,(5.0.0)*
G04 #@! TF.CreationDate,2018-09-29T14:22:13-05:00*
G04 #@! TF.ProjectId,DriveBoard_Hardware,4472697665426F6172645F4861726477,rev?*
G04 #@! TF.SameCoordinates,Original*
G04 #@! TF.FileFunction,Legend,Top*
G04 #@! TF.FilePolarity,Positive*
%FSLAX46Y46*%
G04 Gerber Fmt 4.6, Leading zero omitted, Abs format (unit mm)*
G04 Created by KiCad (PCBNEW (5.0.0)) date 09/29/18 14:22:13*
%MOMM*%
%LPD*%
G01*
G04 APERTURE LIST*
%ADD10C,0.150000*%
%ADD11C,0.120000*%
G04 APERTURE END LIST*
D10*
G04 #@! TO.C,Conn2*
X184150000Y-45212000D02*
X184150000Y-45720000D01*
X191770000Y-45720000D02*
X191770000Y-45212000D01*
X179705000Y-45212000D02*
X196215000Y-45212000D01*
X179705000Y-57150000D02*
X179705000Y-45212000D01*
X196215000Y-57150000D02*
X196215000Y-45212000D01*
X194310000Y-57150000D02*
X196215000Y-57150000D01*
X181610000Y-57150000D02*
X179705000Y-57150000D01*
X184150000Y-49530000D02*
X184150000Y-50800000D01*
X184150000Y-50800000D02*
X191770000Y-50800000D01*
X191770000Y-50800000D02*
X191770000Y-49530000D01*
X191770000Y-49530000D02*
X191770000Y-45720000D01*
X184150000Y-49530000D02*
X184150000Y-45720000D01*
X186690000Y-50800000D02*
X186690000Y-53340000D01*
X186690000Y-53340000D02*
X189230000Y-53340000D01*
X189230000Y-53340000D02*
X189230000Y-50800000D01*
X181610000Y-57150000D02*
X194310000Y-57150000D01*
X194310000Y-57150000D02*
X194310000Y-59690000D01*
X194310000Y-59690000D02*
X181610000Y-59690000D01*
X181610000Y-59690000D02*
X181610000Y-57150000D01*
G04 #@! TO.C,U1*
X161729001Y-113410001D02*
X136329001Y-113410001D01*
X136329001Y-75310001D02*
X161729001Y-75310001D01*
X161729001Y-118490001D02*
X161729001Y-113410001D01*
X136329001Y-113410001D02*
X136329001Y-118490001D01*
X136329001Y-118490001D02*
X161729001Y-118490001D01*
X161729001Y-75310001D02*
X161729001Y-70230001D01*
X161729001Y-70230001D02*
X136329001Y-70230001D01*
X136329001Y-70230001D02*
X136329001Y-75310001D01*
D11*
G04 #@! TO.C,C1*
X147148733Y-98550000D02*
X147491267Y-98550000D01*
X147148733Y-99570000D02*
X147491267Y-99570000D01*
G04 #@! TO.C,C2*
X146273733Y-80520000D02*
X146616267Y-80520000D01*
X146273733Y-79500000D02*
X146616267Y-79500000D01*
G04 #@! TO.C,C3*
X164138733Y-103630000D02*
X164481267Y-103630000D01*
X164138733Y-104650000D02*
X164481267Y-104650000D01*
G04 #@! TO.C,C4*
X157703733Y-92200000D02*
X158046267Y-92200000D01*
X157703733Y-93220000D02*
X158046267Y-93220000D01*
G04 #@! TO.C,C5*
X157703733Y-90680000D02*
X158046267Y-90680000D01*
X157703733Y-89660000D02*
X158046267Y-89660000D01*
G04 #@! TO.C,C6*
X164053733Y-109730000D02*
X164396267Y-109730000D01*
X164053733Y-108710000D02*
X164396267Y-108710000D01*
D10*
G04 #@! TO.C,Conn1*
X191262000Y-101600000D02*
G75*
G03X192379600Y-102717600I1117600J0D01*
G01*
X192379600Y-102717600D02*
G75*
G03X193497200Y-101600000I0J1117600D01*
G01*
X202438000Y-117348000D02*
X202438000Y-101600000D01*
X177800000Y-117348000D02*
X177800000Y-101600000D01*
X193522600Y-117348000D02*
X194741800Y-117348000D01*
X192379600Y-116205000D02*
G75*
G03X191236600Y-117348000I0J-1143000D01*
G01*
X193522600Y-117348000D02*
G75*
G03X192379600Y-116205000I-1143000J0D01*
G01*
X190068200Y-101600000D02*
X191262000Y-101600000D01*
X192379600Y-103911400D02*
X192379600Y-102743000D01*
X194691000Y-101600000D02*
X193522600Y-101600000D01*
X190119000Y-117348000D02*
X191211200Y-117348000D01*
X192379600Y-116205000D02*
X192379600Y-115036600D01*
X192379600Y-107188000D02*
X192379600Y-108331000D01*
X202412600Y-109499400D02*
X193522600Y-109499400D01*
X192379600Y-111760000D02*
X192379600Y-110617000D01*
X190093600Y-109474000D02*
X191236600Y-109474000D01*
X192379600Y-107188000D02*
X192379600Y-103886000D01*
X190093600Y-109474000D02*
X177800000Y-109474000D01*
X192379600Y-111760000D02*
X192379600Y-115036600D01*
X193522600Y-109474000D02*
G75*
G03X193522600Y-109474000I-1143000J0D01*
G01*
X190093600Y-101600000D02*
X177800000Y-101600000D01*
X194665600Y-101600000D02*
X202412600Y-101600000D01*
X202412600Y-117348000D02*
X194665600Y-117348000D01*
X190093600Y-117348000D02*
X177800000Y-117348000D01*
G04 #@! TO.C,Conn3*
X163830000Y-59690000D02*
X163830000Y-57150000D01*
X176530000Y-59690000D02*
X163830000Y-59690000D01*
X176530000Y-57150000D02*
X176530000Y-59690000D01*
X163830000Y-57150000D02*
X176530000Y-57150000D01*
X171450000Y-53340000D02*
X171450000Y-50800000D01*
X168910000Y-53340000D02*
X171450000Y-53340000D01*
X168910000Y-50800000D02*
X168910000Y-53340000D01*
X166370000Y-49530000D02*
X166370000Y-45720000D01*
X173990000Y-49530000D02*
X173990000Y-45720000D01*
X173990000Y-50800000D02*
X173990000Y-49530000D01*
X166370000Y-50800000D02*
X173990000Y-50800000D01*
X166370000Y-49530000D02*
X166370000Y-50800000D01*
X163830000Y-57150000D02*
X161925000Y-57150000D01*
X176530000Y-57150000D02*
X178435000Y-57150000D01*
X178435000Y-57150000D02*
X178435000Y-45212000D01*
X161925000Y-57150000D02*
X161925000Y-45212000D01*
X161925000Y-45212000D02*
X178435000Y-45212000D01*
X173990000Y-45720000D02*
X173990000Y-45212000D01*
X166370000Y-45212000D02*
X166370000Y-45720000D01*
G04 #@! TO.C,U2*
X148270000Y-96390000D02*
X145370000Y-96390000D01*
X145370000Y-96390000D02*
X145370000Y-86490000D01*
X145370000Y-86490000D02*
X149270000Y-86490000D01*
X149270000Y-86490000D02*
X149270000Y-95390000D01*
X149270000Y-95390000D02*
X148270000Y-96390000D01*
G04 #@! TO.C,U3*
X156210000Y-109220000D02*
X153670000Y-111760000D01*
X153670000Y-111760000D02*
X148590000Y-111760000D01*
X148590000Y-111760000D02*
X146050000Y-109220000D01*
X146050000Y-109220000D02*
X146050000Y-104140000D01*
X146050000Y-104140000D02*
X148590000Y-101600000D01*
X148590000Y-101600000D02*
X153670000Y-101600000D01*
X153670000Y-101600000D02*
X156210000Y-104140000D01*
X156210000Y-104140000D02*
X156210000Y-109220000D01*
X143510000Y-101600000D02*
X143510000Y-111760000D01*
X160020000Y-101600000D02*
X160020000Y-111760000D01*
X160020000Y-111760000D02*
X143510000Y-111760000D01*
X143510000Y-101600000D02*
X160020000Y-101600000D01*
G04 #@! TO.C,U1*
X137884715Y-76524381D02*
X137313286Y-76524381D01*
X137599001Y-76524381D02*
X137599001Y-75524381D01*
X137503762Y-75667239D01*
X137408524Y-75762477D01*
X137313286Y-75810096D01*
X160268524Y-76524381D02*
X159697096Y-76524381D01*
X159982810Y-76524381D02*
X159982810Y-75524381D01*
X159887572Y-75667239D01*
X159792334Y-75762477D01*
X159697096Y-75810096D01*
X160887572Y-75524381D02*
X160982810Y-75524381D01*
X161078048Y-75572001D01*
X161125667Y-75619620D01*
X161173286Y-75714858D01*
X161220905Y-75905334D01*
X161220905Y-76143429D01*
X161173286Y-76333905D01*
X161125667Y-76429143D01*
X161078048Y-76476762D01*
X160982810Y-76524381D01*
X160887572Y-76524381D01*
X160792334Y-76476762D01*
X160744715Y-76429143D01*
X160697096Y-76333905D01*
X160649477Y-76143429D01*
X160649477Y-75905334D01*
X160697096Y-75714858D01*
X160744715Y-75619620D01*
X160792334Y-75572001D01*
X160887572Y-75524381D01*
X160268524Y-113100381D02*
X159697096Y-113100381D01*
X159982810Y-113100381D02*
X159982810Y-112100381D01*
X159887572Y-112243239D01*
X159792334Y-112338477D01*
X159697096Y-112386096D01*
X160887572Y-112100381D02*
X160982810Y-112100381D01*
X161078048Y-112148001D01*
X161125667Y-112195620D01*
X161173286Y-112290858D01*
X161220905Y-112481334D01*
X161220905Y-112719429D01*
X161173286Y-112909905D01*
X161125667Y-113005143D01*
X161078048Y-113052762D01*
X160982810Y-113100381D01*
X160887572Y-113100381D01*
X160792334Y-113052762D01*
X160744715Y-113005143D01*
X160697096Y-112909905D01*
X160649477Y-112719429D01*
X160649477Y-112481334D01*
X160697096Y-112290858D01*
X160744715Y-112195620D01*
X160792334Y-112148001D01*
X160887572Y-112100381D01*
X137884715Y-113100381D02*
X137313286Y-113100381D01*
X137599001Y-113100381D02*
X137599001Y-112100381D01*
X137503762Y-112243239D01*
X137408524Y-112338477D01*
X137313286Y-112386096D01*
X159649477Y-76794381D02*
X160316143Y-77794381D01*
X160316143Y-76794381D02*
X159649477Y-77794381D01*
X160601858Y-76794381D02*
X161268524Y-76794381D01*
X160839953Y-77794381D01*
X159649477Y-110830381D02*
X160316143Y-111830381D01*
X160316143Y-110830381D02*
X159649477Y-111830381D01*
X161125667Y-110830381D02*
X160935191Y-110830381D01*
X160839953Y-110878001D01*
X160792334Y-110925620D01*
X160697096Y-111068477D01*
X160649477Y-111258953D01*
X160649477Y-111639905D01*
X160697096Y-111735143D01*
X160744715Y-111782762D01*
X160839953Y-111830381D01*
X161030429Y-111830381D01*
X161125667Y-111782762D01*
X161173286Y-111735143D01*
X161220905Y-111639905D01*
X161220905Y-111401810D01*
X161173286Y-111306572D01*
X161125667Y-111258953D01*
X161030429Y-111211334D01*
X160839953Y-111211334D01*
X160744715Y-111258953D01*
X160697096Y-111306572D01*
X160649477Y-111401810D01*
X162578334Y-74397143D02*
X162530715Y-74444762D01*
X162387858Y-74492381D01*
X162292620Y-74492381D01*
X162149762Y-74444762D01*
X162054524Y-74349524D01*
X162006905Y-74254286D01*
X161959286Y-74063810D01*
X161959286Y-73920953D01*
X162006905Y-73730477D01*
X162054524Y-73635239D01*
X162149762Y-73540001D01*
X162292620Y-73492381D01*
X162387858Y-73492381D01*
X162530715Y-73540001D01*
X162578334Y-73587620D01*
X162959286Y-73587620D02*
X163006905Y-73540001D01*
X163102143Y-73492381D01*
X163340239Y-73492381D01*
X163435477Y-73540001D01*
X163483096Y-73587620D01*
X163530715Y-73682858D01*
X163530715Y-73778096D01*
X163483096Y-73920953D01*
X162911667Y-74492381D01*
X163530715Y-74492381D01*
X162006905Y-71698381D02*
X162006905Y-70698381D01*
X162245001Y-70698381D01*
X162387858Y-70746001D01*
X162483096Y-70841239D01*
X162530715Y-70936477D01*
X162578334Y-71126953D01*
X162578334Y-71269810D01*
X162530715Y-71460286D01*
X162483096Y-71555524D01*
X162387858Y-71650762D01*
X162245001Y-71698381D01*
X162006905Y-71698381D01*
X162959286Y-70793620D02*
X163006905Y-70746001D01*
X163102143Y-70698381D01*
X163340239Y-70698381D01*
X163435477Y-70746001D01*
X163483096Y-70793620D01*
X163530715Y-70888858D01*
X163530715Y-70984096D01*
X163483096Y-71126953D01*
X162911667Y-71698381D01*
X163530715Y-71698381D01*
X163102239Y-114354572D02*
X163245096Y-114402191D01*
X163292715Y-114449810D01*
X163340334Y-114545048D01*
X163340334Y-114687905D01*
X163292715Y-114783143D01*
X163245096Y-114830762D01*
X163149858Y-114878381D01*
X162768905Y-114878381D01*
X162768905Y-113878381D01*
X163102239Y-113878381D01*
X163197477Y-113926001D01*
X163245096Y-113973620D01*
X163292715Y-114068858D01*
X163292715Y-114164096D01*
X163245096Y-114259334D01*
X163197477Y-114306953D01*
X163102239Y-114354572D01*
X162768905Y-114354572D01*
X163721286Y-113973620D02*
X163768905Y-113926001D01*
X163864143Y-113878381D01*
X164102239Y-113878381D01*
X164197477Y-113926001D01*
X164245096Y-113973620D01*
X164292715Y-114068858D01*
X164292715Y-114164096D01*
X164245096Y-114306953D01*
X163673667Y-114878381D01*
X164292715Y-114878381D01*
X162792715Y-117386667D02*
X163268905Y-117386667D01*
X162697477Y-117672381D02*
X163030810Y-116672381D01*
X163364143Y-117672381D01*
X163649858Y-116767620D02*
X163697477Y-116720001D01*
X163792715Y-116672381D01*
X164030810Y-116672381D01*
X164126048Y-116720001D01*
X164173667Y-116767620D01*
X164221286Y-116862858D01*
X164221286Y-116958096D01*
X164173667Y-117100953D01*
X163602239Y-117672381D01*
X164221286Y-117672381D01*
G04 #@! TO.C,C1*
X147153333Y-97987142D02*
X147105714Y-98034761D01*
X146962857Y-98082380D01*
X146867619Y-98082380D01*
X146724761Y-98034761D01*
X146629523Y-97939523D01*
X146581904Y-97844285D01*
X146534285Y-97653809D01*
X146534285Y-97510952D01*
X146581904Y-97320476D01*
X146629523Y-97225238D01*
X146724761Y-97130000D01*
X146867619Y-97082380D01*
X146962857Y-97082380D01*
X147105714Y-97130000D01*
X147153333Y-97177619D01*
X148105714Y-98082380D02*
X147534285Y-98082380D01*
X147820000Y-98082380D02*
X147820000Y-97082380D01*
X147724761Y-97225238D01*
X147629523Y-97320476D01*
X147534285Y-97368095D01*
G04 #@! TO.C,C2*
X146278333Y-78937142D02*
X146230714Y-78984761D01*
X146087857Y-79032380D01*
X145992619Y-79032380D01*
X145849761Y-78984761D01*
X145754523Y-78889523D01*
X145706904Y-78794285D01*
X145659285Y-78603809D01*
X145659285Y-78460952D01*
X145706904Y-78270476D01*
X145754523Y-78175238D01*
X145849761Y-78080000D01*
X145992619Y-78032380D01*
X146087857Y-78032380D01*
X146230714Y-78080000D01*
X146278333Y-78127619D01*
X146659285Y-78127619D02*
X146706904Y-78080000D01*
X146802142Y-78032380D01*
X147040238Y-78032380D01*
X147135476Y-78080000D01*
X147183095Y-78127619D01*
X147230714Y-78222857D01*
X147230714Y-78318095D01*
X147183095Y-78460952D01*
X146611666Y-79032380D01*
X147230714Y-79032380D01*
G04 #@! TO.C,C3*
X164143333Y-103067142D02*
X164095714Y-103114761D01*
X163952857Y-103162380D01*
X163857619Y-103162380D01*
X163714761Y-103114761D01*
X163619523Y-103019523D01*
X163571904Y-102924285D01*
X163524285Y-102733809D01*
X163524285Y-102590952D01*
X163571904Y-102400476D01*
X163619523Y-102305238D01*
X163714761Y-102210000D01*
X163857619Y-102162380D01*
X163952857Y-102162380D01*
X164095714Y-102210000D01*
X164143333Y-102257619D01*
X164476666Y-102162380D02*
X165095714Y-102162380D01*
X164762380Y-102543333D01*
X164905238Y-102543333D01*
X165000476Y-102590952D01*
X165048095Y-102638571D01*
X165095714Y-102733809D01*
X165095714Y-102971904D01*
X165048095Y-103067142D01*
X165000476Y-103114761D01*
X164905238Y-103162380D01*
X164619523Y-103162380D01*
X164524285Y-103114761D01*
X164476666Y-103067142D01*
G04 #@! TO.C,C4*
X157708333Y-91637142D02*
X157660714Y-91684761D01*
X157517857Y-91732380D01*
X157422619Y-91732380D01*
X157279761Y-91684761D01*
X157184523Y-91589523D01*
X157136904Y-91494285D01*
X157089285Y-91303809D01*
X157089285Y-91160952D01*
X157136904Y-90970476D01*
X157184523Y-90875238D01*
X157279761Y-90780000D01*
X157422619Y-90732380D01*
X157517857Y-90732380D01*
X157660714Y-90780000D01*
X157708333Y-90827619D01*
X158565476Y-91065714D02*
X158565476Y-91732380D01*
X158327380Y-90684761D02*
X158089285Y-91399047D01*
X158708333Y-91399047D01*
G04 #@! TO.C,C5*
X157708333Y-89097142D02*
X157660714Y-89144761D01*
X157517857Y-89192380D01*
X157422619Y-89192380D01*
X157279761Y-89144761D01*
X157184523Y-89049523D01*
X157136904Y-88954285D01*
X157089285Y-88763809D01*
X157089285Y-88620952D01*
X157136904Y-88430476D01*
X157184523Y-88335238D01*
X157279761Y-88240000D01*
X157422619Y-88192380D01*
X157517857Y-88192380D01*
X157660714Y-88240000D01*
X157708333Y-88287619D01*
X158613095Y-88192380D02*
X158136904Y-88192380D01*
X158089285Y-88668571D01*
X158136904Y-88620952D01*
X158232142Y-88573333D01*
X158470238Y-88573333D01*
X158565476Y-88620952D01*
X158613095Y-88668571D01*
X158660714Y-88763809D01*
X158660714Y-89001904D01*
X158613095Y-89097142D01*
X158565476Y-89144761D01*
X158470238Y-89192380D01*
X158232142Y-89192380D01*
X158136904Y-89144761D01*
X158089285Y-89097142D01*
G04 #@! TO.C,C6*
X164058333Y-108147142D02*
X164010714Y-108194761D01*
X163867857Y-108242380D01*
X163772619Y-108242380D01*
X163629761Y-108194761D01*
X163534523Y-108099523D01*
X163486904Y-108004285D01*
X163439285Y-107813809D01*
X163439285Y-107670952D01*
X163486904Y-107480476D01*
X163534523Y-107385238D01*
X163629761Y-107290000D01*
X163772619Y-107242380D01*
X163867857Y-107242380D01*
X164010714Y-107290000D01*
X164058333Y-107337619D01*
X164915476Y-107242380D02*
X164725000Y-107242380D01*
X164629761Y-107290000D01*
X164582142Y-107337619D01*
X164486904Y-107480476D01*
X164439285Y-107670952D01*
X164439285Y-108051904D01*
X164486904Y-108147142D01*
X164534523Y-108194761D01*
X164629761Y-108242380D01*
X164820238Y-108242380D01*
X164915476Y-108194761D01*
X164963095Y-108147142D01*
X165010714Y-108051904D01*
X165010714Y-107813809D01*
X164963095Y-107718571D01*
X164915476Y-107670952D01*
X164820238Y-107623333D01*
X164629761Y-107623333D01*
X164534523Y-107670952D01*
X164486904Y-107718571D01*
X164439285Y-107813809D01*
G04 #@! TO.C,U2*
X146558095Y-96892380D02*
X146558095Y-97701904D01*
X146605714Y-97797142D01*
X146653333Y-97844761D01*
X146748571Y-97892380D01*
X146939047Y-97892380D01*
X147034285Y-97844761D01*
X147081904Y-97797142D01*
X147129523Y-97701904D01*
X147129523Y-96892380D01*
X147558095Y-96987619D02*
X147605714Y-96940000D01*
X147700952Y-96892380D01*
X147939047Y-96892380D01*
X148034285Y-96940000D01*
X148081904Y-96987619D01*
X148129523Y-97082857D01*
X148129523Y-97178095D01*
X148081904Y-97320952D01*
X147510476Y-97892380D01*
X148129523Y-97892380D01*
G04 #@! TO.C,U3*
X160742380Y-108783333D02*
X160742380Y-108592857D01*
X160790000Y-108497619D01*
X160885238Y-108402380D01*
X161075714Y-108354761D01*
X161409047Y-108354761D01*
X161599523Y-108402380D01*
X161694761Y-108497619D01*
X161742380Y-108592857D01*
X161742380Y-108783333D01*
X161694761Y-108878571D01*
X161599523Y-108973809D01*
X161409047Y-109021428D01*
X161075714Y-109021428D01*
X160885238Y-108973809D01*
X160790000Y-108878571D01*
X160742380Y-108783333D01*
X161742380Y-107926190D02*
X160742380Y-107926190D01*
X161742380Y-107354761D02*
X161170952Y-107783333D01*
X160742380Y-107354761D02*
X161313809Y-107926190D01*
X161742380Y-106926190D02*
X160742380Y-106926190D01*
G04 #@! TD*
M02*
