G04 #@! TF.GenerationSoftware,KiCad,Pcbnew,(5.0.0)*
G04 #@! TF.CreationDate,2018-10-03T21:50:45-05:00*
G04 #@! TF.ProjectId,DriveBoard_Hardware,4472697665426F6172645F4861726477,rev?*
G04 #@! TF.SameCoordinates,Original*
G04 #@! TF.FileFunction,Soldermask,Bot*
G04 #@! TF.FilePolarity,Negative*
%FSLAX46Y46*%
G04 Gerber Fmt 4.6, Leading zero omitted, Abs format (unit mm)*
G04 Created by KiCad (PCBNEW (5.0.0)) date 10/03/18 21:50:45*
%MOMM*%
%LPD*%
G01*
G04 APERTURE LIST*
%ADD10C,5.480000*%
%ADD11C,1.924000*%
%ADD12C,3.850000*%
%ADD13C,1.920000*%
G04 APERTURE END LIST*
D10*
G04 #@! TO.C,Conn1*
X135508000Y-89433400D03*
X127507000Y-89433400D03*
G04 #@! TD*
D11*
G04 #@! TO.C,Conn2*
X100330000Y-84582000D03*
X102870000Y-84582000D03*
X105410000Y-84582000D03*
X107950000Y-84582000D03*
X110490000Y-84582000D03*
D12*
X99060000Y-75946000D03*
X111760000Y-75946000D03*
G04 #@! TD*
G04 #@! TO.C,Conn3*
X94488000Y-75946000D03*
X81788000Y-75946000D03*
D11*
X93218000Y-84582000D03*
X90678000Y-84582000D03*
X88138000Y-84582000D03*
X85598000Y-84582000D03*
X83058000Y-84582000D03*
G04 #@! TD*
D13*
G04 #@! TO.C,U1*
X80543001Y-137921001D03*
X103403001Y-92201001D03*
X100863001Y-92201001D03*
X93243001Y-92201001D03*
X90703001Y-135381001D03*
X95783001Y-92201001D03*
X98323001Y-92201001D03*
X95783001Y-137921001D03*
X100863001Y-135381001D03*
X90703001Y-92201001D03*
X88163001Y-92201001D03*
X100863001Y-137921001D03*
X95783001Y-135381001D03*
X93243001Y-135381001D03*
X80543001Y-135381001D03*
X83083001Y-135381001D03*
X85623001Y-135381001D03*
X88163001Y-135381001D03*
X98323001Y-135381001D03*
X103403001Y-135381001D03*
X83083001Y-137921001D03*
X85623001Y-137921001D03*
X88163001Y-137921001D03*
X90703001Y-137921001D03*
X93243001Y-137921001D03*
X98323001Y-137921001D03*
X103403001Y-137921001D03*
X80543001Y-94741001D03*
X83083001Y-94741001D03*
X85623001Y-94741001D03*
X88163001Y-94741001D03*
X90703001Y-94741001D03*
X93243001Y-94741001D03*
X95783001Y-94741001D03*
X98323001Y-94741001D03*
X100863001Y-94741001D03*
X103403001Y-94741001D03*
X80543001Y-92201001D03*
X83083001Y-92201001D03*
X85623001Y-92201001D03*
G04 #@! TD*
D11*
G04 #@! TO.C,U3*
X134620000Y-109220000D03*
X132080000Y-109220000D03*
X129540000Y-109220000D03*
G04 #@! TD*
M02*
