M48
;DRILL file {KiCad (5.0.0)} date 09/29/18 17:06:41
;FORMAT={-:-/ absolute / inch / decimal}
FMAT,2
INCH,TZ
T1C0.0157
T2C0.0200
T3C0.0300
T4C0.0350
T5C0.0394
T6C0.1598
%
G90
G05
M72
T1
X1.495Y-3.165
X1.55Y-3.275
X1.775Y-3.765
X1.9Y-3.175
X1.9Y-3.375
X1.94Y-3.41
X1.97Y-3.46
X1.975Y-3.075
X2.Y-3.525
X2.45Y-3.375
X2.525Y-2.225
X2.575Y-3.175
T2
X2.1Y-3.25
X2.1Y-3.425
T3
X2.975Y-2.6
X2.975Y-2.7
X2.975Y-2.8
X2.975Y-2.9
X2.975Y-3.
X2.975Y-1.925
X2.975Y-2.025
X2.975Y-2.125
X2.975Y-2.225
X2.975Y-2.325
T4
X2.2Y-3.5
X2.2Y-3.6
X2.2Y-3.7
T5
X1.161Y-2.19
X1.161Y-2.29
X1.161Y-3.89
X1.161Y-3.99
X1.261Y-2.19
X1.261Y-2.29
X1.261Y-3.89
X1.261Y-3.99
X1.361Y-2.19
X1.361Y-2.29
X1.361Y-3.89
X1.361Y-3.99
X1.461Y-2.19
X1.461Y-2.29
X1.461Y-3.89
X1.461Y-3.99
X1.561Y-2.19
X1.561Y-2.29
X1.561Y-3.89
X1.561Y-3.99
X1.661Y-2.19
X1.661Y-2.29
X1.661Y-3.89
X1.661Y-3.99
X1.761Y-2.19
X1.761Y-2.29
X1.761Y-3.89
X1.761Y-3.99
X1.861Y-2.19
X1.861Y-2.29
X1.861Y-3.89
X1.861Y-3.99
X1.961Y-2.19
X1.961Y-2.29
X1.961Y-3.89
X1.961Y-3.99
X2.061Y-2.19
X2.061Y-2.29
X2.061Y-3.89
X2.061Y-3.99
T6
X1.841Y-2.5
X1.841Y-2.815
T0
M30
