G04 #@! TF.GenerationSoftware,KiCad,Pcbnew,(5.0.0)*
G04 #@! TF.CreationDate,2018-09-29T14:22:10-05:00*
G04 #@! TF.ProjectId,DriveBoard_Hardware,4472697665426F6172645F4861726477,rev?*
G04 #@! TF.SameCoordinates,Original*
G04 #@! TF.FileFunction,Copper,L1,Top,Signal*
G04 #@! TF.FilePolarity,Positive*
%FSLAX46Y46*%
G04 Gerber Fmt 4.6, Leading zero omitted, Abs format (unit mm)*
G04 Created by KiCad (PCBNEW (5.0.0)) date 09/29/18 14:22:10*
%MOMM*%
%LPD*%
G01*
G04 APERTURE LIST*
G04 #@! TA.AperFunction,Conductor*
%ADD10C,0.100000*%
G04 #@! TD*
G04 #@! TA.AperFunction,SMDPad,CuDef*
%ADD11C,0.950000*%
G04 #@! TD*
G04 #@! TA.AperFunction,ComponentPad*
%ADD12C,5.080000*%
G04 #@! TD*
G04 #@! TA.AperFunction,ComponentPad*
%ADD13C,1.524000*%
G04 #@! TD*
G04 #@! TA.AperFunction,ComponentPad*
%ADD14C,1.520000*%
G04 #@! TD*
G04 #@! TA.AperFunction,SMDPad,CuDef*
%ADD15R,1.500000X0.600000*%
G04 #@! TD*
G04 #@! TA.AperFunction,NonConductor*
%ADD16C,0.254000*%
G04 #@! TD*
G04 APERTURE END LIST*
D10*
G04 #@! TO.N,Net-(C1-Pad1)*
G04 #@! TO.C,C1*
G36*
X39210780Y-71421145D02*
X39233835Y-71424564D01*
X39256444Y-71430228D01*
X39278388Y-71438080D01*
X39299458Y-71448045D01*
X39319449Y-71460027D01*
X39338169Y-71473911D01*
X39355439Y-71489563D01*
X39371091Y-71506833D01*
X39384975Y-71525553D01*
X39396957Y-71545544D01*
X39406922Y-71566614D01*
X39414774Y-71588558D01*
X39420438Y-71611167D01*
X39423857Y-71634222D01*
X39425001Y-71657501D01*
X39425001Y-72132501D01*
X39423857Y-72155780D01*
X39420438Y-72178835D01*
X39414774Y-72201444D01*
X39406922Y-72223388D01*
X39396957Y-72244458D01*
X39384975Y-72264449D01*
X39371091Y-72283169D01*
X39355439Y-72300439D01*
X39338169Y-72316091D01*
X39319449Y-72329975D01*
X39299458Y-72341957D01*
X39278388Y-72351922D01*
X39256444Y-72359774D01*
X39233835Y-72365438D01*
X39210780Y-72368857D01*
X39187501Y-72370001D01*
X38612501Y-72370001D01*
X38589222Y-72368857D01*
X38566167Y-72365438D01*
X38543558Y-72359774D01*
X38521614Y-72351922D01*
X38500544Y-72341957D01*
X38480553Y-72329975D01*
X38461833Y-72316091D01*
X38444563Y-72300439D01*
X38428911Y-72283169D01*
X38415027Y-72264449D01*
X38403045Y-72244458D01*
X38393080Y-72223388D01*
X38385228Y-72201444D01*
X38379564Y-72178835D01*
X38376145Y-72155780D01*
X38375001Y-72132501D01*
X38375001Y-71657501D01*
X38376145Y-71634222D01*
X38379564Y-71611167D01*
X38385228Y-71588558D01*
X38393080Y-71566614D01*
X38403045Y-71545544D01*
X38415027Y-71525553D01*
X38428911Y-71506833D01*
X38444563Y-71489563D01*
X38461833Y-71473911D01*
X38480553Y-71460027D01*
X38500544Y-71448045D01*
X38521614Y-71438080D01*
X38543558Y-71430228D01*
X38566167Y-71424564D01*
X38589222Y-71421145D01*
X38612501Y-71420001D01*
X39187501Y-71420001D01*
X39210780Y-71421145D01*
X39210780Y-71421145D01*
G37*
D11*
G04 #@! TD*
G04 #@! TO.P,C1,1*
G04 #@! TO.N,Net-(C1-Pad1)*
X38900001Y-71895001D03*
D10*
G04 #@! TO.N,GND*
G04 #@! TO.C,C1*
G36*
X40960780Y-71421145D02*
X40983835Y-71424564D01*
X41006444Y-71430228D01*
X41028388Y-71438080D01*
X41049458Y-71448045D01*
X41069449Y-71460027D01*
X41088169Y-71473911D01*
X41105439Y-71489563D01*
X41121091Y-71506833D01*
X41134975Y-71525553D01*
X41146957Y-71545544D01*
X41156922Y-71566614D01*
X41164774Y-71588558D01*
X41170438Y-71611167D01*
X41173857Y-71634222D01*
X41175001Y-71657501D01*
X41175001Y-72132501D01*
X41173857Y-72155780D01*
X41170438Y-72178835D01*
X41164774Y-72201444D01*
X41156922Y-72223388D01*
X41146957Y-72244458D01*
X41134975Y-72264449D01*
X41121091Y-72283169D01*
X41105439Y-72300439D01*
X41088169Y-72316091D01*
X41069449Y-72329975D01*
X41049458Y-72341957D01*
X41028388Y-72351922D01*
X41006444Y-72359774D01*
X40983835Y-72365438D01*
X40960780Y-72368857D01*
X40937501Y-72370001D01*
X40362501Y-72370001D01*
X40339222Y-72368857D01*
X40316167Y-72365438D01*
X40293558Y-72359774D01*
X40271614Y-72351922D01*
X40250544Y-72341957D01*
X40230553Y-72329975D01*
X40211833Y-72316091D01*
X40194563Y-72300439D01*
X40178911Y-72283169D01*
X40165027Y-72264449D01*
X40153045Y-72244458D01*
X40143080Y-72223388D01*
X40135228Y-72201444D01*
X40129564Y-72178835D01*
X40126145Y-72155780D01*
X40125001Y-72132501D01*
X40125001Y-71657501D01*
X40126145Y-71634222D01*
X40129564Y-71611167D01*
X40135228Y-71588558D01*
X40143080Y-71566614D01*
X40153045Y-71545544D01*
X40165027Y-71525553D01*
X40178911Y-71506833D01*
X40194563Y-71489563D01*
X40211833Y-71473911D01*
X40230553Y-71460027D01*
X40250544Y-71448045D01*
X40271614Y-71438080D01*
X40293558Y-71430228D01*
X40316167Y-71424564D01*
X40339222Y-71421145D01*
X40362501Y-71420001D01*
X40937501Y-71420001D01*
X40960780Y-71421145D01*
X40960780Y-71421145D01*
G37*
D11*
G04 #@! TD*
G04 #@! TO.P,C1,2*
G04 #@! TO.N,GND*
X40650001Y-71895001D03*
D10*
G04 #@! TO.N,Net-(C2-Pad1)*
G04 #@! TO.C,C2*
G36*
X42615779Y-55406144D02*
X42638834Y-55409563D01*
X42661443Y-55415227D01*
X42683387Y-55423079D01*
X42704457Y-55433044D01*
X42724448Y-55445026D01*
X42743168Y-55458910D01*
X42760438Y-55474562D01*
X42776090Y-55491832D01*
X42789974Y-55510552D01*
X42801956Y-55530543D01*
X42811921Y-55551613D01*
X42819773Y-55573557D01*
X42825437Y-55596166D01*
X42828856Y-55619221D01*
X42830000Y-55642500D01*
X42830000Y-56117500D01*
X42828856Y-56140779D01*
X42825437Y-56163834D01*
X42819773Y-56186443D01*
X42811921Y-56208387D01*
X42801956Y-56229457D01*
X42789974Y-56249448D01*
X42776090Y-56268168D01*
X42760438Y-56285438D01*
X42743168Y-56301090D01*
X42724448Y-56314974D01*
X42704457Y-56326956D01*
X42683387Y-56336921D01*
X42661443Y-56344773D01*
X42638834Y-56350437D01*
X42615779Y-56353856D01*
X42592500Y-56355000D01*
X42017500Y-56355000D01*
X41994221Y-56353856D01*
X41971166Y-56350437D01*
X41948557Y-56344773D01*
X41926613Y-56336921D01*
X41905543Y-56326956D01*
X41885552Y-56314974D01*
X41866832Y-56301090D01*
X41849562Y-56285438D01*
X41833910Y-56268168D01*
X41820026Y-56249448D01*
X41808044Y-56229457D01*
X41798079Y-56208387D01*
X41790227Y-56186443D01*
X41784563Y-56163834D01*
X41781144Y-56140779D01*
X41780000Y-56117500D01*
X41780000Y-55642500D01*
X41781144Y-55619221D01*
X41784563Y-55596166D01*
X41790227Y-55573557D01*
X41798079Y-55551613D01*
X41808044Y-55530543D01*
X41820026Y-55510552D01*
X41833910Y-55491832D01*
X41849562Y-55474562D01*
X41866832Y-55458910D01*
X41885552Y-55445026D01*
X41905543Y-55433044D01*
X41926613Y-55423079D01*
X41948557Y-55415227D01*
X41971166Y-55409563D01*
X41994221Y-55406144D01*
X42017500Y-55405000D01*
X42592500Y-55405000D01*
X42615779Y-55406144D01*
X42615779Y-55406144D01*
G37*
D11*
G04 #@! TD*
G04 #@! TO.P,C2,1*
G04 #@! TO.N,Net-(C2-Pad1)*
X42305000Y-55880000D03*
D10*
G04 #@! TO.N,GND*
G04 #@! TO.C,C2*
G36*
X44365779Y-55406144D02*
X44388834Y-55409563D01*
X44411443Y-55415227D01*
X44433387Y-55423079D01*
X44454457Y-55433044D01*
X44474448Y-55445026D01*
X44493168Y-55458910D01*
X44510438Y-55474562D01*
X44526090Y-55491832D01*
X44539974Y-55510552D01*
X44551956Y-55530543D01*
X44561921Y-55551613D01*
X44569773Y-55573557D01*
X44575437Y-55596166D01*
X44578856Y-55619221D01*
X44580000Y-55642500D01*
X44580000Y-56117500D01*
X44578856Y-56140779D01*
X44575437Y-56163834D01*
X44569773Y-56186443D01*
X44561921Y-56208387D01*
X44551956Y-56229457D01*
X44539974Y-56249448D01*
X44526090Y-56268168D01*
X44510438Y-56285438D01*
X44493168Y-56301090D01*
X44474448Y-56314974D01*
X44454457Y-56326956D01*
X44433387Y-56336921D01*
X44411443Y-56344773D01*
X44388834Y-56350437D01*
X44365779Y-56353856D01*
X44342500Y-56355000D01*
X43767500Y-56355000D01*
X43744221Y-56353856D01*
X43721166Y-56350437D01*
X43698557Y-56344773D01*
X43676613Y-56336921D01*
X43655543Y-56326956D01*
X43635552Y-56314974D01*
X43616832Y-56301090D01*
X43599562Y-56285438D01*
X43583910Y-56268168D01*
X43570026Y-56249448D01*
X43558044Y-56229457D01*
X43548079Y-56208387D01*
X43540227Y-56186443D01*
X43534563Y-56163834D01*
X43531144Y-56140779D01*
X43530000Y-56117500D01*
X43530000Y-55642500D01*
X43531144Y-55619221D01*
X43534563Y-55596166D01*
X43540227Y-55573557D01*
X43548079Y-55551613D01*
X43558044Y-55530543D01*
X43570026Y-55510552D01*
X43583910Y-55491832D01*
X43599562Y-55474562D01*
X43616832Y-55458910D01*
X43635552Y-55445026D01*
X43655543Y-55433044D01*
X43676613Y-55423079D01*
X43698557Y-55415227D01*
X43721166Y-55409563D01*
X43744221Y-55406144D01*
X43767500Y-55405000D01*
X44342500Y-55405000D01*
X44365779Y-55406144D01*
X44365779Y-55406144D01*
G37*
D11*
G04 #@! TD*
G04 #@! TO.P,C2,2*
G04 #@! TO.N,GND*
X44055000Y-55880000D03*
D10*
G04 #@! TO.N,/+12V*
G04 #@! TO.C,C3*
G36*
X64600779Y-51596144D02*
X64623834Y-51599563D01*
X64646443Y-51605227D01*
X64668387Y-51613079D01*
X64689457Y-51623044D01*
X64709448Y-51635026D01*
X64728168Y-51648910D01*
X64745438Y-51664562D01*
X64761090Y-51681832D01*
X64774974Y-51700552D01*
X64786956Y-51720543D01*
X64796921Y-51741613D01*
X64804773Y-51763557D01*
X64810437Y-51786166D01*
X64813856Y-51809221D01*
X64815000Y-51832500D01*
X64815000Y-52307500D01*
X64813856Y-52330779D01*
X64810437Y-52353834D01*
X64804773Y-52376443D01*
X64796921Y-52398387D01*
X64786956Y-52419457D01*
X64774974Y-52439448D01*
X64761090Y-52458168D01*
X64745438Y-52475438D01*
X64728168Y-52491090D01*
X64709448Y-52504974D01*
X64689457Y-52516956D01*
X64668387Y-52526921D01*
X64646443Y-52534773D01*
X64623834Y-52540437D01*
X64600779Y-52543856D01*
X64577500Y-52545000D01*
X64002500Y-52545000D01*
X63979221Y-52543856D01*
X63956166Y-52540437D01*
X63933557Y-52534773D01*
X63911613Y-52526921D01*
X63890543Y-52516956D01*
X63870552Y-52504974D01*
X63851832Y-52491090D01*
X63834562Y-52475438D01*
X63818910Y-52458168D01*
X63805026Y-52439448D01*
X63793044Y-52419457D01*
X63783079Y-52398387D01*
X63775227Y-52376443D01*
X63769563Y-52353834D01*
X63766144Y-52330779D01*
X63765000Y-52307500D01*
X63765000Y-51832500D01*
X63766144Y-51809221D01*
X63769563Y-51786166D01*
X63775227Y-51763557D01*
X63783079Y-51741613D01*
X63793044Y-51720543D01*
X63805026Y-51700552D01*
X63818910Y-51681832D01*
X63834562Y-51664562D01*
X63851832Y-51648910D01*
X63870552Y-51635026D01*
X63890543Y-51623044D01*
X63911613Y-51613079D01*
X63933557Y-51605227D01*
X63956166Y-51599563D01*
X63979221Y-51596144D01*
X64002500Y-51595000D01*
X64577500Y-51595000D01*
X64600779Y-51596144D01*
X64600779Y-51596144D01*
G37*
D11*
G04 #@! TD*
G04 #@! TO.P,C3,1*
G04 #@! TO.N,/+12V*
X64290000Y-52070000D03*
D10*
G04 #@! TO.N,GND*
G04 #@! TO.C,C3*
G36*
X66350779Y-51596144D02*
X66373834Y-51599563D01*
X66396443Y-51605227D01*
X66418387Y-51613079D01*
X66439457Y-51623044D01*
X66459448Y-51635026D01*
X66478168Y-51648910D01*
X66495438Y-51664562D01*
X66511090Y-51681832D01*
X66524974Y-51700552D01*
X66536956Y-51720543D01*
X66546921Y-51741613D01*
X66554773Y-51763557D01*
X66560437Y-51786166D01*
X66563856Y-51809221D01*
X66565000Y-51832500D01*
X66565000Y-52307500D01*
X66563856Y-52330779D01*
X66560437Y-52353834D01*
X66554773Y-52376443D01*
X66546921Y-52398387D01*
X66536956Y-52419457D01*
X66524974Y-52439448D01*
X66511090Y-52458168D01*
X66495438Y-52475438D01*
X66478168Y-52491090D01*
X66459448Y-52504974D01*
X66439457Y-52516956D01*
X66418387Y-52526921D01*
X66396443Y-52534773D01*
X66373834Y-52540437D01*
X66350779Y-52543856D01*
X66327500Y-52545000D01*
X65752500Y-52545000D01*
X65729221Y-52543856D01*
X65706166Y-52540437D01*
X65683557Y-52534773D01*
X65661613Y-52526921D01*
X65640543Y-52516956D01*
X65620552Y-52504974D01*
X65601832Y-52491090D01*
X65584562Y-52475438D01*
X65568910Y-52458168D01*
X65555026Y-52439448D01*
X65543044Y-52419457D01*
X65533079Y-52398387D01*
X65525227Y-52376443D01*
X65519563Y-52353834D01*
X65516144Y-52330779D01*
X65515000Y-52307500D01*
X65515000Y-51832500D01*
X65516144Y-51809221D01*
X65519563Y-51786166D01*
X65525227Y-51763557D01*
X65533079Y-51741613D01*
X65543044Y-51720543D01*
X65555026Y-51700552D01*
X65568910Y-51681832D01*
X65584562Y-51664562D01*
X65601832Y-51648910D01*
X65620552Y-51635026D01*
X65640543Y-51623044D01*
X65661613Y-51613079D01*
X65683557Y-51605227D01*
X65706166Y-51599563D01*
X65729221Y-51596144D01*
X65752500Y-51595000D01*
X66327500Y-51595000D01*
X66350779Y-51596144D01*
X66350779Y-51596144D01*
G37*
D11*
G04 #@! TD*
G04 #@! TO.P,C3,2*
G04 #@! TO.N,GND*
X66040000Y-52070000D03*
D10*
G04 #@! TO.N,Net-(C4-Pad1)*
G04 #@! TO.C,C4*
G36*
X39210780Y-72931145D02*
X39233835Y-72934564D01*
X39256444Y-72940228D01*
X39278388Y-72948080D01*
X39299458Y-72958045D01*
X39319449Y-72970027D01*
X39338169Y-72983911D01*
X39355439Y-72999563D01*
X39371091Y-73016833D01*
X39384975Y-73035553D01*
X39396957Y-73055544D01*
X39406922Y-73076614D01*
X39414774Y-73098558D01*
X39420438Y-73121167D01*
X39423857Y-73144222D01*
X39425001Y-73167501D01*
X39425001Y-73642501D01*
X39423857Y-73665780D01*
X39420438Y-73688835D01*
X39414774Y-73711444D01*
X39406922Y-73733388D01*
X39396957Y-73754458D01*
X39384975Y-73774449D01*
X39371091Y-73793169D01*
X39355439Y-73810439D01*
X39338169Y-73826091D01*
X39319449Y-73839975D01*
X39299458Y-73851957D01*
X39278388Y-73861922D01*
X39256444Y-73869774D01*
X39233835Y-73875438D01*
X39210780Y-73878857D01*
X39187501Y-73880001D01*
X38612501Y-73880001D01*
X38589222Y-73878857D01*
X38566167Y-73875438D01*
X38543558Y-73869774D01*
X38521614Y-73861922D01*
X38500544Y-73851957D01*
X38480553Y-73839975D01*
X38461833Y-73826091D01*
X38444563Y-73810439D01*
X38428911Y-73793169D01*
X38415027Y-73774449D01*
X38403045Y-73754458D01*
X38393080Y-73733388D01*
X38385228Y-73711444D01*
X38379564Y-73688835D01*
X38376145Y-73665780D01*
X38375001Y-73642501D01*
X38375001Y-73167501D01*
X38376145Y-73144222D01*
X38379564Y-73121167D01*
X38385228Y-73098558D01*
X38393080Y-73076614D01*
X38403045Y-73055544D01*
X38415027Y-73035553D01*
X38428911Y-73016833D01*
X38444563Y-72999563D01*
X38461833Y-72983911D01*
X38480553Y-72970027D01*
X38500544Y-72958045D01*
X38521614Y-72948080D01*
X38543558Y-72940228D01*
X38566167Y-72934564D01*
X38589222Y-72931145D01*
X38612501Y-72930001D01*
X39187501Y-72930001D01*
X39210780Y-72931145D01*
X39210780Y-72931145D01*
G37*
D11*
G04 #@! TD*
G04 #@! TO.P,C4,1*
G04 #@! TO.N,Net-(C4-Pad1)*
X38900001Y-73405001D03*
D10*
G04 #@! TO.N,Net-(C4-Pad2)*
G04 #@! TO.C,C4*
G36*
X40960780Y-72931145D02*
X40983835Y-72934564D01*
X41006444Y-72940228D01*
X41028388Y-72948080D01*
X41049458Y-72958045D01*
X41069449Y-72970027D01*
X41088169Y-72983911D01*
X41105439Y-72999563D01*
X41121091Y-73016833D01*
X41134975Y-73035553D01*
X41146957Y-73055544D01*
X41156922Y-73076614D01*
X41164774Y-73098558D01*
X41170438Y-73121167D01*
X41173857Y-73144222D01*
X41175001Y-73167501D01*
X41175001Y-73642501D01*
X41173857Y-73665780D01*
X41170438Y-73688835D01*
X41164774Y-73711444D01*
X41156922Y-73733388D01*
X41146957Y-73754458D01*
X41134975Y-73774449D01*
X41121091Y-73793169D01*
X41105439Y-73810439D01*
X41088169Y-73826091D01*
X41069449Y-73839975D01*
X41049458Y-73851957D01*
X41028388Y-73861922D01*
X41006444Y-73869774D01*
X40983835Y-73875438D01*
X40960780Y-73878857D01*
X40937501Y-73880001D01*
X40362501Y-73880001D01*
X40339222Y-73878857D01*
X40316167Y-73875438D01*
X40293558Y-73869774D01*
X40271614Y-73861922D01*
X40250544Y-73851957D01*
X40230553Y-73839975D01*
X40211833Y-73826091D01*
X40194563Y-73810439D01*
X40178911Y-73793169D01*
X40165027Y-73774449D01*
X40153045Y-73754458D01*
X40143080Y-73733388D01*
X40135228Y-73711444D01*
X40129564Y-73688835D01*
X40126145Y-73665780D01*
X40125001Y-73642501D01*
X40125001Y-73167501D01*
X40126145Y-73144222D01*
X40129564Y-73121167D01*
X40135228Y-73098558D01*
X40143080Y-73076614D01*
X40153045Y-73055544D01*
X40165027Y-73035553D01*
X40178911Y-73016833D01*
X40194563Y-72999563D01*
X40211833Y-72983911D01*
X40230553Y-72970027D01*
X40250544Y-72958045D01*
X40271614Y-72948080D01*
X40293558Y-72940228D01*
X40316167Y-72934564D01*
X40339222Y-72931145D01*
X40362501Y-72930001D01*
X40937501Y-72930001D01*
X40960780Y-72931145D01*
X40960780Y-72931145D01*
G37*
D11*
G04 #@! TD*
G04 #@! TO.P,C4,2*
G04 #@! TO.N,Net-(C4-Pad2)*
X40650001Y-73405001D03*
D10*
G04 #@! TO.N,Net-(C5-Pad1)*
G04 #@! TO.C,C5*
G36*
X38805779Y-55406144D02*
X38828834Y-55409563D01*
X38851443Y-55415227D01*
X38873387Y-55423079D01*
X38894457Y-55433044D01*
X38914448Y-55445026D01*
X38933168Y-55458910D01*
X38950438Y-55474562D01*
X38966090Y-55491832D01*
X38979974Y-55510552D01*
X38991956Y-55530543D01*
X39001921Y-55551613D01*
X39009773Y-55573557D01*
X39015437Y-55596166D01*
X39018856Y-55619221D01*
X39020000Y-55642500D01*
X39020000Y-56117500D01*
X39018856Y-56140779D01*
X39015437Y-56163834D01*
X39009773Y-56186443D01*
X39001921Y-56208387D01*
X38991956Y-56229457D01*
X38979974Y-56249448D01*
X38966090Y-56268168D01*
X38950438Y-56285438D01*
X38933168Y-56301090D01*
X38914448Y-56314974D01*
X38894457Y-56326956D01*
X38873387Y-56336921D01*
X38851443Y-56344773D01*
X38828834Y-56350437D01*
X38805779Y-56353856D01*
X38782500Y-56355000D01*
X38207500Y-56355000D01*
X38184221Y-56353856D01*
X38161166Y-56350437D01*
X38138557Y-56344773D01*
X38116613Y-56336921D01*
X38095543Y-56326956D01*
X38075552Y-56314974D01*
X38056832Y-56301090D01*
X38039562Y-56285438D01*
X38023910Y-56268168D01*
X38010026Y-56249448D01*
X37998044Y-56229457D01*
X37988079Y-56208387D01*
X37980227Y-56186443D01*
X37974563Y-56163834D01*
X37971144Y-56140779D01*
X37970000Y-56117500D01*
X37970000Y-55642500D01*
X37971144Y-55619221D01*
X37974563Y-55596166D01*
X37980227Y-55573557D01*
X37988079Y-55551613D01*
X37998044Y-55530543D01*
X38010026Y-55510552D01*
X38023910Y-55491832D01*
X38039562Y-55474562D01*
X38056832Y-55458910D01*
X38075552Y-55445026D01*
X38095543Y-55433044D01*
X38116613Y-55423079D01*
X38138557Y-55415227D01*
X38161166Y-55409563D01*
X38184221Y-55406144D01*
X38207500Y-55405000D01*
X38782500Y-55405000D01*
X38805779Y-55406144D01*
X38805779Y-55406144D01*
G37*
D11*
G04 #@! TD*
G04 #@! TO.P,C5,1*
G04 #@! TO.N,Net-(C5-Pad1)*
X38495000Y-55880000D03*
D10*
G04 #@! TO.N,Net-(C5-Pad2)*
G04 #@! TO.C,C5*
G36*
X40555779Y-55406144D02*
X40578834Y-55409563D01*
X40601443Y-55415227D01*
X40623387Y-55423079D01*
X40644457Y-55433044D01*
X40664448Y-55445026D01*
X40683168Y-55458910D01*
X40700438Y-55474562D01*
X40716090Y-55491832D01*
X40729974Y-55510552D01*
X40741956Y-55530543D01*
X40751921Y-55551613D01*
X40759773Y-55573557D01*
X40765437Y-55596166D01*
X40768856Y-55619221D01*
X40770000Y-55642500D01*
X40770000Y-56117500D01*
X40768856Y-56140779D01*
X40765437Y-56163834D01*
X40759773Y-56186443D01*
X40751921Y-56208387D01*
X40741956Y-56229457D01*
X40729974Y-56249448D01*
X40716090Y-56268168D01*
X40700438Y-56285438D01*
X40683168Y-56301090D01*
X40664448Y-56314974D01*
X40644457Y-56326956D01*
X40623387Y-56336921D01*
X40601443Y-56344773D01*
X40578834Y-56350437D01*
X40555779Y-56353856D01*
X40532500Y-56355000D01*
X39957500Y-56355000D01*
X39934221Y-56353856D01*
X39911166Y-56350437D01*
X39888557Y-56344773D01*
X39866613Y-56336921D01*
X39845543Y-56326956D01*
X39825552Y-56314974D01*
X39806832Y-56301090D01*
X39789562Y-56285438D01*
X39773910Y-56268168D01*
X39760026Y-56249448D01*
X39748044Y-56229457D01*
X39738079Y-56208387D01*
X39730227Y-56186443D01*
X39724563Y-56163834D01*
X39721144Y-56140779D01*
X39720000Y-56117500D01*
X39720000Y-55642500D01*
X39721144Y-55619221D01*
X39724563Y-55596166D01*
X39730227Y-55573557D01*
X39738079Y-55551613D01*
X39748044Y-55530543D01*
X39760026Y-55510552D01*
X39773910Y-55491832D01*
X39789562Y-55474562D01*
X39806832Y-55458910D01*
X39825552Y-55445026D01*
X39845543Y-55433044D01*
X39866613Y-55423079D01*
X39888557Y-55415227D01*
X39911166Y-55409563D01*
X39934221Y-55406144D01*
X39957500Y-55405000D01*
X40532500Y-55405000D01*
X40555779Y-55406144D01*
X40555779Y-55406144D01*
G37*
D11*
G04 #@! TD*
G04 #@! TO.P,C5,2*
G04 #@! TO.N,Net-(C5-Pad2)*
X40245000Y-55880000D03*
D10*
G04 #@! TO.N,GND*
G04 #@! TO.C,C6*
G36*
X69765779Y-51596144D02*
X69788834Y-51599563D01*
X69811443Y-51605227D01*
X69833387Y-51613079D01*
X69854457Y-51623044D01*
X69874448Y-51635026D01*
X69893168Y-51648910D01*
X69910438Y-51664562D01*
X69926090Y-51681832D01*
X69939974Y-51700552D01*
X69951956Y-51720543D01*
X69961921Y-51741613D01*
X69969773Y-51763557D01*
X69975437Y-51786166D01*
X69978856Y-51809221D01*
X69980000Y-51832500D01*
X69980000Y-52307500D01*
X69978856Y-52330779D01*
X69975437Y-52353834D01*
X69969773Y-52376443D01*
X69961921Y-52398387D01*
X69951956Y-52419457D01*
X69939974Y-52439448D01*
X69926090Y-52458168D01*
X69910438Y-52475438D01*
X69893168Y-52491090D01*
X69874448Y-52504974D01*
X69854457Y-52516956D01*
X69833387Y-52526921D01*
X69811443Y-52534773D01*
X69788834Y-52540437D01*
X69765779Y-52543856D01*
X69742500Y-52545000D01*
X69167500Y-52545000D01*
X69144221Y-52543856D01*
X69121166Y-52540437D01*
X69098557Y-52534773D01*
X69076613Y-52526921D01*
X69055543Y-52516956D01*
X69035552Y-52504974D01*
X69016832Y-52491090D01*
X68999562Y-52475438D01*
X68983910Y-52458168D01*
X68970026Y-52439448D01*
X68958044Y-52419457D01*
X68948079Y-52398387D01*
X68940227Y-52376443D01*
X68934563Y-52353834D01*
X68931144Y-52330779D01*
X68930000Y-52307500D01*
X68930000Y-51832500D01*
X68931144Y-51809221D01*
X68934563Y-51786166D01*
X68940227Y-51763557D01*
X68948079Y-51741613D01*
X68958044Y-51720543D01*
X68970026Y-51700552D01*
X68983910Y-51681832D01*
X68999562Y-51664562D01*
X69016832Y-51648910D01*
X69035552Y-51635026D01*
X69055543Y-51623044D01*
X69076613Y-51613079D01*
X69098557Y-51605227D01*
X69121166Y-51599563D01*
X69144221Y-51596144D01*
X69167500Y-51595000D01*
X69742500Y-51595000D01*
X69765779Y-51596144D01*
X69765779Y-51596144D01*
G37*
D11*
G04 #@! TD*
G04 #@! TO.P,C6,2*
G04 #@! TO.N,GND*
X69455000Y-52070000D03*
D10*
G04 #@! TO.N,+5V*
G04 #@! TO.C,C6*
G36*
X68015779Y-51596144D02*
X68038834Y-51599563D01*
X68061443Y-51605227D01*
X68083387Y-51613079D01*
X68104457Y-51623044D01*
X68124448Y-51635026D01*
X68143168Y-51648910D01*
X68160438Y-51664562D01*
X68176090Y-51681832D01*
X68189974Y-51700552D01*
X68201956Y-51720543D01*
X68211921Y-51741613D01*
X68219773Y-51763557D01*
X68225437Y-51786166D01*
X68228856Y-51809221D01*
X68230000Y-51832500D01*
X68230000Y-52307500D01*
X68228856Y-52330779D01*
X68225437Y-52353834D01*
X68219773Y-52376443D01*
X68211921Y-52398387D01*
X68201956Y-52419457D01*
X68189974Y-52439448D01*
X68176090Y-52458168D01*
X68160438Y-52475438D01*
X68143168Y-52491090D01*
X68124448Y-52504974D01*
X68104457Y-52516956D01*
X68083387Y-52526921D01*
X68061443Y-52534773D01*
X68038834Y-52540437D01*
X68015779Y-52543856D01*
X67992500Y-52545000D01*
X67417500Y-52545000D01*
X67394221Y-52543856D01*
X67371166Y-52540437D01*
X67348557Y-52534773D01*
X67326613Y-52526921D01*
X67305543Y-52516956D01*
X67285552Y-52504974D01*
X67266832Y-52491090D01*
X67249562Y-52475438D01*
X67233910Y-52458168D01*
X67220026Y-52439448D01*
X67208044Y-52419457D01*
X67198079Y-52398387D01*
X67190227Y-52376443D01*
X67184563Y-52353834D01*
X67181144Y-52330779D01*
X67180000Y-52307500D01*
X67180000Y-51832500D01*
X67181144Y-51809221D01*
X67184563Y-51786166D01*
X67190227Y-51763557D01*
X67198079Y-51741613D01*
X67208044Y-51720543D01*
X67220026Y-51700552D01*
X67233910Y-51681832D01*
X67249562Y-51664562D01*
X67266832Y-51648910D01*
X67285552Y-51635026D01*
X67305543Y-51623044D01*
X67326613Y-51613079D01*
X67348557Y-51605227D01*
X67371166Y-51599563D01*
X67394221Y-51596144D01*
X67417500Y-51595000D01*
X67992500Y-51595000D01*
X68015779Y-51596144D01*
X68015779Y-51596144D01*
G37*
D11*
G04 #@! TD*
G04 #@! TO.P,C6,1*
G04 #@! TO.N,+5V*
X67705000Y-52070000D03*
D12*
G04 #@! TO.P,Conn1,1*
G04 #@! TO.N,GND*
X69850000Y-79629000D03*
G04 #@! TO.P,Conn1,2*
G04 #@! TO.N,/+12V*
X69850000Y-87630000D03*
G04 #@! TD*
D13*
G04 #@! TO.P,Conn2,1*
G04 #@! TO.N,Net-(Conn2-Pad1)*
X41910000Y-36830000D03*
G04 #@! TO.P,Conn2,2*
G04 #@! TO.N,Net-(Conn2-Pad2)*
X44450000Y-36830000D03*
G04 #@! TO.P,Conn2,3*
G04 #@! TO.N,GND*
X46990000Y-36830000D03*
G04 #@! TO.P,Conn2,4*
G04 #@! TO.N,TX_1_SL*
X49530000Y-36830000D03*
G04 #@! TO.P,Conn2,5*
G04 #@! TO.N,RX_1_SL*
X52070000Y-36830000D03*
G04 #@! TD*
G04 #@! TO.P,Conn3,1*
G04 #@! TO.N,Net-(Conn3-Pad1)*
X60960000Y-36830000D03*
G04 #@! TO.P,Conn3,2*
G04 #@! TO.N,Net-(Conn3-Pad2)*
X63500000Y-36830000D03*
G04 #@! TO.P,Conn3,3*
G04 #@! TO.N,GND*
X66040000Y-36830000D03*
G04 #@! TO.P,Conn3,4*
G04 #@! TO.N,TX_2_SL*
X68580000Y-36830000D03*
G04 #@! TO.P,Conn3,5*
G04 #@! TO.N,RX_2_SL*
X71120000Y-36830000D03*
G04 #@! TD*
D14*
G04 #@! TO.P,U1,PP5*
G04 #@! TO.N,Net-(U1-PadPP5)*
X42189001Y-45465001D03*
G04 #@! TO.P,U1,PM7*
G04 #@! TO.N,Net-(U1-PadPM7)*
X39649001Y-45465001D03*
G04 #@! TO.P,U1,GND*
G04 #@! TO.N,GND*
X37109001Y-45465001D03*
G04 #@! TO.P,U1,PK7*
G04 #@! TO.N,Net-(U1-PadPK7)*
X59969001Y-48005001D03*
G04 #@! TO.P,U1,PK6*
G04 #@! TO.N,Net-(U1-PadPK6)*
X57429001Y-48005001D03*
G04 #@! TO.P,U1,PH1*
G04 #@! TO.N,Net-(U1-PadPH1)*
X54889001Y-48005001D03*
G04 #@! TO.P,U1,PH0*
G04 #@! TO.N,Net-(U1-PadPH0)*
X52349001Y-48005001D03*
G04 #@! TO.P,U1,PM2*
G04 #@! TO.N,Net-(U1-PadPM2)*
X49809001Y-48005001D03*
G04 #@! TO.P,U1,PM1*
G04 #@! TO.N,Net-(U1-PadPM1)*
X47269001Y-48005001D03*
G04 #@! TO.P,U1,PM0*
G04 #@! TO.N,Net-(U1-PadPM0)*
X44729001Y-48005001D03*
G04 #@! TO.P,U1,PK5*
G04 #@! TO.N,Net-(U1-PadPK5)*
X42189001Y-48005001D03*
G04 #@! TO.P,U1,PK4*
G04 #@! TO.N,Net-(U1-PadPK4)*
X39649001Y-48005001D03*
G04 #@! TO.P,U1,PG1*
G04 #@! TO.N,Net-(U1-PadPG1)*
X37109001Y-48005001D03*
G04 #@! TO.P,U1,PN4*
G04 #@! TO.N,Net-(U1-PadPN4)*
X59969001Y-91185001D03*
G04 #@! TO.P,U1,PP4*
G04 #@! TO.N,Net-(U1-PadPP4)*
X54889001Y-91185001D03*
G04 #@! TO.P,U1,PD5*
G04 #@! TO.N,Net-(U1-PadPD5)*
X49809001Y-91185001D03*
G04 #@! TO.P,U1,PD4*
G04 #@! TO.N,Net-(U1-PadPD4)*
X47269001Y-91185001D03*
G04 #@! TO.P,U1,PP1*
G04 #@! TO.N,TX_1_IC*
X44729001Y-91185001D03*
G04 #@! TO.P,U1,PP0*
G04 #@! TO.N,RX_1_IC*
X42189001Y-91185001D03*
G04 #@! TO.P,U1,PD2*
G04 #@! TO.N,Net-(U1-PadPD2)*
X39649001Y-91185001D03*
G04 #@! TO.P,U1,PA5*
G04 #@! TO.N,Net-(U1-PadPA5)*
X59969001Y-88645001D03*
G04 #@! TO.P,U1,PK3*
G04 #@! TO.N,Net-(U1-PadPK3)*
X54889001Y-88645001D03*
G04 #@! TO.P,U1,PB5*
G04 #@! TO.N,Net-(U1-PadPB5)*
X44729001Y-88645001D03*
G04 #@! TO.P,U1,PB4*
G04 #@! TO.N,Net-(U1-PadPB4)*
X42189001Y-88645001D03*
G04 #@! TO.P,U1,GND*
G04 #@! TO.N,GND*
X39649001Y-88645001D03*
G04 #@! TO.P,U1,+5V*
G04 #@! TO.N,+5V*
X37109001Y-88645001D03*
G04 #@! TO.P,U1,PK1*
G04 #@! TO.N,TX_2_IC*
X49809001Y-88645001D03*
G04 #@! TO.P,U1,PK2*
G04 #@! TO.N,Net-(U1-PadPK2)*
X52349001Y-88645001D03*
G04 #@! TO.P,U1,PN5*
G04 #@! TO.N,Net-(U1-PadPN5)*
X57429001Y-91185001D03*
G04 #@! TO.P,U1,PA7*
G04 #@! TO.N,Net-(U1-PadPA7)*
X44729001Y-45465001D03*
G04 #@! TO.P,U1,Rese*
G04 #@! TO.N,Net-(U1-PadRese)*
X47269001Y-45465001D03*
G04 #@! TO.P,U1,PA4*
G04 #@! TO.N,Net-(U1-PadPA4)*
X57429001Y-88645001D03*
G04 #@! TO.P,U1,PQ0*
G04 #@! TO.N,Net-(U1-PadPQ0)*
X52349001Y-91185001D03*
G04 #@! TO.P,U1,PP3*
G04 #@! TO.N,Net-(U1-PadPP3)*
X54889001Y-45465001D03*
G04 #@! TO.P,U1,PQ3*
G04 #@! TO.N,Net-(U1-PadPQ3)*
X52349001Y-45465001D03*
G04 #@! TO.P,U1,PK0*
G04 #@! TO.N,RX_2_IC*
X47269001Y-88645001D03*
G04 #@! TO.P,U1,PQ2*
G04 #@! TO.N,Net-(U1-PadPQ2)*
X49809001Y-45465001D03*
G04 #@! TO.P,U1,PQ1*
G04 #@! TO.N,Net-(U1-PadPQ1)*
X57429001Y-45465001D03*
G04 #@! TO.P,U1,PM6*
G04 #@! TO.N,Net-(U1-PadPM6)*
X59969001Y-45465001D03*
G04 #@! TO.P,U1,+3V3*
G04 #@! TO.N,Net-(U1-Pad+3V3)*
X37109001Y-91185001D03*
G04 #@! TD*
D15*
G04 #@! TO.P,U2,16*
G04 #@! TO.N,+5V*
X44610000Y-59055000D03*
G04 #@! TO.P,U2,15*
G04 #@! TO.N,GND*
X44610000Y-60325000D03*
G04 #@! TO.P,U2,14*
G04 #@! TO.N,TX_1_SL*
X44610000Y-61595000D03*
G04 #@! TO.P,U2,13*
G04 #@! TO.N,RX_1_SL*
X44610000Y-62865000D03*
G04 #@! TO.P,U2,12*
G04 #@! TO.N,RX_1_IC*
X44610000Y-64135000D03*
G04 #@! TO.P,U2,11*
G04 #@! TO.N,TX_1_IC*
X44610000Y-65405000D03*
G04 #@! TO.P,U2,10*
G04 #@! TO.N,TX_2_IC*
X44610000Y-66675000D03*
G04 #@! TO.P,U2,9*
G04 #@! TO.N,RX_2_IC*
X44610000Y-67945000D03*
G04 #@! TO.P,U2,8*
G04 #@! TO.N,RX_2_SL*
X39210000Y-67945000D03*
G04 #@! TO.P,U2,7*
G04 #@! TO.N,TX_2_SL*
X39210000Y-66675000D03*
G04 #@! TO.P,U2,6*
G04 #@! TO.N,Net-(C2-Pad1)*
X39210000Y-65405000D03*
G04 #@! TO.P,U2,5*
G04 #@! TO.N,Net-(C5-Pad2)*
X39210000Y-64135000D03*
G04 #@! TO.P,U2,4*
G04 #@! TO.N,Net-(C5-Pad1)*
X39210000Y-62865000D03*
G04 #@! TO.P,U2,3*
G04 #@! TO.N,Net-(C4-Pad2)*
X39210000Y-61595000D03*
G04 #@! TO.P,U2,2*
G04 #@! TO.N,Net-(C1-Pad1)*
X39210000Y-60325000D03*
G04 #@! TO.P,U2,1*
G04 #@! TO.N,Net-(C4-Pad1)*
X39210000Y-59055000D03*
G04 #@! TD*
D13*
G04 #@! TO.P,U3,3*
G04 #@! TO.N,+5V*
X57150000Y-82550000D03*
G04 #@! TO.P,U3,2*
G04 #@! TO.N,GND*
X57150000Y-80010000D03*
G04 #@! TO.P,U3,1*
G04 #@! TO.N,/+12V*
X57150000Y-77470000D03*
G04 #@! TD*
D16*
G36*
X97661382Y-117983000D02*
X35688618Y-117983000D01*
X36016687Y-92065515D01*
X36318797Y-92367625D01*
X36831518Y-92580001D01*
X37386484Y-92580001D01*
X37899205Y-92367625D01*
X38291625Y-91975205D01*
X38379001Y-91764261D01*
X38466377Y-91975205D01*
X38858797Y-92367625D01*
X39371518Y-92580001D01*
X39926484Y-92580001D01*
X40439205Y-92367625D01*
X40831625Y-91975205D01*
X40919001Y-91764261D01*
X41006377Y-91975205D01*
X41398797Y-92367625D01*
X41911518Y-92580001D01*
X42466484Y-92580001D01*
X42979205Y-92367625D01*
X43371625Y-91975205D01*
X43459001Y-91764261D01*
X43546377Y-91975205D01*
X43938797Y-92367625D01*
X44451518Y-92580001D01*
X45006484Y-92580001D01*
X45519205Y-92367625D01*
X45911625Y-91975205D01*
X45999001Y-91764261D01*
X46086377Y-91975205D01*
X46478797Y-92367625D01*
X46991518Y-92580001D01*
X47546484Y-92580001D01*
X48059205Y-92367625D01*
X48451625Y-91975205D01*
X48539001Y-91764261D01*
X48626377Y-91975205D01*
X49018797Y-92367625D01*
X49531518Y-92580001D01*
X50086484Y-92580001D01*
X50599205Y-92367625D01*
X50991625Y-91975205D01*
X51079001Y-91764261D01*
X51166377Y-91975205D01*
X51558797Y-92367625D01*
X52071518Y-92580001D01*
X52626484Y-92580001D01*
X53139205Y-92367625D01*
X53531625Y-91975205D01*
X53619001Y-91764261D01*
X53706377Y-91975205D01*
X54098797Y-92367625D01*
X54611518Y-92580001D01*
X55166484Y-92580001D01*
X55679205Y-92367625D01*
X56071625Y-91975205D01*
X56159001Y-91764261D01*
X56246377Y-91975205D01*
X56638797Y-92367625D01*
X57151518Y-92580001D01*
X57706484Y-92580001D01*
X58219205Y-92367625D01*
X58611625Y-91975205D01*
X58699001Y-91764261D01*
X58786377Y-91975205D01*
X59178797Y-92367625D01*
X59691518Y-92580001D01*
X60246484Y-92580001D01*
X60759205Y-92367625D01*
X61151625Y-91975205D01*
X61364001Y-91462484D01*
X61364001Y-90907518D01*
X61151625Y-90394797D01*
X60759205Y-90002377D01*
X60548261Y-89915001D01*
X60759205Y-89827625D01*
X61151625Y-89435205D01*
X61364001Y-88922484D01*
X61364001Y-88367518D01*
X61151625Y-87854797D01*
X60759205Y-87462377D01*
X60246484Y-87250001D01*
X59691518Y-87250001D01*
X59178797Y-87462377D01*
X58786377Y-87854797D01*
X58699001Y-88065741D01*
X58611625Y-87854797D01*
X58219205Y-87462377D01*
X57706484Y-87250001D01*
X57151518Y-87250001D01*
X56638797Y-87462377D01*
X56246377Y-87854797D01*
X56159001Y-88065741D01*
X56071625Y-87854797D01*
X55679205Y-87462377D01*
X55166484Y-87250001D01*
X54611518Y-87250001D01*
X54098797Y-87462377D01*
X53706377Y-87854797D01*
X53619001Y-88065741D01*
X53531625Y-87854797D01*
X53139205Y-87462377D01*
X52626484Y-87250001D01*
X52071518Y-87250001D01*
X51558797Y-87462377D01*
X51166377Y-87854797D01*
X51079001Y-88065741D01*
X50991625Y-87854797D01*
X50599205Y-87462377D01*
X50086484Y-87250001D01*
X49531518Y-87250001D01*
X49018797Y-87462377D01*
X48626377Y-87854797D01*
X48539001Y-88065741D01*
X48451625Y-87854797D01*
X48059205Y-87462377D01*
X47546484Y-87250001D01*
X46991518Y-87250001D01*
X46478797Y-87462377D01*
X46086377Y-87854797D01*
X45999001Y-88065741D01*
X45911625Y-87854797D01*
X45519205Y-87462377D01*
X45006484Y-87250001D01*
X44451518Y-87250001D01*
X43938797Y-87462377D01*
X43546377Y-87854797D01*
X43459001Y-88065741D01*
X43371625Y-87854797D01*
X42979205Y-87462377D01*
X42466484Y-87250001D01*
X41911518Y-87250001D01*
X41398797Y-87462377D01*
X41006377Y-87854797D01*
X40919001Y-88065741D01*
X40831625Y-87854797D01*
X40439205Y-87462377D01*
X39926484Y-87250001D01*
X39371518Y-87250001D01*
X38858797Y-87462377D01*
X38466377Y-87854797D01*
X38379001Y-88065741D01*
X38291625Y-87854797D01*
X37899205Y-87462377D01*
X37386484Y-87250001D01*
X36831518Y-87250001D01*
X36318797Y-87462377D01*
X36071829Y-87709345D01*
X36080827Y-86998453D01*
X66675000Y-86998453D01*
X66675000Y-88261547D01*
X67158365Y-89428493D01*
X68051507Y-90321635D01*
X69218453Y-90805000D01*
X70481547Y-90805000D01*
X71648493Y-90321635D01*
X72541635Y-89428493D01*
X73025000Y-88261547D01*
X73025000Y-86998453D01*
X72541635Y-85831507D01*
X71648493Y-84938365D01*
X70481547Y-84455000D01*
X69218453Y-84455000D01*
X68051507Y-84938365D01*
X67158365Y-85831507D01*
X66675000Y-86998453D01*
X36080827Y-86998453D01*
X36204957Y-77192119D01*
X55753000Y-77192119D01*
X55753000Y-77747881D01*
X55965680Y-78261337D01*
X56358663Y-78654320D01*
X56565513Y-78740000D01*
X56358663Y-78825680D01*
X55965680Y-79218663D01*
X55753000Y-79732119D01*
X55753000Y-80287881D01*
X55965680Y-80801337D01*
X56358663Y-81194320D01*
X56565513Y-81280000D01*
X56358663Y-81365680D01*
X55965680Y-81758663D01*
X55753000Y-82272119D01*
X55753000Y-82827881D01*
X55965680Y-83341337D01*
X56358663Y-83734320D01*
X56872119Y-83947000D01*
X57427881Y-83947000D01*
X57941337Y-83734320D01*
X58334320Y-83341337D01*
X58547000Y-82827881D01*
X58547000Y-82272119D01*
X58334320Y-81758663D01*
X57941337Y-81365680D01*
X57734487Y-81280000D01*
X57941337Y-81194320D01*
X58334320Y-80801337D01*
X58547000Y-80287881D01*
X58547000Y-79732119D01*
X58334320Y-79218663D01*
X58113110Y-78997453D01*
X66675000Y-78997453D01*
X66675000Y-80260547D01*
X67158365Y-81427493D01*
X68051507Y-82320635D01*
X69218453Y-82804000D01*
X70481547Y-82804000D01*
X71648493Y-82320635D01*
X72541635Y-81427493D01*
X73025000Y-80260547D01*
X73025000Y-78997453D01*
X72541635Y-77830507D01*
X71648493Y-76937365D01*
X70481547Y-76454000D01*
X69218453Y-76454000D01*
X68051507Y-76937365D01*
X67158365Y-77830507D01*
X66675000Y-78997453D01*
X58113110Y-78997453D01*
X57941337Y-78825680D01*
X57734487Y-78740000D01*
X57941337Y-78654320D01*
X58334320Y-78261337D01*
X58547000Y-77747881D01*
X58547000Y-77192119D01*
X58334320Y-76678663D01*
X57941337Y-76285680D01*
X57427881Y-76073000D01*
X56872119Y-76073000D01*
X56358663Y-76285680D01*
X55965680Y-76678663D01*
X55753000Y-77192119D01*
X36204957Y-77192119D01*
X36275016Y-71657501D01*
X37727561Y-71657501D01*
X37727561Y-72132501D01*
X37794923Y-72471153D01*
X37914426Y-72650001D01*
X37794923Y-72828849D01*
X37727561Y-73167501D01*
X37727561Y-73642501D01*
X37794923Y-73981153D01*
X37986754Y-74268248D01*
X38273849Y-74460079D01*
X38612501Y-74527441D01*
X39187501Y-74527441D01*
X39526153Y-74460079D01*
X39775001Y-74293804D01*
X40023849Y-74460079D01*
X40362501Y-74527441D01*
X40937501Y-74527441D01*
X41276153Y-74460079D01*
X41563248Y-74268248D01*
X41755079Y-73981153D01*
X41822441Y-73642501D01*
X41822441Y-73167501D01*
X41755079Y-72828849D01*
X41635576Y-72650001D01*
X41755079Y-72471153D01*
X41822441Y-72132501D01*
X41822441Y-71657501D01*
X41755079Y-71318849D01*
X41563248Y-71031754D01*
X41276153Y-70839923D01*
X40937501Y-70772561D01*
X40362501Y-70772561D01*
X40023849Y-70839923D01*
X39775001Y-71006198D01*
X39526153Y-70839923D01*
X39187501Y-70772561D01*
X38612501Y-70772561D01*
X38273849Y-70839923D01*
X37986754Y-71031754D01*
X37794923Y-71318849D01*
X37727561Y-71657501D01*
X36275016Y-71657501D01*
X36438338Y-58755000D01*
X37812560Y-58755000D01*
X37812560Y-59355000D01*
X37861843Y-59602765D01*
X37920132Y-59690000D01*
X37861843Y-59777235D01*
X37812560Y-60025000D01*
X37812560Y-60625000D01*
X37861843Y-60872765D01*
X37920132Y-60960000D01*
X37861843Y-61047235D01*
X37812560Y-61295000D01*
X37812560Y-61895000D01*
X37861843Y-62142765D01*
X37920132Y-62230000D01*
X37861843Y-62317235D01*
X37812560Y-62565000D01*
X37812560Y-63165000D01*
X37861843Y-63412765D01*
X37920132Y-63500000D01*
X37861843Y-63587235D01*
X37812560Y-63835000D01*
X37812560Y-64435000D01*
X37861843Y-64682765D01*
X37920132Y-64770000D01*
X37861843Y-64857235D01*
X37812560Y-65105000D01*
X37812560Y-65705000D01*
X37861843Y-65952765D01*
X37920132Y-66040000D01*
X37861843Y-66127235D01*
X37812560Y-66375000D01*
X37812560Y-66975000D01*
X37861843Y-67222765D01*
X37920132Y-67310000D01*
X37861843Y-67397235D01*
X37812560Y-67645000D01*
X37812560Y-68245000D01*
X37861843Y-68492765D01*
X38002191Y-68702809D01*
X38212235Y-68843157D01*
X38460000Y-68892440D01*
X39960000Y-68892440D01*
X40207765Y-68843157D01*
X40417809Y-68702809D01*
X40558157Y-68492765D01*
X40607440Y-68245000D01*
X40607440Y-67645000D01*
X40558157Y-67397235D01*
X40499868Y-67310000D01*
X40558157Y-67222765D01*
X40607440Y-66975000D01*
X40607440Y-66375000D01*
X40558157Y-66127235D01*
X40499868Y-66040000D01*
X40558157Y-65952765D01*
X40607440Y-65705000D01*
X40607440Y-65105000D01*
X40558157Y-64857235D01*
X40499868Y-64770000D01*
X40558157Y-64682765D01*
X40607440Y-64435000D01*
X40607440Y-63835000D01*
X40558157Y-63587235D01*
X40499868Y-63500000D01*
X40558157Y-63412765D01*
X40607440Y-63165000D01*
X40607440Y-62565000D01*
X40558157Y-62317235D01*
X40499868Y-62230000D01*
X40558157Y-62142765D01*
X40607440Y-61895000D01*
X40607440Y-61295000D01*
X40558157Y-61047235D01*
X40499868Y-60960000D01*
X40558157Y-60872765D01*
X40607440Y-60625000D01*
X40607440Y-60025000D01*
X40558157Y-59777235D01*
X40499868Y-59690000D01*
X40558157Y-59602765D01*
X40607440Y-59355000D01*
X40607440Y-58755000D01*
X43212560Y-58755000D01*
X43212560Y-59355000D01*
X43261843Y-59602765D01*
X43320132Y-59690000D01*
X43261843Y-59777235D01*
X43212560Y-60025000D01*
X43212560Y-60625000D01*
X43261843Y-60872765D01*
X43320132Y-60960000D01*
X43261843Y-61047235D01*
X43212560Y-61295000D01*
X43212560Y-61895000D01*
X43261843Y-62142765D01*
X43320132Y-62230000D01*
X43261843Y-62317235D01*
X43212560Y-62565000D01*
X43212560Y-63165000D01*
X43261843Y-63412765D01*
X43320132Y-63500000D01*
X43261843Y-63587235D01*
X43212560Y-63835000D01*
X43212560Y-64435000D01*
X43261843Y-64682765D01*
X43320132Y-64770000D01*
X43261843Y-64857235D01*
X43212560Y-65105000D01*
X43212560Y-65705000D01*
X43261843Y-65952765D01*
X43320132Y-66040000D01*
X43261843Y-66127235D01*
X43212560Y-66375000D01*
X43212560Y-66975000D01*
X43261843Y-67222765D01*
X43320132Y-67310000D01*
X43261843Y-67397235D01*
X43212560Y-67645000D01*
X43212560Y-68245000D01*
X43261843Y-68492765D01*
X43402191Y-68702809D01*
X43612235Y-68843157D01*
X43860000Y-68892440D01*
X45360000Y-68892440D01*
X45607765Y-68843157D01*
X45817809Y-68702809D01*
X45958157Y-68492765D01*
X46007440Y-68245000D01*
X46007440Y-67645000D01*
X45958157Y-67397235D01*
X45899868Y-67310000D01*
X45958157Y-67222765D01*
X46007440Y-66975000D01*
X46007440Y-66375000D01*
X45958157Y-66127235D01*
X45899868Y-66040000D01*
X45958157Y-65952765D01*
X46007440Y-65705000D01*
X46007440Y-65105000D01*
X45958157Y-64857235D01*
X45899868Y-64770000D01*
X45958157Y-64682765D01*
X46007440Y-64435000D01*
X46007440Y-63835000D01*
X45958157Y-63587235D01*
X45899868Y-63500000D01*
X45958157Y-63412765D01*
X46007440Y-63165000D01*
X46007440Y-62565000D01*
X45958157Y-62317235D01*
X45899868Y-62230000D01*
X45958157Y-62142765D01*
X46007440Y-61895000D01*
X46007440Y-61295000D01*
X45958157Y-61047235D01*
X45899868Y-60960000D01*
X45958157Y-60872765D01*
X46007440Y-60625000D01*
X46007440Y-60025000D01*
X45958157Y-59777235D01*
X45899868Y-59690000D01*
X45958157Y-59602765D01*
X46007440Y-59355000D01*
X46007440Y-58755000D01*
X45958157Y-58507235D01*
X45817809Y-58297191D01*
X45607765Y-58156843D01*
X45360000Y-58107560D01*
X43860000Y-58107560D01*
X43612235Y-58156843D01*
X43402191Y-58297191D01*
X43261843Y-58507235D01*
X43212560Y-58755000D01*
X40607440Y-58755000D01*
X40558157Y-58507235D01*
X40417809Y-58297191D01*
X40207765Y-58156843D01*
X39960000Y-58107560D01*
X38460000Y-58107560D01*
X38212235Y-58156843D01*
X38002191Y-58297191D01*
X37861843Y-58507235D01*
X37812560Y-58755000D01*
X36438338Y-58755000D01*
X36477737Y-55642500D01*
X37322560Y-55642500D01*
X37322560Y-56117500D01*
X37389922Y-56456152D01*
X37581753Y-56743247D01*
X37868848Y-56935078D01*
X38207500Y-57002440D01*
X38782500Y-57002440D01*
X39121152Y-56935078D01*
X39370000Y-56768803D01*
X39618848Y-56935078D01*
X39957500Y-57002440D01*
X40532500Y-57002440D01*
X40871152Y-56935078D01*
X41158247Y-56743247D01*
X41275000Y-56568514D01*
X41391753Y-56743247D01*
X41678848Y-56935078D01*
X42017500Y-57002440D01*
X42592500Y-57002440D01*
X42931152Y-56935078D01*
X43180000Y-56768803D01*
X43428848Y-56935078D01*
X43767500Y-57002440D01*
X44342500Y-57002440D01*
X44681152Y-56935078D01*
X44968247Y-56743247D01*
X45160078Y-56456152D01*
X45227440Y-56117500D01*
X45227440Y-55642500D01*
X45160078Y-55303848D01*
X44968247Y-55016753D01*
X44681152Y-54824922D01*
X44342500Y-54757560D01*
X43767500Y-54757560D01*
X43428848Y-54824922D01*
X43180000Y-54991197D01*
X42931152Y-54824922D01*
X42592500Y-54757560D01*
X42017500Y-54757560D01*
X41678848Y-54824922D01*
X41391753Y-55016753D01*
X41275000Y-55191486D01*
X41158247Y-55016753D01*
X40871152Y-54824922D01*
X40532500Y-54757560D01*
X39957500Y-54757560D01*
X39618848Y-54824922D01*
X39370000Y-54991197D01*
X39121152Y-54824922D01*
X38782500Y-54757560D01*
X38207500Y-54757560D01*
X37868848Y-54824922D01*
X37581753Y-55016753D01*
X37389922Y-55303848D01*
X37322560Y-55642500D01*
X36477737Y-55642500D01*
X36525965Y-51832500D01*
X63117560Y-51832500D01*
X63117560Y-52307500D01*
X63184922Y-52646152D01*
X63376753Y-52933247D01*
X63663848Y-53125078D01*
X64002500Y-53192440D01*
X64577500Y-53192440D01*
X64916152Y-53125078D01*
X65165000Y-52958803D01*
X65413848Y-53125078D01*
X65752500Y-53192440D01*
X66327500Y-53192440D01*
X66666152Y-53125078D01*
X66872500Y-52987200D01*
X67078848Y-53125078D01*
X67417500Y-53192440D01*
X67992500Y-53192440D01*
X68331152Y-53125078D01*
X68580000Y-52958803D01*
X68828848Y-53125078D01*
X69167500Y-53192440D01*
X69742500Y-53192440D01*
X70081152Y-53125078D01*
X70368247Y-52933247D01*
X70560078Y-52646152D01*
X70627440Y-52307500D01*
X70627440Y-51832500D01*
X70560078Y-51493848D01*
X70368247Y-51206753D01*
X70081152Y-51014922D01*
X69742500Y-50947560D01*
X69167500Y-50947560D01*
X68828848Y-51014922D01*
X68580000Y-51181197D01*
X68331152Y-51014922D01*
X67992500Y-50947560D01*
X67417500Y-50947560D01*
X67078848Y-51014922D01*
X66872500Y-51152800D01*
X66666152Y-51014922D01*
X66327500Y-50947560D01*
X65752500Y-50947560D01*
X65413848Y-51014922D01*
X65165000Y-51181197D01*
X64916152Y-51014922D01*
X64577500Y-50947560D01*
X64002500Y-50947560D01*
X63663848Y-51014922D01*
X63376753Y-51206753D01*
X63184922Y-51493848D01*
X63117560Y-51832500D01*
X36525965Y-51832500D01*
X36558190Y-49286785D01*
X36831518Y-49400001D01*
X37386484Y-49400001D01*
X37899205Y-49187625D01*
X38291625Y-48795205D01*
X38379001Y-48584261D01*
X38466377Y-48795205D01*
X38858797Y-49187625D01*
X39371518Y-49400001D01*
X39926484Y-49400001D01*
X40439205Y-49187625D01*
X40831625Y-48795205D01*
X40919001Y-48584261D01*
X41006377Y-48795205D01*
X41398797Y-49187625D01*
X41911518Y-49400001D01*
X42466484Y-49400001D01*
X42979205Y-49187625D01*
X43371625Y-48795205D01*
X43459001Y-48584261D01*
X43546377Y-48795205D01*
X43938797Y-49187625D01*
X44451518Y-49400001D01*
X45006484Y-49400001D01*
X45519205Y-49187625D01*
X45911625Y-48795205D01*
X45999001Y-48584261D01*
X46086377Y-48795205D01*
X46478797Y-49187625D01*
X46991518Y-49400001D01*
X47546484Y-49400001D01*
X48059205Y-49187625D01*
X48451625Y-48795205D01*
X48539001Y-48584261D01*
X48626377Y-48795205D01*
X49018797Y-49187625D01*
X49531518Y-49400001D01*
X50086484Y-49400001D01*
X50599205Y-49187625D01*
X50991625Y-48795205D01*
X51079001Y-48584261D01*
X51166377Y-48795205D01*
X51558797Y-49187625D01*
X52071518Y-49400001D01*
X52626484Y-49400001D01*
X53139205Y-49187625D01*
X53531625Y-48795205D01*
X53619001Y-48584261D01*
X53706377Y-48795205D01*
X54098797Y-49187625D01*
X54611518Y-49400001D01*
X55166484Y-49400001D01*
X55679205Y-49187625D01*
X56071625Y-48795205D01*
X56159001Y-48584261D01*
X56246377Y-48795205D01*
X56638797Y-49187625D01*
X57151518Y-49400001D01*
X57706484Y-49400001D01*
X58219205Y-49187625D01*
X58611625Y-48795205D01*
X58699001Y-48584261D01*
X58786377Y-48795205D01*
X59178797Y-49187625D01*
X59691518Y-49400001D01*
X60246484Y-49400001D01*
X60759205Y-49187625D01*
X61151625Y-48795205D01*
X61364001Y-48282484D01*
X61364001Y-47727518D01*
X61151625Y-47214797D01*
X60759205Y-46822377D01*
X60548261Y-46735001D01*
X60759205Y-46647625D01*
X61151625Y-46255205D01*
X61364001Y-45742484D01*
X61364001Y-45187518D01*
X61151625Y-44674797D01*
X60759205Y-44282377D01*
X60246484Y-44070001D01*
X59691518Y-44070001D01*
X59178797Y-44282377D01*
X58786377Y-44674797D01*
X58699001Y-44885741D01*
X58611625Y-44674797D01*
X58219205Y-44282377D01*
X57706484Y-44070001D01*
X57151518Y-44070001D01*
X56638797Y-44282377D01*
X56246377Y-44674797D01*
X56159001Y-44885741D01*
X56071625Y-44674797D01*
X55679205Y-44282377D01*
X55166484Y-44070001D01*
X54611518Y-44070001D01*
X54098797Y-44282377D01*
X53706377Y-44674797D01*
X53619001Y-44885741D01*
X53531625Y-44674797D01*
X53139205Y-44282377D01*
X52626484Y-44070001D01*
X52071518Y-44070001D01*
X51558797Y-44282377D01*
X51166377Y-44674797D01*
X51079001Y-44885741D01*
X50991625Y-44674797D01*
X50599205Y-44282377D01*
X50086484Y-44070001D01*
X49531518Y-44070001D01*
X49018797Y-44282377D01*
X48626377Y-44674797D01*
X48539001Y-44885741D01*
X48451625Y-44674797D01*
X48059205Y-44282377D01*
X47546484Y-44070001D01*
X46991518Y-44070001D01*
X46478797Y-44282377D01*
X46086377Y-44674797D01*
X45999001Y-44885741D01*
X45911625Y-44674797D01*
X45519205Y-44282377D01*
X45006484Y-44070001D01*
X44451518Y-44070001D01*
X43938797Y-44282377D01*
X43546377Y-44674797D01*
X43459001Y-44885741D01*
X43371625Y-44674797D01*
X42979205Y-44282377D01*
X42466484Y-44070001D01*
X41911518Y-44070001D01*
X41398797Y-44282377D01*
X41006377Y-44674797D01*
X40919001Y-44885741D01*
X40831625Y-44674797D01*
X40439205Y-44282377D01*
X39926484Y-44070001D01*
X39371518Y-44070001D01*
X38858797Y-44282377D01*
X38466377Y-44674797D01*
X38379001Y-44885741D01*
X38291625Y-44674797D01*
X37899205Y-44282377D01*
X37386484Y-44070001D01*
X36831518Y-44070001D01*
X36623133Y-44156317D01*
X36719388Y-36552119D01*
X40513000Y-36552119D01*
X40513000Y-37107881D01*
X40725680Y-37621337D01*
X41118663Y-38014320D01*
X41632119Y-38227000D01*
X42187881Y-38227000D01*
X42701337Y-38014320D01*
X43094320Y-37621337D01*
X43180000Y-37414487D01*
X43265680Y-37621337D01*
X43658663Y-38014320D01*
X44172119Y-38227000D01*
X44727881Y-38227000D01*
X45241337Y-38014320D01*
X45634320Y-37621337D01*
X45720000Y-37414487D01*
X45805680Y-37621337D01*
X46198663Y-38014320D01*
X46712119Y-38227000D01*
X47267881Y-38227000D01*
X47781337Y-38014320D01*
X48174320Y-37621337D01*
X48260000Y-37414487D01*
X48345680Y-37621337D01*
X48738663Y-38014320D01*
X49252119Y-38227000D01*
X49807881Y-38227000D01*
X50321337Y-38014320D01*
X50714320Y-37621337D01*
X50800000Y-37414487D01*
X50885680Y-37621337D01*
X51278663Y-38014320D01*
X51792119Y-38227000D01*
X52347881Y-38227000D01*
X52861337Y-38014320D01*
X53254320Y-37621337D01*
X53467000Y-37107881D01*
X53467000Y-36552119D01*
X59563000Y-36552119D01*
X59563000Y-37107881D01*
X59775680Y-37621337D01*
X60168663Y-38014320D01*
X60682119Y-38227000D01*
X61237881Y-38227000D01*
X61751337Y-38014320D01*
X62144320Y-37621337D01*
X62230000Y-37414487D01*
X62315680Y-37621337D01*
X62708663Y-38014320D01*
X63222119Y-38227000D01*
X63777881Y-38227000D01*
X64291337Y-38014320D01*
X64684320Y-37621337D01*
X64770000Y-37414487D01*
X64855680Y-37621337D01*
X65248663Y-38014320D01*
X65762119Y-38227000D01*
X66317881Y-38227000D01*
X66831337Y-38014320D01*
X67224320Y-37621337D01*
X67310000Y-37414487D01*
X67395680Y-37621337D01*
X67788663Y-38014320D01*
X68302119Y-38227000D01*
X68857881Y-38227000D01*
X69371337Y-38014320D01*
X69764320Y-37621337D01*
X69850000Y-37414487D01*
X69935680Y-37621337D01*
X70328663Y-38014320D01*
X70842119Y-38227000D01*
X71397881Y-38227000D01*
X71911337Y-38014320D01*
X72304320Y-37621337D01*
X72517000Y-37107881D01*
X72517000Y-36552119D01*
X72304320Y-36038663D01*
X71911337Y-35645680D01*
X71397881Y-35433000D01*
X70842119Y-35433000D01*
X70328663Y-35645680D01*
X69935680Y-36038663D01*
X69850000Y-36245513D01*
X69764320Y-36038663D01*
X69371337Y-35645680D01*
X68857881Y-35433000D01*
X68302119Y-35433000D01*
X67788663Y-35645680D01*
X67395680Y-36038663D01*
X67310000Y-36245513D01*
X67224320Y-36038663D01*
X66831337Y-35645680D01*
X66317881Y-35433000D01*
X65762119Y-35433000D01*
X65248663Y-35645680D01*
X64855680Y-36038663D01*
X64770000Y-36245513D01*
X64684320Y-36038663D01*
X64291337Y-35645680D01*
X63777881Y-35433000D01*
X63222119Y-35433000D01*
X62708663Y-35645680D01*
X62315680Y-36038663D01*
X62230000Y-36245513D01*
X62144320Y-36038663D01*
X61751337Y-35645680D01*
X61237881Y-35433000D01*
X60682119Y-35433000D01*
X60168663Y-35645680D01*
X59775680Y-36038663D01*
X59563000Y-36552119D01*
X53467000Y-36552119D01*
X53254320Y-36038663D01*
X52861337Y-35645680D01*
X52347881Y-35433000D01*
X51792119Y-35433000D01*
X51278663Y-35645680D01*
X50885680Y-36038663D01*
X50800000Y-36245513D01*
X50714320Y-36038663D01*
X50321337Y-35645680D01*
X49807881Y-35433000D01*
X49252119Y-35433000D01*
X48738663Y-35645680D01*
X48345680Y-36038663D01*
X48260000Y-36245513D01*
X48174320Y-36038663D01*
X47781337Y-35645680D01*
X47267881Y-35433000D01*
X46712119Y-35433000D01*
X46198663Y-35645680D01*
X45805680Y-36038663D01*
X45720000Y-36245513D01*
X45634320Y-36038663D01*
X45241337Y-35645680D01*
X44727881Y-35433000D01*
X44172119Y-35433000D01*
X43658663Y-35645680D01*
X43265680Y-36038663D01*
X43180000Y-36245513D01*
X43094320Y-36038663D01*
X42701337Y-35645680D01*
X42187881Y-35433000D01*
X41632119Y-35433000D01*
X41118663Y-35645680D01*
X40725680Y-36038663D01*
X40513000Y-36552119D01*
X36719388Y-36552119D01*
X36830725Y-27756550D01*
X38273864Y-27756550D01*
X38280000Y-28209907D01*
X38280000Y-28663433D01*
X38286346Y-28678753D01*
X38286570Y-28695330D01*
X38621380Y-29503632D01*
X38629969Y-29508332D01*
X38639289Y-29530833D01*
X39303167Y-30194711D01*
X39325668Y-30204031D01*
X39330368Y-30212620D01*
X39751562Y-30380442D01*
X40170567Y-30554000D01*
X40187150Y-30554000D01*
X40202550Y-30560136D01*
X40655907Y-30554000D01*
X41109433Y-30554000D01*
X41124753Y-30547654D01*
X41141330Y-30547430D01*
X41949632Y-30212620D01*
X41954332Y-30204031D01*
X41976833Y-30194711D01*
X42640711Y-29530833D01*
X42650031Y-29508332D01*
X42658620Y-29503632D01*
X42826442Y-29082438D01*
X43000000Y-28663433D01*
X43000000Y-28646850D01*
X43006136Y-28631450D01*
X43000000Y-28178093D01*
X43000000Y-27756550D01*
X50973864Y-27756550D01*
X50980000Y-28209907D01*
X50980000Y-28663433D01*
X50986346Y-28678753D01*
X50986570Y-28695330D01*
X51321380Y-29503632D01*
X51329969Y-29508332D01*
X51339289Y-29530833D01*
X52003167Y-30194711D01*
X52025668Y-30204031D01*
X52030368Y-30212620D01*
X52451562Y-30380442D01*
X52870567Y-30554000D01*
X52887150Y-30554000D01*
X52902550Y-30560136D01*
X53355907Y-30554000D01*
X53809433Y-30554000D01*
X53824753Y-30547654D01*
X53841330Y-30547430D01*
X54649632Y-30212620D01*
X54654332Y-30204031D01*
X54676833Y-30194711D01*
X55340711Y-29530833D01*
X55350031Y-29508332D01*
X55358620Y-29503632D01*
X55526442Y-29082438D01*
X55700000Y-28663433D01*
X55700000Y-28646850D01*
X55706136Y-28631450D01*
X55700000Y-28178093D01*
X55700000Y-27756550D01*
X57323864Y-27756550D01*
X57330000Y-28209907D01*
X57330000Y-28663433D01*
X57336346Y-28678753D01*
X57336570Y-28695330D01*
X57671380Y-29503632D01*
X57679969Y-29508332D01*
X57689289Y-29530833D01*
X58353167Y-30194711D01*
X58375668Y-30204031D01*
X58380368Y-30212620D01*
X58801562Y-30380442D01*
X59220567Y-30554000D01*
X59237150Y-30554000D01*
X59252550Y-30560136D01*
X59705907Y-30554000D01*
X60159433Y-30554000D01*
X60174753Y-30547654D01*
X60191330Y-30547430D01*
X60999632Y-30212620D01*
X61004332Y-30204031D01*
X61026833Y-30194711D01*
X61690711Y-29530833D01*
X61700031Y-29508332D01*
X61708620Y-29503632D01*
X61876442Y-29082438D01*
X62050000Y-28663433D01*
X62050000Y-28646850D01*
X62056136Y-28631450D01*
X62050000Y-28178093D01*
X62050000Y-27756550D01*
X70023864Y-27756550D01*
X70030000Y-28209907D01*
X70030000Y-28663433D01*
X70036346Y-28678753D01*
X70036570Y-28695330D01*
X70371380Y-29503632D01*
X70379969Y-29508332D01*
X70389289Y-29530833D01*
X71053167Y-30194711D01*
X71075668Y-30204031D01*
X71080368Y-30212620D01*
X71501562Y-30380442D01*
X71920567Y-30554000D01*
X71937150Y-30554000D01*
X71952550Y-30560136D01*
X72405907Y-30554000D01*
X72859433Y-30554000D01*
X72874753Y-30547654D01*
X72891330Y-30547430D01*
X73699632Y-30212620D01*
X73704332Y-30204031D01*
X73726833Y-30194711D01*
X74390711Y-29530833D01*
X74400031Y-29508332D01*
X74408620Y-29503632D01*
X74576442Y-29082438D01*
X74750000Y-28663433D01*
X74750000Y-28646850D01*
X74756136Y-28631450D01*
X74750000Y-28178093D01*
X74750000Y-27724567D01*
X74743654Y-27709247D01*
X74743430Y-27692670D01*
X74408620Y-26884368D01*
X74400031Y-26879668D01*
X74390711Y-26857167D01*
X73726833Y-26193289D01*
X73704332Y-26183969D01*
X73699632Y-26175380D01*
X73278438Y-26007558D01*
X72859433Y-25834000D01*
X72842850Y-25834000D01*
X72827450Y-25827864D01*
X72374093Y-25834000D01*
X71920567Y-25834000D01*
X71905247Y-25840346D01*
X71888670Y-25840570D01*
X71080368Y-26175380D01*
X71075668Y-26183969D01*
X71053167Y-26193289D01*
X70389289Y-26857167D01*
X70379969Y-26879668D01*
X70371380Y-26884368D01*
X70203558Y-27305562D01*
X70030000Y-27724567D01*
X70030000Y-27741150D01*
X70023864Y-27756550D01*
X62050000Y-27756550D01*
X62050000Y-27724567D01*
X62043654Y-27709247D01*
X62043430Y-27692670D01*
X61708620Y-26884368D01*
X61700031Y-26879668D01*
X61690711Y-26857167D01*
X61026833Y-26193289D01*
X61004332Y-26183969D01*
X60999632Y-26175380D01*
X60578438Y-26007558D01*
X60159433Y-25834000D01*
X60142850Y-25834000D01*
X60127450Y-25827864D01*
X59674093Y-25834000D01*
X59220567Y-25834000D01*
X59205247Y-25840346D01*
X59188670Y-25840570D01*
X58380368Y-26175380D01*
X58375668Y-26183969D01*
X58353167Y-26193289D01*
X57689289Y-26857167D01*
X57679969Y-26879668D01*
X57671380Y-26884368D01*
X57503558Y-27305562D01*
X57330000Y-27724567D01*
X57330000Y-27741150D01*
X57323864Y-27756550D01*
X55700000Y-27756550D01*
X55700000Y-27724567D01*
X55693654Y-27709247D01*
X55693430Y-27692670D01*
X55358620Y-26884368D01*
X55350031Y-26879668D01*
X55340711Y-26857167D01*
X54676833Y-26193289D01*
X54654332Y-26183969D01*
X54649632Y-26175380D01*
X54228438Y-26007558D01*
X53809433Y-25834000D01*
X53792850Y-25834000D01*
X53777450Y-25827864D01*
X53324093Y-25834000D01*
X52870567Y-25834000D01*
X52855247Y-25840346D01*
X52838670Y-25840570D01*
X52030368Y-26175380D01*
X52025668Y-26183969D01*
X52003167Y-26193289D01*
X51339289Y-26857167D01*
X51329969Y-26879668D01*
X51321380Y-26884368D01*
X51153558Y-27305562D01*
X50980000Y-27724567D01*
X50980000Y-27741150D01*
X50973864Y-27756550D01*
X43000000Y-27756550D01*
X43000000Y-27724567D01*
X42993654Y-27709247D01*
X42993430Y-27692670D01*
X42658620Y-26884368D01*
X42650031Y-26879668D01*
X42640711Y-26857167D01*
X41976833Y-26193289D01*
X41954332Y-26183969D01*
X41949632Y-26175380D01*
X41528438Y-26007558D01*
X41109433Y-25834000D01*
X41092850Y-25834000D01*
X41077450Y-25827864D01*
X40624093Y-25834000D01*
X40170567Y-25834000D01*
X40155247Y-25840346D01*
X40138670Y-25840570D01*
X39330368Y-26175380D01*
X39325668Y-26183969D01*
X39303167Y-26193289D01*
X38639289Y-26857167D01*
X38629969Y-26879668D01*
X38621380Y-26884368D01*
X38453558Y-27305562D01*
X38280000Y-27724567D01*
X38280000Y-27741150D01*
X38273864Y-27756550D01*
X36830725Y-27756550D01*
X36955403Y-17907000D01*
X96394597Y-17907000D01*
X97661382Y-117983000D01*
X97661382Y-117983000D01*
G37*
X97661382Y-117983000D02*
X35688618Y-117983000D01*
X36016687Y-92065515D01*
X36318797Y-92367625D01*
X36831518Y-92580001D01*
X37386484Y-92580001D01*
X37899205Y-92367625D01*
X38291625Y-91975205D01*
X38379001Y-91764261D01*
X38466377Y-91975205D01*
X38858797Y-92367625D01*
X39371518Y-92580001D01*
X39926484Y-92580001D01*
X40439205Y-92367625D01*
X40831625Y-91975205D01*
X40919001Y-91764261D01*
X41006377Y-91975205D01*
X41398797Y-92367625D01*
X41911518Y-92580001D01*
X42466484Y-92580001D01*
X42979205Y-92367625D01*
X43371625Y-91975205D01*
X43459001Y-91764261D01*
X43546377Y-91975205D01*
X43938797Y-92367625D01*
X44451518Y-92580001D01*
X45006484Y-92580001D01*
X45519205Y-92367625D01*
X45911625Y-91975205D01*
X45999001Y-91764261D01*
X46086377Y-91975205D01*
X46478797Y-92367625D01*
X46991518Y-92580001D01*
X47546484Y-92580001D01*
X48059205Y-92367625D01*
X48451625Y-91975205D01*
X48539001Y-91764261D01*
X48626377Y-91975205D01*
X49018797Y-92367625D01*
X49531518Y-92580001D01*
X50086484Y-92580001D01*
X50599205Y-92367625D01*
X50991625Y-91975205D01*
X51079001Y-91764261D01*
X51166377Y-91975205D01*
X51558797Y-92367625D01*
X52071518Y-92580001D01*
X52626484Y-92580001D01*
X53139205Y-92367625D01*
X53531625Y-91975205D01*
X53619001Y-91764261D01*
X53706377Y-91975205D01*
X54098797Y-92367625D01*
X54611518Y-92580001D01*
X55166484Y-92580001D01*
X55679205Y-92367625D01*
X56071625Y-91975205D01*
X56159001Y-91764261D01*
X56246377Y-91975205D01*
X56638797Y-92367625D01*
X57151518Y-92580001D01*
X57706484Y-92580001D01*
X58219205Y-92367625D01*
X58611625Y-91975205D01*
X58699001Y-91764261D01*
X58786377Y-91975205D01*
X59178797Y-92367625D01*
X59691518Y-92580001D01*
X60246484Y-92580001D01*
X60759205Y-92367625D01*
X61151625Y-91975205D01*
X61364001Y-91462484D01*
X61364001Y-90907518D01*
X61151625Y-90394797D01*
X60759205Y-90002377D01*
X60548261Y-89915001D01*
X60759205Y-89827625D01*
X61151625Y-89435205D01*
X61364001Y-88922484D01*
X61364001Y-88367518D01*
X61151625Y-87854797D01*
X60759205Y-87462377D01*
X60246484Y-87250001D01*
X59691518Y-87250001D01*
X59178797Y-87462377D01*
X58786377Y-87854797D01*
X58699001Y-88065741D01*
X58611625Y-87854797D01*
X58219205Y-87462377D01*
X57706484Y-87250001D01*
X57151518Y-87250001D01*
X56638797Y-87462377D01*
X56246377Y-87854797D01*
X56159001Y-88065741D01*
X56071625Y-87854797D01*
X55679205Y-87462377D01*
X55166484Y-87250001D01*
X54611518Y-87250001D01*
X54098797Y-87462377D01*
X53706377Y-87854797D01*
X53619001Y-88065741D01*
X53531625Y-87854797D01*
X53139205Y-87462377D01*
X52626484Y-87250001D01*
X52071518Y-87250001D01*
X51558797Y-87462377D01*
X51166377Y-87854797D01*
X51079001Y-88065741D01*
X50991625Y-87854797D01*
X50599205Y-87462377D01*
X50086484Y-87250001D01*
X49531518Y-87250001D01*
X49018797Y-87462377D01*
X48626377Y-87854797D01*
X48539001Y-88065741D01*
X48451625Y-87854797D01*
X48059205Y-87462377D01*
X47546484Y-87250001D01*
X46991518Y-87250001D01*
X46478797Y-87462377D01*
X46086377Y-87854797D01*
X45999001Y-88065741D01*
X45911625Y-87854797D01*
X45519205Y-87462377D01*
X45006484Y-87250001D01*
X44451518Y-87250001D01*
X43938797Y-87462377D01*
X43546377Y-87854797D01*
X43459001Y-88065741D01*
X43371625Y-87854797D01*
X42979205Y-87462377D01*
X42466484Y-87250001D01*
X41911518Y-87250001D01*
X41398797Y-87462377D01*
X41006377Y-87854797D01*
X40919001Y-88065741D01*
X40831625Y-87854797D01*
X40439205Y-87462377D01*
X39926484Y-87250001D01*
X39371518Y-87250001D01*
X38858797Y-87462377D01*
X38466377Y-87854797D01*
X38379001Y-88065741D01*
X38291625Y-87854797D01*
X37899205Y-87462377D01*
X37386484Y-87250001D01*
X36831518Y-87250001D01*
X36318797Y-87462377D01*
X36071829Y-87709345D01*
X36080827Y-86998453D01*
X66675000Y-86998453D01*
X66675000Y-88261547D01*
X67158365Y-89428493D01*
X68051507Y-90321635D01*
X69218453Y-90805000D01*
X70481547Y-90805000D01*
X71648493Y-90321635D01*
X72541635Y-89428493D01*
X73025000Y-88261547D01*
X73025000Y-86998453D01*
X72541635Y-85831507D01*
X71648493Y-84938365D01*
X70481547Y-84455000D01*
X69218453Y-84455000D01*
X68051507Y-84938365D01*
X67158365Y-85831507D01*
X66675000Y-86998453D01*
X36080827Y-86998453D01*
X36204957Y-77192119D01*
X55753000Y-77192119D01*
X55753000Y-77747881D01*
X55965680Y-78261337D01*
X56358663Y-78654320D01*
X56565513Y-78740000D01*
X56358663Y-78825680D01*
X55965680Y-79218663D01*
X55753000Y-79732119D01*
X55753000Y-80287881D01*
X55965680Y-80801337D01*
X56358663Y-81194320D01*
X56565513Y-81280000D01*
X56358663Y-81365680D01*
X55965680Y-81758663D01*
X55753000Y-82272119D01*
X55753000Y-82827881D01*
X55965680Y-83341337D01*
X56358663Y-83734320D01*
X56872119Y-83947000D01*
X57427881Y-83947000D01*
X57941337Y-83734320D01*
X58334320Y-83341337D01*
X58547000Y-82827881D01*
X58547000Y-82272119D01*
X58334320Y-81758663D01*
X57941337Y-81365680D01*
X57734487Y-81280000D01*
X57941337Y-81194320D01*
X58334320Y-80801337D01*
X58547000Y-80287881D01*
X58547000Y-79732119D01*
X58334320Y-79218663D01*
X58113110Y-78997453D01*
X66675000Y-78997453D01*
X66675000Y-80260547D01*
X67158365Y-81427493D01*
X68051507Y-82320635D01*
X69218453Y-82804000D01*
X70481547Y-82804000D01*
X71648493Y-82320635D01*
X72541635Y-81427493D01*
X73025000Y-80260547D01*
X73025000Y-78997453D01*
X72541635Y-77830507D01*
X71648493Y-76937365D01*
X70481547Y-76454000D01*
X69218453Y-76454000D01*
X68051507Y-76937365D01*
X67158365Y-77830507D01*
X66675000Y-78997453D01*
X58113110Y-78997453D01*
X57941337Y-78825680D01*
X57734487Y-78740000D01*
X57941337Y-78654320D01*
X58334320Y-78261337D01*
X58547000Y-77747881D01*
X58547000Y-77192119D01*
X58334320Y-76678663D01*
X57941337Y-76285680D01*
X57427881Y-76073000D01*
X56872119Y-76073000D01*
X56358663Y-76285680D01*
X55965680Y-76678663D01*
X55753000Y-77192119D01*
X36204957Y-77192119D01*
X36275016Y-71657501D01*
X37727561Y-71657501D01*
X37727561Y-72132501D01*
X37794923Y-72471153D01*
X37914426Y-72650001D01*
X37794923Y-72828849D01*
X37727561Y-73167501D01*
X37727561Y-73642501D01*
X37794923Y-73981153D01*
X37986754Y-74268248D01*
X38273849Y-74460079D01*
X38612501Y-74527441D01*
X39187501Y-74527441D01*
X39526153Y-74460079D01*
X39775001Y-74293804D01*
X40023849Y-74460079D01*
X40362501Y-74527441D01*
X40937501Y-74527441D01*
X41276153Y-74460079D01*
X41563248Y-74268248D01*
X41755079Y-73981153D01*
X41822441Y-73642501D01*
X41822441Y-73167501D01*
X41755079Y-72828849D01*
X41635576Y-72650001D01*
X41755079Y-72471153D01*
X41822441Y-72132501D01*
X41822441Y-71657501D01*
X41755079Y-71318849D01*
X41563248Y-71031754D01*
X41276153Y-70839923D01*
X40937501Y-70772561D01*
X40362501Y-70772561D01*
X40023849Y-70839923D01*
X39775001Y-71006198D01*
X39526153Y-70839923D01*
X39187501Y-70772561D01*
X38612501Y-70772561D01*
X38273849Y-70839923D01*
X37986754Y-71031754D01*
X37794923Y-71318849D01*
X37727561Y-71657501D01*
X36275016Y-71657501D01*
X36438338Y-58755000D01*
X37812560Y-58755000D01*
X37812560Y-59355000D01*
X37861843Y-59602765D01*
X37920132Y-59690000D01*
X37861843Y-59777235D01*
X37812560Y-60025000D01*
X37812560Y-60625000D01*
X37861843Y-60872765D01*
X37920132Y-60960000D01*
X37861843Y-61047235D01*
X37812560Y-61295000D01*
X37812560Y-61895000D01*
X37861843Y-62142765D01*
X37920132Y-62230000D01*
X37861843Y-62317235D01*
X37812560Y-62565000D01*
X37812560Y-63165000D01*
X37861843Y-63412765D01*
X37920132Y-63500000D01*
X37861843Y-63587235D01*
X37812560Y-63835000D01*
X37812560Y-64435000D01*
X37861843Y-64682765D01*
X37920132Y-64770000D01*
X37861843Y-64857235D01*
X37812560Y-65105000D01*
X37812560Y-65705000D01*
X37861843Y-65952765D01*
X37920132Y-66040000D01*
X37861843Y-66127235D01*
X37812560Y-66375000D01*
X37812560Y-66975000D01*
X37861843Y-67222765D01*
X37920132Y-67310000D01*
X37861843Y-67397235D01*
X37812560Y-67645000D01*
X37812560Y-68245000D01*
X37861843Y-68492765D01*
X38002191Y-68702809D01*
X38212235Y-68843157D01*
X38460000Y-68892440D01*
X39960000Y-68892440D01*
X40207765Y-68843157D01*
X40417809Y-68702809D01*
X40558157Y-68492765D01*
X40607440Y-68245000D01*
X40607440Y-67645000D01*
X40558157Y-67397235D01*
X40499868Y-67310000D01*
X40558157Y-67222765D01*
X40607440Y-66975000D01*
X40607440Y-66375000D01*
X40558157Y-66127235D01*
X40499868Y-66040000D01*
X40558157Y-65952765D01*
X40607440Y-65705000D01*
X40607440Y-65105000D01*
X40558157Y-64857235D01*
X40499868Y-64770000D01*
X40558157Y-64682765D01*
X40607440Y-64435000D01*
X40607440Y-63835000D01*
X40558157Y-63587235D01*
X40499868Y-63500000D01*
X40558157Y-63412765D01*
X40607440Y-63165000D01*
X40607440Y-62565000D01*
X40558157Y-62317235D01*
X40499868Y-62230000D01*
X40558157Y-62142765D01*
X40607440Y-61895000D01*
X40607440Y-61295000D01*
X40558157Y-61047235D01*
X40499868Y-60960000D01*
X40558157Y-60872765D01*
X40607440Y-60625000D01*
X40607440Y-60025000D01*
X40558157Y-59777235D01*
X40499868Y-59690000D01*
X40558157Y-59602765D01*
X40607440Y-59355000D01*
X40607440Y-58755000D01*
X43212560Y-58755000D01*
X43212560Y-59355000D01*
X43261843Y-59602765D01*
X43320132Y-59690000D01*
X43261843Y-59777235D01*
X43212560Y-60025000D01*
X43212560Y-60625000D01*
X43261843Y-60872765D01*
X43320132Y-60960000D01*
X43261843Y-61047235D01*
X43212560Y-61295000D01*
X43212560Y-61895000D01*
X43261843Y-62142765D01*
X43320132Y-62230000D01*
X43261843Y-62317235D01*
X43212560Y-62565000D01*
X43212560Y-63165000D01*
X43261843Y-63412765D01*
X43320132Y-63500000D01*
X43261843Y-63587235D01*
X43212560Y-63835000D01*
X43212560Y-64435000D01*
X43261843Y-64682765D01*
X43320132Y-64770000D01*
X43261843Y-64857235D01*
X43212560Y-65105000D01*
X43212560Y-65705000D01*
X43261843Y-65952765D01*
X43320132Y-66040000D01*
X43261843Y-66127235D01*
X43212560Y-66375000D01*
X43212560Y-66975000D01*
X43261843Y-67222765D01*
X43320132Y-67310000D01*
X43261843Y-67397235D01*
X43212560Y-67645000D01*
X43212560Y-68245000D01*
X43261843Y-68492765D01*
X43402191Y-68702809D01*
X43612235Y-68843157D01*
X43860000Y-68892440D01*
X45360000Y-68892440D01*
X45607765Y-68843157D01*
X45817809Y-68702809D01*
X45958157Y-68492765D01*
X46007440Y-68245000D01*
X46007440Y-67645000D01*
X45958157Y-67397235D01*
X45899868Y-67310000D01*
X45958157Y-67222765D01*
X46007440Y-66975000D01*
X46007440Y-66375000D01*
X45958157Y-66127235D01*
X45899868Y-66040000D01*
X45958157Y-65952765D01*
X46007440Y-65705000D01*
X46007440Y-65105000D01*
X45958157Y-64857235D01*
X45899868Y-64770000D01*
X45958157Y-64682765D01*
X46007440Y-64435000D01*
X46007440Y-63835000D01*
X45958157Y-63587235D01*
X45899868Y-63500000D01*
X45958157Y-63412765D01*
X46007440Y-63165000D01*
X46007440Y-62565000D01*
X45958157Y-62317235D01*
X45899868Y-62230000D01*
X45958157Y-62142765D01*
X46007440Y-61895000D01*
X46007440Y-61295000D01*
X45958157Y-61047235D01*
X45899868Y-60960000D01*
X45958157Y-60872765D01*
X46007440Y-60625000D01*
X46007440Y-60025000D01*
X45958157Y-59777235D01*
X45899868Y-59690000D01*
X45958157Y-59602765D01*
X46007440Y-59355000D01*
X46007440Y-58755000D01*
X45958157Y-58507235D01*
X45817809Y-58297191D01*
X45607765Y-58156843D01*
X45360000Y-58107560D01*
X43860000Y-58107560D01*
X43612235Y-58156843D01*
X43402191Y-58297191D01*
X43261843Y-58507235D01*
X43212560Y-58755000D01*
X40607440Y-58755000D01*
X40558157Y-58507235D01*
X40417809Y-58297191D01*
X40207765Y-58156843D01*
X39960000Y-58107560D01*
X38460000Y-58107560D01*
X38212235Y-58156843D01*
X38002191Y-58297191D01*
X37861843Y-58507235D01*
X37812560Y-58755000D01*
X36438338Y-58755000D01*
X36477737Y-55642500D01*
X37322560Y-55642500D01*
X37322560Y-56117500D01*
X37389922Y-56456152D01*
X37581753Y-56743247D01*
X37868848Y-56935078D01*
X38207500Y-57002440D01*
X38782500Y-57002440D01*
X39121152Y-56935078D01*
X39370000Y-56768803D01*
X39618848Y-56935078D01*
X39957500Y-57002440D01*
X40532500Y-57002440D01*
X40871152Y-56935078D01*
X41158247Y-56743247D01*
X41275000Y-56568514D01*
X41391753Y-56743247D01*
X41678848Y-56935078D01*
X42017500Y-57002440D01*
X42592500Y-57002440D01*
X42931152Y-56935078D01*
X43180000Y-56768803D01*
X43428848Y-56935078D01*
X43767500Y-57002440D01*
X44342500Y-57002440D01*
X44681152Y-56935078D01*
X44968247Y-56743247D01*
X45160078Y-56456152D01*
X45227440Y-56117500D01*
X45227440Y-55642500D01*
X45160078Y-55303848D01*
X44968247Y-55016753D01*
X44681152Y-54824922D01*
X44342500Y-54757560D01*
X43767500Y-54757560D01*
X43428848Y-54824922D01*
X43180000Y-54991197D01*
X42931152Y-54824922D01*
X42592500Y-54757560D01*
X42017500Y-54757560D01*
X41678848Y-54824922D01*
X41391753Y-55016753D01*
X41275000Y-55191486D01*
X41158247Y-55016753D01*
X40871152Y-54824922D01*
X40532500Y-54757560D01*
X39957500Y-54757560D01*
X39618848Y-54824922D01*
X39370000Y-54991197D01*
X39121152Y-54824922D01*
X38782500Y-54757560D01*
X38207500Y-54757560D01*
X37868848Y-54824922D01*
X37581753Y-55016753D01*
X37389922Y-55303848D01*
X37322560Y-55642500D01*
X36477737Y-55642500D01*
X36525965Y-51832500D01*
X63117560Y-51832500D01*
X63117560Y-52307500D01*
X63184922Y-52646152D01*
X63376753Y-52933247D01*
X63663848Y-53125078D01*
X64002500Y-53192440D01*
X64577500Y-53192440D01*
X64916152Y-53125078D01*
X65165000Y-52958803D01*
X65413848Y-53125078D01*
X65752500Y-53192440D01*
X66327500Y-53192440D01*
X66666152Y-53125078D01*
X66872500Y-52987200D01*
X67078848Y-53125078D01*
X67417500Y-53192440D01*
X67992500Y-53192440D01*
X68331152Y-53125078D01*
X68580000Y-52958803D01*
X68828848Y-53125078D01*
X69167500Y-53192440D01*
X69742500Y-53192440D01*
X70081152Y-53125078D01*
X70368247Y-52933247D01*
X70560078Y-52646152D01*
X70627440Y-52307500D01*
X70627440Y-51832500D01*
X70560078Y-51493848D01*
X70368247Y-51206753D01*
X70081152Y-51014922D01*
X69742500Y-50947560D01*
X69167500Y-50947560D01*
X68828848Y-51014922D01*
X68580000Y-51181197D01*
X68331152Y-51014922D01*
X67992500Y-50947560D01*
X67417500Y-50947560D01*
X67078848Y-51014922D01*
X66872500Y-51152800D01*
X66666152Y-51014922D01*
X66327500Y-50947560D01*
X65752500Y-50947560D01*
X65413848Y-51014922D01*
X65165000Y-51181197D01*
X64916152Y-51014922D01*
X64577500Y-50947560D01*
X64002500Y-50947560D01*
X63663848Y-51014922D01*
X63376753Y-51206753D01*
X63184922Y-51493848D01*
X63117560Y-51832500D01*
X36525965Y-51832500D01*
X36558190Y-49286785D01*
X36831518Y-49400001D01*
X37386484Y-49400001D01*
X37899205Y-49187625D01*
X38291625Y-48795205D01*
X38379001Y-48584261D01*
X38466377Y-48795205D01*
X38858797Y-49187625D01*
X39371518Y-49400001D01*
X39926484Y-49400001D01*
X40439205Y-49187625D01*
X40831625Y-48795205D01*
X40919001Y-48584261D01*
X41006377Y-48795205D01*
X41398797Y-49187625D01*
X41911518Y-49400001D01*
X42466484Y-49400001D01*
X42979205Y-49187625D01*
X43371625Y-48795205D01*
X43459001Y-48584261D01*
X43546377Y-48795205D01*
X43938797Y-49187625D01*
X44451518Y-49400001D01*
X45006484Y-49400001D01*
X45519205Y-49187625D01*
X45911625Y-48795205D01*
X45999001Y-48584261D01*
X46086377Y-48795205D01*
X46478797Y-49187625D01*
X46991518Y-49400001D01*
X47546484Y-49400001D01*
X48059205Y-49187625D01*
X48451625Y-48795205D01*
X48539001Y-48584261D01*
X48626377Y-48795205D01*
X49018797Y-49187625D01*
X49531518Y-49400001D01*
X50086484Y-49400001D01*
X50599205Y-49187625D01*
X50991625Y-48795205D01*
X51079001Y-48584261D01*
X51166377Y-48795205D01*
X51558797Y-49187625D01*
X52071518Y-49400001D01*
X52626484Y-49400001D01*
X53139205Y-49187625D01*
X53531625Y-48795205D01*
X53619001Y-48584261D01*
X53706377Y-48795205D01*
X54098797Y-49187625D01*
X54611518Y-49400001D01*
X55166484Y-49400001D01*
X55679205Y-49187625D01*
X56071625Y-48795205D01*
X56159001Y-48584261D01*
X56246377Y-48795205D01*
X56638797Y-49187625D01*
X57151518Y-49400001D01*
X57706484Y-49400001D01*
X58219205Y-49187625D01*
X58611625Y-48795205D01*
X58699001Y-48584261D01*
X58786377Y-48795205D01*
X59178797Y-49187625D01*
X59691518Y-49400001D01*
X60246484Y-49400001D01*
X60759205Y-49187625D01*
X61151625Y-48795205D01*
X61364001Y-48282484D01*
X61364001Y-47727518D01*
X61151625Y-47214797D01*
X60759205Y-46822377D01*
X60548261Y-46735001D01*
X60759205Y-46647625D01*
X61151625Y-46255205D01*
X61364001Y-45742484D01*
X61364001Y-45187518D01*
X61151625Y-44674797D01*
X60759205Y-44282377D01*
X60246484Y-44070001D01*
X59691518Y-44070001D01*
X59178797Y-44282377D01*
X58786377Y-44674797D01*
X58699001Y-44885741D01*
X58611625Y-44674797D01*
X58219205Y-44282377D01*
X57706484Y-44070001D01*
X57151518Y-44070001D01*
X56638797Y-44282377D01*
X56246377Y-44674797D01*
X56159001Y-44885741D01*
X56071625Y-44674797D01*
X55679205Y-44282377D01*
X55166484Y-44070001D01*
X54611518Y-44070001D01*
X54098797Y-44282377D01*
X53706377Y-44674797D01*
X53619001Y-44885741D01*
X53531625Y-44674797D01*
X53139205Y-44282377D01*
X52626484Y-44070001D01*
X52071518Y-44070001D01*
X51558797Y-44282377D01*
X51166377Y-44674797D01*
X51079001Y-44885741D01*
X50991625Y-44674797D01*
X50599205Y-44282377D01*
X50086484Y-44070001D01*
X49531518Y-44070001D01*
X49018797Y-44282377D01*
X48626377Y-44674797D01*
X48539001Y-44885741D01*
X48451625Y-44674797D01*
X48059205Y-44282377D01*
X47546484Y-44070001D01*
X46991518Y-44070001D01*
X46478797Y-44282377D01*
X46086377Y-44674797D01*
X45999001Y-44885741D01*
X45911625Y-44674797D01*
X45519205Y-44282377D01*
X45006484Y-44070001D01*
X44451518Y-44070001D01*
X43938797Y-44282377D01*
X43546377Y-44674797D01*
X43459001Y-44885741D01*
X43371625Y-44674797D01*
X42979205Y-44282377D01*
X42466484Y-44070001D01*
X41911518Y-44070001D01*
X41398797Y-44282377D01*
X41006377Y-44674797D01*
X40919001Y-44885741D01*
X40831625Y-44674797D01*
X40439205Y-44282377D01*
X39926484Y-44070001D01*
X39371518Y-44070001D01*
X38858797Y-44282377D01*
X38466377Y-44674797D01*
X38379001Y-44885741D01*
X38291625Y-44674797D01*
X37899205Y-44282377D01*
X37386484Y-44070001D01*
X36831518Y-44070001D01*
X36623133Y-44156317D01*
X36719388Y-36552119D01*
X40513000Y-36552119D01*
X40513000Y-37107881D01*
X40725680Y-37621337D01*
X41118663Y-38014320D01*
X41632119Y-38227000D01*
X42187881Y-38227000D01*
X42701337Y-38014320D01*
X43094320Y-37621337D01*
X43180000Y-37414487D01*
X43265680Y-37621337D01*
X43658663Y-38014320D01*
X44172119Y-38227000D01*
X44727881Y-38227000D01*
X45241337Y-38014320D01*
X45634320Y-37621337D01*
X45720000Y-37414487D01*
X45805680Y-37621337D01*
X46198663Y-38014320D01*
X46712119Y-38227000D01*
X47267881Y-38227000D01*
X47781337Y-38014320D01*
X48174320Y-37621337D01*
X48260000Y-37414487D01*
X48345680Y-37621337D01*
X48738663Y-38014320D01*
X49252119Y-38227000D01*
X49807881Y-38227000D01*
X50321337Y-38014320D01*
X50714320Y-37621337D01*
X50800000Y-37414487D01*
X50885680Y-37621337D01*
X51278663Y-38014320D01*
X51792119Y-38227000D01*
X52347881Y-38227000D01*
X52861337Y-38014320D01*
X53254320Y-37621337D01*
X53467000Y-37107881D01*
X53467000Y-36552119D01*
X59563000Y-36552119D01*
X59563000Y-37107881D01*
X59775680Y-37621337D01*
X60168663Y-38014320D01*
X60682119Y-38227000D01*
X61237881Y-38227000D01*
X61751337Y-38014320D01*
X62144320Y-37621337D01*
X62230000Y-37414487D01*
X62315680Y-37621337D01*
X62708663Y-38014320D01*
X63222119Y-38227000D01*
X63777881Y-38227000D01*
X64291337Y-38014320D01*
X64684320Y-37621337D01*
X64770000Y-37414487D01*
X64855680Y-37621337D01*
X65248663Y-38014320D01*
X65762119Y-38227000D01*
X66317881Y-38227000D01*
X66831337Y-38014320D01*
X67224320Y-37621337D01*
X67310000Y-37414487D01*
X67395680Y-37621337D01*
X67788663Y-38014320D01*
X68302119Y-38227000D01*
X68857881Y-38227000D01*
X69371337Y-38014320D01*
X69764320Y-37621337D01*
X69850000Y-37414487D01*
X69935680Y-37621337D01*
X70328663Y-38014320D01*
X70842119Y-38227000D01*
X71397881Y-38227000D01*
X71911337Y-38014320D01*
X72304320Y-37621337D01*
X72517000Y-37107881D01*
X72517000Y-36552119D01*
X72304320Y-36038663D01*
X71911337Y-35645680D01*
X71397881Y-35433000D01*
X70842119Y-35433000D01*
X70328663Y-35645680D01*
X69935680Y-36038663D01*
X69850000Y-36245513D01*
X69764320Y-36038663D01*
X69371337Y-35645680D01*
X68857881Y-35433000D01*
X68302119Y-35433000D01*
X67788663Y-35645680D01*
X67395680Y-36038663D01*
X67310000Y-36245513D01*
X67224320Y-36038663D01*
X66831337Y-35645680D01*
X66317881Y-35433000D01*
X65762119Y-35433000D01*
X65248663Y-35645680D01*
X64855680Y-36038663D01*
X64770000Y-36245513D01*
X64684320Y-36038663D01*
X64291337Y-35645680D01*
X63777881Y-35433000D01*
X63222119Y-35433000D01*
X62708663Y-35645680D01*
X62315680Y-36038663D01*
X62230000Y-36245513D01*
X62144320Y-36038663D01*
X61751337Y-35645680D01*
X61237881Y-35433000D01*
X60682119Y-35433000D01*
X60168663Y-35645680D01*
X59775680Y-36038663D01*
X59563000Y-36552119D01*
X53467000Y-36552119D01*
X53254320Y-36038663D01*
X52861337Y-35645680D01*
X52347881Y-35433000D01*
X51792119Y-35433000D01*
X51278663Y-35645680D01*
X50885680Y-36038663D01*
X50800000Y-36245513D01*
X50714320Y-36038663D01*
X50321337Y-35645680D01*
X49807881Y-35433000D01*
X49252119Y-35433000D01*
X48738663Y-35645680D01*
X48345680Y-36038663D01*
X48260000Y-36245513D01*
X48174320Y-36038663D01*
X47781337Y-35645680D01*
X47267881Y-35433000D01*
X46712119Y-35433000D01*
X46198663Y-35645680D01*
X45805680Y-36038663D01*
X45720000Y-36245513D01*
X45634320Y-36038663D01*
X45241337Y-35645680D01*
X44727881Y-35433000D01*
X44172119Y-35433000D01*
X43658663Y-35645680D01*
X43265680Y-36038663D01*
X43180000Y-36245513D01*
X43094320Y-36038663D01*
X42701337Y-35645680D01*
X42187881Y-35433000D01*
X41632119Y-35433000D01*
X41118663Y-35645680D01*
X40725680Y-36038663D01*
X40513000Y-36552119D01*
X36719388Y-36552119D01*
X36830725Y-27756550D01*
X38273864Y-27756550D01*
X38280000Y-28209907D01*
X38280000Y-28663433D01*
X38286346Y-28678753D01*
X38286570Y-28695330D01*
X38621380Y-29503632D01*
X38629969Y-29508332D01*
X38639289Y-29530833D01*
X39303167Y-30194711D01*
X39325668Y-30204031D01*
X39330368Y-30212620D01*
X39751562Y-30380442D01*
X40170567Y-30554000D01*
X40187150Y-30554000D01*
X40202550Y-30560136D01*
X40655907Y-30554000D01*
X41109433Y-30554000D01*
X41124753Y-30547654D01*
X41141330Y-30547430D01*
X41949632Y-30212620D01*
X41954332Y-30204031D01*
X41976833Y-30194711D01*
X42640711Y-29530833D01*
X42650031Y-29508332D01*
X42658620Y-29503632D01*
X42826442Y-29082438D01*
X43000000Y-28663433D01*
X43000000Y-28646850D01*
X43006136Y-28631450D01*
X43000000Y-28178093D01*
X43000000Y-27756550D01*
X50973864Y-27756550D01*
X50980000Y-28209907D01*
X50980000Y-28663433D01*
X50986346Y-28678753D01*
X50986570Y-28695330D01*
X51321380Y-29503632D01*
X51329969Y-29508332D01*
X51339289Y-29530833D01*
X52003167Y-30194711D01*
X52025668Y-30204031D01*
X52030368Y-30212620D01*
X52451562Y-30380442D01*
X52870567Y-30554000D01*
X52887150Y-30554000D01*
X52902550Y-30560136D01*
X53355907Y-30554000D01*
X53809433Y-30554000D01*
X53824753Y-30547654D01*
X53841330Y-30547430D01*
X54649632Y-30212620D01*
X54654332Y-30204031D01*
X54676833Y-30194711D01*
X55340711Y-29530833D01*
X55350031Y-29508332D01*
X55358620Y-29503632D01*
X55526442Y-29082438D01*
X55700000Y-28663433D01*
X55700000Y-28646850D01*
X55706136Y-28631450D01*
X55700000Y-28178093D01*
X55700000Y-27756550D01*
X57323864Y-27756550D01*
X57330000Y-28209907D01*
X57330000Y-28663433D01*
X57336346Y-28678753D01*
X57336570Y-28695330D01*
X57671380Y-29503632D01*
X57679969Y-29508332D01*
X57689289Y-29530833D01*
X58353167Y-30194711D01*
X58375668Y-30204031D01*
X58380368Y-30212620D01*
X58801562Y-30380442D01*
X59220567Y-30554000D01*
X59237150Y-30554000D01*
X59252550Y-30560136D01*
X59705907Y-30554000D01*
X60159433Y-30554000D01*
X60174753Y-30547654D01*
X60191330Y-30547430D01*
X60999632Y-30212620D01*
X61004332Y-30204031D01*
X61026833Y-30194711D01*
X61690711Y-29530833D01*
X61700031Y-29508332D01*
X61708620Y-29503632D01*
X61876442Y-29082438D01*
X62050000Y-28663433D01*
X62050000Y-28646850D01*
X62056136Y-28631450D01*
X62050000Y-28178093D01*
X62050000Y-27756550D01*
X70023864Y-27756550D01*
X70030000Y-28209907D01*
X70030000Y-28663433D01*
X70036346Y-28678753D01*
X70036570Y-28695330D01*
X70371380Y-29503632D01*
X70379969Y-29508332D01*
X70389289Y-29530833D01*
X71053167Y-30194711D01*
X71075668Y-30204031D01*
X71080368Y-30212620D01*
X71501562Y-30380442D01*
X71920567Y-30554000D01*
X71937150Y-30554000D01*
X71952550Y-30560136D01*
X72405907Y-30554000D01*
X72859433Y-30554000D01*
X72874753Y-30547654D01*
X72891330Y-30547430D01*
X73699632Y-30212620D01*
X73704332Y-30204031D01*
X73726833Y-30194711D01*
X74390711Y-29530833D01*
X74400031Y-29508332D01*
X74408620Y-29503632D01*
X74576442Y-29082438D01*
X74750000Y-28663433D01*
X74750000Y-28646850D01*
X74756136Y-28631450D01*
X74750000Y-28178093D01*
X74750000Y-27724567D01*
X74743654Y-27709247D01*
X74743430Y-27692670D01*
X74408620Y-26884368D01*
X74400031Y-26879668D01*
X74390711Y-26857167D01*
X73726833Y-26193289D01*
X73704332Y-26183969D01*
X73699632Y-26175380D01*
X73278438Y-26007558D01*
X72859433Y-25834000D01*
X72842850Y-25834000D01*
X72827450Y-25827864D01*
X72374093Y-25834000D01*
X71920567Y-25834000D01*
X71905247Y-25840346D01*
X71888670Y-25840570D01*
X71080368Y-26175380D01*
X71075668Y-26183969D01*
X71053167Y-26193289D01*
X70389289Y-26857167D01*
X70379969Y-26879668D01*
X70371380Y-26884368D01*
X70203558Y-27305562D01*
X70030000Y-27724567D01*
X70030000Y-27741150D01*
X70023864Y-27756550D01*
X62050000Y-27756550D01*
X62050000Y-27724567D01*
X62043654Y-27709247D01*
X62043430Y-27692670D01*
X61708620Y-26884368D01*
X61700031Y-26879668D01*
X61690711Y-26857167D01*
X61026833Y-26193289D01*
X61004332Y-26183969D01*
X60999632Y-26175380D01*
X60578438Y-26007558D01*
X60159433Y-25834000D01*
X60142850Y-25834000D01*
X60127450Y-25827864D01*
X59674093Y-25834000D01*
X59220567Y-25834000D01*
X59205247Y-25840346D01*
X59188670Y-25840570D01*
X58380368Y-26175380D01*
X58375668Y-26183969D01*
X58353167Y-26193289D01*
X57689289Y-26857167D01*
X57679969Y-26879668D01*
X57671380Y-26884368D01*
X57503558Y-27305562D01*
X57330000Y-27724567D01*
X57330000Y-27741150D01*
X57323864Y-27756550D01*
X55700000Y-27756550D01*
X55700000Y-27724567D01*
X55693654Y-27709247D01*
X55693430Y-27692670D01*
X55358620Y-26884368D01*
X55350031Y-26879668D01*
X55340711Y-26857167D01*
X54676833Y-26193289D01*
X54654332Y-26183969D01*
X54649632Y-26175380D01*
X54228438Y-26007558D01*
X53809433Y-25834000D01*
X53792850Y-25834000D01*
X53777450Y-25827864D01*
X53324093Y-25834000D01*
X52870567Y-25834000D01*
X52855247Y-25840346D01*
X52838670Y-25840570D01*
X52030368Y-26175380D01*
X52025668Y-26183969D01*
X52003167Y-26193289D01*
X51339289Y-26857167D01*
X51329969Y-26879668D01*
X51321380Y-26884368D01*
X51153558Y-27305562D01*
X50980000Y-27724567D01*
X50980000Y-27741150D01*
X50973864Y-27756550D01*
X43000000Y-27756550D01*
X43000000Y-27724567D01*
X42993654Y-27709247D01*
X42993430Y-27692670D01*
X42658620Y-26884368D01*
X42650031Y-26879668D01*
X42640711Y-26857167D01*
X41976833Y-26193289D01*
X41954332Y-26183969D01*
X41949632Y-26175380D01*
X41528438Y-26007558D01*
X41109433Y-25834000D01*
X41092850Y-25834000D01*
X41077450Y-25827864D01*
X40624093Y-25834000D01*
X40170567Y-25834000D01*
X40155247Y-25840346D01*
X40138670Y-25840570D01*
X39330368Y-26175380D01*
X39325668Y-26183969D01*
X39303167Y-26193289D01*
X38639289Y-26857167D01*
X38629969Y-26879668D01*
X38621380Y-26884368D01*
X38453558Y-27305562D01*
X38280000Y-27724567D01*
X38280000Y-27741150D01*
X38273864Y-27756550D01*
X36830725Y-27756550D01*
X36955403Y-17907000D01*
X96394597Y-17907000D01*
X97661382Y-117983000D01*
G36*
X43546377Y-89435205D02*
X43938797Y-89827625D01*
X44149741Y-89915001D01*
X43938797Y-90002377D01*
X43546377Y-90394797D01*
X43459001Y-90605741D01*
X43371625Y-90394797D01*
X42979205Y-90002377D01*
X42768261Y-89915001D01*
X42979205Y-89827625D01*
X43371625Y-89435205D01*
X43459001Y-89224261D01*
X43546377Y-89435205D01*
X43546377Y-89435205D01*
G37*
X43546377Y-89435205D02*
X43938797Y-89827625D01*
X44149741Y-89915001D01*
X43938797Y-90002377D01*
X43546377Y-90394797D01*
X43459001Y-90605741D01*
X43371625Y-90394797D01*
X42979205Y-90002377D01*
X42768261Y-89915001D01*
X42979205Y-89827625D01*
X43371625Y-89435205D01*
X43459001Y-89224261D01*
X43546377Y-89435205D01*
G36*
X46086377Y-89435205D02*
X46478797Y-89827625D01*
X46689741Y-89915001D01*
X46478797Y-90002377D01*
X46086377Y-90394797D01*
X45999001Y-90605741D01*
X45911625Y-90394797D01*
X45519205Y-90002377D01*
X45308261Y-89915001D01*
X45519205Y-89827625D01*
X45911625Y-89435205D01*
X45999001Y-89224261D01*
X46086377Y-89435205D01*
X46086377Y-89435205D01*
G37*
X46086377Y-89435205D02*
X46478797Y-89827625D01*
X46689741Y-89915001D01*
X46478797Y-90002377D01*
X46086377Y-90394797D01*
X45999001Y-90605741D01*
X45911625Y-90394797D01*
X45519205Y-90002377D01*
X45308261Y-89915001D01*
X45519205Y-89827625D01*
X45911625Y-89435205D01*
X45999001Y-89224261D01*
X46086377Y-89435205D01*
G36*
X48626377Y-89435205D02*
X49018797Y-89827625D01*
X49229741Y-89915001D01*
X49018797Y-90002377D01*
X48626377Y-90394797D01*
X48539001Y-90605741D01*
X48451625Y-90394797D01*
X48059205Y-90002377D01*
X47848261Y-89915001D01*
X48059205Y-89827625D01*
X48451625Y-89435205D01*
X48539001Y-89224261D01*
X48626377Y-89435205D01*
X48626377Y-89435205D01*
G37*
X48626377Y-89435205D02*
X49018797Y-89827625D01*
X49229741Y-89915001D01*
X49018797Y-90002377D01*
X48626377Y-90394797D01*
X48539001Y-90605741D01*
X48451625Y-90394797D01*
X48059205Y-90002377D01*
X47848261Y-89915001D01*
X48059205Y-89827625D01*
X48451625Y-89435205D01*
X48539001Y-89224261D01*
X48626377Y-89435205D01*
G36*
X51166377Y-89435205D02*
X51558797Y-89827625D01*
X51769741Y-89915001D01*
X51558797Y-90002377D01*
X51166377Y-90394797D01*
X51079001Y-90605741D01*
X50991625Y-90394797D01*
X50599205Y-90002377D01*
X50388261Y-89915001D01*
X50599205Y-89827625D01*
X50991625Y-89435205D01*
X51079001Y-89224261D01*
X51166377Y-89435205D01*
X51166377Y-89435205D01*
G37*
X51166377Y-89435205D02*
X51558797Y-89827625D01*
X51769741Y-89915001D01*
X51558797Y-90002377D01*
X51166377Y-90394797D01*
X51079001Y-90605741D01*
X50991625Y-90394797D01*
X50599205Y-90002377D01*
X50388261Y-89915001D01*
X50599205Y-89827625D01*
X50991625Y-89435205D01*
X51079001Y-89224261D01*
X51166377Y-89435205D01*
G36*
X53706377Y-89435205D02*
X54098797Y-89827625D01*
X54309741Y-89915001D01*
X54098797Y-90002377D01*
X53706377Y-90394797D01*
X53619001Y-90605741D01*
X53531625Y-90394797D01*
X53139205Y-90002377D01*
X52928261Y-89915001D01*
X53139205Y-89827625D01*
X53531625Y-89435205D01*
X53619001Y-89224261D01*
X53706377Y-89435205D01*
X53706377Y-89435205D01*
G37*
X53706377Y-89435205D02*
X54098797Y-89827625D01*
X54309741Y-89915001D01*
X54098797Y-90002377D01*
X53706377Y-90394797D01*
X53619001Y-90605741D01*
X53531625Y-90394797D01*
X53139205Y-90002377D01*
X52928261Y-89915001D01*
X53139205Y-89827625D01*
X53531625Y-89435205D01*
X53619001Y-89224261D01*
X53706377Y-89435205D01*
G36*
X56246377Y-89435205D02*
X56638797Y-89827625D01*
X56849741Y-89915001D01*
X56638797Y-90002377D01*
X56246377Y-90394797D01*
X56159001Y-90605741D01*
X56071625Y-90394797D01*
X55679205Y-90002377D01*
X55468261Y-89915001D01*
X55679205Y-89827625D01*
X56071625Y-89435205D01*
X56159001Y-89224261D01*
X56246377Y-89435205D01*
X56246377Y-89435205D01*
G37*
X56246377Y-89435205D02*
X56638797Y-89827625D01*
X56849741Y-89915001D01*
X56638797Y-90002377D01*
X56246377Y-90394797D01*
X56159001Y-90605741D01*
X56071625Y-90394797D01*
X55679205Y-90002377D01*
X55468261Y-89915001D01*
X55679205Y-89827625D01*
X56071625Y-89435205D01*
X56159001Y-89224261D01*
X56246377Y-89435205D01*
G36*
X58786377Y-89435205D02*
X59178797Y-89827625D01*
X59389741Y-89915001D01*
X59178797Y-90002377D01*
X58786377Y-90394797D01*
X58699001Y-90605741D01*
X58611625Y-90394797D01*
X58219205Y-90002377D01*
X58008261Y-89915001D01*
X58219205Y-89827625D01*
X58611625Y-89435205D01*
X58699001Y-89224261D01*
X58786377Y-89435205D01*
X58786377Y-89435205D01*
G37*
X58786377Y-89435205D02*
X59178797Y-89827625D01*
X59389741Y-89915001D01*
X59178797Y-90002377D01*
X58786377Y-90394797D01*
X58699001Y-90605741D01*
X58611625Y-90394797D01*
X58219205Y-90002377D01*
X58008261Y-89915001D01*
X58219205Y-89827625D01*
X58611625Y-89435205D01*
X58699001Y-89224261D01*
X58786377Y-89435205D01*
G36*
X38466377Y-89435205D02*
X38858797Y-89827625D01*
X39069741Y-89915001D01*
X38858797Y-90002377D01*
X38466377Y-90394797D01*
X38379001Y-90605741D01*
X38291625Y-90394797D01*
X37899205Y-90002377D01*
X37688261Y-89915001D01*
X37899205Y-89827625D01*
X38291625Y-89435205D01*
X38379001Y-89224261D01*
X38466377Y-89435205D01*
X38466377Y-89435205D01*
G37*
X38466377Y-89435205D02*
X38858797Y-89827625D01*
X39069741Y-89915001D01*
X38858797Y-90002377D01*
X38466377Y-90394797D01*
X38379001Y-90605741D01*
X38291625Y-90394797D01*
X37899205Y-90002377D01*
X37688261Y-89915001D01*
X37899205Y-89827625D01*
X38291625Y-89435205D01*
X38379001Y-89224261D01*
X38466377Y-89435205D01*
G36*
X41006377Y-89435205D02*
X41398797Y-89827625D01*
X41609741Y-89915001D01*
X41398797Y-90002377D01*
X41006377Y-90394797D01*
X40919001Y-90605741D01*
X40831625Y-90394797D01*
X40439205Y-90002377D01*
X40228261Y-89915001D01*
X40439205Y-89827625D01*
X40831625Y-89435205D01*
X40919001Y-89224261D01*
X41006377Y-89435205D01*
X41006377Y-89435205D01*
G37*
X41006377Y-89435205D02*
X41398797Y-89827625D01*
X41609741Y-89915001D01*
X41398797Y-90002377D01*
X41006377Y-90394797D01*
X40919001Y-90605741D01*
X40831625Y-90394797D01*
X40439205Y-90002377D01*
X40228261Y-89915001D01*
X40439205Y-89827625D01*
X40831625Y-89435205D01*
X40919001Y-89224261D01*
X41006377Y-89435205D01*
G36*
X36318797Y-89827625D02*
X36529741Y-89915001D01*
X36318797Y-90002377D01*
X36039265Y-90281909D01*
X36048437Y-89557265D01*
X36318797Y-89827625D01*
X36318797Y-89827625D01*
G37*
X36318797Y-89827625D02*
X36529741Y-89915001D01*
X36318797Y-90002377D01*
X36039265Y-90281909D01*
X36048437Y-89557265D01*
X36318797Y-89827625D01*
G36*
X38466377Y-46255205D02*
X38858797Y-46647625D01*
X39069741Y-46735001D01*
X38858797Y-46822377D01*
X38466377Y-47214797D01*
X38379001Y-47425741D01*
X38291625Y-47214797D01*
X37899205Y-46822377D01*
X37688261Y-46735001D01*
X37899205Y-46647625D01*
X38291625Y-46255205D01*
X38379001Y-46044261D01*
X38466377Y-46255205D01*
X38466377Y-46255205D01*
G37*
X38466377Y-46255205D02*
X38858797Y-46647625D01*
X39069741Y-46735001D01*
X38858797Y-46822377D01*
X38466377Y-47214797D01*
X38379001Y-47425741D01*
X38291625Y-47214797D01*
X37899205Y-46822377D01*
X37688261Y-46735001D01*
X37899205Y-46647625D01*
X38291625Y-46255205D01*
X38379001Y-46044261D01*
X38466377Y-46255205D01*
G36*
X41006377Y-46255205D02*
X41398797Y-46647625D01*
X41609741Y-46735001D01*
X41398797Y-46822377D01*
X41006377Y-47214797D01*
X40919001Y-47425741D01*
X40831625Y-47214797D01*
X40439205Y-46822377D01*
X40228261Y-46735001D01*
X40439205Y-46647625D01*
X40831625Y-46255205D01*
X40919001Y-46044261D01*
X41006377Y-46255205D01*
X41006377Y-46255205D01*
G37*
X41006377Y-46255205D02*
X41398797Y-46647625D01*
X41609741Y-46735001D01*
X41398797Y-46822377D01*
X41006377Y-47214797D01*
X40919001Y-47425741D01*
X40831625Y-47214797D01*
X40439205Y-46822377D01*
X40228261Y-46735001D01*
X40439205Y-46647625D01*
X40831625Y-46255205D01*
X40919001Y-46044261D01*
X41006377Y-46255205D01*
G36*
X43546377Y-46255205D02*
X43938797Y-46647625D01*
X44149741Y-46735001D01*
X43938797Y-46822377D01*
X43546377Y-47214797D01*
X43459001Y-47425741D01*
X43371625Y-47214797D01*
X42979205Y-46822377D01*
X42768261Y-46735001D01*
X42979205Y-46647625D01*
X43371625Y-46255205D01*
X43459001Y-46044261D01*
X43546377Y-46255205D01*
X43546377Y-46255205D01*
G37*
X43546377Y-46255205D02*
X43938797Y-46647625D01*
X44149741Y-46735001D01*
X43938797Y-46822377D01*
X43546377Y-47214797D01*
X43459001Y-47425741D01*
X43371625Y-47214797D01*
X42979205Y-46822377D01*
X42768261Y-46735001D01*
X42979205Y-46647625D01*
X43371625Y-46255205D01*
X43459001Y-46044261D01*
X43546377Y-46255205D01*
G36*
X46086377Y-46255205D02*
X46478797Y-46647625D01*
X46689741Y-46735001D01*
X46478797Y-46822377D01*
X46086377Y-47214797D01*
X45999001Y-47425741D01*
X45911625Y-47214797D01*
X45519205Y-46822377D01*
X45308261Y-46735001D01*
X45519205Y-46647625D01*
X45911625Y-46255205D01*
X45999001Y-46044261D01*
X46086377Y-46255205D01*
X46086377Y-46255205D01*
G37*
X46086377Y-46255205D02*
X46478797Y-46647625D01*
X46689741Y-46735001D01*
X46478797Y-46822377D01*
X46086377Y-47214797D01*
X45999001Y-47425741D01*
X45911625Y-47214797D01*
X45519205Y-46822377D01*
X45308261Y-46735001D01*
X45519205Y-46647625D01*
X45911625Y-46255205D01*
X45999001Y-46044261D01*
X46086377Y-46255205D01*
G36*
X51166377Y-46255205D02*
X51558797Y-46647625D01*
X51769741Y-46735001D01*
X51558797Y-46822377D01*
X51166377Y-47214797D01*
X51079001Y-47425741D01*
X50991625Y-47214797D01*
X50599205Y-46822377D01*
X50388261Y-46735001D01*
X50599205Y-46647625D01*
X50991625Y-46255205D01*
X51079001Y-46044261D01*
X51166377Y-46255205D01*
X51166377Y-46255205D01*
G37*
X51166377Y-46255205D02*
X51558797Y-46647625D01*
X51769741Y-46735001D01*
X51558797Y-46822377D01*
X51166377Y-47214797D01*
X51079001Y-47425741D01*
X50991625Y-47214797D01*
X50599205Y-46822377D01*
X50388261Y-46735001D01*
X50599205Y-46647625D01*
X50991625Y-46255205D01*
X51079001Y-46044261D01*
X51166377Y-46255205D01*
G36*
X53706377Y-46255205D02*
X54098797Y-46647625D01*
X54309741Y-46735001D01*
X54098797Y-46822377D01*
X53706377Y-47214797D01*
X53619001Y-47425741D01*
X53531625Y-47214797D01*
X53139205Y-46822377D01*
X52928261Y-46735001D01*
X53139205Y-46647625D01*
X53531625Y-46255205D01*
X53619001Y-46044261D01*
X53706377Y-46255205D01*
X53706377Y-46255205D01*
G37*
X53706377Y-46255205D02*
X54098797Y-46647625D01*
X54309741Y-46735001D01*
X54098797Y-46822377D01*
X53706377Y-47214797D01*
X53619001Y-47425741D01*
X53531625Y-47214797D01*
X53139205Y-46822377D01*
X52928261Y-46735001D01*
X53139205Y-46647625D01*
X53531625Y-46255205D01*
X53619001Y-46044261D01*
X53706377Y-46255205D01*
G36*
X56246377Y-46255205D02*
X56638797Y-46647625D01*
X56849741Y-46735001D01*
X56638797Y-46822377D01*
X56246377Y-47214797D01*
X56159001Y-47425741D01*
X56071625Y-47214797D01*
X55679205Y-46822377D01*
X55468261Y-46735001D01*
X55679205Y-46647625D01*
X56071625Y-46255205D01*
X56159001Y-46044261D01*
X56246377Y-46255205D01*
X56246377Y-46255205D01*
G37*
X56246377Y-46255205D02*
X56638797Y-46647625D01*
X56849741Y-46735001D01*
X56638797Y-46822377D01*
X56246377Y-47214797D01*
X56159001Y-47425741D01*
X56071625Y-47214797D01*
X55679205Y-46822377D01*
X55468261Y-46735001D01*
X55679205Y-46647625D01*
X56071625Y-46255205D01*
X56159001Y-46044261D01*
X56246377Y-46255205D01*
G36*
X58786377Y-46255205D02*
X59178797Y-46647625D01*
X59389741Y-46735001D01*
X59178797Y-46822377D01*
X58786377Y-47214797D01*
X58699001Y-47425741D01*
X58611625Y-47214797D01*
X58219205Y-46822377D01*
X58008261Y-46735001D01*
X58219205Y-46647625D01*
X58611625Y-46255205D01*
X58699001Y-46044261D01*
X58786377Y-46255205D01*
X58786377Y-46255205D01*
G37*
X58786377Y-46255205D02*
X59178797Y-46647625D01*
X59389741Y-46735001D01*
X59178797Y-46822377D01*
X58786377Y-47214797D01*
X58699001Y-47425741D01*
X58611625Y-47214797D01*
X58219205Y-46822377D01*
X58008261Y-46735001D01*
X58219205Y-46647625D01*
X58611625Y-46255205D01*
X58699001Y-46044261D01*
X58786377Y-46255205D01*
G36*
X48626377Y-46255205D02*
X49018797Y-46647625D01*
X49229741Y-46735001D01*
X49018797Y-46822377D01*
X48626377Y-47214797D01*
X48539001Y-47425741D01*
X48451625Y-47214797D01*
X48059205Y-46822377D01*
X47848261Y-46735001D01*
X48059205Y-46647625D01*
X48451625Y-46255205D01*
X48539001Y-46044261D01*
X48626377Y-46255205D01*
X48626377Y-46255205D01*
G37*
X48626377Y-46255205D02*
X49018797Y-46647625D01*
X49229741Y-46735001D01*
X49018797Y-46822377D01*
X48626377Y-47214797D01*
X48539001Y-47425741D01*
X48451625Y-47214797D01*
X48059205Y-46822377D01*
X47848261Y-46735001D01*
X48059205Y-46647625D01*
X48451625Y-46255205D01*
X48539001Y-46044261D01*
X48626377Y-46255205D01*
M02*
