G04 #@! TF.GenerationSoftware,KiCad,Pcbnew,(5.0.0)*
G04 #@! TF.CreationDate,2018-09-29T16:45:37-05:00*
G04 #@! TF.ProjectId,DriveBoard_Hardware,4472697665426F6172645F4861726477,rev?*
G04 #@! TF.SameCoordinates,Original*
G04 #@! TF.FileFunction,Paste,Top*
G04 #@! TF.FilePolarity,Positive*
%FSLAX46Y46*%
G04 Gerber Fmt 4.6, Leading zero omitted, Abs format (unit mm)*
G04 Created by KiCad (PCBNEW (5.0.0)) date 09/29/18 16:45:37*
%MOMM*%
%LPD*%
G01*
G04 APERTURE LIST*
%ADD10C,0.100000*%
%ADD11C,0.950000*%
%ADD12C,5.080000*%
%ADD13C,1.520000*%
%ADD14R,1.500000X0.600000*%
G04 APERTURE END LIST*
D10*
G04 #@! TO.C,C1*
G36*
X45155779Y-56676144D02*
X45178834Y-56679563D01*
X45201443Y-56685227D01*
X45223387Y-56693079D01*
X45244457Y-56703044D01*
X45264448Y-56715026D01*
X45283168Y-56728910D01*
X45300438Y-56744562D01*
X45316090Y-56761832D01*
X45329974Y-56780552D01*
X45341956Y-56800543D01*
X45351921Y-56821613D01*
X45359773Y-56843557D01*
X45365437Y-56866166D01*
X45368856Y-56889221D01*
X45370000Y-56912500D01*
X45370000Y-57387500D01*
X45368856Y-57410779D01*
X45365437Y-57433834D01*
X45359773Y-57456443D01*
X45351921Y-57478387D01*
X45341956Y-57499457D01*
X45329974Y-57519448D01*
X45316090Y-57538168D01*
X45300438Y-57555438D01*
X45283168Y-57571090D01*
X45264448Y-57584974D01*
X45244457Y-57596956D01*
X45223387Y-57606921D01*
X45201443Y-57614773D01*
X45178834Y-57620437D01*
X45155779Y-57623856D01*
X45132500Y-57625000D01*
X44557500Y-57625000D01*
X44534221Y-57623856D01*
X44511166Y-57620437D01*
X44488557Y-57614773D01*
X44466613Y-57606921D01*
X44445543Y-57596956D01*
X44425552Y-57584974D01*
X44406832Y-57571090D01*
X44389562Y-57555438D01*
X44373910Y-57538168D01*
X44360026Y-57519448D01*
X44348044Y-57499457D01*
X44338079Y-57478387D01*
X44330227Y-57456443D01*
X44324563Y-57433834D01*
X44321144Y-57410779D01*
X44320000Y-57387500D01*
X44320000Y-56912500D01*
X44321144Y-56889221D01*
X44324563Y-56866166D01*
X44330227Y-56843557D01*
X44338079Y-56821613D01*
X44348044Y-56800543D01*
X44360026Y-56780552D01*
X44373910Y-56761832D01*
X44389562Y-56744562D01*
X44406832Y-56728910D01*
X44425552Y-56715026D01*
X44445543Y-56703044D01*
X44466613Y-56693079D01*
X44488557Y-56685227D01*
X44511166Y-56679563D01*
X44534221Y-56676144D01*
X44557500Y-56675000D01*
X45132500Y-56675000D01*
X45155779Y-56676144D01*
X45155779Y-56676144D01*
G37*
D11*
X44845000Y-57150000D03*
D10*
G36*
X46905779Y-56676144D02*
X46928834Y-56679563D01*
X46951443Y-56685227D01*
X46973387Y-56693079D01*
X46994457Y-56703044D01*
X47014448Y-56715026D01*
X47033168Y-56728910D01*
X47050438Y-56744562D01*
X47066090Y-56761832D01*
X47079974Y-56780552D01*
X47091956Y-56800543D01*
X47101921Y-56821613D01*
X47109773Y-56843557D01*
X47115437Y-56866166D01*
X47118856Y-56889221D01*
X47120000Y-56912500D01*
X47120000Y-57387500D01*
X47118856Y-57410779D01*
X47115437Y-57433834D01*
X47109773Y-57456443D01*
X47101921Y-57478387D01*
X47091956Y-57499457D01*
X47079974Y-57519448D01*
X47066090Y-57538168D01*
X47050438Y-57555438D01*
X47033168Y-57571090D01*
X47014448Y-57584974D01*
X46994457Y-57596956D01*
X46973387Y-57606921D01*
X46951443Y-57614773D01*
X46928834Y-57620437D01*
X46905779Y-57623856D01*
X46882500Y-57625000D01*
X46307500Y-57625000D01*
X46284221Y-57623856D01*
X46261166Y-57620437D01*
X46238557Y-57614773D01*
X46216613Y-57606921D01*
X46195543Y-57596956D01*
X46175552Y-57584974D01*
X46156832Y-57571090D01*
X46139562Y-57555438D01*
X46123910Y-57538168D01*
X46110026Y-57519448D01*
X46098044Y-57499457D01*
X46088079Y-57478387D01*
X46080227Y-57456443D01*
X46074563Y-57433834D01*
X46071144Y-57410779D01*
X46070000Y-57387500D01*
X46070000Y-56912500D01*
X46071144Y-56889221D01*
X46074563Y-56866166D01*
X46080227Y-56843557D01*
X46088079Y-56821613D01*
X46098044Y-56800543D01*
X46110026Y-56780552D01*
X46123910Y-56761832D01*
X46139562Y-56744562D01*
X46156832Y-56728910D01*
X46175552Y-56715026D01*
X46195543Y-56703044D01*
X46216613Y-56693079D01*
X46238557Y-56685227D01*
X46261166Y-56679563D01*
X46284221Y-56676144D01*
X46307500Y-56675000D01*
X46882500Y-56675000D01*
X46905779Y-56676144D01*
X46905779Y-56676144D01*
G37*
D11*
X46595000Y-57150000D03*
G04 #@! TD*
D10*
G04 #@! TO.C,C2*
G36*
X40900779Y-67181144D02*
X40923834Y-67184563D01*
X40946443Y-67190227D01*
X40968387Y-67198079D01*
X40989457Y-67208044D01*
X41009448Y-67220026D01*
X41028168Y-67233910D01*
X41045438Y-67249562D01*
X41061090Y-67266832D01*
X41074974Y-67285552D01*
X41086956Y-67305543D01*
X41096921Y-67326613D01*
X41104773Y-67348557D01*
X41110437Y-67371166D01*
X41113856Y-67394221D01*
X41115000Y-67417500D01*
X41115000Y-67992500D01*
X41113856Y-68015779D01*
X41110437Y-68038834D01*
X41104773Y-68061443D01*
X41096921Y-68083387D01*
X41086956Y-68104457D01*
X41074974Y-68124448D01*
X41061090Y-68143168D01*
X41045438Y-68160438D01*
X41028168Y-68176090D01*
X41009448Y-68189974D01*
X40989457Y-68201956D01*
X40968387Y-68211921D01*
X40946443Y-68219773D01*
X40923834Y-68225437D01*
X40900779Y-68228856D01*
X40877500Y-68230000D01*
X40402500Y-68230000D01*
X40379221Y-68228856D01*
X40356166Y-68225437D01*
X40333557Y-68219773D01*
X40311613Y-68211921D01*
X40290543Y-68201956D01*
X40270552Y-68189974D01*
X40251832Y-68176090D01*
X40234562Y-68160438D01*
X40218910Y-68143168D01*
X40205026Y-68124448D01*
X40193044Y-68104457D01*
X40183079Y-68083387D01*
X40175227Y-68061443D01*
X40169563Y-68038834D01*
X40166144Y-68015779D01*
X40165000Y-67992500D01*
X40165000Y-67417500D01*
X40166144Y-67394221D01*
X40169563Y-67371166D01*
X40175227Y-67348557D01*
X40183079Y-67326613D01*
X40193044Y-67305543D01*
X40205026Y-67285552D01*
X40218910Y-67266832D01*
X40234562Y-67249562D01*
X40251832Y-67233910D01*
X40270552Y-67220026D01*
X40290543Y-67208044D01*
X40311613Y-67198079D01*
X40333557Y-67190227D01*
X40356166Y-67184563D01*
X40379221Y-67181144D01*
X40402500Y-67180000D01*
X40877500Y-67180000D01*
X40900779Y-67181144D01*
X40900779Y-67181144D01*
G37*
D11*
X40640000Y-67705000D03*
D10*
G36*
X40900779Y-68931144D02*
X40923834Y-68934563D01*
X40946443Y-68940227D01*
X40968387Y-68948079D01*
X40989457Y-68958044D01*
X41009448Y-68970026D01*
X41028168Y-68983910D01*
X41045438Y-68999562D01*
X41061090Y-69016832D01*
X41074974Y-69035552D01*
X41086956Y-69055543D01*
X41096921Y-69076613D01*
X41104773Y-69098557D01*
X41110437Y-69121166D01*
X41113856Y-69144221D01*
X41115000Y-69167500D01*
X41115000Y-69742500D01*
X41113856Y-69765779D01*
X41110437Y-69788834D01*
X41104773Y-69811443D01*
X41096921Y-69833387D01*
X41086956Y-69854457D01*
X41074974Y-69874448D01*
X41061090Y-69893168D01*
X41045438Y-69910438D01*
X41028168Y-69926090D01*
X41009448Y-69939974D01*
X40989457Y-69951956D01*
X40968387Y-69961921D01*
X40946443Y-69969773D01*
X40923834Y-69975437D01*
X40900779Y-69978856D01*
X40877500Y-69980000D01*
X40402500Y-69980000D01*
X40379221Y-69978856D01*
X40356166Y-69975437D01*
X40333557Y-69969773D01*
X40311613Y-69961921D01*
X40290543Y-69951956D01*
X40270552Y-69939974D01*
X40251832Y-69926090D01*
X40234562Y-69910438D01*
X40218910Y-69893168D01*
X40205026Y-69874448D01*
X40193044Y-69854457D01*
X40183079Y-69833387D01*
X40175227Y-69811443D01*
X40169563Y-69788834D01*
X40166144Y-69765779D01*
X40165000Y-69742500D01*
X40165000Y-69167500D01*
X40166144Y-69144221D01*
X40169563Y-69121166D01*
X40175227Y-69098557D01*
X40183079Y-69076613D01*
X40193044Y-69055543D01*
X40205026Y-69035552D01*
X40218910Y-69016832D01*
X40234562Y-68999562D01*
X40251832Y-68983910D01*
X40270552Y-68970026D01*
X40290543Y-68958044D01*
X40311613Y-68948079D01*
X40333557Y-68940227D01*
X40356166Y-68934563D01*
X40379221Y-68931144D01*
X40402500Y-68930000D01*
X40877500Y-68930000D01*
X40900779Y-68931144D01*
X40900779Y-68931144D01*
G37*
D11*
X40640000Y-69455000D03*
G04 #@! TD*
D10*
G04 #@! TO.C,C3*
G36*
X61957379Y-76934744D02*
X61980434Y-76938163D01*
X62003043Y-76943827D01*
X62024987Y-76951679D01*
X62046057Y-76961644D01*
X62066048Y-76973626D01*
X62084768Y-76987510D01*
X62102038Y-77003162D01*
X62117690Y-77020432D01*
X62131574Y-77039152D01*
X62143556Y-77059143D01*
X62153521Y-77080213D01*
X62161373Y-77102157D01*
X62167037Y-77124766D01*
X62170456Y-77147821D01*
X62171600Y-77171100D01*
X62171600Y-77746100D01*
X62170456Y-77769379D01*
X62167037Y-77792434D01*
X62161373Y-77815043D01*
X62153521Y-77836987D01*
X62143556Y-77858057D01*
X62131574Y-77878048D01*
X62117690Y-77896768D01*
X62102038Y-77914038D01*
X62084768Y-77929690D01*
X62066048Y-77943574D01*
X62046057Y-77955556D01*
X62024987Y-77965521D01*
X62003043Y-77973373D01*
X61980434Y-77979037D01*
X61957379Y-77982456D01*
X61934100Y-77983600D01*
X61459100Y-77983600D01*
X61435821Y-77982456D01*
X61412766Y-77979037D01*
X61390157Y-77973373D01*
X61368213Y-77965521D01*
X61347143Y-77955556D01*
X61327152Y-77943574D01*
X61308432Y-77929690D01*
X61291162Y-77914038D01*
X61275510Y-77896768D01*
X61261626Y-77878048D01*
X61249644Y-77858057D01*
X61239679Y-77836987D01*
X61231827Y-77815043D01*
X61226163Y-77792434D01*
X61222744Y-77769379D01*
X61221600Y-77746100D01*
X61221600Y-77171100D01*
X61222744Y-77147821D01*
X61226163Y-77124766D01*
X61231827Y-77102157D01*
X61239679Y-77080213D01*
X61249644Y-77059143D01*
X61261626Y-77039152D01*
X61275510Y-77020432D01*
X61291162Y-77003162D01*
X61308432Y-76987510D01*
X61327152Y-76973626D01*
X61347143Y-76961644D01*
X61368213Y-76951679D01*
X61390157Y-76943827D01*
X61412766Y-76938163D01*
X61435821Y-76934744D01*
X61459100Y-76933600D01*
X61934100Y-76933600D01*
X61957379Y-76934744D01*
X61957379Y-76934744D01*
G37*
D11*
X61696600Y-77458600D03*
D10*
G36*
X61957379Y-78684744D02*
X61980434Y-78688163D01*
X62003043Y-78693827D01*
X62024987Y-78701679D01*
X62046057Y-78711644D01*
X62066048Y-78723626D01*
X62084768Y-78737510D01*
X62102038Y-78753162D01*
X62117690Y-78770432D01*
X62131574Y-78789152D01*
X62143556Y-78809143D01*
X62153521Y-78830213D01*
X62161373Y-78852157D01*
X62167037Y-78874766D01*
X62170456Y-78897821D01*
X62171600Y-78921100D01*
X62171600Y-79496100D01*
X62170456Y-79519379D01*
X62167037Y-79542434D01*
X62161373Y-79565043D01*
X62153521Y-79586987D01*
X62143556Y-79608057D01*
X62131574Y-79628048D01*
X62117690Y-79646768D01*
X62102038Y-79664038D01*
X62084768Y-79679690D01*
X62066048Y-79693574D01*
X62046057Y-79705556D01*
X62024987Y-79715521D01*
X62003043Y-79723373D01*
X61980434Y-79729037D01*
X61957379Y-79732456D01*
X61934100Y-79733600D01*
X61459100Y-79733600D01*
X61435821Y-79732456D01*
X61412766Y-79729037D01*
X61390157Y-79723373D01*
X61368213Y-79715521D01*
X61347143Y-79705556D01*
X61327152Y-79693574D01*
X61308432Y-79679690D01*
X61291162Y-79664038D01*
X61275510Y-79646768D01*
X61261626Y-79628048D01*
X61249644Y-79608057D01*
X61239679Y-79586987D01*
X61231827Y-79565043D01*
X61226163Y-79542434D01*
X61222744Y-79519379D01*
X61221600Y-79496100D01*
X61221600Y-78921100D01*
X61222744Y-78897821D01*
X61226163Y-78874766D01*
X61231827Y-78852157D01*
X61239679Y-78830213D01*
X61249644Y-78809143D01*
X61261626Y-78789152D01*
X61275510Y-78770432D01*
X61291162Y-78753162D01*
X61308432Y-78737510D01*
X61327152Y-78723626D01*
X61347143Y-78711644D01*
X61368213Y-78701679D01*
X61390157Y-78693827D01*
X61412766Y-78688163D01*
X61435821Y-78684744D01*
X61459100Y-78683600D01*
X61934100Y-78683600D01*
X61957379Y-78684744D01*
X61957379Y-78684744D01*
G37*
D11*
X61696600Y-79208600D03*
G04 #@! TD*
D10*
G04 #@! TO.C,C4*
G36*
X40900779Y-59561144D02*
X40923834Y-59564563D01*
X40946443Y-59570227D01*
X40968387Y-59578079D01*
X40989457Y-59588044D01*
X41009448Y-59600026D01*
X41028168Y-59613910D01*
X41045438Y-59629562D01*
X41061090Y-59646832D01*
X41074974Y-59665552D01*
X41086956Y-59685543D01*
X41096921Y-59706613D01*
X41104773Y-59728557D01*
X41110437Y-59751166D01*
X41113856Y-59774221D01*
X41115000Y-59797500D01*
X41115000Y-60372500D01*
X41113856Y-60395779D01*
X41110437Y-60418834D01*
X41104773Y-60441443D01*
X41096921Y-60463387D01*
X41086956Y-60484457D01*
X41074974Y-60504448D01*
X41061090Y-60523168D01*
X41045438Y-60540438D01*
X41028168Y-60556090D01*
X41009448Y-60569974D01*
X40989457Y-60581956D01*
X40968387Y-60591921D01*
X40946443Y-60599773D01*
X40923834Y-60605437D01*
X40900779Y-60608856D01*
X40877500Y-60610000D01*
X40402500Y-60610000D01*
X40379221Y-60608856D01*
X40356166Y-60605437D01*
X40333557Y-60599773D01*
X40311613Y-60591921D01*
X40290543Y-60581956D01*
X40270552Y-60569974D01*
X40251832Y-60556090D01*
X40234562Y-60540438D01*
X40218910Y-60523168D01*
X40205026Y-60504448D01*
X40193044Y-60484457D01*
X40183079Y-60463387D01*
X40175227Y-60441443D01*
X40169563Y-60418834D01*
X40166144Y-60395779D01*
X40165000Y-60372500D01*
X40165000Y-59797500D01*
X40166144Y-59774221D01*
X40169563Y-59751166D01*
X40175227Y-59728557D01*
X40183079Y-59706613D01*
X40193044Y-59685543D01*
X40205026Y-59665552D01*
X40218910Y-59646832D01*
X40234562Y-59629562D01*
X40251832Y-59613910D01*
X40270552Y-59600026D01*
X40290543Y-59588044D01*
X40311613Y-59578079D01*
X40333557Y-59570227D01*
X40356166Y-59564563D01*
X40379221Y-59561144D01*
X40402500Y-59560000D01*
X40877500Y-59560000D01*
X40900779Y-59561144D01*
X40900779Y-59561144D01*
G37*
D11*
X40640000Y-60085000D03*
D10*
G36*
X40900779Y-61311144D02*
X40923834Y-61314563D01*
X40946443Y-61320227D01*
X40968387Y-61328079D01*
X40989457Y-61338044D01*
X41009448Y-61350026D01*
X41028168Y-61363910D01*
X41045438Y-61379562D01*
X41061090Y-61396832D01*
X41074974Y-61415552D01*
X41086956Y-61435543D01*
X41096921Y-61456613D01*
X41104773Y-61478557D01*
X41110437Y-61501166D01*
X41113856Y-61524221D01*
X41115000Y-61547500D01*
X41115000Y-62122500D01*
X41113856Y-62145779D01*
X41110437Y-62168834D01*
X41104773Y-62191443D01*
X41096921Y-62213387D01*
X41086956Y-62234457D01*
X41074974Y-62254448D01*
X41061090Y-62273168D01*
X41045438Y-62290438D01*
X41028168Y-62306090D01*
X41009448Y-62319974D01*
X40989457Y-62331956D01*
X40968387Y-62341921D01*
X40946443Y-62349773D01*
X40923834Y-62355437D01*
X40900779Y-62358856D01*
X40877500Y-62360000D01*
X40402500Y-62360000D01*
X40379221Y-62358856D01*
X40356166Y-62355437D01*
X40333557Y-62349773D01*
X40311613Y-62341921D01*
X40290543Y-62331956D01*
X40270552Y-62319974D01*
X40251832Y-62306090D01*
X40234562Y-62290438D01*
X40218910Y-62273168D01*
X40205026Y-62254448D01*
X40193044Y-62234457D01*
X40183079Y-62213387D01*
X40175227Y-62191443D01*
X40169563Y-62168834D01*
X40166144Y-62145779D01*
X40165000Y-62122500D01*
X40165000Y-61547500D01*
X40166144Y-61524221D01*
X40169563Y-61501166D01*
X40175227Y-61478557D01*
X40183079Y-61456613D01*
X40193044Y-61435543D01*
X40205026Y-61415552D01*
X40218910Y-61396832D01*
X40234562Y-61379562D01*
X40251832Y-61363910D01*
X40270552Y-61350026D01*
X40290543Y-61338044D01*
X40311613Y-61328079D01*
X40333557Y-61320227D01*
X40356166Y-61314563D01*
X40379221Y-61311144D01*
X40402500Y-61310000D01*
X40877500Y-61310000D01*
X40900779Y-61311144D01*
X40900779Y-61311144D01*
G37*
D11*
X40640000Y-61835000D03*
G04 #@! TD*
D10*
G04 #@! TO.C,C5*
G36*
X40900779Y-63371144D02*
X40923834Y-63374563D01*
X40946443Y-63380227D01*
X40968387Y-63388079D01*
X40989457Y-63398044D01*
X41009448Y-63410026D01*
X41028168Y-63423910D01*
X41045438Y-63439562D01*
X41061090Y-63456832D01*
X41074974Y-63475552D01*
X41086956Y-63495543D01*
X41096921Y-63516613D01*
X41104773Y-63538557D01*
X41110437Y-63561166D01*
X41113856Y-63584221D01*
X41115000Y-63607500D01*
X41115000Y-64182500D01*
X41113856Y-64205779D01*
X41110437Y-64228834D01*
X41104773Y-64251443D01*
X41096921Y-64273387D01*
X41086956Y-64294457D01*
X41074974Y-64314448D01*
X41061090Y-64333168D01*
X41045438Y-64350438D01*
X41028168Y-64366090D01*
X41009448Y-64379974D01*
X40989457Y-64391956D01*
X40968387Y-64401921D01*
X40946443Y-64409773D01*
X40923834Y-64415437D01*
X40900779Y-64418856D01*
X40877500Y-64420000D01*
X40402500Y-64420000D01*
X40379221Y-64418856D01*
X40356166Y-64415437D01*
X40333557Y-64409773D01*
X40311613Y-64401921D01*
X40290543Y-64391956D01*
X40270552Y-64379974D01*
X40251832Y-64366090D01*
X40234562Y-64350438D01*
X40218910Y-64333168D01*
X40205026Y-64314448D01*
X40193044Y-64294457D01*
X40183079Y-64273387D01*
X40175227Y-64251443D01*
X40169563Y-64228834D01*
X40166144Y-64205779D01*
X40165000Y-64182500D01*
X40165000Y-63607500D01*
X40166144Y-63584221D01*
X40169563Y-63561166D01*
X40175227Y-63538557D01*
X40183079Y-63516613D01*
X40193044Y-63495543D01*
X40205026Y-63475552D01*
X40218910Y-63456832D01*
X40234562Y-63439562D01*
X40251832Y-63423910D01*
X40270552Y-63410026D01*
X40290543Y-63398044D01*
X40311613Y-63388079D01*
X40333557Y-63380227D01*
X40356166Y-63374563D01*
X40379221Y-63371144D01*
X40402500Y-63370000D01*
X40877500Y-63370000D01*
X40900779Y-63371144D01*
X40900779Y-63371144D01*
G37*
D11*
X40640000Y-63895000D03*
D10*
G36*
X40900779Y-65121144D02*
X40923834Y-65124563D01*
X40946443Y-65130227D01*
X40968387Y-65138079D01*
X40989457Y-65148044D01*
X41009448Y-65160026D01*
X41028168Y-65173910D01*
X41045438Y-65189562D01*
X41061090Y-65206832D01*
X41074974Y-65225552D01*
X41086956Y-65245543D01*
X41096921Y-65266613D01*
X41104773Y-65288557D01*
X41110437Y-65311166D01*
X41113856Y-65334221D01*
X41115000Y-65357500D01*
X41115000Y-65932500D01*
X41113856Y-65955779D01*
X41110437Y-65978834D01*
X41104773Y-66001443D01*
X41096921Y-66023387D01*
X41086956Y-66044457D01*
X41074974Y-66064448D01*
X41061090Y-66083168D01*
X41045438Y-66100438D01*
X41028168Y-66116090D01*
X41009448Y-66129974D01*
X40989457Y-66141956D01*
X40968387Y-66151921D01*
X40946443Y-66159773D01*
X40923834Y-66165437D01*
X40900779Y-66168856D01*
X40877500Y-66170000D01*
X40402500Y-66170000D01*
X40379221Y-66168856D01*
X40356166Y-66165437D01*
X40333557Y-66159773D01*
X40311613Y-66151921D01*
X40290543Y-66141956D01*
X40270552Y-66129974D01*
X40251832Y-66116090D01*
X40234562Y-66100438D01*
X40218910Y-66083168D01*
X40205026Y-66064448D01*
X40193044Y-66044457D01*
X40183079Y-66023387D01*
X40175227Y-66001443D01*
X40169563Y-65978834D01*
X40166144Y-65955779D01*
X40165000Y-65932500D01*
X40165000Y-65357500D01*
X40166144Y-65334221D01*
X40169563Y-65311166D01*
X40175227Y-65288557D01*
X40183079Y-65266613D01*
X40193044Y-65245543D01*
X40205026Y-65225552D01*
X40218910Y-65206832D01*
X40234562Y-65189562D01*
X40251832Y-65173910D01*
X40270552Y-65160026D01*
X40290543Y-65148044D01*
X40311613Y-65138079D01*
X40333557Y-65130227D01*
X40356166Y-65124563D01*
X40379221Y-65121144D01*
X40402500Y-65120000D01*
X40877500Y-65120000D01*
X40900779Y-65121144D01*
X40900779Y-65121144D01*
G37*
D11*
X40640000Y-65645000D03*
G04 #@! TD*
D10*
G04 #@! TO.C,C6*
G36*
X65080779Y-82076144D02*
X65103834Y-82079563D01*
X65126443Y-82085227D01*
X65148387Y-82093079D01*
X65169457Y-82103044D01*
X65189448Y-82115026D01*
X65208168Y-82128910D01*
X65225438Y-82144562D01*
X65241090Y-82161832D01*
X65254974Y-82180552D01*
X65266956Y-82200543D01*
X65276921Y-82221613D01*
X65284773Y-82243557D01*
X65290437Y-82266166D01*
X65293856Y-82289221D01*
X65295000Y-82312500D01*
X65295000Y-82787500D01*
X65293856Y-82810779D01*
X65290437Y-82833834D01*
X65284773Y-82856443D01*
X65276921Y-82878387D01*
X65266956Y-82899457D01*
X65254974Y-82919448D01*
X65241090Y-82938168D01*
X65225438Y-82955438D01*
X65208168Y-82971090D01*
X65189448Y-82984974D01*
X65169457Y-82996956D01*
X65148387Y-83006921D01*
X65126443Y-83014773D01*
X65103834Y-83020437D01*
X65080779Y-83023856D01*
X65057500Y-83025000D01*
X64482500Y-83025000D01*
X64459221Y-83023856D01*
X64436166Y-83020437D01*
X64413557Y-83014773D01*
X64391613Y-83006921D01*
X64370543Y-82996956D01*
X64350552Y-82984974D01*
X64331832Y-82971090D01*
X64314562Y-82955438D01*
X64298910Y-82938168D01*
X64285026Y-82919448D01*
X64273044Y-82899457D01*
X64263079Y-82878387D01*
X64255227Y-82856443D01*
X64249563Y-82833834D01*
X64246144Y-82810779D01*
X64245000Y-82787500D01*
X64245000Y-82312500D01*
X64246144Y-82289221D01*
X64249563Y-82266166D01*
X64255227Y-82243557D01*
X64263079Y-82221613D01*
X64273044Y-82200543D01*
X64285026Y-82180552D01*
X64298910Y-82161832D01*
X64314562Y-82144562D01*
X64331832Y-82128910D01*
X64350552Y-82115026D01*
X64370543Y-82103044D01*
X64391613Y-82093079D01*
X64413557Y-82085227D01*
X64436166Y-82079563D01*
X64459221Y-82076144D01*
X64482500Y-82075000D01*
X65057500Y-82075000D01*
X65080779Y-82076144D01*
X65080779Y-82076144D01*
G37*
D11*
X64770000Y-82550000D03*
D10*
G36*
X63330779Y-82076144D02*
X63353834Y-82079563D01*
X63376443Y-82085227D01*
X63398387Y-82093079D01*
X63419457Y-82103044D01*
X63439448Y-82115026D01*
X63458168Y-82128910D01*
X63475438Y-82144562D01*
X63491090Y-82161832D01*
X63504974Y-82180552D01*
X63516956Y-82200543D01*
X63526921Y-82221613D01*
X63534773Y-82243557D01*
X63540437Y-82266166D01*
X63543856Y-82289221D01*
X63545000Y-82312500D01*
X63545000Y-82787500D01*
X63543856Y-82810779D01*
X63540437Y-82833834D01*
X63534773Y-82856443D01*
X63526921Y-82878387D01*
X63516956Y-82899457D01*
X63504974Y-82919448D01*
X63491090Y-82938168D01*
X63475438Y-82955438D01*
X63458168Y-82971090D01*
X63439448Y-82984974D01*
X63419457Y-82996956D01*
X63398387Y-83006921D01*
X63376443Y-83014773D01*
X63353834Y-83020437D01*
X63330779Y-83023856D01*
X63307500Y-83025000D01*
X62732500Y-83025000D01*
X62709221Y-83023856D01*
X62686166Y-83020437D01*
X62663557Y-83014773D01*
X62641613Y-83006921D01*
X62620543Y-82996956D01*
X62600552Y-82984974D01*
X62581832Y-82971090D01*
X62564562Y-82955438D01*
X62548910Y-82938168D01*
X62535026Y-82919448D01*
X62523044Y-82899457D01*
X62513079Y-82878387D01*
X62505227Y-82856443D01*
X62499563Y-82833834D01*
X62496144Y-82810779D01*
X62495000Y-82787500D01*
X62495000Y-82312500D01*
X62496144Y-82289221D01*
X62499563Y-82266166D01*
X62505227Y-82243557D01*
X62513079Y-82221613D01*
X62523044Y-82200543D01*
X62535026Y-82180552D01*
X62548910Y-82161832D01*
X62564562Y-82144562D01*
X62581832Y-82128910D01*
X62600552Y-82115026D01*
X62620543Y-82103044D01*
X62641613Y-82093079D01*
X62663557Y-82085227D01*
X62686166Y-82079563D01*
X62709221Y-82076144D01*
X62732500Y-82075000D01*
X63307500Y-82075000D01*
X63330779Y-82076144D01*
X63330779Y-82076144D01*
G37*
D11*
X63020000Y-82550000D03*
G04 #@! TD*
D12*
G04 #@! TO.C,Conn1*
X81533000Y-65811400D03*
X89534000Y-65811400D03*
G04 #@! TD*
D13*
G04 #@! TO.C,U1*
X42189001Y-45465001D03*
X39649001Y-45465001D03*
X37109001Y-45465001D03*
X59969001Y-48005001D03*
X57429001Y-48005001D03*
X54889001Y-48005001D03*
X52349001Y-48005001D03*
X49809001Y-48005001D03*
X47269001Y-48005001D03*
X44729001Y-48005001D03*
X42189001Y-48005001D03*
X39649001Y-48005001D03*
X37109001Y-48005001D03*
X59969001Y-91185001D03*
X54889001Y-91185001D03*
X49809001Y-91185001D03*
X47269001Y-91185001D03*
X44729001Y-91185001D03*
X42189001Y-91185001D03*
X39649001Y-91185001D03*
X59969001Y-88645001D03*
X54889001Y-88645001D03*
X44729001Y-88645001D03*
X42189001Y-88645001D03*
X39649001Y-88645001D03*
X37109001Y-88645001D03*
X49809001Y-88645001D03*
X52349001Y-88645001D03*
X57429001Y-91185001D03*
X44729001Y-45465001D03*
X47269001Y-45465001D03*
X57429001Y-88645001D03*
X52349001Y-91185001D03*
X54889001Y-45465001D03*
X52349001Y-45465001D03*
X47269001Y-88645001D03*
X49809001Y-45465001D03*
X57429001Y-45465001D03*
X59969001Y-45465001D03*
X37109001Y-91185001D03*
G04 #@! TD*
D14*
G04 #@! TO.C,U2*
X50960000Y-60325000D03*
X50960000Y-61595000D03*
X50960000Y-62865000D03*
X50960000Y-64135000D03*
X50960000Y-65405000D03*
X50960000Y-66675000D03*
X50960000Y-67945000D03*
X50960000Y-69215000D03*
X45560000Y-69215000D03*
X45560000Y-67945000D03*
X45560000Y-66675000D03*
X45560000Y-65405000D03*
X45560000Y-64135000D03*
X45560000Y-62865000D03*
X45560000Y-61595000D03*
X45560000Y-60325000D03*
G04 #@! TD*
M02*
