G04 #@! TF.GenerationSoftware,KiCad,Pcbnew,(5.0.0)*
G04 #@! TF.CreationDate,2018-09-29T16:36:18-05:00*
G04 #@! TF.ProjectId,DriveBoard_Hardware,4472697665426F6172645F4861726477,rev?*
G04 #@! TF.SameCoordinates,Original*
G04 #@! TF.FileFunction,Legend,Top*
G04 #@! TF.FilePolarity,Positive*
%FSLAX46Y46*%
G04 Gerber Fmt 4.6, Leading zero omitted, Abs format (unit mm)*
G04 Created by KiCad (PCBNEW (5.0.0)) date 09/29/18 16:36:18*
%MOMM*%
%LPD*%
G01*
G04 APERTURE LIST*
%ADD10C,0.300000*%
%ADD11C,0.150000*%
%ADD12C,0.120000*%
G04 APERTURE END LIST*
D10*
X121964142Y-130203571D02*
X121964142Y-128703571D01*
X122321285Y-128703571D01*
X122535571Y-128775000D01*
X122678428Y-128917857D01*
X122749857Y-129060714D01*
X122821285Y-129346428D01*
X122821285Y-129560714D01*
X122749857Y-129846428D01*
X122678428Y-129989285D01*
X122535571Y-130132142D01*
X122321285Y-130203571D01*
X121964142Y-130203571D01*
X123464142Y-130203571D02*
X123464142Y-129203571D01*
X123464142Y-129489285D02*
X123535571Y-129346428D01*
X123607000Y-129275000D01*
X123749857Y-129203571D01*
X123892714Y-129203571D01*
X124392714Y-130203571D02*
X124392714Y-129203571D01*
X124392714Y-128703571D02*
X124321285Y-128775000D01*
X124392714Y-128846428D01*
X124464142Y-128775000D01*
X124392714Y-128703571D01*
X124392714Y-128846428D01*
X124964142Y-129203571D02*
X125321285Y-130203571D01*
X125678428Y-129203571D01*
X126821285Y-130132142D02*
X126678428Y-130203571D01*
X126392714Y-130203571D01*
X126249857Y-130132142D01*
X126178428Y-129989285D01*
X126178428Y-129417857D01*
X126249857Y-129275000D01*
X126392714Y-129203571D01*
X126678428Y-129203571D01*
X126821285Y-129275000D01*
X126892714Y-129417857D01*
X126892714Y-129560714D01*
X126178428Y-129703571D01*
X129178428Y-129417857D02*
X129392714Y-129489285D01*
X129464142Y-129560714D01*
X129535571Y-129703571D01*
X129535571Y-129917857D01*
X129464142Y-130060714D01*
X129392714Y-130132142D01*
X129249857Y-130203571D01*
X128678428Y-130203571D01*
X128678428Y-128703571D01*
X129178428Y-128703571D01*
X129321285Y-128775000D01*
X129392714Y-128846428D01*
X129464142Y-128989285D01*
X129464142Y-129132142D01*
X129392714Y-129275000D01*
X129321285Y-129346428D01*
X129178428Y-129417857D01*
X128678428Y-129417857D01*
X130392714Y-130203571D02*
X130249857Y-130132142D01*
X130178428Y-130060714D01*
X130107000Y-129917857D01*
X130107000Y-129489285D01*
X130178428Y-129346428D01*
X130249857Y-129275000D01*
X130392714Y-129203571D01*
X130607000Y-129203571D01*
X130749857Y-129275000D01*
X130821285Y-129346428D01*
X130892714Y-129489285D01*
X130892714Y-129917857D01*
X130821285Y-130060714D01*
X130749857Y-130132142D01*
X130607000Y-130203571D01*
X130392714Y-130203571D01*
X132178428Y-130203571D02*
X132178428Y-129417857D01*
X132107000Y-129275000D01*
X131964142Y-129203571D01*
X131678428Y-129203571D01*
X131535571Y-129275000D01*
X132178428Y-130132142D02*
X132035571Y-130203571D01*
X131678428Y-130203571D01*
X131535571Y-130132142D01*
X131464142Y-129989285D01*
X131464142Y-129846428D01*
X131535571Y-129703571D01*
X131678428Y-129632142D01*
X132035571Y-129632142D01*
X132178428Y-129560714D01*
X132892714Y-130203571D02*
X132892714Y-129203571D01*
X132892714Y-129489285D02*
X132964142Y-129346428D01*
X133035571Y-129275000D01*
X133178428Y-129203571D01*
X133321285Y-129203571D01*
X134464142Y-130203571D02*
X134464142Y-128703571D01*
X134464142Y-130132142D02*
X134321285Y-130203571D01*
X134035571Y-130203571D01*
X133892714Y-130132142D01*
X133821285Y-130060714D01*
X133749857Y-129917857D01*
X133749857Y-129489285D01*
X133821285Y-129346428D01*
X133892714Y-129275000D01*
X134035571Y-129203571D01*
X134321285Y-129203571D01*
X134464142Y-129275000D01*
X135249857Y-130132142D02*
X135249857Y-130203571D01*
X135178428Y-130346428D01*
X135107000Y-130417857D01*
X137892714Y-130203571D02*
X137392714Y-129489285D01*
X137035571Y-130203571D02*
X137035571Y-128703571D01*
X137607000Y-128703571D01*
X137749857Y-128775000D01*
X137821285Y-128846428D01*
X137892714Y-128989285D01*
X137892714Y-129203571D01*
X137821285Y-129346428D01*
X137749857Y-129417857D01*
X137607000Y-129489285D01*
X137035571Y-129489285D01*
X139321285Y-130203571D02*
X138464142Y-130203571D01*
X138892714Y-130203571D02*
X138892714Y-128703571D01*
X138749857Y-128917857D01*
X138607000Y-129060714D01*
X138464142Y-129132142D01*
X121964142Y-132753571D02*
X121964142Y-131253571D01*
X122464142Y-132325000D01*
X122964142Y-131253571D01*
X122964142Y-132753571D01*
X124321285Y-132753571D02*
X124321285Y-131967857D01*
X124249857Y-131825000D01*
X124107000Y-131753571D01*
X123821285Y-131753571D01*
X123678428Y-131825000D01*
X124321285Y-132682142D02*
X124178428Y-132753571D01*
X123821285Y-132753571D01*
X123678428Y-132682142D01*
X123607000Y-132539285D01*
X123607000Y-132396428D01*
X123678428Y-132253571D01*
X123821285Y-132182142D01*
X124178428Y-132182142D01*
X124321285Y-132110714D01*
X125035571Y-132753571D02*
X125035571Y-131753571D01*
X125035571Y-132039285D02*
X125107000Y-131896428D01*
X125178428Y-131825000D01*
X125321285Y-131753571D01*
X125464142Y-131753571D01*
X125892714Y-132682142D02*
X126035571Y-132753571D01*
X126321285Y-132753571D01*
X126464142Y-132682142D01*
X126535571Y-132539285D01*
X126535571Y-132467857D01*
X126464142Y-132325000D01*
X126321285Y-132253571D01*
X126107000Y-132253571D01*
X125964142Y-132182142D01*
X125892714Y-132039285D01*
X125892714Y-131967857D01*
X125964142Y-131825000D01*
X126107000Y-131753571D01*
X126321285Y-131753571D01*
X126464142Y-131825000D01*
X129178428Y-132753571D02*
X128678428Y-132039285D01*
X128321285Y-132753571D02*
X128321285Y-131253571D01*
X128892714Y-131253571D01*
X129035571Y-131325000D01*
X129107000Y-131396428D01*
X129178428Y-131539285D01*
X129178428Y-131753571D01*
X129107000Y-131896428D01*
X129035571Y-131967857D01*
X128892714Y-132039285D01*
X128321285Y-132039285D01*
X130035571Y-132753571D02*
X129892714Y-132682142D01*
X129821285Y-132610714D01*
X129749857Y-132467857D01*
X129749857Y-132039285D01*
X129821285Y-131896428D01*
X129892714Y-131825000D01*
X130035571Y-131753571D01*
X130249857Y-131753571D01*
X130392714Y-131825000D01*
X130464142Y-131896428D01*
X130535571Y-132039285D01*
X130535571Y-132467857D01*
X130464142Y-132610714D01*
X130392714Y-132682142D01*
X130249857Y-132753571D01*
X130035571Y-132753571D01*
X131035571Y-131753571D02*
X131392714Y-132753571D01*
X131749857Y-131753571D01*
X132892714Y-132682142D02*
X132749857Y-132753571D01*
X132464142Y-132753571D01*
X132321285Y-132682142D01*
X132249857Y-132539285D01*
X132249857Y-131967857D01*
X132321285Y-131825000D01*
X132464142Y-131753571D01*
X132749857Y-131753571D01*
X132892714Y-131825000D01*
X132964142Y-131967857D01*
X132964142Y-132110714D01*
X132249857Y-132253571D01*
X133607000Y-132753571D02*
X133607000Y-131753571D01*
X133607000Y-132039285D02*
X133678428Y-131896428D01*
X133749857Y-131825000D01*
X133892714Y-131753571D01*
X134035571Y-131753571D01*
X134607000Y-132682142D02*
X134607000Y-132753571D01*
X134535571Y-132896428D01*
X134464142Y-132967857D01*
X136321285Y-131396428D02*
X136392714Y-131325000D01*
X136535571Y-131253571D01*
X136892714Y-131253571D01*
X137035571Y-131325000D01*
X137107000Y-131396428D01*
X137178428Y-131539285D01*
X137178428Y-131682142D01*
X137107000Y-131896428D01*
X136249857Y-132753571D01*
X137178428Y-132753571D01*
X138107000Y-131253571D02*
X138249857Y-131253571D01*
X138392714Y-131325000D01*
X138464142Y-131396428D01*
X138535571Y-131539285D01*
X138607000Y-131825000D01*
X138607000Y-132182142D01*
X138535571Y-132467857D01*
X138464142Y-132610714D01*
X138392714Y-132682142D01*
X138249857Y-132753571D01*
X138107000Y-132753571D01*
X137964142Y-132682142D01*
X137892714Y-132610714D01*
X137821285Y-132467857D01*
X137749857Y-132182142D01*
X137749857Y-131825000D01*
X137821285Y-131539285D01*
X137892714Y-131396428D01*
X137964142Y-131325000D01*
X138107000Y-131253571D01*
X140035571Y-132753571D02*
X139178428Y-132753571D01*
X139607000Y-132753571D02*
X139607000Y-131253571D01*
X139464142Y-131467857D01*
X139321285Y-131610714D01*
X139178428Y-131682142D01*
X140749857Y-132753571D02*
X141035571Y-132753571D01*
X141178428Y-132682142D01*
X141249857Y-132610714D01*
X141392714Y-132396428D01*
X141464142Y-132110714D01*
X141464142Y-131539285D01*
X141392714Y-131396428D01*
X141321285Y-131325000D01*
X141178428Y-131253571D01*
X140892714Y-131253571D01*
X140749857Y-131325000D01*
X140678428Y-131396428D01*
X140607000Y-131539285D01*
X140607000Y-131896428D01*
X140678428Y-132039285D01*
X140749857Y-132110714D01*
X140892714Y-132182142D01*
X141178428Y-132182142D01*
X141321285Y-132110714D01*
X141392714Y-132039285D01*
X141464142Y-131896428D01*
X121964142Y-135303571D02*
X121964142Y-133803571D01*
X122464142Y-134875000D01*
X122964142Y-133803571D01*
X122964142Y-135303571D01*
X123678428Y-135303571D02*
X123678428Y-134303571D01*
X123678428Y-133803571D02*
X123607000Y-133875000D01*
X123678428Y-133946428D01*
X123749857Y-133875000D01*
X123678428Y-133803571D01*
X123678428Y-133946428D01*
X124321285Y-135232142D02*
X124464142Y-135303571D01*
X124749857Y-135303571D01*
X124892714Y-135232142D01*
X124964142Y-135089285D01*
X124964142Y-135017857D01*
X124892714Y-134875000D01*
X124749857Y-134803571D01*
X124535571Y-134803571D01*
X124392714Y-134732142D01*
X124321285Y-134589285D01*
X124321285Y-134517857D01*
X124392714Y-134375000D01*
X124535571Y-134303571D01*
X124749857Y-134303571D01*
X124892714Y-134375000D01*
X125535571Y-135232142D02*
X125678428Y-135303571D01*
X125964142Y-135303571D01*
X126107000Y-135232142D01*
X126178428Y-135089285D01*
X126178428Y-135017857D01*
X126107000Y-134875000D01*
X125964142Y-134803571D01*
X125749857Y-134803571D01*
X125607000Y-134732142D01*
X125535571Y-134589285D01*
X125535571Y-134517857D01*
X125607000Y-134375000D01*
X125749857Y-134303571D01*
X125964142Y-134303571D01*
X126107000Y-134375000D01*
X127035571Y-135303571D02*
X126892714Y-135232142D01*
X126821285Y-135160714D01*
X126749857Y-135017857D01*
X126749857Y-134589285D01*
X126821285Y-134446428D01*
X126892714Y-134375000D01*
X127035571Y-134303571D01*
X127249857Y-134303571D01*
X127392714Y-134375000D01*
X127464142Y-134446428D01*
X127535571Y-134589285D01*
X127535571Y-135017857D01*
X127464142Y-135160714D01*
X127392714Y-135232142D01*
X127249857Y-135303571D01*
X127035571Y-135303571D01*
X128821285Y-134303571D02*
X128821285Y-135303571D01*
X128178428Y-134303571D02*
X128178428Y-135089285D01*
X128249857Y-135232142D01*
X128392714Y-135303571D01*
X128607000Y-135303571D01*
X128749857Y-135232142D01*
X128821285Y-135160714D01*
X129535571Y-135303571D02*
X129535571Y-134303571D01*
X129535571Y-134589285D02*
X129607000Y-134446428D01*
X129678428Y-134375000D01*
X129821285Y-134303571D01*
X129964142Y-134303571D01*
X130464142Y-135303571D02*
X130464142Y-134303571D01*
X130464142Y-133803571D02*
X130392714Y-133875000D01*
X130464142Y-133946428D01*
X130535571Y-133875000D01*
X130464142Y-133803571D01*
X130464142Y-133946428D01*
X132249857Y-135232142D02*
X132464142Y-135303571D01*
X132821285Y-135303571D01*
X132964142Y-135232142D01*
X133035571Y-135160714D01*
X133107000Y-135017857D01*
X133107000Y-134875000D01*
X133035571Y-134732142D01*
X132964142Y-134660714D01*
X132821285Y-134589285D01*
X132535571Y-134517857D01*
X132392714Y-134446428D01*
X132321285Y-134375000D01*
X132249857Y-134232142D01*
X132249857Y-134089285D01*
X132321285Y-133946428D01*
X132392714Y-133875000D01*
X132535571Y-133803571D01*
X132892714Y-133803571D01*
X133107000Y-133875000D01*
X134964142Y-135303571D02*
X134892714Y-135303571D01*
X134749857Y-135232142D01*
X134535571Y-135017857D01*
X134178428Y-134589285D01*
X134035571Y-134375000D01*
X133964142Y-134160714D01*
X133964142Y-134017857D01*
X134035571Y-133875000D01*
X134178428Y-133803571D01*
X134249857Y-133803571D01*
X134392714Y-133875000D01*
X134464142Y-134017857D01*
X134464142Y-134089285D01*
X134392714Y-134232142D01*
X134321285Y-134303571D01*
X133892714Y-134589285D01*
X133821285Y-134660714D01*
X133749857Y-134803571D01*
X133749857Y-135017857D01*
X133821285Y-135160714D01*
X133892714Y-135232142D01*
X134035571Y-135303571D01*
X134249857Y-135303571D01*
X134392714Y-135232142D01*
X134464142Y-135160714D01*
X134678428Y-134875000D01*
X134749857Y-134660714D01*
X134749857Y-134517857D01*
X135392714Y-133803571D02*
X136249857Y-133803571D01*
X135821285Y-135303571D02*
X135821285Y-133803571D01*
X121892714Y-137425000D02*
X122607000Y-137425000D01*
X121749857Y-137853571D02*
X122249857Y-136353571D01*
X122749857Y-137853571D01*
X123249857Y-136853571D02*
X123249857Y-137853571D01*
X123249857Y-136996428D02*
X123321285Y-136925000D01*
X123464142Y-136853571D01*
X123678428Y-136853571D01*
X123821285Y-136925000D01*
X123892714Y-137067857D01*
X123892714Y-137853571D01*
X125249857Y-137853571D02*
X125249857Y-136353571D01*
X125249857Y-137782142D02*
X125107000Y-137853571D01*
X124821285Y-137853571D01*
X124678428Y-137782142D01*
X124607000Y-137710714D01*
X124535571Y-137567857D01*
X124535571Y-137139285D01*
X124607000Y-136996428D01*
X124678428Y-136925000D01*
X124821285Y-136853571D01*
X125107000Y-136853571D01*
X125249857Y-136925000D01*
X125964142Y-137853571D02*
X125964142Y-136853571D01*
X125964142Y-137139285D02*
X126035571Y-136996428D01*
X126107000Y-136925000D01*
X126249857Y-136853571D01*
X126392714Y-136853571D01*
X127464142Y-137782142D02*
X127321285Y-137853571D01*
X127035571Y-137853571D01*
X126892714Y-137782142D01*
X126821285Y-137639285D01*
X126821285Y-137067857D01*
X126892714Y-136925000D01*
X127035571Y-136853571D01*
X127321285Y-136853571D01*
X127464142Y-136925000D01*
X127535571Y-137067857D01*
X127535571Y-137210714D01*
X126821285Y-137353571D01*
X128035571Y-136853571D02*
X128321285Y-137853571D01*
X128607000Y-137139285D01*
X128892714Y-137853571D01*
X129178428Y-136853571D01*
X130821285Y-137782142D02*
X131035571Y-137853571D01*
X131392714Y-137853571D01*
X131535571Y-137782142D01*
X131607000Y-137710714D01*
X131678428Y-137567857D01*
X131678428Y-137425000D01*
X131607000Y-137282142D01*
X131535571Y-137210714D01*
X131392714Y-137139285D01*
X131107000Y-137067857D01*
X130964142Y-136996428D01*
X130892714Y-136925000D01*
X130821285Y-136782142D01*
X130821285Y-136639285D01*
X130892714Y-136496428D01*
X130964142Y-136425000D01*
X131107000Y-136353571D01*
X131464142Y-136353571D01*
X131678428Y-136425000D01*
X132321285Y-137853571D02*
X132321285Y-136853571D01*
X132321285Y-136353571D02*
X132249857Y-136425000D01*
X132321285Y-136496428D01*
X132392714Y-136425000D01*
X132321285Y-136353571D01*
X132321285Y-136496428D01*
X133035571Y-137853571D02*
X133035571Y-136853571D01*
X133035571Y-136996428D02*
X133107000Y-136925000D01*
X133249857Y-136853571D01*
X133464142Y-136853571D01*
X133607000Y-136925000D01*
X133678428Y-137067857D01*
X133678428Y-137853571D01*
X133678428Y-137067857D02*
X133749857Y-136925000D01*
X133892714Y-136853571D01*
X134107000Y-136853571D01*
X134249857Y-136925000D01*
X134321285Y-137067857D01*
X134321285Y-137853571D01*
X135035571Y-137853571D02*
X135035571Y-136853571D01*
X135035571Y-136353571D02*
X134964142Y-136425000D01*
X135035571Y-136496428D01*
X135107000Y-136425000D01*
X135035571Y-136353571D01*
X135035571Y-136496428D01*
X135964142Y-137853571D02*
X135821285Y-137782142D01*
X135749857Y-137639285D01*
X135749857Y-136353571D01*
X136392714Y-136853571D02*
X136749857Y-137853571D01*
X137107000Y-136853571D02*
X136749857Y-137853571D01*
X136607000Y-138210714D01*
X136535571Y-138282142D01*
X136392714Y-138353571D01*
X152824571Y-92935714D02*
X151324571Y-92935714D01*
X152396000Y-92435714D01*
X151324571Y-91935714D01*
X152824571Y-91935714D01*
X152824571Y-91007142D02*
X152753142Y-91150000D01*
X152681714Y-91221428D01*
X152538857Y-91292857D01*
X152110285Y-91292857D01*
X151967428Y-91221428D01*
X151896000Y-91150000D01*
X151824571Y-91007142D01*
X151824571Y-90792857D01*
X151896000Y-90650000D01*
X151967428Y-90578571D01*
X152110285Y-90507142D01*
X152538857Y-90507142D01*
X152681714Y-90578571D01*
X152753142Y-90650000D01*
X152824571Y-90792857D01*
X152824571Y-91007142D01*
X151824571Y-90078571D02*
X151824571Y-89507142D01*
X151324571Y-89864285D02*
X152610285Y-89864285D01*
X152753142Y-89792857D01*
X152824571Y-89650000D01*
X152824571Y-89507142D01*
X152824571Y-88792857D02*
X152753142Y-88935714D01*
X152681714Y-89007142D01*
X152538857Y-89078571D01*
X152110285Y-89078571D01*
X151967428Y-89007142D01*
X151896000Y-88935714D01*
X151824571Y-88792857D01*
X151824571Y-88578571D01*
X151896000Y-88435714D01*
X151967428Y-88364285D01*
X152110285Y-88292857D01*
X152538857Y-88292857D01*
X152681714Y-88364285D01*
X152753142Y-88435714D01*
X152824571Y-88578571D01*
X152824571Y-88792857D01*
X152824571Y-87650000D02*
X151824571Y-87650000D01*
X152110285Y-87650000D02*
X151967428Y-87578571D01*
X151896000Y-87507142D01*
X151824571Y-87364285D01*
X151824571Y-87221428D01*
X151467428Y-85650000D02*
X151396000Y-85578571D01*
X151324571Y-85435714D01*
X151324571Y-85078571D01*
X151396000Y-84935714D01*
X151467428Y-84864285D01*
X151610285Y-84792857D01*
X151753142Y-84792857D01*
X151967428Y-84864285D01*
X152824571Y-85721428D01*
X152824571Y-84792857D01*
X152951571Y-74774714D02*
X151451571Y-74774714D01*
X152523000Y-74274714D01*
X151451571Y-73774714D01*
X152951571Y-73774714D01*
X152951571Y-72846142D02*
X152880142Y-72989000D01*
X152808714Y-73060428D01*
X152665857Y-73131857D01*
X152237285Y-73131857D01*
X152094428Y-73060428D01*
X152023000Y-72989000D01*
X151951571Y-72846142D01*
X151951571Y-72631857D01*
X152023000Y-72489000D01*
X152094428Y-72417571D01*
X152237285Y-72346142D01*
X152665857Y-72346142D01*
X152808714Y-72417571D01*
X152880142Y-72489000D01*
X152951571Y-72631857D01*
X152951571Y-72846142D01*
X151951571Y-71917571D02*
X151951571Y-71346142D01*
X151451571Y-71703285D02*
X152737285Y-71703285D01*
X152880142Y-71631857D01*
X152951571Y-71489000D01*
X152951571Y-71346142D01*
X152951571Y-70631857D02*
X152880142Y-70774714D01*
X152808714Y-70846142D01*
X152665857Y-70917571D01*
X152237285Y-70917571D01*
X152094428Y-70846142D01*
X152023000Y-70774714D01*
X151951571Y-70631857D01*
X151951571Y-70417571D01*
X152023000Y-70274714D01*
X152094428Y-70203285D01*
X152237285Y-70131857D01*
X152665857Y-70131857D01*
X152808714Y-70203285D01*
X152880142Y-70274714D01*
X152951571Y-70417571D01*
X152951571Y-70631857D01*
X152951571Y-69489000D02*
X151951571Y-69489000D01*
X152237285Y-69489000D02*
X152094428Y-69417571D01*
X152023000Y-69346142D01*
X151951571Y-69203285D01*
X151951571Y-69060428D01*
X152951571Y-66631857D02*
X152951571Y-67489000D01*
X152951571Y-67060428D02*
X151451571Y-67060428D01*
X151665857Y-67203285D01*
X151808714Y-67346142D01*
X151880142Y-67489000D01*
D11*
G04 #@! TO.C,U2*
X132400000Y-89030000D02*
X135300000Y-89030000D01*
X135300000Y-89030000D02*
X135300000Y-98930000D01*
X135300000Y-98930000D02*
X131400000Y-98930000D01*
X131400000Y-98930000D02*
X131400000Y-90030000D01*
X131400000Y-90030000D02*
X132400000Y-89030000D01*
G04 #@! TO.C,U1*
X112039001Y-73405001D02*
X112039001Y-78485001D01*
X137439001Y-73405001D02*
X112039001Y-73405001D01*
X137439001Y-78485001D02*
X137439001Y-73405001D01*
X112039001Y-121665001D02*
X137439001Y-121665001D01*
X112039001Y-116585001D02*
X112039001Y-121665001D01*
X137439001Y-121665001D02*
X137439001Y-116585001D01*
X112039001Y-78485001D02*
X137439001Y-78485001D01*
X137439001Y-116585001D02*
X112039001Y-116585001D01*
D12*
G04 #@! TO.C,C1*
X127284267Y-91315000D02*
X126941733Y-91315000D01*
X127284267Y-90295000D02*
X126941733Y-90295000D01*
G04 #@! TO.C,C2*
X139528733Y-70610000D02*
X139871267Y-70610000D01*
X139528733Y-71630000D02*
X139871267Y-71630000D01*
G04 #@! TO.C,C3*
X152271000Y-58577267D02*
X152271000Y-58234733D01*
X153291000Y-58577267D02*
X153291000Y-58234733D01*
G04 #@! TO.C,C4*
X121621733Y-91819000D02*
X121964267Y-91819000D01*
X121621733Y-92839000D02*
X121964267Y-92839000D01*
G04 #@! TO.C,C5*
X125826942Y-94068378D02*
X125826942Y-94410912D01*
X126846942Y-94068378D02*
X126846942Y-94410912D01*
G04 #@! TO.C,C6*
X120072333Y-88241600D02*
X120414867Y-88241600D01*
X120072333Y-87221600D02*
X120414867Y-87221600D01*
D11*
G04 #@! TO.C,Conn1*
X126238000Y-64770000D02*
G75*
G03X125120400Y-63652400I-1117600J0D01*
G01*
X125120400Y-63652400D02*
G75*
G03X124002800Y-64770000I0J-1117600D01*
G01*
X115062000Y-49022000D02*
X115062000Y-64770000D01*
X139700000Y-49022000D02*
X139700000Y-64770000D01*
X123977400Y-49022000D02*
X122758200Y-49022000D01*
X125120400Y-50165000D02*
G75*
G03X126263400Y-49022000I0J1143000D01*
G01*
X123977400Y-49022000D02*
G75*
G03X125120400Y-50165000I1143000J0D01*
G01*
X127431800Y-64770000D02*
X126238000Y-64770000D01*
X125120400Y-62458600D02*
X125120400Y-63627000D01*
X122809000Y-64770000D02*
X123977400Y-64770000D01*
X127381000Y-49022000D02*
X126288800Y-49022000D01*
X125120400Y-50165000D02*
X125120400Y-51333400D01*
X125120400Y-59182000D02*
X125120400Y-58039000D01*
X115087400Y-56870600D02*
X123977400Y-56870600D01*
X125120400Y-54610000D02*
X125120400Y-55753000D01*
X127406400Y-56896000D02*
X126263400Y-56896000D01*
X125120400Y-59182000D02*
X125120400Y-62484000D01*
X127406400Y-56896000D02*
X139700000Y-56896000D01*
X125120400Y-54610000D02*
X125120400Y-51333400D01*
X126263400Y-56896000D02*
G75*
G03X126263400Y-56896000I-1143000J0D01*
G01*
X127406400Y-64770000D02*
X139700000Y-64770000D01*
X122834400Y-64770000D02*
X115087400Y-64770000D01*
X115087400Y-49022000D02*
X122834400Y-49022000D01*
X127406400Y-49022000D02*
X139700000Y-49022000D01*
G04 #@! TO.C,Conn2*
X170688000Y-69850000D02*
X170180000Y-69850000D01*
X170180000Y-77470000D02*
X170688000Y-77470000D01*
X170688000Y-65405000D02*
X170688000Y-81915000D01*
X158750000Y-65405000D02*
X170688000Y-65405000D01*
X158750000Y-81915000D02*
X170688000Y-81915000D01*
X158750000Y-80010000D02*
X158750000Y-81915000D01*
X158750000Y-67310000D02*
X158750000Y-65405000D01*
X166370000Y-69850000D02*
X165100000Y-69850000D01*
X165100000Y-69850000D02*
X165100000Y-77470000D01*
X165100000Y-77470000D02*
X166370000Y-77470000D01*
X166370000Y-77470000D02*
X170180000Y-77470000D01*
X166370000Y-69850000D02*
X170180000Y-69850000D01*
X165100000Y-72390000D02*
X162560000Y-72390000D01*
X162560000Y-72390000D02*
X162560000Y-74930000D01*
X162560000Y-74930000D02*
X165100000Y-74930000D01*
X158750000Y-67310000D02*
X158750000Y-80010000D01*
X158750000Y-80010000D02*
X156210000Y-80010000D01*
X156210000Y-80010000D02*
X156210000Y-67310000D01*
X156210000Y-67310000D02*
X158750000Y-67310000D01*
G04 #@! TO.C,Conn3*
X156210000Y-85090000D02*
X158750000Y-85090000D01*
X156210000Y-97790000D02*
X156210000Y-85090000D01*
X158750000Y-97790000D02*
X156210000Y-97790000D01*
X158750000Y-85090000D02*
X158750000Y-97790000D01*
X162560000Y-92710000D02*
X165100000Y-92710000D01*
X162560000Y-90170000D02*
X162560000Y-92710000D01*
X165100000Y-90170000D02*
X162560000Y-90170000D01*
X166370000Y-87630000D02*
X170180000Y-87630000D01*
X166370000Y-95250000D02*
X170180000Y-95250000D01*
X165100000Y-95250000D02*
X166370000Y-95250000D01*
X165100000Y-87630000D02*
X165100000Y-95250000D01*
X166370000Y-87630000D02*
X165100000Y-87630000D01*
X158750000Y-85090000D02*
X158750000Y-83185000D01*
X158750000Y-97790000D02*
X158750000Y-99695000D01*
X158750000Y-99695000D02*
X170688000Y-99695000D01*
X158750000Y-83185000D02*
X170688000Y-83185000D01*
X170688000Y-83185000D02*
X170688000Y-99695000D01*
X170180000Y-95250000D02*
X170688000Y-95250000D01*
X170688000Y-87630000D02*
X170180000Y-87630000D01*
G04 #@! TO.C,U3*
X159359600Y-54254400D02*
X161899600Y-51714400D01*
X161899600Y-51714400D02*
X166979600Y-51714400D01*
X166979600Y-51714400D02*
X169519600Y-54254400D01*
X169519600Y-54254400D02*
X169519600Y-59334400D01*
X169519600Y-59334400D02*
X166979600Y-61874400D01*
X166979600Y-61874400D02*
X161899600Y-61874400D01*
X161899600Y-61874400D02*
X159359600Y-59334400D01*
X159359600Y-59334400D02*
X159359600Y-54254400D01*
X172059600Y-61874400D02*
X172059600Y-51714400D01*
X155549600Y-61874400D02*
X155549600Y-51714400D01*
X155549600Y-51714400D02*
X172059600Y-51714400D01*
X172059600Y-61874400D02*
X155549600Y-61874400D01*
G04 #@! TO.C,U2*
X132588095Y-87432380D02*
X132588095Y-88241904D01*
X132635714Y-88337142D01*
X132683333Y-88384761D01*
X132778571Y-88432380D01*
X132969047Y-88432380D01*
X133064285Y-88384761D01*
X133111904Y-88337142D01*
X133159523Y-88241904D01*
X133159523Y-87432380D01*
X133588095Y-87527619D02*
X133635714Y-87480000D01*
X133730952Y-87432380D01*
X133969047Y-87432380D01*
X134064285Y-87480000D01*
X134111904Y-87527619D01*
X134159523Y-87622857D01*
X134159523Y-87718095D01*
X134111904Y-87860952D01*
X133540476Y-88432380D01*
X134159523Y-88432380D01*
G04 #@! TO.C,U1*
X138502715Y-120561667D02*
X138978905Y-120561667D01*
X138407477Y-120847381D02*
X138740810Y-119847381D01*
X139074143Y-120847381D01*
X139359858Y-119942620D02*
X139407477Y-119895001D01*
X139502715Y-119847381D01*
X139740810Y-119847381D01*
X139836048Y-119895001D01*
X139883667Y-119942620D01*
X139931286Y-120037858D01*
X139931286Y-120133096D01*
X139883667Y-120275953D01*
X139312239Y-120847381D01*
X139931286Y-120847381D01*
X138812239Y-117529572D02*
X138955096Y-117577191D01*
X139002715Y-117624810D01*
X139050334Y-117720048D01*
X139050334Y-117862905D01*
X139002715Y-117958143D01*
X138955096Y-118005762D01*
X138859858Y-118053381D01*
X138478905Y-118053381D01*
X138478905Y-117053381D01*
X138812239Y-117053381D01*
X138907477Y-117101001D01*
X138955096Y-117148620D01*
X139002715Y-117243858D01*
X139002715Y-117339096D01*
X138955096Y-117434334D01*
X138907477Y-117481953D01*
X138812239Y-117529572D01*
X138478905Y-117529572D01*
X139431286Y-117148620D02*
X139478905Y-117101001D01*
X139574143Y-117053381D01*
X139812239Y-117053381D01*
X139907477Y-117101001D01*
X139955096Y-117148620D01*
X140002715Y-117243858D01*
X140002715Y-117339096D01*
X139955096Y-117481953D01*
X139383667Y-118053381D01*
X140002715Y-118053381D01*
X137716905Y-74873381D02*
X137716905Y-73873381D01*
X137955001Y-73873381D01*
X138097858Y-73921001D01*
X138193096Y-74016239D01*
X138240715Y-74111477D01*
X138288334Y-74301953D01*
X138288334Y-74444810D01*
X138240715Y-74635286D01*
X138193096Y-74730524D01*
X138097858Y-74825762D01*
X137955001Y-74873381D01*
X137716905Y-74873381D01*
X138669286Y-73968620D02*
X138716905Y-73921001D01*
X138812143Y-73873381D01*
X139050239Y-73873381D01*
X139145477Y-73921001D01*
X139193096Y-73968620D01*
X139240715Y-74063858D01*
X139240715Y-74159096D01*
X139193096Y-74301953D01*
X138621667Y-74873381D01*
X139240715Y-74873381D01*
X138288334Y-77572143D02*
X138240715Y-77619762D01*
X138097858Y-77667381D01*
X138002620Y-77667381D01*
X137859762Y-77619762D01*
X137764524Y-77524524D01*
X137716905Y-77429286D01*
X137669286Y-77238810D01*
X137669286Y-77095953D01*
X137716905Y-76905477D01*
X137764524Y-76810239D01*
X137859762Y-76715001D01*
X138002620Y-76667381D01*
X138097858Y-76667381D01*
X138240715Y-76715001D01*
X138288334Y-76762620D01*
X138669286Y-76762620D02*
X138716905Y-76715001D01*
X138812143Y-76667381D01*
X139050239Y-76667381D01*
X139145477Y-76715001D01*
X139193096Y-76762620D01*
X139240715Y-76857858D01*
X139240715Y-76953096D01*
X139193096Y-77095953D01*
X138621667Y-77667381D01*
X139240715Y-77667381D01*
X135359477Y-114005381D02*
X136026143Y-115005381D01*
X136026143Y-114005381D02*
X135359477Y-115005381D01*
X136835667Y-114005381D02*
X136645191Y-114005381D01*
X136549953Y-114053001D01*
X136502334Y-114100620D01*
X136407096Y-114243477D01*
X136359477Y-114433953D01*
X136359477Y-114814905D01*
X136407096Y-114910143D01*
X136454715Y-114957762D01*
X136549953Y-115005381D01*
X136740429Y-115005381D01*
X136835667Y-114957762D01*
X136883286Y-114910143D01*
X136930905Y-114814905D01*
X136930905Y-114576810D01*
X136883286Y-114481572D01*
X136835667Y-114433953D01*
X136740429Y-114386334D01*
X136549953Y-114386334D01*
X136454715Y-114433953D01*
X136407096Y-114481572D01*
X136359477Y-114576810D01*
X135359477Y-79969381D02*
X136026143Y-80969381D01*
X136026143Y-79969381D02*
X135359477Y-80969381D01*
X136311858Y-79969381D02*
X136978524Y-79969381D01*
X136549953Y-80969381D01*
X113594715Y-116275381D02*
X113023286Y-116275381D01*
X113309001Y-116275381D02*
X113309001Y-115275381D01*
X113213762Y-115418239D01*
X113118524Y-115513477D01*
X113023286Y-115561096D01*
X135978524Y-116275381D02*
X135407096Y-116275381D01*
X135692810Y-116275381D02*
X135692810Y-115275381D01*
X135597572Y-115418239D01*
X135502334Y-115513477D01*
X135407096Y-115561096D01*
X136597572Y-115275381D02*
X136692810Y-115275381D01*
X136788048Y-115323001D01*
X136835667Y-115370620D01*
X136883286Y-115465858D01*
X136930905Y-115656334D01*
X136930905Y-115894429D01*
X136883286Y-116084905D01*
X136835667Y-116180143D01*
X136788048Y-116227762D01*
X136692810Y-116275381D01*
X136597572Y-116275381D01*
X136502334Y-116227762D01*
X136454715Y-116180143D01*
X136407096Y-116084905D01*
X136359477Y-115894429D01*
X136359477Y-115656334D01*
X136407096Y-115465858D01*
X136454715Y-115370620D01*
X136502334Y-115323001D01*
X136597572Y-115275381D01*
X135978524Y-79699381D02*
X135407096Y-79699381D01*
X135692810Y-79699381D02*
X135692810Y-78699381D01*
X135597572Y-78842239D01*
X135502334Y-78937477D01*
X135407096Y-78985096D01*
X136597572Y-78699381D02*
X136692810Y-78699381D01*
X136788048Y-78747001D01*
X136835667Y-78794620D01*
X136883286Y-78889858D01*
X136930905Y-79080334D01*
X136930905Y-79318429D01*
X136883286Y-79508905D01*
X136835667Y-79604143D01*
X136788048Y-79651762D01*
X136692810Y-79699381D01*
X136597572Y-79699381D01*
X136502334Y-79651762D01*
X136454715Y-79604143D01*
X136407096Y-79508905D01*
X136359477Y-79318429D01*
X136359477Y-79080334D01*
X136407096Y-78889858D01*
X136454715Y-78794620D01*
X136502334Y-78747001D01*
X136597572Y-78699381D01*
X113594715Y-79699381D02*
X113023286Y-79699381D01*
X113309001Y-79699381D02*
X113309001Y-78699381D01*
X113213762Y-78842239D01*
X113118524Y-78937477D01*
X113023286Y-78985096D01*
G04 #@! TO.C,C1*
X126946333Y-92592142D02*
X126898714Y-92639761D01*
X126755857Y-92687380D01*
X126660619Y-92687380D01*
X126517761Y-92639761D01*
X126422523Y-92544523D01*
X126374904Y-92449285D01*
X126327285Y-92258809D01*
X126327285Y-92115952D01*
X126374904Y-91925476D01*
X126422523Y-91830238D01*
X126517761Y-91735000D01*
X126660619Y-91687380D01*
X126755857Y-91687380D01*
X126898714Y-91735000D01*
X126946333Y-91782619D01*
X127898714Y-92687380D02*
X127327285Y-92687380D01*
X127613000Y-92687380D02*
X127613000Y-91687380D01*
X127517761Y-91830238D01*
X127422523Y-91925476D01*
X127327285Y-91973095D01*
G04 #@! TO.C,C2*
X139533333Y-70047142D02*
X139485714Y-70094761D01*
X139342857Y-70142380D01*
X139247619Y-70142380D01*
X139104761Y-70094761D01*
X139009523Y-69999523D01*
X138961904Y-69904285D01*
X138914285Y-69713809D01*
X138914285Y-69570952D01*
X138961904Y-69380476D01*
X139009523Y-69285238D01*
X139104761Y-69190000D01*
X139247619Y-69142380D01*
X139342857Y-69142380D01*
X139485714Y-69190000D01*
X139533333Y-69237619D01*
X139914285Y-69237619D02*
X139961904Y-69190000D01*
X140057142Y-69142380D01*
X140295238Y-69142380D01*
X140390476Y-69190000D01*
X140438095Y-69237619D01*
X140485714Y-69332857D01*
X140485714Y-69428095D01*
X140438095Y-69570952D01*
X139866666Y-70142380D01*
X140485714Y-70142380D01*
G04 #@! TO.C,C3*
X151708142Y-58572666D02*
X151755761Y-58620285D01*
X151803380Y-58763142D01*
X151803380Y-58858380D01*
X151755761Y-59001238D01*
X151660523Y-59096476D01*
X151565285Y-59144095D01*
X151374809Y-59191714D01*
X151231952Y-59191714D01*
X151041476Y-59144095D01*
X150946238Y-59096476D01*
X150851000Y-59001238D01*
X150803380Y-58858380D01*
X150803380Y-58763142D01*
X150851000Y-58620285D01*
X150898619Y-58572666D01*
X150803380Y-58239333D02*
X150803380Y-57620285D01*
X151184333Y-57953619D01*
X151184333Y-57810761D01*
X151231952Y-57715523D01*
X151279571Y-57667904D01*
X151374809Y-57620285D01*
X151612904Y-57620285D01*
X151708142Y-57667904D01*
X151755761Y-57715523D01*
X151803380Y-57810761D01*
X151803380Y-58096476D01*
X151755761Y-58191714D01*
X151708142Y-58239333D01*
G04 #@! TO.C,C4*
X121626333Y-91256142D02*
X121578714Y-91303761D01*
X121435857Y-91351380D01*
X121340619Y-91351380D01*
X121197761Y-91303761D01*
X121102523Y-91208523D01*
X121054904Y-91113285D01*
X121007285Y-90922809D01*
X121007285Y-90779952D01*
X121054904Y-90589476D01*
X121102523Y-90494238D01*
X121197761Y-90399000D01*
X121340619Y-90351380D01*
X121435857Y-90351380D01*
X121578714Y-90399000D01*
X121626333Y-90446619D01*
X122483476Y-90684714D02*
X122483476Y-91351380D01*
X122245380Y-90303761D02*
X122007285Y-91018047D01*
X122626333Y-91018047D01*
G04 #@! TO.C,C5*
X128124084Y-94406311D02*
X128171703Y-94453930D01*
X128219322Y-94596787D01*
X128219322Y-94692025D01*
X128171703Y-94834883D01*
X128076465Y-94930121D01*
X127981227Y-94977740D01*
X127790751Y-95025359D01*
X127647894Y-95025359D01*
X127457418Y-94977740D01*
X127362180Y-94930121D01*
X127266942Y-94834883D01*
X127219322Y-94692025D01*
X127219322Y-94596787D01*
X127266942Y-94453930D01*
X127314561Y-94406311D01*
X127219322Y-93501549D02*
X127219322Y-93977740D01*
X127695513Y-94025359D01*
X127647894Y-93977740D01*
X127600275Y-93882502D01*
X127600275Y-93644406D01*
X127647894Y-93549168D01*
X127695513Y-93501549D01*
X127790751Y-93453930D01*
X128028846Y-93453930D01*
X128124084Y-93501549D01*
X128171703Y-93549168D01*
X128219322Y-93644406D01*
X128219322Y-93882502D01*
X128171703Y-93977740D01*
X128124084Y-94025359D01*
G04 #@! TO.C,C6*
X120076933Y-86658742D02*
X120029314Y-86706361D01*
X119886457Y-86753980D01*
X119791219Y-86753980D01*
X119648361Y-86706361D01*
X119553123Y-86611123D01*
X119505504Y-86515885D01*
X119457885Y-86325409D01*
X119457885Y-86182552D01*
X119505504Y-85992076D01*
X119553123Y-85896838D01*
X119648361Y-85801600D01*
X119791219Y-85753980D01*
X119886457Y-85753980D01*
X120029314Y-85801600D01*
X120076933Y-85849219D01*
X120934076Y-85753980D02*
X120743600Y-85753980D01*
X120648361Y-85801600D01*
X120600742Y-85849219D01*
X120505504Y-85992076D01*
X120457885Y-86182552D01*
X120457885Y-86563504D01*
X120505504Y-86658742D01*
X120553123Y-86706361D01*
X120648361Y-86753980D01*
X120838838Y-86753980D01*
X120934076Y-86706361D01*
X120981695Y-86658742D01*
X121029314Y-86563504D01*
X121029314Y-86325409D01*
X120981695Y-86230171D01*
X120934076Y-86182552D01*
X120838838Y-86134933D01*
X120648361Y-86134933D01*
X120553123Y-86182552D01*
X120505504Y-86230171D01*
X120457885Y-86325409D01*
G04 #@! TO.C,U3*
X153731980Y-56357733D02*
X153731980Y-56167257D01*
X153779600Y-56072019D01*
X153874838Y-55976780D01*
X154065314Y-55929161D01*
X154398647Y-55929161D01*
X154589123Y-55976780D01*
X154684361Y-56072019D01*
X154731980Y-56167257D01*
X154731980Y-56357733D01*
X154684361Y-56452971D01*
X154589123Y-56548209D01*
X154398647Y-56595828D01*
X154065314Y-56595828D01*
X153874838Y-56548209D01*
X153779600Y-56452971D01*
X153731980Y-56357733D01*
X154731980Y-55500590D02*
X153731980Y-55500590D01*
X154731980Y-54929161D02*
X154160552Y-55357733D01*
X153731980Y-54929161D02*
X154303409Y-55500590D01*
X154731980Y-54500590D02*
X153731980Y-54500590D01*
G04 #@! TD*
M02*
