M48
;DRILL file {KiCad (5.0.0)} date 09/29/18 14:20:38
;FORMAT={-:-/ absolute / inch / decimal}
FMAT,2
INCH,TZ
T1C0.0300
T2C0.0350
T3C0.0394
T4C0.1598
%
G90
G05
M72
T1
X6.35Y-3.05
X6.35Y-3.15
X6.35Y-3.25
X6.35Y-3.35
X6.35Y-3.45
X5.25Y-3.05
X5.25Y-3.15
X5.25Y-3.25
X5.25Y-3.35
X5.25Y-3.45
T2
X6.6Y-2.2
X6.7Y-2.2
X6.8Y-2.2
T3
X4.661Y-2.59
X4.661Y-2.69
X4.661Y-4.29
X4.661Y-4.39
X4.761Y-2.59
X4.761Y-2.69
X4.761Y-4.29
X4.761Y-4.39
X4.861Y-2.59
X4.861Y-2.69
X4.861Y-4.29
X4.861Y-4.39
X4.961Y-2.59
X4.961Y-2.69
X4.961Y-4.29
X4.961Y-4.39
X5.061Y-2.59
X5.061Y-2.69
X5.061Y-4.29
X5.061Y-4.39
X5.161Y-2.59
X5.161Y-2.69
X5.161Y-4.29
X5.161Y-4.39
X5.261Y-2.59
X5.261Y-2.69
X5.261Y-4.29
X5.261Y-4.39
X5.361Y-2.59
X5.361Y-2.69
X5.361Y-4.29
X5.361Y-4.39
X5.461Y-2.59
X5.461Y-2.69
X5.461Y-4.29
X5.461Y-4.39
X5.561Y-2.59
X5.561Y-2.69
X5.561Y-4.29
X5.561Y-4.39
T4
X5.841Y-1.775
X5.841Y-2.09
T0
M30
