G04 #@! TF.GenerationSoftware,KiCad,Pcbnew,(5.0.0)*
G04 #@! TF.CreationDate,2018-10-03T21:43:00-05:00*
G04 #@! TF.ProjectId,DriveBoard_Hardware,4472697665426F6172645F4861726477,rev?*
G04 #@! TF.SameCoordinates,Original*
G04 #@! TF.FileFunction,Paste,Top*
G04 #@! TF.FilePolarity,Positive*
%FSLAX46Y46*%
G04 Gerber Fmt 4.6, Leading zero omitted, Abs format (unit mm)*
G04 Created by KiCad (PCBNEW (5.0.0)) date 10/03/18 21:43:00*
%MOMM*%
%LPD*%
G01*
G04 APERTURE LIST*
%ADD10C,5.080000*%
%ADD11C,1.520000*%
%ADD12R,1.500000X0.600000*%
%ADD13C,0.100000*%
%ADD14C,0.950000*%
G04 APERTURE END LIST*
D10*
G04 #@! TO.C,Conn1*
X142519400Y-107951000D03*
X142519400Y-99950000D03*
G04 #@! TD*
D11*
G04 #@! TO.C,U1*
X125730000Y-132080000D03*
X148590000Y-86360000D03*
X146050000Y-86360000D03*
X138430000Y-86360000D03*
X135890000Y-129540000D03*
X140970000Y-86360000D03*
X143510000Y-86360000D03*
X140970000Y-132080000D03*
X146050000Y-129540000D03*
X135890000Y-86360000D03*
X133350000Y-86360000D03*
X146050000Y-132080000D03*
X140970000Y-129540000D03*
X138430000Y-129540000D03*
X125730000Y-129540000D03*
X128270000Y-129540000D03*
X130810000Y-129540000D03*
X133350000Y-129540000D03*
X143510000Y-129540000D03*
X148590000Y-129540000D03*
X128270000Y-132080000D03*
X130810000Y-132080000D03*
X133350000Y-132080000D03*
X135890000Y-132080000D03*
X138430000Y-132080000D03*
X143510000Y-132080000D03*
X148590000Y-132080000D03*
X125730000Y-88900000D03*
X128270000Y-88900000D03*
X130810000Y-88900000D03*
X133350000Y-88900000D03*
X135890000Y-88900000D03*
X138430000Y-88900000D03*
X140970000Y-88900000D03*
X143510000Y-88900000D03*
X146050000Y-88900000D03*
X148590000Y-88900000D03*
X125730000Y-86360000D03*
X128270000Y-86360000D03*
X130810000Y-86360000D03*
G04 #@! TD*
D12*
G04 #@! TO.C,U2*
X156461500Y-68770500D03*
X156461500Y-70040500D03*
X156461500Y-71310500D03*
X156461500Y-72580500D03*
X156461500Y-73850500D03*
X156461500Y-75120500D03*
X156461500Y-76390500D03*
X156461500Y-77660500D03*
X161861500Y-77660500D03*
X161861500Y-76390500D03*
X161861500Y-75120500D03*
X161861500Y-73850500D03*
X161861500Y-72580500D03*
X161861500Y-71310500D03*
X161861500Y-70040500D03*
X161861500Y-68770500D03*
G04 #@! TD*
D13*
G04 #@! TO.C,C1*
G36*
X154044279Y-69566644D02*
X154067334Y-69570063D01*
X154089943Y-69575727D01*
X154111887Y-69583579D01*
X154132957Y-69593544D01*
X154152948Y-69605526D01*
X154171668Y-69619410D01*
X154188938Y-69635062D01*
X154204590Y-69652332D01*
X154218474Y-69671052D01*
X154230456Y-69691043D01*
X154240421Y-69712113D01*
X154248273Y-69734057D01*
X154253937Y-69756666D01*
X154257356Y-69779721D01*
X154258500Y-69803000D01*
X154258500Y-70278000D01*
X154257356Y-70301279D01*
X154253937Y-70324334D01*
X154248273Y-70346943D01*
X154240421Y-70368887D01*
X154230456Y-70389957D01*
X154218474Y-70409948D01*
X154204590Y-70428668D01*
X154188938Y-70445938D01*
X154171668Y-70461590D01*
X154152948Y-70475474D01*
X154132957Y-70487456D01*
X154111887Y-70497421D01*
X154089943Y-70505273D01*
X154067334Y-70510937D01*
X154044279Y-70514356D01*
X154021000Y-70515500D01*
X153446000Y-70515500D01*
X153422721Y-70514356D01*
X153399666Y-70510937D01*
X153377057Y-70505273D01*
X153355113Y-70497421D01*
X153334043Y-70487456D01*
X153314052Y-70475474D01*
X153295332Y-70461590D01*
X153278062Y-70445938D01*
X153262410Y-70428668D01*
X153248526Y-70409948D01*
X153236544Y-70389957D01*
X153226579Y-70368887D01*
X153218727Y-70346943D01*
X153213063Y-70324334D01*
X153209644Y-70301279D01*
X153208500Y-70278000D01*
X153208500Y-69803000D01*
X153209644Y-69779721D01*
X153213063Y-69756666D01*
X153218727Y-69734057D01*
X153226579Y-69712113D01*
X153236544Y-69691043D01*
X153248526Y-69671052D01*
X153262410Y-69652332D01*
X153278062Y-69635062D01*
X153295332Y-69619410D01*
X153314052Y-69605526D01*
X153334043Y-69593544D01*
X153355113Y-69583579D01*
X153377057Y-69575727D01*
X153399666Y-69570063D01*
X153422721Y-69566644D01*
X153446000Y-69565500D01*
X154021000Y-69565500D01*
X154044279Y-69566644D01*
X154044279Y-69566644D01*
G37*
D14*
X153733500Y-70040500D03*
D13*
G36*
X152294279Y-69566644D02*
X152317334Y-69570063D01*
X152339943Y-69575727D01*
X152361887Y-69583579D01*
X152382957Y-69593544D01*
X152402948Y-69605526D01*
X152421668Y-69619410D01*
X152438938Y-69635062D01*
X152454590Y-69652332D01*
X152468474Y-69671052D01*
X152480456Y-69691043D01*
X152490421Y-69712113D01*
X152498273Y-69734057D01*
X152503937Y-69756666D01*
X152507356Y-69779721D01*
X152508500Y-69803000D01*
X152508500Y-70278000D01*
X152507356Y-70301279D01*
X152503937Y-70324334D01*
X152498273Y-70346943D01*
X152490421Y-70368887D01*
X152480456Y-70389957D01*
X152468474Y-70409948D01*
X152454590Y-70428668D01*
X152438938Y-70445938D01*
X152421668Y-70461590D01*
X152402948Y-70475474D01*
X152382957Y-70487456D01*
X152361887Y-70497421D01*
X152339943Y-70505273D01*
X152317334Y-70510937D01*
X152294279Y-70514356D01*
X152271000Y-70515500D01*
X151696000Y-70515500D01*
X151672721Y-70514356D01*
X151649666Y-70510937D01*
X151627057Y-70505273D01*
X151605113Y-70497421D01*
X151584043Y-70487456D01*
X151564052Y-70475474D01*
X151545332Y-70461590D01*
X151528062Y-70445938D01*
X151512410Y-70428668D01*
X151498526Y-70409948D01*
X151486544Y-70389957D01*
X151476579Y-70368887D01*
X151468727Y-70346943D01*
X151463063Y-70324334D01*
X151459644Y-70301279D01*
X151458500Y-70278000D01*
X151458500Y-69803000D01*
X151459644Y-69779721D01*
X151463063Y-69756666D01*
X151468727Y-69734057D01*
X151476579Y-69712113D01*
X151486544Y-69691043D01*
X151498526Y-69671052D01*
X151512410Y-69652332D01*
X151528062Y-69635062D01*
X151545332Y-69619410D01*
X151564052Y-69605526D01*
X151584043Y-69593544D01*
X151605113Y-69583579D01*
X151627057Y-69575727D01*
X151649666Y-69570063D01*
X151672721Y-69566644D01*
X151696000Y-69565500D01*
X152271000Y-69565500D01*
X152294279Y-69566644D01*
X152294279Y-69566644D01*
G37*
D14*
X151983500Y-70040500D03*
G04 #@! TD*
D13*
G04 #@! TO.C,C2*
G36*
X152611779Y-74710144D02*
X152634834Y-74713563D01*
X152657443Y-74719227D01*
X152679387Y-74727079D01*
X152700457Y-74737044D01*
X152720448Y-74749026D01*
X152739168Y-74762910D01*
X152756438Y-74778562D01*
X152772090Y-74795832D01*
X152785974Y-74814552D01*
X152797956Y-74834543D01*
X152807921Y-74855613D01*
X152815773Y-74877557D01*
X152821437Y-74900166D01*
X152824856Y-74923221D01*
X152826000Y-74946500D01*
X152826000Y-75421500D01*
X152824856Y-75444779D01*
X152821437Y-75467834D01*
X152815773Y-75490443D01*
X152807921Y-75512387D01*
X152797956Y-75533457D01*
X152785974Y-75553448D01*
X152772090Y-75572168D01*
X152756438Y-75589438D01*
X152739168Y-75605090D01*
X152720448Y-75618974D01*
X152700457Y-75630956D01*
X152679387Y-75640921D01*
X152657443Y-75648773D01*
X152634834Y-75654437D01*
X152611779Y-75657856D01*
X152588500Y-75659000D01*
X152013500Y-75659000D01*
X151990221Y-75657856D01*
X151967166Y-75654437D01*
X151944557Y-75648773D01*
X151922613Y-75640921D01*
X151901543Y-75630956D01*
X151881552Y-75618974D01*
X151862832Y-75605090D01*
X151845562Y-75589438D01*
X151829910Y-75572168D01*
X151816026Y-75553448D01*
X151804044Y-75533457D01*
X151794079Y-75512387D01*
X151786227Y-75490443D01*
X151780563Y-75467834D01*
X151777144Y-75444779D01*
X151776000Y-75421500D01*
X151776000Y-74946500D01*
X151777144Y-74923221D01*
X151780563Y-74900166D01*
X151786227Y-74877557D01*
X151794079Y-74855613D01*
X151804044Y-74834543D01*
X151816026Y-74814552D01*
X151829910Y-74795832D01*
X151845562Y-74778562D01*
X151862832Y-74762910D01*
X151881552Y-74749026D01*
X151901543Y-74737044D01*
X151922613Y-74727079D01*
X151944557Y-74719227D01*
X151967166Y-74713563D01*
X151990221Y-74710144D01*
X152013500Y-74709000D01*
X152588500Y-74709000D01*
X152611779Y-74710144D01*
X152611779Y-74710144D01*
G37*
D14*
X152301000Y-75184000D03*
D13*
G36*
X154361779Y-74710144D02*
X154384834Y-74713563D01*
X154407443Y-74719227D01*
X154429387Y-74727079D01*
X154450457Y-74737044D01*
X154470448Y-74749026D01*
X154489168Y-74762910D01*
X154506438Y-74778562D01*
X154522090Y-74795832D01*
X154535974Y-74814552D01*
X154547956Y-74834543D01*
X154557921Y-74855613D01*
X154565773Y-74877557D01*
X154571437Y-74900166D01*
X154574856Y-74923221D01*
X154576000Y-74946500D01*
X154576000Y-75421500D01*
X154574856Y-75444779D01*
X154571437Y-75467834D01*
X154565773Y-75490443D01*
X154557921Y-75512387D01*
X154547956Y-75533457D01*
X154535974Y-75553448D01*
X154522090Y-75572168D01*
X154506438Y-75589438D01*
X154489168Y-75605090D01*
X154470448Y-75618974D01*
X154450457Y-75630956D01*
X154429387Y-75640921D01*
X154407443Y-75648773D01*
X154384834Y-75654437D01*
X154361779Y-75657856D01*
X154338500Y-75659000D01*
X153763500Y-75659000D01*
X153740221Y-75657856D01*
X153717166Y-75654437D01*
X153694557Y-75648773D01*
X153672613Y-75640921D01*
X153651543Y-75630956D01*
X153631552Y-75618974D01*
X153612832Y-75605090D01*
X153595562Y-75589438D01*
X153579910Y-75572168D01*
X153566026Y-75553448D01*
X153554044Y-75533457D01*
X153544079Y-75512387D01*
X153536227Y-75490443D01*
X153530563Y-75467834D01*
X153527144Y-75444779D01*
X153526000Y-75421500D01*
X153526000Y-74946500D01*
X153527144Y-74923221D01*
X153530563Y-74900166D01*
X153536227Y-74877557D01*
X153544079Y-74855613D01*
X153554044Y-74834543D01*
X153566026Y-74814552D01*
X153579910Y-74795832D01*
X153595562Y-74778562D01*
X153612832Y-74762910D01*
X153631552Y-74749026D01*
X153651543Y-74737044D01*
X153672613Y-74727079D01*
X153694557Y-74719227D01*
X153717166Y-74713563D01*
X153740221Y-74710144D01*
X153763500Y-74709000D01*
X154338500Y-74709000D01*
X154361779Y-74710144D01*
X154361779Y-74710144D01*
G37*
D14*
X154051000Y-75184000D03*
G04 #@! TD*
D13*
G04 #@! TO.C,C3*
G36*
X129787279Y-93379144D02*
X129810334Y-93382563D01*
X129832943Y-93388227D01*
X129854887Y-93396079D01*
X129875957Y-93406044D01*
X129895948Y-93418026D01*
X129914668Y-93431910D01*
X129931938Y-93447562D01*
X129947590Y-93464832D01*
X129961474Y-93483552D01*
X129973456Y-93503543D01*
X129983421Y-93524613D01*
X129991273Y-93546557D01*
X129996937Y-93569166D01*
X130000356Y-93592221D01*
X130001500Y-93615500D01*
X130001500Y-94090500D01*
X130000356Y-94113779D01*
X129996937Y-94136834D01*
X129991273Y-94159443D01*
X129983421Y-94181387D01*
X129973456Y-94202457D01*
X129961474Y-94222448D01*
X129947590Y-94241168D01*
X129931938Y-94258438D01*
X129914668Y-94274090D01*
X129895948Y-94287974D01*
X129875957Y-94299956D01*
X129854887Y-94309921D01*
X129832943Y-94317773D01*
X129810334Y-94323437D01*
X129787279Y-94326856D01*
X129764000Y-94328000D01*
X129189000Y-94328000D01*
X129165721Y-94326856D01*
X129142666Y-94323437D01*
X129120057Y-94317773D01*
X129098113Y-94309921D01*
X129077043Y-94299956D01*
X129057052Y-94287974D01*
X129038332Y-94274090D01*
X129021062Y-94258438D01*
X129005410Y-94241168D01*
X128991526Y-94222448D01*
X128979544Y-94202457D01*
X128969579Y-94181387D01*
X128961727Y-94159443D01*
X128956063Y-94136834D01*
X128952644Y-94113779D01*
X128951500Y-94090500D01*
X128951500Y-93615500D01*
X128952644Y-93592221D01*
X128956063Y-93569166D01*
X128961727Y-93546557D01*
X128969579Y-93524613D01*
X128979544Y-93503543D01*
X128991526Y-93483552D01*
X129005410Y-93464832D01*
X129021062Y-93447562D01*
X129038332Y-93431910D01*
X129057052Y-93418026D01*
X129077043Y-93406044D01*
X129098113Y-93396079D01*
X129120057Y-93388227D01*
X129142666Y-93382563D01*
X129165721Y-93379144D01*
X129189000Y-93378000D01*
X129764000Y-93378000D01*
X129787279Y-93379144D01*
X129787279Y-93379144D01*
G37*
D14*
X129476500Y-93853000D03*
D13*
G36*
X128037279Y-93379144D02*
X128060334Y-93382563D01*
X128082943Y-93388227D01*
X128104887Y-93396079D01*
X128125957Y-93406044D01*
X128145948Y-93418026D01*
X128164668Y-93431910D01*
X128181938Y-93447562D01*
X128197590Y-93464832D01*
X128211474Y-93483552D01*
X128223456Y-93503543D01*
X128233421Y-93524613D01*
X128241273Y-93546557D01*
X128246937Y-93569166D01*
X128250356Y-93592221D01*
X128251500Y-93615500D01*
X128251500Y-94090500D01*
X128250356Y-94113779D01*
X128246937Y-94136834D01*
X128241273Y-94159443D01*
X128233421Y-94181387D01*
X128223456Y-94202457D01*
X128211474Y-94222448D01*
X128197590Y-94241168D01*
X128181938Y-94258438D01*
X128164668Y-94274090D01*
X128145948Y-94287974D01*
X128125957Y-94299956D01*
X128104887Y-94309921D01*
X128082943Y-94317773D01*
X128060334Y-94323437D01*
X128037279Y-94326856D01*
X128014000Y-94328000D01*
X127439000Y-94328000D01*
X127415721Y-94326856D01*
X127392666Y-94323437D01*
X127370057Y-94317773D01*
X127348113Y-94309921D01*
X127327043Y-94299956D01*
X127307052Y-94287974D01*
X127288332Y-94274090D01*
X127271062Y-94258438D01*
X127255410Y-94241168D01*
X127241526Y-94222448D01*
X127229544Y-94202457D01*
X127219579Y-94181387D01*
X127211727Y-94159443D01*
X127206063Y-94136834D01*
X127202644Y-94113779D01*
X127201500Y-94090500D01*
X127201500Y-93615500D01*
X127202644Y-93592221D01*
X127206063Y-93569166D01*
X127211727Y-93546557D01*
X127219579Y-93524613D01*
X127229544Y-93503543D01*
X127241526Y-93483552D01*
X127255410Y-93464832D01*
X127271062Y-93447562D01*
X127288332Y-93431910D01*
X127307052Y-93418026D01*
X127327043Y-93406044D01*
X127348113Y-93396079D01*
X127370057Y-93388227D01*
X127392666Y-93382563D01*
X127415721Y-93379144D01*
X127439000Y-93378000D01*
X128014000Y-93378000D01*
X128037279Y-93379144D01*
X128037279Y-93379144D01*
G37*
D14*
X127726500Y-93853000D03*
G04 #@! TD*
D13*
G04 #@! TO.C,C4*
G36*
X147326779Y-68641644D02*
X147349834Y-68645063D01*
X147372443Y-68650727D01*
X147394387Y-68658579D01*
X147415457Y-68668544D01*
X147435448Y-68680526D01*
X147454168Y-68694410D01*
X147471438Y-68710062D01*
X147487090Y-68727332D01*
X147500974Y-68746052D01*
X147512956Y-68766043D01*
X147522921Y-68787113D01*
X147530773Y-68809057D01*
X147536437Y-68831666D01*
X147539856Y-68854721D01*
X147541000Y-68878000D01*
X147541000Y-69453000D01*
X147539856Y-69476279D01*
X147536437Y-69499334D01*
X147530773Y-69521943D01*
X147522921Y-69543887D01*
X147512956Y-69564957D01*
X147500974Y-69584948D01*
X147487090Y-69603668D01*
X147471438Y-69620938D01*
X147454168Y-69636590D01*
X147435448Y-69650474D01*
X147415457Y-69662456D01*
X147394387Y-69672421D01*
X147372443Y-69680273D01*
X147349834Y-69685937D01*
X147326779Y-69689356D01*
X147303500Y-69690500D01*
X146828500Y-69690500D01*
X146805221Y-69689356D01*
X146782166Y-69685937D01*
X146759557Y-69680273D01*
X146737613Y-69672421D01*
X146716543Y-69662456D01*
X146696552Y-69650474D01*
X146677832Y-69636590D01*
X146660562Y-69620938D01*
X146644910Y-69603668D01*
X146631026Y-69584948D01*
X146619044Y-69564957D01*
X146609079Y-69543887D01*
X146601227Y-69521943D01*
X146595563Y-69499334D01*
X146592144Y-69476279D01*
X146591000Y-69453000D01*
X146591000Y-68878000D01*
X146592144Y-68854721D01*
X146595563Y-68831666D01*
X146601227Y-68809057D01*
X146609079Y-68787113D01*
X146619044Y-68766043D01*
X146631026Y-68746052D01*
X146644910Y-68727332D01*
X146660562Y-68710062D01*
X146677832Y-68694410D01*
X146696552Y-68680526D01*
X146716543Y-68668544D01*
X146737613Y-68658579D01*
X146759557Y-68650727D01*
X146782166Y-68645063D01*
X146805221Y-68641644D01*
X146828500Y-68640500D01*
X147303500Y-68640500D01*
X147326779Y-68641644D01*
X147326779Y-68641644D01*
G37*
D14*
X147066000Y-69165500D03*
D13*
G36*
X147326779Y-70391644D02*
X147349834Y-70395063D01*
X147372443Y-70400727D01*
X147394387Y-70408579D01*
X147415457Y-70418544D01*
X147435448Y-70430526D01*
X147454168Y-70444410D01*
X147471438Y-70460062D01*
X147487090Y-70477332D01*
X147500974Y-70496052D01*
X147512956Y-70516043D01*
X147522921Y-70537113D01*
X147530773Y-70559057D01*
X147536437Y-70581666D01*
X147539856Y-70604721D01*
X147541000Y-70628000D01*
X147541000Y-71203000D01*
X147539856Y-71226279D01*
X147536437Y-71249334D01*
X147530773Y-71271943D01*
X147522921Y-71293887D01*
X147512956Y-71314957D01*
X147500974Y-71334948D01*
X147487090Y-71353668D01*
X147471438Y-71370938D01*
X147454168Y-71386590D01*
X147435448Y-71400474D01*
X147415457Y-71412456D01*
X147394387Y-71422421D01*
X147372443Y-71430273D01*
X147349834Y-71435937D01*
X147326779Y-71439356D01*
X147303500Y-71440500D01*
X146828500Y-71440500D01*
X146805221Y-71439356D01*
X146782166Y-71435937D01*
X146759557Y-71430273D01*
X146737613Y-71422421D01*
X146716543Y-71412456D01*
X146696552Y-71400474D01*
X146677832Y-71386590D01*
X146660562Y-71370938D01*
X146644910Y-71353668D01*
X146631026Y-71334948D01*
X146619044Y-71314957D01*
X146609079Y-71293887D01*
X146601227Y-71271943D01*
X146595563Y-71249334D01*
X146592144Y-71226279D01*
X146591000Y-71203000D01*
X146591000Y-70628000D01*
X146592144Y-70604721D01*
X146595563Y-70581666D01*
X146601227Y-70559057D01*
X146609079Y-70537113D01*
X146619044Y-70516043D01*
X146631026Y-70496052D01*
X146644910Y-70477332D01*
X146660562Y-70460062D01*
X146677832Y-70444410D01*
X146696552Y-70430526D01*
X146716543Y-70418544D01*
X146737613Y-70408579D01*
X146759557Y-70400727D01*
X146782166Y-70395063D01*
X146805221Y-70391644D01*
X146828500Y-70390500D01*
X147303500Y-70390500D01*
X147326779Y-70391644D01*
X147326779Y-70391644D01*
G37*
D14*
X147066000Y-70915500D03*
G04 #@! TD*
D13*
G04 #@! TO.C,C5*
G36*
X147136279Y-74124144D02*
X147159334Y-74127563D01*
X147181943Y-74133227D01*
X147203887Y-74141079D01*
X147224957Y-74151044D01*
X147244948Y-74163026D01*
X147263668Y-74176910D01*
X147280938Y-74192562D01*
X147296590Y-74209832D01*
X147310474Y-74228552D01*
X147322456Y-74248543D01*
X147332421Y-74269613D01*
X147340273Y-74291557D01*
X147345937Y-74314166D01*
X147349356Y-74337221D01*
X147350500Y-74360500D01*
X147350500Y-74935500D01*
X147349356Y-74958779D01*
X147345937Y-74981834D01*
X147340273Y-75004443D01*
X147332421Y-75026387D01*
X147322456Y-75047457D01*
X147310474Y-75067448D01*
X147296590Y-75086168D01*
X147280938Y-75103438D01*
X147263668Y-75119090D01*
X147244948Y-75132974D01*
X147224957Y-75144956D01*
X147203887Y-75154921D01*
X147181943Y-75162773D01*
X147159334Y-75168437D01*
X147136279Y-75171856D01*
X147113000Y-75173000D01*
X146638000Y-75173000D01*
X146614721Y-75171856D01*
X146591666Y-75168437D01*
X146569057Y-75162773D01*
X146547113Y-75154921D01*
X146526043Y-75144956D01*
X146506052Y-75132974D01*
X146487332Y-75119090D01*
X146470062Y-75103438D01*
X146454410Y-75086168D01*
X146440526Y-75067448D01*
X146428544Y-75047457D01*
X146418579Y-75026387D01*
X146410727Y-75004443D01*
X146405063Y-74981834D01*
X146401644Y-74958779D01*
X146400500Y-74935500D01*
X146400500Y-74360500D01*
X146401644Y-74337221D01*
X146405063Y-74314166D01*
X146410727Y-74291557D01*
X146418579Y-74269613D01*
X146428544Y-74248543D01*
X146440526Y-74228552D01*
X146454410Y-74209832D01*
X146470062Y-74192562D01*
X146487332Y-74176910D01*
X146506052Y-74163026D01*
X146526043Y-74151044D01*
X146547113Y-74141079D01*
X146569057Y-74133227D01*
X146591666Y-74127563D01*
X146614721Y-74124144D01*
X146638000Y-74123000D01*
X147113000Y-74123000D01*
X147136279Y-74124144D01*
X147136279Y-74124144D01*
G37*
D14*
X146875500Y-74648000D03*
D13*
G36*
X147136279Y-72374144D02*
X147159334Y-72377563D01*
X147181943Y-72383227D01*
X147203887Y-72391079D01*
X147224957Y-72401044D01*
X147244948Y-72413026D01*
X147263668Y-72426910D01*
X147280938Y-72442562D01*
X147296590Y-72459832D01*
X147310474Y-72478552D01*
X147322456Y-72498543D01*
X147332421Y-72519613D01*
X147340273Y-72541557D01*
X147345937Y-72564166D01*
X147349356Y-72587221D01*
X147350500Y-72610500D01*
X147350500Y-73185500D01*
X147349356Y-73208779D01*
X147345937Y-73231834D01*
X147340273Y-73254443D01*
X147332421Y-73276387D01*
X147322456Y-73297457D01*
X147310474Y-73317448D01*
X147296590Y-73336168D01*
X147280938Y-73353438D01*
X147263668Y-73369090D01*
X147244948Y-73382974D01*
X147224957Y-73394956D01*
X147203887Y-73404921D01*
X147181943Y-73412773D01*
X147159334Y-73418437D01*
X147136279Y-73421856D01*
X147113000Y-73423000D01*
X146638000Y-73423000D01*
X146614721Y-73421856D01*
X146591666Y-73418437D01*
X146569057Y-73412773D01*
X146547113Y-73404921D01*
X146526043Y-73394956D01*
X146506052Y-73382974D01*
X146487332Y-73369090D01*
X146470062Y-73353438D01*
X146454410Y-73336168D01*
X146440526Y-73317448D01*
X146428544Y-73297457D01*
X146418579Y-73276387D01*
X146410727Y-73254443D01*
X146405063Y-73231834D01*
X146401644Y-73208779D01*
X146400500Y-73185500D01*
X146400500Y-72610500D01*
X146401644Y-72587221D01*
X146405063Y-72564166D01*
X146410727Y-72541557D01*
X146418579Y-72519613D01*
X146428544Y-72498543D01*
X146440526Y-72478552D01*
X146454410Y-72459832D01*
X146470062Y-72442562D01*
X146487332Y-72426910D01*
X146506052Y-72413026D01*
X146526043Y-72401044D01*
X146547113Y-72391079D01*
X146569057Y-72383227D01*
X146591666Y-72377563D01*
X146614721Y-72374144D01*
X146638000Y-72373000D01*
X147113000Y-72373000D01*
X147136279Y-72374144D01*
X147136279Y-72374144D01*
G37*
D14*
X146875500Y-72898000D03*
G04 #@! TD*
D13*
G04 #@! TO.C,C6*
G36*
X163074779Y-85314144D02*
X163097834Y-85317563D01*
X163120443Y-85323227D01*
X163142387Y-85331079D01*
X163163457Y-85341044D01*
X163183448Y-85353026D01*
X163202168Y-85366910D01*
X163219438Y-85382562D01*
X163235090Y-85399832D01*
X163248974Y-85418552D01*
X163260956Y-85438543D01*
X163270921Y-85459613D01*
X163278773Y-85481557D01*
X163284437Y-85504166D01*
X163287856Y-85527221D01*
X163289000Y-85550500D01*
X163289000Y-86125500D01*
X163287856Y-86148779D01*
X163284437Y-86171834D01*
X163278773Y-86194443D01*
X163270921Y-86216387D01*
X163260956Y-86237457D01*
X163248974Y-86257448D01*
X163235090Y-86276168D01*
X163219438Y-86293438D01*
X163202168Y-86309090D01*
X163183448Y-86322974D01*
X163163457Y-86334956D01*
X163142387Y-86344921D01*
X163120443Y-86352773D01*
X163097834Y-86358437D01*
X163074779Y-86361856D01*
X163051500Y-86363000D01*
X162576500Y-86363000D01*
X162553221Y-86361856D01*
X162530166Y-86358437D01*
X162507557Y-86352773D01*
X162485613Y-86344921D01*
X162464543Y-86334956D01*
X162444552Y-86322974D01*
X162425832Y-86309090D01*
X162408562Y-86293438D01*
X162392910Y-86276168D01*
X162379026Y-86257448D01*
X162367044Y-86237457D01*
X162357079Y-86216387D01*
X162349227Y-86194443D01*
X162343563Y-86171834D01*
X162340144Y-86148779D01*
X162339000Y-86125500D01*
X162339000Y-85550500D01*
X162340144Y-85527221D01*
X162343563Y-85504166D01*
X162349227Y-85481557D01*
X162357079Y-85459613D01*
X162367044Y-85438543D01*
X162379026Y-85418552D01*
X162392910Y-85399832D01*
X162408562Y-85382562D01*
X162425832Y-85366910D01*
X162444552Y-85353026D01*
X162464543Y-85341044D01*
X162485613Y-85331079D01*
X162507557Y-85323227D01*
X162530166Y-85317563D01*
X162553221Y-85314144D01*
X162576500Y-85313000D01*
X163051500Y-85313000D01*
X163074779Y-85314144D01*
X163074779Y-85314144D01*
G37*
D14*
X162814000Y-85838000D03*
D13*
G36*
X163074779Y-83564144D02*
X163097834Y-83567563D01*
X163120443Y-83573227D01*
X163142387Y-83581079D01*
X163163457Y-83591044D01*
X163183448Y-83603026D01*
X163202168Y-83616910D01*
X163219438Y-83632562D01*
X163235090Y-83649832D01*
X163248974Y-83668552D01*
X163260956Y-83688543D01*
X163270921Y-83709613D01*
X163278773Y-83731557D01*
X163284437Y-83754166D01*
X163287856Y-83777221D01*
X163289000Y-83800500D01*
X163289000Y-84375500D01*
X163287856Y-84398779D01*
X163284437Y-84421834D01*
X163278773Y-84444443D01*
X163270921Y-84466387D01*
X163260956Y-84487457D01*
X163248974Y-84507448D01*
X163235090Y-84526168D01*
X163219438Y-84543438D01*
X163202168Y-84559090D01*
X163183448Y-84572974D01*
X163163457Y-84584956D01*
X163142387Y-84594921D01*
X163120443Y-84602773D01*
X163097834Y-84608437D01*
X163074779Y-84611856D01*
X163051500Y-84613000D01*
X162576500Y-84613000D01*
X162553221Y-84611856D01*
X162530166Y-84608437D01*
X162507557Y-84602773D01*
X162485613Y-84594921D01*
X162464543Y-84584956D01*
X162444552Y-84572974D01*
X162425832Y-84559090D01*
X162408562Y-84543438D01*
X162392910Y-84526168D01*
X162379026Y-84507448D01*
X162367044Y-84487457D01*
X162357079Y-84466387D01*
X162349227Y-84444443D01*
X162343563Y-84421834D01*
X162340144Y-84398779D01*
X162339000Y-84375500D01*
X162339000Y-83800500D01*
X162340144Y-83777221D01*
X162343563Y-83754166D01*
X162349227Y-83731557D01*
X162357079Y-83709613D01*
X162367044Y-83688543D01*
X162379026Y-83668552D01*
X162392910Y-83649832D01*
X162408562Y-83632562D01*
X162425832Y-83616910D01*
X162444552Y-83603026D01*
X162464543Y-83591044D01*
X162485613Y-83581079D01*
X162507557Y-83573227D01*
X162530166Y-83567563D01*
X162553221Y-83564144D01*
X162576500Y-83563000D01*
X163051500Y-83563000D01*
X163074779Y-83564144D01*
X163074779Y-83564144D01*
G37*
D14*
X162814000Y-84088000D03*
G04 #@! TD*
M02*
