G04 #@! TF.GenerationSoftware,KiCad,Pcbnew,(5.0.0)*
G04 #@! TF.CreationDate,2018-09-29T17:06:36-05:00*
G04 #@! TF.ProjectId,DriveBoard_Hardware,4472697665426F6172645F4861726477,rev?*
G04 #@! TF.SameCoordinates,Original*
G04 #@! TF.FileFunction,Copper,L1,Top,Signal*
G04 #@! TF.FilePolarity,Positive*
%FSLAX46Y46*%
G04 Gerber Fmt 4.6, Leading zero omitted, Abs format (unit mm)*
G04 Created by KiCad (PCBNEW (5.0.0)) date 09/29/18 17:06:36*
%MOMM*%
%LPD*%
G01*
G04 APERTURE LIST*
G04 #@! TA.AperFunction,ComponentPad*
%ADD10C,1.524000*%
G04 #@! TD*
G04 #@! TA.AperFunction,Conductor*
%ADD11C,0.100000*%
G04 #@! TD*
G04 #@! TA.AperFunction,SMDPad,CuDef*
%ADD12C,0.950000*%
G04 #@! TD*
G04 #@! TA.AperFunction,ComponentPad*
%ADD13C,5.080000*%
G04 #@! TD*
G04 #@! TA.AperFunction,ComponentPad*
%ADD14C,1.520000*%
G04 #@! TD*
G04 #@! TA.AperFunction,SMDPad,CuDef*
%ADD15R,1.500000X0.600000*%
G04 #@! TD*
G04 #@! TA.AperFunction,ViaPad*
%ADD16C,0.800000*%
G04 #@! TD*
G04 #@! TA.AperFunction,ViaPad*
%ADD17C,1.016000*%
G04 #@! TD*
G04 #@! TA.AperFunction,Conductor*
%ADD18C,0.254000*%
G04 #@! TD*
G04 #@! TA.AperFunction,Conductor*
%ADD19C,0.762000*%
G04 #@! TD*
G04 #@! TA.AperFunction,Conductor*
%ADD20C,0.250000*%
G04 #@! TD*
G04 APERTURE END LIST*
D10*
G04 #@! TO.P,U3,1*
G04 #@! TO.N,/+12V*
X55880000Y-93980000D03*
G04 #@! TO.P,U3,2*
G04 #@! TO.N,GND*
X55880000Y-91440000D03*
G04 #@! TO.P,U3,3*
G04 #@! TO.N,+5V*
X55880000Y-88900000D03*
G04 #@! TD*
D11*
G04 #@! TO.N,Net-(C1-Pad1)*
G04 #@! TO.C,C1*
G36*
X36328779Y-80897144D02*
X36351834Y-80900563D01*
X36374443Y-80906227D01*
X36396387Y-80914079D01*
X36417457Y-80924044D01*
X36437448Y-80936026D01*
X36456168Y-80949910D01*
X36473438Y-80965562D01*
X36489090Y-80982832D01*
X36502974Y-81001552D01*
X36514956Y-81021543D01*
X36524921Y-81042613D01*
X36532773Y-81064557D01*
X36538437Y-81087166D01*
X36541856Y-81110221D01*
X36543000Y-81133500D01*
X36543000Y-81708500D01*
X36541856Y-81731779D01*
X36538437Y-81754834D01*
X36532773Y-81777443D01*
X36524921Y-81799387D01*
X36514956Y-81820457D01*
X36502974Y-81840448D01*
X36489090Y-81859168D01*
X36473438Y-81876438D01*
X36456168Y-81892090D01*
X36437448Y-81905974D01*
X36417457Y-81917956D01*
X36396387Y-81927921D01*
X36374443Y-81935773D01*
X36351834Y-81941437D01*
X36328779Y-81944856D01*
X36305500Y-81946000D01*
X35830500Y-81946000D01*
X35807221Y-81944856D01*
X35784166Y-81941437D01*
X35761557Y-81935773D01*
X35739613Y-81927921D01*
X35718543Y-81917956D01*
X35698552Y-81905974D01*
X35679832Y-81892090D01*
X35662562Y-81876438D01*
X35646910Y-81859168D01*
X35633026Y-81840448D01*
X35621044Y-81820457D01*
X35611079Y-81799387D01*
X35603227Y-81777443D01*
X35597563Y-81754834D01*
X35594144Y-81731779D01*
X35593000Y-81708500D01*
X35593000Y-81133500D01*
X35594144Y-81110221D01*
X35597563Y-81087166D01*
X35603227Y-81064557D01*
X35611079Y-81042613D01*
X35621044Y-81021543D01*
X35633026Y-81001552D01*
X35646910Y-80982832D01*
X35662562Y-80965562D01*
X35679832Y-80949910D01*
X35698552Y-80936026D01*
X35718543Y-80924044D01*
X35739613Y-80914079D01*
X35761557Y-80906227D01*
X35784166Y-80900563D01*
X35807221Y-80897144D01*
X35830500Y-80896000D01*
X36305500Y-80896000D01*
X36328779Y-80897144D01*
X36328779Y-80897144D01*
G37*
D12*
G04 #@! TD*
G04 #@! TO.P,C1,1*
G04 #@! TO.N,Net-(C1-Pad1)*
X36068000Y-81421000D03*
D11*
G04 #@! TO.N,GND*
G04 #@! TO.C,C1*
G36*
X36328779Y-82647144D02*
X36351834Y-82650563D01*
X36374443Y-82656227D01*
X36396387Y-82664079D01*
X36417457Y-82674044D01*
X36437448Y-82686026D01*
X36456168Y-82699910D01*
X36473438Y-82715562D01*
X36489090Y-82732832D01*
X36502974Y-82751552D01*
X36514956Y-82771543D01*
X36524921Y-82792613D01*
X36532773Y-82814557D01*
X36538437Y-82837166D01*
X36541856Y-82860221D01*
X36543000Y-82883500D01*
X36543000Y-83458500D01*
X36541856Y-83481779D01*
X36538437Y-83504834D01*
X36532773Y-83527443D01*
X36524921Y-83549387D01*
X36514956Y-83570457D01*
X36502974Y-83590448D01*
X36489090Y-83609168D01*
X36473438Y-83626438D01*
X36456168Y-83642090D01*
X36437448Y-83655974D01*
X36417457Y-83667956D01*
X36396387Y-83677921D01*
X36374443Y-83685773D01*
X36351834Y-83691437D01*
X36328779Y-83694856D01*
X36305500Y-83696000D01*
X35830500Y-83696000D01*
X35807221Y-83694856D01*
X35784166Y-83691437D01*
X35761557Y-83685773D01*
X35739613Y-83677921D01*
X35718543Y-83667956D01*
X35698552Y-83655974D01*
X35679832Y-83642090D01*
X35662562Y-83626438D01*
X35646910Y-83609168D01*
X35633026Y-83590448D01*
X35621044Y-83570457D01*
X35611079Y-83549387D01*
X35603227Y-83527443D01*
X35597563Y-83504834D01*
X35594144Y-83481779D01*
X35593000Y-83458500D01*
X35593000Y-82883500D01*
X35594144Y-82860221D01*
X35597563Y-82837166D01*
X35603227Y-82814557D01*
X35611079Y-82792613D01*
X35621044Y-82771543D01*
X35633026Y-82751552D01*
X35646910Y-82732832D01*
X35662562Y-82715562D01*
X35679832Y-82699910D01*
X35698552Y-82686026D01*
X35718543Y-82674044D01*
X35739613Y-82664079D01*
X35761557Y-82656227D01*
X35784166Y-82650563D01*
X35807221Y-82647144D01*
X35830500Y-82646000D01*
X36305500Y-82646000D01*
X36328779Y-82647144D01*
X36328779Y-82647144D01*
G37*
D12*
G04 #@! TD*
G04 #@! TO.P,C1,2*
G04 #@! TO.N,GND*
X36068000Y-83171000D03*
D11*
G04 #@! TO.N,GND*
G04 #@! TO.C,C2*
G36*
X30740779Y-84453144D02*
X30763834Y-84456563D01*
X30786443Y-84462227D01*
X30808387Y-84470079D01*
X30829457Y-84480044D01*
X30849448Y-84492026D01*
X30868168Y-84505910D01*
X30885438Y-84521562D01*
X30901090Y-84538832D01*
X30914974Y-84557552D01*
X30926956Y-84577543D01*
X30936921Y-84598613D01*
X30944773Y-84620557D01*
X30950437Y-84643166D01*
X30953856Y-84666221D01*
X30955000Y-84689500D01*
X30955000Y-85264500D01*
X30953856Y-85287779D01*
X30950437Y-85310834D01*
X30944773Y-85333443D01*
X30936921Y-85355387D01*
X30926956Y-85376457D01*
X30914974Y-85396448D01*
X30901090Y-85415168D01*
X30885438Y-85432438D01*
X30868168Y-85448090D01*
X30849448Y-85461974D01*
X30829457Y-85473956D01*
X30808387Y-85483921D01*
X30786443Y-85491773D01*
X30763834Y-85497437D01*
X30740779Y-85500856D01*
X30717500Y-85502000D01*
X30242500Y-85502000D01*
X30219221Y-85500856D01*
X30196166Y-85497437D01*
X30173557Y-85491773D01*
X30151613Y-85483921D01*
X30130543Y-85473956D01*
X30110552Y-85461974D01*
X30091832Y-85448090D01*
X30074562Y-85432438D01*
X30058910Y-85415168D01*
X30045026Y-85396448D01*
X30033044Y-85376457D01*
X30023079Y-85355387D01*
X30015227Y-85333443D01*
X30009563Y-85310834D01*
X30006144Y-85287779D01*
X30005000Y-85264500D01*
X30005000Y-84689500D01*
X30006144Y-84666221D01*
X30009563Y-84643166D01*
X30015227Y-84620557D01*
X30023079Y-84598613D01*
X30033044Y-84577543D01*
X30045026Y-84557552D01*
X30058910Y-84538832D01*
X30074562Y-84521562D01*
X30091832Y-84505910D01*
X30110552Y-84492026D01*
X30130543Y-84480044D01*
X30151613Y-84470079D01*
X30173557Y-84462227D01*
X30196166Y-84456563D01*
X30219221Y-84453144D01*
X30242500Y-84452000D01*
X30717500Y-84452000D01*
X30740779Y-84453144D01*
X30740779Y-84453144D01*
G37*
D12*
G04 #@! TD*
G04 #@! TO.P,C2,2*
G04 #@! TO.N,GND*
X30480000Y-84977000D03*
D11*
G04 #@! TO.N,Net-(C2-Pad1)*
G04 #@! TO.C,C2*
G36*
X30740779Y-86203144D02*
X30763834Y-86206563D01*
X30786443Y-86212227D01*
X30808387Y-86220079D01*
X30829457Y-86230044D01*
X30849448Y-86242026D01*
X30868168Y-86255910D01*
X30885438Y-86271562D01*
X30901090Y-86288832D01*
X30914974Y-86307552D01*
X30926956Y-86327543D01*
X30936921Y-86348613D01*
X30944773Y-86370557D01*
X30950437Y-86393166D01*
X30953856Y-86416221D01*
X30955000Y-86439500D01*
X30955000Y-87014500D01*
X30953856Y-87037779D01*
X30950437Y-87060834D01*
X30944773Y-87083443D01*
X30936921Y-87105387D01*
X30926956Y-87126457D01*
X30914974Y-87146448D01*
X30901090Y-87165168D01*
X30885438Y-87182438D01*
X30868168Y-87198090D01*
X30849448Y-87211974D01*
X30829457Y-87223956D01*
X30808387Y-87233921D01*
X30786443Y-87241773D01*
X30763834Y-87247437D01*
X30740779Y-87250856D01*
X30717500Y-87252000D01*
X30242500Y-87252000D01*
X30219221Y-87250856D01*
X30196166Y-87247437D01*
X30173557Y-87241773D01*
X30151613Y-87233921D01*
X30130543Y-87223956D01*
X30110552Y-87211974D01*
X30091832Y-87198090D01*
X30074562Y-87182438D01*
X30058910Y-87165168D01*
X30045026Y-87146448D01*
X30033044Y-87126457D01*
X30023079Y-87105387D01*
X30015227Y-87083443D01*
X30009563Y-87060834D01*
X30006144Y-87037779D01*
X30005000Y-87014500D01*
X30005000Y-86439500D01*
X30006144Y-86416221D01*
X30009563Y-86393166D01*
X30015227Y-86370557D01*
X30023079Y-86348613D01*
X30033044Y-86327543D01*
X30045026Y-86307552D01*
X30058910Y-86288832D01*
X30074562Y-86271562D01*
X30091832Y-86255910D01*
X30110552Y-86242026D01*
X30130543Y-86230044D01*
X30151613Y-86220079D01*
X30173557Y-86212227D01*
X30196166Y-86206563D01*
X30219221Y-86203144D01*
X30242500Y-86202000D01*
X30717500Y-86202000D01*
X30740779Y-86203144D01*
X30740779Y-86203144D01*
G37*
D12*
G04 #@! TD*
G04 #@! TO.P,C2,1*
G04 #@! TO.N,Net-(C2-Pad1)*
X30480000Y-86727000D03*
D11*
G04 #@! TO.N,/+12V*
G04 #@! TO.C,C3*
G36*
X31629779Y-90013144D02*
X31652834Y-90016563D01*
X31675443Y-90022227D01*
X31697387Y-90030079D01*
X31718457Y-90040044D01*
X31738448Y-90052026D01*
X31757168Y-90065910D01*
X31774438Y-90081562D01*
X31790090Y-90098832D01*
X31803974Y-90117552D01*
X31815956Y-90137543D01*
X31825921Y-90158613D01*
X31833773Y-90180557D01*
X31839437Y-90203166D01*
X31842856Y-90226221D01*
X31844000Y-90249500D01*
X31844000Y-90824500D01*
X31842856Y-90847779D01*
X31839437Y-90870834D01*
X31833773Y-90893443D01*
X31825921Y-90915387D01*
X31815956Y-90936457D01*
X31803974Y-90956448D01*
X31790090Y-90975168D01*
X31774438Y-90992438D01*
X31757168Y-91008090D01*
X31738448Y-91021974D01*
X31718457Y-91033956D01*
X31697387Y-91043921D01*
X31675443Y-91051773D01*
X31652834Y-91057437D01*
X31629779Y-91060856D01*
X31606500Y-91062000D01*
X31131500Y-91062000D01*
X31108221Y-91060856D01*
X31085166Y-91057437D01*
X31062557Y-91051773D01*
X31040613Y-91043921D01*
X31019543Y-91033956D01*
X30999552Y-91021974D01*
X30980832Y-91008090D01*
X30963562Y-90992438D01*
X30947910Y-90975168D01*
X30934026Y-90956448D01*
X30922044Y-90936457D01*
X30912079Y-90915387D01*
X30904227Y-90893443D01*
X30898563Y-90870834D01*
X30895144Y-90847779D01*
X30894000Y-90824500D01*
X30894000Y-90249500D01*
X30895144Y-90226221D01*
X30898563Y-90203166D01*
X30904227Y-90180557D01*
X30912079Y-90158613D01*
X30922044Y-90137543D01*
X30934026Y-90117552D01*
X30947910Y-90098832D01*
X30963562Y-90081562D01*
X30980832Y-90065910D01*
X30999552Y-90052026D01*
X31019543Y-90040044D01*
X31040613Y-90030079D01*
X31062557Y-90022227D01*
X31085166Y-90016563D01*
X31108221Y-90013144D01*
X31131500Y-90012000D01*
X31606500Y-90012000D01*
X31629779Y-90013144D01*
X31629779Y-90013144D01*
G37*
D12*
G04 #@! TD*
G04 #@! TO.P,C3,1*
G04 #@! TO.N,/+12V*
X31369000Y-90537000D03*
D11*
G04 #@! TO.N,GND*
G04 #@! TO.C,C3*
G36*
X31629779Y-88263144D02*
X31652834Y-88266563D01*
X31675443Y-88272227D01*
X31697387Y-88280079D01*
X31718457Y-88290044D01*
X31738448Y-88302026D01*
X31757168Y-88315910D01*
X31774438Y-88331562D01*
X31790090Y-88348832D01*
X31803974Y-88367552D01*
X31815956Y-88387543D01*
X31825921Y-88408613D01*
X31833773Y-88430557D01*
X31839437Y-88453166D01*
X31842856Y-88476221D01*
X31844000Y-88499500D01*
X31844000Y-89074500D01*
X31842856Y-89097779D01*
X31839437Y-89120834D01*
X31833773Y-89143443D01*
X31825921Y-89165387D01*
X31815956Y-89186457D01*
X31803974Y-89206448D01*
X31790090Y-89225168D01*
X31774438Y-89242438D01*
X31757168Y-89258090D01*
X31738448Y-89271974D01*
X31718457Y-89283956D01*
X31697387Y-89293921D01*
X31675443Y-89301773D01*
X31652834Y-89307437D01*
X31629779Y-89310856D01*
X31606500Y-89312000D01*
X31131500Y-89312000D01*
X31108221Y-89310856D01*
X31085166Y-89307437D01*
X31062557Y-89301773D01*
X31040613Y-89293921D01*
X31019543Y-89283956D01*
X30999552Y-89271974D01*
X30980832Y-89258090D01*
X30963562Y-89242438D01*
X30947910Y-89225168D01*
X30934026Y-89206448D01*
X30922044Y-89186457D01*
X30912079Y-89165387D01*
X30904227Y-89143443D01*
X30898563Y-89120834D01*
X30895144Y-89097779D01*
X30894000Y-89074500D01*
X30894000Y-88499500D01*
X30895144Y-88476221D01*
X30898563Y-88453166D01*
X30904227Y-88430557D01*
X30912079Y-88408613D01*
X30922044Y-88387543D01*
X30934026Y-88367552D01*
X30947910Y-88348832D01*
X30963562Y-88331562D01*
X30980832Y-88315910D01*
X30999552Y-88302026D01*
X31019543Y-88290044D01*
X31040613Y-88280079D01*
X31062557Y-88272227D01*
X31085166Y-88266563D01*
X31108221Y-88263144D01*
X31131500Y-88262000D01*
X31606500Y-88262000D01*
X31629779Y-88263144D01*
X31629779Y-88263144D01*
G37*
D12*
G04 #@! TD*
G04 #@! TO.P,C3,2*
G04 #@! TO.N,GND*
X31369000Y-88787000D03*
D11*
G04 #@! TO.N,Net-(C4-Pad1)*
G04 #@! TO.C,C4*
G36*
X36201779Y-76960144D02*
X36224834Y-76963563D01*
X36247443Y-76969227D01*
X36269387Y-76977079D01*
X36290457Y-76987044D01*
X36310448Y-76999026D01*
X36329168Y-77012910D01*
X36346438Y-77028562D01*
X36362090Y-77045832D01*
X36375974Y-77064552D01*
X36387956Y-77084543D01*
X36397921Y-77105613D01*
X36405773Y-77127557D01*
X36411437Y-77150166D01*
X36414856Y-77173221D01*
X36416000Y-77196500D01*
X36416000Y-77771500D01*
X36414856Y-77794779D01*
X36411437Y-77817834D01*
X36405773Y-77840443D01*
X36397921Y-77862387D01*
X36387956Y-77883457D01*
X36375974Y-77903448D01*
X36362090Y-77922168D01*
X36346438Y-77939438D01*
X36329168Y-77955090D01*
X36310448Y-77968974D01*
X36290457Y-77980956D01*
X36269387Y-77990921D01*
X36247443Y-77998773D01*
X36224834Y-78004437D01*
X36201779Y-78007856D01*
X36178500Y-78009000D01*
X35703500Y-78009000D01*
X35680221Y-78007856D01*
X35657166Y-78004437D01*
X35634557Y-77998773D01*
X35612613Y-77990921D01*
X35591543Y-77980956D01*
X35571552Y-77968974D01*
X35552832Y-77955090D01*
X35535562Y-77939438D01*
X35519910Y-77922168D01*
X35506026Y-77903448D01*
X35494044Y-77883457D01*
X35484079Y-77862387D01*
X35476227Y-77840443D01*
X35470563Y-77817834D01*
X35467144Y-77794779D01*
X35466000Y-77771500D01*
X35466000Y-77196500D01*
X35467144Y-77173221D01*
X35470563Y-77150166D01*
X35476227Y-77127557D01*
X35484079Y-77105613D01*
X35494044Y-77084543D01*
X35506026Y-77064552D01*
X35519910Y-77045832D01*
X35535562Y-77028562D01*
X35552832Y-77012910D01*
X35571552Y-76999026D01*
X35591543Y-76987044D01*
X35612613Y-76977079D01*
X35634557Y-76969227D01*
X35657166Y-76963563D01*
X35680221Y-76960144D01*
X35703500Y-76959000D01*
X36178500Y-76959000D01*
X36201779Y-76960144D01*
X36201779Y-76960144D01*
G37*
D12*
G04 #@! TD*
G04 #@! TO.P,C4,1*
G04 #@! TO.N,Net-(C4-Pad1)*
X35941000Y-77484000D03*
D11*
G04 #@! TO.N,Net-(C4-Pad2)*
G04 #@! TO.C,C4*
G36*
X36201779Y-78710144D02*
X36224834Y-78713563D01*
X36247443Y-78719227D01*
X36269387Y-78727079D01*
X36290457Y-78737044D01*
X36310448Y-78749026D01*
X36329168Y-78762910D01*
X36346438Y-78778562D01*
X36362090Y-78795832D01*
X36375974Y-78814552D01*
X36387956Y-78834543D01*
X36397921Y-78855613D01*
X36405773Y-78877557D01*
X36411437Y-78900166D01*
X36414856Y-78923221D01*
X36416000Y-78946500D01*
X36416000Y-79521500D01*
X36414856Y-79544779D01*
X36411437Y-79567834D01*
X36405773Y-79590443D01*
X36397921Y-79612387D01*
X36387956Y-79633457D01*
X36375974Y-79653448D01*
X36362090Y-79672168D01*
X36346438Y-79689438D01*
X36329168Y-79705090D01*
X36310448Y-79718974D01*
X36290457Y-79730956D01*
X36269387Y-79740921D01*
X36247443Y-79748773D01*
X36224834Y-79754437D01*
X36201779Y-79757856D01*
X36178500Y-79759000D01*
X35703500Y-79759000D01*
X35680221Y-79757856D01*
X35657166Y-79754437D01*
X35634557Y-79748773D01*
X35612613Y-79740921D01*
X35591543Y-79730956D01*
X35571552Y-79718974D01*
X35552832Y-79705090D01*
X35535562Y-79689438D01*
X35519910Y-79672168D01*
X35506026Y-79653448D01*
X35494044Y-79633457D01*
X35484079Y-79612387D01*
X35476227Y-79590443D01*
X35470563Y-79567834D01*
X35467144Y-79544779D01*
X35466000Y-79521500D01*
X35466000Y-78946500D01*
X35467144Y-78923221D01*
X35470563Y-78900166D01*
X35476227Y-78877557D01*
X35484079Y-78855613D01*
X35494044Y-78834543D01*
X35506026Y-78814552D01*
X35519910Y-78795832D01*
X35535562Y-78778562D01*
X35552832Y-78762910D01*
X35571552Y-78749026D01*
X35591543Y-78737044D01*
X35612613Y-78727079D01*
X35634557Y-78719227D01*
X35657166Y-78713563D01*
X35680221Y-78710144D01*
X35703500Y-78709000D01*
X36178500Y-78709000D01*
X36201779Y-78710144D01*
X36201779Y-78710144D01*
G37*
D12*
G04 #@! TD*
G04 #@! TO.P,C4,2*
G04 #@! TO.N,Net-(C4-Pad2)*
X35941000Y-79234000D03*
D11*
G04 #@! TO.N,Net-(C5-Pad2)*
G04 #@! TO.C,C5*
G36*
X33915779Y-86076144D02*
X33938834Y-86079563D01*
X33961443Y-86085227D01*
X33983387Y-86093079D01*
X34004457Y-86103044D01*
X34024448Y-86115026D01*
X34043168Y-86128910D01*
X34060438Y-86144562D01*
X34076090Y-86161832D01*
X34089974Y-86180552D01*
X34101956Y-86200543D01*
X34111921Y-86221613D01*
X34119773Y-86243557D01*
X34125437Y-86266166D01*
X34128856Y-86289221D01*
X34130000Y-86312500D01*
X34130000Y-86887500D01*
X34128856Y-86910779D01*
X34125437Y-86933834D01*
X34119773Y-86956443D01*
X34111921Y-86978387D01*
X34101956Y-86999457D01*
X34089974Y-87019448D01*
X34076090Y-87038168D01*
X34060438Y-87055438D01*
X34043168Y-87071090D01*
X34024448Y-87084974D01*
X34004457Y-87096956D01*
X33983387Y-87106921D01*
X33961443Y-87114773D01*
X33938834Y-87120437D01*
X33915779Y-87123856D01*
X33892500Y-87125000D01*
X33417500Y-87125000D01*
X33394221Y-87123856D01*
X33371166Y-87120437D01*
X33348557Y-87114773D01*
X33326613Y-87106921D01*
X33305543Y-87096956D01*
X33285552Y-87084974D01*
X33266832Y-87071090D01*
X33249562Y-87055438D01*
X33233910Y-87038168D01*
X33220026Y-87019448D01*
X33208044Y-86999457D01*
X33198079Y-86978387D01*
X33190227Y-86956443D01*
X33184563Y-86933834D01*
X33181144Y-86910779D01*
X33180000Y-86887500D01*
X33180000Y-86312500D01*
X33181144Y-86289221D01*
X33184563Y-86266166D01*
X33190227Y-86243557D01*
X33198079Y-86221613D01*
X33208044Y-86200543D01*
X33220026Y-86180552D01*
X33233910Y-86161832D01*
X33249562Y-86144562D01*
X33266832Y-86128910D01*
X33285552Y-86115026D01*
X33305543Y-86103044D01*
X33326613Y-86093079D01*
X33348557Y-86085227D01*
X33371166Y-86079563D01*
X33394221Y-86076144D01*
X33417500Y-86075000D01*
X33892500Y-86075000D01*
X33915779Y-86076144D01*
X33915779Y-86076144D01*
G37*
D12*
G04 #@! TD*
G04 #@! TO.P,C5,2*
G04 #@! TO.N,Net-(C5-Pad2)*
X33655000Y-86600000D03*
D11*
G04 #@! TO.N,Net-(C5-Pad1)*
G04 #@! TO.C,C5*
G36*
X33915779Y-84326144D02*
X33938834Y-84329563D01*
X33961443Y-84335227D01*
X33983387Y-84343079D01*
X34004457Y-84353044D01*
X34024448Y-84365026D01*
X34043168Y-84378910D01*
X34060438Y-84394562D01*
X34076090Y-84411832D01*
X34089974Y-84430552D01*
X34101956Y-84450543D01*
X34111921Y-84471613D01*
X34119773Y-84493557D01*
X34125437Y-84516166D01*
X34128856Y-84539221D01*
X34130000Y-84562500D01*
X34130000Y-85137500D01*
X34128856Y-85160779D01*
X34125437Y-85183834D01*
X34119773Y-85206443D01*
X34111921Y-85228387D01*
X34101956Y-85249457D01*
X34089974Y-85269448D01*
X34076090Y-85288168D01*
X34060438Y-85305438D01*
X34043168Y-85321090D01*
X34024448Y-85334974D01*
X34004457Y-85346956D01*
X33983387Y-85356921D01*
X33961443Y-85364773D01*
X33938834Y-85370437D01*
X33915779Y-85373856D01*
X33892500Y-85375000D01*
X33417500Y-85375000D01*
X33394221Y-85373856D01*
X33371166Y-85370437D01*
X33348557Y-85364773D01*
X33326613Y-85356921D01*
X33305543Y-85346956D01*
X33285552Y-85334974D01*
X33266832Y-85321090D01*
X33249562Y-85305438D01*
X33233910Y-85288168D01*
X33220026Y-85269448D01*
X33208044Y-85249457D01*
X33198079Y-85228387D01*
X33190227Y-85206443D01*
X33184563Y-85183834D01*
X33181144Y-85160779D01*
X33180000Y-85137500D01*
X33180000Y-84562500D01*
X33181144Y-84539221D01*
X33184563Y-84516166D01*
X33190227Y-84493557D01*
X33198079Y-84471613D01*
X33208044Y-84450543D01*
X33220026Y-84430552D01*
X33233910Y-84411832D01*
X33249562Y-84394562D01*
X33266832Y-84378910D01*
X33285552Y-84365026D01*
X33305543Y-84353044D01*
X33326613Y-84343079D01*
X33348557Y-84335227D01*
X33371166Y-84329563D01*
X33394221Y-84326144D01*
X33417500Y-84325000D01*
X33892500Y-84325000D01*
X33915779Y-84326144D01*
X33915779Y-84326144D01*
G37*
D12*
G04 #@! TD*
G04 #@! TO.P,C5,1*
G04 #@! TO.N,Net-(C5-Pad1)*
X33655000Y-84850000D03*
D11*
G04 #@! TO.N,GND*
G04 #@! TO.C,C6*
G36*
X54130779Y-77631144D02*
X54153834Y-77634563D01*
X54176443Y-77640227D01*
X54198387Y-77648079D01*
X54219457Y-77658044D01*
X54239448Y-77670026D01*
X54258168Y-77683910D01*
X54275438Y-77699562D01*
X54291090Y-77716832D01*
X54304974Y-77735552D01*
X54316956Y-77755543D01*
X54326921Y-77776613D01*
X54334773Y-77798557D01*
X54340437Y-77821166D01*
X54343856Y-77844221D01*
X54345000Y-77867500D01*
X54345000Y-78342500D01*
X54343856Y-78365779D01*
X54340437Y-78388834D01*
X54334773Y-78411443D01*
X54326921Y-78433387D01*
X54316956Y-78454457D01*
X54304974Y-78474448D01*
X54291090Y-78493168D01*
X54275438Y-78510438D01*
X54258168Y-78526090D01*
X54239448Y-78539974D01*
X54219457Y-78551956D01*
X54198387Y-78561921D01*
X54176443Y-78569773D01*
X54153834Y-78575437D01*
X54130779Y-78578856D01*
X54107500Y-78580000D01*
X53532500Y-78580000D01*
X53509221Y-78578856D01*
X53486166Y-78575437D01*
X53463557Y-78569773D01*
X53441613Y-78561921D01*
X53420543Y-78551956D01*
X53400552Y-78539974D01*
X53381832Y-78526090D01*
X53364562Y-78510438D01*
X53348910Y-78493168D01*
X53335026Y-78474448D01*
X53323044Y-78454457D01*
X53313079Y-78433387D01*
X53305227Y-78411443D01*
X53299563Y-78388834D01*
X53296144Y-78365779D01*
X53295000Y-78342500D01*
X53295000Y-77867500D01*
X53296144Y-77844221D01*
X53299563Y-77821166D01*
X53305227Y-77798557D01*
X53313079Y-77776613D01*
X53323044Y-77755543D01*
X53335026Y-77735552D01*
X53348910Y-77716832D01*
X53364562Y-77699562D01*
X53381832Y-77683910D01*
X53400552Y-77670026D01*
X53420543Y-77658044D01*
X53441613Y-77648079D01*
X53463557Y-77640227D01*
X53486166Y-77634563D01*
X53509221Y-77631144D01*
X53532500Y-77630000D01*
X54107500Y-77630000D01*
X54130779Y-77631144D01*
X54130779Y-77631144D01*
G37*
D12*
G04 #@! TD*
G04 #@! TO.P,C6,2*
G04 #@! TO.N,GND*
X53820000Y-78105000D03*
D11*
G04 #@! TO.N,+5V*
G04 #@! TO.C,C6*
G36*
X52380779Y-77631144D02*
X52403834Y-77634563D01*
X52426443Y-77640227D01*
X52448387Y-77648079D01*
X52469457Y-77658044D01*
X52489448Y-77670026D01*
X52508168Y-77683910D01*
X52525438Y-77699562D01*
X52541090Y-77716832D01*
X52554974Y-77735552D01*
X52566956Y-77755543D01*
X52576921Y-77776613D01*
X52584773Y-77798557D01*
X52590437Y-77821166D01*
X52593856Y-77844221D01*
X52595000Y-77867500D01*
X52595000Y-78342500D01*
X52593856Y-78365779D01*
X52590437Y-78388834D01*
X52584773Y-78411443D01*
X52576921Y-78433387D01*
X52566956Y-78454457D01*
X52554974Y-78474448D01*
X52541090Y-78493168D01*
X52525438Y-78510438D01*
X52508168Y-78526090D01*
X52489448Y-78539974D01*
X52469457Y-78551956D01*
X52448387Y-78561921D01*
X52426443Y-78569773D01*
X52403834Y-78575437D01*
X52380779Y-78578856D01*
X52357500Y-78580000D01*
X51782500Y-78580000D01*
X51759221Y-78578856D01*
X51736166Y-78575437D01*
X51713557Y-78569773D01*
X51691613Y-78561921D01*
X51670543Y-78551956D01*
X51650552Y-78539974D01*
X51631832Y-78526090D01*
X51614562Y-78510438D01*
X51598910Y-78493168D01*
X51585026Y-78474448D01*
X51573044Y-78454457D01*
X51563079Y-78433387D01*
X51555227Y-78411443D01*
X51549563Y-78388834D01*
X51546144Y-78365779D01*
X51545000Y-78342500D01*
X51545000Y-77867500D01*
X51546144Y-77844221D01*
X51549563Y-77821166D01*
X51555227Y-77798557D01*
X51563079Y-77776613D01*
X51573044Y-77755543D01*
X51585026Y-77735552D01*
X51598910Y-77716832D01*
X51614562Y-77699562D01*
X51631832Y-77683910D01*
X51650552Y-77670026D01*
X51670543Y-77658044D01*
X51691613Y-77648079D01*
X51713557Y-77640227D01*
X51736166Y-77634563D01*
X51759221Y-77631144D01*
X51782500Y-77630000D01*
X52357500Y-77630000D01*
X52380779Y-77631144D01*
X52380779Y-77631144D01*
G37*
D12*
G04 #@! TD*
G04 #@! TO.P,C6,1*
G04 #@! TO.N,+5V*
X52070000Y-78105000D03*
D13*
G04 #@! TO.P,Conn1,1*
G04 #@! TO.N,GND*
X46761400Y-71502000D03*
G04 #@! TO.P,Conn1,2*
G04 #@! TO.N,/+12V*
X46761400Y-63501000D03*
G04 #@! TD*
D10*
G04 #@! TO.P,Conn2,1*
G04 #@! TO.N,Net-(Conn2-Pad1)*
X75565000Y-66040000D03*
G04 #@! TO.P,Conn2,2*
G04 #@! TO.N,Net-(Conn2-Pad2)*
X75565000Y-68580000D03*
G04 #@! TO.P,Conn2,3*
G04 #@! TO.N,GND*
X75565000Y-71120000D03*
G04 #@! TO.P,Conn2,4*
G04 #@! TO.N,TX_1_SL*
X75565000Y-73660000D03*
G04 #@! TO.P,Conn2,5*
G04 #@! TO.N,RX_1_SL*
X75565000Y-76200000D03*
G04 #@! TD*
G04 #@! TO.P,Conn3,5*
G04 #@! TO.N,RX_2_SL*
X75565000Y-59055000D03*
G04 #@! TO.P,Conn3,4*
G04 #@! TO.N,TX_2_SL*
X75565000Y-56515000D03*
G04 #@! TO.P,Conn3,3*
G04 #@! TO.N,GND*
X75565000Y-53975000D03*
G04 #@! TO.P,Conn3,2*
G04 #@! TO.N,Net-(Conn3-Pad2)*
X75565000Y-51435000D03*
G04 #@! TO.P,Conn3,1*
G04 #@! TO.N,Net-(Conn3-Pad1)*
X75565000Y-48895000D03*
G04 #@! TD*
D14*
G04 #@! TO.P,U1,+3V3*
G04 #@! TO.N,Net-(U1-Pad+3V3)*
X29489001Y-101345001D03*
G04 #@! TO.P,U1,PM6*
G04 #@! TO.N,Net-(U1-PadPM6)*
X52349001Y-55625001D03*
G04 #@! TO.P,U1,PQ1*
G04 #@! TO.N,Net-(U1-PadPQ1)*
X49809001Y-55625001D03*
G04 #@! TO.P,U1,PQ2*
G04 #@! TO.N,Net-(U1-PadPQ2)*
X42189001Y-55625001D03*
G04 #@! TO.P,U1,PK0*
G04 #@! TO.N,RX_2_IC*
X39649001Y-98805001D03*
G04 #@! TO.P,U1,PQ3*
G04 #@! TO.N,Net-(U1-PadPQ3)*
X44729001Y-55625001D03*
G04 #@! TO.P,U1,PP3*
G04 #@! TO.N,Net-(U1-PadPP3)*
X47269001Y-55625001D03*
G04 #@! TO.P,U1,PQ0*
G04 #@! TO.N,Net-(U1-PadPQ0)*
X44729001Y-101345001D03*
G04 #@! TO.P,U1,PA4*
G04 #@! TO.N,Net-(U1-PadPA4)*
X49809001Y-98805001D03*
G04 #@! TO.P,U1,Rese*
G04 #@! TO.N,Net-(U1-PadRese)*
X39649001Y-55625001D03*
G04 #@! TO.P,U1,PA7*
G04 #@! TO.N,Net-(U1-PadPA7)*
X37109001Y-55625001D03*
G04 #@! TO.P,U1,PN5*
G04 #@! TO.N,Net-(U1-PadPN5)*
X49809001Y-101345001D03*
G04 #@! TO.P,U1,PK2*
G04 #@! TO.N,Net-(U1-PadPK2)*
X44729001Y-98805001D03*
G04 #@! TO.P,U1,PK1*
G04 #@! TO.N,TX_2_IC*
X42189001Y-98805001D03*
G04 #@! TO.P,U1,+5V*
G04 #@! TO.N,+5V*
X29489001Y-98805001D03*
G04 #@! TO.P,U1,GND*
G04 #@! TO.N,GND*
X32029001Y-98805001D03*
G04 #@! TO.P,U1,PB4*
G04 #@! TO.N,Net-(U1-PadPB4)*
X34569001Y-98805001D03*
G04 #@! TO.P,U1,PB5*
G04 #@! TO.N,Net-(U1-PadPB5)*
X37109001Y-98805001D03*
G04 #@! TO.P,U1,PK3*
G04 #@! TO.N,Net-(U1-PadPK3)*
X47269001Y-98805001D03*
G04 #@! TO.P,U1,PA5*
G04 #@! TO.N,Net-(U1-PadPA5)*
X52349001Y-98805001D03*
G04 #@! TO.P,U1,PD2*
G04 #@! TO.N,Net-(U1-PadPD2)*
X32029001Y-101345001D03*
G04 #@! TO.P,U1,PP0*
G04 #@! TO.N,RX_1_IC*
X34569001Y-101345001D03*
G04 #@! TO.P,U1,PP1*
G04 #@! TO.N,TX_1_IC*
X37109001Y-101345001D03*
G04 #@! TO.P,U1,PD4*
G04 #@! TO.N,Net-(U1-PadPD4)*
X39649001Y-101345001D03*
G04 #@! TO.P,U1,PD5*
G04 #@! TO.N,Net-(U1-PadPD5)*
X42189001Y-101345001D03*
G04 #@! TO.P,U1,PP4*
G04 #@! TO.N,Net-(U1-PadPP4)*
X47269001Y-101345001D03*
G04 #@! TO.P,U1,PN4*
G04 #@! TO.N,Net-(U1-PadPN4)*
X52349001Y-101345001D03*
G04 #@! TO.P,U1,PG1*
G04 #@! TO.N,Net-(U1-PadPG1)*
X29489001Y-58165001D03*
G04 #@! TO.P,U1,PK4*
G04 #@! TO.N,Net-(U1-PadPK4)*
X32029001Y-58165001D03*
G04 #@! TO.P,U1,PK5*
G04 #@! TO.N,Net-(U1-PadPK5)*
X34569001Y-58165001D03*
G04 #@! TO.P,U1,PM0*
G04 #@! TO.N,Net-(U1-PadPM0)*
X37109001Y-58165001D03*
G04 #@! TO.P,U1,PM1*
G04 #@! TO.N,Net-(U1-PadPM1)*
X39649001Y-58165001D03*
G04 #@! TO.P,U1,PM2*
G04 #@! TO.N,Net-(U1-PadPM2)*
X42189001Y-58165001D03*
G04 #@! TO.P,U1,PH0*
G04 #@! TO.N,Net-(U1-PadPH0)*
X44729001Y-58165001D03*
G04 #@! TO.P,U1,PH1*
G04 #@! TO.N,Net-(U1-PadPH1)*
X47269001Y-58165001D03*
G04 #@! TO.P,U1,PK6*
G04 #@! TO.N,Net-(U1-PadPK6)*
X49809001Y-58165001D03*
G04 #@! TO.P,U1,PK7*
G04 #@! TO.N,Net-(U1-PadPK7)*
X52349001Y-58165001D03*
G04 #@! TO.P,U1,GND*
G04 #@! TO.N,GND*
X29489001Y-55625001D03*
G04 #@! TO.P,U1,PM7*
G04 #@! TO.N,Net-(U1-PadPM7)*
X32029001Y-55625001D03*
G04 #@! TO.P,U1,PP5*
G04 #@! TO.N,Net-(U1-PadPP5)*
X34569001Y-55625001D03*
G04 #@! TD*
D15*
G04 #@! TO.P,U2,1*
G04 #@! TO.N,Net-(C4-Pad1)*
X41115000Y-80645000D03*
G04 #@! TO.P,U2,2*
G04 #@! TO.N,Net-(C1-Pad1)*
X41115000Y-81915000D03*
G04 #@! TO.P,U2,3*
G04 #@! TO.N,Net-(C4-Pad2)*
X41115000Y-83185000D03*
G04 #@! TO.P,U2,4*
G04 #@! TO.N,Net-(C5-Pad1)*
X41115000Y-84455000D03*
G04 #@! TO.P,U2,5*
G04 #@! TO.N,Net-(C5-Pad2)*
X41115000Y-85725000D03*
G04 #@! TO.P,U2,6*
G04 #@! TO.N,Net-(C2-Pad1)*
X41115000Y-86995000D03*
G04 #@! TO.P,U2,7*
G04 #@! TO.N,TX_2_SL*
X41115000Y-88265000D03*
G04 #@! TO.P,U2,8*
G04 #@! TO.N,RX_2_SL*
X41115000Y-89535000D03*
G04 #@! TO.P,U2,9*
G04 #@! TO.N,RX_2_IC*
X46515000Y-89535000D03*
G04 #@! TO.P,U2,10*
G04 #@! TO.N,TX_2_IC*
X46515000Y-88265000D03*
G04 #@! TO.P,U2,11*
G04 #@! TO.N,TX_1_IC*
X46515000Y-86995000D03*
G04 #@! TO.P,U2,12*
G04 #@! TO.N,RX_1_IC*
X46515000Y-85725000D03*
G04 #@! TO.P,U2,13*
G04 #@! TO.N,RX_1_SL*
X46515000Y-84455000D03*
G04 #@! TO.P,U2,14*
G04 #@! TO.N,TX_1_SL*
X46515000Y-83185000D03*
G04 #@! TO.P,U2,15*
G04 #@! TO.N,GND*
X46515000Y-81915000D03*
G04 #@! TO.P,U2,16*
G04 #@! TO.N,+5V*
X46515000Y-80645000D03*
G04 #@! TD*
D16*
G04 #@! TO.N,Net-(C4-Pad2)*
X39370000Y-83185000D03*
X37973000Y-80391000D03*
G04 #@! TO.N,+5V*
X48260000Y-80645000D03*
X50165000Y-78105000D03*
D17*
G04 #@! TO.N,TX_2_SL*
X53340000Y-82550000D03*
D16*
G04 #@! TO.N,RX_2_SL*
X65405000Y-80645000D03*
X62230000Y-85725000D03*
G04 #@! TO.N,TX_2_SL*
X64135000Y-56515000D03*
D17*
X53340000Y-86995000D03*
D16*
G04 #@! TO.N,RX_2_IC*
X50800000Y-89535000D03*
X45085000Y-95631000D03*
G04 #@! TO.N,TX_2_IC*
X50038000Y-87884000D03*
G04 #@! TO.N,RX_1_IC*
X48260000Y-85725000D03*
G04 #@! TO.N,TX_1_IC*
X49276000Y-86614000D03*
G04 #@! TD*
D18*
G04 #@! TO.N,Net-(C1-Pad1)*
X40621000Y-81421000D02*
X41115000Y-81915000D01*
X36068000Y-81421000D02*
X40621000Y-81421000D01*
G04 #@! TO.N,Net-(C2-Pad1)*
X30420000Y-86600000D02*
X31115000Y-87295000D01*
X30480000Y-86727000D02*
X31055000Y-86727000D01*
X31115000Y-87295000D02*
X31115000Y-87630000D01*
X31115000Y-87630000D02*
X39370000Y-87630000D01*
X39370000Y-87630000D02*
X40005000Y-86995000D01*
X40005000Y-86995000D02*
X41115000Y-86995000D01*
D19*
G04 #@! TO.N,/+12V*
X54610000Y-92710000D02*
X55880000Y-93980000D01*
X31496000Y-91289000D02*
X31496000Y-92710000D01*
X31369000Y-91162000D02*
X31496000Y-91289000D01*
X31369000Y-90537000D02*
X31369000Y-91162000D01*
X31496000Y-92710000D02*
X54610000Y-92710000D01*
D18*
G04 #@! TO.N,Net-(C4-Pad1)*
X38735000Y-77470000D02*
X39370000Y-78105000D01*
X39370000Y-78105000D02*
X39370000Y-80010000D01*
X40005000Y-80645000D02*
X41115000Y-80645000D01*
X39370000Y-80010000D02*
X40005000Y-80645000D01*
X38721000Y-77484000D02*
X35941000Y-77484000D01*
X38735000Y-77470000D02*
X38721000Y-77484000D01*
G04 #@! TO.N,Net-(C4-Pad2)*
X41115000Y-83185000D02*
X39370000Y-83185000D01*
D20*
X39370000Y-83185000D02*
X39370000Y-83185000D01*
D18*
X37451000Y-79234000D02*
X35941000Y-79234000D01*
X37973000Y-80391000D02*
X37973000Y-79756000D01*
X37973000Y-79756000D02*
X37451000Y-79234000D01*
G04 #@! TO.N,Net-(C5-Pad2)*
X40115000Y-85725000D02*
X41115000Y-85725000D01*
X35105000Y-85725000D02*
X40115000Y-85725000D01*
X34230000Y-86600000D02*
X35105000Y-85725000D01*
X33655000Y-86600000D02*
X34230000Y-86600000D01*
G04 #@! TO.N,Net-(C5-Pad1)*
X40720000Y-84850000D02*
X41115000Y-84455000D01*
X33655000Y-84850000D02*
X40720000Y-84850000D01*
D20*
G04 #@! TO.N,+5V*
X46515000Y-80645000D02*
X48260000Y-80645000D01*
X48260000Y-80645000D02*
X48260000Y-80645000D01*
D18*
X52070000Y-78105000D02*
X50165000Y-78105000D01*
D20*
X50165000Y-78105000D02*
X50165000Y-78105000D01*
D18*
G04 #@! TO.N,TX_1_SL*
X52739198Y-83185000D02*
X53374198Y-83820000D01*
X46515000Y-83185000D02*
X52739198Y-83185000D01*
X65786000Y-83820000D02*
X65786000Y-83693000D01*
X53374198Y-83820000D02*
X65786000Y-83820000D01*
X65786000Y-83693000D02*
X67945000Y-81534000D01*
X67945000Y-81534000D02*
X67945000Y-74930000D01*
X69215000Y-73660000D02*
X70739000Y-73660000D01*
X67945000Y-74930000D02*
X69215000Y-73660000D01*
X70739000Y-73660000D02*
X75565000Y-73660000D01*
G04 #@! TO.N,RX_1_SL*
X66675000Y-84455000D02*
X46515000Y-84455000D01*
X66675000Y-83947000D02*
X66675000Y-84455000D01*
X69088000Y-81534000D02*
X66675000Y-83947000D01*
X69088000Y-76962000D02*
X69088000Y-81534000D01*
X75565000Y-76200000D02*
X69850000Y-76200000D01*
X69850000Y-76200000D02*
X69088000Y-76962000D01*
D20*
G04 #@! TO.N,RX_2_SL*
X75565000Y-59055000D02*
X74487370Y-59055000D01*
D18*
X74487370Y-59055000D02*
X65405000Y-59055000D01*
X65405000Y-59055000D02*
X65405000Y-80645000D01*
D20*
X65405000Y-80645000D02*
X65405000Y-80645000D01*
D18*
X40005000Y-89535000D02*
X41115000Y-89535000D01*
X40005000Y-90805000D02*
X39370000Y-90170000D01*
X39370000Y-90170000D02*
X40005000Y-89535000D01*
X62230000Y-85725000D02*
X52070000Y-85725000D01*
X52070000Y-85725000D02*
X52070000Y-88900000D01*
X52070000Y-88900000D02*
X52070000Y-89340962D01*
X52070000Y-89340962D02*
X52070000Y-90170000D01*
X52070000Y-90170000D02*
X51435000Y-90805000D01*
X51435000Y-90805000D02*
X40005000Y-90805000D01*
G04 #@! TO.N,TX_2_SL*
X64135000Y-56515000D02*
X64135000Y-81476998D01*
X64135000Y-81476998D02*
X63051999Y-82559999D01*
X63051999Y-82559999D02*
X59064999Y-82559999D01*
D20*
X59064999Y-82559999D02*
X59064999Y-82559999D01*
X39358591Y-91430001D02*
X38735000Y-90806410D01*
X38735000Y-90806410D02*
X38735000Y-88900000D01*
X38735000Y-88900000D02*
X39370000Y-88265000D01*
X39370000Y-88265000D02*
X41115000Y-88265000D01*
D18*
X39358591Y-91430001D02*
X51425001Y-91430001D01*
X51425001Y-91430001D02*
X52060001Y-91430001D01*
X53340000Y-90805000D02*
X52705000Y-91440000D01*
X52705000Y-91440000D02*
X52070000Y-91440000D01*
X53340000Y-86995000D02*
X53340000Y-90805000D01*
X53340000Y-82550000D02*
X59055000Y-82550000D01*
G04 #@! TO.N,RX_2_IC*
X46515000Y-89535000D02*
X50800000Y-89535000D01*
X41275000Y-97179002D02*
X39649001Y-98805001D01*
X41275000Y-95885000D02*
X41910000Y-95250000D01*
X41275000Y-95885000D02*
X41275000Y-97155000D01*
X44685001Y-95231001D02*
X45085000Y-95631000D01*
X44468999Y-95231001D02*
X44685001Y-95231001D01*
X44450000Y-95250000D02*
X44468999Y-95231001D01*
X44450000Y-95250000D02*
X41910000Y-95250000D01*
G04 #@! TO.N,TX_2_IC*
X49657000Y-88265000D02*
X50038000Y-87884000D01*
X46515000Y-88265000D02*
X49657000Y-88265000D01*
G04 #@! TO.N,RX_1_IC*
X46515000Y-85725000D02*
X48260000Y-85725000D01*
G04 #@! TO.N,TX_1_IC*
X48895000Y-86995000D02*
X49276000Y-86614000D01*
X46515000Y-86995000D02*
X48895000Y-86995000D01*
G04 #@! TD*
G04 #@! TO.N,GND*
G36*
X88469364Y-80213667D02*
X88409310Y-80633009D01*
X88255019Y-80972352D01*
X88011688Y-81254752D01*
X87698879Y-81457506D01*
X87318215Y-81571348D01*
X87121049Y-81586000D01*
X71469326Y-81586000D01*
X71399400Y-81572091D01*
X71329475Y-81586000D01*
X71329474Y-81586000D01*
X71122372Y-81627195D01*
X70887519Y-81784119D01*
X70730595Y-82018972D01*
X70675491Y-82296000D01*
X70689401Y-82365931D01*
X70689400Y-103054074D01*
X70675491Y-103124000D01*
X70730595Y-103401028D01*
X70887519Y-103635881D01*
X71122372Y-103792805D01*
X71281971Y-103824551D01*
X71399400Y-103847909D01*
X71469325Y-103834000D01*
X87096819Y-103834000D01*
X87516409Y-103894090D01*
X87855752Y-104048381D01*
X88138152Y-104291712D01*
X88340906Y-104604523D01*
X88454748Y-104985184D01*
X88469400Y-105182350D01*
X88469401Y-112673281D01*
X88383891Y-112699423D01*
X88291433Y-112726460D01*
X88283559Y-112730098D01*
X87762044Y-112974948D01*
X87681475Y-113027872D01*
X87600327Y-113079768D01*
X87593790Y-113085470D01*
X87161958Y-113466851D01*
X87099496Y-113540244D01*
X87036160Y-113612847D01*
X87031487Y-113620154D01*
X86724054Y-114107407D01*
X86684698Y-114195387D01*
X86644289Y-114282840D01*
X86641857Y-114291160D01*
X86641854Y-114291166D01*
X86641853Y-114291173D01*
X86483534Y-114845118D01*
X86470456Y-114940586D01*
X86456213Y-115035890D01*
X86456213Y-115044564D01*
X86459733Y-115620687D01*
X86473988Y-115716068D01*
X86487054Y-115811455D01*
X86489488Y-115819781D01*
X86654564Y-116371758D01*
X86694991Y-116459250D01*
X86734330Y-116547194D01*
X86739003Y-116554501D01*
X87052366Y-117037961D01*
X87115728Y-117110594D01*
X87178163Y-117183955D01*
X87184696Y-117189654D01*
X87184700Y-117189658D01*
X87184705Y-117189661D01*
X87621159Y-117565734D01*
X87702342Y-117617653D01*
X87782875Y-117670554D01*
X87790746Y-117674190D01*
X87790749Y-117674192D01*
X87790752Y-117674193D01*
X88315217Y-117912653D01*
X88407709Y-117939700D01*
X88469400Y-117958561D01*
X88469401Y-125933412D01*
X88409310Y-126353009D01*
X88255019Y-126692352D01*
X88011688Y-126974752D01*
X87698879Y-127177506D01*
X87318215Y-127291348D01*
X87121049Y-127306000D01*
X30804067Y-127306000D01*
X30305701Y-127243042D01*
X29880511Y-127074697D01*
X29510541Y-126805899D01*
X29219045Y-126453541D01*
X29024333Y-126039756D01*
X28932307Y-125557339D01*
X28929400Y-125464836D01*
X28929400Y-117958719D01*
X29014909Y-117932577D01*
X29107367Y-117905540D01*
X29115241Y-117901902D01*
X29636756Y-117657052D01*
X29717325Y-117604128D01*
X29798473Y-117552232D01*
X29805010Y-117546530D01*
X30236842Y-117165149D01*
X30299287Y-117091776D01*
X30362640Y-117019153D01*
X30367313Y-117011846D01*
X30674746Y-116524593D01*
X30714087Y-116436645D01*
X30754511Y-116349160D01*
X30756945Y-116340835D01*
X30915266Y-115786882D01*
X30928343Y-115691421D01*
X30942587Y-115596111D01*
X30942587Y-115587436D01*
X30939067Y-115011313D01*
X30924814Y-114915943D01*
X30911746Y-114820544D01*
X30909312Y-114812219D01*
X30744236Y-114260241D01*
X30703818Y-114172769D01*
X30664471Y-114084806D01*
X30659797Y-114077499D01*
X30346434Y-113594040D01*
X30283107Y-113521447D01*
X30220637Y-113448045D01*
X30214100Y-113442343D01*
X29777641Y-113066266D01*
X29696458Y-113014347D01*
X29615925Y-112961446D01*
X29608054Y-112957810D01*
X29608051Y-112957808D01*
X29608048Y-112957807D01*
X29083583Y-112719347D01*
X28991091Y-112692300D01*
X28929174Y-112673370D01*
X28925465Y-102621514D01*
X29211518Y-102740001D01*
X29766484Y-102740001D01*
X30279205Y-102527625D01*
X30671625Y-102135205D01*
X30759001Y-101924261D01*
X30846377Y-102135205D01*
X31238797Y-102527625D01*
X31751518Y-102740001D01*
X32306484Y-102740001D01*
X32819205Y-102527625D01*
X33211625Y-102135205D01*
X33299001Y-101924261D01*
X33386377Y-102135205D01*
X33778797Y-102527625D01*
X34291518Y-102740001D01*
X34846484Y-102740001D01*
X35359205Y-102527625D01*
X35751625Y-102135205D01*
X35839001Y-101924261D01*
X35926377Y-102135205D01*
X36318797Y-102527625D01*
X36831518Y-102740001D01*
X37386484Y-102740001D01*
X37899205Y-102527625D01*
X38291625Y-102135205D01*
X38379001Y-101924261D01*
X38466377Y-102135205D01*
X38858797Y-102527625D01*
X39371518Y-102740001D01*
X39926484Y-102740001D01*
X40439205Y-102527625D01*
X40831625Y-102135205D01*
X40919001Y-101924261D01*
X41006377Y-102135205D01*
X41398797Y-102527625D01*
X41911518Y-102740001D01*
X42466484Y-102740001D01*
X42979205Y-102527625D01*
X43371625Y-102135205D01*
X43459001Y-101924261D01*
X43546377Y-102135205D01*
X43938797Y-102527625D01*
X44451518Y-102740001D01*
X45006484Y-102740001D01*
X45519205Y-102527625D01*
X45911625Y-102135205D01*
X45999001Y-101924261D01*
X46086377Y-102135205D01*
X46478797Y-102527625D01*
X46991518Y-102740001D01*
X47546484Y-102740001D01*
X48059205Y-102527625D01*
X48451625Y-102135205D01*
X48539001Y-101924261D01*
X48626377Y-102135205D01*
X49018797Y-102527625D01*
X49531518Y-102740001D01*
X50086484Y-102740001D01*
X50599205Y-102527625D01*
X50991625Y-102135205D01*
X51079001Y-101924261D01*
X51166377Y-102135205D01*
X51558797Y-102527625D01*
X52071518Y-102740001D01*
X52626484Y-102740001D01*
X53139205Y-102527625D01*
X53531625Y-102135205D01*
X53744001Y-101622484D01*
X53744001Y-101067518D01*
X53531625Y-100554797D01*
X53139205Y-100162377D01*
X52928261Y-100075001D01*
X53139205Y-99987625D01*
X53531625Y-99595205D01*
X53744001Y-99082484D01*
X53744001Y-98527518D01*
X53531625Y-98014797D01*
X53139205Y-97622377D01*
X52626484Y-97410001D01*
X52071518Y-97410001D01*
X51558797Y-97622377D01*
X51166377Y-98014797D01*
X51079001Y-98225741D01*
X50991625Y-98014797D01*
X50599205Y-97622377D01*
X50086484Y-97410001D01*
X49531518Y-97410001D01*
X49018797Y-97622377D01*
X48626377Y-98014797D01*
X48539001Y-98225741D01*
X48451625Y-98014797D01*
X48059205Y-97622377D01*
X47546484Y-97410001D01*
X46991518Y-97410001D01*
X46478797Y-97622377D01*
X46086377Y-98014797D01*
X45999001Y-98225741D01*
X45911625Y-98014797D01*
X45519205Y-97622377D01*
X45006484Y-97410001D01*
X44451518Y-97410001D01*
X43938797Y-97622377D01*
X43546377Y-98014797D01*
X43459001Y-98225741D01*
X43371625Y-98014797D01*
X42979205Y-97622377D01*
X42466484Y-97410001D01*
X42005979Y-97410001D01*
X42051928Y-97179002D01*
X42037000Y-97103955D01*
X42037000Y-96200630D01*
X42225631Y-96012000D01*
X44122539Y-96012000D01*
X44207569Y-96217280D01*
X44498720Y-96508431D01*
X44879126Y-96666000D01*
X45290874Y-96666000D01*
X45671280Y-96508431D01*
X45962431Y-96217280D01*
X46120000Y-95836874D01*
X46120000Y-95425126D01*
X45962431Y-95044720D01*
X45671280Y-94753569D01*
X45290874Y-94596000D01*
X45106218Y-94596000D01*
X44982318Y-94513213D01*
X44760049Y-94469001D01*
X44760044Y-94469001D01*
X44685001Y-94454074D01*
X44609958Y-94469001D01*
X44544046Y-94469001D01*
X44468999Y-94454073D01*
X44393952Y-94469001D01*
X44393951Y-94469001D01*
X44298436Y-94488000D01*
X41985047Y-94488000D01*
X41910000Y-94473072D01*
X41834953Y-94488000D01*
X41834952Y-94488000D01*
X41612683Y-94532212D01*
X41360629Y-94700629D01*
X41318118Y-94764251D01*
X40789253Y-95293117D01*
X40725629Y-95335629D01*
X40557212Y-95587684D01*
X40513000Y-95809953D01*
X40513000Y-95809957D01*
X40498073Y-95885000D01*
X40513000Y-95960044D01*
X40513001Y-96863370D01*
X39954688Y-97421683D01*
X39926484Y-97410001D01*
X39371518Y-97410001D01*
X38858797Y-97622377D01*
X38466377Y-98014797D01*
X38379001Y-98225741D01*
X38291625Y-98014797D01*
X37899205Y-97622377D01*
X37386484Y-97410001D01*
X36831518Y-97410001D01*
X36318797Y-97622377D01*
X35926377Y-98014797D01*
X35839001Y-98225741D01*
X35751625Y-98014797D01*
X35359205Y-97622377D01*
X34846484Y-97410001D01*
X34291518Y-97410001D01*
X33778797Y-97622377D01*
X33386377Y-98014797D01*
X33174001Y-98527518D01*
X33174001Y-99082484D01*
X33386377Y-99595205D01*
X33778797Y-99987625D01*
X33989741Y-100075001D01*
X33778797Y-100162377D01*
X33386377Y-100554797D01*
X33299001Y-100765741D01*
X33211625Y-100554797D01*
X32819205Y-100162377D01*
X32306484Y-99950001D01*
X31751518Y-99950001D01*
X31238797Y-100162377D01*
X30846377Y-100554797D01*
X30759001Y-100765741D01*
X30671625Y-100554797D01*
X30279205Y-100162377D01*
X30068261Y-100075001D01*
X30279205Y-99987625D01*
X30671625Y-99595205D01*
X30884001Y-99082484D01*
X30884001Y-98527518D01*
X30671625Y-98014797D01*
X30279205Y-97622377D01*
X29766484Y-97410001D01*
X29211518Y-97410001D01*
X28923586Y-97529266D01*
X28919494Y-86439500D01*
X29357560Y-86439500D01*
X29357560Y-87014500D01*
X29424922Y-87353152D01*
X29616753Y-87640247D01*
X29903848Y-87832078D01*
X30242500Y-87899440D01*
X30391667Y-87899440D01*
X30397212Y-87927317D01*
X30565629Y-88179371D01*
X30817683Y-88347788D01*
X31039952Y-88392000D01*
X31115000Y-88406928D01*
X31190048Y-88392000D01*
X38160392Y-88392000D01*
X38144672Y-88415527D01*
X38144671Y-88415528D01*
X38019097Y-88603463D01*
X37960112Y-88900000D01*
X37975001Y-88974852D01*
X37975000Y-90731563D01*
X37960112Y-90806410D01*
X37975000Y-90881257D01*
X37975000Y-90881261D01*
X38019096Y-91102946D01*
X38187071Y-91354339D01*
X38250530Y-91396741D01*
X38547788Y-91694000D01*
X32512000Y-91694000D01*
X32512000Y-91389063D01*
X32531904Y-91288999D01*
X32494896Y-91102947D01*
X32465475Y-90955036D01*
X32491440Y-90824500D01*
X32491440Y-90249500D01*
X32424078Y-89910848D01*
X32232247Y-89623753D01*
X31945152Y-89431922D01*
X31606500Y-89364560D01*
X31131500Y-89364560D01*
X30792848Y-89431922D01*
X30505753Y-89623753D01*
X30313922Y-89910848D01*
X30246560Y-90249500D01*
X30246560Y-90824500D01*
X30313922Y-91163152D01*
X30341550Y-91204500D01*
X30353000Y-91262063D01*
X30353000Y-91262065D01*
X30411950Y-91558423D01*
X30480000Y-91660268D01*
X30480001Y-92609931D01*
X30460096Y-92710000D01*
X30538949Y-93106423D01*
X30763505Y-93442495D01*
X31099577Y-93667051D01*
X31395935Y-93726000D01*
X31395936Y-93726000D01*
X31496000Y-93745904D01*
X31596065Y-93726000D01*
X54189160Y-93726000D01*
X54483000Y-94019840D01*
X54483000Y-94257881D01*
X54695680Y-94771337D01*
X55088663Y-95164320D01*
X55602119Y-95377000D01*
X56157881Y-95377000D01*
X56671337Y-95164320D01*
X57064320Y-94771337D01*
X57277000Y-94257881D01*
X57277000Y-93702119D01*
X57064320Y-93188663D01*
X56671337Y-92795680D01*
X56157881Y-92583000D01*
X55919840Y-92583000D01*
X55399180Y-92062339D01*
X55342495Y-91977505D01*
X55006423Y-91752949D01*
X54710065Y-91694000D01*
X54710063Y-91694000D01*
X54610000Y-91674096D01*
X54509937Y-91694000D01*
X53528630Y-91694000D01*
X53825749Y-91396882D01*
X53889371Y-91354371D01*
X54057788Y-91102317D01*
X54102000Y-90880048D01*
X54102000Y-90880047D01*
X54116928Y-90805000D01*
X54102000Y-90729953D01*
X54102000Y-88622119D01*
X54483000Y-88622119D01*
X54483000Y-89177881D01*
X54695680Y-89691337D01*
X55088663Y-90084320D01*
X55602119Y-90297000D01*
X56157881Y-90297000D01*
X56671337Y-90084320D01*
X57064320Y-89691337D01*
X57277000Y-89177881D01*
X57277000Y-88622119D01*
X57064320Y-88108663D01*
X56671337Y-87715680D01*
X56157881Y-87503000D01*
X55602119Y-87503000D01*
X55088663Y-87715680D01*
X54695680Y-88108663D01*
X54483000Y-88622119D01*
X54102000Y-88622119D01*
X54102000Y-87849447D01*
X54308989Y-87642458D01*
X54483000Y-87222357D01*
X54483000Y-86767643D01*
X54366754Y-86487000D01*
X61528289Y-86487000D01*
X61643720Y-86602431D01*
X62024126Y-86760000D01*
X62435874Y-86760000D01*
X62816280Y-86602431D01*
X63107431Y-86311280D01*
X63265000Y-85930874D01*
X63265000Y-85519126D01*
X63139856Y-85217000D01*
X66599952Y-85217000D01*
X66675000Y-85231928D01*
X66750048Y-85217000D01*
X66972317Y-85172788D01*
X67224371Y-85004371D01*
X67392788Y-84752317D01*
X67451928Y-84455000D01*
X67437000Y-84379952D01*
X67437000Y-84262630D01*
X69573749Y-82125882D01*
X69637371Y-82083371D01*
X69685976Y-82010628D01*
X69805787Y-81831319D01*
X69805787Y-81831318D01*
X69805788Y-81831317D01*
X69850000Y-81609048D01*
X69850000Y-81609044D01*
X69864927Y-81534001D01*
X69850000Y-81458958D01*
X69850000Y-77277630D01*
X70165631Y-76962000D01*
X74368528Y-76962000D01*
X74380680Y-76991337D01*
X74773663Y-77384320D01*
X75287119Y-77597000D01*
X75842881Y-77597000D01*
X76356337Y-77384320D01*
X76740090Y-77000567D01*
X81841000Y-77000567D01*
X81841000Y-77939433D01*
X82200289Y-78806833D01*
X82864167Y-79470711D01*
X83731567Y-79830000D01*
X84670433Y-79830000D01*
X85537833Y-79470711D01*
X86201711Y-78806833D01*
X86561000Y-77939433D01*
X86561000Y-77000567D01*
X86201711Y-76133167D01*
X85537833Y-75469289D01*
X84670433Y-75110000D01*
X83731567Y-75110000D01*
X82864167Y-75469289D01*
X82200289Y-76133167D01*
X81841000Y-77000567D01*
X76740090Y-77000567D01*
X76749320Y-76991337D01*
X76962000Y-76477881D01*
X76962000Y-75922119D01*
X76749320Y-75408663D01*
X76356337Y-75015680D01*
X76149487Y-74930000D01*
X76356337Y-74844320D01*
X76749320Y-74451337D01*
X76962000Y-73937881D01*
X76962000Y-73382119D01*
X76749320Y-72868663D01*
X76356337Y-72475680D01*
X75842881Y-72263000D01*
X75287119Y-72263000D01*
X74773663Y-72475680D01*
X74380680Y-72868663D01*
X74368528Y-72898000D01*
X69290042Y-72898000D01*
X69214999Y-72883073D01*
X69139956Y-72898000D01*
X69139952Y-72898000D01*
X68917683Y-72942212D01*
X68917682Y-72942213D01*
X68917681Y-72942213D01*
X68729251Y-73068118D01*
X68665629Y-73110629D01*
X68623118Y-73174251D01*
X67459251Y-74338119D01*
X67395630Y-74380629D01*
X67353119Y-74444251D01*
X67353118Y-74444252D01*
X67227213Y-74632683D01*
X67168073Y-74930000D01*
X67183001Y-75005048D01*
X67183000Y-81218369D01*
X65343370Y-83058000D01*
X63635694Y-83058000D01*
X63643882Y-83045746D01*
X64620749Y-82068880D01*
X64684371Y-82026369D01*
X64852788Y-81774315D01*
X64896484Y-81554642D01*
X65199126Y-81680000D01*
X65610874Y-81680000D01*
X65991280Y-81522431D01*
X66282431Y-81231280D01*
X66440000Y-80850874D01*
X66440000Y-80439126D01*
X66282431Y-80058720D01*
X66167000Y-79943289D01*
X66167000Y-65762119D01*
X74168000Y-65762119D01*
X74168000Y-66317881D01*
X74380680Y-66831337D01*
X74773663Y-67224320D01*
X74980513Y-67310000D01*
X74773663Y-67395680D01*
X74380680Y-67788663D01*
X74168000Y-68302119D01*
X74168000Y-68857881D01*
X74380680Y-69371337D01*
X74773663Y-69764320D01*
X75287119Y-69977000D01*
X75842881Y-69977000D01*
X76356337Y-69764320D01*
X76749320Y-69371337D01*
X76962000Y-68857881D01*
X76962000Y-68302119D01*
X76749320Y-67788663D01*
X76356337Y-67395680D01*
X76149487Y-67310000D01*
X76356337Y-67224320D01*
X76749320Y-66831337D01*
X76962000Y-66317881D01*
X76962000Y-65762119D01*
X76749320Y-65248663D01*
X76356337Y-64855680D01*
X75842881Y-64643000D01*
X75287119Y-64643000D01*
X74773663Y-64855680D01*
X74380680Y-65248663D01*
X74168000Y-65762119D01*
X66167000Y-65762119D01*
X66167000Y-59817000D01*
X74368528Y-59817000D01*
X74380680Y-59846337D01*
X74773663Y-60239320D01*
X75287119Y-60452000D01*
X75842881Y-60452000D01*
X76356337Y-60239320D01*
X76740090Y-59855567D01*
X81841000Y-59855567D01*
X81841000Y-60794433D01*
X82200289Y-61661833D01*
X82864167Y-62325711D01*
X83399613Y-62547500D01*
X82864167Y-62769289D01*
X82200289Y-63433167D01*
X81841000Y-64300567D01*
X81841000Y-65239433D01*
X82200289Y-66106833D01*
X82864167Y-66770711D01*
X83731567Y-67130000D01*
X84670433Y-67130000D01*
X85537833Y-66770711D01*
X86201711Y-66106833D01*
X86561000Y-65239433D01*
X86561000Y-64300567D01*
X86201711Y-63433167D01*
X85537833Y-62769289D01*
X85002387Y-62547500D01*
X85537833Y-62325711D01*
X86201711Y-61661833D01*
X86561000Y-60794433D01*
X86561000Y-59855567D01*
X86201711Y-58988167D01*
X85537833Y-58324289D01*
X84670433Y-57965000D01*
X83731567Y-57965000D01*
X82864167Y-58324289D01*
X82200289Y-58988167D01*
X81841000Y-59855567D01*
X76740090Y-59855567D01*
X76749320Y-59846337D01*
X76962000Y-59332881D01*
X76962000Y-58777119D01*
X76749320Y-58263663D01*
X76356337Y-57870680D01*
X76149487Y-57785000D01*
X76356337Y-57699320D01*
X76749320Y-57306337D01*
X76962000Y-56792881D01*
X76962000Y-56237119D01*
X76749320Y-55723663D01*
X76356337Y-55330680D01*
X75842881Y-55118000D01*
X75287119Y-55118000D01*
X74773663Y-55330680D01*
X74380680Y-55723663D01*
X74168000Y-56237119D01*
X74168000Y-56792881D01*
X74380680Y-57306337D01*
X74773663Y-57699320D01*
X74980513Y-57785000D01*
X74773663Y-57870680D01*
X74380680Y-58263663D01*
X74368528Y-58293000D01*
X65480048Y-58293000D01*
X65405000Y-58278072D01*
X65329952Y-58293000D01*
X65107683Y-58337212D01*
X64897000Y-58477986D01*
X64897000Y-57216711D01*
X65012431Y-57101280D01*
X65170000Y-56720874D01*
X65170000Y-56309126D01*
X65012431Y-55928720D01*
X64721280Y-55637569D01*
X64340874Y-55480000D01*
X63929126Y-55480000D01*
X63548720Y-55637569D01*
X63257569Y-55928720D01*
X63100000Y-56309126D01*
X63100000Y-56720874D01*
X63257569Y-57101280D01*
X63373000Y-57216711D01*
X63373001Y-81161366D01*
X62736369Y-81797999D01*
X59180316Y-81797999D01*
X59130048Y-81788000D01*
X54194447Y-81788000D01*
X53987458Y-81581011D01*
X53567357Y-81407000D01*
X53112643Y-81407000D01*
X52692542Y-81581011D01*
X52371011Y-81902542D01*
X52197000Y-82322643D01*
X52197000Y-82423000D01*
X47716537Y-82423000D01*
X47512765Y-82286843D01*
X47265000Y-82237560D01*
X45765000Y-82237560D01*
X45517235Y-82286843D01*
X45307191Y-82427191D01*
X45166843Y-82637235D01*
X45117560Y-82885000D01*
X45117560Y-83485000D01*
X45166843Y-83732765D01*
X45225132Y-83820000D01*
X45166843Y-83907235D01*
X45117560Y-84155000D01*
X45117560Y-84755000D01*
X45166843Y-85002765D01*
X45225132Y-85090000D01*
X45166843Y-85177235D01*
X45117560Y-85425000D01*
X45117560Y-86025000D01*
X45166843Y-86272765D01*
X45225132Y-86360000D01*
X45166843Y-86447235D01*
X45117560Y-86695000D01*
X45117560Y-87295000D01*
X45166843Y-87542765D01*
X45225132Y-87630000D01*
X45166843Y-87717235D01*
X45117560Y-87965000D01*
X45117560Y-88565000D01*
X45166843Y-88812765D01*
X45225132Y-88900000D01*
X45166843Y-88987235D01*
X45117560Y-89235000D01*
X45117560Y-89835000D01*
X45158933Y-90043000D01*
X42471067Y-90043000D01*
X42512440Y-89835000D01*
X42512440Y-89235000D01*
X42463157Y-88987235D01*
X42404868Y-88900000D01*
X42463157Y-88812765D01*
X42512440Y-88565000D01*
X42512440Y-87965000D01*
X42463157Y-87717235D01*
X42404868Y-87630000D01*
X42463157Y-87542765D01*
X42512440Y-87295000D01*
X42512440Y-86695000D01*
X42463157Y-86447235D01*
X42404868Y-86360000D01*
X42463157Y-86272765D01*
X42512440Y-86025000D01*
X42512440Y-85425000D01*
X42463157Y-85177235D01*
X42404868Y-85090000D01*
X42463157Y-85002765D01*
X42512440Y-84755000D01*
X42512440Y-84155000D01*
X42463157Y-83907235D01*
X42404868Y-83820000D01*
X42463157Y-83732765D01*
X42512440Y-83485000D01*
X42512440Y-82885000D01*
X42463157Y-82637235D01*
X42404868Y-82550000D01*
X42463157Y-82462765D01*
X42512440Y-82215000D01*
X42512440Y-81615000D01*
X42463157Y-81367235D01*
X42404868Y-81280000D01*
X42463157Y-81192765D01*
X42512440Y-80945000D01*
X42512440Y-80345000D01*
X45117560Y-80345000D01*
X45117560Y-80945000D01*
X45166843Y-81192765D01*
X45307191Y-81402809D01*
X45517235Y-81543157D01*
X45765000Y-81592440D01*
X47265000Y-81592440D01*
X47512765Y-81543157D01*
X47621674Y-81470385D01*
X47673720Y-81522431D01*
X48054126Y-81680000D01*
X48465874Y-81680000D01*
X48846280Y-81522431D01*
X49137431Y-81231280D01*
X49295000Y-80850874D01*
X49295000Y-80439126D01*
X49137431Y-80058720D01*
X48846280Y-79767569D01*
X48465874Y-79610000D01*
X48054126Y-79610000D01*
X47673720Y-79767569D01*
X47621674Y-79819615D01*
X47512765Y-79746843D01*
X47265000Y-79697560D01*
X45765000Y-79697560D01*
X45517235Y-79746843D01*
X45307191Y-79887191D01*
X45166843Y-80097235D01*
X45117560Y-80345000D01*
X42512440Y-80345000D01*
X42463157Y-80097235D01*
X42322809Y-79887191D01*
X42112765Y-79746843D01*
X41865000Y-79697560D01*
X40365000Y-79697560D01*
X40173318Y-79735688D01*
X40132000Y-79694370D01*
X40132000Y-78180047D01*
X40146928Y-78105000D01*
X40117240Y-77955748D01*
X40105978Y-77899126D01*
X49130000Y-77899126D01*
X49130000Y-78310874D01*
X49287569Y-78691280D01*
X49578720Y-78982431D01*
X49959126Y-79140000D01*
X50370874Y-79140000D01*
X50751280Y-78982431D01*
X50866711Y-78867000D01*
X51089102Y-78867000D01*
X51156753Y-78968247D01*
X51443848Y-79160078D01*
X51782500Y-79227440D01*
X52357500Y-79227440D01*
X52696152Y-79160078D01*
X52983247Y-78968247D01*
X53175078Y-78681152D01*
X53242440Y-78342500D01*
X53242440Y-77867500D01*
X53175078Y-77528848D01*
X52983247Y-77241753D01*
X52696152Y-77049922D01*
X52357500Y-76982560D01*
X51782500Y-76982560D01*
X51443848Y-77049922D01*
X51156753Y-77241753D01*
X51089102Y-77343000D01*
X50866711Y-77343000D01*
X50751280Y-77227569D01*
X50370874Y-77070000D01*
X49959126Y-77070000D01*
X49578720Y-77227569D01*
X49287569Y-77518720D01*
X49130000Y-77899126D01*
X40105978Y-77899126D01*
X40087788Y-77807683D01*
X39919371Y-77555629D01*
X39855750Y-77513119D01*
X39326882Y-76984252D01*
X39284371Y-76920629D01*
X39032317Y-76752213D01*
X38735000Y-76693073D01*
X38589574Y-76722000D01*
X36905307Y-76722000D01*
X36804247Y-76570753D01*
X36517152Y-76378922D01*
X36178500Y-76311560D01*
X35703500Y-76311560D01*
X35364848Y-76378922D01*
X35077753Y-76570753D01*
X34885922Y-76857848D01*
X34818560Y-77196500D01*
X34818560Y-77771500D01*
X34885922Y-78110152D01*
X35052197Y-78359000D01*
X34885922Y-78607848D01*
X34818560Y-78946500D01*
X34818560Y-79521500D01*
X34885922Y-79860152D01*
X35077753Y-80147247D01*
X35364848Y-80339078D01*
X35436009Y-80353233D01*
X35204753Y-80507753D01*
X35012922Y-80794848D01*
X34945560Y-81133500D01*
X34945560Y-81708500D01*
X35012922Y-82047152D01*
X35204753Y-82334247D01*
X35491848Y-82526078D01*
X35830500Y-82593440D01*
X36305500Y-82593440D01*
X36644152Y-82526078D01*
X36931247Y-82334247D01*
X37032307Y-82183000D01*
X39084457Y-82183000D01*
X38783720Y-82307569D01*
X38492569Y-82598720D01*
X38335000Y-82979126D01*
X38335000Y-83390874D01*
X38492569Y-83771280D01*
X38783720Y-84062431D01*
X38845449Y-84088000D01*
X34619307Y-84088000D01*
X34518247Y-83936753D01*
X34231152Y-83744922D01*
X33892500Y-83677560D01*
X33417500Y-83677560D01*
X33078848Y-83744922D01*
X32791753Y-83936753D01*
X32599922Y-84223848D01*
X32532560Y-84562500D01*
X32532560Y-85137500D01*
X32599922Y-85476152D01*
X32766197Y-85725000D01*
X32599922Y-85973848D01*
X32532560Y-86312500D01*
X32532560Y-86868000D01*
X31803881Y-86868000D01*
X31831928Y-86727000D01*
X31772788Y-86429683D01*
X31604371Y-86177629D01*
X31542070Y-86136001D01*
X31535078Y-86100848D01*
X31343247Y-85813753D01*
X31056152Y-85621922D01*
X30717500Y-85554560D01*
X30242500Y-85554560D01*
X29903848Y-85621922D01*
X29616753Y-85813753D01*
X29424922Y-86100848D01*
X29357560Y-86439500D01*
X28919494Y-86439500D01*
X28910797Y-62869453D01*
X43586400Y-62869453D01*
X43586400Y-64132547D01*
X44069765Y-65299493D01*
X44962907Y-66192635D01*
X46129853Y-66676000D01*
X47392947Y-66676000D01*
X48559893Y-66192635D01*
X49453035Y-65299493D01*
X49936400Y-64132547D01*
X49936400Y-62869453D01*
X49453035Y-61702507D01*
X48559893Y-60809365D01*
X47392947Y-60326000D01*
X46129853Y-60326000D01*
X44962907Y-60809365D01*
X44069765Y-61702507D01*
X43586400Y-62869453D01*
X28910797Y-62869453D01*
X28909529Y-59434913D01*
X29211518Y-59560001D01*
X29766484Y-59560001D01*
X30279205Y-59347625D01*
X30671625Y-58955205D01*
X30759001Y-58744261D01*
X30846377Y-58955205D01*
X31238797Y-59347625D01*
X31751518Y-59560001D01*
X32306484Y-59560001D01*
X32819205Y-59347625D01*
X33211625Y-58955205D01*
X33299001Y-58744261D01*
X33386377Y-58955205D01*
X33778797Y-59347625D01*
X34291518Y-59560001D01*
X34846484Y-59560001D01*
X35359205Y-59347625D01*
X35751625Y-58955205D01*
X35839001Y-58744261D01*
X35926377Y-58955205D01*
X36318797Y-59347625D01*
X36831518Y-59560001D01*
X37386484Y-59560001D01*
X37899205Y-59347625D01*
X38291625Y-58955205D01*
X38379001Y-58744261D01*
X38466377Y-58955205D01*
X38858797Y-59347625D01*
X39371518Y-59560001D01*
X39926484Y-59560001D01*
X40439205Y-59347625D01*
X40831625Y-58955205D01*
X40919001Y-58744261D01*
X41006377Y-58955205D01*
X41398797Y-59347625D01*
X41911518Y-59560001D01*
X42466484Y-59560001D01*
X42979205Y-59347625D01*
X43371625Y-58955205D01*
X43459001Y-58744261D01*
X43546377Y-58955205D01*
X43938797Y-59347625D01*
X44451518Y-59560001D01*
X45006484Y-59560001D01*
X45519205Y-59347625D01*
X45911625Y-58955205D01*
X45999001Y-58744261D01*
X46086377Y-58955205D01*
X46478797Y-59347625D01*
X46991518Y-59560001D01*
X47546484Y-59560001D01*
X48059205Y-59347625D01*
X48451625Y-58955205D01*
X48539001Y-58744261D01*
X48626377Y-58955205D01*
X49018797Y-59347625D01*
X49531518Y-59560001D01*
X50086484Y-59560001D01*
X50599205Y-59347625D01*
X50991625Y-58955205D01*
X51079001Y-58744261D01*
X51166377Y-58955205D01*
X51558797Y-59347625D01*
X52071518Y-59560001D01*
X52626484Y-59560001D01*
X53139205Y-59347625D01*
X53531625Y-58955205D01*
X53744001Y-58442484D01*
X53744001Y-57887518D01*
X53531625Y-57374797D01*
X53139205Y-56982377D01*
X52928261Y-56895001D01*
X53139205Y-56807625D01*
X53531625Y-56415205D01*
X53744001Y-55902484D01*
X53744001Y-55347518D01*
X53531625Y-54834797D01*
X53139205Y-54442377D01*
X52626484Y-54230001D01*
X52071518Y-54230001D01*
X51558797Y-54442377D01*
X51166377Y-54834797D01*
X51079001Y-55045741D01*
X50991625Y-54834797D01*
X50599205Y-54442377D01*
X50086484Y-54230001D01*
X49531518Y-54230001D01*
X49018797Y-54442377D01*
X48626377Y-54834797D01*
X48539001Y-55045741D01*
X48451625Y-54834797D01*
X48059205Y-54442377D01*
X47546484Y-54230001D01*
X46991518Y-54230001D01*
X46478797Y-54442377D01*
X46086377Y-54834797D01*
X45999001Y-55045741D01*
X45911625Y-54834797D01*
X45519205Y-54442377D01*
X45006484Y-54230001D01*
X44451518Y-54230001D01*
X43938797Y-54442377D01*
X43546377Y-54834797D01*
X43459001Y-55045741D01*
X43371625Y-54834797D01*
X42979205Y-54442377D01*
X42466484Y-54230001D01*
X41911518Y-54230001D01*
X41398797Y-54442377D01*
X41006377Y-54834797D01*
X40919001Y-55045741D01*
X40831625Y-54834797D01*
X40439205Y-54442377D01*
X39926484Y-54230001D01*
X39371518Y-54230001D01*
X38858797Y-54442377D01*
X38466377Y-54834797D01*
X38379001Y-55045741D01*
X38291625Y-54834797D01*
X37899205Y-54442377D01*
X37386484Y-54230001D01*
X36831518Y-54230001D01*
X36318797Y-54442377D01*
X35926377Y-54834797D01*
X35839001Y-55045741D01*
X35751625Y-54834797D01*
X35359205Y-54442377D01*
X34846484Y-54230001D01*
X34291518Y-54230001D01*
X33778797Y-54442377D01*
X33386377Y-54834797D01*
X33299001Y-55045741D01*
X33211625Y-54834797D01*
X32819205Y-54442377D01*
X32306484Y-54230001D01*
X31751518Y-54230001D01*
X31238797Y-54442377D01*
X30846377Y-54834797D01*
X30634001Y-55347518D01*
X30634001Y-55902484D01*
X30846377Y-56415205D01*
X31238797Y-56807625D01*
X31449741Y-56895001D01*
X31238797Y-56982377D01*
X30846377Y-57374797D01*
X30759001Y-57585741D01*
X30671625Y-57374797D01*
X30279205Y-56982377D01*
X29766484Y-56770001D01*
X29211518Y-56770001D01*
X28908592Y-56895477D01*
X28905538Y-48617119D01*
X74168000Y-48617119D01*
X74168000Y-49172881D01*
X74380680Y-49686337D01*
X74773663Y-50079320D01*
X74980513Y-50165000D01*
X74773663Y-50250680D01*
X74380680Y-50643663D01*
X74168000Y-51157119D01*
X74168000Y-51712881D01*
X74380680Y-52226337D01*
X74773663Y-52619320D01*
X75287119Y-52832000D01*
X75842881Y-52832000D01*
X76356337Y-52619320D01*
X76749320Y-52226337D01*
X76962000Y-51712881D01*
X76962000Y-51157119D01*
X76749320Y-50643663D01*
X76356337Y-50250680D01*
X76149487Y-50165000D01*
X76356337Y-50079320D01*
X76749320Y-49686337D01*
X76962000Y-49172881D01*
X76962000Y-48617119D01*
X76749320Y-48103663D01*
X76356337Y-47710680D01*
X75842881Y-47498000D01*
X75287119Y-47498000D01*
X74773663Y-47710680D01*
X74380680Y-48103663D01*
X74168000Y-48617119D01*
X28905538Y-48617119D01*
X28904999Y-47155567D01*
X81841000Y-47155567D01*
X81841000Y-48094433D01*
X82200289Y-48961833D01*
X82864167Y-49625711D01*
X83731567Y-49985000D01*
X84670433Y-49985000D01*
X85537833Y-49625711D01*
X86201711Y-48961833D01*
X86561000Y-48094433D01*
X86561000Y-47155567D01*
X86201711Y-46288167D01*
X85537833Y-45624289D01*
X84670433Y-45265000D01*
X83731567Y-45265000D01*
X82864167Y-45624289D01*
X82200289Y-46288167D01*
X81841000Y-47155567D01*
X28904999Y-47155567D01*
X28904262Y-45160000D01*
X88444504Y-45160000D01*
X88469364Y-80213667D01*
X88469364Y-80213667D01*
G37*
X88469364Y-80213667D02*
X88409310Y-80633009D01*
X88255019Y-80972352D01*
X88011688Y-81254752D01*
X87698879Y-81457506D01*
X87318215Y-81571348D01*
X87121049Y-81586000D01*
X71469326Y-81586000D01*
X71399400Y-81572091D01*
X71329475Y-81586000D01*
X71329474Y-81586000D01*
X71122372Y-81627195D01*
X70887519Y-81784119D01*
X70730595Y-82018972D01*
X70675491Y-82296000D01*
X70689401Y-82365931D01*
X70689400Y-103054074D01*
X70675491Y-103124000D01*
X70730595Y-103401028D01*
X70887519Y-103635881D01*
X71122372Y-103792805D01*
X71281971Y-103824551D01*
X71399400Y-103847909D01*
X71469325Y-103834000D01*
X87096819Y-103834000D01*
X87516409Y-103894090D01*
X87855752Y-104048381D01*
X88138152Y-104291712D01*
X88340906Y-104604523D01*
X88454748Y-104985184D01*
X88469400Y-105182350D01*
X88469401Y-112673281D01*
X88383891Y-112699423D01*
X88291433Y-112726460D01*
X88283559Y-112730098D01*
X87762044Y-112974948D01*
X87681475Y-113027872D01*
X87600327Y-113079768D01*
X87593790Y-113085470D01*
X87161958Y-113466851D01*
X87099496Y-113540244D01*
X87036160Y-113612847D01*
X87031487Y-113620154D01*
X86724054Y-114107407D01*
X86684698Y-114195387D01*
X86644289Y-114282840D01*
X86641857Y-114291160D01*
X86641854Y-114291166D01*
X86641853Y-114291173D01*
X86483534Y-114845118D01*
X86470456Y-114940586D01*
X86456213Y-115035890D01*
X86456213Y-115044564D01*
X86459733Y-115620687D01*
X86473988Y-115716068D01*
X86487054Y-115811455D01*
X86489488Y-115819781D01*
X86654564Y-116371758D01*
X86694991Y-116459250D01*
X86734330Y-116547194D01*
X86739003Y-116554501D01*
X87052366Y-117037961D01*
X87115728Y-117110594D01*
X87178163Y-117183955D01*
X87184696Y-117189654D01*
X87184700Y-117189658D01*
X87184705Y-117189661D01*
X87621159Y-117565734D01*
X87702342Y-117617653D01*
X87782875Y-117670554D01*
X87790746Y-117674190D01*
X87790749Y-117674192D01*
X87790752Y-117674193D01*
X88315217Y-117912653D01*
X88407709Y-117939700D01*
X88469400Y-117958561D01*
X88469401Y-125933412D01*
X88409310Y-126353009D01*
X88255019Y-126692352D01*
X88011688Y-126974752D01*
X87698879Y-127177506D01*
X87318215Y-127291348D01*
X87121049Y-127306000D01*
X30804067Y-127306000D01*
X30305701Y-127243042D01*
X29880511Y-127074697D01*
X29510541Y-126805899D01*
X29219045Y-126453541D01*
X29024333Y-126039756D01*
X28932307Y-125557339D01*
X28929400Y-125464836D01*
X28929400Y-117958719D01*
X29014909Y-117932577D01*
X29107367Y-117905540D01*
X29115241Y-117901902D01*
X29636756Y-117657052D01*
X29717325Y-117604128D01*
X29798473Y-117552232D01*
X29805010Y-117546530D01*
X30236842Y-117165149D01*
X30299287Y-117091776D01*
X30362640Y-117019153D01*
X30367313Y-117011846D01*
X30674746Y-116524593D01*
X30714087Y-116436645D01*
X30754511Y-116349160D01*
X30756945Y-116340835D01*
X30915266Y-115786882D01*
X30928343Y-115691421D01*
X30942587Y-115596111D01*
X30942587Y-115587436D01*
X30939067Y-115011313D01*
X30924814Y-114915943D01*
X30911746Y-114820544D01*
X30909312Y-114812219D01*
X30744236Y-114260241D01*
X30703818Y-114172769D01*
X30664471Y-114084806D01*
X30659797Y-114077499D01*
X30346434Y-113594040D01*
X30283107Y-113521447D01*
X30220637Y-113448045D01*
X30214100Y-113442343D01*
X29777641Y-113066266D01*
X29696458Y-113014347D01*
X29615925Y-112961446D01*
X29608054Y-112957810D01*
X29608051Y-112957808D01*
X29608048Y-112957807D01*
X29083583Y-112719347D01*
X28991091Y-112692300D01*
X28929174Y-112673370D01*
X28925465Y-102621514D01*
X29211518Y-102740001D01*
X29766484Y-102740001D01*
X30279205Y-102527625D01*
X30671625Y-102135205D01*
X30759001Y-101924261D01*
X30846377Y-102135205D01*
X31238797Y-102527625D01*
X31751518Y-102740001D01*
X32306484Y-102740001D01*
X32819205Y-102527625D01*
X33211625Y-102135205D01*
X33299001Y-101924261D01*
X33386377Y-102135205D01*
X33778797Y-102527625D01*
X34291518Y-102740001D01*
X34846484Y-102740001D01*
X35359205Y-102527625D01*
X35751625Y-102135205D01*
X35839001Y-101924261D01*
X35926377Y-102135205D01*
X36318797Y-102527625D01*
X36831518Y-102740001D01*
X37386484Y-102740001D01*
X37899205Y-102527625D01*
X38291625Y-102135205D01*
X38379001Y-101924261D01*
X38466377Y-102135205D01*
X38858797Y-102527625D01*
X39371518Y-102740001D01*
X39926484Y-102740001D01*
X40439205Y-102527625D01*
X40831625Y-102135205D01*
X40919001Y-101924261D01*
X41006377Y-102135205D01*
X41398797Y-102527625D01*
X41911518Y-102740001D01*
X42466484Y-102740001D01*
X42979205Y-102527625D01*
X43371625Y-102135205D01*
X43459001Y-101924261D01*
X43546377Y-102135205D01*
X43938797Y-102527625D01*
X44451518Y-102740001D01*
X45006484Y-102740001D01*
X45519205Y-102527625D01*
X45911625Y-102135205D01*
X45999001Y-101924261D01*
X46086377Y-102135205D01*
X46478797Y-102527625D01*
X46991518Y-102740001D01*
X47546484Y-102740001D01*
X48059205Y-102527625D01*
X48451625Y-102135205D01*
X48539001Y-101924261D01*
X48626377Y-102135205D01*
X49018797Y-102527625D01*
X49531518Y-102740001D01*
X50086484Y-102740001D01*
X50599205Y-102527625D01*
X50991625Y-102135205D01*
X51079001Y-101924261D01*
X51166377Y-102135205D01*
X51558797Y-102527625D01*
X52071518Y-102740001D01*
X52626484Y-102740001D01*
X53139205Y-102527625D01*
X53531625Y-102135205D01*
X53744001Y-101622484D01*
X53744001Y-101067518D01*
X53531625Y-100554797D01*
X53139205Y-100162377D01*
X52928261Y-100075001D01*
X53139205Y-99987625D01*
X53531625Y-99595205D01*
X53744001Y-99082484D01*
X53744001Y-98527518D01*
X53531625Y-98014797D01*
X53139205Y-97622377D01*
X52626484Y-97410001D01*
X52071518Y-97410001D01*
X51558797Y-97622377D01*
X51166377Y-98014797D01*
X51079001Y-98225741D01*
X50991625Y-98014797D01*
X50599205Y-97622377D01*
X50086484Y-97410001D01*
X49531518Y-97410001D01*
X49018797Y-97622377D01*
X48626377Y-98014797D01*
X48539001Y-98225741D01*
X48451625Y-98014797D01*
X48059205Y-97622377D01*
X47546484Y-97410001D01*
X46991518Y-97410001D01*
X46478797Y-97622377D01*
X46086377Y-98014797D01*
X45999001Y-98225741D01*
X45911625Y-98014797D01*
X45519205Y-97622377D01*
X45006484Y-97410001D01*
X44451518Y-97410001D01*
X43938797Y-97622377D01*
X43546377Y-98014797D01*
X43459001Y-98225741D01*
X43371625Y-98014797D01*
X42979205Y-97622377D01*
X42466484Y-97410001D01*
X42005979Y-97410001D01*
X42051928Y-97179002D01*
X42037000Y-97103955D01*
X42037000Y-96200630D01*
X42225631Y-96012000D01*
X44122539Y-96012000D01*
X44207569Y-96217280D01*
X44498720Y-96508431D01*
X44879126Y-96666000D01*
X45290874Y-96666000D01*
X45671280Y-96508431D01*
X45962431Y-96217280D01*
X46120000Y-95836874D01*
X46120000Y-95425126D01*
X45962431Y-95044720D01*
X45671280Y-94753569D01*
X45290874Y-94596000D01*
X45106218Y-94596000D01*
X44982318Y-94513213D01*
X44760049Y-94469001D01*
X44760044Y-94469001D01*
X44685001Y-94454074D01*
X44609958Y-94469001D01*
X44544046Y-94469001D01*
X44468999Y-94454073D01*
X44393952Y-94469001D01*
X44393951Y-94469001D01*
X44298436Y-94488000D01*
X41985047Y-94488000D01*
X41910000Y-94473072D01*
X41834953Y-94488000D01*
X41834952Y-94488000D01*
X41612683Y-94532212D01*
X41360629Y-94700629D01*
X41318118Y-94764251D01*
X40789253Y-95293117D01*
X40725629Y-95335629D01*
X40557212Y-95587684D01*
X40513000Y-95809953D01*
X40513000Y-95809957D01*
X40498073Y-95885000D01*
X40513000Y-95960044D01*
X40513001Y-96863370D01*
X39954688Y-97421683D01*
X39926484Y-97410001D01*
X39371518Y-97410001D01*
X38858797Y-97622377D01*
X38466377Y-98014797D01*
X38379001Y-98225741D01*
X38291625Y-98014797D01*
X37899205Y-97622377D01*
X37386484Y-97410001D01*
X36831518Y-97410001D01*
X36318797Y-97622377D01*
X35926377Y-98014797D01*
X35839001Y-98225741D01*
X35751625Y-98014797D01*
X35359205Y-97622377D01*
X34846484Y-97410001D01*
X34291518Y-97410001D01*
X33778797Y-97622377D01*
X33386377Y-98014797D01*
X33174001Y-98527518D01*
X33174001Y-99082484D01*
X33386377Y-99595205D01*
X33778797Y-99987625D01*
X33989741Y-100075001D01*
X33778797Y-100162377D01*
X33386377Y-100554797D01*
X33299001Y-100765741D01*
X33211625Y-100554797D01*
X32819205Y-100162377D01*
X32306484Y-99950001D01*
X31751518Y-99950001D01*
X31238797Y-100162377D01*
X30846377Y-100554797D01*
X30759001Y-100765741D01*
X30671625Y-100554797D01*
X30279205Y-100162377D01*
X30068261Y-100075001D01*
X30279205Y-99987625D01*
X30671625Y-99595205D01*
X30884001Y-99082484D01*
X30884001Y-98527518D01*
X30671625Y-98014797D01*
X30279205Y-97622377D01*
X29766484Y-97410001D01*
X29211518Y-97410001D01*
X28923586Y-97529266D01*
X28919494Y-86439500D01*
X29357560Y-86439500D01*
X29357560Y-87014500D01*
X29424922Y-87353152D01*
X29616753Y-87640247D01*
X29903848Y-87832078D01*
X30242500Y-87899440D01*
X30391667Y-87899440D01*
X30397212Y-87927317D01*
X30565629Y-88179371D01*
X30817683Y-88347788D01*
X31039952Y-88392000D01*
X31115000Y-88406928D01*
X31190048Y-88392000D01*
X38160392Y-88392000D01*
X38144672Y-88415527D01*
X38144671Y-88415528D01*
X38019097Y-88603463D01*
X37960112Y-88900000D01*
X37975001Y-88974852D01*
X37975000Y-90731563D01*
X37960112Y-90806410D01*
X37975000Y-90881257D01*
X37975000Y-90881261D01*
X38019096Y-91102946D01*
X38187071Y-91354339D01*
X38250530Y-91396741D01*
X38547788Y-91694000D01*
X32512000Y-91694000D01*
X32512000Y-91389063D01*
X32531904Y-91288999D01*
X32494896Y-91102947D01*
X32465475Y-90955036D01*
X32491440Y-90824500D01*
X32491440Y-90249500D01*
X32424078Y-89910848D01*
X32232247Y-89623753D01*
X31945152Y-89431922D01*
X31606500Y-89364560D01*
X31131500Y-89364560D01*
X30792848Y-89431922D01*
X30505753Y-89623753D01*
X30313922Y-89910848D01*
X30246560Y-90249500D01*
X30246560Y-90824500D01*
X30313922Y-91163152D01*
X30341550Y-91204500D01*
X30353000Y-91262063D01*
X30353000Y-91262065D01*
X30411950Y-91558423D01*
X30480000Y-91660268D01*
X30480001Y-92609931D01*
X30460096Y-92710000D01*
X30538949Y-93106423D01*
X30763505Y-93442495D01*
X31099577Y-93667051D01*
X31395935Y-93726000D01*
X31395936Y-93726000D01*
X31496000Y-93745904D01*
X31596065Y-93726000D01*
X54189160Y-93726000D01*
X54483000Y-94019840D01*
X54483000Y-94257881D01*
X54695680Y-94771337D01*
X55088663Y-95164320D01*
X55602119Y-95377000D01*
X56157881Y-95377000D01*
X56671337Y-95164320D01*
X57064320Y-94771337D01*
X57277000Y-94257881D01*
X57277000Y-93702119D01*
X57064320Y-93188663D01*
X56671337Y-92795680D01*
X56157881Y-92583000D01*
X55919840Y-92583000D01*
X55399180Y-92062339D01*
X55342495Y-91977505D01*
X55006423Y-91752949D01*
X54710065Y-91694000D01*
X54710063Y-91694000D01*
X54610000Y-91674096D01*
X54509937Y-91694000D01*
X53528630Y-91694000D01*
X53825749Y-91396882D01*
X53889371Y-91354371D01*
X54057788Y-91102317D01*
X54102000Y-90880048D01*
X54102000Y-90880047D01*
X54116928Y-90805000D01*
X54102000Y-90729953D01*
X54102000Y-88622119D01*
X54483000Y-88622119D01*
X54483000Y-89177881D01*
X54695680Y-89691337D01*
X55088663Y-90084320D01*
X55602119Y-90297000D01*
X56157881Y-90297000D01*
X56671337Y-90084320D01*
X57064320Y-89691337D01*
X57277000Y-89177881D01*
X57277000Y-88622119D01*
X57064320Y-88108663D01*
X56671337Y-87715680D01*
X56157881Y-87503000D01*
X55602119Y-87503000D01*
X55088663Y-87715680D01*
X54695680Y-88108663D01*
X54483000Y-88622119D01*
X54102000Y-88622119D01*
X54102000Y-87849447D01*
X54308989Y-87642458D01*
X54483000Y-87222357D01*
X54483000Y-86767643D01*
X54366754Y-86487000D01*
X61528289Y-86487000D01*
X61643720Y-86602431D01*
X62024126Y-86760000D01*
X62435874Y-86760000D01*
X62816280Y-86602431D01*
X63107431Y-86311280D01*
X63265000Y-85930874D01*
X63265000Y-85519126D01*
X63139856Y-85217000D01*
X66599952Y-85217000D01*
X66675000Y-85231928D01*
X66750048Y-85217000D01*
X66972317Y-85172788D01*
X67224371Y-85004371D01*
X67392788Y-84752317D01*
X67451928Y-84455000D01*
X67437000Y-84379952D01*
X67437000Y-84262630D01*
X69573749Y-82125882D01*
X69637371Y-82083371D01*
X69685976Y-82010628D01*
X69805787Y-81831319D01*
X69805787Y-81831318D01*
X69805788Y-81831317D01*
X69850000Y-81609048D01*
X69850000Y-81609044D01*
X69864927Y-81534001D01*
X69850000Y-81458958D01*
X69850000Y-77277630D01*
X70165631Y-76962000D01*
X74368528Y-76962000D01*
X74380680Y-76991337D01*
X74773663Y-77384320D01*
X75287119Y-77597000D01*
X75842881Y-77597000D01*
X76356337Y-77384320D01*
X76740090Y-77000567D01*
X81841000Y-77000567D01*
X81841000Y-77939433D01*
X82200289Y-78806833D01*
X82864167Y-79470711D01*
X83731567Y-79830000D01*
X84670433Y-79830000D01*
X85537833Y-79470711D01*
X86201711Y-78806833D01*
X86561000Y-77939433D01*
X86561000Y-77000567D01*
X86201711Y-76133167D01*
X85537833Y-75469289D01*
X84670433Y-75110000D01*
X83731567Y-75110000D01*
X82864167Y-75469289D01*
X82200289Y-76133167D01*
X81841000Y-77000567D01*
X76740090Y-77000567D01*
X76749320Y-76991337D01*
X76962000Y-76477881D01*
X76962000Y-75922119D01*
X76749320Y-75408663D01*
X76356337Y-75015680D01*
X76149487Y-74930000D01*
X76356337Y-74844320D01*
X76749320Y-74451337D01*
X76962000Y-73937881D01*
X76962000Y-73382119D01*
X76749320Y-72868663D01*
X76356337Y-72475680D01*
X75842881Y-72263000D01*
X75287119Y-72263000D01*
X74773663Y-72475680D01*
X74380680Y-72868663D01*
X74368528Y-72898000D01*
X69290042Y-72898000D01*
X69214999Y-72883073D01*
X69139956Y-72898000D01*
X69139952Y-72898000D01*
X68917683Y-72942212D01*
X68917682Y-72942213D01*
X68917681Y-72942213D01*
X68729251Y-73068118D01*
X68665629Y-73110629D01*
X68623118Y-73174251D01*
X67459251Y-74338119D01*
X67395630Y-74380629D01*
X67353119Y-74444251D01*
X67353118Y-74444252D01*
X67227213Y-74632683D01*
X67168073Y-74930000D01*
X67183001Y-75005048D01*
X67183000Y-81218369D01*
X65343370Y-83058000D01*
X63635694Y-83058000D01*
X63643882Y-83045746D01*
X64620749Y-82068880D01*
X64684371Y-82026369D01*
X64852788Y-81774315D01*
X64896484Y-81554642D01*
X65199126Y-81680000D01*
X65610874Y-81680000D01*
X65991280Y-81522431D01*
X66282431Y-81231280D01*
X66440000Y-80850874D01*
X66440000Y-80439126D01*
X66282431Y-80058720D01*
X66167000Y-79943289D01*
X66167000Y-65762119D01*
X74168000Y-65762119D01*
X74168000Y-66317881D01*
X74380680Y-66831337D01*
X74773663Y-67224320D01*
X74980513Y-67310000D01*
X74773663Y-67395680D01*
X74380680Y-67788663D01*
X74168000Y-68302119D01*
X74168000Y-68857881D01*
X74380680Y-69371337D01*
X74773663Y-69764320D01*
X75287119Y-69977000D01*
X75842881Y-69977000D01*
X76356337Y-69764320D01*
X76749320Y-69371337D01*
X76962000Y-68857881D01*
X76962000Y-68302119D01*
X76749320Y-67788663D01*
X76356337Y-67395680D01*
X76149487Y-67310000D01*
X76356337Y-67224320D01*
X76749320Y-66831337D01*
X76962000Y-66317881D01*
X76962000Y-65762119D01*
X76749320Y-65248663D01*
X76356337Y-64855680D01*
X75842881Y-64643000D01*
X75287119Y-64643000D01*
X74773663Y-64855680D01*
X74380680Y-65248663D01*
X74168000Y-65762119D01*
X66167000Y-65762119D01*
X66167000Y-59817000D01*
X74368528Y-59817000D01*
X74380680Y-59846337D01*
X74773663Y-60239320D01*
X75287119Y-60452000D01*
X75842881Y-60452000D01*
X76356337Y-60239320D01*
X76740090Y-59855567D01*
X81841000Y-59855567D01*
X81841000Y-60794433D01*
X82200289Y-61661833D01*
X82864167Y-62325711D01*
X83399613Y-62547500D01*
X82864167Y-62769289D01*
X82200289Y-63433167D01*
X81841000Y-64300567D01*
X81841000Y-65239433D01*
X82200289Y-66106833D01*
X82864167Y-66770711D01*
X83731567Y-67130000D01*
X84670433Y-67130000D01*
X85537833Y-66770711D01*
X86201711Y-66106833D01*
X86561000Y-65239433D01*
X86561000Y-64300567D01*
X86201711Y-63433167D01*
X85537833Y-62769289D01*
X85002387Y-62547500D01*
X85537833Y-62325711D01*
X86201711Y-61661833D01*
X86561000Y-60794433D01*
X86561000Y-59855567D01*
X86201711Y-58988167D01*
X85537833Y-58324289D01*
X84670433Y-57965000D01*
X83731567Y-57965000D01*
X82864167Y-58324289D01*
X82200289Y-58988167D01*
X81841000Y-59855567D01*
X76740090Y-59855567D01*
X76749320Y-59846337D01*
X76962000Y-59332881D01*
X76962000Y-58777119D01*
X76749320Y-58263663D01*
X76356337Y-57870680D01*
X76149487Y-57785000D01*
X76356337Y-57699320D01*
X76749320Y-57306337D01*
X76962000Y-56792881D01*
X76962000Y-56237119D01*
X76749320Y-55723663D01*
X76356337Y-55330680D01*
X75842881Y-55118000D01*
X75287119Y-55118000D01*
X74773663Y-55330680D01*
X74380680Y-55723663D01*
X74168000Y-56237119D01*
X74168000Y-56792881D01*
X74380680Y-57306337D01*
X74773663Y-57699320D01*
X74980513Y-57785000D01*
X74773663Y-57870680D01*
X74380680Y-58263663D01*
X74368528Y-58293000D01*
X65480048Y-58293000D01*
X65405000Y-58278072D01*
X65329952Y-58293000D01*
X65107683Y-58337212D01*
X64897000Y-58477986D01*
X64897000Y-57216711D01*
X65012431Y-57101280D01*
X65170000Y-56720874D01*
X65170000Y-56309126D01*
X65012431Y-55928720D01*
X64721280Y-55637569D01*
X64340874Y-55480000D01*
X63929126Y-55480000D01*
X63548720Y-55637569D01*
X63257569Y-55928720D01*
X63100000Y-56309126D01*
X63100000Y-56720874D01*
X63257569Y-57101280D01*
X63373000Y-57216711D01*
X63373001Y-81161366D01*
X62736369Y-81797999D01*
X59180316Y-81797999D01*
X59130048Y-81788000D01*
X54194447Y-81788000D01*
X53987458Y-81581011D01*
X53567357Y-81407000D01*
X53112643Y-81407000D01*
X52692542Y-81581011D01*
X52371011Y-81902542D01*
X52197000Y-82322643D01*
X52197000Y-82423000D01*
X47716537Y-82423000D01*
X47512765Y-82286843D01*
X47265000Y-82237560D01*
X45765000Y-82237560D01*
X45517235Y-82286843D01*
X45307191Y-82427191D01*
X45166843Y-82637235D01*
X45117560Y-82885000D01*
X45117560Y-83485000D01*
X45166843Y-83732765D01*
X45225132Y-83820000D01*
X45166843Y-83907235D01*
X45117560Y-84155000D01*
X45117560Y-84755000D01*
X45166843Y-85002765D01*
X45225132Y-85090000D01*
X45166843Y-85177235D01*
X45117560Y-85425000D01*
X45117560Y-86025000D01*
X45166843Y-86272765D01*
X45225132Y-86360000D01*
X45166843Y-86447235D01*
X45117560Y-86695000D01*
X45117560Y-87295000D01*
X45166843Y-87542765D01*
X45225132Y-87630000D01*
X45166843Y-87717235D01*
X45117560Y-87965000D01*
X45117560Y-88565000D01*
X45166843Y-88812765D01*
X45225132Y-88900000D01*
X45166843Y-88987235D01*
X45117560Y-89235000D01*
X45117560Y-89835000D01*
X45158933Y-90043000D01*
X42471067Y-90043000D01*
X42512440Y-89835000D01*
X42512440Y-89235000D01*
X42463157Y-88987235D01*
X42404868Y-88900000D01*
X42463157Y-88812765D01*
X42512440Y-88565000D01*
X42512440Y-87965000D01*
X42463157Y-87717235D01*
X42404868Y-87630000D01*
X42463157Y-87542765D01*
X42512440Y-87295000D01*
X42512440Y-86695000D01*
X42463157Y-86447235D01*
X42404868Y-86360000D01*
X42463157Y-86272765D01*
X42512440Y-86025000D01*
X42512440Y-85425000D01*
X42463157Y-85177235D01*
X42404868Y-85090000D01*
X42463157Y-85002765D01*
X42512440Y-84755000D01*
X42512440Y-84155000D01*
X42463157Y-83907235D01*
X42404868Y-83820000D01*
X42463157Y-83732765D01*
X42512440Y-83485000D01*
X42512440Y-82885000D01*
X42463157Y-82637235D01*
X42404868Y-82550000D01*
X42463157Y-82462765D01*
X42512440Y-82215000D01*
X42512440Y-81615000D01*
X42463157Y-81367235D01*
X42404868Y-81280000D01*
X42463157Y-81192765D01*
X42512440Y-80945000D01*
X42512440Y-80345000D01*
X45117560Y-80345000D01*
X45117560Y-80945000D01*
X45166843Y-81192765D01*
X45307191Y-81402809D01*
X45517235Y-81543157D01*
X45765000Y-81592440D01*
X47265000Y-81592440D01*
X47512765Y-81543157D01*
X47621674Y-81470385D01*
X47673720Y-81522431D01*
X48054126Y-81680000D01*
X48465874Y-81680000D01*
X48846280Y-81522431D01*
X49137431Y-81231280D01*
X49295000Y-80850874D01*
X49295000Y-80439126D01*
X49137431Y-80058720D01*
X48846280Y-79767569D01*
X48465874Y-79610000D01*
X48054126Y-79610000D01*
X47673720Y-79767569D01*
X47621674Y-79819615D01*
X47512765Y-79746843D01*
X47265000Y-79697560D01*
X45765000Y-79697560D01*
X45517235Y-79746843D01*
X45307191Y-79887191D01*
X45166843Y-80097235D01*
X45117560Y-80345000D01*
X42512440Y-80345000D01*
X42463157Y-80097235D01*
X42322809Y-79887191D01*
X42112765Y-79746843D01*
X41865000Y-79697560D01*
X40365000Y-79697560D01*
X40173318Y-79735688D01*
X40132000Y-79694370D01*
X40132000Y-78180047D01*
X40146928Y-78105000D01*
X40117240Y-77955748D01*
X40105978Y-77899126D01*
X49130000Y-77899126D01*
X49130000Y-78310874D01*
X49287569Y-78691280D01*
X49578720Y-78982431D01*
X49959126Y-79140000D01*
X50370874Y-79140000D01*
X50751280Y-78982431D01*
X50866711Y-78867000D01*
X51089102Y-78867000D01*
X51156753Y-78968247D01*
X51443848Y-79160078D01*
X51782500Y-79227440D01*
X52357500Y-79227440D01*
X52696152Y-79160078D01*
X52983247Y-78968247D01*
X53175078Y-78681152D01*
X53242440Y-78342500D01*
X53242440Y-77867500D01*
X53175078Y-77528848D01*
X52983247Y-77241753D01*
X52696152Y-77049922D01*
X52357500Y-76982560D01*
X51782500Y-76982560D01*
X51443848Y-77049922D01*
X51156753Y-77241753D01*
X51089102Y-77343000D01*
X50866711Y-77343000D01*
X50751280Y-77227569D01*
X50370874Y-77070000D01*
X49959126Y-77070000D01*
X49578720Y-77227569D01*
X49287569Y-77518720D01*
X49130000Y-77899126D01*
X40105978Y-77899126D01*
X40087788Y-77807683D01*
X39919371Y-77555629D01*
X39855750Y-77513119D01*
X39326882Y-76984252D01*
X39284371Y-76920629D01*
X39032317Y-76752213D01*
X38735000Y-76693073D01*
X38589574Y-76722000D01*
X36905307Y-76722000D01*
X36804247Y-76570753D01*
X36517152Y-76378922D01*
X36178500Y-76311560D01*
X35703500Y-76311560D01*
X35364848Y-76378922D01*
X35077753Y-76570753D01*
X34885922Y-76857848D01*
X34818560Y-77196500D01*
X34818560Y-77771500D01*
X34885922Y-78110152D01*
X35052197Y-78359000D01*
X34885922Y-78607848D01*
X34818560Y-78946500D01*
X34818560Y-79521500D01*
X34885922Y-79860152D01*
X35077753Y-80147247D01*
X35364848Y-80339078D01*
X35436009Y-80353233D01*
X35204753Y-80507753D01*
X35012922Y-80794848D01*
X34945560Y-81133500D01*
X34945560Y-81708500D01*
X35012922Y-82047152D01*
X35204753Y-82334247D01*
X35491848Y-82526078D01*
X35830500Y-82593440D01*
X36305500Y-82593440D01*
X36644152Y-82526078D01*
X36931247Y-82334247D01*
X37032307Y-82183000D01*
X39084457Y-82183000D01*
X38783720Y-82307569D01*
X38492569Y-82598720D01*
X38335000Y-82979126D01*
X38335000Y-83390874D01*
X38492569Y-83771280D01*
X38783720Y-84062431D01*
X38845449Y-84088000D01*
X34619307Y-84088000D01*
X34518247Y-83936753D01*
X34231152Y-83744922D01*
X33892500Y-83677560D01*
X33417500Y-83677560D01*
X33078848Y-83744922D01*
X32791753Y-83936753D01*
X32599922Y-84223848D01*
X32532560Y-84562500D01*
X32532560Y-85137500D01*
X32599922Y-85476152D01*
X32766197Y-85725000D01*
X32599922Y-85973848D01*
X32532560Y-86312500D01*
X32532560Y-86868000D01*
X31803881Y-86868000D01*
X31831928Y-86727000D01*
X31772788Y-86429683D01*
X31604371Y-86177629D01*
X31542070Y-86136001D01*
X31535078Y-86100848D01*
X31343247Y-85813753D01*
X31056152Y-85621922D01*
X30717500Y-85554560D01*
X30242500Y-85554560D01*
X29903848Y-85621922D01*
X29616753Y-85813753D01*
X29424922Y-86100848D01*
X29357560Y-86439500D01*
X28919494Y-86439500D01*
X28910797Y-62869453D01*
X43586400Y-62869453D01*
X43586400Y-64132547D01*
X44069765Y-65299493D01*
X44962907Y-66192635D01*
X46129853Y-66676000D01*
X47392947Y-66676000D01*
X48559893Y-66192635D01*
X49453035Y-65299493D01*
X49936400Y-64132547D01*
X49936400Y-62869453D01*
X49453035Y-61702507D01*
X48559893Y-60809365D01*
X47392947Y-60326000D01*
X46129853Y-60326000D01*
X44962907Y-60809365D01*
X44069765Y-61702507D01*
X43586400Y-62869453D01*
X28910797Y-62869453D01*
X28909529Y-59434913D01*
X29211518Y-59560001D01*
X29766484Y-59560001D01*
X30279205Y-59347625D01*
X30671625Y-58955205D01*
X30759001Y-58744261D01*
X30846377Y-58955205D01*
X31238797Y-59347625D01*
X31751518Y-59560001D01*
X32306484Y-59560001D01*
X32819205Y-59347625D01*
X33211625Y-58955205D01*
X33299001Y-58744261D01*
X33386377Y-58955205D01*
X33778797Y-59347625D01*
X34291518Y-59560001D01*
X34846484Y-59560001D01*
X35359205Y-59347625D01*
X35751625Y-58955205D01*
X35839001Y-58744261D01*
X35926377Y-58955205D01*
X36318797Y-59347625D01*
X36831518Y-59560001D01*
X37386484Y-59560001D01*
X37899205Y-59347625D01*
X38291625Y-58955205D01*
X38379001Y-58744261D01*
X38466377Y-58955205D01*
X38858797Y-59347625D01*
X39371518Y-59560001D01*
X39926484Y-59560001D01*
X40439205Y-59347625D01*
X40831625Y-58955205D01*
X40919001Y-58744261D01*
X41006377Y-58955205D01*
X41398797Y-59347625D01*
X41911518Y-59560001D01*
X42466484Y-59560001D01*
X42979205Y-59347625D01*
X43371625Y-58955205D01*
X43459001Y-58744261D01*
X43546377Y-58955205D01*
X43938797Y-59347625D01*
X44451518Y-59560001D01*
X45006484Y-59560001D01*
X45519205Y-59347625D01*
X45911625Y-58955205D01*
X45999001Y-58744261D01*
X46086377Y-58955205D01*
X46478797Y-59347625D01*
X46991518Y-59560001D01*
X47546484Y-59560001D01*
X48059205Y-59347625D01*
X48451625Y-58955205D01*
X48539001Y-58744261D01*
X48626377Y-58955205D01*
X49018797Y-59347625D01*
X49531518Y-59560001D01*
X50086484Y-59560001D01*
X50599205Y-59347625D01*
X50991625Y-58955205D01*
X51079001Y-58744261D01*
X51166377Y-58955205D01*
X51558797Y-59347625D01*
X52071518Y-59560001D01*
X52626484Y-59560001D01*
X53139205Y-59347625D01*
X53531625Y-58955205D01*
X53744001Y-58442484D01*
X53744001Y-57887518D01*
X53531625Y-57374797D01*
X53139205Y-56982377D01*
X52928261Y-56895001D01*
X53139205Y-56807625D01*
X53531625Y-56415205D01*
X53744001Y-55902484D01*
X53744001Y-55347518D01*
X53531625Y-54834797D01*
X53139205Y-54442377D01*
X52626484Y-54230001D01*
X52071518Y-54230001D01*
X51558797Y-54442377D01*
X51166377Y-54834797D01*
X51079001Y-55045741D01*
X50991625Y-54834797D01*
X50599205Y-54442377D01*
X50086484Y-54230001D01*
X49531518Y-54230001D01*
X49018797Y-54442377D01*
X48626377Y-54834797D01*
X48539001Y-55045741D01*
X48451625Y-54834797D01*
X48059205Y-54442377D01*
X47546484Y-54230001D01*
X46991518Y-54230001D01*
X46478797Y-54442377D01*
X46086377Y-54834797D01*
X45999001Y-55045741D01*
X45911625Y-54834797D01*
X45519205Y-54442377D01*
X45006484Y-54230001D01*
X44451518Y-54230001D01*
X43938797Y-54442377D01*
X43546377Y-54834797D01*
X43459001Y-55045741D01*
X43371625Y-54834797D01*
X42979205Y-54442377D01*
X42466484Y-54230001D01*
X41911518Y-54230001D01*
X41398797Y-54442377D01*
X41006377Y-54834797D01*
X40919001Y-55045741D01*
X40831625Y-54834797D01*
X40439205Y-54442377D01*
X39926484Y-54230001D01*
X39371518Y-54230001D01*
X38858797Y-54442377D01*
X38466377Y-54834797D01*
X38379001Y-55045741D01*
X38291625Y-54834797D01*
X37899205Y-54442377D01*
X37386484Y-54230001D01*
X36831518Y-54230001D01*
X36318797Y-54442377D01*
X35926377Y-54834797D01*
X35839001Y-55045741D01*
X35751625Y-54834797D01*
X35359205Y-54442377D01*
X34846484Y-54230001D01*
X34291518Y-54230001D01*
X33778797Y-54442377D01*
X33386377Y-54834797D01*
X33299001Y-55045741D01*
X33211625Y-54834797D01*
X32819205Y-54442377D01*
X32306484Y-54230001D01*
X31751518Y-54230001D01*
X31238797Y-54442377D01*
X30846377Y-54834797D01*
X30634001Y-55347518D01*
X30634001Y-55902484D01*
X30846377Y-56415205D01*
X31238797Y-56807625D01*
X31449741Y-56895001D01*
X31238797Y-56982377D01*
X30846377Y-57374797D01*
X30759001Y-57585741D01*
X30671625Y-57374797D01*
X30279205Y-56982377D01*
X29766484Y-56770001D01*
X29211518Y-56770001D01*
X28908592Y-56895477D01*
X28905538Y-48617119D01*
X74168000Y-48617119D01*
X74168000Y-49172881D01*
X74380680Y-49686337D01*
X74773663Y-50079320D01*
X74980513Y-50165000D01*
X74773663Y-50250680D01*
X74380680Y-50643663D01*
X74168000Y-51157119D01*
X74168000Y-51712881D01*
X74380680Y-52226337D01*
X74773663Y-52619320D01*
X75287119Y-52832000D01*
X75842881Y-52832000D01*
X76356337Y-52619320D01*
X76749320Y-52226337D01*
X76962000Y-51712881D01*
X76962000Y-51157119D01*
X76749320Y-50643663D01*
X76356337Y-50250680D01*
X76149487Y-50165000D01*
X76356337Y-50079320D01*
X76749320Y-49686337D01*
X76962000Y-49172881D01*
X76962000Y-48617119D01*
X76749320Y-48103663D01*
X76356337Y-47710680D01*
X75842881Y-47498000D01*
X75287119Y-47498000D01*
X74773663Y-47710680D01*
X74380680Y-48103663D01*
X74168000Y-48617119D01*
X28905538Y-48617119D01*
X28904999Y-47155567D01*
X81841000Y-47155567D01*
X81841000Y-48094433D01*
X82200289Y-48961833D01*
X82864167Y-49625711D01*
X83731567Y-49985000D01*
X84670433Y-49985000D01*
X85537833Y-49625711D01*
X86201711Y-48961833D01*
X86561000Y-48094433D01*
X86561000Y-47155567D01*
X86201711Y-46288167D01*
X85537833Y-45624289D01*
X84670433Y-45265000D01*
X83731567Y-45265000D01*
X82864167Y-45624289D01*
X82200289Y-46288167D01*
X81841000Y-47155567D01*
X28904999Y-47155567D01*
X28904262Y-45160000D01*
X88444504Y-45160000D01*
X88469364Y-80213667D01*
G04 #@! TD*
M02*
