G04 #@! TF.GenerationSoftware,KiCad,Pcbnew,(5.0.0)*
G04 #@! TF.CreationDate,2018-09-29T16:55:19-05:00*
G04 #@! TF.ProjectId,Driveboard_Hardware,4472697665626F6172645F4861726477,rev?*
G04 #@! TF.SameCoordinates,Original*
G04 #@! TF.FileFunction,Paste,Top*
G04 #@! TF.FilePolarity,Positive*
%FSLAX46Y46*%
G04 Gerber Fmt 4.6, Leading zero omitted, Abs format (unit mm)*
G04 Created by KiCad (PCBNEW (5.0.0)) date 09/29/18 16:55:19*
%MOMM*%
%LPD*%
G01*
G04 APERTURE LIST*
%ADD10C,1.520000*%
%ADD11C,0.100000*%
%ADD12C,0.950000*%
%ADD13R,1.500000X0.600000*%
%ADD14C,5.080000*%
G04 APERTURE END LIST*
D10*
G04 #@! TO.C,U1*
X65049001Y-129285001D03*
X67589001Y-129285001D03*
X70129001Y-129285001D03*
X72669001Y-129285001D03*
X75209001Y-129285001D03*
X77749001Y-129285001D03*
X80289001Y-129285001D03*
X82829001Y-129285001D03*
X85369001Y-129285001D03*
X87909001Y-129285001D03*
X65049001Y-131825001D03*
X67589001Y-131825001D03*
X70129001Y-131825001D03*
X72669001Y-131825001D03*
X75209001Y-131825001D03*
X77749001Y-131825001D03*
X80289001Y-131825001D03*
X82829001Y-131825001D03*
X85369001Y-131825001D03*
X87909001Y-131825001D03*
X65049001Y-88645001D03*
X67589001Y-88645001D03*
X70129001Y-88645001D03*
X72669001Y-88645001D03*
X75209001Y-88645001D03*
X77749001Y-88645001D03*
X80289001Y-88645001D03*
X82829001Y-88645001D03*
X85369001Y-88645001D03*
X87909001Y-88645001D03*
X65049001Y-86105001D03*
X67589001Y-86105001D03*
X70129001Y-86105001D03*
X72669001Y-86105001D03*
X75209001Y-86105001D03*
X77749001Y-86105001D03*
X80289001Y-86105001D03*
X82829001Y-86105001D03*
X85369001Y-86105001D03*
X87909001Y-86105001D03*
G04 #@! TD*
D11*
G04 #@! TO.C,C1*
G36*
X98072779Y-111003676D02*
X98095834Y-111007095D01*
X98118443Y-111012759D01*
X98140387Y-111020611D01*
X98161457Y-111030576D01*
X98181448Y-111042558D01*
X98200168Y-111056442D01*
X98217438Y-111072094D01*
X98233090Y-111089364D01*
X98246974Y-111108084D01*
X98258956Y-111128075D01*
X98268921Y-111149145D01*
X98276773Y-111171089D01*
X98282437Y-111193698D01*
X98285856Y-111216753D01*
X98287000Y-111240032D01*
X98287000Y-111715032D01*
X98285856Y-111738311D01*
X98282437Y-111761366D01*
X98276773Y-111783975D01*
X98268921Y-111805919D01*
X98258956Y-111826989D01*
X98246974Y-111846980D01*
X98233090Y-111865700D01*
X98217438Y-111882970D01*
X98200168Y-111898622D01*
X98181448Y-111912506D01*
X98161457Y-111924488D01*
X98140387Y-111934453D01*
X98118443Y-111942305D01*
X98095834Y-111947969D01*
X98072779Y-111951388D01*
X98049500Y-111952532D01*
X97474500Y-111952532D01*
X97451221Y-111951388D01*
X97428166Y-111947969D01*
X97405557Y-111942305D01*
X97383613Y-111934453D01*
X97362543Y-111924488D01*
X97342552Y-111912506D01*
X97323832Y-111898622D01*
X97306562Y-111882970D01*
X97290910Y-111865700D01*
X97277026Y-111846980D01*
X97265044Y-111826989D01*
X97255079Y-111805919D01*
X97247227Y-111783975D01*
X97241563Y-111761366D01*
X97238144Y-111738311D01*
X97237000Y-111715032D01*
X97237000Y-111240032D01*
X97238144Y-111216753D01*
X97241563Y-111193698D01*
X97247227Y-111171089D01*
X97255079Y-111149145D01*
X97265044Y-111128075D01*
X97277026Y-111108084D01*
X97290910Y-111089364D01*
X97306562Y-111072094D01*
X97323832Y-111056442D01*
X97342552Y-111042558D01*
X97362543Y-111030576D01*
X97383613Y-111020611D01*
X97405557Y-111012759D01*
X97428166Y-111007095D01*
X97451221Y-111003676D01*
X97474500Y-111002532D01*
X98049500Y-111002532D01*
X98072779Y-111003676D01*
X98072779Y-111003676D01*
G37*
D12*
X97762000Y-111477532D03*
D11*
G36*
X96322779Y-111003676D02*
X96345834Y-111007095D01*
X96368443Y-111012759D01*
X96390387Y-111020611D01*
X96411457Y-111030576D01*
X96431448Y-111042558D01*
X96450168Y-111056442D01*
X96467438Y-111072094D01*
X96483090Y-111089364D01*
X96496974Y-111108084D01*
X96508956Y-111128075D01*
X96518921Y-111149145D01*
X96526773Y-111171089D01*
X96532437Y-111193698D01*
X96535856Y-111216753D01*
X96537000Y-111240032D01*
X96537000Y-111715032D01*
X96535856Y-111738311D01*
X96532437Y-111761366D01*
X96526773Y-111783975D01*
X96518921Y-111805919D01*
X96508956Y-111826989D01*
X96496974Y-111846980D01*
X96483090Y-111865700D01*
X96467438Y-111882970D01*
X96450168Y-111898622D01*
X96431448Y-111912506D01*
X96411457Y-111924488D01*
X96390387Y-111934453D01*
X96368443Y-111942305D01*
X96345834Y-111947969D01*
X96322779Y-111951388D01*
X96299500Y-111952532D01*
X95724500Y-111952532D01*
X95701221Y-111951388D01*
X95678166Y-111947969D01*
X95655557Y-111942305D01*
X95633613Y-111934453D01*
X95612543Y-111924488D01*
X95592552Y-111912506D01*
X95573832Y-111898622D01*
X95556562Y-111882970D01*
X95540910Y-111865700D01*
X95527026Y-111846980D01*
X95515044Y-111826989D01*
X95505079Y-111805919D01*
X95497227Y-111783975D01*
X95491563Y-111761366D01*
X95488144Y-111738311D01*
X95487000Y-111715032D01*
X95487000Y-111240032D01*
X95488144Y-111216753D01*
X95491563Y-111193698D01*
X95497227Y-111171089D01*
X95505079Y-111149145D01*
X95515044Y-111128075D01*
X95527026Y-111108084D01*
X95540910Y-111089364D01*
X95556562Y-111072094D01*
X95573832Y-111056442D01*
X95592552Y-111042558D01*
X95612543Y-111030576D01*
X95633613Y-111020611D01*
X95655557Y-111012759D01*
X95678166Y-111007095D01*
X95701221Y-111003676D01*
X95724500Y-111002532D01*
X96299500Y-111002532D01*
X96322779Y-111003676D01*
X96322779Y-111003676D01*
G37*
D12*
X96012000Y-111477532D03*
G04 #@! TD*
D11*
G04 #@! TO.C,C2*
G36*
X100184787Y-111003676D02*
X100207842Y-111007095D01*
X100230451Y-111012759D01*
X100252395Y-111020611D01*
X100273465Y-111030576D01*
X100293456Y-111042558D01*
X100312176Y-111056442D01*
X100329446Y-111072094D01*
X100345098Y-111089364D01*
X100358982Y-111108084D01*
X100370964Y-111128075D01*
X100380929Y-111149145D01*
X100388781Y-111171089D01*
X100394445Y-111193698D01*
X100397864Y-111216753D01*
X100399008Y-111240032D01*
X100399008Y-111715032D01*
X100397864Y-111738311D01*
X100394445Y-111761366D01*
X100388781Y-111783975D01*
X100380929Y-111805919D01*
X100370964Y-111826989D01*
X100358982Y-111846980D01*
X100345098Y-111865700D01*
X100329446Y-111882970D01*
X100312176Y-111898622D01*
X100293456Y-111912506D01*
X100273465Y-111924488D01*
X100252395Y-111934453D01*
X100230451Y-111942305D01*
X100207842Y-111947969D01*
X100184787Y-111951388D01*
X100161508Y-111952532D01*
X99586508Y-111952532D01*
X99563229Y-111951388D01*
X99540174Y-111947969D01*
X99517565Y-111942305D01*
X99495621Y-111934453D01*
X99474551Y-111924488D01*
X99454560Y-111912506D01*
X99435840Y-111898622D01*
X99418570Y-111882970D01*
X99402918Y-111865700D01*
X99389034Y-111846980D01*
X99377052Y-111826989D01*
X99367087Y-111805919D01*
X99359235Y-111783975D01*
X99353571Y-111761366D01*
X99350152Y-111738311D01*
X99349008Y-111715032D01*
X99349008Y-111240032D01*
X99350152Y-111216753D01*
X99353571Y-111193698D01*
X99359235Y-111171089D01*
X99367087Y-111149145D01*
X99377052Y-111128075D01*
X99389034Y-111108084D01*
X99402918Y-111089364D01*
X99418570Y-111072094D01*
X99435840Y-111056442D01*
X99454560Y-111042558D01*
X99474551Y-111030576D01*
X99495621Y-111020611D01*
X99517565Y-111012759D01*
X99540174Y-111007095D01*
X99563229Y-111003676D01*
X99586508Y-111002532D01*
X100161508Y-111002532D01*
X100184787Y-111003676D01*
X100184787Y-111003676D01*
G37*
D12*
X99874008Y-111477532D03*
D11*
G36*
X101934787Y-111003676D02*
X101957842Y-111007095D01*
X101980451Y-111012759D01*
X102002395Y-111020611D01*
X102023465Y-111030576D01*
X102043456Y-111042558D01*
X102062176Y-111056442D01*
X102079446Y-111072094D01*
X102095098Y-111089364D01*
X102108982Y-111108084D01*
X102120964Y-111128075D01*
X102130929Y-111149145D01*
X102138781Y-111171089D01*
X102144445Y-111193698D01*
X102147864Y-111216753D01*
X102149008Y-111240032D01*
X102149008Y-111715032D01*
X102147864Y-111738311D01*
X102144445Y-111761366D01*
X102138781Y-111783975D01*
X102130929Y-111805919D01*
X102120964Y-111826989D01*
X102108982Y-111846980D01*
X102095098Y-111865700D01*
X102079446Y-111882970D01*
X102062176Y-111898622D01*
X102043456Y-111912506D01*
X102023465Y-111924488D01*
X102002395Y-111934453D01*
X101980451Y-111942305D01*
X101957842Y-111947969D01*
X101934787Y-111951388D01*
X101911508Y-111952532D01*
X101336508Y-111952532D01*
X101313229Y-111951388D01*
X101290174Y-111947969D01*
X101267565Y-111942305D01*
X101245621Y-111934453D01*
X101224551Y-111924488D01*
X101204560Y-111912506D01*
X101185840Y-111898622D01*
X101168570Y-111882970D01*
X101152918Y-111865700D01*
X101139034Y-111846980D01*
X101127052Y-111826989D01*
X101117087Y-111805919D01*
X101109235Y-111783975D01*
X101103571Y-111761366D01*
X101100152Y-111738311D01*
X101099008Y-111715032D01*
X101099008Y-111240032D01*
X101100152Y-111216753D01*
X101103571Y-111193698D01*
X101109235Y-111171089D01*
X101117087Y-111149145D01*
X101127052Y-111128075D01*
X101139034Y-111108084D01*
X101152918Y-111089364D01*
X101168570Y-111072094D01*
X101185840Y-111056442D01*
X101204560Y-111042558D01*
X101224551Y-111030576D01*
X101245621Y-111020611D01*
X101267565Y-111012759D01*
X101290174Y-111007095D01*
X101313229Y-111003676D01*
X101336508Y-111002532D01*
X101911508Y-111002532D01*
X101934787Y-111003676D01*
X101934787Y-111003676D01*
G37*
D12*
X101624008Y-111477532D03*
G04 #@! TD*
D11*
G04 #@! TO.C,C3*
G36*
X77272779Y-103666144D02*
X77295834Y-103669563D01*
X77318443Y-103675227D01*
X77340387Y-103683079D01*
X77361457Y-103693044D01*
X77381448Y-103705026D01*
X77400168Y-103718910D01*
X77417438Y-103734562D01*
X77433090Y-103751832D01*
X77446974Y-103770552D01*
X77458956Y-103790543D01*
X77468921Y-103811613D01*
X77476773Y-103833557D01*
X77482437Y-103856166D01*
X77485856Y-103879221D01*
X77487000Y-103902500D01*
X77487000Y-104377500D01*
X77485856Y-104400779D01*
X77482437Y-104423834D01*
X77476773Y-104446443D01*
X77468921Y-104468387D01*
X77458956Y-104489457D01*
X77446974Y-104509448D01*
X77433090Y-104528168D01*
X77417438Y-104545438D01*
X77400168Y-104561090D01*
X77381448Y-104574974D01*
X77361457Y-104586956D01*
X77340387Y-104596921D01*
X77318443Y-104604773D01*
X77295834Y-104610437D01*
X77272779Y-104613856D01*
X77249500Y-104615000D01*
X76674500Y-104615000D01*
X76651221Y-104613856D01*
X76628166Y-104610437D01*
X76605557Y-104604773D01*
X76583613Y-104596921D01*
X76562543Y-104586956D01*
X76542552Y-104574974D01*
X76523832Y-104561090D01*
X76506562Y-104545438D01*
X76490910Y-104528168D01*
X76477026Y-104509448D01*
X76465044Y-104489457D01*
X76455079Y-104468387D01*
X76447227Y-104446443D01*
X76441563Y-104423834D01*
X76438144Y-104400779D01*
X76437000Y-104377500D01*
X76437000Y-103902500D01*
X76438144Y-103879221D01*
X76441563Y-103856166D01*
X76447227Y-103833557D01*
X76455079Y-103811613D01*
X76465044Y-103790543D01*
X76477026Y-103770552D01*
X76490910Y-103751832D01*
X76506562Y-103734562D01*
X76523832Y-103718910D01*
X76542552Y-103705026D01*
X76562543Y-103693044D01*
X76583613Y-103683079D01*
X76605557Y-103675227D01*
X76628166Y-103669563D01*
X76651221Y-103666144D01*
X76674500Y-103665000D01*
X77249500Y-103665000D01*
X77272779Y-103666144D01*
X77272779Y-103666144D01*
G37*
D12*
X76962000Y-104140000D03*
D11*
G36*
X75522779Y-103666144D02*
X75545834Y-103669563D01*
X75568443Y-103675227D01*
X75590387Y-103683079D01*
X75611457Y-103693044D01*
X75631448Y-103705026D01*
X75650168Y-103718910D01*
X75667438Y-103734562D01*
X75683090Y-103751832D01*
X75696974Y-103770552D01*
X75708956Y-103790543D01*
X75718921Y-103811613D01*
X75726773Y-103833557D01*
X75732437Y-103856166D01*
X75735856Y-103879221D01*
X75737000Y-103902500D01*
X75737000Y-104377500D01*
X75735856Y-104400779D01*
X75732437Y-104423834D01*
X75726773Y-104446443D01*
X75718921Y-104468387D01*
X75708956Y-104489457D01*
X75696974Y-104509448D01*
X75683090Y-104528168D01*
X75667438Y-104545438D01*
X75650168Y-104561090D01*
X75631448Y-104574974D01*
X75611457Y-104586956D01*
X75590387Y-104596921D01*
X75568443Y-104604773D01*
X75545834Y-104610437D01*
X75522779Y-104613856D01*
X75499500Y-104615000D01*
X74924500Y-104615000D01*
X74901221Y-104613856D01*
X74878166Y-104610437D01*
X74855557Y-104604773D01*
X74833613Y-104596921D01*
X74812543Y-104586956D01*
X74792552Y-104574974D01*
X74773832Y-104561090D01*
X74756562Y-104545438D01*
X74740910Y-104528168D01*
X74727026Y-104509448D01*
X74715044Y-104489457D01*
X74705079Y-104468387D01*
X74697227Y-104446443D01*
X74691563Y-104423834D01*
X74688144Y-104400779D01*
X74687000Y-104377500D01*
X74687000Y-103902500D01*
X74688144Y-103879221D01*
X74691563Y-103856166D01*
X74697227Y-103833557D01*
X74705079Y-103811613D01*
X74715044Y-103790543D01*
X74727026Y-103770552D01*
X74740910Y-103751832D01*
X74756562Y-103734562D01*
X74773832Y-103718910D01*
X74792552Y-103705026D01*
X74812543Y-103693044D01*
X74833613Y-103683079D01*
X74855557Y-103675227D01*
X74878166Y-103669563D01*
X74901221Y-103666144D01*
X74924500Y-103665000D01*
X75499500Y-103665000D01*
X75522779Y-103666144D01*
X75522779Y-103666144D01*
G37*
D12*
X75212000Y-104140000D03*
G04 #@! TD*
D11*
G04 #@! TO.C,C4*
G36*
X71430779Y-108746144D02*
X71453834Y-108749563D01*
X71476443Y-108755227D01*
X71498387Y-108763079D01*
X71519457Y-108773044D01*
X71539448Y-108785026D01*
X71558168Y-108798910D01*
X71575438Y-108814562D01*
X71591090Y-108831832D01*
X71604974Y-108850552D01*
X71616956Y-108870543D01*
X71626921Y-108891613D01*
X71634773Y-108913557D01*
X71640437Y-108936166D01*
X71643856Y-108959221D01*
X71645000Y-108982500D01*
X71645000Y-109457500D01*
X71643856Y-109480779D01*
X71640437Y-109503834D01*
X71634773Y-109526443D01*
X71626921Y-109548387D01*
X71616956Y-109569457D01*
X71604974Y-109589448D01*
X71591090Y-109608168D01*
X71575438Y-109625438D01*
X71558168Y-109641090D01*
X71539448Y-109654974D01*
X71519457Y-109666956D01*
X71498387Y-109676921D01*
X71476443Y-109684773D01*
X71453834Y-109690437D01*
X71430779Y-109693856D01*
X71407500Y-109695000D01*
X70832500Y-109695000D01*
X70809221Y-109693856D01*
X70786166Y-109690437D01*
X70763557Y-109684773D01*
X70741613Y-109676921D01*
X70720543Y-109666956D01*
X70700552Y-109654974D01*
X70681832Y-109641090D01*
X70664562Y-109625438D01*
X70648910Y-109608168D01*
X70635026Y-109589448D01*
X70623044Y-109569457D01*
X70613079Y-109548387D01*
X70605227Y-109526443D01*
X70599563Y-109503834D01*
X70596144Y-109480779D01*
X70595000Y-109457500D01*
X70595000Y-108982500D01*
X70596144Y-108959221D01*
X70599563Y-108936166D01*
X70605227Y-108913557D01*
X70613079Y-108891613D01*
X70623044Y-108870543D01*
X70635026Y-108850552D01*
X70648910Y-108831832D01*
X70664562Y-108814562D01*
X70681832Y-108798910D01*
X70700552Y-108785026D01*
X70720543Y-108773044D01*
X70741613Y-108763079D01*
X70763557Y-108755227D01*
X70786166Y-108749563D01*
X70809221Y-108746144D01*
X70832500Y-108745000D01*
X71407500Y-108745000D01*
X71430779Y-108746144D01*
X71430779Y-108746144D01*
G37*
D12*
X71120000Y-109220000D03*
D11*
G36*
X73180779Y-108746144D02*
X73203834Y-108749563D01*
X73226443Y-108755227D01*
X73248387Y-108763079D01*
X73269457Y-108773044D01*
X73289448Y-108785026D01*
X73308168Y-108798910D01*
X73325438Y-108814562D01*
X73341090Y-108831832D01*
X73354974Y-108850552D01*
X73366956Y-108870543D01*
X73376921Y-108891613D01*
X73384773Y-108913557D01*
X73390437Y-108936166D01*
X73393856Y-108959221D01*
X73395000Y-108982500D01*
X73395000Y-109457500D01*
X73393856Y-109480779D01*
X73390437Y-109503834D01*
X73384773Y-109526443D01*
X73376921Y-109548387D01*
X73366956Y-109569457D01*
X73354974Y-109589448D01*
X73341090Y-109608168D01*
X73325438Y-109625438D01*
X73308168Y-109641090D01*
X73289448Y-109654974D01*
X73269457Y-109666956D01*
X73248387Y-109676921D01*
X73226443Y-109684773D01*
X73203834Y-109690437D01*
X73180779Y-109693856D01*
X73157500Y-109695000D01*
X72582500Y-109695000D01*
X72559221Y-109693856D01*
X72536166Y-109690437D01*
X72513557Y-109684773D01*
X72491613Y-109676921D01*
X72470543Y-109666956D01*
X72450552Y-109654974D01*
X72431832Y-109641090D01*
X72414562Y-109625438D01*
X72398910Y-109608168D01*
X72385026Y-109589448D01*
X72373044Y-109569457D01*
X72363079Y-109548387D01*
X72355227Y-109526443D01*
X72349563Y-109503834D01*
X72346144Y-109480779D01*
X72345000Y-109457500D01*
X72345000Y-108982500D01*
X72346144Y-108959221D01*
X72349563Y-108936166D01*
X72355227Y-108913557D01*
X72363079Y-108891613D01*
X72373044Y-108870543D01*
X72385026Y-108850552D01*
X72398910Y-108831832D01*
X72414562Y-108814562D01*
X72431832Y-108798910D01*
X72450552Y-108785026D01*
X72470543Y-108773044D01*
X72491613Y-108763079D01*
X72513557Y-108755227D01*
X72536166Y-108749563D01*
X72559221Y-108746144D01*
X72582500Y-108745000D01*
X73157500Y-108745000D01*
X73180779Y-108746144D01*
X73180779Y-108746144D01*
G37*
D12*
X72870000Y-109220000D03*
G04 #@! TD*
D11*
G04 #@! TO.C,C5*
G36*
X71357179Y-104936144D02*
X71380234Y-104939563D01*
X71402843Y-104945227D01*
X71424787Y-104953079D01*
X71445857Y-104963044D01*
X71465848Y-104975026D01*
X71484568Y-104988910D01*
X71501838Y-105004562D01*
X71517490Y-105021832D01*
X71531374Y-105040552D01*
X71543356Y-105060543D01*
X71553321Y-105081613D01*
X71561173Y-105103557D01*
X71566837Y-105126166D01*
X71570256Y-105149221D01*
X71571400Y-105172500D01*
X71571400Y-105647500D01*
X71570256Y-105670779D01*
X71566837Y-105693834D01*
X71561173Y-105716443D01*
X71553321Y-105738387D01*
X71543356Y-105759457D01*
X71531374Y-105779448D01*
X71517490Y-105798168D01*
X71501838Y-105815438D01*
X71484568Y-105831090D01*
X71465848Y-105844974D01*
X71445857Y-105856956D01*
X71424787Y-105866921D01*
X71402843Y-105874773D01*
X71380234Y-105880437D01*
X71357179Y-105883856D01*
X71333900Y-105885000D01*
X70758900Y-105885000D01*
X70735621Y-105883856D01*
X70712566Y-105880437D01*
X70689957Y-105874773D01*
X70668013Y-105866921D01*
X70646943Y-105856956D01*
X70626952Y-105844974D01*
X70608232Y-105831090D01*
X70590962Y-105815438D01*
X70575310Y-105798168D01*
X70561426Y-105779448D01*
X70549444Y-105759457D01*
X70539479Y-105738387D01*
X70531627Y-105716443D01*
X70525963Y-105693834D01*
X70522544Y-105670779D01*
X70521400Y-105647500D01*
X70521400Y-105172500D01*
X70522544Y-105149221D01*
X70525963Y-105126166D01*
X70531627Y-105103557D01*
X70539479Y-105081613D01*
X70549444Y-105060543D01*
X70561426Y-105040552D01*
X70575310Y-105021832D01*
X70590962Y-105004562D01*
X70608232Y-104988910D01*
X70626952Y-104975026D01*
X70646943Y-104963044D01*
X70668013Y-104953079D01*
X70689957Y-104945227D01*
X70712566Y-104939563D01*
X70735621Y-104936144D01*
X70758900Y-104935000D01*
X71333900Y-104935000D01*
X71357179Y-104936144D01*
X71357179Y-104936144D01*
G37*
D12*
X71046400Y-105410000D03*
D11*
G36*
X73107179Y-104936144D02*
X73130234Y-104939563D01*
X73152843Y-104945227D01*
X73174787Y-104953079D01*
X73195857Y-104963044D01*
X73215848Y-104975026D01*
X73234568Y-104988910D01*
X73251838Y-105004562D01*
X73267490Y-105021832D01*
X73281374Y-105040552D01*
X73293356Y-105060543D01*
X73303321Y-105081613D01*
X73311173Y-105103557D01*
X73316837Y-105126166D01*
X73320256Y-105149221D01*
X73321400Y-105172500D01*
X73321400Y-105647500D01*
X73320256Y-105670779D01*
X73316837Y-105693834D01*
X73311173Y-105716443D01*
X73303321Y-105738387D01*
X73293356Y-105759457D01*
X73281374Y-105779448D01*
X73267490Y-105798168D01*
X73251838Y-105815438D01*
X73234568Y-105831090D01*
X73215848Y-105844974D01*
X73195857Y-105856956D01*
X73174787Y-105866921D01*
X73152843Y-105874773D01*
X73130234Y-105880437D01*
X73107179Y-105883856D01*
X73083900Y-105885000D01*
X72508900Y-105885000D01*
X72485621Y-105883856D01*
X72462566Y-105880437D01*
X72439957Y-105874773D01*
X72418013Y-105866921D01*
X72396943Y-105856956D01*
X72376952Y-105844974D01*
X72358232Y-105831090D01*
X72340962Y-105815438D01*
X72325310Y-105798168D01*
X72311426Y-105779448D01*
X72299444Y-105759457D01*
X72289479Y-105738387D01*
X72281627Y-105716443D01*
X72275963Y-105693834D01*
X72272544Y-105670779D01*
X72271400Y-105647500D01*
X72271400Y-105172500D01*
X72272544Y-105149221D01*
X72275963Y-105126166D01*
X72281627Y-105103557D01*
X72289479Y-105081613D01*
X72299444Y-105060543D01*
X72311426Y-105040552D01*
X72325310Y-105021832D01*
X72340962Y-105004562D01*
X72358232Y-104988910D01*
X72376952Y-104975026D01*
X72396943Y-104963044D01*
X72418013Y-104953079D01*
X72439957Y-104945227D01*
X72462566Y-104939563D01*
X72485621Y-104936144D01*
X72508900Y-104935000D01*
X73083900Y-104935000D01*
X73107179Y-104936144D01*
X73107179Y-104936144D01*
G37*
D12*
X72796400Y-105410000D03*
G04 #@! TD*
D11*
G04 #@! TO.C,C6*
G36*
X75635779Y-107476144D02*
X75658834Y-107479563D01*
X75681443Y-107485227D01*
X75703387Y-107493079D01*
X75724457Y-107503044D01*
X75744448Y-107515026D01*
X75763168Y-107528910D01*
X75780438Y-107544562D01*
X75796090Y-107561832D01*
X75809974Y-107580552D01*
X75821956Y-107600543D01*
X75831921Y-107621613D01*
X75839773Y-107643557D01*
X75845437Y-107666166D01*
X75848856Y-107689221D01*
X75850000Y-107712500D01*
X75850000Y-108187500D01*
X75848856Y-108210779D01*
X75845437Y-108233834D01*
X75839773Y-108256443D01*
X75831921Y-108278387D01*
X75821956Y-108299457D01*
X75809974Y-108319448D01*
X75796090Y-108338168D01*
X75780438Y-108355438D01*
X75763168Y-108371090D01*
X75744448Y-108384974D01*
X75724457Y-108396956D01*
X75703387Y-108406921D01*
X75681443Y-108414773D01*
X75658834Y-108420437D01*
X75635779Y-108423856D01*
X75612500Y-108425000D01*
X75037500Y-108425000D01*
X75014221Y-108423856D01*
X74991166Y-108420437D01*
X74968557Y-108414773D01*
X74946613Y-108406921D01*
X74925543Y-108396956D01*
X74905552Y-108384974D01*
X74886832Y-108371090D01*
X74869562Y-108355438D01*
X74853910Y-108338168D01*
X74840026Y-108319448D01*
X74828044Y-108299457D01*
X74818079Y-108278387D01*
X74810227Y-108256443D01*
X74804563Y-108233834D01*
X74801144Y-108210779D01*
X74800000Y-108187500D01*
X74800000Y-107712500D01*
X74801144Y-107689221D01*
X74804563Y-107666166D01*
X74810227Y-107643557D01*
X74818079Y-107621613D01*
X74828044Y-107600543D01*
X74840026Y-107580552D01*
X74853910Y-107561832D01*
X74869562Y-107544562D01*
X74886832Y-107528910D01*
X74905552Y-107515026D01*
X74925543Y-107503044D01*
X74946613Y-107493079D01*
X74968557Y-107485227D01*
X74991166Y-107479563D01*
X75014221Y-107476144D01*
X75037500Y-107475000D01*
X75612500Y-107475000D01*
X75635779Y-107476144D01*
X75635779Y-107476144D01*
G37*
D12*
X75325000Y-107950000D03*
D11*
G36*
X77385779Y-107476144D02*
X77408834Y-107479563D01*
X77431443Y-107485227D01*
X77453387Y-107493079D01*
X77474457Y-107503044D01*
X77494448Y-107515026D01*
X77513168Y-107528910D01*
X77530438Y-107544562D01*
X77546090Y-107561832D01*
X77559974Y-107580552D01*
X77571956Y-107600543D01*
X77581921Y-107621613D01*
X77589773Y-107643557D01*
X77595437Y-107666166D01*
X77598856Y-107689221D01*
X77600000Y-107712500D01*
X77600000Y-108187500D01*
X77598856Y-108210779D01*
X77595437Y-108233834D01*
X77589773Y-108256443D01*
X77581921Y-108278387D01*
X77571956Y-108299457D01*
X77559974Y-108319448D01*
X77546090Y-108338168D01*
X77530438Y-108355438D01*
X77513168Y-108371090D01*
X77494448Y-108384974D01*
X77474457Y-108396956D01*
X77453387Y-108406921D01*
X77431443Y-108414773D01*
X77408834Y-108420437D01*
X77385779Y-108423856D01*
X77362500Y-108425000D01*
X76787500Y-108425000D01*
X76764221Y-108423856D01*
X76741166Y-108420437D01*
X76718557Y-108414773D01*
X76696613Y-108406921D01*
X76675543Y-108396956D01*
X76655552Y-108384974D01*
X76636832Y-108371090D01*
X76619562Y-108355438D01*
X76603910Y-108338168D01*
X76590026Y-108319448D01*
X76578044Y-108299457D01*
X76568079Y-108278387D01*
X76560227Y-108256443D01*
X76554563Y-108233834D01*
X76551144Y-108210779D01*
X76550000Y-108187500D01*
X76550000Y-107712500D01*
X76551144Y-107689221D01*
X76554563Y-107666166D01*
X76560227Y-107643557D01*
X76568079Y-107621613D01*
X76578044Y-107600543D01*
X76590026Y-107580552D01*
X76603910Y-107561832D01*
X76619562Y-107544562D01*
X76636832Y-107528910D01*
X76655552Y-107515026D01*
X76675543Y-107503044D01*
X76696613Y-107493079D01*
X76718557Y-107485227D01*
X76741166Y-107479563D01*
X76764221Y-107476144D01*
X76787500Y-107475000D01*
X77362500Y-107475000D01*
X77385779Y-107476144D01*
X77385779Y-107476144D01*
G37*
D12*
X77075000Y-107950000D03*
G04 #@! TD*
D13*
G04 #@! TO.C,U3*
X81280000Y-102870000D03*
X81280000Y-104140000D03*
X81280000Y-105410000D03*
X81280000Y-106680000D03*
X81280000Y-107950000D03*
X81280000Y-109220000D03*
X81280000Y-110490000D03*
X81280000Y-111760000D03*
X86680000Y-111760000D03*
X86680000Y-110490000D03*
X86680000Y-109220000D03*
X86680000Y-107950000D03*
X86680000Y-106680000D03*
X86680000Y-105410000D03*
X86680000Y-104140000D03*
X86680000Y-102870000D03*
G04 #@! TD*
D14*
G04 #@! TO.C,Conn1*
X105638600Y-99313000D03*
X105638600Y-107314000D03*
G04 #@! TD*
M02*
