G04 #@! TF.GenerationSoftware,KiCad,Pcbnew,(5.0.0)*
G04 #@! TF.CreationDate,2018-09-29T14:22:13-05:00*
G04 #@! TF.ProjectId,DriveBoard_Hardware,4472697665426F6172645F4861726477,rev?*
G04 #@! TF.SameCoordinates,Original*
G04 #@! TF.FileFunction,Copper,L1,Top,Signal*
G04 #@! TF.FilePolarity,Positive*
%FSLAX46Y46*%
G04 Gerber Fmt 4.6, Leading zero omitted, Abs format (unit mm)*
G04 Created by KiCad (PCBNEW (5.0.0)) date 09/29/18 14:22:13*
%MOMM*%
%LPD*%
G01*
G04 APERTURE LIST*
G04 #@! TA.AperFunction,ComponentPad*
%ADD10C,1.524000*%
G04 #@! TD*
G04 #@! TA.AperFunction,ComponentPad*
%ADD11C,1.520000*%
G04 #@! TD*
G04 #@! TA.AperFunction,Conductor*
%ADD12C,0.100000*%
G04 #@! TD*
G04 #@! TA.AperFunction,SMDPad,CuDef*
%ADD13C,0.950000*%
G04 #@! TD*
G04 #@! TA.AperFunction,ComponentPad*
%ADD14C,5.080000*%
G04 #@! TD*
G04 #@! TA.AperFunction,SMDPad,CuDef*
%ADD15R,1.500000X0.600000*%
G04 #@! TD*
G04 #@! TA.AperFunction,ViaPad*
%ADD16C,0.800000*%
G04 #@! TD*
G04 #@! TA.AperFunction,Conductor*
%ADD17C,0.381000*%
G04 #@! TD*
G04 #@! TA.AperFunction,NonConductor*
%ADD18C,0.254000*%
G04 #@! TD*
G04 APERTURE END LIST*
D10*
G04 #@! TO.P,Conn2,1*
G04 #@! TO.N,Net-(Conn2-Pad1)*
X182880000Y-58420000D03*
G04 #@! TO.P,Conn2,2*
G04 #@! TO.N,Net-(Conn2-Pad2)*
X185420000Y-58420000D03*
G04 #@! TO.P,Conn2,3*
G04 #@! TO.N,GND*
X187960000Y-58420000D03*
G04 #@! TO.P,Conn2,4*
G04 #@! TO.N,TX_1_SL*
X190500000Y-58420000D03*
G04 #@! TO.P,Conn2,5*
G04 #@! TO.N,RX_1_SL*
X193040000Y-58420000D03*
G04 #@! TD*
D11*
G04 #@! TO.P,U1,+3V3*
G04 #@! TO.N,Net-(U1-Pad+3V3)*
X137599001Y-117220001D03*
G04 #@! TO.P,U1,PM6*
G04 #@! TO.N,Net-(U1-PadPM6)*
X160459001Y-71500001D03*
G04 #@! TO.P,U1,PQ1*
G04 #@! TO.N,Net-(U1-PadPQ1)*
X157919001Y-71500001D03*
G04 #@! TO.P,U1,PQ2*
G04 #@! TO.N,Net-(U1-PadPQ2)*
X150299001Y-71500001D03*
G04 #@! TO.P,U1,PK0*
G04 #@! TO.N,RX_2_IC*
X147759001Y-114680001D03*
G04 #@! TO.P,U1,PQ3*
G04 #@! TO.N,Net-(U1-PadPQ3)*
X152839001Y-71500001D03*
G04 #@! TO.P,U1,PP3*
G04 #@! TO.N,Net-(U1-PadPP3)*
X155379001Y-71500001D03*
G04 #@! TO.P,U1,PQ0*
G04 #@! TO.N,Net-(U1-PadPQ0)*
X152839001Y-117220001D03*
G04 #@! TO.P,U1,PA4*
G04 #@! TO.N,Net-(U1-PadPA4)*
X157919001Y-114680001D03*
G04 #@! TO.P,U1,Rese*
G04 #@! TO.N,Net-(U1-PadRese)*
X147759001Y-71500001D03*
G04 #@! TO.P,U1,PA7*
G04 #@! TO.N,Net-(U1-PadPA7)*
X145219001Y-71500001D03*
G04 #@! TO.P,U1,PN5*
G04 #@! TO.N,Net-(U1-PadPN5)*
X157919001Y-117220001D03*
G04 #@! TO.P,U1,PK2*
G04 #@! TO.N,Net-(U1-PadPK2)*
X152839001Y-114680001D03*
G04 #@! TO.P,U1,PK1*
G04 #@! TO.N,TX_2_IC*
X150299001Y-114680001D03*
G04 #@! TO.P,U1,+5V*
G04 #@! TO.N,+5V*
X137599001Y-114680001D03*
G04 #@! TO.P,U1,GND*
G04 #@! TO.N,GND*
X140139001Y-114680001D03*
G04 #@! TO.P,U1,PB4*
G04 #@! TO.N,Net-(U1-PadPB4)*
X142679001Y-114680001D03*
G04 #@! TO.P,U1,PB5*
G04 #@! TO.N,Net-(U1-PadPB5)*
X145219001Y-114680001D03*
G04 #@! TO.P,U1,PK3*
G04 #@! TO.N,Net-(U1-PadPK3)*
X155379001Y-114680001D03*
G04 #@! TO.P,U1,PA5*
G04 #@! TO.N,Net-(U1-PadPA5)*
X160459001Y-114680001D03*
G04 #@! TO.P,U1,PD2*
G04 #@! TO.N,Net-(U1-PadPD2)*
X140139001Y-117220001D03*
G04 #@! TO.P,U1,PP0*
G04 #@! TO.N,RX_1_IC*
X142679001Y-117220001D03*
G04 #@! TO.P,U1,PP1*
G04 #@! TO.N,TX_1_IC*
X145219001Y-117220001D03*
G04 #@! TO.P,U1,PD4*
G04 #@! TO.N,Net-(U1-PadPD4)*
X147759001Y-117220001D03*
G04 #@! TO.P,U1,PD5*
G04 #@! TO.N,Net-(U1-PadPD5)*
X150299001Y-117220001D03*
G04 #@! TO.P,U1,PP4*
G04 #@! TO.N,Net-(U1-PadPP4)*
X155379001Y-117220001D03*
G04 #@! TO.P,U1,PN4*
G04 #@! TO.N,Net-(U1-PadPN4)*
X160459001Y-117220001D03*
G04 #@! TO.P,U1,PG1*
G04 #@! TO.N,Net-(U1-PadPG1)*
X137599001Y-74040001D03*
G04 #@! TO.P,U1,PK4*
G04 #@! TO.N,Net-(U1-PadPK4)*
X140139001Y-74040001D03*
G04 #@! TO.P,U1,PK5*
G04 #@! TO.N,Net-(U1-PadPK5)*
X142679001Y-74040001D03*
G04 #@! TO.P,U1,PM0*
G04 #@! TO.N,Net-(U1-PadPM0)*
X145219001Y-74040001D03*
G04 #@! TO.P,U1,PM1*
G04 #@! TO.N,Net-(U1-PadPM1)*
X147759001Y-74040001D03*
G04 #@! TO.P,U1,PM2*
G04 #@! TO.N,Net-(U1-PadPM2)*
X150299001Y-74040001D03*
G04 #@! TO.P,U1,PH0*
G04 #@! TO.N,Net-(U1-PadPH0)*
X152839001Y-74040001D03*
G04 #@! TO.P,U1,PH1*
G04 #@! TO.N,Net-(U1-PadPH1)*
X155379001Y-74040001D03*
G04 #@! TO.P,U1,PK6*
G04 #@! TO.N,Net-(U1-PadPK6)*
X157919001Y-74040001D03*
G04 #@! TO.P,U1,PK7*
G04 #@! TO.N,Net-(U1-PadPK7)*
X160459001Y-74040001D03*
G04 #@! TO.P,U1,GND*
G04 #@! TO.N,GND*
X137599001Y-71500001D03*
G04 #@! TO.P,U1,PM7*
G04 #@! TO.N,Net-(U1-PadPM7)*
X140139001Y-71500001D03*
G04 #@! TO.P,U1,PP5*
G04 #@! TO.N,Net-(U1-PadPP5)*
X142679001Y-71500001D03*
G04 #@! TD*
D12*
G04 #@! TO.N,Net-(C1-Pad1)*
G04 #@! TO.C,C1*
G36*
X146755779Y-98586144D02*
X146778834Y-98589563D01*
X146801443Y-98595227D01*
X146823387Y-98603079D01*
X146844457Y-98613044D01*
X146864448Y-98625026D01*
X146883168Y-98638910D01*
X146900438Y-98654562D01*
X146916090Y-98671832D01*
X146929974Y-98690552D01*
X146941956Y-98710543D01*
X146951921Y-98731613D01*
X146959773Y-98753557D01*
X146965437Y-98776166D01*
X146968856Y-98799221D01*
X146970000Y-98822500D01*
X146970000Y-99297500D01*
X146968856Y-99320779D01*
X146965437Y-99343834D01*
X146959773Y-99366443D01*
X146951921Y-99388387D01*
X146941956Y-99409457D01*
X146929974Y-99429448D01*
X146916090Y-99448168D01*
X146900438Y-99465438D01*
X146883168Y-99481090D01*
X146864448Y-99494974D01*
X146844457Y-99506956D01*
X146823387Y-99516921D01*
X146801443Y-99524773D01*
X146778834Y-99530437D01*
X146755779Y-99533856D01*
X146732500Y-99535000D01*
X146157500Y-99535000D01*
X146134221Y-99533856D01*
X146111166Y-99530437D01*
X146088557Y-99524773D01*
X146066613Y-99516921D01*
X146045543Y-99506956D01*
X146025552Y-99494974D01*
X146006832Y-99481090D01*
X145989562Y-99465438D01*
X145973910Y-99448168D01*
X145960026Y-99429448D01*
X145948044Y-99409457D01*
X145938079Y-99388387D01*
X145930227Y-99366443D01*
X145924563Y-99343834D01*
X145921144Y-99320779D01*
X145920000Y-99297500D01*
X145920000Y-98822500D01*
X145921144Y-98799221D01*
X145924563Y-98776166D01*
X145930227Y-98753557D01*
X145938079Y-98731613D01*
X145948044Y-98710543D01*
X145960026Y-98690552D01*
X145973910Y-98671832D01*
X145989562Y-98654562D01*
X146006832Y-98638910D01*
X146025552Y-98625026D01*
X146045543Y-98613044D01*
X146066613Y-98603079D01*
X146088557Y-98595227D01*
X146111166Y-98589563D01*
X146134221Y-98586144D01*
X146157500Y-98585000D01*
X146732500Y-98585000D01*
X146755779Y-98586144D01*
X146755779Y-98586144D01*
G37*
D13*
G04 #@! TD*
G04 #@! TO.P,C1,1*
G04 #@! TO.N,Net-(C1-Pad1)*
X146445000Y-99060000D03*
D12*
G04 #@! TO.N,GND*
G04 #@! TO.C,C1*
G36*
X148505779Y-98586144D02*
X148528834Y-98589563D01*
X148551443Y-98595227D01*
X148573387Y-98603079D01*
X148594457Y-98613044D01*
X148614448Y-98625026D01*
X148633168Y-98638910D01*
X148650438Y-98654562D01*
X148666090Y-98671832D01*
X148679974Y-98690552D01*
X148691956Y-98710543D01*
X148701921Y-98731613D01*
X148709773Y-98753557D01*
X148715437Y-98776166D01*
X148718856Y-98799221D01*
X148720000Y-98822500D01*
X148720000Y-99297500D01*
X148718856Y-99320779D01*
X148715437Y-99343834D01*
X148709773Y-99366443D01*
X148701921Y-99388387D01*
X148691956Y-99409457D01*
X148679974Y-99429448D01*
X148666090Y-99448168D01*
X148650438Y-99465438D01*
X148633168Y-99481090D01*
X148614448Y-99494974D01*
X148594457Y-99506956D01*
X148573387Y-99516921D01*
X148551443Y-99524773D01*
X148528834Y-99530437D01*
X148505779Y-99533856D01*
X148482500Y-99535000D01*
X147907500Y-99535000D01*
X147884221Y-99533856D01*
X147861166Y-99530437D01*
X147838557Y-99524773D01*
X147816613Y-99516921D01*
X147795543Y-99506956D01*
X147775552Y-99494974D01*
X147756832Y-99481090D01*
X147739562Y-99465438D01*
X147723910Y-99448168D01*
X147710026Y-99429448D01*
X147698044Y-99409457D01*
X147688079Y-99388387D01*
X147680227Y-99366443D01*
X147674563Y-99343834D01*
X147671144Y-99320779D01*
X147670000Y-99297500D01*
X147670000Y-98822500D01*
X147671144Y-98799221D01*
X147674563Y-98776166D01*
X147680227Y-98753557D01*
X147688079Y-98731613D01*
X147698044Y-98710543D01*
X147710026Y-98690552D01*
X147723910Y-98671832D01*
X147739562Y-98654562D01*
X147756832Y-98638910D01*
X147775552Y-98625026D01*
X147795543Y-98613044D01*
X147816613Y-98603079D01*
X147838557Y-98595227D01*
X147861166Y-98589563D01*
X147884221Y-98586144D01*
X147907500Y-98585000D01*
X148482500Y-98585000D01*
X148505779Y-98586144D01*
X148505779Y-98586144D01*
G37*
D13*
G04 #@! TD*
G04 #@! TO.P,C1,2*
G04 #@! TO.N,GND*
X148195000Y-99060000D03*
D12*
G04 #@! TO.N,GND*
G04 #@! TO.C,C2*
G36*
X147630779Y-79536144D02*
X147653834Y-79539563D01*
X147676443Y-79545227D01*
X147698387Y-79553079D01*
X147719457Y-79563044D01*
X147739448Y-79575026D01*
X147758168Y-79588910D01*
X147775438Y-79604562D01*
X147791090Y-79621832D01*
X147804974Y-79640552D01*
X147816956Y-79660543D01*
X147826921Y-79681613D01*
X147834773Y-79703557D01*
X147840437Y-79726166D01*
X147843856Y-79749221D01*
X147845000Y-79772500D01*
X147845000Y-80247500D01*
X147843856Y-80270779D01*
X147840437Y-80293834D01*
X147834773Y-80316443D01*
X147826921Y-80338387D01*
X147816956Y-80359457D01*
X147804974Y-80379448D01*
X147791090Y-80398168D01*
X147775438Y-80415438D01*
X147758168Y-80431090D01*
X147739448Y-80444974D01*
X147719457Y-80456956D01*
X147698387Y-80466921D01*
X147676443Y-80474773D01*
X147653834Y-80480437D01*
X147630779Y-80483856D01*
X147607500Y-80485000D01*
X147032500Y-80485000D01*
X147009221Y-80483856D01*
X146986166Y-80480437D01*
X146963557Y-80474773D01*
X146941613Y-80466921D01*
X146920543Y-80456956D01*
X146900552Y-80444974D01*
X146881832Y-80431090D01*
X146864562Y-80415438D01*
X146848910Y-80398168D01*
X146835026Y-80379448D01*
X146823044Y-80359457D01*
X146813079Y-80338387D01*
X146805227Y-80316443D01*
X146799563Y-80293834D01*
X146796144Y-80270779D01*
X146795000Y-80247500D01*
X146795000Y-79772500D01*
X146796144Y-79749221D01*
X146799563Y-79726166D01*
X146805227Y-79703557D01*
X146813079Y-79681613D01*
X146823044Y-79660543D01*
X146835026Y-79640552D01*
X146848910Y-79621832D01*
X146864562Y-79604562D01*
X146881832Y-79588910D01*
X146900552Y-79575026D01*
X146920543Y-79563044D01*
X146941613Y-79553079D01*
X146963557Y-79545227D01*
X146986166Y-79539563D01*
X147009221Y-79536144D01*
X147032500Y-79535000D01*
X147607500Y-79535000D01*
X147630779Y-79536144D01*
X147630779Y-79536144D01*
G37*
D13*
G04 #@! TD*
G04 #@! TO.P,C2,2*
G04 #@! TO.N,GND*
X147320000Y-80010000D03*
D12*
G04 #@! TO.N,Net-(C2-Pad1)*
G04 #@! TO.C,C2*
G36*
X145880779Y-79536144D02*
X145903834Y-79539563D01*
X145926443Y-79545227D01*
X145948387Y-79553079D01*
X145969457Y-79563044D01*
X145989448Y-79575026D01*
X146008168Y-79588910D01*
X146025438Y-79604562D01*
X146041090Y-79621832D01*
X146054974Y-79640552D01*
X146066956Y-79660543D01*
X146076921Y-79681613D01*
X146084773Y-79703557D01*
X146090437Y-79726166D01*
X146093856Y-79749221D01*
X146095000Y-79772500D01*
X146095000Y-80247500D01*
X146093856Y-80270779D01*
X146090437Y-80293834D01*
X146084773Y-80316443D01*
X146076921Y-80338387D01*
X146066956Y-80359457D01*
X146054974Y-80379448D01*
X146041090Y-80398168D01*
X146025438Y-80415438D01*
X146008168Y-80431090D01*
X145989448Y-80444974D01*
X145969457Y-80456956D01*
X145948387Y-80466921D01*
X145926443Y-80474773D01*
X145903834Y-80480437D01*
X145880779Y-80483856D01*
X145857500Y-80485000D01*
X145282500Y-80485000D01*
X145259221Y-80483856D01*
X145236166Y-80480437D01*
X145213557Y-80474773D01*
X145191613Y-80466921D01*
X145170543Y-80456956D01*
X145150552Y-80444974D01*
X145131832Y-80431090D01*
X145114562Y-80415438D01*
X145098910Y-80398168D01*
X145085026Y-80379448D01*
X145073044Y-80359457D01*
X145063079Y-80338387D01*
X145055227Y-80316443D01*
X145049563Y-80293834D01*
X145046144Y-80270779D01*
X145045000Y-80247500D01*
X145045000Y-79772500D01*
X145046144Y-79749221D01*
X145049563Y-79726166D01*
X145055227Y-79703557D01*
X145063079Y-79681613D01*
X145073044Y-79660543D01*
X145085026Y-79640552D01*
X145098910Y-79621832D01*
X145114562Y-79604562D01*
X145131832Y-79588910D01*
X145150552Y-79575026D01*
X145170543Y-79563044D01*
X145191613Y-79553079D01*
X145213557Y-79545227D01*
X145236166Y-79539563D01*
X145259221Y-79536144D01*
X145282500Y-79535000D01*
X145857500Y-79535000D01*
X145880779Y-79536144D01*
X145880779Y-79536144D01*
G37*
D13*
G04 #@! TD*
G04 #@! TO.P,C2,1*
G04 #@! TO.N,Net-(C2-Pad1)*
X145570000Y-80010000D03*
D12*
G04 #@! TO.N,/+12V*
G04 #@! TO.C,C3*
G36*
X163745779Y-103666144D02*
X163768834Y-103669563D01*
X163791443Y-103675227D01*
X163813387Y-103683079D01*
X163834457Y-103693044D01*
X163854448Y-103705026D01*
X163873168Y-103718910D01*
X163890438Y-103734562D01*
X163906090Y-103751832D01*
X163919974Y-103770552D01*
X163931956Y-103790543D01*
X163941921Y-103811613D01*
X163949773Y-103833557D01*
X163955437Y-103856166D01*
X163958856Y-103879221D01*
X163960000Y-103902500D01*
X163960000Y-104377500D01*
X163958856Y-104400779D01*
X163955437Y-104423834D01*
X163949773Y-104446443D01*
X163941921Y-104468387D01*
X163931956Y-104489457D01*
X163919974Y-104509448D01*
X163906090Y-104528168D01*
X163890438Y-104545438D01*
X163873168Y-104561090D01*
X163854448Y-104574974D01*
X163834457Y-104586956D01*
X163813387Y-104596921D01*
X163791443Y-104604773D01*
X163768834Y-104610437D01*
X163745779Y-104613856D01*
X163722500Y-104615000D01*
X163147500Y-104615000D01*
X163124221Y-104613856D01*
X163101166Y-104610437D01*
X163078557Y-104604773D01*
X163056613Y-104596921D01*
X163035543Y-104586956D01*
X163015552Y-104574974D01*
X162996832Y-104561090D01*
X162979562Y-104545438D01*
X162963910Y-104528168D01*
X162950026Y-104509448D01*
X162938044Y-104489457D01*
X162928079Y-104468387D01*
X162920227Y-104446443D01*
X162914563Y-104423834D01*
X162911144Y-104400779D01*
X162910000Y-104377500D01*
X162910000Y-103902500D01*
X162911144Y-103879221D01*
X162914563Y-103856166D01*
X162920227Y-103833557D01*
X162928079Y-103811613D01*
X162938044Y-103790543D01*
X162950026Y-103770552D01*
X162963910Y-103751832D01*
X162979562Y-103734562D01*
X162996832Y-103718910D01*
X163015552Y-103705026D01*
X163035543Y-103693044D01*
X163056613Y-103683079D01*
X163078557Y-103675227D01*
X163101166Y-103669563D01*
X163124221Y-103666144D01*
X163147500Y-103665000D01*
X163722500Y-103665000D01*
X163745779Y-103666144D01*
X163745779Y-103666144D01*
G37*
D13*
G04 #@! TD*
G04 #@! TO.P,C3,1*
G04 #@! TO.N,/+12V*
X163435000Y-104140000D03*
D12*
G04 #@! TO.N,GND*
G04 #@! TO.C,C3*
G36*
X165495779Y-103666144D02*
X165518834Y-103669563D01*
X165541443Y-103675227D01*
X165563387Y-103683079D01*
X165584457Y-103693044D01*
X165604448Y-103705026D01*
X165623168Y-103718910D01*
X165640438Y-103734562D01*
X165656090Y-103751832D01*
X165669974Y-103770552D01*
X165681956Y-103790543D01*
X165691921Y-103811613D01*
X165699773Y-103833557D01*
X165705437Y-103856166D01*
X165708856Y-103879221D01*
X165710000Y-103902500D01*
X165710000Y-104377500D01*
X165708856Y-104400779D01*
X165705437Y-104423834D01*
X165699773Y-104446443D01*
X165691921Y-104468387D01*
X165681956Y-104489457D01*
X165669974Y-104509448D01*
X165656090Y-104528168D01*
X165640438Y-104545438D01*
X165623168Y-104561090D01*
X165604448Y-104574974D01*
X165584457Y-104586956D01*
X165563387Y-104596921D01*
X165541443Y-104604773D01*
X165518834Y-104610437D01*
X165495779Y-104613856D01*
X165472500Y-104615000D01*
X164897500Y-104615000D01*
X164874221Y-104613856D01*
X164851166Y-104610437D01*
X164828557Y-104604773D01*
X164806613Y-104596921D01*
X164785543Y-104586956D01*
X164765552Y-104574974D01*
X164746832Y-104561090D01*
X164729562Y-104545438D01*
X164713910Y-104528168D01*
X164700026Y-104509448D01*
X164688044Y-104489457D01*
X164678079Y-104468387D01*
X164670227Y-104446443D01*
X164664563Y-104423834D01*
X164661144Y-104400779D01*
X164660000Y-104377500D01*
X164660000Y-103902500D01*
X164661144Y-103879221D01*
X164664563Y-103856166D01*
X164670227Y-103833557D01*
X164678079Y-103811613D01*
X164688044Y-103790543D01*
X164700026Y-103770552D01*
X164713910Y-103751832D01*
X164729562Y-103734562D01*
X164746832Y-103718910D01*
X164765552Y-103705026D01*
X164785543Y-103693044D01*
X164806613Y-103683079D01*
X164828557Y-103675227D01*
X164851166Y-103669563D01*
X164874221Y-103666144D01*
X164897500Y-103665000D01*
X165472500Y-103665000D01*
X165495779Y-103666144D01*
X165495779Y-103666144D01*
G37*
D13*
G04 #@! TD*
G04 #@! TO.P,C3,2*
G04 #@! TO.N,GND*
X165185000Y-104140000D03*
D12*
G04 #@! TO.N,Net-(C4-Pad1)*
G04 #@! TO.C,C4*
G36*
X157310779Y-92236144D02*
X157333834Y-92239563D01*
X157356443Y-92245227D01*
X157378387Y-92253079D01*
X157399457Y-92263044D01*
X157419448Y-92275026D01*
X157438168Y-92288910D01*
X157455438Y-92304562D01*
X157471090Y-92321832D01*
X157484974Y-92340552D01*
X157496956Y-92360543D01*
X157506921Y-92381613D01*
X157514773Y-92403557D01*
X157520437Y-92426166D01*
X157523856Y-92449221D01*
X157525000Y-92472500D01*
X157525000Y-92947500D01*
X157523856Y-92970779D01*
X157520437Y-92993834D01*
X157514773Y-93016443D01*
X157506921Y-93038387D01*
X157496956Y-93059457D01*
X157484974Y-93079448D01*
X157471090Y-93098168D01*
X157455438Y-93115438D01*
X157438168Y-93131090D01*
X157419448Y-93144974D01*
X157399457Y-93156956D01*
X157378387Y-93166921D01*
X157356443Y-93174773D01*
X157333834Y-93180437D01*
X157310779Y-93183856D01*
X157287500Y-93185000D01*
X156712500Y-93185000D01*
X156689221Y-93183856D01*
X156666166Y-93180437D01*
X156643557Y-93174773D01*
X156621613Y-93166921D01*
X156600543Y-93156956D01*
X156580552Y-93144974D01*
X156561832Y-93131090D01*
X156544562Y-93115438D01*
X156528910Y-93098168D01*
X156515026Y-93079448D01*
X156503044Y-93059457D01*
X156493079Y-93038387D01*
X156485227Y-93016443D01*
X156479563Y-92993834D01*
X156476144Y-92970779D01*
X156475000Y-92947500D01*
X156475000Y-92472500D01*
X156476144Y-92449221D01*
X156479563Y-92426166D01*
X156485227Y-92403557D01*
X156493079Y-92381613D01*
X156503044Y-92360543D01*
X156515026Y-92340552D01*
X156528910Y-92321832D01*
X156544562Y-92304562D01*
X156561832Y-92288910D01*
X156580552Y-92275026D01*
X156600543Y-92263044D01*
X156621613Y-92253079D01*
X156643557Y-92245227D01*
X156666166Y-92239563D01*
X156689221Y-92236144D01*
X156712500Y-92235000D01*
X157287500Y-92235000D01*
X157310779Y-92236144D01*
X157310779Y-92236144D01*
G37*
D13*
G04 #@! TD*
G04 #@! TO.P,C4,1*
G04 #@! TO.N,Net-(C4-Pad1)*
X157000000Y-92710000D03*
D12*
G04 #@! TO.N,Net-(C4-Pad2)*
G04 #@! TO.C,C4*
G36*
X159060779Y-92236144D02*
X159083834Y-92239563D01*
X159106443Y-92245227D01*
X159128387Y-92253079D01*
X159149457Y-92263044D01*
X159169448Y-92275026D01*
X159188168Y-92288910D01*
X159205438Y-92304562D01*
X159221090Y-92321832D01*
X159234974Y-92340552D01*
X159246956Y-92360543D01*
X159256921Y-92381613D01*
X159264773Y-92403557D01*
X159270437Y-92426166D01*
X159273856Y-92449221D01*
X159275000Y-92472500D01*
X159275000Y-92947500D01*
X159273856Y-92970779D01*
X159270437Y-92993834D01*
X159264773Y-93016443D01*
X159256921Y-93038387D01*
X159246956Y-93059457D01*
X159234974Y-93079448D01*
X159221090Y-93098168D01*
X159205438Y-93115438D01*
X159188168Y-93131090D01*
X159169448Y-93144974D01*
X159149457Y-93156956D01*
X159128387Y-93166921D01*
X159106443Y-93174773D01*
X159083834Y-93180437D01*
X159060779Y-93183856D01*
X159037500Y-93185000D01*
X158462500Y-93185000D01*
X158439221Y-93183856D01*
X158416166Y-93180437D01*
X158393557Y-93174773D01*
X158371613Y-93166921D01*
X158350543Y-93156956D01*
X158330552Y-93144974D01*
X158311832Y-93131090D01*
X158294562Y-93115438D01*
X158278910Y-93098168D01*
X158265026Y-93079448D01*
X158253044Y-93059457D01*
X158243079Y-93038387D01*
X158235227Y-93016443D01*
X158229563Y-92993834D01*
X158226144Y-92970779D01*
X158225000Y-92947500D01*
X158225000Y-92472500D01*
X158226144Y-92449221D01*
X158229563Y-92426166D01*
X158235227Y-92403557D01*
X158243079Y-92381613D01*
X158253044Y-92360543D01*
X158265026Y-92340552D01*
X158278910Y-92321832D01*
X158294562Y-92304562D01*
X158311832Y-92288910D01*
X158330552Y-92275026D01*
X158350543Y-92263044D01*
X158371613Y-92253079D01*
X158393557Y-92245227D01*
X158416166Y-92239563D01*
X158439221Y-92236144D01*
X158462500Y-92235000D01*
X159037500Y-92235000D01*
X159060779Y-92236144D01*
X159060779Y-92236144D01*
G37*
D13*
G04 #@! TD*
G04 #@! TO.P,C4,2*
G04 #@! TO.N,Net-(C4-Pad2)*
X158750000Y-92710000D03*
D12*
G04 #@! TO.N,Net-(C5-Pad2)*
G04 #@! TO.C,C5*
G36*
X159060779Y-89696144D02*
X159083834Y-89699563D01*
X159106443Y-89705227D01*
X159128387Y-89713079D01*
X159149457Y-89723044D01*
X159169448Y-89735026D01*
X159188168Y-89748910D01*
X159205438Y-89764562D01*
X159221090Y-89781832D01*
X159234974Y-89800552D01*
X159246956Y-89820543D01*
X159256921Y-89841613D01*
X159264773Y-89863557D01*
X159270437Y-89886166D01*
X159273856Y-89909221D01*
X159275000Y-89932500D01*
X159275000Y-90407500D01*
X159273856Y-90430779D01*
X159270437Y-90453834D01*
X159264773Y-90476443D01*
X159256921Y-90498387D01*
X159246956Y-90519457D01*
X159234974Y-90539448D01*
X159221090Y-90558168D01*
X159205438Y-90575438D01*
X159188168Y-90591090D01*
X159169448Y-90604974D01*
X159149457Y-90616956D01*
X159128387Y-90626921D01*
X159106443Y-90634773D01*
X159083834Y-90640437D01*
X159060779Y-90643856D01*
X159037500Y-90645000D01*
X158462500Y-90645000D01*
X158439221Y-90643856D01*
X158416166Y-90640437D01*
X158393557Y-90634773D01*
X158371613Y-90626921D01*
X158350543Y-90616956D01*
X158330552Y-90604974D01*
X158311832Y-90591090D01*
X158294562Y-90575438D01*
X158278910Y-90558168D01*
X158265026Y-90539448D01*
X158253044Y-90519457D01*
X158243079Y-90498387D01*
X158235227Y-90476443D01*
X158229563Y-90453834D01*
X158226144Y-90430779D01*
X158225000Y-90407500D01*
X158225000Y-89932500D01*
X158226144Y-89909221D01*
X158229563Y-89886166D01*
X158235227Y-89863557D01*
X158243079Y-89841613D01*
X158253044Y-89820543D01*
X158265026Y-89800552D01*
X158278910Y-89781832D01*
X158294562Y-89764562D01*
X158311832Y-89748910D01*
X158330552Y-89735026D01*
X158350543Y-89723044D01*
X158371613Y-89713079D01*
X158393557Y-89705227D01*
X158416166Y-89699563D01*
X158439221Y-89696144D01*
X158462500Y-89695000D01*
X159037500Y-89695000D01*
X159060779Y-89696144D01*
X159060779Y-89696144D01*
G37*
D13*
G04 #@! TD*
G04 #@! TO.P,C5,2*
G04 #@! TO.N,Net-(C5-Pad2)*
X158750000Y-90170000D03*
D12*
G04 #@! TO.N,Net-(C5-Pad1)*
G04 #@! TO.C,C5*
G36*
X157310779Y-89696144D02*
X157333834Y-89699563D01*
X157356443Y-89705227D01*
X157378387Y-89713079D01*
X157399457Y-89723044D01*
X157419448Y-89735026D01*
X157438168Y-89748910D01*
X157455438Y-89764562D01*
X157471090Y-89781832D01*
X157484974Y-89800552D01*
X157496956Y-89820543D01*
X157506921Y-89841613D01*
X157514773Y-89863557D01*
X157520437Y-89886166D01*
X157523856Y-89909221D01*
X157525000Y-89932500D01*
X157525000Y-90407500D01*
X157523856Y-90430779D01*
X157520437Y-90453834D01*
X157514773Y-90476443D01*
X157506921Y-90498387D01*
X157496956Y-90519457D01*
X157484974Y-90539448D01*
X157471090Y-90558168D01*
X157455438Y-90575438D01*
X157438168Y-90591090D01*
X157419448Y-90604974D01*
X157399457Y-90616956D01*
X157378387Y-90626921D01*
X157356443Y-90634773D01*
X157333834Y-90640437D01*
X157310779Y-90643856D01*
X157287500Y-90645000D01*
X156712500Y-90645000D01*
X156689221Y-90643856D01*
X156666166Y-90640437D01*
X156643557Y-90634773D01*
X156621613Y-90626921D01*
X156600543Y-90616956D01*
X156580552Y-90604974D01*
X156561832Y-90591090D01*
X156544562Y-90575438D01*
X156528910Y-90558168D01*
X156515026Y-90539448D01*
X156503044Y-90519457D01*
X156493079Y-90498387D01*
X156485227Y-90476443D01*
X156479563Y-90453834D01*
X156476144Y-90430779D01*
X156475000Y-90407500D01*
X156475000Y-89932500D01*
X156476144Y-89909221D01*
X156479563Y-89886166D01*
X156485227Y-89863557D01*
X156493079Y-89841613D01*
X156503044Y-89820543D01*
X156515026Y-89800552D01*
X156528910Y-89781832D01*
X156544562Y-89764562D01*
X156561832Y-89748910D01*
X156580552Y-89735026D01*
X156600543Y-89723044D01*
X156621613Y-89713079D01*
X156643557Y-89705227D01*
X156666166Y-89699563D01*
X156689221Y-89696144D01*
X156712500Y-89695000D01*
X157287500Y-89695000D01*
X157310779Y-89696144D01*
X157310779Y-89696144D01*
G37*
D13*
G04 #@! TD*
G04 #@! TO.P,C5,1*
G04 #@! TO.N,Net-(C5-Pad1)*
X157000000Y-90170000D03*
D12*
G04 #@! TO.N,GND*
G04 #@! TO.C,C6*
G36*
X165410779Y-108746144D02*
X165433834Y-108749563D01*
X165456443Y-108755227D01*
X165478387Y-108763079D01*
X165499457Y-108773044D01*
X165519448Y-108785026D01*
X165538168Y-108798910D01*
X165555438Y-108814562D01*
X165571090Y-108831832D01*
X165584974Y-108850552D01*
X165596956Y-108870543D01*
X165606921Y-108891613D01*
X165614773Y-108913557D01*
X165620437Y-108936166D01*
X165623856Y-108959221D01*
X165625000Y-108982500D01*
X165625000Y-109457500D01*
X165623856Y-109480779D01*
X165620437Y-109503834D01*
X165614773Y-109526443D01*
X165606921Y-109548387D01*
X165596956Y-109569457D01*
X165584974Y-109589448D01*
X165571090Y-109608168D01*
X165555438Y-109625438D01*
X165538168Y-109641090D01*
X165519448Y-109654974D01*
X165499457Y-109666956D01*
X165478387Y-109676921D01*
X165456443Y-109684773D01*
X165433834Y-109690437D01*
X165410779Y-109693856D01*
X165387500Y-109695000D01*
X164812500Y-109695000D01*
X164789221Y-109693856D01*
X164766166Y-109690437D01*
X164743557Y-109684773D01*
X164721613Y-109676921D01*
X164700543Y-109666956D01*
X164680552Y-109654974D01*
X164661832Y-109641090D01*
X164644562Y-109625438D01*
X164628910Y-109608168D01*
X164615026Y-109589448D01*
X164603044Y-109569457D01*
X164593079Y-109548387D01*
X164585227Y-109526443D01*
X164579563Y-109503834D01*
X164576144Y-109480779D01*
X164575000Y-109457500D01*
X164575000Y-108982500D01*
X164576144Y-108959221D01*
X164579563Y-108936166D01*
X164585227Y-108913557D01*
X164593079Y-108891613D01*
X164603044Y-108870543D01*
X164615026Y-108850552D01*
X164628910Y-108831832D01*
X164644562Y-108814562D01*
X164661832Y-108798910D01*
X164680552Y-108785026D01*
X164700543Y-108773044D01*
X164721613Y-108763079D01*
X164743557Y-108755227D01*
X164766166Y-108749563D01*
X164789221Y-108746144D01*
X164812500Y-108745000D01*
X165387500Y-108745000D01*
X165410779Y-108746144D01*
X165410779Y-108746144D01*
G37*
D13*
G04 #@! TD*
G04 #@! TO.P,C6,2*
G04 #@! TO.N,GND*
X165100000Y-109220000D03*
D12*
G04 #@! TO.N,+5V*
G04 #@! TO.C,C6*
G36*
X163660779Y-108746144D02*
X163683834Y-108749563D01*
X163706443Y-108755227D01*
X163728387Y-108763079D01*
X163749457Y-108773044D01*
X163769448Y-108785026D01*
X163788168Y-108798910D01*
X163805438Y-108814562D01*
X163821090Y-108831832D01*
X163834974Y-108850552D01*
X163846956Y-108870543D01*
X163856921Y-108891613D01*
X163864773Y-108913557D01*
X163870437Y-108936166D01*
X163873856Y-108959221D01*
X163875000Y-108982500D01*
X163875000Y-109457500D01*
X163873856Y-109480779D01*
X163870437Y-109503834D01*
X163864773Y-109526443D01*
X163856921Y-109548387D01*
X163846956Y-109569457D01*
X163834974Y-109589448D01*
X163821090Y-109608168D01*
X163805438Y-109625438D01*
X163788168Y-109641090D01*
X163769448Y-109654974D01*
X163749457Y-109666956D01*
X163728387Y-109676921D01*
X163706443Y-109684773D01*
X163683834Y-109690437D01*
X163660779Y-109693856D01*
X163637500Y-109695000D01*
X163062500Y-109695000D01*
X163039221Y-109693856D01*
X163016166Y-109690437D01*
X162993557Y-109684773D01*
X162971613Y-109676921D01*
X162950543Y-109666956D01*
X162930552Y-109654974D01*
X162911832Y-109641090D01*
X162894562Y-109625438D01*
X162878910Y-109608168D01*
X162865026Y-109589448D01*
X162853044Y-109569457D01*
X162843079Y-109548387D01*
X162835227Y-109526443D01*
X162829563Y-109503834D01*
X162826144Y-109480779D01*
X162825000Y-109457500D01*
X162825000Y-108982500D01*
X162826144Y-108959221D01*
X162829563Y-108936166D01*
X162835227Y-108913557D01*
X162843079Y-108891613D01*
X162853044Y-108870543D01*
X162865026Y-108850552D01*
X162878910Y-108831832D01*
X162894562Y-108814562D01*
X162911832Y-108798910D01*
X162930552Y-108785026D01*
X162950543Y-108773044D01*
X162971613Y-108763079D01*
X162993557Y-108755227D01*
X163016166Y-108749563D01*
X163039221Y-108746144D01*
X163062500Y-108745000D01*
X163637500Y-108745000D01*
X163660779Y-108746144D01*
X163660779Y-108746144D01*
G37*
D13*
G04 #@! TD*
G04 #@! TO.P,C6,1*
G04 #@! TO.N,+5V*
X163350000Y-109220000D03*
D14*
G04 #@! TO.P,Conn1,1*
G04 #@! TO.N,GND*
X174218600Y-105663000D03*
G04 #@! TO.P,Conn1,2*
G04 #@! TO.N,/+12V*
X174218600Y-113664000D03*
G04 #@! TD*
D10*
G04 #@! TO.P,Conn3,5*
G04 #@! TO.N,RX_2_SL*
X175260000Y-58420000D03*
G04 #@! TO.P,Conn3,4*
G04 #@! TO.N,TX_2_SL*
X172720000Y-58420000D03*
G04 #@! TO.P,Conn3,3*
G04 #@! TO.N,GND*
X170180000Y-58420000D03*
G04 #@! TO.P,Conn3,2*
G04 #@! TO.N,Net-(Conn3-Pad2)*
X167640000Y-58420000D03*
G04 #@! TO.P,Conn3,1*
G04 #@! TO.N,Net-(Conn3-Pad1)*
X165100000Y-58420000D03*
G04 #@! TD*
D15*
G04 #@! TO.P,U2,1*
G04 #@! TO.N,Net-(C4-Pad1)*
X150020000Y-95885000D03*
G04 #@! TO.P,U2,2*
G04 #@! TO.N,Net-(C1-Pad1)*
X150020000Y-94615000D03*
G04 #@! TO.P,U2,3*
G04 #@! TO.N,Net-(C4-Pad2)*
X150020000Y-93345000D03*
G04 #@! TO.P,U2,4*
G04 #@! TO.N,Net-(C5-Pad1)*
X150020000Y-92075000D03*
G04 #@! TO.P,U2,5*
G04 #@! TO.N,Net-(C5-Pad2)*
X150020000Y-90805000D03*
G04 #@! TO.P,U2,6*
G04 #@! TO.N,Net-(C2-Pad1)*
X150020000Y-89535000D03*
G04 #@! TO.P,U2,7*
G04 #@! TO.N,TX_2_SL*
X150020000Y-88265000D03*
G04 #@! TO.P,U2,8*
G04 #@! TO.N,RX_2_SL*
X150020000Y-86995000D03*
G04 #@! TO.P,U2,9*
G04 #@! TO.N,RX_2_IC*
X144620000Y-86995000D03*
G04 #@! TO.P,U2,10*
G04 #@! TO.N,TX_2_IC*
X144620000Y-88265000D03*
G04 #@! TO.P,U2,11*
G04 #@! TO.N,TX_1_IC*
X144620000Y-89535000D03*
G04 #@! TO.P,U2,12*
G04 #@! TO.N,RX_1_IC*
X144620000Y-90805000D03*
G04 #@! TO.P,U2,13*
G04 #@! TO.N,RX_1_SL*
X144620000Y-92075000D03*
G04 #@! TO.P,U2,14*
G04 #@! TO.N,TX_1_SL*
X144620000Y-93345000D03*
G04 #@! TO.P,U2,15*
G04 #@! TO.N,GND*
X144620000Y-94615000D03*
G04 #@! TO.P,U2,16*
G04 #@! TO.N,+5V*
X144620000Y-95885000D03*
G04 #@! TD*
D10*
G04 #@! TO.P,U3,1*
G04 #@! TO.N,/+12V*
X158750000Y-104140000D03*
G04 #@! TO.P,U3,2*
G04 #@! TO.N,GND*
X158750000Y-106680000D03*
G04 #@! TO.P,U3,3*
G04 #@! TO.N,+5V*
X158750000Y-109220000D03*
G04 #@! TD*
D16*
G04 #@! TO.N,Net-(C2-Pad1)*
X152400000Y-86204500D03*
X151383034Y-89455029D03*
G04 #@! TO.N,Net-(C4-Pad1)*
X153670000Y-95405500D03*
X154940000Y-92710000D03*
G04 #@! TO.N,Net-(C5-Pad1)*
X154940000Y-90170000D03*
X151018325Y-92359739D03*
G04 #@! TO.N,TX_1_SL*
X190500000Y-83820000D03*
X138430000Y-85090000D03*
G04 #@! TO.N,RX_1_SL*
X191770000Y-82550000D03*
X138430000Y-88900000D03*
G04 #@! TO.N,RX_2_SL*
X173990000Y-86360000D03*
X162560000Y-86360000D03*
G04 #@! TO.N,TX_2_SL*
X171450000Y-88900000D03*
X166370000Y-88900000D03*
G04 #@! TO.N,RX_2_IC*
X142240000Y-99060000D03*
X140968282Y-88898282D03*
G04 #@! TO.N,TX_2_IC*
X149860000Y-109220000D03*
X143470369Y-88600938D03*
G04 #@! TO.N,RX_1_IC*
X142240000Y-97790000D03*
X142240000Y-90170000D03*
G04 #@! TO.N,TX_1_IC*
X142240000Y-111760000D03*
X139700000Y-91284500D03*
G04 #@! TD*
D17*
G04 #@! TO.N,Net-(C1-Pad1)*
X150470000Y-94615000D02*
X150020000Y-94615000D01*
X155575000Y-94615000D02*
X150020000Y-94615000D01*
X156210000Y-95250000D02*
X155575000Y-94615000D01*
X156210000Y-96520000D02*
X156210000Y-95250000D01*
X154535510Y-98194490D02*
X156210000Y-96520000D01*
X146445000Y-99060000D02*
X147310510Y-98194490D01*
X147310510Y-98194490D02*
X154535510Y-98194490D01*
G04 #@! TO.N,GND*
X176758599Y-97561401D02*
X177800000Y-96520000D01*
X174218600Y-105663000D02*
X176758599Y-103123001D01*
X176758599Y-103123001D02*
X176758599Y-97561401D01*
X185420000Y-96520000D02*
X187960000Y-93980000D01*
X177800000Y-96520000D02*
X185420000Y-96520000D01*
X187960000Y-93980000D02*
X187960000Y-58420000D01*
X174218600Y-105663000D02*
X170180000Y-101624400D01*
X170180000Y-101624400D02*
X170180000Y-58420000D01*
G04 #@! TO.N,Net-(C2-Pad1)*
X145570000Y-80010000D02*
X149380000Y-83820000D01*
X149380000Y-83820000D02*
X151130000Y-83820000D01*
X151130000Y-83820000D02*
X152400000Y-85090000D01*
X152400000Y-85090000D02*
X152400000Y-86204500D01*
X150099971Y-89455029D02*
X150020000Y-89535000D01*
X151383034Y-89455029D02*
X150099971Y-89455029D01*
G04 #@! TO.N,/+12V*
X163771858Y-104140000D02*
X158750000Y-104140000D01*
X166311858Y-106680000D02*
X163771858Y-104140000D01*
X174218600Y-113664000D02*
X167234600Y-106680000D01*
X167234600Y-106680000D02*
X166311858Y-106680000D01*
G04 #@! TO.N,Net-(C4-Pad1)*
X150020000Y-95885000D02*
X153190500Y-95885000D01*
X153190500Y-95885000D02*
X153670000Y-95405500D01*
X154940000Y-92710000D02*
X157000000Y-92710000D01*
G04 #@! TO.N,Net-(C4-Pad2)*
X151151000Y-93345000D02*
X150020000Y-93345000D01*
X153056000Y-91440000D02*
X151151000Y-93345000D01*
X157480000Y-91440000D02*
X153056000Y-91440000D01*
X158750000Y-92710000D02*
X157480000Y-91440000D01*
G04 #@! TO.N,Net-(C5-Pad2)*
X151151000Y-90805000D02*
X150020000Y-90805000D01*
X153056000Y-88900000D02*
X151151000Y-90805000D01*
X157480000Y-88900000D02*
X153056000Y-88900000D01*
X158750000Y-90170000D02*
X157480000Y-88900000D01*
G04 #@! TO.N,Net-(C5-Pad1)*
X157000000Y-90170000D02*
X154940000Y-90170000D01*
X150304739Y-92359739D02*
X150020000Y-92075000D01*
X151018325Y-92359739D02*
X150304739Y-92359739D01*
G04 #@! TO.N,+5V*
X141213002Y-95885000D02*
X144620000Y-95885000D01*
X137599001Y-114680001D02*
X137599001Y-96959001D01*
X137599001Y-96959001D02*
X138673002Y-95885000D01*
X163350000Y-109220000D02*
X158750000Y-109220000D01*
X138673002Y-95885000D02*
X141213002Y-95885000D01*
G04 #@! TO.N,TX_1_SL*
X190500000Y-58420000D02*
X190500000Y-83820000D01*
X138430000Y-85090000D02*
X137160000Y-86360000D01*
X137160000Y-86360000D02*
X137160000Y-92710000D01*
X141605000Y-93345000D02*
X144620000Y-93345000D01*
X138430000Y-92710000D02*
X139065000Y-93345000D01*
X137160000Y-92710000D02*
X138430000Y-92710000D01*
X139065000Y-93345000D02*
X141605000Y-93345000D01*
G04 #@! TO.N,RX_1_SL*
X193040000Y-58420000D02*
X193040000Y-81280000D01*
X193040000Y-81280000D02*
X191770000Y-82550000D01*
X144145000Y-92075000D02*
X144620000Y-92075000D01*
X138430000Y-88900000D02*
X138430000Y-91440000D01*
X141605000Y-92075000D02*
X144620000Y-92075000D01*
X138430000Y-91440000D02*
X139065000Y-92075000D01*
X139065000Y-92075000D02*
X141605000Y-92075000D01*
G04 #@! TO.N,RX_2_SL*
X175260000Y-58420000D02*
X175260000Y-85090000D01*
X175260000Y-85090000D02*
X173990000Y-86360000D01*
X162560000Y-86360000D02*
X161290000Y-86360000D01*
X161290000Y-86360000D02*
X160655000Y-86995000D01*
X150020000Y-86995000D02*
X160655000Y-86995000D01*
G04 #@! TO.N,TX_2_SL*
X172720000Y-58420000D02*
X172720000Y-87630000D01*
X172720000Y-87630000D02*
X171450000Y-88900000D01*
X166370000Y-88900000D02*
X165735000Y-88265000D01*
X165735000Y-88265000D02*
X150020000Y-88265000D01*
G04 #@! TO.N,RX_2_IC*
X147759001Y-114680001D02*
X147759001Y-104579001D01*
X147759001Y-104579001D02*
X142240000Y-99060000D01*
X142871564Y-86995000D02*
X144620000Y-86995000D01*
X140968282Y-88898282D02*
X142871564Y-86995000D01*
G04 #@! TO.N,TX_2_IC*
X150299001Y-114680001D02*
X150299001Y-109659001D01*
X150299001Y-109659001D02*
X149860000Y-109220000D01*
X144620000Y-88265000D02*
X143806307Y-88265000D01*
X143806307Y-88265000D02*
X143470369Y-88600938D01*
G04 #@! TO.N,RX_1_IC*
X142875000Y-90805000D02*
X144620000Y-90805000D01*
X142240000Y-90170000D02*
X142875000Y-90805000D01*
X141289502Y-98740498D02*
X142240000Y-97790000D01*
X142679001Y-117220001D02*
X141289502Y-115830502D01*
X141289502Y-115830502D02*
X141289502Y-98740498D01*
G04 #@! TO.N,TX_1_IC*
X144068500Y-113588500D02*
X142240000Y-111760000D01*
X145219001Y-117220001D02*
X144068500Y-116069500D01*
X144068500Y-116069500D02*
X144068500Y-113588500D01*
X143489000Y-89535000D02*
X144620000Y-89535000D01*
X143333499Y-89379499D02*
X143489000Y-89535000D01*
X141605001Y-89379499D02*
X143333499Y-89379499D01*
X139700000Y-91284500D02*
X141605001Y-89379499D01*
G04 #@! TD*
D18*
G36*
X197993000Y-144653000D02*
X136017000Y-144653000D01*
X136017000Y-114402518D01*
X136204001Y-114402518D01*
X136204001Y-114957484D01*
X136416377Y-115470205D01*
X136808797Y-115862625D01*
X137019741Y-115950001D01*
X136808797Y-116037377D01*
X136416377Y-116429797D01*
X136204001Y-116942518D01*
X136204001Y-117497484D01*
X136416377Y-118010205D01*
X136808797Y-118402625D01*
X137321518Y-118615001D01*
X137876484Y-118615001D01*
X138389205Y-118402625D01*
X138781625Y-118010205D01*
X138869001Y-117799261D01*
X138956377Y-118010205D01*
X139348797Y-118402625D01*
X139861518Y-118615001D01*
X140416484Y-118615001D01*
X140929205Y-118402625D01*
X141321625Y-118010205D01*
X141409001Y-117799261D01*
X141496377Y-118010205D01*
X141888797Y-118402625D01*
X142401518Y-118615001D01*
X142956484Y-118615001D01*
X143469205Y-118402625D01*
X143861625Y-118010205D01*
X143949001Y-117799261D01*
X144036377Y-118010205D01*
X144428797Y-118402625D01*
X144941518Y-118615001D01*
X145496484Y-118615001D01*
X146009205Y-118402625D01*
X146401625Y-118010205D01*
X146489001Y-117799261D01*
X146576377Y-118010205D01*
X146968797Y-118402625D01*
X147481518Y-118615001D01*
X148036484Y-118615001D01*
X148549205Y-118402625D01*
X148941625Y-118010205D01*
X149029001Y-117799261D01*
X149116377Y-118010205D01*
X149508797Y-118402625D01*
X150021518Y-118615001D01*
X150576484Y-118615001D01*
X151089205Y-118402625D01*
X151481625Y-118010205D01*
X151569001Y-117799261D01*
X151656377Y-118010205D01*
X152048797Y-118402625D01*
X152561518Y-118615001D01*
X153116484Y-118615001D01*
X153629205Y-118402625D01*
X154021625Y-118010205D01*
X154109001Y-117799261D01*
X154196377Y-118010205D01*
X154588797Y-118402625D01*
X155101518Y-118615001D01*
X155656484Y-118615001D01*
X156169205Y-118402625D01*
X156561625Y-118010205D01*
X156649001Y-117799261D01*
X156736377Y-118010205D01*
X157128797Y-118402625D01*
X157641518Y-118615001D01*
X158196484Y-118615001D01*
X158709205Y-118402625D01*
X159101625Y-118010205D01*
X159189001Y-117799261D01*
X159276377Y-118010205D01*
X159668797Y-118402625D01*
X160181518Y-118615001D01*
X160736484Y-118615001D01*
X161249205Y-118402625D01*
X161641625Y-118010205D01*
X161854001Y-117497484D01*
X161854001Y-116942518D01*
X161641625Y-116429797D01*
X161249205Y-116037377D01*
X161038261Y-115950001D01*
X161249205Y-115862625D01*
X161641625Y-115470205D01*
X161854001Y-114957484D01*
X161854001Y-114402518D01*
X161641625Y-113889797D01*
X161249205Y-113497377D01*
X160736484Y-113285001D01*
X160181518Y-113285001D01*
X159668797Y-113497377D01*
X159276377Y-113889797D01*
X159189001Y-114100741D01*
X159101625Y-113889797D01*
X158709205Y-113497377D01*
X158196484Y-113285001D01*
X157641518Y-113285001D01*
X157128797Y-113497377D01*
X156736377Y-113889797D01*
X156649001Y-114100741D01*
X156561625Y-113889797D01*
X156169205Y-113497377D01*
X155656484Y-113285001D01*
X155101518Y-113285001D01*
X154588797Y-113497377D01*
X154196377Y-113889797D01*
X154109001Y-114100741D01*
X154021625Y-113889797D01*
X153629205Y-113497377D01*
X153116484Y-113285001D01*
X152561518Y-113285001D01*
X152048797Y-113497377D01*
X151656377Y-113889797D01*
X151569001Y-114100741D01*
X151481625Y-113889797D01*
X151124501Y-113532673D01*
X151124501Y-109740298D01*
X151140672Y-109659000D01*
X151124501Y-109577702D01*
X151124501Y-109577698D01*
X151076605Y-109336907D01*
X150895000Y-109065117D01*
X150895000Y-109014126D01*
X150737431Y-108633720D01*
X150446280Y-108342569D01*
X150065874Y-108185000D01*
X149654126Y-108185000D01*
X149273720Y-108342569D01*
X148982569Y-108633720D01*
X148825000Y-109014126D01*
X148825000Y-109425874D01*
X148982569Y-109806280D01*
X149273720Y-110097431D01*
X149473502Y-110180183D01*
X149473501Y-113532673D01*
X149116377Y-113889797D01*
X149029001Y-114100741D01*
X148941625Y-113889797D01*
X148584501Y-113532673D01*
X148584501Y-104660298D01*
X148600672Y-104579000D01*
X148584501Y-104497702D01*
X148584501Y-104497698D01*
X148536605Y-104256907D01*
X148354153Y-103983849D01*
X148285227Y-103937794D01*
X148209552Y-103862119D01*
X157353000Y-103862119D01*
X157353000Y-104417881D01*
X157565680Y-104931337D01*
X157958663Y-105324320D01*
X158165513Y-105410000D01*
X157958663Y-105495680D01*
X157565680Y-105888663D01*
X157353000Y-106402119D01*
X157353000Y-106957881D01*
X157565680Y-107471337D01*
X157958663Y-107864320D01*
X158165513Y-107950000D01*
X157958663Y-108035680D01*
X157565680Y-108428663D01*
X157353000Y-108942119D01*
X157353000Y-109497881D01*
X157565680Y-110011337D01*
X157958663Y-110404320D01*
X158472119Y-110617000D01*
X159027881Y-110617000D01*
X159541337Y-110404320D01*
X159900157Y-110045500D01*
X162411531Y-110045500D01*
X162436753Y-110083247D01*
X162723848Y-110275078D01*
X163062500Y-110342440D01*
X163637500Y-110342440D01*
X163976152Y-110275078D01*
X164225000Y-110108803D01*
X164473848Y-110275078D01*
X164812500Y-110342440D01*
X165387500Y-110342440D01*
X165726152Y-110275078D01*
X166013247Y-110083247D01*
X166205078Y-109796152D01*
X166272440Y-109457500D01*
X166272440Y-108982500D01*
X166205078Y-108643848D01*
X166013247Y-108356753D01*
X165726152Y-108164922D01*
X165387500Y-108097560D01*
X164812500Y-108097560D01*
X164473848Y-108164922D01*
X164225000Y-108331197D01*
X163976152Y-108164922D01*
X163637500Y-108097560D01*
X163062500Y-108097560D01*
X162723848Y-108164922D01*
X162436753Y-108356753D01*
X162411531Y-108394500D01*
X159900157Y-108394500D01*
X159541337Y-108035680D01*
X159334487Y-107950000D01*
X159541337Y-107864320D01*
X159934320Y-107471337D01*
X160147000Y-106957881D01*
X160147000Y-106402119D01*
X159934320Y-105888663D01*
X159541337Y-105495680D01*
X159334487Y-105410000D01*
X159541337Y-105324320D01*
X159900157Y-104965500D01*
X162496531Y-104965500D01*
X162521753Y-105003247D01*
X162808848Y-105195078D01*
X163147500Y-105262440D01*
X163722500Y-105262440D01*
X163726141Y-105261716D01*
X165670653Y-107206229D01*
X165716706Y-107275152D01*
X165785629Y-107321205D01*
X165785630Y-107321206D01*
X165888189Y-107389733D01*
X165989764Y-107457604D01*
X166230555Y-107505500D01*
X166230559Y-107505500D01*
X166311857Y-107521671D01*
X166393155Y-107505500D01*
X166892668Y-107505500D01*
X171446627Y-112059460D01*
X171043600Y-113032453D01*
X171043600Y-114295547D01*
X171526965Y-115462493D01*
X172420107Y-116355635D01*
X173587053Y-116839000D01*
X174850147Y-116839000D01*
X176017093Y-116355635D01*
X176910235Y-115462493D01*
X177393600Y-114295547D01*
X177393600Y-113032453D01*
X176910235Y-111865507D01*
X176017093Y-110972365D01*
X174850147Y-110489000D01*
X173587053Y-110489000D01*
X172614060Y-110892027D01*
X167875809Y-106153777D01*
X167829752Y-106084848D01*
X167556694Y-105902396D01*
X167315903Y-105854500D01*
X167315901Y-105854500D01*
X167234600Y-105838328D01*
X167153299Y-105854500D01*
X166653792Y-105854500D01*
X165920983Y-105121691D01*
X166098247Y-105003247D01*
X166290078Y-104716152D01*
X166357440Y-104377500D01*
X166357440Y-103902500D01*
X166290078Y-103563848D01*
X166098247Y-103276753D01*
X165811152Y-103084922D01*
X165472500Y-103017560D01*
X164897500Y-103017560D01*
X164558848Y-103084922D01*
X164310000Y-103251197D01*
X164061152Y-103084922D01*
X163722500Y-103017560D01*
X163147500Y-103017560D01*
X162808848Y-103084922D01*
X162521753Y-103276753D01*
X162496531Y-103314500D01*
X159900157Y-103314500D01*
X159541337Y-102955680D01*
X159027881Y-102743000D01*
X158472119Y-102743000D01*
X157958663Y-102955680D01*
X157565680Y-103348663D01*
X157353000Y-103862119D01*
X148209552Y-103862119D01*
X143275000Y-98927568D01*
X143275000Y-98854126D01*
X143117431Y-98473720D01*
X143068711Y-98425000D01*
X143117431Y-98376280D01*
X143275000Y-97995874D01*
X143275000Y-97584126D01*
X143117431Y-97203720D01*
X142826280Y-96912569D01*
X142445874Y-96755000D01*
X142034126Y-96755000D01*
X141653720Y-96912569D01*
X141362569Y-97203720D01*
X141205000Y-97584126D01*
X141205000Y-97657567D01*
X140763277Y-98099291D01*
X140694351Y-98145346D01*
X140648296Y-98214272D01*
X140511899Y-98418404D01*
X140447830Y-98740498D01*
X140464003Y-98821804D01*
X140464002Y-113304684D01*
X140416484Y-113285001D01*
X139861518Y-113285001D01*
X139348797Y-113497377D01*
X138956377Y-113889797D01*
X138869001Y-114100741D01*
X138781625Y-113889797D01*
X138424501Y-113532673D01*
X138424501Y-97300933D01*
X139014935Y-96710500D01*
X143513497Y-96710500D01*
X143622235Y-96783157D01*
X143870000Y-96832440D01*
X145370000Y-96832440D01*
X145617765Y-96783157D01*
X145827809Y-96642809D01*
X145968157Y-96432765D01*
X146017440Y-96185000D01*
X146017440Y-95585000D01*
X145968157Y-95337235D01*
X145909868Y-95250000D01*
X145968157Y-95162765D01*
X146017440Y-94915000D01*
X146017440Y-94315000D01*
X145968157Y-94067235D01*
X145909868Y-93980000D01*
X145968157Y-93892765D01*
X146017440Y-93645000D01*
X146017440Y-93045000D01*
X145968157Y-92797235D01*
X145909868Y-92710000D01*
X145968157Y-92622765D01*
X146017440Y-92375000D01*
X146017440Y-91775000D01*
X145968157Y-91527235D01*
X145909868Y-91440000D01*
X145968157Y-91352765D01*
X146017440Y-91105000D01*
X146017440Y-90505000D01*
X145968157Y-90257235D01*
X145909868Y-90170000D01*
X145968157Y-90082765D01*
X146017440Y-89835000D01*
X146017440Y-89235000D01*
X145968157Y-88987235D01*
X145909868Y-88900000D01*
X145968157Y-88812765D01*
X146017440Y-88565000D01*
X146017440Y-87965000D01*
X145968157Y-87717235D01*
X145909868Y-87630000D01*
X145968157Y-87542765D01*
X146017440Y-87295000D01*
X146017440Y-86695000D01*
X145968157Y-86447235D01*
X145827809Y-86237191D01*
X145617765Y-86096843D01*
X145370000Y-86047560D01*
X143870000Y-86047560D01*
X143622235Y-86096843D01*
X143513497Y-86169500D01*
X142952861Y-86169500D01*
X142871563Y-86153329D01*
X142790265Y-86169500D01*
X142790261Y-86169500D01*
X142549470Y-86217396D01*
X142276412Y-86399848D01*
X142230357Y-86468774D01*
X140835850Y-87863282D01*
X140762408Y-87863282D01*
X140382002Y-88020851D01*
X140090851Y-88312002D01*
X139933282Y-88692408D01*
X139933282Y-89104156D01*
X140090851Y-89484562D01*
X140211678Y-89605389D01*
X139567568Y-90249500D01*
X139494126Y-90249500D01*
X139255500Y-90348342D01*
X139255500Y-89538211D01*
X139307431Y-89486280D01*
X139465000Y-89105874D01*
X139465000Y-88694126D01*
X139307431Y-88313720D01*
X139016280Y-88022569D01*
X138635874Y-87865000D01*
X138224126Y-87865000D01*
X137985500Y-87963842D01*
X137985500Y-86701932D01*
X138562433Y-86125000D01*
X138635874Y-86125000D01*
X139016280Y-85967431D01*
X139307431Y-85676280D01*
X139465000Y-85295874D01*
X139465000Y-84884126D01*
X139307431Y-84503720D01*
X139016280Y-84212569D01*
X138635874Y-84055000D01*
X138224126Y-84055000D01*
X137843720Y-84212569D01*
X137552569Y-84503720D01*
X137395000Y-84884126D01*
X137395000Y-84957567D01*
X136633777Y-85718791D01*
X136564848Y-85764848D01*
X136382396Y-86037907D01*
X136342756Y-86237191D01*
X136318328Y-86360000D01*
X136334500Y-86441302D01*
X136334501Y-92628692D01*
X136318328Y-92710000D01*
X136382396Y-93032094D01*
X136564848Y-93305152D01*
X136837906Y-93487604D01*
X137078697Y-93535500D01*
X137078698Y-93535500D01*
X137160000Y-93551672D01*
X137241303Y-93535500D01*
X138088068Y-93535500D01*
X138423793Y-93871226D01*
X138469848Y-93940152D01*
X138651163Y-94061303D01*
X138742906Y-94122604D01*
X139065000Y-94186672D01*
X139146303Y-94170500D01*
X143251303Y-94170500D01*
X143222560Y-94315000D01*
X143222560Y-94915000D01*
X143251303Y-95059500D01*
X138754305Y-95059500D01*
X138673002Y-95043328D01*
X138350907Y-95107396D01*
X138214691Y-95198414D01*
X138077850Y-95289848D01*
X138031795Y-95358774D01*
X137072776Y-96317794D01*
X137003850Y-96363849D01*
X136957795Y-96432775D01*
X136821398Y-96636907D01*
X136757329Y-96959001D01*
X136773502Y-97040307D01*
X136773501Y-113532673D01*
X136416377Y-113889797D01*
X136204001Y-114402518D01*
X136017000Y-114402518D01*
X136017000Y-79772500D01*
X144397560Y-79772500D01*
X144397560Y-80247500D01*
X144464922Y-80586152D01*
X144656753Y-80873247D01*
X144943848Y-81065078D01*
X145282500Y-81132440D01*
X145525008Y-81132440D01*
X148738793Y-84346226D01*
X148784848Y-84415152D01*
X149057906Y-84597604D01*
X149380000Y-84661672D01*
X149461303Y-84645500D01*
X150788068Y-84645500D01*
X151574500Y-85431933D01*
X151574500Y-85566289D01*
X151522569Y-85618220D01*
X151365000Y-85998626D01*
X151365000Y-86169500D01*
X151126503Y-86169500D01*
X151017765Y-86096843D01*
X150770000Y-86047560D01*
X149270000Y-86047560D01*
X149022235Y-86096843D01*
X148812191Y-86237191D01*
X148671843Y-86447235D01*
X148622560Y-86695000D01*
X148622560Y-87295000D01*
X148671843Y-87542765D01*
X148730132Y-87630000D01*
X148671843Y-87717235D01*
X148622560Y-87965000D01*
X148622560Y-88565000D01*
X148671843Y-88812765D01*
X148730132Y-88900000D01*
X148671843Y-88987235D01*
X148622560Y-89235000D01*
X148622560Y-89835000D01*
X148671843Y-90082765D01*
X148730132Y-90170000D01*
X148671843Y-90257235D01*
X148622560Y-90505000D01*
X148622560Y-91105000D01*
X148671843Y-91352765D01*
X148730132Y-91440000D01*
X148671843Y-91527235D01*
X148622560Y-91775000D01*
X148622560Y-92375000D01*
X148671843Y-92622765D01*
X148730132Y-92710000D01*
X148671843Y-92797235D01*
X148622560Y-93045000D01*
X148622560Y-93645000D01*
X148671843Y-93892765D01*
X148730132Y-93980000D01*
X148671843Y-94067235D01*
X148622560Y-94315000D01*
X148622560Y-94915000D01*
X148671843Y-95162765D01*
X148730132Y-95250000D01*
X148671843Y-95337235D01*
X148622560Y-95585000D01*
X148622560Y-96185000D01*
X148671843Y-96432765D01*
X148812191Y-96642809D01*
X149022235Y-96783157D01*
X149270000Y-96832440D01*
X150770000Y-96832440D01*
X151017765Y-96783157D01*
X151126503Y-96710500D01*
X153109199Y-96710500D01*
X153190500Y-96726672D01*
X153271801Y-96710500D01*
X153271803Y-96710500D01*
X153512594Y-96662604D01*
X153785652Y-96480152D01*
X153812147Y-96440500D01*
X153875874Y-96440500D01*
X154256280Y-96282931D01*
X154547431Y-95991780D01*
X154705000Y-95611374D01*
X154705000Y-95440500D01*
X155233068Y-95440500D01*
X155384501Y-95591933D01*
X155384500Y-96178066D01*
X154193578Y-97368990D01*
X147391811Y-97368990D01*
X147310510Y-97352818D01*
X147229208Y-97368990D01*
X147229207Y-97368990D01*
X146988416Y-97416886D01*
X146715358Y-97599338D01*
X146669303Y-97668264D01*
X146400007Y-97937560D01*
X146157500Y-97937560D01*
X145818848Y-98004922D01*
X145531753Y-98196753D01*
X145339922Y-98483848D01*
X145272560Y-98822500D01*
X145272560Y-99297500D01*
X145339922Y-99636152D01*
X145531753Y-99923247D01*
X145818848Y-100115078D01*
X146157500Y-100182440D01*
X146732500Y-100182440D01*
X147071152Y-100115078D01*
X147320000Y-99948803D01*
X147568848Y-100115078D01*
X147907500Y-100182440D01*
X148482500Y-100182440D01*
X148821152Y-100115078D01*
X149108247Y-99923247D01*
X149300078Y-99636152D01*
X149367440Y-99297500D01*
X149367440Y-99019990D01*
X154454209Y-99019990D01*
X154535510Y-99036162D01*
X154616811Y-99019990D01*
X154616813Y-99019990D01*
X154857604Y-98972094D01*
X155130662Y-98789642D01*
X155176719Y-98720713D01*
X156736229Y-97161205D01*
X156805152Y-97115152D01*
X156987604Y-96842094D01*
X157035500Y-96601303D01*
X157035500Y-96601299D01*
X157051671Y-96520001D01*
X157035500Y-96438703D01*
X157035500Y-95331303D01*
X157051672Y-95250000D01*
X157013780Y-95059500D01*
X156987604Y-94927906D01*
X156805152Y-94654848D01*
X156736226Y-94608793D01*
X156216209Y-94088777D01*
X156170152Y-94019848D01*
X155897094Y-93837396D01*
X155656303Y-93789500D01*
X155656301Y-93789500D01*
X155575000Y-93773328D01*
X155493699Y-93789500D01*
X151873932Y-93789500D01*
X153397933Y-92265500D01*
X154003842Y-92265500D01*
X153905000Y-92504126D01*
X153905000Y-92915874D01*
X154062569Y-93296280D01*
X154353720Y-93587431D01*
X154734126Y-93745000D01*
X155145874Y-93745000D01*
X155526280Y-93587431D01*
X155578211Y-93535500D01*
X156061531Y-93535500D01*
X156086753Y-93573247D01*
X156373848Y-93765078D01*
X156712500Y-93832440D01*
X157287500Y-93832440D01*
X157626152Y-93765078D01*
X157875000Y-93598803D01*
X158123848Y-93765078D01*
X158462500Y-93832440D01*
X159037500Y-93832440D01*
X159376152Y-93765078D01*
X159663247Y-93573247D01*
X159855078Y-93286152D01*
X159922440Y-92947500D01*
X159922440Y-92472500D01*
X159855078Y-92133848D01*
X159663247Y-91846753D01*
X159376152Y-91654922D01*
X159037500Y-91587560D01*
X158794993Y-91587560D01*
X158499872Y-91292440D01*
X159037500Y-91292440D01*
X159376152Y-91225078D01*
X159663247Y-91033247D01*
X159855078Y-90746152D01*
X159922440Y-90407500D01*
X159922440Y-89932500D01*
X159855078Y-89593848D01*
X159663247Y-89306753D01*
X159376152Y-89114922D01*
X159253374Y-89090500D01*
X165335000Y-89090500D01*
X165335000Y-89105874D01*
X165492569Y-89486280D01*
X165783720Y-89777431D01*
X166164126Y-89935000D01*
X166575874Y-89935000D01*
X166956280Y-89777431D01*
X167247431Y-89486280D01*
X167405000Y-89105874D01*
X167405000Y-88694126D01*
X167247431Y-88313720D01*
X166956280Y-88022569D01*
X166575874Y-87865000D01*
X166502432Y-87865000D01*
X166376209Y-87738777D01*
X166330152Y-87669848D01*
X166057094Y-87487396D01*
X165816303Y-87439500D01*
X165816301Y-87439500D01*
X165735000Y-87423328D01*
X165653699Y-87439500D01*
X161377932Y-87439500D01*
X161631933Y-87185500D01*
X161921789Y-87185500D01*
X161973720Y-87237431D01*
X162354126Y-87395000D01*
X162765874Y-87395000D01*
X163146280Y-87237431D01*
X163437431Y-86946280D01*
X163595000Y-86565874D01*
X163595000Y-86154126D01*
X163437431Y-85773720D01*
X163146280Y-85482569D01*
X162765874Y-85325000D01*
X162354126Y-85325000D01*
X161973720Y-85482569D01*
X161921789Y-85534500D01*
X161371303Y-85534500D01*
X161290000Y-85518328D01*
X161208697Y-85534500D01*
X160967906Y-85582396D01*
X160694848Y-85764848D01*
X160648793Y-85833774D01*
X160313068Y-86169500D01*
X153435000Y-86169500D01*
X153435000Y-85998626D01*
X153277431Y-85618220D01*
X153225500Y-85566289D01*
X153225500Y-85171297D01*
X153241671Y-85089999D01*
X153225500Y-85008701D01*
X153225500Y-85008697D01*
X153177604Y-84767906D01*
X152995152Y-84494848D01*
X152926226Y-84448793D01*
X151771209Y-83293777D01*
X151725152Y-83224848D01*
X151452094Y-83042396D01*
X151211303Y-82994500D01*
X151211301Y-82994500D01*
X151130000Y-82978328D01*
X151048699Y-82994500D01*
X149721933Y-82994500D01*
X147818001Y-81090569D01*
X147946152Y-81065078D01*
X148233247Y-80873247D01*
X148425078Y-80586152D01*
X148492440Y-80247500D01*
X148492440Y-79772500D01*
X148425078Y-79433848D01*
X148233247Y-79146753D01*
X147946152Y-78954922D01*
X147607500Y-78887560D01*
X147032500Y-78887560D01*
X146693848Y-78954922D01*
X146445000Y-79121197D01*
X146196152Y-78954922D01*
X145857500Y-78887560D01*
X145282500Y-78887560D01*
X144943848Y-78954922D01*
X144656753Y-79146753D01*
X144464922Y-79433848D01*
X144397560Y-79772500D01*
X136017000Y-79772500D01*
X136017000Y-71222518D01*
X136204001Y-71222518D01*
X136204001Y-71777484D01*
X136416377Y-72290205D01*
X136808797Y-72682625D01*
X137019741Y-72770001D01*
X136808797Y-72857377D01*
X136416377Y-73249797D01*
X136204001Y-73762518D01*
X136204001Y-74317484D01*
X136416377Y-74830205D01*
X136808797Y-75222625D01*
X137321518Y-75435001D01*
X137876484Y-75435001D01*
X138389205Y-75222625D01*
X138781625Y-74830205D01*
X138869001Y-74619261D01*
X138956377Y-74830205D01*
X139348797Y-75222625D01*
X139861518Y-75435001D01*
X140416484Y-75435001D01*
X140929205Y-75222625D01*
X141321625Y-74830205D01*
X141409001Y-74619261D01*
X141496377Y-74830205D01*
X141888797Y-75222625D01*
X142401518Y-75435001D01*
X142956484Y-75435001D01*
X143469205Y-75222625D01*
X143861625Y-74830205D01*
X143949001Y-74619261D01*
X144036377Y-74830205D01*
X144428797Y-75222625D01*
X144941518Y-75435001D01*
X145496484Y-75435001D01*
X146009205Y-75222625D01*
X146401625Y-74830205D01*
X146489001Y-74619261D01*
X146576377Y-74830205D01*
X146968797Y-75222625D01*
X147481518Y-75435001D01*
X148036484Y-75435001D01*
X148549205Y-75222625D01*
X148941625Y-74830205D01*
X149029001Y-74619261D01*
X149116377Y-74830205D01*
X149508797Y-75222625D01*
X150021518Y-75435001D01*
X150576484Y-75435001D01*
X151089205Y-75222625D01*
X151481625Y-74830205D01*
X151569001Y-74619261D01*
X151656377Y-74830205D01*
X152048797Y-75222625D01*
X152561518Y-75435001D01*
X153116484Y-75435001D01*
X153629205Y-75222625D01*
X154021625Y-74830205D01*
X154109001Y-74619261D01*
X154196377Y-74830205D01*
X154588797Y-75222625D01*
X155101518Y-75435001D01*
X155656484Y-75435001D01*
X156169205Y-75222625D01*
X156561625Y-74830205D01*
X156649001Y-74619261D01*
X156736377Y-74830205D01*
X157128797Y-75222625D01*
X157641518Y-75435001D01*
X158196484Y-75435001D01*
X158709205Y-75222625D01*
X159101625Y-74830205D01*
X159189001Y-74619261D01*
X159276377Y-74830205D01*
X159668797Y-75222625D01*
X160181518Y-75435001D01*
X160736484Y-75435001D01*
X161249205Y-75222625D01*
X161641625Y-74830205D01*
X161854001Y-74317484D01*
X161854001Y-73762518D01*
X161641625Y-73249797D01*
X161249205Y-72857377D01*
X161038261Y-72770001D01*
X161249205Y-72682625D01*
X161641625Y-72290205D01*
X161854001Y-71777484D01*
X161854001Y-71222518D01*
X161641625Y-70709797D01*
X161249205Y-70317377D01*
X160736484Y-70105001D01*
X160181518Y-70105001D01*
X159668797Y-70317377D01*
X159276377Y-70709797D01*
X159189001Y-70920741D01*
X159101625Y-70709797D01*
X158709205Y-70317377D01*
X158196484Y-70105001D01*
X157641518Y-70105001D01*
X157128797Y-70317377D01*
X156736377Y-70709797D01*
X156649001Y-70920741D01*
X156561625Y-70709797D01*
X156169205Y-70317377D01*
X155656484Y-70105001D01*
X155101518Y-70105001D01*
X154588797Y-70317377D01*
X154196377Y-70709797D01*
X154109001Y-70920741D01*
X154021625Y-70709797D01*
X153629205Y-70317377D01*
X153116484Y-70105001D01*
X152561518Y-70105001D01*
X152048797Y-70317377D01*
X151656377Y-70709797D01*
X151569001Y-70920741D01*
X151481625Y-70709797D01*
X151089205Y-70317377D01*
X150576484Y-70105001D01*
X150021518Y-70105001D01*
X149508797Y-70317377D01*
X149116377Y-70709797D01*
X149029001Y-70920741D01*
X148941625Y-70709797D01*
X148549205Y-70317377D01*
X148036484Y-70105001D01*
X147481518Y-70105001D01*
X146968797Y-70317377D01*
X146576377Y-70709797D01*
X146489001Y-70920741D01*
X146401625Y-70709797D01*
X146009205Y-70317377D01*
X145496484Y-70105001D01*
X144941518Y-70105001D01*
X144428797Y-70317377D01*
X144036377Y-70709797D01*
X143949001Y-70920741D01*
X143861625Y-70709797D01*
X143469205Y-70317377D01*
X142956484Y-70105001D01*
X142401518Y-70105001D01*
X141888797Y-70317377D01*
X141496377Y-70709797D01*
X141409001Y-70920741D01*
X141321625Y-70709797D01*
X140929205Y-70317377D01*
X140416484Y-70105001D01*
X139861518Y-70105001D01*
X139348797Y-70317377D01*
X138956377Y-70709797D01*
X138869001Y-70920741D01*
X138781625Y-70709797D01*
X138389205Y-70317377D01*
X137876484Y-70105001D01*
X137321518Y-70105001D01*
X136808797Y-70317377D01*
X136416377Y-70709797D01*
X136204001Y-71222518D01*
X136017000Y-71222518D01*
X136017000Y-58142119D01*
X163703000Y-58142119D01*
X163703000Y-58697881D01*
X163915680Y-59211337D01*
X164308663Y-59604320D01*
X164822119Y-59817000D01*
X165377881Y-59817000D01*
X165891337Y-59604320D01*
X166284320Y-59211337D01*
X166370000Y-59004487D01*
X166455680Y-59211337D01*
X166848663Y-59604320D01*
X167362119Y-59817000D01*
X167917881Y-59817000D01*
X168431337Y-59604320D01*
X168824320Y-59211337D01*
X168910000Y-59004487D01*
X168995680Y-59211337D01*
X169354501Y-59570158D01*
X169354500Y-101543099D01*
X169338328Y-101624400D01*
X169354500Y-101705701D01*
X169354500Y-101705702D01*
X169402396Y-101946493D01*
X169584848Y-102219552D01*
X169653777Y-102265609D01*
X171446627Y-104058460D01*
X171043600Y-105031453D01*
X171043600Y-106294547D01*
X171526965Y-107461493D01*
X172420107Y-108354635D01*
X173587053Y-108838000D01*
X174850147Y-108838000D01*
X176017093Y-108354635D01*
X176910235Y-107461493D01*
X177393600Y-106294547D01*
X177393600Y-105031453D01*
X176990573Y-104058460D01*
X177284825Y-103764208D01*
X177353751Y-103718153D01*
X177536203Y-103445095D01*
X177584099Y-103204304D01*
X177584099Y-103204303D01*
X177600271Y-103123002D01*
X177584099Y-103041700D01*
X177584099Y-97903334D01*
X178141933Y-97345500D01*
X185338699Y-97345500D01*
X185420000Y-97361672D01*
X185501301Y-97345500D01*
X185501303Y-97345500D01*
X185742094Y-97297604D01*
X186015152Y-97115152D01*
X186061209Y-97046223D01*
X188486229Y-94621205D01*
X188555152Y-94575152D01*
X188737604Y-94302094D01*
X188785500Y-94061303D01*
X188785500Y-94061299D01*
X188801671Y-93980001D01*
X188785500Y-93898703D01*
X188785500Y-59570157D01*
X189144320Y-59211337D01*
X189230000Y-59004487D01*
X189315680Y-59211337D01*
X189674500Y-59570157D01*
X189674501Y-83181788D01*
X189622569Y-83233720D01*
X189465000Y-83614126D01*
X189465000Y-84025874D01*
X189622569Y-84406280D01*
X189913720Y-84697431D01*
X190294126Y-84855000D01*
X190705874Y-84855000D01*
X191086280Y-84697431D01*
X191377431Y-84406280D01*
X191535000Y-84025874D01*
X191535000Y-83614126D01*
X191514405Y-83564405D01*
X191564126Y-83585000D01*
X191975874Y-83585000D01*
X192356280Y-83427431D01*
X192647431Y-83136280D01*
X192805000Y-82755874D01*
X192805000Y-82682432D01*
X193566226Y-81921207D01*
X193635152Y-81875152D01*
X193817604Y-81602094D01*
X193865500Y-81361303D01*
X193865500Y-81361299D01*
X193881671Y-81280001D01*
X193865500Y-81198703D01*
X193865500Y-59570157D01*
X194224320Y-59211337D01*
X194437000Y-58697881D01*
X194437000Y-58142119D01*
X194224320Y-57628663D01*
X193831337Y-57235680D01*
X193317881Y-57023000D01*
X192762119Y-57023000D01*
X192248663Y-57235680D01*
X191855680Y-57628663D01*
X191770000Y-57835513D01*
X191684320Y-57628663D01*
X191291337Y-57235680D01*
X190777881Y-57023000D01*
X190222119Y-57023000D01*
X189708663Y-57235680D01*
X189315680Y-57628663D01*
X189230000Y-57835513D01*
X189144320Y-57628663D01*
X188751337Y-57235680D01*
X188237881Y-57023000D01*
X187682119Y-57023000D01*
X187168663Y-57235680D01*
X186775680Y-57628663D01*
X186690000Y-57835513D01*
X186604320Y-57628663D01*
X186211337Y-57235680D01*
X185697881Y-57023000D01*
X185142119Y-57023000D01*
X184628663Y-57235680D01*
X184235680Y-57628663D01*
X184150000Y-57835513D01*
X184064320Y-57628663D01*
X183671337Y-57235680D01*
X183157881Y-57023000D01*
X182602119Y-57023000D01*
X182088663Y-57235680D01*
X181695680Y-57628663D01*
X181483000Y-58142119D01*
X181483000Y-58697881D01*
X181695680Y-59211337D01*
X182088663Y-59604320D01*
X182602119Y-59817000D01*
X183157881Y-59817000D01*
X183671337Y-59604320D01*
X184064320Y-59211337D01*
X184150000Y-59004487D01*
X184235680Y-59211337D01*
X184628663Y-59604320D01*
X185142119Y-59817000D01*
X185697881Y-59817000D01*
X186211337Y-59604320D01*
X186604320Y-59211337D01*
X186690000Y-59004487D01*
X186775680Y-59211337D01*
X187134501Y-59570158D01*
X187134500Y-93638066D01*
X185078068Y-95694500D01*
X177881297Y-95694500D01*
X177799999Y-95678329D01*
X177718701Y-95694500D01*
X177718697Y-95694500D01*
X177477906Y-95742396D01*
X177477904Y-95742397D01*
X177477905Y-95742397D01*
X177273772Y-95878794D01*
X177273771Y-95878795D01*
X177204848Y-95924848D01*
X177158795Y-95993772D01*
X176232373Y-96920194D01*
X176163448Y-96966249D01*
X176117393Y-97035175D01*
X175980996Y-97239307D01*
X175916927Y-97561401D01*
X175933100Y-97642707D01*
X175933099Y-102781068D01*
X175823140Y-102891027D01*
X174850147Y-102488000D01*
X173587053Y-102488000D01*
X172614060Y-102891027D01*
X171005500Y-101282468D01*
X171005500Y-89836158D01*
X171244126Y-89935000D01*
X171655874Y-89935000D01*
X172036280Y-89777431D01*
X172327431Y-89486280D01*
X172485000Y-89105874D01*
X172485000Y-89032432D01*
X173246226Y-88271207D01*
X173315152Y-88225152D01*
X173497604Y-87952094D01*
X173545500Y-87711303D01*
X173545500Y-87711299D01*
X173561671Y-87630001D01*
X173545500Y-87548703D01*
X173545500Y-87296158D01*
X173784126Y-87395000D01*
X174195874Y-87395000D01*
X174576280Y-87237431D01*
X174867431Y-86946280D01*
X175025000Y-86565874D01*
X175025000Y-86492432D01*
X175786227Y-85731206D01*
X175855152Y-85685152D01*
X176037604Y-85412094D01*
X176085500Y-85171303D01*
X176085500Y-85171299D01*
X176101671Y-85090001D01*
X176085500Y-85008703D01*
X176085500Y-59570157D01*
X176444320Y-59211337D01*
X176657000Y-58697881D01*
X176657000Y-58142119D01*
X176444320Y-57628663D01*
X176051337Y-57235680D01*
X175537881Y-57023000D01*
X174982119Y-57023000D01*
X174468663Y-57235680D01*
X174075680Y-57628663D01*
X173990000Y-57835513D01*
X173904320Y-57628663D01*
X173511337Y-57235680D01*
X172997881Y-57023000D01*
X172442119Y-57023000D01*
X171928663Y-57235680D01*
X171535680Y-57628663D01*
X171450000Y-57835513D01*
X171364320Y-57628663D01*
X170971337Y-57235680D01*
X170457881Y-57023000D01*
X169902119Y-57023000D01*
X169388663Y-57235680D01*
X168995680Y-57628663D01*
X168910000Y-57835513D01*
X168824320Y-57628663D01*
X168431337Y-57235680D01*
X167917881Y-57023000D01*
X167362119Y-57023000D01*
X166848663Y-57235680D01*
X166455680Y-57628663D01*
X166370000Y-57835513D01*
X166284320Y-57628663D01*
X165891337Y-57235680D01*
X165377881Y-57023000D01*
X164822119Y-57023000D01*
X164308663Y-57235680D01*
X163915680Y-57628663D01*
X163703000Y-58142119D01*
X136017000Y-58142119D01*
X136017000Y-49346550D01*
X161463864Y-49346550D01*
X161470000Y-49799907D01*
X161470000Y-50253433D01*
X161476346Y-50268753D01*
X161476570Y-50285330D01*
X161811380Y-51093632D01*
X161819969Y-51098332D01*
X161829289Y-51120833D01*
X162493167Y-51784711D01*
X162515668Y-51794031D01*
X162520368Y-51802620D01*
X162941562Y-51970442D01*
X163360567Y-52144000D01*
X163377150Y-52144000D01*
X163392550Y-52150136D01*
X163845907Y-52144000D01*
X164299433Y-52144000D01*
X164314753Y-52137654D01*
X164331330Y-52137430D01*
X165139632Y-51802620D01*
X165144332Y-51794031D01*
X165166833Y-51784711D01*
X165830711Y-51120833D01*
X165840031Y-51098332D01*
X165848620Y-51093632D01*
X166016442Y-50672438D01*
X166190000Y-50253433D01*
X166190000Y-50236850D01*
X166196136Y-50221450D01*
X166190000Y-49768093D01*
X166190000Y-49346550D01*
X174163864Y-49346550D01*
X174170000Y-49799907D01*
X174170000Y-50253433D01*
X174176346Y-50268753D01*
X174176570Y-50285330D01*
X174511380Y-51093632D01*
X174519969Y-51098332D01*
X174529289Y-51120833D01*
X175193167Y-51784711D01*
X175215668Y-51794031D01*
X175220368Y-51802620D01*
X175641562Y-51970442D01*
X176060567Y-52144000D01*
X176077150Y-52144000D01*
X176092550Y-52150136D01*
X176545907Y-52144000D01*
X176999433Y-52144000D01*
X177014753Y-52137654D01*
X177031330Y-52137430D01*
X177839632Y-51802620D01*
X177844332Y-51794031D01*
X177866833Y-51784711D01*
X178530711Y-51120833D01*
X178540031Y-51098332D01*
X178548620Y-51093632D01*
X178716442Y-50672438D01*
X178890000Y-50253433D01*
X178890000Y-50236850D01*
X178896136Y-50221450D01*
X178890000Y-49768093D01*
X178890000Y-49346550D01*
X179243864Y-49346550D01*
X179250000Y-49799907D01*
X179250000Y-50253433D01*
X179256346Y-50268753D01*
X179256570Y-50285330D01*
X179591380Y-51093632D01*
X179599969Y-51098332D01*
X179609289Y-51120833D01*
X180273167Y-51784711D01*
X180295668Y-51794031D01*
X180300368Y-51802620D01*
X180721562Y-51970442D01*
X181140567Y-52144000D01*
X181157150Y-52144000D01*
X181172550Y-52150136D01*
X181625907Y-52144000D01*
X182079433Y-52144000D01*
X182094753Y-52137654D01*
X182111330Y-52137430D01*
X182919632Y-51802620D01*
X182924332Y-51794031D01*
X182946833Y-51784711D01*
X183610711Y-51120833D01*
X183620031Y-51098332D01*
X183628620Y-51093632D01*
X183796442Y-50672438D01*
X183970000Y-50253433D01*
X183970000Y-50236850D01*
X183976136Y-50221450D01*
X183970000Y-49768093D01*
X183970000Y-49346550D01*
X191943864Y-49346550D01*
X191950000Y-49799907D01*
X191950000Y-50253433D01*
X191956346Y-50268753D01*
X191956570Y-50285330D01*
X192291380Y-51093632D01*
X192299969Y-51098332D01*
X192309289Y-51120833D01*
X192973167Y-51784711D01*
X192995668Y-51794031D01*
X193000368Y-51802620D01*
X193421562Y-51970442D01*
X193840567Y-52144000D01*
X193857150Y-52144000D01*
X193872550Y-52150136D01*
X194325907Y-52144000D01*
X194779433Y-52144000D01*
X194794753Y-52137654D01*
X194811330Y-52137430D01*
X195619632Y-51802620D01*
X195624332Y-51794031D01*
X195646833Y-51784711D01*
X196310711Y-51120833D01*
X196320031Y-51098332D01*
X196328620Y-51093632D01*
X196496442Y-50672438D01*
X196670000Y-50253433D01*
X196670000Y-50236850D01*
X196676136Y-50221450D01*
X196670000Y-49768093D01*
X196670000Y-49314567D01*
X196663654Y-49299247D01*
X196663430Y-49282670D01*
X196328620Y-48474368D01*
X196320031Y-48469668D01*
X196310711Y-48447167D01*
X195646833Y-47783289D01*
X195624332Y-47773969D01*
X195619632Y-47765380D01*
X195198438Y-47597558D01*
X194779433Y-47424000D01*
X194762850Y-47424000D01*
X194747450Y-47417864D01*
X194294093Y-47424000D01*
X193840567Y-47424000D01*
X193825247Y-47430346D01*
X193808670Y-47430570D01*
X193000368Y-47765380D01*
X192995668Y-47773969D01*
X192973167Y-47783289D01*
X192309289Y-48447167D01*
X192299969Y-48469668D01*
X192291380Y-48474368D01*
X192123558Y-48895562D01*
X191950000Y-49314567D01*
X191950000Y-49331150D01*
X191943864Y-49346550D01*
X183970000Y-49346550D01*
X183970000Y-49314567D01*
X183963654Y-49299247D01*
X183963430Y-49282670D01*
X183628620Y-48474368D01*
X183620031Y-48469668D01*
X183610711Y-48447167D01*
X182946833Y-47783289D01*
X182924332Y-47773969D01*
X182919632Y-47765380D01*
X182498438Y-47597558D01*
X182079433Y-47424000D01*
X182062850Y-47424000D01*
X182047450Y-47417864D01*
X181594093Y-47424000D01*
X181140567Y-47424000D01*
X181125247Y-47430346D01*
X181108670Y-47430570D01*
X180300368Y-47765380D01*
X180295668Y-47773969D01*
X180273167Y-47783289D01*
X179609289Y-48447167D01*
X179599969Y-48469668D01*
X179591380Y-48474368D01*
X179423558Y-48895562D01*
X179250000Y-49314567D01*
X179250000Y-49331150D01*
X179243864Y-49346550D01*
X178890000Y-49346550D01*
X178890000Y-49314567D01*
X178883654Y-49299247D01*
X178883430Y-49282670D01*
X178548620Y-48474368D01*
X178540031Y-48469668D01*
X178530711Y-48447167D01*
X177866833Y-47783289D01*
X177844332Y-47773969D01*
X177839632Y-47765380D01*
X177418438Y-47597558D01*
X176999433Y-47424000D01*
X176982850Y-47424000D01*
X176967450Y-47417864D01*
X176514093Y-47424000D01*
X176060567Y-47424000D01*
X176045247Y-47430346D01*
X176028670Y-47430570D01*
X175220368Y-47765380D01*
X175215668Y-47773969D01*
X175193167Y-47783289D01*
X174529289Y-48447167D01*
X174519969Y-48469668D01*
X174511380Y-48474368D01*
X174343558Y-48895562D01*
X174170000Y-49314567D01*
X174170000Y-49331150D01*
X174163864Y-49346550D01*
X166190000Y-49346550D01*
X166190000Y-49314567D01*
X166183654Y-49299247D01*
X166183430Y-49282670D01*
X165848620Y-48474368D01*
X165840031Y-48469668D01*
X165830711Y-48447167D01*
X165166833Y-47783289D01*
X165144332Y-47773969D01*
X165139632Y-47765380D01*
X164718438Y-47597558D01*
X164299433Y-47424000D01*
X164282850Y-47424000D01*
X164267450Y-47417864D01*
X163814093Y-47424000D01*
X163360567Y-47424000D01*
X163345247Y-47430346D01*
X163328670Y-47430570D01*
X162520368Y-47765380D01*
X162515668Y-47773969D01*
X162493167Y-47783289D01*
X161829289Y-48447167D01*
X161819969Y-48469668D01*
X161811380Y-48474368D01*
X161643558Y-48895562D01*
X161470000Y-49314567D01*
X161470000Y-49331150D01*
X161463864Y-49346550D01*
X136017000Y-49346550D01*
X136017000Y-43307000D01*
X197993000Y-43307000D01*
X197993000Y-144653000D01*
X197993000Y-144653000D01*
G37*
X197993000Y-144653000D02*
X136017000Y-144653000D01*
X136017000Y-114402518D01*
X136204001Y-114402518D01*
X136204001Y-114957484D01*
X136416377Y-115470205D01*
X136808797Y-115862625D01*
X137019741Y-115950001D01*
X136808797Y-116037377D01*
X136416377Y-116429797D01*
X136204001Y-116942518D01*
X136204001Y-117497484D01*
X136416377Y-118010205D01*
X136808797Y-118402625D01*
X137321518Y-118615001D01*
X137876484Y-118615001D01*
X138389205Y-118402625D01*
X138781625Y-118010205D01*
X138869001Y-117799261D01*
X138956377Y-118010205D01*
X139348797Y-118402625D01*
X139861518Y-118615001D01*
X140416484Y-118615001D01*
X140929205Y-118402625D01*
X141321625Y-118010205D01*
X141409001Y-117799261D01*
X141496377Y-118010205D01*
X141888797Y-118402625D01*
X142401518Y-118615001D01*
X142956484Y-118615001D01*
X143469205Y-118402625D01*
X143861625Y-118010205D01*
X143949001Y-117799261D01*
X144036377Y-118010205D01*
X144428797Y-118402625D01*
X144941518Y-118615001D01*
X145496484Y-118615001D01*
X146009205Y-118402625D01*
X146401625Y-118010205D01*
X146489001Y-117799261D01*
X146576377Y-118010205D01*
X146968797Y-118402625D01*
X147481518Y-118615001D01*
X148036484Y-118615001D01*
X148549205Y-118402625D01*
X148941625Y-118010205D01*
X149029001Y-117799261D01*
X149116377Y-118010205D01*
X149508797Y-118402625D01*
X150021518Y-118615001D01*
X150576484Y-118615001D01*
X151089205Y-118402625D01*
X151481625Y-118010205D01*
X151569001Y-117799261D01*
X151656377Y-118010205D01*
X152048797Y-118402625D01*
X152561518Y-118615001D01*
X153116484Y-118615001D01*
X153629205Y-118402625D01*
X154021625Y-118010205D01*
X154109001Y-117799261D01*
X154196377Y-118010205D01*
X154588797Y-118402625D01*
X155101518Y-118615001D01*
X155656484Y-118615001D01*
X156169205Y-118402625D01*
X156561625Y-118010205D01*
X156649001Y-117799261D01*
X156736377Y-118010205D01*
X157128797Y-118402625D01*
X157641518Y-118615001D01*
X158196484Y-118615001D01*
X158709205Y-118402625D01*
X159101625Y-118010205D01*
X159189001Y-117799261D01*
X159276377Y-118010205D01*
X159668797Y-118402625D01*
X160181518Y-118615001D01*
X160736484Y-118615001D01*
X161249205Y-118402625D01*
X161641625Y-118010205D01*
X161854001Y-117497484D01*
X161854001Y-116942518D01*
X161641625Y-116429797D01*
X161249205Y-116037377D01*
X161038261Y-115950001D01*
X161249205Y-115862625D01*
X161641625Y-115470205D01*
X161854001Y-114957484D01*
X161854001Y-114402518D01*
X161641625Y-113889797D01*
X161249205Y-113497377D01*
X160736484Y-113285001D01*
X160181518Y-113285001D01*
X159668797Y-113497377D01*
X159276377Y-113889797D01*
X159189001Y-114100741D01*
X159101625Y-113889797D01*
X158709205Y-113497377D01*
X158196484Y-113285001D01*
X157641518Y-113285001D01*
X157128797Y-113497377D01*
X156736377Y-113889797D01*
X156649001Y-114100741D01*
X156561625Y-113889797D01*
X156169205Y-113497377D01*
X155656484Y-113285001D01*
X155101518Y-113285001D01*
X154588797Y-113497377D01*
X154196377Y-113889797D01*
X154109001Y-114100741D01*
X154021625Y-113889797D01*
X153629205Y-113497377D01*
X153116484Y-113285001D01*
X152561518Y-113285001D01*
X152048797Y-113497377D01*
X151656377Y-113889797D01*
X151569001Y-114100741D01*
X151481625Y-113889797D01*
X151124501Y-113532673D01*
X151124501Y-109740298D01*
X151140672Y-109659000D01*
X151124501Y-109577702D01*
X151124501Y-109577698D01*
X151076605Y-109336907D01*
X150895000Y-109065117D01*
X150895000Y-109014126D01*
X150737431Y-108633720D01*
X150446280Y-108342569D01*
X150065874Y-108185000D01*
X149654126Y-108185000D01*
X149273720Y-108342569D01*
X148982569Y-108633720D01*
X148825000Y-109014126D01*
X148825000Y-109425874D01*
X148982569Y-109806280D01*
X149273720Y-110097431D01*
X149473502Y-110180183D01*
X149473501Y-113532673D01*
X149116377Y-113889797D01*
X149029001Y-114100741D01*
X148941625Y-113889797D01*
X148584501Y-113532673D01*
X148584501Y-104660298D01*
X148600672Y-104579000D01*
X148584501Y-104497702D01*
X148584501Y-104497698D01*
X148536605Y-104256907D01*
X148354153Y-103983849D01*
X148285227Y-103937794D01*
X148209552Y-103862119D01*
X157353000Y-103862119D01*
X157353000Y-104417881D01*
X157565680Y-104931337D01*
X157958663Y-105324320D01*
X158165513Y-105410000D01*
X157958663Y-105495680D01*
X157565680Y-105888663D01*
X157353000Y-106402119D01*
X157353000Y-106957881D01*
X157565680Y-107471337D01*
X157958663Y-107864320D01*
X158165513Y-107950000D01*
X157958663Y-108035680D01*
X157565680Y-108428663D01*
X157353000Y-108942119D01*
X157353000Y-109497881D01*
X157565680Y-110011337D01*
X157958663Y-110404320D01*
X158472119Y-110617000D01*
X159027881Y-110617000D01*
X159541337Y-110404320D01*
X159900157Y-110045500D01*
X162411531Y-110045500D01*
X162436753Y-110083247D01*
X162723848Y-110275078D01*
X163062500Y-110342440D01*
X163637500Y-110342440D01*
X163976152Y-110275078D01*
X164225000Y-110108803D01*
X164473848Y-110275078D01*
X164812500Y-110342440D01*
X165387500Y-110342440D01*
X165726152Y-110275078D01*
X166013247Y-110083247D01*
X166205078Y-109796152D01*
X166272440Y-109457500D01*
X166272440Y-108982500D01*
X166205078Y-108643848D01*
X166013247Y-108356753D01*
X165726152Y-108164922D01*
X165387500Y-108097560D01*
X164812500Y-108097560D01*
X164473848Y-108164922D01*
X164225000Y-108331197D01*
X163976152Y-108164922D01*
X163637500Y-108097560D01*
X163062500Y-108097560D01*
X162723848Y-108164922D01*
X162436753Y-108356753D01*
X162411531Y-108394500D01*
X159900157Y-108394500D01*
X159541337Y-108035680D01*
X159334487Y-107950000D01*
X159541337Y-107864320D01*
X159934320Y-107471337D01*
X160147000Y-106957881D01*
X160147000Y-106402119D01*
X159934320Y-105888663D01*
X159541337Y-105495680D01*
X159334487Y-105410000D01*
X159541337Y-105324320D01*
X159900157Y-104965500D01*
X162496531Y-104965500D01*
X162521753Y-105003247D01*
X162808848Y-105195078D01*
X163147500Y-105262440D01*
X163722500Y-105262440D01*
X163726141Y-105261716D01*
X165670653Y-107206229D01*
X165716706Y-107275152D01*
X165785629Y-107321205D01*
X165785630Y-107321206D01*
X165888189Y-107389733D01*
X165989764Y-107457604D01*
X166230555Y-107505500D01*
X166230559Y-107505500D01*
X166311857Y-107521671D01*
X166393155Y-107505500D01*
X166892668Y-107505500D01*
X171446627Y-112059460D01*
X171043600Y-113032453D01*
X171043600Y-114295547D01*
X171526965Y-115462493D01*
X172420107Y-116355635D01*
X173587053Y-116839000D01*
X174850147Y-116839000D01*
X176017093Y-116355635D01*
X176910235Y-115462493D01*
X177393600Y-114295547D01*
X177393600Y-113032453D01*
X176910235Y-111865507D01*
X176017093Y-110972365D01*
X174850147Y-110489000D01*
X173587053Y-110489000D01*
X172614060Y-110892027D01*
X167875809Y-106153777D01*
X167829752Y-106084848D01*
X167556694Y-105902396D01*
X167315903Y-105854500D01*
X167315901Y-105854500D01*
X167234600Y-105838328D01*
X167153299Y-105854500D01*
X166653792Y-105854500D01*
X165920983Y-105121691D01*
X166098247Y-105003247D01*
X166290078Y-104716152D01*
X166357440Y-104377500D01*
X166357440Y-103902500D01*
X166290078Y-103563848D01*
X166098247Y-103276753D01*
X165811152Y-103084922D01*
X165472500Y-103017560D01*
X164897500Y-103017560D01*
X164558848Y-103084922D01*
X164310000Y-103251197D01*
X164061152Y-103084922D01*
X163722500Y-103017560D01*
X163147500Y-103017560D01*
X162808848Y-103084922D01*
X162521753Y-103276753D01*
X162496531Y-103314500D01*
X159900157Y-103314500D01*
X159541337Y-102955680D01*
X159027881Y-102743000D01*
X158472119Y-102743000D01*
X157958663Y-102955680D01*
X157565680Y-103348663D01*
X157353000Y-103862119D01*
X148209552Y-103862119D01*
X143275000Y-98927568D01*
X143275000Y-98854126D01*
X143117431Y-98473720D01*
X143068711Y-98425000D01*
X143117431Y-98376280D01*
X143275000Y-97995874D01*
X143275000Y-97584126D01*
X143117431Y-97203720D01*
X142826280Y-96912569D01*
X142445874Y-96755000D01*
X142034126Y-96755000D01*
X141653720Y-96912569D01*
X141362569Y-97203720D01*
X141205000Y-97584126D01*
X141205000Y-97657567D01*
X140763277Y-98099291D01*
X140694351Y-98145346D01*
X140648296Y-98214272D01*
X140511899Y-98418404D01*
X140447830Y-98740498D01*
X140464003Y-98821804D01*
X140464002Y-113304684D01*
X140416484Y-113285001D01*
X139861518Y-113285001D01*
X139348797Y-113497377D01*
X138956377Y-113889797D01*
X138869001Y-114100741D01*
X138781625Y-113889797D01*
X138424501Y-113532673D01*
X138424501Y-97300933D01*
X139014935Y-96710500D01*
X143513497Y-96710500D01*
X143622235Y-96783157D01*
X143870000Y-96832440D01*
X145370000Y-96832440D01*
X145617765Y-96783157D01*
X145827809Y-96642809D01*
X145968157Y-96432765D01*
X146017440Y-96185000D01*
X146017440Y-95585000D01*
X145968157Y-95337235D01*
X145909868Y-95250000D01*
X145968157Y-95162765D01*
X146017440Y-94915000D01*
X146017440Y-94315000D01*
X145968157Y-94067235D01*
X145909868Y-93980000D01*
X145968157Y-93892765D01*
X146017440Y-93645000D01*
X146017440Y-93045000D01*
X145968157Y-92797235D01*
X145909868Y-92710000D01*
X145968157Y-92622765D01*
X146017440Y-92375000D01*
X146017440Y-91775000D01*
X145968157Y-91527235D01*
X145909868Y-91440000D01*
X145968157Y-91352765D01*
X146017440Y-91105000D01*
X146017440Y-90505000D01*
X145968157Y-90257235D01*
X145909868Y-90170000D01*
X145968157Y-90082765D01*
X146017440Y-89835000D01*
X146017440Y-89235000D01*
X145968157Y-88987235D01*
X145909868Y-88900000D01*
X145968157Y-88812765D01*
X146017440Y-88565000D01*
X146017440Y-87965000D01*
X145968157Y-87717235D01*
X145909868Y-87630000D01*
X145968157Y-87542765D01*
X146017440Y-87295000D01*
X146017440Y-86695000D01*
X145968157Y-86447235D01*
X145827809Y-86237191D01*
X145617765Y-86096843D01*
X145370000Y-86047560D01*
X143870000Y-86047560D01*
X143622235Y-86096843D01*
X143513497Y-86169500D01*
X142952861Y-86169500D01*
X142871563Y-86153329D01*
X142790265Y-86169500D01*
X142790261Y-86169500D01*
X142549470Y-86217396D01*
X142276412Y-86399848D01*
X142230357Y-86468774D01*
X140835850Y-87863282D01*
X140762408Y-87863282D01*
X140382002Y-88020851D01*
X140090851Y-88312002D01*
X139933282Y-88692408D01*
X139933282Y-89104156D01*
X140090851Y-89484562D01*
X140211678Y-89605389D01*
X139567568Y-90249500D01*
X139494126Y-90249500D01*
X139255500Y-90348342D01*
X139255500Y-89538211D01*
X139307431Y-89486280D01*
X139465000Y-89105874D01*
X139465000Y-88694126D01*
X139307431Y-88313720D01*
X139016280Y-88022569D01*
X138635874Y-87865000D01*
X138224126Y-87865000D01*
X137985500Y-87963842D01*
X137985500Y-86701932D01*
X138562433Y-86125000D01*
X138635874Y-86125000D01*
X139016280Y-85967431D01*
X139307431Y-85676280D01*
X139465000Y-85295874D01*
X139465000Y-84884126D01*
X139307431Y-84503720D01*
X139016280Y-84212569D01*
X138635874Y-84055000D01*
X138224126Y-84055000D01*
X137843720Y-84212569D01*
X137552569Y-84503720D01*
X137395000Y-84884126D01*
X137395000Y-84957567D01*
X136633777Y-85718791D01*
X136564848Y-85764848D01*
X136382396Y-86037907D01*
X136342756Y-86237191D01*
X136318328Y-86360000D01*
X136334500Y-86441302D01*
X136334501Y-92628692D01*
X136318328Y-92710000D01*
X136382396Y-93032094D01*
X136564848Y-93305152D01*
X136837906Y-93487604D01*
X137078697Y-93535500D01*
X137078698Y-93535500D01*
X137160000Y-93551672D01*
X137241303Y-93535500D01*
X138088068Y-93535500D01*
X138423793Y-93871226D01*
X138469848Y-93940152D01*
X138651163Y-94061303D01*
X138742906Y-94122604D01*
X139065000Y-94186672D01*
X139146303Y-94170500D01*
X143251303Y-94170500D01*
X143222560Y-94315000D01*
X143222560Y-94915000D01*
X143251303Y-95059500D01*
X138754305Y-95059500D01*
X138673002Y-95043328D01*
X138350907Y-95107396D01*
X138214691Y-95198414D01*
X138077850Y-95289848D01*
X138031795Y-95358774D01*
X137072776Y-96317794D01*
X137003850Y-96363849D01*
X136957795Y-96432775D01*
X136821398Y-96636907D01*
X136757329Y-96959001D01*
X136773502Y-97040307D01*
X136773501Y-113532673D01*
X136416377Y-113889797D01*
X136204001Y-114402518D01*
X136017000Y-114402518D01*
X136017000Y-79772500D01*
X144397560Y-79772500D01*
X144397560Y-80247500D01*
X144464922Y-80586152D01*
X144656753Y-80873247D01*
X144943848Y-81065078D01*
X145282500Y-81132440D01*
X145525008Y-81132440D01*
X148738793Y-84346226D01*
X148784848Y-84415152D01*
X149057906Y-84597604D01*
X149380000Y-84661672D01*
X149461303Y-84645500D01*
X150788068Y-84645500D01*
X151574500Y-85431933D01*
X151574500Y-85566289D01*
X151522569Y-85618220D01*
X151365000Y-85998626D01*
X151365000Y-86169500D01*
X151126503Y-86169500D01*
X151017765Y-86096843D01*
X150770000Y-86047560D01*
X149270000Y-86047560D01*
X149022235Y-86096843D01*
X148812191Y-86237191D01*
X148671843Y-86447235D01*
X148622560Y-86695000D01*
X148622560Y-87295000D01*
X148671843Y-87542765D01*
X148730132Y-87630000D01*
X148671843Y-87717235D01*
X148622560Y-87965000D01*
X148622560Y-88565000D01*
X148671843Y-88812765D01*
X148730132Y-88900000D01*
X148671843Y-88987235D01*
X148622560Y-89235000D01*
X148622560Y-89835000D01*
X148671843Y-90082765D01*
X148730132Y-90170000D01*
X148671843Y-90257235D01*
X148622560Y-90505000D01*
X148622560Y-91105000D01*
X148671843Y-91352765D01*
X148730132Y-91440000D01*
X148671843Y-91527235D01*
X148622560Y-91775000D01*
X148622560Y-92375000D01*
X148671843Y-92622765D01*
X148730132Y-92710000D01*
X148671843Y-92797235D01*
X148622560Y-93045000D01*
X148622560Y-93645000D01*
X148671843Y-93892765D01*
X148730132Y-93980000D01*
X148671843Y-94067235D01*
X148622560Y-94315000D01*
X148622560Y-94915000D01*
X148671843Y-95162765D01*
X148730132Y-95250000D01*
X148671843Y-95337235D01*
X148622560Y-95585000D01*
X148622560Y-96185000D01*
X148671843Y-96432765D01*
X148812191Y-96642809D01*
X149022235Y-96783157D01*
X149270000Y-96832440D01*
X150770000Y-96832440D01*
X151017765Y-96783157D01*
X151126503Y-96710500D01*
X153109199Y-96710500D01*
X153190500Y-96726672D01*
X153271801Y-96710500D01*
X153271803Y-96710500D01*
X153512594Y-96662604D01*
X153785652Y-96480152D01*
X153812147Y-96440500D01*
X153875874Y-96440500D01*
X154256280Y-96282931D01*
X154547431Y-95991780D01*
X154705000Y-95611374D01*
X154705000Y-95440500D01*
X155233068Y-95440500D01*
X155384501Y-95591933D01*
X155384500Y-96178066D01*
X154193578Y-97368990D01*
X147391811Y-97368990D01*
X147310510Y-97352818D01*
X147229208Y-97368990D01*
X147229207Y-97368990D01*
X146988416Y-97416886D01*
X146715358Y-97599338D01*
X146669303Y-97668264D01*
X146400007Y-97937560D01*
X146157500Y-97937560D01*
X145818848Y-98004922D01*
X145531753Y-98196753D01*
X145339922Y-98483848D01*
X145272560Y-98822500D01*
X145272560Y-99297500D01*
X145339922Y-99636152D01*
X145531753Y-99923247D01*
X145818848Y-100115078D01*
X146157500Y-100182440D01*
X146732500Y-100182440D01*
X147071152Y-100115078D01*
X147320000Y-99948803D01*
X147568848Y-100115078D01*
X147907500Y-100182440D01*
X148482500Y-100182440D01*
X148821152Y-100115078D01*
X149108247Y-99923247D01*
X149300078Y-99636152D01*
X149367440Y-99297500D01*
X149367440Y-99019990D01*
X154454209Y-99019990D01*
X154535510Y-99036162D01*
X154616811Y-99019990D01*
X154616813Y-99019990D01*
X154857604Y-98972094D01*
X155130662Y-98789642D01*
X155176719Y-98720713D01*
X156736229Y-97161205D01*
X156805152Y-97115152D01*
X156987604Y-96842094D01*
X157035500Y-96601303D01*
X157035500Y-96601299D01*
X157051671Y-96520001D01*
X157035500Y-96438703D01*
X157035500Y-95331303D01*
X157051672Y-95250000D01*
X157013780Y-95059500D01*
X156987604Y-94927906D01*
X156805152Y-94654848D01*
X156736226Y-94608793D01*
X156216209Y-94088777D01*
X156170152Y-94019848D01*
X155897094Y-93837396D01*
X155656303Y-93789500D01*
X155656301Y-93789500D01*
X155575000Y-93773328D01*
X155493699Y-93789500D01*
X151873932Y-93789500D01*
X153397933Y-92265500D01*
X154003842Y-92265500D01*
X153905000Y-92504126D01*
X153905000Y-92915874D01*
X154062569Y-93296280D01*
X154353720Y-93587431D01*
X154734126Y-93745000D01*
X155145874Y-93745000D01*
X155526280Y-93587431D01*
X155578211Y-93535500D01*
X156061531Y-93535500D01*
X156086753Y-93573247D01*
X156373848Y-93765078D01*
X156712500Y-93832440D01*
X157287500Y-93832440D01*
X157626152Y-93765078D01*
X157875000Y-93598803D01*
X158123848Y-93765078D01*
X158462500Y-93832440D01*
X159037500Y-93832440D01*
X159376152Y-93765078D01*
X159663247Y-93573247D01*
X159855078Y-93286152D01*
X159922440Y-92947500D01*
X159922440Y-92472500D01*
X159855078Y-92133848D01*
X159663247Y-91846753D01*
X159376152Y-91654922D01*
X159037500Y-91587560D01*
X158794993Y-91587560D01*
X158499872Y-91292440D01*
X159037500Y-91292440D01*
X159376152Y-91225078D01*
X159663247Y-91033247D01*
X159855078Y-90746152D01*
X159922440Y-90407500D01*
X159922440Y-89932500D01*
X159855078Y-89593848D01*
X159663247Y-89306753D01*
X159376152Y-89114922D01*
X159253374Y-89090500D01*
X165335000Y-89090500D01*
X165335000Y-89105874D01*
X165492569Y-89486280D01*
X165783720Y-89777431D01*
X166164126Y-89935000D01*
X166575874Y-89935000D01*
X166956280Y-89777431D01*
X167247431Y-89486280D01*
X167405000Y-89105874D01*
X167405000Y-88694126D01*
X167247431Y-88313720D01*
X166956280Y-88022569D01*
X166575874Y-87865000D01*
X166502432Y-87865000D01*
X166376209Y-87738777D01*
X166330152Y-87669848D01*
X166057094Y-87487396D01*
X165816303Y-87439500D01*
X165816301Y-87439500D01*
X165735000Y-87423328D01*
X165653699Y-87439500D01*
X161377932Y-87439500D01*
X161631933Y-87185500D01*
X161921789Y-87185500D01*
X161973720Y-87237431D01*
X162354126Y-87395000D01*
X162765874Y-87395000D01*
X163146280Y-87237431D01*
X163437431Y-86946280D01*
X163595000Y-86565874D01*
X163595000Y-86154126D01*
X163437431Y-85773720D01*
X163146280Y-85482569D01*
X162765874Y-85325000D01*
X162354126Y-85325000D01*
X161973720Y-85482569D01*
X161921789Y-85534500D01*
X161371303Y-85534500D01*
X161290000Y-85518328D01*
X161208697Y-85534500D01*
X160967906Y-85582396D01*
X160694848Y-85764848D01*
X160648793Y-85833774D01*
X160313068Y-86169500D01*
X153435000Y-86169500D01*
X153435000Y-85998626D01*
X153277431Y-85618220D01*
X153225500Y-85566289D01*
X153225500Y-85171297D01*
X153241671Y-85089999D01*
X153225500Y-85008701D01*
X153225500Y-85008697D01*
X153177604Y-84767906D01*
X152995152Y-84494848D01*
X152926226Y-84448793D01*
X151771209Y-83293777D01*
X151725152Y-83224848D01*
X151452094Y-83042396D01*
X151211303Y-82994500D01*
X151211301Y-82994500D01*
X151130000Y-82978328D01*
X151048699Y-82994500D01*
X149721933Y-82994500D01*
X147818001Y-81090569D01*
X147946152Y-81065078D01*
X148233247Y-80873247D01*
X148425078Y-80586152D01*
X148492440Y-80247500D01*
X148492440Y-79772500D01*
X148425078Y-79433848D01*
X148233247Y-79146753D01*
X147946152Y-78954922D01*
X147607500Y-78887560D01*
X147032500Y-78887560D01*
X146693848Y-78954922D01*
X146445000Y-79121197D01*
X146196152Y-78954922D01*
X145857500Y-78887560D01*
X145282500Y-78887560D01*
X144943848Y-78954922D01*
X144656753Y-79146753D01*
X144464922Y-79433848D01*
X144397560Y-79772500D01*
X136017000Y-79772500D01*
X136017000Y-71222518D01*
X136204001Y-71222518D01*
X136204001Y-71777484D01*
X136416377Y-72290205D01*
X136808797Y-72682625D01*
X137019741Y-72770001D01*
X136808797Y-72857377D01*
X136416377Y-73249797D01*
X136204001Y-73762518D01*
X136204001Y-74317484D01*
X136416377Y-74830205D01*
X136808797Y-75222625D01*
X137321518Y-75435001D01*
X137876484Y-75435001D01*
X138389205Y-75222625D01*
X138781625Y-74830205D01*
X138869001Y-74619261D01*
X138956377Y-74830205D01*
X139348797Y-75222625D01*
X139861518Y-75435001D01*
X140416484Y-75435001D01*
X140929205Y-75222625D01*
X141321625Y-74830205D01*
X141409001Y-74619261D01*
X141496377Y-74830205D01*
X141888797Y-75222625D01*
X142401518Y-75435001D01*
X142956484Y-75435001D01*
X143469205Y-75222625D01*
X143861625Y-74830205D01*
X143949001Y-74619261D01*
X144036377Y-74830205D01*
X144428797Y-75222625D01*
X144941518Y-75435001D01*
X145496484Y-75435001D01*
X146009205Y-75222625D01*
X146401625Y-74830205D01*
X146489001Y-74619261D01*
X146576377Y-74830205D01*
X146968797Y-75222625D01*
X147481518Y-75435001D01*
X148036484Y-75435001D01*
X148549205Y-75222625D01*
X148941625Y-74830205D01*
X149029001Y-74619261D01*
X149116377Y-74830205D01*
X149508797Y-75222625D01*
X150021518Y-75435001D01*
X150576484Y-75435001D01*
X151089205Y-75222625D01*
X151481625Y-74830205D01*
X151569001Y-74619261D01*
X151656377Y-74830205D01*
X152048797Y-75222625D01*
X152561518Y-75435001D01*
X153116484Y-75435001D01*
X153629205Y-75222625D01*
X154021625Y-74830205D01*
X154109001Y-74619261D01*
X154196377Y-74830205D01*
X154588797Y-75222625D01*
X155101518Y-75435001D01*
X155656484Y-75435001D01*
X156169205Y-75222625D01*
X156561625Y-74830205D01*
X156649001Y-74619261D01*
X156736377Y-74830205D01*
X157128797Y-75222625D01*
X157641518Y-75435001D01*
X158196484Y-75435001D01*
X158709205Y-75222625D01*
X159101625Y-74830205D01*
X159189001Y-74619261D01*
X159276377Y-74830205D01*
X159668797Y-75222625D01*
X160181518Y-75435001D01*
X160736484Y-75435001D01*
X161249205Y-75222625D01*
X161641625Y-74830205D01*
X161854001Y-74317484D01*
X161854001Y-73762518D01*
X161641625Y-73249797D01*
X161249205Y-72857377D01*
X161038261Y-72770001D01*
X161249205Y-72682625D01*
X161641625Y-72290205D01*
X161854001Y-71777484D01*
X161854001Y-71222518D01*
X161641625Y-70709797D01*
X161249205Y-70317377D01*
X160736484Y-70105001D01*
X160181518Y-70105001D01*
X159668797Y-70317377D01*
X159276377Y-70709797D01*
X159189001Y-70920741D01*
X159101625Y-70709797D01*
X158709205Y-70317377D01*
X158196484Y-70105001D01*
X157641518Y-70105001D01*
X157128797Y-70317377D01*
X156736377Y-70709797D01*
X156649001Y-70920741D01*
X156561625Y-70709797D01*
X156169205Y-70317377D01*
X155656484Y-70105001D01*
X155101518Y-70105001D01*
X154588797Y-70317377D01*
X154196377Y-70709797D01*
X154109001Y-70920741D01*
X154021625Y-70709797D01*
X153629205Y-70317377D01*
X153116484Y-70105001D01*
X152561518Y-70105001D01*
X152048797Y-70317377D01*
X151656377Y-70709797D01*
X151569001Y-70920741D01*
X151481625Y-70709797D01*
X151089205Y-70317377D01*
X150576484Y-70105001D01*
X150021518Y-70105001D01*
X149508797Y-70317377D01*
X149116377Y-70709797D01*
X149029001Y-70920741D01*
X148941625Y-70709797D01*
X148549205Y-70317377D01*
X148036484Y-70105001D01*
X147481518Y-70105001D01*
X146968797Y-70317377D01*
X146576377Y-70709797D01*
X146489001Y-70920741D01*
X146401625Y-70709797D01*
X146009205Y-70317377D01*
X145496484Y-70105001D01*
X144941518Y-70105001D01*
X144428797Y-70317377D01*
X144036377Y-70709797D01*
X143949001Y-70920741D01*
X143861625Y-70709797D01*
X143469205Y-70317377D01*
X142956484Y-70105001D01*
X142401518Y-70105001D01*
X141888797Y-70317377D01*
X141496377Y-70709797D01*
X141409001Y-70920741D01*
X141321625Y-70709797D01*
X140929205Y-70317377D01*
X140416484Y-70105001D01*
X139861518Y-70105001D01*
X139348797Y-70317377D01*
X138956377Y-70709797D01*
X138869001Y-70920741D01*
X138781625Y-70709797D01*
X138389205Y-70317377D01*
X137876484Y-70105001D01*
X137321518Y-70105001D01*
X136808797Y-70317377D01*
X136416377Y-70709797D01*
X136204001Y-71222518D01*
X136017000Y-71222518D01*
X136017000Y-58142119D01*
X163703000Y-58142119D01*
X163703000Y-58697881D01*
X163915680Y-59211337D01*
X164308663Y-59604320D01*
X164822119Y-59817000D01*
X165377881Y-59817000D01*
X165891337Y-59604320D01*
X166284320Y-59211337D01*
X166370000Y-59004487D01*
X166455680Y-59211337D01*
X166848663Y-59604320D01*
X167362119Y-59817000D01*
X167917881Y-59817000D01*
X168431337Y-59604320D01*
X168824320Y-59211337D01*
X168910000Y-59004487D01*
X168995680Y-59211337D01*
X169354501Y-59570158D01*
X169354500Y-101543099D01*
X169338328Y-101624400D01*
X169354500Y-101705701D01*
X169354500Y-101705702D01*
X169402396Y-101946493D01*
X169584848Y-102219552D01*
X169653777Y-102265609D01*
X171446627Y-104058460D01*
X171043600Y-105031453D01*
X171043600Y-106294547D01*
X171526965Y-107461493D01*
X172420107Y-108354635D01*
X173587053Y-108838000D01*
X174850147Y-108838000D01*
X176017093Y-108354635D01*
X176910235Y-107461493D01*
X177393600Y-106294547D01*
X177393600Y-105031453D01*
X176990573Y-104058460D01*
X177284825Y-103764208D01*
X177353751Y-103718153D01*
X177536203Y-103445095D01*
X177584099Y-103204304D01*
X177584099Y-103204303D01*
X177600271Y-103123002D01*
X177584099Y-103041700D01*
X177584099Y-97903334D01*
X178141933Y-97345500D01*
X185338699Y-97345500D01*
X185420000Y-97361672D01*
X185501301Y-97345500D01*
X185501303Y-97345500D01*
X185742094Y-97297604D01*
X186015152Y-97115152D01*
X186061209Y-97046223D01*
X188486229Y-94621205D01*
X188555152Y-94575152D01*
X188737604Y-94302094D01*
X188785500Y-94061303D01*
X188785500Y-94061299D01*
X188801671Y-93980001D01*
X188785500Y-93898703D01*
X188785500Y-59570157D01*
X189144320Y-59211337D01*
X189230000Y-59004487D01*
X189315680Y-59211337D01*
X189674500Y-59570157D01*
X189674501Y-83181788D01*
X189622569Y-83233720D01*
X189465000Y-83614126D01*
X189465000Y-84025874D01*
X189622569Y-84406280D01*
X189913720Y-84697431D01*
X190294126Y-84855000D01*
X190705874Y-84855000D01*
X191086280Y-84697431D01*
X191377431Y-84406280D01*
X191535000Y-84025874D01*
X191535000Y-83614126D01*
X191514405Y-83564405D01*
X191564126Y-83585000D01*
X191975874Y-83585000D01*
X192356280Y-83427431D01*
X192647431Y-83136280D01*
X192805000Y-82755874D01*
X192805000Y-82682432D01*
X193566226Y-81921207D01*
X193635152Y-81875152D01*
X193817604Y-81602094D01*
X193865500Y-81361303D01*
X193865500Y-81361299D01*
X193881671Y-81280001D01*
X193865500Y-81198703D01*
X193865500Y-59570157D01*
X194224320Y-59211337D01*
X194437000Y-58697881D01*
X194437000Y-58142119D01*
X194224320Y-57628663D01*
X193831337Y-57235680D01*
X193317881Y-57023000D01*
X192762119Y-57023000D01*
X192248663Y-57235680D01*
X191855680Y-57628663D01*
X191770000Y-57835513D01*
X191684320Y-57628663D01*
X191291337Y-57235680D01*
X190777881Y-57023000D01*
X190222119Y-57023000D01*
X189708663Y-57235680D01*
X189315680Y-57628663D01*
X189230000Y-57835513D01*
X189144320Y-57628663D01*
X188751337Y-57235680D01*
X188237881Y-57023000D01*
X187682119Y-57023000D01*
X187168663Y-57235680D01*
X186775680Y-57628663D01*
X186690000Y-57835513D01*
X186604320Y-57628663D01*
X186211337Y-57235680D01*
X185697881Y-57023000D01*
X185142119Y-57023000D01*
X184628663Y-57235680D01*
X184235680Y-57628663D01*
X184150000Y-57835513D01*
X184064320Y-57628663D01*
X183671337Y-57235680D01*
X183157881Y-57023000D01*
X182602119Y-57023000D01*
X182088663Y-57235680D01*
X181695680Y-57628663D01*
X181483000Y-58142119D01*
X181483000Y-58697881D01*
X181695680Y-59211337D01*
X182088663Y-59604320D01*
X182602119Y-59817000D01*
X183157881Y-59817000D01*
X183671337Y-59604320D01*
X184064320Y-59211337D01*
X184150000Y-59004487D01*
X184235680Y-59211337D01*
X184628663Y-59604320D01*
X185142119Y-59817000D01*
X185697881Y-59817000D01*
X186211337Y-59604320D01*
X186604320Y-59211337D01*
X186690000Y-59004487D01*
X186775680Y-59211337D01*
X187134501Y-59570158D01*
X187134500Y-93638066D01*
X185078068Y-95694500D01*
X177881297Y-95694500D01*
X177799999Y-95678329D01*
X177718701Y-95694500D01*
X177718697Y-95694500D01*
X177477906Y-95742396D01*
X177477904Y-95742397D01*
X177477905Y-95742397D01*
X177273772Y-95878794D01*
X177273771Y-95878795D01*
X177204848Y-95924848D01*
X177158795Y-95993772D01*
X176232373Y-96920194D01*
X176163448Y-96966249D01*
X176117393Y-97035175D01*
X175980996Y-97239307D01*
X175916927Y-97561401D01*
X175933100Y-97642707D01*
X175933099Y-102781068D01*
X175823140Y-102891027D01*
X174850147Y-102488000D01*
X173587053Y-102488000D01*
X172614060Y-102891027D01*
X171005500Y-101282468D01*
X171005500Y-89836158D01*
X171244126Y-89935000D01*
X171655874Y-89935000D01*
X172036280Y-89777431D01*
X172327431Y-89486280D01*
X172485000Y-89105874D01*
X172485000Y-89032432D01*
X173246226Y-88271207D01*
X173315152Y-88225152D01*
X173497604Y-87952094D01*
X173545500Y-87711303D01*
X173545500Y-87711299D01*
X173561671Y-87630001D01*
X173545500Y-87548703D01*
X173545500Y-87296158D01*
X173784126Y-87395000D01*
X174195874Y-87395000D01*
X174576280Y-87237431D01*
X174867431Y-86946280D01*
X175025000Y-86565874D01*
X175025000Y-86492432D01*
X175786227Y-85731206D01*
X175855152Y-85685152D01*
X176037604Y-85412094D01*
X176085500Y-85171303D01*
X176085500Y-85171299D01*
X176101671Y-85090001D01*
X176085500Y-85008703D01*
X176085500Y-59570157D01*
X176444320Y-59211337D01*
X176657000Y-58697881D01*
X176657000Y-58142119D01*
X176444320Y-57628663D01*
X176051337Y-57235680D01*
X175537881Y-57023000D01*
X174982119Y-57023000D01*
X174468663Y-57235680D01*
X174075680Y-57628663D01*
X173990000Y-57835513D01*
X173904320Y-57628663D01*
X173511337Y-57235680D01*
X172997881Y-57023000D01*
X172442119Y-57023000D01*
X171928663Y-57235680D01*
X171535680Y-57628663D01*
X171450000Y-57835513D01*
X171364320Y-57628663D01*
X170971337Y-57235680D01*
X170457881Y-57023000D01*
X169902119Y-57023000D01*
X169388663Y-57235680D01*
X168995680Y-57628663D01*
X168910000Y-57835513D01*
X168824320Y-57628663D01*
X168431337Y-57235680D01*
X167917881Y-57023000D01*
X167362119Y-57023000D01*
X166848663Y-57235680D01*
X166455680Y-57628663D01*
X166370000Y-57835513D01*
X166284320Y-57628663D01*
X165891337Y-57235680D01*
X165377881Y-57023000D01*
X164822119Y-57023000D01*
X164308663Y-57235680D01*
X163915680Y-57628663D01*
X163703000Y-58142119D01*
X136017000Y-58142119D01*
X136017000Y-49346550D01*
X161463864Y-49346550D01*
X161470000Y-49799907D01*
X161470000Y-50253433D01*
X161476346Y-50268753D01*
X161476570Y-50285330D01*
X161811380Y-51093632D01*
X161819969Y-51098332D01*
X161829289Y-51120833D01*
X162493167Y-51784711D01*
X162515668Y-51794031D01*
X162520368Y-51802620D01*
X162941562Y-51970442D01*
X163360567Y-52144000D01*
X163377150Y-52144000D01*
X163392550Y-52150136D01*
X163845907Y-52144000D01*
X164299433Y-52144000D01*
X164314753Y-52137654D01*
X164331330Y-52137430D01*
X165139632Y-51802620D01*
X165144332Y-51794031D01*
X165166833Y-51784711D01*
X165830711Y-51120833D01*
X165840031Y-51098332D01*
X165848620Y-51093632D01*
X166016442Y-50672438D01*
X166190000Y-50253433D01*
X166190000Y-50236850D01*
X166196136Y-50221450D01*
X166190000Y-49768093D01*
X166190000Y-49346550D01*
X174163864Y-49346550D01*
X174170000Y-49799907D01*
X174170000Y-50253433D01*
X174176346Y-50268753D01*
X174176570Y-50285330D01*
X174511380Y-51093632D01*
X174519969Y-51098332D01*
X174529289Y-51120833D01*
X175193167Y-51784711D01*
X175215668Y-51794031D01*
X175220368Y-51802620D01*
X175641562Y-51970442D01*
X176060567Y-52144000D01*
X176077150Y-52144000D01*
X176092550Y-52150136D01*
X176545907Y-52144000D01*
X176999433Y-52144000D01*
X177014753Y-52137654D01*
X177031330Y-52137430D01*
X177839632Y-51802620D01*
X177844332Y-51794031D01*
X177866833Y-51784711D01*
X178530711Y-51120833D01*
X178540031Y-51098332D01*
X178548620Y-51093632D01*
X178716442Y-50672438D01*
X178890000Y-50253433D01*
X178890000Y-50236850D01*
X178896136Y-50221450D01*
X178890000Y-49768093D01*
X178890000Y-49346550D01*
X179243864Y-49346550D01*
X179250000Y-49799907D01*
X179250000Y-50253433D01*
X179256346Y-50268753D01*
X179256570Y-50285330D01*
X179591380Y-51093632D01*
X179599969Y-51098332D01*
X179609289Y-51120833D01*
X180273167Y-51784711D01*
X180295668Y-51794031D01*
X180300368Y-51802620D01*
X180721562Y-51970442D01*
X181140567Y-52144000D01*
X181157150Y-52144000D01*
X181172550Y-52150136D01*
X181625907Y-52144000D01*
X182079433Y-52144000D01*
X182094753Y-52137654D01*
X182111330Y-52137430D01*
X182919632Y-51802620D01*
X182924332Y-51794031D01*
X182946833Y-51784711D01*
X183610711Y-51120833D01*
X183620031Y-51098332D01*
X183628620Y-51093632D01*
X183796442Y-50672438D01*
X183970000Y-50253433D01*
X183970000Y-50236850D01*
X183976136Y-50221450D01*
X183970000Y-49768093D01*
X183970000Y-49346550D01*
X191943864Y-49346550D01*
X191950000Y-49799907D01*
X191950000Y-50253433D01*
X191956346Y-50268753D01*
X191956570Y-50285330D01*
X192291380Y-51093632D01*
X192299969Y-51098332D01*
X192309289Y-51120833D01*
X192973167Y-51784711D01*
X192995668Y-51794031D01*
X193000368Y-51802620D01*
X193421562Y-51970442D01*
X193840567Y-52144000D01*
X193857150Y-52144000D01*
X193872550Y-52150136D01*
X194325907Y-52144000D01*
X194779433Y-52144000D01*
X194794753Y-52137654D01*
X194811330Y-52137430D01*
X195619632Y-51802620D01*
X195624332Y-51794031D01*
X195646833Y-51784711D01*
X196310711Y-51120833D01*
X196320031Y-51098332D01*
X196328620Y-51093632D01*
X196496442Y-50672438D01*
X196670000Y-50253433D01*
X196670000Y-50236850D01*
X196676136Y-50221450D01*
X196670000Y-49768093D01*
X196670000Y-49314567D01*
X196663654Y-49299247D01*
X196663430Y-49282670D01*
X196328620Y-48474368D01*
X196320031Y-48469668D01*
X196310711Y-48447167D01*
X195646833Y-47783289D01*
X195624332Y-47773969D01*
X195619632Y-47765380D01*
X195198438Y-47597558D01*
X194779433Y-47424000D01*
X194762850Y-47424000D01*
X194747450Y-47417864D01*
X194294093Y-47424000D01*
X193840567Y-47424000D01*
X193825247Y-47430346D01*
X193808670Y-47430570D01*
X193000368Y-47765380D01*
X192995668Y-47773969D01*
X192973167Y-47783289D01*
X192309289Y-48447167D01*
X192299969Y-48469668D01*
X192291380Y-48474368D01*
X192123558Y-48895562D01*
X191950000Y-49314567D01*
X191950000Y-49331150D01*
X191943864Y-49346550D01*
X183970000Y-49346550D01*
X183970000Y-49314567D01*
X183963654Y-49299247D01*
X183963430Y-49282670D01*
X183628620Y-48474368D01*
X183620031Y-48469668D01*
X183610711Y-48447167D01*
X182946833Y-47783289D01*
X182924332Y-47773969D01*
X182919632Y-47765380D01*
X182498438Y-47597558D01*
X182079433Y-47424000D01*
X182062850Y-47424000D01*
X182047450Y-47417864D01*
X181594093Y-47424000D01*
X181140567Y-47424000D01*
X181125247Y-47430346D01*
X181108670Y-47430570D01*
X180300368Y-47765380D01*
X180295668Y-47773969D01*
X180273167Y-47783289D01*
X179609289Y-48447167D01*
X179599969Y-48469668D01*
X179591380Y-48474368D01*
X179423558Y-48895562D01*
X179250000Y-49314567D01*
X179250000Y-49331150D01*
X179243864Y-49346550D01*
X178890000Y-49346550D01*
X178890000Y-49314567D01*
X178883654Y-49299247D01*
X178883430Y-49282670D01*
X178548620Y-48474368D01*
X178540031Y-48469668D01*
X178530711Y-48447167D01*
X177866833Y-47783289D01*
X177844332Y-47773969D01*
X177839632Y-47765380D01*
X177418438Y-47597558D01*
X176999433Y-47424000D01*
X176982850Y-47424000D01*
X176967450Y-47417864D01*
X176514093Y-47424000D01*
X176060567Y-47424000D01*
X176045247Y-47430346D01*
X176028670Y-47430570D01*
X175220368Y-47765380D01*
X175215668Y-47773969D01*
X175193167Y-47783289D01*
X174529289Y-48447167D01*
X174519969Y-48469668D01*
X174511380Y-48474368D01*
X174343558Y-48895562D01*
X174170000Y-49314567D01*
X174170000Y-49331150D01*
X174163864Y-49346550D01*
X166190000Y-49346550D01*
X166190000Y-49314567D01*
X166183654Y-49299247D01*
X166183430Y-49282670D01*
X165848620Y-48474368D01*
X165840031Y-48469668D01*
X165830711Y-48447167D01*
X165166833Y-47783289D01*
X165144332Y-47773969D01*
X165139632Y-47765380D01*
X164718438Y-47597558D01*
X164299433Y-47424000D01*
X164282850Y-47424000D01*
X164267450Y-47417864D01*
X163814093Y-47424000D01*
X163360567Y-47424000D01*
X163345247Y-47430346D01*
X163328670Y-47430570D01*
X162520368Y-47765380D01*
X162515668Y-47773969D01*
X162493167Y-47783289D01*
X161829289Y-48447167D01*
X161819969Y-48469668D01*
X161811380Y-48474368D01*
X161643558Y-48895562D01*
X161470000Y-49314567D01*
X161470000Y-49331150D01*
X161463864Y-49346550D01*
X136017000Y-49346550D01*
X136017000Y-43307000D01*
X197993000Y-43307000D01*
X197993000Y-144653000D01*
G36*
X159276377Y-115470205D02*
X159668797Y-115862625D01*
X159879741Y-115950001D01*
X159668797Y-116037377D01*
X159276377Y-116429797D01*
X159189001Y-116640741D01*
X159101625Y-116429797D01*
X158709205Y-116037377D01*
X158498261Y-115950001D01*
X158709205Y-115862625D01*
X159101625Y-115470205D01*
X159189001Y-115259261D01*
X159276377Y-115470205D01*
X159276377Y-115470205D01*
G37*
X159276377Y-115470205D02*
X159668797Y-115862625D01*
X159879741Y-115950001D01*
X159668797Y-116037377D01*
X159276377Y-116429797D01*
X159189001Y-116640741D01*
X159101625Y-116429797D01*
X158709205Y-116037377D01*
X158498261Y-115950001D01*
X158709205Y-115862625D01*
X159101625Y-115470205D01*
X159189001Y-115259261D01*
X159276377Y-115470205D01*
G36*
X156736377Y-115470205D02*
X157128797Y-115862625D01*
X157339741Y-115950001D01*
X157128797Y-116037377D01*
X156736377Y-116429797D01*
X156649001Y-116640741D01*
X156561625Y-116429797D01*
X156169205Y-116037377D01*
X155958261Y-115950001D01*
X156169205Y-115862625D01*
X156561625Y-115470205D01*
X156649001Y-115259261D01*
X156736377Y-115470205D01*
X156736377Y-115470205D01*
G37*
X156736377Y-115470205D02*
X157128797Y-115862625D01*
X157339741Y-115950001D01*
X157128797Y-116037377D01*
X156736377Y-116429797D01*
X156649001Y-116640741D01*
X156561625Y-116429797D01*
X156169205Y-116037377D01*
X155958261Y-115950001D01*
X156169205Y-115862625D01*
X156561625Y-115470205D01*
X156649001Y-115259261D01*
X156736377Y-115470205D01*
G36*
X154196377Y-115470205D02*
X154588797Y-115862625D01*
X154799741Y-115950001D01*
X154588797Y-116037377D01*
X154196377Y-116429797D01*
X154109001Y-116640741D01*
X154021625Y-116429797D01*
X153629205Y-116037377D01*
X153418261Y-115950001D01*
X153629205Y-115862625D01*
X154021625Y-115470205D01*
X154109001Y-115259261D01*
X154196377Y-115470205D01*
X154196377Y-115470205D01*
G37*
X154196377Y-115470205D02*
X154588797Y-115862625D01*
X154799741Y-115950001D01*
X154588797Y-116037377D01*
X154196377Y-116429797D01*
X154109001Y-116640741D01*
X154021625Y-116429797D01*
X153629205Y-116037377D01*
X153418261Y-115950001D01*
X153629205Y-115862625D01*
X154021625Y-115470205D01*
X154109001Y-115259261D01*
X154196377Y-115470205D01*
G36*
X151656377Y-115470205D02*
X152048797Y-115862625D01*
X152259741Y-115950001D01*
X152048797Y-116037377D01*
X151656377Y-116429797D01*
X151569001Y-116640741D01*
X151481625Y-116429797D01*
X151089205Y-116037377D01*
X150878261Y-115950001D01*
X151089205Y-115862625D01*
X151481625Y-115470205D01*
X151569001Y-115259261D01*
X151656377Y-115470205D01*
X151656377Y-115470205D01*
G37*
X151656377Y-115470205D02*
X152048797Y-115862625D01*
X152259741Y-115950001D01*
X152048797Y-116037377D01*
X151656377Y-116429797D01*
X151569001Y-116640741D01*
X151481625Y-116429797D01*
X151089205Y-116037377D01*
X150878261Y-115950001D01*
X151089205Y-115862625D01*
X151481625Y-115470205D01*
X151569001Y-115259261D01*
X151656377Y-115470205D01*
G36*
X149116377Y-115470205D02*
X149508797Y-115862625D01*
X149719741Y-115950001D01*
X149508797Y-116037377D01*
X149116377Y-116429797D01*
X149029001Y-116640741D01*
X148941625Y-116429797D01*
X148549205Y-116037377D01*
X148338261Y-115950001D01*
X148549205Y-115862625D01*
X148941625Y-115470205D01*
X149029001Y-115259261D01*
X149116377Y-115470205D01*
X149116377Y-115470205D01*
G37*
X149116377Y-115470205D02*
X149508797Y-115862625D01*
X149719741Y-115950001D01*
X149508797Y-116037377D01*
X149116377Y-116429797D01*
X149029001Y-116640741D01*
X148941625Y-116429797D01*
X148549205Y-116037377D01*
X148338261Y-115950001D01*
X148549205Y-115862625D01*
X148941625Y-115470205D01*
X149029001Y-115259261D01*
X149116377Y-115470205D01*
G36*
X138956377Y-115470205D02*
X139348797Y-115862625D01*
X139559741Y-115950001D01*
X139348797Y-116037377D01*
X138956377Y-116429797D01*
X138869001Y-116640741D01*
X138781625Y-116429797D01*
X138389205Y-116037377D01*
X138178261Y-115950001D01*
X138389205Y-115862625D01*
X138781625Y-115470205D01*
X138869001Y-115259261D01*
X138956377Y-115470205D01*
X138956377Y-115470205D01*
G37*
X138956377Y-115470205D02*
X139348797Y-115862625D01*
X139559741Y-115950001D01*
X139348797Y-116037377D01*
X138956377Y-116429797D01*
X138869001Y-116640741D01*
X138781625Y-116429797D01*
X138389205Y-116037377D01*
X138178261Y-115950001D01*
X138389205Y-115862625D01*
X138781625Y-115470205D01*
X138869001Y-115259261D01*
X138956377Y-115470205D01*
G36*
X146576377Y-115470205D02*
X146968797Y-115862625D01*
X147179741Y-115950001D01*
X146968797Y-116037377D01*
X146576377Y-116429797D01*
X146489001Y-116640741D01*
X146401625Y-116429797D01*
X146009205Y-116037377D01*
X145798261Y-115950001D01*
X146009205Y-115862625D01*
X146401625Y-115470205D01*
X146489001Y-115259261D01*
X146576377Y-115470205D01*
X146576377Y-115470205D01*
G37*
X146576377Y-115470205D02*
X146968797Y-115862625D01*
X147179741Y-115950001D01*
X146968797Y-116037377D01*
X146576377Y-116429797D01*
X146489001Y-116640741D01*
X146401625Y-116429797D01*
X146009205Y-116037377D01*
X145798261Y-115950001D01*
X146009205Y-115862625D01*
X146401625Y-115470205D01*
X146489001Y-115259261D01*
X146576377Y-115470205D01*
G36*
X146933502Y-104920935D02*
X146933501Y-113532673D01*
X146576377Y-113889797D01*
X146489001Y-114100741D01*
X146401625Y-113889797D01*
X146009205Y-113497377D01*
X145496484Y-113285001D01*
X144941518Y-113285001D01*
X144856784Y-113320099D01*
X144846104Y-113266406D01*
X144663652Y-112993348D01*
X144594729Y-112947295D01*
X143275000Y-111627567D01*
X143275000Y-111554126D01*
X143117431Y-111173720D01*
X142826280Y-110882569D01*
X142445874Y-110725000D01*
X142115002Y-110725000D01*
X142115002Y-100102434D01*
X146933502Y-104920935D01*
X146933502Y-104920935D01*
G37*
X146933502Y-104920935D02*
X146933501Y-113532673D01*
X146576377Y-113889797D01*
X146489001Y-114100741D01*
X146401625Y-113889797D01*
X146009205Y-113497377D01*
X145496484Y-113285001D01*
X144941518Y-113285001D01*
X144856784Y-113320099D01*
X144846104Y-113266406D01*
X144663652Y-112993348D01*
X144594729Y-112947295D01*
X143275000Y-111627567D01*
X143275000Y-111554126D01*
X143117431Y-111173720D01*
X142826280Y-110882569D01*
X142445874Y-110725000D01*
X142115002Y-110725000D01*
X142115002Y-100102434D01*
X146933502Y-104920935D01*
G36*
X142597568Y-113285001D02*
X142401518Y-113285001D01*
X142115002Y-113403680D01*
X142115002Y-112802435D01*
X142597568Y-113285001D01*
X142597568Y-113285001D01*
G37*
X142597568Y-113285001D02*
X142401518Y-113285001D01*
X142115002Y-113403680D01*
X142115002Y-112802435D01*
X142597568Y-113285001D01*
G36*
X141653720Y-91047431D02*
X142034126Y-91205000D01*
X142107567Y-91205000D01*
X142152067Y-91249500D01*
X140902432Y-91249500D01*
X141379111Y-90772822D01*
X141653720Y-91047431D01*
X141653720Y-91047431D01*
G37*
X141653720Y-91047431D02*
X142034126Y-91205000D01*
X142107567Y-91205000D01*
X142152067Y-91249500D01*
X140902432Y-91249500D01*
X141379111Y-90772822D01*
X141653720Y-91047431D01*
G36*
X171535680Y-59211337D02*
X171894500Y-59570157D01*
X171894501Y-87288066D01*
X171317568Y-87865000D01*
X171244126Y-87865000D01*
X171005500Y-87963842D01*
X171005500Y-59570157D01*
X171364320Y-59211337D01*
X171450000Y-59004487D01*
X171535680Y-59211337D01*
X171535680Y-59211337D01*
G37*
X171535680Y-59211337D02*
X171894500Y-59570157D01*
X171894501Y-87288066D01*
X171317568Y-87865000D01*
X171244126Y-87865000D01*
X171005500Y-87963842D01*
X171005500Y-59570157D01*
X171364320Y-59211337D01*
X171450000Y-59004487D01*
X171535680Y-59211337D01*
G36*
X174075680Y-59211337D02*
X174434500Y-59570157D01*
X174434501Y-84748066D01*
X173857568Y-85325000D01*
X173784126Y-85325000D01*
X173545500Y-85423842D01*
X173545500Y-59570157D01*
X173904320Y-59211337D01*
X173990000Y-59004487D01*
X174075680Y-59211337D01*
X174075680Y-59211337D01*
G37*
X174075680Y-59211337D02*
X174434500Y-59570157D01*
X174434501Y-84748066D01*
X173857568Y-85325000D01*
X173784126Y-85325000D01*
X173545500Y-85423842D01*
X173545500Y-59570157D01*
X173904320Y-59211337D01*
X173990000Y-59004487D01*
X174075680Y-59211337D01*
G36*
X191855680Y-59211337D02*
X192214500Y-59570157D01*
X192214501Y-80938066D01*
X191637568Y-81515000D01*
X191564126Y-81515000D01*
X191325500Y-81613842D01*
X191325500Y-59570157D01*
X191684320Y-59211337D01*
X191770000Y-59004487D01*
X191855680Y-59211337D01*
X191855680Y-59211337D01*
G37*
X191855680Y-59211337D02*
X192214500Y-59570157D01*
X192214501Y-80938066D01*
X191637568Y-81515000D01*
X191564126Y-81515000D01*
X191325500Y-81613842D01*
X191325500Y-59570157D01*
X191684320Y-59211337D01*
X191770000Y-59004487D01*
X191855680Y-59211337D01*
G36*
X153905000Y-89964126D02*
X153905000Y-90375874D01*
X154003842Y-90614500D01*
X153137303Y-90614500D01*
X153056000Y-90598328D01*
X152733905Y-90662396D01*
X152608557Y-90746152D01*
X152460848Y-90844848D01*
X152414793Y-90913774D01*
X151725432Y-91603135D01*
X151612052Y-91489755D01*
X151746152Y-91400152D01*
X151792209Y-91331223D01*
X153397933Y-89725500D01*
X154003842Y-89725500D01*
X153905000Y-89964126D01*
X153905000Y-89964126D01*
G37*
X153905000Y-89964126D02*
X153905000Y-90375874D01*
X154003842Y-90614500D01*
X153137303Y-90614500D01*
X153056000Y-90598328D01*
X152733905Y-90662396D01*
X152608557Y-90746152D01*
X152460848Y-90844848D01*
X152414793Y-90913774D01*
X151725432Y-91603135D01*
X151612052Y-91489755D01*
X151746152Y-91400152D01*
X151792209Y-91331223D01*
X153397933Y-89725500D01*
X154003842Y-89725500D01*
X153905000Y-89964126D01*
G36*
X141496377Y-72290205D02*
X141888797Y-72682625D01*
X142099741Y-72770001D01*
X141888797Y-72857377D01*
X141496377Y-73249797D01*
X141409001Y-73460741D01*
X141321625Y-73249797D01*
X140929205Y-72857377D01*
X140718261Y-72770001D01*
X140929205Y-72682625D01*
X141321625Y-72290205D01*
X141409001Y-72079261D01*
X141496377Y-72290205D01*
X141496377Y-72290205D01*
G37*
X141496377Y-72290205D02*
X141888797Y-72682625D01*
X142099741Y-72770001D01*
X141888797Y-72857377D01*
X141496377Y-73249797D01*
X141409001Y-73460741D01*
X141321625Y-73249797D01*
X140929205Y-72857377D01*
X140718261Y-72770001D01*
X140929205Y-72682625D01*
X141321625Y-72290205D01*
X141409001Y-72079261D01*
X141496377Y-72290205D01*
G36*
X138956377Y-72290205D02*
X139348797Y-72682625D01*
X139559741Y-72770001D01*
X139348797Y-72857377D01*
X138956377Y-73249797D01*
X138869001Y-73460741D01*
X138781625Y-73249797D01*
X138389205Y-72857377D01*
X138178261Y-72770001D01*
X138389205Y-72682625D01*
X138781625Y-72290205D01*
X138869001Y-72079261D01*
X138956377Y-72290205D01*
X138956377Y-72290205D01*
G37*
X138956377Y-72290205D02*
X139348797Y-72682625D01*
X139559741Y-72770001D01*
X139348797Y-72857377D01*
X138956377Y-73249797D01*
X138869001Y-73460741D01*
X138781625Y-73249797D01*
X138389205Y-72857377D01*
X138178261Y-72770001D01*
X138389205Y-72682625D01*
X138781625Y-72290205D01*
X138869001Y-72079261D01*
X138956377Y-72290205D01*
G36*
X151656377Y-72290205D02*
X152048797Y-72682625D01*
X152259741Y-72770001D01*
X152048797Y-72857377D01*
X151656377Y-73249797D01*
X151569001Y-73460741D01*
X151481625Y-73249797D01*
X151089205Y-72857377D01*
X150878261Y-72770001D01*
X151089205Y-72682625D01*
X151481625Y-72290205D01*
X151569001Y-72079261D01*
X151656377Y-72290205D01*
X151656377Y-72290205D01*
G37*
X151656377Y-72290205D02*
X152048797Y-72682625D01*
X152259741Y-72770001D01*
X152048797Y-72857377D01*
X151656377Y-73249797D01*
X151569001Y-73460741D01*
X151481625Y-73249797D01*
X151089205Y-72857377D01*
X150878261Y-72770001D01*
X151089205Y-72682625D01*
X151481625Y-72290205D01*
X151569001Y-72079261D01*
X151656377Y-72290205D01*
G36*
X154196377Y-72290205D02*
X154588797Y-72682625D01*
X154799741Y-72770001D01*
X154588797Y-72857377D01*
X154196377Y-73249797D01*
X154109001Y-73460741D01*
X154021625Y-73249797D01*
X153629205Y-72857377D01*
X153418261Y-72770001D01*
X153629205Y-72682625D01*
X154021625Y-72290205D01*
X154109001Y-72079261D01*
X154196377Y-72290205D01*
X154196377Y-72290205D01*
G37*
X154196377Y-72290205D02*
X154588797Y-72682625D01*
X154799741Y-72770001D01*
X154588797Y-72857377D01*
X154196377Y-73249797D01*
X154109001Y-73460741D01*
X154021625Y-73249797D01*
X153629205Y-72857377D01*
X153418261Y-72770001D01*
X153629205Y-72682625D01*
X154021625Y-72290205D01*
X154109001Y-72079261D01*
X154196377Y-72290205D01*
G36*
X156736377Y-72290205D02*
X157128797Y-72682625D01*
X157339741Y-72770001D01*
X157128797Y-72857377D01*
X156736377Y-73249797D01*
X156649001Y-73460741D01*
X156561625Y-73249797D01*
X156169205Y-72857377D01*
X155958261Y-72770001D01*
X156169205Y-72682625D01*
X156561625Y-72290205D01*
X156649001Y-72079261D01*
X156736377Y-72290205D01*
X156736377Y-72290205D01*
G37*
X156736377Y-72290205D02*
X157128797Y-72682625D01*
X157339741Y-72770001D01*
X157128797Y-72857377D01*
X156736377Y-73249797D01*
X156649001Y-73460741D01*
X156561625Y-73249797D01*
X156169205Y-72857377D01*
X155958261Y-72770001D01*
X156169205Y-72682625D01*
X156561625Y-72290205D01*
X156649001Y-72079261D01*
X156736377Y-72290205D01*
G36*
X149116377Y-72290205D02*
X149508797Y-72682625D01*
X149719741Y-72770001D01*
X149508797Y-72857377D01*
X149116377Y-73249797D01*
X149029001Y-73460741D01*
X148941625Y-73249797D01*
X148549205Y-72857377D01*
X148338261Y-72770001D01*
X148549205Y-72682625D01*
X148941625Y-72290205D01*
X149029001Y-72079261D01*
X149116377Y-72290205D01*
X149116377Y-72290205D01*
G37*
X149116377Y-72290205D02*
X149508797Y-72682625D01*
X149719741Y-72770001D01*
X149508797Y-72857377D01*
X149116377Y-73249797D01*
X149029001Y-73460741D01*
X148941625Y-73249797D01*
X148549205Y-72857377D01*
X148338261Y-72770001D01*
X148549205Y-72682625D01*
X148941625Y-72290205D01*
X149029001Y-72079261D01*
X149116377Y-72290205D01*
G36*
X146576377Y-72290205D02*
X146968797Y-72682625D01*
X147179741Y-72770001D01*
X146968797Y-72857377D01*
X146576377Y-73249797D01*
X146489001Y-73460741D01*
X146401625Y-73249797D01*
X146009205Y-72857377D01*
X145798261Y-72770001D01*
X146009205Y-72682625D01*
X146401625Y-72290205D01*
X146489001Y-72079261D01*
X146576377Y-72290205D01*
X146576377Y-72290205D01*
G37*
X146576377Y-72290205D02*
X146968797Y-72682625D01*
X147179741Y-72770001D01*
X146968797Y-72857377D01*
X146576377Y-73249797D01*
X146489001Y-73460741D01*
X146401625Y-73249797D01*
X146009205Y-72857377D01*
X145798261Y-72770001D01*
X146009205Y-72682625D01*
X146401625Y-72290205D01*
X146489001Y-72079261D01*
X146576377Y-72290205D01*
G36*
X144036377Y-72290205D02*
X144428797Y-72682625D01*
X144639741Y-72770001D01*
X144428797Y-72857377D01*
X144036377Y-73249797D01*
X143949001Y-73460741D01*
X143861625Y-73249797D01*
X143469205Y-72857377D01*
X143258261Y-72770001D01*
X143469205Y-72682625D01*
X143861625Y-72290205D01*
X143949001Y-72079261D01*
X144036377Y-72290205D01*
X144036377Y-72290205D01*
G37*
X144036377Y-72290205D02*
X144428797Y-72682625D01*
X144639741Y-72770001D01*
X144428797Y-72857377D01*
X144036377Y-73249797D01*
X143949001Y-73460741D01*
X143861625Y-73249797D01*
X143469205Y-72857377D01*
X143258261Y-72770001D01*
X143469205Y-72682625D01*
X143861625Y-72290205D01*
X143949001Y-72079261D01*
X144036377Y-72290205D01*
G36*
X159276377Y-72290205D02*
X159668797Y-72682625D01*
X159879741Y-72770001D01*
X159668797Y-72857377D01*
X159276377Y-73249797D01*
X159189001Y-73460741D01*
X159101625Y-73249797D01*
X158709205Y-72857377D01*
X158498261Y-72770001D01*
X158709205Y-72682625D01*
X159101625Y-72290205D01*
X159189001Y-72079261D01*
X159276377Y-72290205D01*
X159276377Y-72290205D01*
G37*
X159276377Y-72290205D02*
X159668797Y-72682625D01*
X159879741Y-72770001D01*
X159668797Y-72857377D01*
X159276377Y-73249797D01*
X159189001Y-73460741D01*
X159101625Y-73249797D01*
X158709205Y-72857377D01*
X158498261Y-72770001D01*
X158709205Y-72682625D01*
X159101625Y-72290205D01*
X159189001Y-72079261D01*
X159276377Y-72290205D01*
M02*
