M48
;DRILL file {KiCad (5.0.0)} date 10/03/18 22:02:02
;FORMAT={-:-/ absolute / inch / decimal}
FMAT,2
INCH,TZ
T1C0.0157
T2C0.0300
T3C0.0350
T4C0.0394
T5C0.1598
%
G90
G05
M72
T1
X6.98Y-5.075
X7.21Y-5.29
X7.26Y-5.29
X7.31Y-5.29
X7.41Y-5.29
X7.485Y-4.76
X8.Y-4.92
X8.1Y-4.97
T2
X7.Y-3.55
X7.1Y-3.55
X7.2Y-3.55
X7.3Y-3.55
X7.4Y-3.55
X7.7Y-3.55
X7.8Y-3.55
X7.9Y-3.55
X8.Y-3.55
X8.1Y-3.55
T3
X8.55Y-4.4
X8.55Y-4.5
X8.55Y-4.6
T4
X6.911Y-3.79
X6.911Y-3.89
X6.911Y-5.49
X6.911Y-5.59
X7.011Y-3.79
X7.011Y-3.89
X7.011Y-5.49
X7.011Y-5.59
X7.111Y-3.79
X7.111Y-3.89
X7.111Y-5.49
X7.111Y-5.59
X7.211Y-3.79
X7.211Y-3.89
X7.211Y-5.49
X7.211Y-5.59
X7.311Y-3.79
X7.311Y-3.89
X7.311Y-5.49
X7.311Y-5.59
X7.411Y-3.79
X7.411Y-3.89
X7.411Y-5.49
X7.411Y-5.59
X7.511Y-3.79
X7.511Y-3.89
X7.511Y-5.49
X7.511Y-5.59
X7.611Y-3.79
X7.611Y-3.89
X7.611Y-5.49
X7.611Y-5.59
X7.711Y-3.79
X7.711Y-3.89
X7.711Y-5.49
X7.711Y-5.59
X7.811Y-3.79
X7.811Y-3.89
X7.811Y-5.49
X7.811Y-5.59
T5
X8.66Y-3.891
X8.975Y-3.891
T0
M30
