M48
;DRILL file {KiCad (5.0.0)} date 10/03/18 21:48:54
;FORMAT={-:-/ absolute / inch / decimal}
FMAT,2
INCH,TZ
T1C0.0157
T2C0.0300
T3C0.0350
T4C0.0394
T5C0.1598
%
G90
G05
M72
T1
X1.9Y-2.6
X1.9Y-2.65
X1.9Y-2.7
X2.1Y-2.75
X2.2Y-2.4
T2
X2.4Y-1.25
X2.5Y-1.25
X2.6Y-1.25
X2.7Y-1.25
X2.8Y-1.25
X1.65Y-1.25
X1.75Y-1.25
X1.85Y-1.25
X1.95Y-1.25
X2.05Y-1.25
T3
X2.25Y-3.05
X2.25Y-3.15
X2.25Y-3.25
T4
X1.461Y-1.79
X1.461Y-1.89
X1.461Y-3.49
X1.461Y-3.59
X1.561Y-1.79
X1.561Y-1.89
X1.561Y-3.49
X1.561Y-3.59
X1.661Y-1.79
X1.661Y-1.89
X1.661Y-3.49
X1.661Y-3.59
X1.761Y-1.79
X1.761Y-1.89
X1.761Y-3.49
X1.761Y-3.59
X1.861Y-1.79
X1.861Y-1.89
X1.861Y-3.49
X1.861Y-3.59
X1.961Y-1.79
X1.961Y-1.89
X1.961Y-3.49
X1.961Y-3.59
X2.061Y-1.79
X2.061Y-1.89
X2.061Y-3.49
X2.061Y-3.59
X2.161Y-1.79
X2.161Y-1.89
X2.161Y-3.49
X2.161Y-3.59
X2.261Y-1.79
X2.261Y-1.89
X2.261Y-3.49
X2.261Y-3.59
X2.361Y-1.79
X2.361Y-1.89
X2.361Y-3.49
X2.361Y-3.59
T5
X3.21Y-2.591
X3.525Y-2.591
T0
M30
