G04 #@! TF.GenerationSoftware,KiCad,Pcbnew,(5.0.0)*
G04 #@! TF.CreationDate,2018-10-03T21:49:54-05:00*
G04 #@! TF.ProjectId,DriveBoard_Hardware,4472697665426F6172645F4861726477,rev?*
G04 #@! TF.SameCoordinates,Original*
G04 #@! TF.FileFunction,Soldermask,Top*
G04 #@! TF.FilePolarity,Negative*
%FSLAX46Y46*%
G04 Gerber Fmt 4.6, Leading zero omitted, Abs format (unit mm)*
G04 Created by KiCad (PCBNEW (5.0.0)) date 10/03/18 21:49:54*
%MOMM*%
%LPD*%
G01*
G04 APERTURE LIST*
%ADD10C,1.920000*%
%ADD11R,1.900000X1.000000*%
%ADD12C,5.480000*%
%ADD13C,1.924000*%
%ADD14C,3.850000*%
%ADD15C,0.100000*%
%ADD16C,1.350000*%
G04 APERTURE END LIST*
D10*
G04 #@! TO.C,U1*
X118389001Y-111505001D03*
X141249001Y-65785001D03*
X138709001Y-65785001D03*
X131089001Y-65785001D03*
X128549001Y-108965001D03*
X133629001Y-65785001D03*
X136169001Y-65785001D03*
X133629001Y-111505001D03*
X138709001Y-108965001D03*
X128549001Y-65785001D03*
X126009001Y-65785001D03*
X138709001Y-111505001D03*
X133629001Y-108965001D03*
X131089001Y-108965001D03*
X118389001Y-108965001D03*
X120929001Y-108965001D03*
X123469001Y-108965001D03*
X126009001Y-108965001D03*
X136169001Y-108965001D03*
X141249001Y-108965001D03*
X120929001Y-111505001D03*
X123469001Y-111505001D03*
X126009001Y-111505001D03*
X128549001Y-111505001D03*
X131089001Y-111505001D03*
X136169001Y-111505001D03*
X141249001Y-111505001D03*
X118389001Y-68325001D03*
X120929001Y-68325001D03*
X123469001Y-68325001D03*
X126009001Y-68325001D03*
X128549001Y-68325001D03*
X131089001Y-68325001D03*
X133629001Y-68325001D03*
X136169001Y-68325001D03*
X138709001Y-68325001D03*
X141249001Y-68325001D03*
X118389001Y-65785001D03*
X120929001Y-65785001D03*
X123469001Y-65785001D03*
G04 #@! TD*
D11*
G04 #@! TO.C,U2*
X158590000Y-74295000D03*
X158590000Y-75565000D03*
X158590000Y-76835000D03*
X158590000Y-78105000D03*
X158590000Y-79375000D03*
X158590000Y-80645000D03*
X158590000Y-81915000D03*
X158590000Y-83185000D03*
X163990000Y-83185000D03*
X163990000Y-81915000D03*
X163990000Y-80645000D03*
X163990000Y-79375000D03*
X163990000Y-78105000D03*
X163990000Y-76835000D03*
X163990000Y-75565000D03*
X163990000Y-74295000D03*
G04 #@! TD*
D12*
G04 #@! TO.C,Conn1*
X136677400Y-58675000D03*
X136677400Y-50674000D03*
G04 #@! TD*
D13*
G04 #@! TO.C,Conn2*
X129032000Y-101600000D03*
X129032000Y-99060000D03*
X129032000Y-96520000D03*
X129032000Y-93980000D03*
X129032000Y-91440000D03*
D14*
X120396000Y-102870000D03*
X120396000Y-90170000D03*
G04 #@! TD*
G04 #@! TO.C,Conn3*
X120396000Y-73406000D03*
X120396000Y-86106000D03*
D13*
X129032000Y-74676000D03*
X129032000Y-77216000D03*
X129032000Y-79756000D03*
X129032000Y-82296000D03*
X129032000Y-84836000D03*
G04 #@! TD*
G04 #@! TO.C,U3*
X162560000Y-62230000D03*
X160020000Y-62230000D03*
X157480000Y-62230000D03*
G04 #@! TD*
D15*
G04 #@! TO.C,C1*
G36*
X149405581Y-75526625D02*
X149438343Y-75531485D01*
X149470471Y-75539533D01*
X149501656Y-75550691D01*
X149531596Y-75564852D01*
X149560005Y-75581879D01*
X149586608Y-75601609D01*
X149611149Y-75623851D01*
X149633391Y-75648392D01*
X149653121Y-75674995D01*
X149670148Y-75703404D01*
X149684309Y-75733344D01*
X149695467Y-75764529D01*
X149703515Y-75796657D01*
X149708375Y-75829419D01*
X149710000Y-75862500D01*
X149710000Y-76537500D01*
X149708375Y-76570581D01*
X149703515Y-76603343D01*
X149695467Y-76635471D01*
X149684309Y-76666656D01*
X149670148Y-76696596D01*
X149653121Y-76725005D01*
X149633391Y-76751608D01*
X149611149Y-76776149D01*
X149586608Y-76798391D01*
X149560005Y-76818121D01*
X149531596Y-76835148D01*
X149501656Y-76849309D01*
X149470471Y-76860467D01*
X149438343Y-76868515D01*
X149405581Y-76873375D01*
X149372500Y-76875000D01*
X148597500Y-76875000D01*
X148564419Y-76873375D01*
X148531657Y-76868515D01*
X148499529Y-76860467D01*
X148468344Y-76849309D01*
X148438404Y-76835148D01*
X148409995Y-76818121D01*
X148383392Y-76798391D01*
X148358851Y-76776149D01*
X148336609Y-76751608D01*
X148316879Y-76725005D01*
X148299852Y-76696596D01*
X148285691Y-76666656D01*
X148274533Y-76635471D01*
X148266485Y-76603343D01*
X148261625Y-76570581D01*
X148260000Y-76537500D01*
X148260000Y-75862500D01*
X148261625Y-75829419D01*
X148266485Y-75796657D01*
X148274533Y-75764529D01*
X148285691Y-75733344D01*
X148299852Y-75703404D01*
X148316879Y-75674995D01*
X148336609Y-75648392D01*
X148358851Y-75623851D01*
X148383392Y-75601609D01*
X148409995Y-75581879D01*
X148438404Y-75564852D01*
X148468344Y-75550691D01*
X148499529Y-75539533D01*
X148531657Y-75531485D01*
X148564419Y-75526625D01*
X148597500Y-75525000D01*
X149372500Y-75525000D01*
X149405581Y-75526625D01*
X149405581Y-75526625D01*
G37*
D16*
X148985000Y-76200000D03*
D15*
G36*
X151155581Y-75526625D02*
X151188343Y-75531485D01*
X151220471Y-75539533D01*
X151251656Y-75550691D01*
X151281596Y-75564852D01*
X151310005Y-75581879D01*
X151336608Y-75601609D01*
X151361149Y-75623851D01*
X151383391Y-75648392D01*
X151403121Y-75674995D01*
X151420148Y-75703404D01*
X151434309Y-75733344D01*
X151445467Y-75764529D01*
X151453515Y-75796657D01*
X151458375Y-75829419D01*
X151460000Y-75862500D01*
X151460000Y-76537500D01*
X151458375Y-76570581D01*
X151453515Y-76603343D01*
X151445467Y-76635471D01*
X151434309Y-76666656D01*
X151420148Y-76696596D01*
X151403121Y-76725005D01*
X151383391Y-76751608D01*
X151361149Y-76776149D01*
X151336608Y-76798391D01*
X151310005Y-76818121D01*
X151281596Y-76835148D01*
X151251656Y-76849309D01*
X151220471Y-76860467D01*
X151188343Y-76868515D01*
X151155581Y-76873375D01*
X151122500Y-76875000D01*
X150347500Y-76875000D01*
X150314419Y-76873375D01*
X150281657Y-76868515D01*
X150249529Y-76860467D01*
X150218344Y-76849309D01*
X150188404Y-76835148D01*
X150159995Y-76818121D01*
X150133392Y-76798391D01*
X150108851Y-76776149D01*
X150086609Y-76751608D01*
X150066879Y-76725005D01*
X150049852Y-76696596D01*
X150035691Y-76666656D01*
X150024533Y-76635471D01*
X150016485Y-76603343D01*
X150011625Y-76570581D01*
X150010000Y-76537500D01*
X150010000Y-75862500D01*
X150011625Y-75829419D01*
X150016485Y-75796657D01*
X150024533Y-75764529D01*
X150035691Y-75733344D01*
X150049852Y-75703404D01*
X150066879Y-75674995D01*
X150086609Y-75648392D01*
X150108851Y-75623851D01*
X150133392Y-75601609D01*
X150159995Y-75581879D01*
X150188404Y-75564852D01*
X150218344Y-75550691D01*
X150249529Y-75539533D01*
X150281657Y-75531485D01*
X150314419Y-75526625D01*
X150347500Y-75525000D01*
X151122500Y-75525000D01*
X151155581Y-75526625D01*
X151155581Y-75526625D01*
G37*
D16*
X150735000Y-76200000D03*
G04 #@! TD*
D15*
G04 #@! TO.C,C2*
G36*
X151155581Y-80606625D02*
X151188343Y-80611485D01*
X151220471Y-80619533D01*
X151251656Y-80630691D01*
X151281596Y-80644852D01*
X151310005Y-80661879D01*
X151336608Y-80681609D01*
X151361149Y-80703851D01*
X151383391Y-80728392D01*
X151403121Y-80754995D01*
X151420148Y-80783404D01*
X151434309Y-80813344D01*
X151445467Y-80844529D01*
X151453515Y-80876657D01*
X151458375Y-80909419D01*
X151460000Y-80942500D01*
X151460000Y-81617500D01*
X151458375Y-81650581D01*
X151453515Y-81683343D01*
X151445467Y-81715471D01*
X151434309Y-81746656D01*
X151420148Y-81776596D01*
X151403121Y-81805005D01*
X151383391Y-81831608D01*
X151361149Y-81856149D01*
X151336608Y-81878391D01*
X151310005Y-81898121D01*
X151281596Y-81915148D01*
X151251656Y-81929309D01*
X151220471Y-81940467D01*
X151188343Y-81948515D01*
X151155581Y-81953375D01*
X151122500Y-81955000D01*
X150347500Y-81955000D01*
X150314419Y-81953375D01*
X150281657Y-81948515D01*
X150249529Y-81940467D01*
X150218344Y-81929309D01*
X150188404Y-81915148D01*
X150159995Y-81898121D01*
X150133392Y-81878391D01*
X150108851Y-81856149D01*
X150086609Y-81831608D01*
X150066879Y-81805005D01*
X150049852Y-81776596D01*
X150035691Y-81746656D01*
X150024533Y-81715471D01*
X150016485Y-81683343D01*
X150011625Y-81650581D01*
X150010000Y-81617500D01*
X150010000Y-80942500D01*
X150011625Y-80909419D01*
X150016485Y-80876657D01*
X150024533Y-80844529D01*
X150035691Y-80813344D01*
X150049852Y-80783404D01*
X150066879Y-80754995D01*
X150086609Y-80728392D01*
X150108851Y-80703851D01*
X150133392Y-80681609D01*
X150159995Y-80661879D01*
X150188404Y-80644852D01*
X150218344Y-80630691D01*
X150249529Y-80619533D01*
X150281657Y-80611485D01*
X150314419Y-80606625D01*
X150347500Y-80605000D01*
X151122500Y-80605000D01*
X151155581Y-80606625D01*
X151155581Y-80606625D01*
G37*
D16*
X150735000Y-81280000D03*
D15*
G36*
X149405581Y-80606625D02*
X149438343Y-80611485D01*
X149470471Y-80619533D01*
X149501656Y-80630691D01*
X149531596Y-80644852D01*
X149560005Y-80661879D01*
X149586608Y-80681609D01*
X149611149Y-80703851D01*
X149633391Y-80728392D01*
X149653121Y-80754995D01*
X149670148Y-80783404D01*
X149684309Y-80813344D01*
X149695467Y-80844529D01*
X149703515Y-80876657D01*
X149708375Y-80909419D01*
X149710000Y-80942500D01*
X149710000Y-81617500D01*
X149708375Y-81650581D01*
X149703515Y-81683343D01*
X149695467Y-81715471D01*
X149684309Y-81746656D01*
X149670148Y-81776596D01*
X149653121Y-81805005D01*
X149633391Y-81831608D01*
X149611149Y-81856149D01*
X149586608Y-81878391D01*
X149560005Y-81898121D01*
X149531596Y-81915148D01*
X149501656Y-81929309D01*
X149470471Y-81940467D01*
X149438343Y-81948515D01*
X149405581Y-81953375D01*
X149372500Y-81955000D01*
X148597500Y-81955000D01*
X148564419Y-81953375D01*
X148531657Y-81948515D01*
X148499529Y-81940467D01*
X148468344Y-81929309D01*
X148438404Y-81915148D01*
X148409995Y-81898121D01*
X148383392Y-81878391D01*
X148358851Y-81856149D01*
X148336609Y-81831608D01*
X148316879Y-81805005D01*
X148299852Y-81776596D01*
X148285691Y-81746656D01*
X148274533Y-81715471D01*
X148266485Y-81683343D01*
X148261625Y-81650581D01*
X148260000Y-81617500D01*
X148260000Y-80942500D01*
X148261625Y-80909419D01*
X148266485Y-80876657D01*
X148274533Y-80844529D01*
X148285691Y-80813344D01*
X148299852Y-80783404D01*
X148316879Y-80754995D01*
X148336609Y-80728392D01*
X148358851Y-80703851D01*
X148383392Y-80681609D01*
X148409995Y-80661879D01*
X148438404Y-80644852D01*
X148468344Y-80630691D01*
X148499529Y-80619533D01*
X148531657Y-80611485D01*
X148564419Y-80606625D01*
X148597500Y-80605000D01*
X149372500Y-80605000D01*
X149405581Y-80606625D01*
X149405581Y-80606625D01*
G37*
D16*
X148985000Y-81280000D03*
G04 #@! TD*
D15*
G04 #@! TO.C,C3*
G36*
X174015581Y-75526625D02*
X174048343Y-75531485D01*
X174080471Y-75539533D01*
X174111656Y-75550691D01*
X174141596Y-75564852D01*
X174170005Y-75581879D01*
X174196608Y-75601609D01*
X174221149Y-75623851D01*
X174243391Y-75648392D01*
X174263121Y-75674995D01*
X174280148Y-75703404D01*
X174294309Y-75733344D01*
X174305467Y-75764529D01*
X174313515Y-75796657D01*
X174318375Y-75829419D01*
X174320000Y-75862500D01*
X174320000Y-76537500D01*
X174318375Y-76570581D01*
X174313515Y-76603343D01*
X174305467Y-76635471D01*
X174294309Y-76666656D01*
X174280148Y-76696596D01*
X174263121Y-76725005D01*
X174243391Y-76751608D01*
X174221149Y-76776149D01*
X174196608Y-76798391D01*
X174170005Y-76818121D01*
X174141596Y-76835148D01*
X174111656Y-76849309D01*
X174080471Y-76860467D01*
X174048343Y-76868515D01*
X174015581Y-76873375D01*
X173982500Y-76875000D01*
X173207500Y-76875000D01*
X173174419Y-76873375D01*
X173141657Y-76868515D01*
X173109529Y-76860467D01*
X173078344Y-76849309D01*
X173048404Y-76835148D01*
X173019995Y-76818121D01*
X172993392Y-76798391D01*
X172968851Y-76776149D01*
X172946609Y-76751608D01*
X172926879Y-76725005D01*
X172909852Y-76696596D01*
X172895691Y-76666656D01*
X172884533Y-76635471D01*
X172876485Y-76603343D01*
X172871625Y-76570581D01*
X172870000Y-76537500D01*
X172870000Y-75862500D01*
X172871625Y-75829419D01*
X172876485Y-75796657D01*
X172884533Y-75764529D01*
X172895691Y-75733344D01*
X172909852Y-75703404D01*
X172926879Y-75674995D01*
X172946609Y-75648392D01*
X172968851Y-75623851D01*
X172993392Y-75601609D01*
X173019995Y-75581879D01*
X173048404Y-75564852D01*
X173078344Y-75550691D01*
X173109529Y-75539533D01*
X173141657Y-75531485D01*
X173174419Y-75526625D01*
X173207500Y-75525000D01*
X173982500Y-75525000D01*
X174015581Y-75526625D01*
X174015581Y-75526625D01*
G37*
D16*
X173595000Y-76200000D03*
D15*
G36*
X172265581Y-75526625D02*
X172298343Y-75531485D01*
X172330471Y-75539533D01*
X172361656Y-75550691D01*
X172391596Y-75564852D01*
X172420005Y-75581879D01*
X172446608Y-75601609D01*
X172471149Y-75623851D01*
X172493391Y-75648392D01*
X172513121Y-75674995D01*
X172530148Y-75703404D01*
X172544309Y-75733344D01*
X172555467Y-75764529D01*
X172563515Y-75796657D01*
X172568375Y-75829419D01*
X172570000Y-75862500D01*
X172570000Y-76537500D01*
X172568375Y-76570581D01*
X172563515Y-76603343D01*
X172555467Y-76635471D01*
X172544309Y-76666656D01*
X172530148Y-76696596D01*
X172513121Y-76725005D01*
X172493391Y-76751608D01*
X172471149Y-76776149D01*
X172446608Y-76798391D01*
X172420005Y-76818121D01*
X172391596Y-76835148D01*
X172361656Y-76849309D01*
X172330471Y-76860467D01*
X172298343Y-76868515D01*
X172265581Y-76873375D01*
X172232500Y-76875000D01*
X171457500Y-76875000D01*
X171424419Y-76873375D01*
X171391657Y-76868515D01*
X171359529Y-76860467D01*
X171328344Y-76849309D01*
X171298404Y-76835148D01*
X171269995Y-76818121D01*
X171243392Y-76798391D01*
X171218851Y-76776149D01*
X171196609Y-76751608D01*
X171176879Y-76725005D01*
X171159852Y-76696596D01*
X171145691Y-76666656D01*
X171134533Y-76635471D01*
X171126485Y-76603343D01*
X171121625Y-76570581D01*
X171120000Y-76537500D01*
X171120000Y-75862500D01*
X171121625Y-75829419D01*
X171126485Y-75796657D01*
X171134533Y-75764529D01*
X171145691Y-75733344D01*
X171159852Y-75703404D01*
X171176879Y-75674995D01*
X171196609Y-75648392D01*
X171218851Y-75623851D01*
X171243392Y-75601609D01*
X171269995Y-75581879D01*
X171298404Y-75564852D01*
X171328344Y-75550691D01*
X171359529Y-75539533D01*
X171391657Y-75531485D01*
X171424419Y-75526625D01*
X171457500Y-75525000D01*
X172232500Y-75525000D01*
X172265581Y-75526625D01*
X172265581Y-75526625D01*
G37*
D16*
X171845000Y-76200000D03*
G04 #@! TD*
D15*
G04 #@! TO.C,C4*
G36*
X153215581Y-72986625D02*
X153248343Y-72991485D01*
X153280471Y-72999533D01*
X153311656Y-73010691D01*
X153341596Y-73024852D01*
X153370005Y-73041879D01*
X153396608Y-73061609D01*
X153421149Y-73083851D01*
X153443391Y-73108392D01*
X153463121Y-73134995D01*
X153480148Y-73163404D01*
X153494309Y-73193344D01*
X153505467Y-73224529D01*
X153513515Y-73256657D01*
X153518375Y-73289419D01*
X153520000Y-73322500D01*
X153520000Y-73997500D01*
X153518375Y-74030581D01*
X153513515Y-74063343D01*
X153505467Y-74095471D01*
X153494309Y-74126656D01*
X153480148Y-74156596D01*
X153463121Y-74185005D01*
X153443391Y-74211608D01*
X153421149Y-74236149D01*
X153396608Y-74258391D01*
X153370005Y-74278121D01*
X153341596Y-74295148D01*
X153311656Y-74309309D01*
X153280471Y-74320467D01*
X153248343Y-74328515D01*
X153215581Y-74333375D01*
X153182500Y-74335000D01*
X152407500Y-74335000D01*
X152374419Y-74333375D01*
X152341657Y-74328515D01*
X152309529Y-74320467D01*
X152278344Y-74309309D01*
X152248404Y-74295148D01*
X152219995Y-74278121D01*
X152193392Y-74258391D01*
X152168851Y-74236149D01*
X152146609Y-74211608D01*
X152126879Y-74185005D01*
X152109852Y-74156596D01*
X152095691Y-74126656D01*
X152084533Y-74095471D01*
X152076485Y-74063343D01*
X152071625Y-74030581D01*
X152070000Y-73997500D01*
X152070000Y-73322500D01*
X152071625Y-73289419D01*
X152076485Y-73256657D01*
X152084533Y-73224529D01*
X152095691Y-73193344D01*
X152109852Y-73163404D01*
X152126879Y-73134995D01*
X152146609Y-73108392D01*
X152168851Y-73083851D01*
X152193392Y-73061609D01*
X152219995Y-73041879D01*
X152248404Y-73024852D01*
X152278344Y-73010691D01*
X152309529Y-72999533D01*
X152341657Y-72991485D01*
X152374419Y-72986625D01*
X152407500Y-72985000D01*
X153182500Y-72985000D01*
X153215581Y-72986625D01*
X153215581Y-72986625D01*
G37*
D16*
X152795000Y-73660000D03*
D15*
G36*
X154965581Y-72986625D02*
X154998343Y-72991485D01*
X155030471Y-72999533D01*
X155061656Y-73010691D01*
X155091596Y-73024852D01*
X155120005Y-73041879D01*
X155146608Y-73061609D01*
X155171149Y-73083851D01*
X155193391Y-73108392D01*
X155213121Y-73134995D01*
X155230148Y-73163404D01*
X155244309Y-73193344D01*
X155255467Y-73224529D01*
X155263515Y-73256657D01*
X155268375Y-73289419D01*
X155270000Y-73322500D01*
X155270000Y-73997500D01*
X155268375Y-74030581D01*
X155263515Y-74063343D01*
X155255467Y-74095471D01*
X155244309Y-74126656D01*
X155230148Y-74156596D01*
X155213121Y-74185005D01*
X155193391Y-74211608D01*
X155171149Y-74236149D01*
X155146608Y-74258391D01*
X155120005Y-74278121D01*
X155091596Y-74295148D01*
X155061656Y-74309309D01*
X155030471Y-74320467D01*
X154998343Y-74328515D01*
X154965581Y-74333375D01*
X154932500Y-74335000D01*
X154157500Y-74335000D01*
X154124419Y-74333375D01*
X154091657Y-74328515D01*
X154059529Y-74320467D01*
X154028344Y-74309309D01*
X153998404Y-74295148D01*
X153969995Y-74278121D01*
X153943392Y-74258391D01*
X153918851Y-74236149D01*
X153896609Y-74211608D01*
X153876879Y-74185005D01*
X153859852Y-74156596D01*
X153845691Y-74126656D01*
X153834533Y-74095471D01*
X153826485Y-74063343D01*
X153821625Y-74030581D01*
X153820000Y-73997500D01*
X153820000Y-73322500D01*
X153821625Y-73289419D01*
X153826485Y-73256657D01*
X153834533Y-73224529D01*
X153845691Y-73193344D01*
X153859852Y-73163404D01*
X153876879Y-73134995D01*
X153896609Y-73108392D01*
X153918851Y-73083851D01*
X153943392Y-73061609D01*
X153969995Y-73041879D01*
X153998404Y-73024852D01*
X154028344Y-73010691D01*
X154059529Y-72999533D01*
X154091657Y-72991485D01*
X154124419Y-72986625D01*
X154157500Y-72985000D01*
X154932500Y-72985000D01*
X154965581Y-72986625D01*
X154965581Y-72986625D01*
G37*
D16*
X154545000Y-73660000D03*
G04 #@! TD*
D15*
G04 #@! TO.C,C5*
G36*
X154965581Y-78066625D02*
X154998343Y-78071485D01*
X155030471Y-78079533D01*
X155061656Y-78090691D01*
X155091596Y-78104852D01*
X155120005Y-78121879D01*
X155146608Y-78141609D01*
X155171149Y-78163851D01*
X155193391Y-78188392D01*
X155213121Y-78214995D01*
X155230148Y-78243404D01*
X155244309Y-78273344D01*
X155255467Y-78304529D01*
X155263515Y-78336657D01*
X155268375Y-78369419D01*
X155270000Y-78402500D01*
X155270000Y-79077500D01*
X155268375Y-79110581D01*
X155263515Y-79143343D01*
X155255467Y-79175471D01*
X155244309Y-79206656D01*
X155230148Y-79236596D01*
X155213121Y-79265005D01*
X155193391Y-79291608D01*
X155171149Y-79316149D01*
X155146608Y-79338391D01*
X155120005Y-79358121D01*
X155091596Y-79375148D01*
X155061656Y-79389309D01*
X155030471Y-79400467D01*
X154998343Y-79408515D01*
X154965581Y-79413375D01*
X154932500Y-79415000D01*
X154157500Y-79415000D01*
X154124419Y-79413375D01*
X154091657Y-79408515D01*
X154059529Y-79400467D01*
X154028344Y-79389309D01*
X153998404Y-79375148D01*
X153969995Y-79358121D01*
X153943392Y-79338391D01*
X153918851Y-79316149D01*
X153896609Y-79291608D01*
X153876879Y-79265005D01*
X153859852Y-79236596D01*
X153845691Y-79206656D01*
X153834533Y-79175471D01*
X153826485Y-79143343D01*
X153821625Y-79110581D01*
X153820000Y-79077500D01*
X153820000Y-78402500D01*
X153821625Y-78369419D01*
X153826485Y-78336657D01*
X153834533Y-78304529D01*
X153845691Y-78273344D01*
X153859852Y-78243404D01*
X153876879Y-78214995D01*
X153896609Y-78188392D01*
X153918851Y-78163851D01*
X153943392Y-78141609D01*
X153969995Y-78121879D01*
X153998404Y-78104852D01*
X154028344Y-78090691D01*
X154059529Y-78079533D01*
X154091657Y-78071485D01*
X154124419Y-78066625D01*
X154157500Y-78065000D01*
X154932500Y-78065000D01*
X154965581Y-78066625D01*
X154965581Y-78066625D01*
G37*
D16*
X154545000Y-78740000D03*
D15*
G36*
X153215581Y-78066625D02*
X153248343Y-78071485D01*
X153280471Y-78079533D01*
X153311656Y-78090691D01*
X153341596Y-78104852D01*
X153370005Y-78121879D01*
X153396608Y-78141609D01*
X153421149Y-78163851D01*
X153443391Y-78188392D01*
X153463121Y-78214995D01*
X153480148Y-78243404D01*
X153494309Y-78273344D01*
X153505467Y-78304529D01*
X153513515Y-78336657D01*
X153518375Y-78369419D01*
X153520000Y-78402500D01*
X153520000Y-79077500D01*
X153518375Y-79110581D01*
X153513515Y-79143343D01*
X153505467Y-79175471D01*
X153494309Y-79206656D01*
X153480148Y-79236596D01*
X153463121Y-79265005D01*
X153443391Y-79291608D01*
X153421149Y-79316149D01*
X153396608Y-79338391D01*
X153370005Y-79358121D01*
X153341596Y-79375148D01*
X153311656Y-79389309D01*
X153280471Y-79400467D01*
X153248343Y-79408515D01*
X153215581Y-79413375D01*
X153182500Y-79415000D01*
X152407500Y-79415000D01*
X152374419Y-79413375D01*
X152341657Y-79408515D01*
X152309529Y-79400467D01*
X152278344Y-79389309D01*
X152248404Y-79375148D01*
X152219995Y-79358121D01*
X152193392Y-79338391D01*
X152168851Y-79316149D01*
X152146609Y-79291608D01*
X152126879Y-79265005D01*
X152109852Y-79236596D01*
X152095691Y-79206656D01*
X152084533Y-79175471D01*
X152076485Y-79143343D01*
X152071625Y-79110581D01*
X152070000Y-79077500D01*
X152070000Y-78402500D01*
X152071625Y-78369419D01*
X152076485Y-78336657D01*
X152084533Y-78304529D01*
X152095691Y-78273344D01*
X152109852Y-78243404D01*
X152126879Y-78214995D01*
X152146609Y-78188392D01*
X152168851Y-78163851D01*
X152193392Y-78141609D01*
X152219995Y-78121879D01*
X152248404Y-78104852D01*
X152278344Y-78090691D01*
X152309529Y-78079533D01*
X152341657Y-78071485D01*
X152374419Y-78066625D01*
X152407500Y-78065000D01*
X153182500Y-78065000D01*
X153215581Y-78066625D01*
X153215581Y-78066625D01*
G37*
D16*
X152795000Y-78740000D03*
G04 #@! TD*
D15*
G04 #@! TO.C,C6*
G36*
X170205581Y-72986625D02*
X170238343Y-72991485D01*
X170270471Y-72999533D01*
X170301656Y-73010691D01*
X170331596Y-73024852D01*
X170360005Y-73041879D01*
X170386608Y-73061609D01*
X170411149Y-73083851D01*
X170433391Y-73108392D01*
X170453121Y-73134995D01*
X170470148Y-73163404D01*
X170484309Y-73193344D01*
X170495467Y-73224529D01*
X170503515Y-73256657D01*
X170508375Y-73289419D01*
X170510000Y-73322500D01*
X170510000Y-73997500D01*
X170508375Y-74030581D01*
X170503515Y-74063343D01*
X170495467Y-74095471D01*
X170484309Y-74126656D01*
X170470148Y-74156596D01*
X170453121Y-74185005D01*
X170433391Y-74211608D01*
X170411149Y-74236149D01*
X170386608Y-74258391D01*
X170360005Y-74278121D01*
X170331596Y-74295148D01*
X170301656Y-74309309D01*
X170270471Y-74320467D01*
X170238343Y-74328515D01*
X170205581Y-74333375D01*
X170172500Y-74335000D01*
X169397500Y-74335000D01*
X169364419Y-74333375D01*
X169331657Y-74328515D01*
X169299529Y-74320467D01*
X169268344Y-74309309D01*
X169238404Y-74295148D01*
X169209995Y-74278121D01*
X169183392Y-74258391D01*
X169158851Y-74236149D01*
X169136609Y-74211608D01*
X169116879Y-74185005D01*
X169099852Y-74156596D01*
X169085691Y-74126656D01*
X169074533Y-74095471D01*
X169066485Y-74063343D01*
X169061625Y-74030581D01*
X169060000Y-73997500D01*
X169060000Y-73322500D01*
X169061625Y-73289419D01*
X169066485Y-73256657D01*
X169074533Y-73224529D01*
X169085691Y-73193344D01*
X169099852Y-73163404D01*
X169116879Y-73134995D01*
X169136609Y-73108392D01*
X169158851Y-73083851D01*
X169183392Y-73061609D01*
X169209995Y-73041879D01*
X169238404Y-73024852D01*
X169268344Y-73010691D01*
X169299529Y-72999533D01*
X169331657Y-72991485D01*
X169364419Y-72986625D01*
X169397500Y-72985000D01*
X170172500Y-72985000D01*
X170205581Y-72986625D01*
X170205581Y-72986625D01*
G37*
D16*
X169785000Y-73660000D03*
D15*
G36*
X168455581Y-72986625D02*
X168488343Y-72991485D01*
X168520471Y-72999533D01*
X168551656Y-73010691D01*
X168581596Y-73024852D01*
X168610005Y-73041879D01*
X168636608Y-73061609D01*
X168661149Y-73083851D01*
X168683391Y-73108392D01*
X168703121Y-73134995D01*
X168720148Y-73163404D01*
X168734309Y-73193344D01*
X168745467Y-73224529D01*
X168753515Y-73256657D01*
X168758375Y-73289419D01*
X168760000Y-73322500D01*
X168760000Y-73997500D01*
X168758375Y-74030581D01*
X168753515Y-74063343D01*
X168745467Y-74095471D01*
X168734309Y-74126656D01*
X168720148Y-74156596D01*
X168703121Y-74185005D01*
X168683391Y-74211608D01*
X168661149Y-74236149D01*
X168636608Y-74258391D01*
X168610005Y-74278121D01*
X168581596Y-74295148D01*
X168551656Y-74309309D01*
X168520471Y-74320467D01*
X168488343Y-74328515D01*
X168455581Y-74333375D01*
X168422500Y-74335000D01*
X167647500Y-74335000D01*
X167614419Y-74333375D01*
X167581657Y-74328515D01*
X167549529Y-74320467D01*
X167518344Y-74309309D01*
X167488404Y-74295148D01*
X167459995Y-74278121D01*
X167433392Y-74258391D01*
X167408851Y-74236149D01*
X167386609Y-74211608D01*
X167366879Y-74185005D01*
X167349852Y-74156596D01*
X167335691Y-74126656D01*
X167324533Y-74095471D01*
X167316485Y-74063343D01*
X167311625Y-74030581D01*
X167310000Y-73997500D01*
X167310000Y-73322500D01*
X167311625Y-73289419D01*
X167316485Y-73256657D01*
X167324533Y-73224529D01*
X167335691Y-73193344D01*
X167349852Y-73163404D01*
X167366879Y-73134995D01*
X167386609Y-73108392D01*
X167408851Y-73083851D01*
X167433392Y-73061609D01*
X167459995Y-73041879D01*
X167488404Y-73024852D01*
X167518344Y-73010691D01*
X167549529Y-72999533D01*
X167581657Y-72991485D01*
X167614419Y-72986625D01*
X167647500Y-72985000D01*
X168422500Y-72985000D01*
X168455581Y-72986625D01*
X168455581Y-72986625D01*
G37*
D16*
X168035000Y-73660000D03*
G04 #@! TD*
M02*
