G04 #@! TF.GenerationSoftware,KiCad,Pcbnew,(5.0.0)*
G04 #@! TF.CreationDate,2018-09-29T20:46:58-05:00*
G04 #@! TF.ProjectId,DriveBoard_Hardware,4472697665426F6172645F4861726477,rev?*
G04 #@! TF.SameCoordinates,Original*
G04 #@! TF.FileFunction,Legend,Top*
G04 #@! TF.FilePolarity,Positive*
%FSLAX46Y46*%
G04 Gerber Fmt 4.6, Leading zero omitted, Abs format (unit mm)*
G04 Created by KiCad (PCBNEW (5.0.0)) date 09/29/18 20:46:58*
%MOMM*%
%LPD*%
G01*
G04 APERTURE LIST*
%ADD10C,0.300000*%
%ADD11C,0.120000*%
%ADD12C,0.150000*%
%ADD13C,0.010000*%
G04 APERTURE END LIST*
D10*
X45491285Y-102390571D02*
X45491285Y-100890571D01*
X45848428Y-100890571D01*
X46062714Y-100962000D01*
X46205571Y-101104857D01*
X46276999Y-101247714D01*
X46348428Y-101533428D01*
X46348428Y-101747714D01*
X46276999Y-102033428D01*
X46205571Y-102176285D01*
X46062714Y-102319142D01*
X45848428Y-102390571D01*
X45491285Y-102390571D01*
X46991285Y-102390571D02*
X46991285Y-101390571D01*
X46991285Y-101676285D02*
X47062714Y-101533428D01*
X47134142Y-101462000D01*
X47276999Y-101390571D01*
X47419857Y-101390571D01*
X47919857Y-102390571D02*
X47919857Y-101390571D01*
X47919857Y-100890571D02*
X47848428Y-100962000D01*
X47919857Y-101033428D01*
X47991285Y-100962000D01*
X47919857Y-100890571D01*
X47919857Y-101033428D01*
X48491285Y-101390571D02*
X48848428Y-102390571D01*
X49205571Y-101390571D01*
X50348428Y-102319142D02*
X50205571Y-102390571D01*
X49919857Y-102390571D01*
X49776999Y-102319142D01*
X49705571Y-102176285D01*
X49705571Y-101604857D01*
X49776999Y-101462000D01*
X49919857Y-101390571D01*
X50205571Y-101390571D01*
X50348428Y-101462000D01*
X50419857Y-101604857D01*
X50419857Y-101747714D01*
X49705571Y-101890571D01*
X51562714Y-101604857D02*
X51776999Y-101676285D01*
X51848428Y-101747714D01*
X51919857Y-101890571D01*
X51919857Y-102104857D01*
X51848428Y-102247714D01*
X51776999Y-102319142D01*
X51634142Y-102390571D01*
X51062714Y-102390571D01*
X51062714Y-100890571D01*
X51562714Y-100890571D01*
X51705571Y-100962000D01*
X51776999Y-101033428D01*
X51848428Y-101176285D01*
X51848428Y-101319142D01*
X51776999Y-101462000D01*
X51705571Y-101533428D01*
X51562714Y-101604857D01*
X51062714Y-101604857D01*
X52776999Y-102390571D02*
X52634142Y-102319142D01*
X52562714Y-102247714D01*
X52491285Y-102104857D01*
X52491285Y-101676285D01*
X52562714Y-101533428D01*
X52634142Y-101462000D01*
X52776999Y-101390571D01*
X52991285Y-101390571D01*
X53134142Y-101462000D01*
X53205571Y-101533428D01*
X53276999Y-101676285D01*
X53276999Y-102104857D01*
X53205571Y-102247714D01*
X53134142Y-102319142D01*
X52991285Y-102390571D01*
X52776999Y-102390571D01*
X54562714Y-102390571D02*
X54562714Y-101604857D01*
X54491285Y-101462000D01*
X54348428Y-101390571D01*
X54062714Y-101390571D01*
X53919857Y-101462000D01*
X54562714Y-102319142D02*
X54419857Y-102390571D01*
X54062714Y-102390571D01*
X53919857Y-102319142D01*
X53848428Y-102176285D01*
X53848428Y-102033428D01*
X53919857Y-101890571D01*
X54062714Y-101819142D01*
X54419857Y-101819142D01*
X54562714Y-101747714D01*
X55276999Y-102390571D02*
X55276999Y-101390571D01*
X55276999Y-101676285D02*
X55348428Y-101533428D01*
X55419857Y-101462000D01*
X55562714Y-101390571D01*
X55705571Y-101390571D01*
X56848428Y-102390571D02*
X56848428Y-100890571D01*
X56848428Y-102319142D02*
X56705571Y-102390571D01*
X56419857Y-102390571D01*
X56276999Y-102319142D01*
X56205571Y-102247714D01*
X56134142Y-102104857D01*
X56134142Y-101676285D01*
X56205571Y-101533428D01*
X56276999Y-101462000D01*
X56419857Y-101390571D01*
X56705571Y-101390571D01*
X56848428Y-101462000D01*
X59562714Y-102390571D02*
X59062714Y-101676285D01*
X58705571Y-102390571D02*
X58705571Y-100890571D01*
X59276999Y-100890571D01*
X59419857Y-100962000D01*
X59491285Y-101033428D01*
X59562714Y-101176285D01*
X59562714Y-101390571D01*
X59491285Y-101533428D01*
X59419857Y-101604857D01*
X59276999Y-101676285D01*
X58705571Y-101676285D01*
X59991285Y-100890571D02*
X60491285Y-102390571D01*
X60991285Y-100890571D01*
X62276999Y-102390571D02*
X61419857Y-102390571D01*
X61848428Y-102390571D02*
X61848428Y-100890571D01*
X61705571Y-101104857D01*
X61562714Y-101247714D01*
X61419857Y-101319142D01*
X63991285Y-101033428D02*
X64062714Y-100962000D01*
X64205571Y-100890571D01*
X64562714Y-100890571D01*
X64705571Y-100962000D01*
X64776999Y-101033428D01*
X64848428Y-101176285D01*
X64848428Y-101319142D01*
X64776999Y-101533428D01*
X63919857Y-102390571D01*
X64848428Y-102390571D01*
X65776999Y-100890571D02*
X65919857Y-100890571D01*
X66062714Y-100962000D01*
X66134142Y-101033428D01*
X66205571Y-101176285D01*
X66276999Y-101462000D01*
X66276999Y-101819142D01*
X66205571Y-102104857D01*
X66134142Y-102247714D01*
X66062714Y-102319142D01*
X65919857Y-102390571D01*
X65776999Y-102390571D01*
X65634142Y-102319142D01*
X65562714Y-102247714D01*
X65491285Y-102104857D01*
X65419857Y-101819142D01*
X65419857Y-101462000D01*
X65491285Y-101176285D01*
X65562714Y-101033428D01*
X65634142Y-100962000D01*
X65776999Y-100890571D01*
X67705571Y-102390571D02*
X66848428Y-102390571D01*
X67276999Y-102390571D02*
X67276999Y-100890571D01*
X67134142Y-101104857D01*
X66991285Y-101247714D01*
X66848428Y-101319142D01*
X68419857Y-102390571D02*
X68705571Y-102390571D01*
X68848428Y-102319142D01*
X68919857Y-102247714D01*
X69062714Y-102033428D01*
X69134142Y-101747714D01*
X69134142Y-101176285D01*
X69062714Y-101033428D01*
X68991285Y-100962000D01*
X68848428Y-100890571D01*
X68562714Y-100890571D01*
X68419857Y-100962000D01*
X68348428Y-101033428D01*
X68277000Y-101176285D01*
X68277000Y-101533428D01*
X68348428Y-101676285D01*
X68419857Y-101747714D01*
X68562714Y-101819142D01*
X68848428Y-101819142D01*
X68991285Y-101747714D01*
X69062714Y-101676285D01*
X69134142Y-101533428D01*
X43598428Y-104940571D02*
X43598428Y-103440571D01*
X44098428Y-104512000D01*
X44598428Y-103440571D01*
X44598428Y-104940571D01*
X45955571Y-104940571D02*
X45955571Y-104154857D01*
X45884142Y-104012000D01*
X45741285Y-103940571D01*
X45455571Y-103940571D01*
X45312714Y-104012000D01*
X45955571Y-104869142D02*
X45812714Y-104940571D01*
X45455571Y-104940571D01*
X45312714Y-104869142D01*
X45241285Y-104726285D01*
X45241285Y-104583428D01*
X45312714Y-104440571D01*
X45455571Y-104369142D01*
X45812714Y-104369142D01*
X45955571Y-104297714D01*
X46669857Y-104940571D02*
X46669857Y-103940571D01*
X46669857Y-104226285D02*
X46741285Y-104083428D01*
X46812714Y-104012000D01*
X46955571Y-103940571D01*
X47098428Y-103940571D01*
X47527000Y-104869142D02*
X47669857Y-104940571D01*
X47955571Y-104940571D01*
X48098428Y-104869142D01*
X48169857Y-104726285D01*
X48169857Y-104654857D01*
X48098428Y-104512000D01*
X47955571Y-104440571D01*
X47741285Y-104440571D01*
X47598428Y-104369142D01*
X47527000Y-104226285D01*
X47527000Y-104154857D01*
X47598428Y-104012000D01*
X47741285Y-103940571D01*
X47955571Y-103940571D01*
X48098428Y-104012000D01*
X50812714Y-104940571D02*
X50312714Y-104226285D01*
X49955571Y-104940571D02*
X49955571Y-103440571D01*
X50527000Y-103440571D01*
X50669857Y-103512000D01*
X50741285Y-103583428D01*
X50812714Y-103726285D01*
X50812714Y-103940571D01*
X50741285Y-104083428D01*
X50669857Y-104154857D01*
X50527000Y-104226285D01*
X49955571Y-104226285D01*
X51669857Y-104940571D02*
X51527000Y-104869142D01*
X51455571Y-104797714D01*
X51384142Y-104654857D01*
X51384142Y-104226285D01*
X51455571Y-104083428D01*
X51527000Y-104012000D01*
X51669857Y-103940571D01*
X51884142Y-103940571D01*
X52027000Y-104012000D01*
X52098428Y-104083428D01*
X52169857Y-104226285D01*
X52169857Y-104654857D01*
X52098428Y-104797714D01*
X52027000Y-104869142D01*
X51884142Y-104940571D01*
X51669857Y-104940571D01*
X52669857Y-103940571D02*
X53027000Y-104940571D01*
X53384142Y-103940571D01*
X54527000Y-104869142D02*
X54384142Y-104940571D01*
X54098428Y-104940571D01*
X53955571Y-104869142D01*
X53884142Y-104726285D01*
X53884142Y-104154857D01*
X53955571Y-104012000D01*
X54098428Y-103940571D01*
X54384142Y-103940571D01*
X54527000Y-104012000D01*
X54598428Y-104154857D01*
X54598428Y-104297714D01*
X53884142Y-104440571D01*
X55241285Y-104940571D02*
X55241285Y-103940571D01*
X55241285Y-104226285D02*
X55312714Y-104083428D01*
X55384142Y-104012000D01*
X55527000Y-103940571D01*
X55669857Y-103940571D01*
X57312714Y-104940571D02*
X57312714Y-103440571D01*
X57669857Y-103440571D01*
X57884142Y-103512000D01*
X58027000Y-103654857D01*
X58098428Y-103797714D01*
X58169857Y-104083428D01*
X58169857Y-104297714D01*
X58098428Y-104583428D01*
X58027000Y-104726285D01*
X57884142Y-104869142D01*
X57669857Y-104940571D01*
X57312714Y-104940571D01*
X59384142Y-104869142D02*
X59241285Y-104940571D01*
X58955571Y-104940571D01*
X58812714Y-104869142D01*
X58741285Y-104726285D01*
X58741285Y-104154857D01*
X58812714Y-104012000D01*
X58955571Y-103940571D01*
X59241285Y-103940571D01*
X59384142Y-104012000D01*
X59455571Y-104154857D01*
X59455571Y-104297714D01*
X58741285Y-104440571D01*
X60027000Y-104869142D02*
X60169857Y-104940571D01*
X60455571Y-104940571D01*
X60598428Y-104869142D01*
X60669857Y-104726285D01*
X60669857Y-104654857D01*
X60598428Y-104512000D01*
X60455571Y-104440571D01*
X60241285Y-104440571D01*
X60098428Y-104369142D01*
X60027000Y-104226285D01*
X60027000Y-104154857D01*
X60098428Y-104012000D01*
X60241285Y-103940571D01*
X60455571Y-103940571D01*
X60598428Y-104012000D01*
X61312714Y-104940571D02*
X61312714Y-103940571D01*
X61312714Y-103440571D02*
X61241285Y-103512000D01*
X61312714Y-103583428D01*
X61384142Y-103512000D01*
X61312714Y-103440571D01*
X61312714Y-103583428D01*
X62669857Y-103940571D02*
X62669857Y-105154857D01*
X62598428Y-105297714D01*
X62527000Y-105369142D01*
X62384142Y-105440571D01*
X62169857Y-105440571D01*
X62027000Y-105369142D01*
X62669857Y-104869142D02*
X62527000Y-104940571D01*
X62241285Y-104940571D01*
X62098428Y-104869142D01*
X62027000Y-104797714D01*
X61955571Y-104654857D01*
X61955571Y-104226285D01*
X62027000Y-104083428D01*
X62098428Y-104012000D01*
X62241285Y-103940571D01*
X62527000Y-103940571D01*
X62669857Y-104012000D01*
X63384142Y-103940571D02*
X63384142Y-104940571D01*
X63384142Y-104083428D02*
X63455571Y-104012000D01*
X63598428Y-103940571D01*
X63812714Y-103940571D01*
X63955571Y-104012000D01*
X64027000Y-104154857D01*
X64027000Y-104940571D01*
X65669857Y-103440571D02*
X66527000Y-103440571D01*
X66098428Y-104940571D02*
X66098428Y-103440571D01*
X67598428Y-104869142D02*
X67455571Y-104940571D01*
X67169857Y-104940571D01*
X67027000Y-104869142D01*
X66955571Y-104726285D01*
X66955571Y-104154857D01*
X67027000Y-104012000D01*
X67169857Y-103940571D01*
X67455571Y-103940571D01*
X67598428Y-104012000D01*
X67669857Y-104154857D01*
X67669857Y-104297714D01*
X66955571Y-104440571D01*
X68955571Y-104940571D02*
X68955571Y-104154857D01*
X68884142Y-104012000D01*
X68741285Y-103940571D01*
X68455571Y-103940571D01*
X68312714Y-104012000D01*
X68955571Y-104869142D02*
X68812714Y-104940571D01*
X68455571Y-104940571D01*
X68312714Y-104869142D01*
X68241285Y-104726285D01*
X68241285Y-104583428D01*
X68312714Y-104440571D01*
X68455571Y-104369142D01*
X68812714Y-104369142D01*
X68955571Y-104297714D01*
X69669857Y-104940571D02*
X69669857Y-103940571D01*
X69669857Y-104083428D02*
X69741285Y-104012000D01*
X69884142Y-103940571D01*
X70098428Y-103940571D01*
X70241285Y-104012000D01*
X70312714Y-104154857D01*
X70312714Y-104940571D01*
X70312714Y-104154857D02*
X70384142Y-104012000D01*
X70527000Y-103940571D01*
X70741285Y-103940571D01*
X70884142Y-104012000D01*
X70955571Y-104154857D01*
X70955571Y-104940571D01*
X50241285Y-107490571D02*
X50241285Y-105990571D01*
X50741285Y-107062000D01*
X51241285Y-105990571D01*
X51241285Y-107490571D01*
X51955571Y-107490571D02*
X51955571Y-106490571D01*
X51955571Y-105990571D02*
X51884142Y-106062000D01*
X51955571Y-106133428D01*
X52027000Y-106062000D01*
X51955571Y-105990571D01*
X51955571Y-106133428D01*
X52598428Y-107419142D02*
X52741285Y-107490571D01*
X53027000Y-107490571D01*
X53169857Y-107419142D01*
X53241285Y-107276285D01*
X53241285Y-107204857D01*
X53169857Y-107062000D01*
X53027000Y-106990571D01*
X52812714Y-106990571D01*
X52669857Y-106919142D01*
X52598428Y-106776285D01*
X52598428Y-106704857D01*
X52669857Y-106562000D01*
X52812714Y-106490571D01*
X53027000Y-106490571D01*
X53169857Y-106562000D01*
X53812714Y-107419142D02*
X53955571Y-107490571D01*
X54241285Y-107490571D01*
X54384142Y-107419142D01*
X54455571Y-107276285D01*
X54455571Y-107204857D01*
X54384142Y-107062000D01*
X54241285Y-106990571D01*
X54027000Y-106990571D01*
X53884142Y-106919142D01*
X53812714Y-106776285D01*
X53812714Y-106704857D01*
X53884142Y-106562000D01*
X54027000Y-106490571D01*
X54241285Y-106490571D01*
X54384142Y-106562000D01*
X55312714Y-107490571D02*
X55169857Y-107419142D01*
X55098428Y-107347714D01*
X55027000Y-107204857D01*
X55027000Y-106776285D01*
X55098428Y-106633428D01*
X55169857Y-106562000D01*
X55312714Y-106490571D01*
X55527000Y-106490571D01*
X55669857Y-106562000D01*
X55741285Y-106633428D01*
X55812714Y-106776285D01*
X55812714Y-107204857D01*
X55741285Y-107347714D01*
X55669857Y-107419142D01*
X55527000Y-107490571D01*
X55312714Y-107490571D01*
X57098428Y-106490571D02*
X57098428Y-107490571D01*
X56455571Y-106490571D02*
X56455571Y-107276285D01*
X56527000Y-107419142D01*
X56669857Y-107490571D01*
X56884142Y-107490571D01*
X57027000Y-107419142D01*
X57098428Y-107347714D01*
X57812714Y-107490571D02*
X57812714Y-106490571D01*
X57812714Y-106776285D02*
X57884142Y-106633428D01*
X57955571Y-106562000D01*
X58098428Y-106490571D01*
X58241285Y-106490571D01*
X58741285Y-107490571D02*
X58741285Y-106490571D01*
X58741285Y-105990571D02*
X58669857Y-106062000D01*
X58741285Y-106133428D01*
X58812714Y-106062000D01*
X58741285Y-105990571D01*
X58741285Y-106133428D01*
X60527000Y-107419142D02*
X60741285Y-107490571D01*
X61098428Y-107490571D01*
X61241285Y-107419142D01*
X61312714Y-107347714D01*
X61384142Y-107204857D01*
X61384142Y-107062000D01*
X61312714Y-106919142D01*
X61241285Y-106847714D01*
X61098428Y-106776285D01*
X60812714Y-106704857D01*
X60669857Y-106633428D01*
X60598428Y-106562000D01*
X60527000Y-106419142D01*
X60527000Y-106276285D01*
X60598428Y-106133428D01*
X60669857Y-106062000D01*
X60812714Y-105990571D01*
X61169857Y-105990571D01*
X61384142Y-106062000D01*
X63241285Y-107490571D02*
X63169857Y-107490571D01*
X63027000Y-107419142D01*
X62812714Y-107204857D01*
X62455571Y-106776285D01*
X62312714Y-106562000D01*
X62241285Y-106347714D01*
X62241285Y-106204857D01*
X62312714Y-106062000D01*
X62455571Y-105990571D01*
X62527000Y-105990571D01*
X62669857Y-106062000D01*
X62741285Y-106204857D01*
X62741285Y-106276285D01*
X62669857Y-106419142D01*
X62598428Y-106490571D01*
X62169857Y-106776285D01*
X62098428Y-106847714D01*
X62027000Y-106990571D01*
X62027000Y-107204857D01*
X62098428Y-107347714D01*
X62169857Y-107419142D01*
X62312714Y-107490571D01*
X62527000Y-107490571D01*
X62669857Y-107419142D01*
X62741285Y-107347714D01*
X62955571Y-107062000D01*
X63027000Y-106847714D01*
X63027000Y-106704857D01*
X63669857Y-105990571D02*
X64527000Y-105990571D01*
X64098428Y-107490571D02*
X64098428Y-105990571D01*
X48277000Y-110040571D02*
X48277000Y-108540571D01*
X48634142Y-108540571D01*
X48848428Y-108612000D01*
X48991285Y-108754857D01*
X49062714Y-108897714D01*
X49134142Y-109183428D01*
X49134142Y-109397714D01*
X49062714Y-109683428D01*
X48991285Y-109826285D01*
X48848428Y-109969142D01*
X48634142Y-110040571D01*
X48277000Y-110040571D01*
X50419857Y-110040571D02*
X50419857Y-109254857D01*
X50348428Y-109112000D01*
X50205571Y-109040571D01*
X49919857Y-109040571D01*
X49777000Y-109112000D01*
X50419857Y-109969142D02*
X50277000Y-110040571D01*
X49919857Y-110040571D01*
X49777000Y-109969142D01*
X49705571Y-109826285D01*
X49705571Y-109683428D01*
X49777000Y-109540571D01*
X49919857Y-109469142D01*
X50277000Y-109469142D01*
X50419857Y-109397714D01*
X50991285Y-109040571D02*
X51348428Y-110040571D01*
X51705571Y-109040571D01*
X52277000Y-110040571D02*
X52277000Y-109040571D01*
X52277000Y-108540571D02*
X52205571Y-108612000D01*
X52277000Y-108683428D01*
X52348428Y-108612000D01*
X52277000Y-108540571D01*
X52277000Y-108683428D01*
X53634142Y-110040571D02*
X53634142Y-108540571D01*
X53634142Y-109969142D02*
X53491285Y-110040571D01*
X53205571Y-110040571D01*
X53062714Y-109969142D01*
X52991285Y-109897714D01*
X52919857Y-109754857D01*
X52919857Y-109326285D01*
X52991285Y-109183428D01*
X53062714Y-109112000D01*
X53205571Y-109040571D01*
X53491285Y-109040571D01*
X53634142Y-109112000D01*
X55277000Y-108540571D02*
X56134142Y-108540571D01*
X55705571Y-110040571D02*
X55705571Y-108540571D01*
X56634142Y-110040571D02*
X56634142Y-108540571D01*
X57277000Y-110040571D02*
X57277000Y-109254857D01*
X57205571Y-109112000D01*
X57062714Y-109040571D01*
X56848428Y-109040571D01*
X56705571Y-109112000D01*
X56634142Y-109183428D01*
X58562714Y-109969142D02*
X58419857Y-110040571D01*
X58134142Y-110040571D01*
X57991285Y-109969142D01*
X57919857Y-109826285D01*
X57919857Y-109254857D01*
X57991285Y-109112000D01*
X58134142Y-109040571D01*
X58419857Y-109040571D01*
X58562714Y-109112000D01*
X58634142Y-109254857D01*
X58634142Y-109397714D01*
X57919857Y-109540571D01*
X59491285Y-110040571D02*
X59348428Y-109969142D01*
X59277000Y-109897714D01*
X59205571Y-109754857D01*
X59205571Y-109326285D01*
X59277000Y-109183428D01*
X59348428Y-109112000D01*
X59491285Y-109040571D01*
X59705571Y-109040571D01*
X59848428Y-109112000D01*
X59919857Y-109183428D01*
X59991285Y-109326285D01*
X59991285Y-109754857D01*
X59919857Y-109897714D01*
X59848428Y-109969142D01*
X59705571Y-110040571D01*
X59491285Y-110040571D01*
X61277000Y-110040571D02*
X61277000Y-108540571D01*
X61277000Y-109969142D02*
X61134142Y-110040571D01*
X60848428Y-110040571D01*
X60705571Y-109969142D01*
X60634142Y-109897714D01*
X60562714Y-109754857D01*
X60562714Y-109326285D01*
X60634142Y-109183428D01*
X60705571Y-109112000D01*
X60848428Y-109040571D01*
X61134142Y-109040571D01*
X61277000Y-109112000D01*
X62205571Y-110040571D02*
X62062714Y-109969142D01*
X61991285Y-109897714D01*
X61919857Y-109754857D01*
X61919857Y-109326285D01*
X61991285Y-109183428D01*
X62062714Y-109112000D01*
X62205571Y-109040571D01*
X62419857Y-109040571D01*
X62562714Y-109112000D01*
X62634142Y-109183428D01*
X62705571Y-109326285D01*
X62705571Y-109754857D01*
X62634142Y-109897714D01*
X62562714Y-109969142D01*
X62419857Y-110040571D01*
X62205571Y-110040571D01*
X63348428Y-110040571D02*
X63348428Y-109040571D01*
X63348428Y-109326285D02*
X63419857Y-109183428D01*
X63491285Y-109112000D01*
X63634142Y-109040571D01*
X63776999Y-109040571D01*
X64491285Y-110040571D02*
X64348428Y-109969142D01*
X64276999Y-109897714D01*
X64205571Y-109754857D01*
X64205571Y-109326285D01*
X64276999Y-109183428D01*
X64348428Y-109112000D01*
X64491285Y-109040571D01*
X64705571Y-109040571D01*
X64848428Y-109112000D01*
X64919857Y-109183428D01*
X64991285Y-109326285D01*
X64991285Y-109754857D01*
X64919857Y-109897714D01*
X64848428Y-109969142D01*
X64705571Y-110040571D01*
X64491285Y-110040571D01*
X66277000Y-109040571D02*
X66277000Y-110040571D01*
X65634142Y-109040571D02*
X65634142Y-109826285D01*
X65705571Y-109969142D01*
X65848428Y-110040571D01*
X66062714Y-110040571D01*
X66205571Y-109969142D01*
X66277000Y-109897714D01*
X78214885Y-69125400D02*
X78072028Y-69053971D01*
X77857742Y-69053971D01*
X77643457Y-69125400D01*
X77500600Y-69268257D01*
X77429171Y-69411114D01*
X77357742Y-69696828D01*
X77357742Y-69911114D01*
X77429171Y-70196828D01*
X77500600Y-70339685D01*
X77643457Y-70482542D01*
X77857742Y-70553971D01*
X78000600Y-70553971D01*
X78214885Y-70482542D01*
X78286314Y-70411114D01*
X78286314Y-69911114D01*
X78000600Y-69911114D01*
X78929171Y-70553971D02*
X78929171Y-69553971D01*
X78929171Y-69839685D02*
X79000600Y-69696828D01*
X79072028Y-69625400D01*
X79214885Y-69553971D01*
X79357742Y-69553971D01*
X80072028Y-70553971D02*
X79929171Y-70482542D01*
X79857742Y-70411114D01*
X79786314Y-70268257D01*
X79786314Y-69839685D01*
X79857742Y-69696828D01*
X79929171Y-69625400D01*
X80072028Y-69553971D01*
X80286314Y-69553971D01*
X80429171Y-69625400D01*
X80500600Y-69696828D01*
X80572028Y-69839685D01*
X80572028Y-70268257D01*
X80500600Y-70411114D01*
X80429171Y-70482542D01*
X80286314Y-70553971D01*
X80072028Y-70553971D01*
X81857742Y-69553971D02*
X81857742Y-70553971D01*
X81214885Y-69553971D02*
X81214885Y-70339685D01*
X81286314Y-70482542D01*
X81429171Y-70553971D01*
X81643457Y-70553971D01*
X81786314Y-70482542D01*
X81857742Y-70411114D01*
X82572028Y-69553971D02*
X82572028Y-70553971D01*
X82572028Y-69696828D02*
X82643457Y-69625400D01*
X82786314Y-69553971D01*
X83000600Y-69553971D01*
X83143457Y-69625400D01*
X83214885Y-69768257D01*
X83214885Y-70553971D01*
X84572028Y-70553971D02*
X84572028Y-69053971D01*
X84572028Y-70482542D02*
X84429171Y-70553971D01*
X84143457Y-70553971D01*
X84000600Y-70482542D01*
X83929171Y-70411114D01*
X83857742Y-70268257D01*
X83857742Y-69839685D01*
X83929171Y-69696828D01*
X84000600Y-69625400D01*
X84143457Y-69553971D01*
X84429171Y-69553971D01*
X84572028Y-69625400D01*
X89025600Y-70858771D02*
X88168457Y-70858771D01*
X88597028Y-70858771D02*
X88597028Y-69358771D01*
X88454171Y-69573057D01*
X88311314Y-69715914D01*
X88168457Y-69787342D01*
X89597028Y-69501628D02*
X89668457Y-69430200D01*
X89811314Y-69358771D01*
X90168457Y-69358771D01*
X90311314Y-69430200D01*
X90382742Y-69501628D01*
X90454171Y-69644485D01*
X90454171Y-69787342D01*
X90382742Y-70001628D01*
X89525600Y-70858771D01*
X90454171Y-70858771D01*
X92025600Y-69358771D02*
X92525600Y-70858771D01*
X93025600Y-69358771D01*
X59261085Y-35349571D02*
X59261085Y-33849571D01*
X59761085Y-34921000D01*
X60261085Y-33849571D01*
X60261085Y-35349571D01*
X61189657Y-35349571D02*
X61046800Y-35278142D01*
X60975371Y-35206714D01*
X60903942Y-35063857D01*
X60903942Y-34635285D01*
X60975371Y-34492428D01*
X61046800Y-34421000D01*
X61189657Y-34349571D01*
X61403942Y-34349571D01*
X61546800Y-34421000D01*
X61618228Y-34492428D01*
X61689657Y-34635285D01*
X61689657Y-35063857D01*
X61618228Y-35206714D01*
X61546800Y-35278142D01*
X61403942Y-35349571D01*
X61189657Y-35349571D01*
X62118228Y-34349571D02*
X62689657Y-34349571D01*
X62332514Y-33849571D02*
X62332514Y-35135285D01*
X62403942Y-35278142D01*
X62546800Y-35349571D01*
X62689657Y-35349571D01*
X63403942Y-35349571D02*
X63261085Y-35278142D01*
X63189657Y-35206714D01*
X63118228Y-35063857D01*
X63118228Y-34635285D01*
X63189657Y-34492428D01*
X63261085Y-34421000D01*
X63403942Y-34349571D01*
X63618228Y-34349571D01*
X63761085Y-34421000D01*
X63832514Y-34492428D01*
X63903942Y-34635285D01*
X63903942Y-35063857D01*
X63832514Y-35206714D01*
X63761085Y-35278142D01*
X63618228Y-35349571D01*
X63403942Y-35349571D01*
X64546800Y-35349571D02*
X64546800Y-34349571D01*
X64546800Y-34635285D02*
X64618228Y-34492428D01*
X64689657Y-34421000D01*
X64832514Y-34349571D01*
X64975371Y-34349571D01*
X66546800Y-33992428D02*
X66618228Y-33921000D01*
X66761085Y-33849571D01*
X67118228Y-33849571D01*
X67261085Y-33921000D01*
X67332514Y-33992428D01*
X67403942Y-34135285D01*
X67403942Y-34278142D01*
X67332514Y-34492428D01*
X66475371Y-35349571D01*
X67403942Y-35349571D01*
X40947685Y-35501971D02*
X40947685Y-34001971D01*
X41447685Y-35073400D01*
X41947685Y-34001971D01*
X41947685Y-35501971D01*
X42876257Y-35501971D02*
X42733400Y-35430542D01*
X42661971Y-35359114D01*
X42590542Y-35216257D01*
X42590542Y-34787685D01*
X42661971Y-34644828D01*
X42733400Y-34573400D01*
X42876257Y-34501971D01*
X43090542Y-34501971D01*
X43233400Y-34573400D01*
X43304828Y-34644828D01*
X43376257Y-34787685D01*
X43376257Y-35216257D01*
X43304828Y-35359114D01*
X43233400Y-35430542D01*
X43090542Y-35501971D01*
X42876257Y-35501971D01*
X43804828Y-34501971D02*
X44376257Y-34501971D01*
X44019114Y-34001971D02*
X44019114Y-35287685D01*
X44090542Y-35430542D01*
X44233400Y-35501971D01*
X44376257Y-35501971D01*
X45090542Y-35501971D02*
X44947685Y-35430542D01*
X44876257Y-35359114D01*
X44804828Y-35216257D01*
X44804828Y-34787685D01*
X44876257Y-34644828D01*
X44947685Y-34573400D01*
X45090542Y-34501971D01*
X45304828Y-34501971D01*
X45447685Y-34573400D01*
X45519114Y-34644828D01*
X45590542Y-34787685D01*
X45590542Y-35216257D01*
X45519114Y-35359114D01*
X45447685Y-35430542D01*
X45304828Y-35501971D01*
X45090542Y-35501971D01*
X46233400Y-35501971D02*
X46233400Y-34501971D01*
X46233400Y-34787685D02*
X46304828Y-34644828D01*
X46376257Y-34573400D01*
X46519114Y-34501971D01*
X46661971Y-34501971D01*
X49090542Y-35501971D02*
X48233400Y-35501971D01*
X48661971Y-35501971D02*
X48661971Y-34001971D01*
X48519114Y-34216257D01*
X48376257Y-34359114D01*
X48233400Y-34430542D01*
D11*
G04 #@! TO.C,C1*
X45548733Y-56640000D02*
X45891267Y-56640000D01*
X45548733Y-57660000D02*
X45891267Y-57660000D01*
G04 #@! TO.C,C2*
X41150000Y-68408733D02*
X41150000Y-68751267D01*
X40130000Y-68408733D02*
X40130000Y-68751267D01*
G04 #@! TO.C,C3*
X62206600Y-78162333D02*
X62206600Y-78504867D01*
X61186600Y-78162333D02*
X61186600Y-78504867D01*
G04 #@! TO.C,C4*
X41150000Y-60788733D02*
X41150000Y-61131267D01*
X40130000Y-60788733D02*
X40130000Y-61131267D01*
G04 #@! TO.C,C5*
X41150000Y-64598733D02*
X41150000Y-64941267D01*
X40130000Y-64598733D02*
X40130000Y-64941267D01*
G04 #@! TO.C,C6*
X63723733Y-83060000D02*
X64066267Y-83060000D01*
X63723733Y-82040000D02*
X64066267Y-82040000D01*
D12*
G04 #@! TO.C,Conn1*
X77470000Y-48768000D02*
G75*
G03X78587600Y-47650400I0J1117600D01*
G01*
X78587600Y-47650400D02*
G75*
G03X77470000Y-46532800I-1117600J0D01*
G01*
X93218000Y-37592000D02*
X77470000Y-37592000D01*
X93218000Y-62230000D02*
X77470000Y-62230000D01*
X93218000Y-46507400D02*
X93218000Y-45288200D01*
X92075000Y-47650400D02*
G75*
G03X93218000Y-48793400I1143000J0D01*
G01*
X93218000Y-46507400D02*
G75*
G03X92075000Y-47650400I0J-1143000D01*
G01*
X77470000Y-49961800D02*
X77470000Y-48768000D01*
X79781400Y-47650400D02*
X78613000Y-47650400D01*
X77470000Y-45339000D02*
X77470000Y-46507400D01*
X93218000Y-49911000D02*
X93218000Y-48818800D01*
X92075000Y-47650400D02*
X90906600Y-47650400D01*
X83058000Y-47650400D02*
X84201000Y-47650400D01*
X85369400Y-37617400D02*
X85369400Y-46507400D01*
X87630000Y-47650400D02*
X86487000Y-47650400D01*
X85344000Y-49936400D02*
X85344000Y-48793400D01*
X83058000Y-47650400D02*
X79756000Y-47650400D01*
X85344000Y-49936400D02*
X85344000Y-62230000D01*
X87630000Y-47650400D02*
X90906600Y-47650400D01*
X86487000Y-47650400D02*
G75*
G03X86487000Y-47650400I-1143000J0D01*
G01*
X77470000Y-49936400D02*
X77470000Y-62230000D01*
X77470000Y-45364400D02*
X77470000Y-37617400D01*
X93218000Y-37617400D02*
X93218000Y-45364400D01*
X93218000Y-49936400D02*
X93218000Y-62230000D01*
G04 #@! TO.C,Conn2*
X43180000Y-18542000D02*
X43180000Y-19050000D01*
X50800000Y-19050000D02*
X50800000Y-18542000D01*
X38735000Y-18542000D02*
X55245000Y-18542000D01*
X38735000Y-30480000D02*
X38735000Y-18542000D01*
X55245000Y-30480000D02*
X55245000Y-18542000D01*
X53340000Y-30480000D02*
X55245000Y-30480000D01*
X40640000Y-30480000D02*
X38735000Y-30480000D01*
X43180000Y-22860000D02*
X43180000Y-24130000D01*
X43180000Y-24130000D02*
X50800000Y-24130000D01*
X50800000Y-24130000D02*
X50800000Y-22860000D01*
X50800000Y-22860000D02*
X50800000Y-19050000D01*
X43180000Y-22860000D02*
X43180000Y-19050000D01*
X45720000Y-24130000D02*
X45720000Y-26670000D01*
X45720000Y-26670000D02*
X48260000Y-26670000D01*
X48260000Y-26670000D02*
X48260000Y-24130000D01*
X40640000Y-30480000D02*
X53340000Y-30480000D01*
X53340000Y-30480000D02*
X53340000Y-33020000D01*
X53340000Y-33020000D02*
X40640000Y-33020000D01*
X40640000Y-33020000D02*
X40640000Y-30480000D01*
G04 #@! TO.C,Conn3*
X62230000Y-18542000D02*
X62230000Y-19050000D01*
X69850000Y-19050000D02*
X69850000Y-18542000D01*
X57785000Y-18542000D02*
X74295000Y-18542000D01*
X57785000Y-30480000D02*
X57785000Y-18542000D01*
X74295000Y-30480000D02*
X74295000Y-18542000D01*
X72390000Y-30480000D02*
X74295000Y-30480000D01*
X59690000Y-30480000D02*
X57785000Y-30480000D01*
X62230000Y-22860000D02*
X62230000Y-24130000D01*
X62230000Y-24130000D02*
X69850000Y-24130000D01*
X69850000Y-24130000D02*
X69850000Y-22860000D01*
X69850000Y-22860000D02*
X69850000Y-19050000D01*
X62230000Y-22860000D02*
X62230000Y-19050000D01*
X64770000Y-24130000D02*
X64770000Y-26670000D01*
X64770000Y-26670000D02*
X67310000Y-26670000D01*
X67310000Y-26670000D02*
X67310000Y-24130000D01*
X59690000Y-30480000D02*
X72390000Y-30480000D01*
X72390000Y-30480000D02*
X72390000Y-33020000D01*
X72390000Y-33020000D02*
X59690000Y-33020000D01*
X59690000Y-33020000D02*
X59690000Y-30480000D01*
G04 #@! TO.C,U1*
X35839001Y-44195001D02*
X35839001Y-49275001D01*
X61239001Y-44195001D02*
X35839001Y-44195001D01*
X61239001Y-49275001D02*
X61239001Y-44195001D01*
X35839001Y-92455001D02*
X61239001Y-92455001D01*
X35839001Y-87375001D02*
X35839001Y-92455001D01*
X61239001Y-92455001D02*
X61239001Y-87375001D01*
X35839001Y-49275001D02*
X61239001Y-49275001D01*
X61239001Y-87375001D02*
X35839001Y-87375001D01*
G04 #@! TO.C,U2*
X46310000Y-60820000D02*
X47310000Y-59820000D01*
X46310000Y-69720000D02*
X46310000Y-60820000D01*
X50210000Y-69720000D02*
X46310000Y-69720000D01*
X50210000Y-59820000D02*
X50210000Y-69720000D01*
X47310000Y-59820000D02*
X50210000Y-59820000D01*
G04 #@! TO.C,U3*
X41910000Y-74930000D02*
X58420000Y-74930000D01*
X58420000Y-85090000D02*
X41910000Y-85090000D01*
X58420000Y-74930000D02*
X58420000Y-85090000D01*
X41910000Y-74930000D02*
X41910000Y-85090000D01*
X54610000Y-77470000D02*
X54610000Y-82550000D01*
X52070000Y-74930000D02*
X54610000Y-77470000D01*
X46990000Y-74930000D02*
X52070000Y-74930000D01*
X44450000Y-77470000D02*
X46990000Y-74930000D01*
X44450000Y-82550000D02*
X44450000Y-77470000D01*
X46990000Y-85090000D02*
X44450000Y-82550000D01*
X52070000Y-85090000D02*
X46990000Y-85090000D01*
X54610000Y-82550000D02*
X52070000Y-85090000D01*
D13*
G04 #@! TO.C,G\002A\002A\002A*
G36*
X95190296Y-94688164D02*
X95321517Y-94707090D01*
X95428356Y-94738151D01*
X95444653Y-94745207D01*
X95510055Y-94775515D01*
X95449913Y-94765341D01*
X95240596Y-94741866D01*
X95044537Y-94743429D01*
X94870644Y-94769934D01*
X94863463Y-94771716D01*
X94660824Y-94838355D01*
X94449659Y-94938212D01*
X94229250Y-95071873D01*
X93998876Y-95239923D01*
X93757816Y-95442949D01*
X93505351Y-95681538D01*
X93240760Y-95956276D01*
X92963322Y-96267749D01*
X92825074Y-96430839D01*
X92696995Y-96585526D01*
X92574634Y-96736369D01*
X92456074Y-96886139D01*
X92339397Y-97037610D01*
X92222686Y-97193551D01*
X92104023Y-97356736D01*
X91981492Y-97529936D01*
X91853173Y-97715923D01*
X91717151Y-97917469D01*
X91571507Y-98137345D01*
X91414324Y-98378324D01*
X91243684Y-98643177D01*
X91057670Y-98934676D01*
X90854365Y-99255593D01*
X90683514Y-99526583D01*
X90293904Y-100154857D01*
X89919170Y-100777698D01*
X89565337Y-101385054D01*
X89476286Y-101541342D01*
X89395809Y-101682546D01*
X89302572Y-101844950D01*
X89204253Y-102015258D01*
X89108527Y-102180173D01*
X89024535Y-102323903D01*
X88940877Y-102467310D01*
X88849109Y-102626125D01*
X88756314Y-102787992D01*
X88669573Y-102940554D01*
X88595970Y-103071455D01*
X88593615Y-103075679D01*
X88530138Y-103189371D01*
X88469919Y-103296868D01*
X88416964Y-103391044D01*
X88375282Y-103464774D01*
X88348876Y-103510935D01*
X88348045Y-103512364D01*
X88297615Y-103598935D01*
X88219788Y-103392080D01*
X88178968Y-103289777D01*
X88128218Y-103172282D01*
X88070084Y-103044592D01*
X88007113Y-102911699D01*
X87941850Y-102778601D01*
X87876841Y-102650290D01*
X87814633Y-102531762D01*
X87757771Y-102428012D01*
X87708802Y-102344035D01*
X87670271Y-102284825D01*
X87644724Y-102255377D01*
X87639174Y-102253023D01*
X87625704Y-102269784D01*
X87596788Y-102316261D01*
X87555763Y-102386747D01*
X87505963Y-102475534D01*
X87460512Y-102558745D01*
X87387123Y-102694118D01*
X87308428Y-102838354D01*
X87226822Y-102987146D01*
X87144703Y-103136186D01*
X87064468Y-103281164D01*
X86988513Y-103417774D01*
X86919234Y-103541707D01*
X86859029Y-103648655D01*
X86810294Y-103734310D01*
X86775426Y-103794364D01*
X86756821Y-103824508D01*
X86755109Y-103826740D01*
X86753719Y-103817940D01*
X86764375Y-103778415D01*
X86785052Y-103714984D01*
X86805732Y-103656338D01*
X86855954Y-103518344D01*
X86911780Y-103366117D01*
X86971614Y-103203907D01*
X87033861Y-103035963D01*
X87096926Y-102866536D01*
X87159212Y-102699876D01*
X87219123Y-102540233D01*
X87275065Y-102391857D01*
X87325441Y-102258998D01*
X87368656Y-102145905D01*
X87403113Y-102056830D01*
X87427219Y-101996022D01*
X87439376Y-101967731D01*
X87440236Y-101966346D01*
X87457145Y-101974186D01*
X87488860Y-102009279D01*
X87529307Y-102064649D01*
X87540578Y-102081619D01*
X87582394Y-102143421D01*
X87616476Y-102189424D01*
X87636725Y-102211512D01*
X87638810Y-102212355D01*
X87651503Y-102195289D01*
X87680039Y-102147800D01*
X87721563Y-102074934D01*
X87773223Y-101981739D01*
X87832166Y-101873259D01*
X87861988Y-101817651D01*
X87932220Y-101686887D01*
X88016305Y-101531514D01*
X88108572Y-101361938D01*
X88203349Y-101188570D01*
X88294964Y-101021817D01*
X88350573Y-100921105D01*
X88431296Y-100775017D01*
X88526119Y-100603000D01*
X88629946Y-100414326D01*
X88737679Y-100218265D01*
X88844223Y-100024089D01*
X88944480Y-99841069D01*
X88979432Y-99777175D01*
X89141875Y-99482446D01*
X89301433Y-99197541D01*
X89456376Y-98925359D01*
X89604976Y-98668799D01*
X89745505Y-98430762D01*
X89876234Y-98214146D01*
X89995435Y-98021852D01*
X90101380Y-97856779D01*
X90192341Y-97721826D01*
X90261045Y-97627103D01*
X90357283Y-97511060D01*
X90443114Y-97427627D01*
X90517116Y-97377597D01*
X90577866Y-97361766D01*
X90623942Y-97380926D01*
X90645353Y-97412530D01*
X90665199Y-97466081D01*
X90668615Y-97497565D01*
X90657320Y-97501769D01*
X90633036Y-97473482D01*
X90627912Y-97465350D01*
X90589227Y-97418363D01*
X90553286Y-97405230D01*
X90552810Y-97405315D01*
X90515134Y-97429364D01*
X90462954Y-97489414D01*
X90396904Y-97584341D01*
X90317618Y-97713021D01*
X90225730Y-97874327D01*
X90121874Y-98067135D01*
X90006683Y-98290321D01*
X89880793Y-98542758D01*
X89744836Y-98823322D01*
X89696316Y-98925162D01*
X89648532Y-99026982D01*
X89590209Y-99153105D01*
X89522815Y-99300231D01*
X89447818Y-99465061D01*
X89366684Y-99644296D01*
X89280881Y-99834636D01*
X89191878Y-100032781D01*
X89101140Y-100235434D01*
X89010136Y-100439293D01*
X88920334Y-100641061D01*
X88833200Y-100837437D01*
X88750203Y-101025122D01*
X88672809Y-101200818D01*
X88602486Y-101361224D01*
X88540702Y-101503041D01*
X88488925Y-101622970D01*
X88448621Y-101717711D01*
X88421258Y-101783966D01*
X88408304Y-101818435D01*
X88407544Y-101822679D01*
X88419818Y-101808334D01*
X88451247Y-101765107D01*
X88498724Y-101697460D01*
X88559139Y-101609857D01*
X88629383Y-101506758D01*
X88683930Y-101425987D01*
X88774860Y-101291700D01*
X88882512Y-101134131D01*
X89004139Y-100957205D01*
X89136993Y-100764850D01*
X89278327Y-100560990D01*
X89425392Y-100349551D01*
X89575440Y-100134459D01*
X89725725Y-99919641D01*
X89873497Y-99709021D01*
X90016009Y-99506525D01*
X90150514Y-99316081D01*
X90274263Y-99141612D01*
X90384509Y-98987046D01*
X90478504Y-98856308D01*
X90553500Y-98753323D01*
X90574657Y-98724688D01*
X90940612Y-98238074D01*
X91289607Y-97786639D01*
X91622400Y-97369594D01*
X91939745Y-96986150D01*
X92242402Y-96635518D01*
X92531125Y-96316910D01*
X92806672Y-96029536D01*
X93069799Y-95772607D01*
X93321263Y-95545334D01*
X93561822Y-95346928D01*
X93792230Y-95176601D01*
X94013246Y-95033562D01*
X94225626Y-94917024D01*
X94227024Y-94916329D01*
X94385335Y-94840775D01*
X94520076Y-94784057D01*
X94641115Y-94742891D01*
X94758322Y-94713993D01*
X94881567Y-94694079D01*
X94902741Y-94691479D01*
X95046701Y-94682564D01*
X95190296Y-94688164D01*
X95190296Y-94688164D01*
G37*
X95190296Y-94688164D02*
X95321517Y-94707090D01*
X95428356Y-94738151D01*
X95444653Y-94745207D01*
X95510055Y-94775515D01*
X95449913Y-94765341D01*
X95240596Y-94741866D01*
X95044537Y-94743429D01*
X94870644Y-94769934D01*
X94863463Y-94771716D01*
X94660824Y-94838355D01*
X94449659Y-94938212D01*
X94229250Y-95071873D01*
X93998876Y-95239923D01*
X93757816Y-95442949D01*
X93505351Y-95681538D01*
X93240760Y-95956276D01*
X92963322Y-96267749D01*
X92825074Y-96430839D01*
X92696995Y-96585526D01*
X92574634Y-96736369D01*
X92456074Y-96886139D01*
X92339397Y-97037610D01*
X92222686Y-97193551D01*
X92104023Y-97356736D01*
X91981492Y-97529936D01*
X91853173Y-97715923D01*
X91717151Y-97917469D01*
X91571507Y-98137345D01*
X91414324Y-98378324D01*
X91243684Y-98643177D01*
X91057670Y-98934676D01*
X90854365Y-99255593D01*
X90683514Y-99526583D01*
X90293904Y-100154857D01*
X89919170Y-100777698D01*
X89565337Y-101385054D01*
X89476286Y-101541342D01*
X89395809Y-101682546D01*
X89302572Y-101844950D01*
X89204253Y-102015258D01*
X89108527Y-102180173D01*
X89024535Y-102323903D01*
X88940877Y-102467310D01*
X88849109Y-102626125D01*
X88756314Y-102787992D01*
X88669573Y-102940554D01*
X88595970Y-103071455D01*
X88593615Y-103075679D01*
X88530138Y-103189371D01*
X88469919Y-103296868D01*
X88416964Y-103391044D01*
X88375282Y-103464774D01*
X88348876Y-103510935D01*
X88348045Y-103512364D01*
X88297615Y-103598935D01*
X88219788Y-103392080D01*
X88178968Y-103289777D01*
X88128218Y-103172282D01*
X88070084Y-103044592D01*
X88007113Y-102911699D01*
X87941850Y-102778601D01*
X87876841Y-102650290D01*
X87814633Y-102531762D01*
X87757771Y-102428012D01*
X87708802Y-102344035D01*
X87670271Y-102284825D01*
X87644724Y-102255377D01*
X87639174Y-102253023D01*
X87625704Y-102269784D01*
X87596788Y-102316261D01*
X87555763Y-102386747D01*
X87505963Y-102475534D01*
X87460512Y-102558745D01*
X87387123Y-102694118D01*
X87308428Y-102838354D01*
X87226822Y-102987146D01*
X87144703Y-103136186D01*
X87064468Y-103281164D01*
X86988513Y-103417774D01*
X86919234Y-103541707D01*
X86859029Y-103648655D01*
X86810294Y-103734310D01*
X86775426Y-103794364D01*
X86756821Y-103824508D01*
X86755109Y-103826740D01*
X86753719Y-103817940D01*
X86764375Y-103778415D01*
X86785052Y-103714984D01*
X86805732Y-103656338D01*
X86855954Y-103518344D01*
X86911780Y-103366117D01*
X86971614Y-103203907D01*
X87033861Y-103035963D01*
X87096926Y-102866536D01*
X87159212Y-102699876D01*
X87219123Y-102540233D01*
X87275065Y-102391857D01*
X87325441Y-102258998D01*
X87368656Y-102145905D01*
X87403113Y-102056830D01*
X87427219Y-101996022D01*
X87439376Y-101967731D01*
X87440236Y-101966346D01*
X87457145Y-101974186D01*
X87488860Y-102009279D01*
X87529307Y-102064649D01*
X87540578Y-102081619D01*
X87582394Y-102143421D01*
X87616476Y-102189424D01*
X87636725Y-102211512D01*
X87638810Y-102212355D01*
X87651503Y-102195289D01*
X87680039Y-102147800D01*
X87721563Y-102074934D01*
X87773223Y-101981739D01*
X87832166Y-101873259D01*
X87861988Y-101817651D01*
X87932220Y-101686887D01*
X88016305Y-101531514D01*
X88108572Y-101361938D01*
X88203349Y-101188570D01*
X88294964Y-101021817D01*
X88350573Y-100921105D01*
X88431296Y-100775017D01*
X88526119Y-100603000D01*
X88629946Y-100414326D01*
X88737679Y-100218265D01*
X88844223Y-100024089D01*
X88944480Y-99841069D01*
X88979432Y-99777175D01*
X89141875Y-99482446D01*
X89301433Y-99197541D01*
X89456376Y-98925359D01*
X89604976Y-98668799D01*
X89745505Y-98430762D01*
X89876234Y-98214146D01*
X89995435Y-98021852D01*
X90101380Y-97856779D01*
X90192341Y-97721826D01*
X90261045Y-97627103D01*
X90357283Y-97511060D01*
X90443114Y-97427627D01*
X90517116Y-97377597D01*
X90577866Y-97361766D01*
X90623942Y-97380926D01*
X90645353Y-97412530D01*
X90665199Y-97466081D01*
X90668615Y-97497565D01*
X90657320Y-97501769D01*
X90633036Y-97473482D01*
X90627912Y-97465350D01*
X90589227Y-97418363D01*
X90553286Y-97405230D01*
X90552810Y-97405315D01*
X90515134Y-97429364D01*
X90462954Y-97489414D01*
X90396904Y-97584341D01*
X90317618Y-97713021D01*
X90225730Y-97874327D01*
X90121874Y-98067135D01*
X90006683Y-98290321D01*
X89880793Y-98542758D01*
X89744836Y-98823322D01*
X89696316Y-98925162D01*
X89648532Y-99026982D01*
X89590209Y-99153105D01*
X89522815Y-99300231D01*
X89447818Y-99465061D01*
X89366684Y-99644296D01*
X89280881Y-99834636D01*
X89191878Y-100032781D01*
X89101140Y-100235434D01*
X89010136Y-100439293D01*
X88920334Y-100641061D01*
X88833200Y-100837437D01*
X88750203Y-101025122D01*
X88672809Y-101200818D01*
X88602486Y-101361224D01*
X88540702Y-101503041D01*
X88488925Y-101622970D01*
X88448621Y-101717711D01*
X88421258Y-101783966D01*
X88408304Y-101818435D01*
X88407544Y-101822679D01*
X88419818Y-101808334D01*
X88451247Y-101765107D01*
X88498724Y-101697460D01*
X88559139Y-101609857D01*
X88629383Y-101506758D01*
X88683930Y-101425987D01*
X88774860Y-101291700D01*
X88882512Y-101134131D01*
X89004139Y-100957205D01*
X89136993Y-100764850D01*
X89278327Y-100560990D01*
X89425392Y-100349551D01*
X89575440Y-100134459D01*
X89725725Y-99919641D01*
X89873497Y-99709021D01*
X90016009Y-99506525D01*
X90150514Y-99316081D01*
X90274263Y-99141612D01*
X90384509Y-98987046D01*
X90478504Y-98856308D01*
X90553500Y-98753323D01*
X90574657Y-98724688D01*
X90940612Y-98238074D01*
X91289607Y-97786639D01*
X91622400Y-97369594D01*
X91939745Y-96986150D01*
X92242402Y-96635518D01*
X92531125Y-96316910D01*
X92806672Y-96029536D01*
X93069799Y-95772607D01*
X93321263Y-95545334D01*
X93561822Y-95346928D01*
X93792230Y-95176601D01*
X94013246Y-95033562D01*
X94225626Y-94917024D01*
X94227024Y-94916329D01*
X94385335Y-94840775D01*
X94520076Y-94784057D01*
X94641115Y-94742891D01*
X94758322Y-94713993D01*
X94881567Y-94694079D01*
X94902741Y-94691479D01*
X95046701Y-94682564D01*
X95190296Y-94688164D01*
G36*
X86739337Y-103866835D02*
X86729313Y-103876859D01*
X86719289Y-103866835D01*
X86729313Y-103856812D01*
X86739337Y-103866835D01*
X86739337Y-103866835D01*
G37*
X86739337Y-103866835D02*
X86729313Y-103876859D01*
X86719289Y-103866835D01*
X86729313Y-103856812D01*
X86739337Y-103866835D01*
G36*
X88620170Y-99157611D02*
X88609672Y-99181774D01*
X88575531Y-99233175D01*
X88555943Y-99260909D01*
X88519301Y-99314996D01*
X88483400Y-99374363D01*
X88445987Y-99443759D01*
X88404808Y-99527930D01*
X88357612Y-99631623D01*
X88302145Y-99759588D01*
X88236155Y-99916570D01*
X88177406Y-100058624D01*
X88127441Y-100181283D01*
X88065817Y-100334588D01*
X87995206Y-100511741D01*
X87918280Y-100705942D01*
X87837710Y-100910392D01*
X87756168Y-101118291D01*
X87676326Y-101322841D01*
X87600855Y-101517241D01*
X87532427Y-101694693D01*
X87473713Y-101848396D01*
X87462031Y-101879234D01*
X87440390Y-101936463D01*
X87327944Y-101782488D01*
X87278227Y-101718114D01*
X87236245Y-101670588D01*
X87207808Y-101646135D01*
X87199719Y-101645069D01*
X87188500Y-101665536D01*
X87161384Y-101719087D01*
X87119860Y-101802677D01*
X87065417Y-101913261D01*
X86999546Y-102047794D01*
X86923735Y-102203231D01*
X86839475Y-102376529D01*
X86748255Y-102564641D01*
X86651564Y-102764523D01*
X86612978Y-102844420D01*
X86390828Y-103304354D01*
X86184686Y-103730569D01*
X85993335Y-104125556D01*
X85815557Y-104491802D01*
X85650136Y-104831795D01*
X85495855Y-105148025D01*
X85351496Y-105442979D01*
X85215843Y-105719147D01*
X85087678Y-105979016D01*
X84965785Y-106225075D01*
X84848945Y-106459813D01*
X84735943Y-106685717D01*
X84671619Y-106813797D01*
X84584440Y-106988165D01*
X84509996Y-107138061D01*
X84445641Y-107266926D01*
X84388726Y-107378204D01*
X84336604Y-107475334D01*
X84286628Y-107561760D01*
X84236150Y-107640924D01*
X84182522Y-107716266D01*
X84123096Y-107791229D01*
X84055226Y-107869254D01*
X83976263Y-107953784D01*
X83883560Y-108048261D01*
X83774470Y-108156125D01*
X83646344Y-108280820D01*
X83496536Y-108425787D01*
X83322397Y-108594467D01*
X83241073Y-108673497D01*
X83094388Y-108817027D01*
X82950879Y-108958950D01*
X82814292Y-109095461D01*
X82688371Y-109222753D01*
X82576861Y-109337020D01*
X82483505Y-109434456D01*
X82412049Y-109511253D01*
X82370455Y-109558503D01*
X82257334Y-109691510D01*
X82120161Y-109848784D01*
X81962950Y-110025956D01*
X81789711Y-110218656D01*
X81604457Y-110422516D01*
X81411200Y-110633164D01*
X81213951Y-110846233D01*
X81016722Y-111057352D01*
X80823525Y-111262153D01*
X80638373Y-111456265D01*
X80465276Y-111635319D01*
X80436952Y-111664340D01*
X80341157Y-111762621D01*
X80255622Y-111850909D01*
X80184047Y-111925343D01*
X80130126Y-111982064D01*
X80097557Y-112017213D01*
X80089380Y-112027233D01*
X80114021Y-112036012D01*
X80169850Y-112052074D01*
X80249050Y-112073426D01*
X80343801Y-112098076D01*
X80446286Y-112124029D01*
X80548687Y-112149294D01*
X80643185Y-112171877D01*
X80721961Y-112189786D01*
X80752396Y-112196239D01*
X80881147Y-112220516D01*
X80974716Y-112233302D01*
X81036262Y-112234831D01*
X81068946Y-112225338D01*
X81073786Y-112220074D01*
X81092939Y-112201177D01*
X81136278Y-112163621D01*
X81196528Y-112113605D01*
X81240360Y-112078114D01*
X81396716Y-111952685D01*
X81080296Y-112251125D01*
X81148293Y-112263294D01*
X81268816Y-112280726D01*
X81413271Y-112294847D01*
X81576185Y-112305697D01*
X81752084Y-112313315D01*
X81935496Y-112317742D01*
X82120945Y-112319018D01*
X82302960Y-112317183D01*
X82476067Y-112312277D01*
X82634792Y-112304340D01*
X82773662Y-112293411D01*
X82887203Y-112279533D01*
X82969942Y-112262743D01*
X83005792Y-112249697D01*
X83028715Y-112226044D01*
X83069288Y-112171075D01*
X83125348Y-112088331D01*
X83194733Y-111981353D01*
X83275282Y-111853685D01*
X83364833Y-111708866D01*
X83461222Y-111550440D01*
X83562290Y-111381947D01*
X83665873Y-111206930D01*
X83769811Y-111028930D01*
X83871940Y-110851489D01*
X83970099Y-110678149D01*
X84023354Y-110582699D01*
X84107862Y-110432909D01*
X84198624Y-110276522D01*
X84290349Y-110122349D01*
X84377745Y-109979199D01*
X84455522Y-109855883D01*
X84504972Y-109780805D01*
X84578957Y-109667836D01*
X84664879Y-109530584D01*
X84755974Y-109380231D01*
X84845478Y-109227962D01*
X84926627Y-109084958D01*
X84934746Y-109070285D01*
X85034375Y-108894271D01*
X85132347Y-108731593D01*
X85235707Y-108571314D01*
X85351505Y-108402500D01*
X85483822Y-108218273D01*
X85767167Y-107822387D01*
X86034919Y-107431254D01*
X86293303Y-107035227D01*
X86548544Y-106624660D01*
X86806866Y-106189905D01*
X86926903Y-105981831D01*
X86998932Y-105858058D01*
X87064478Y-105751220D01*
X87129447Y-105652944D01*
X87199749Y-105554858D01*
X87281291Y-105448591D01*
X87379981Y-105325772D01*
X87450357Y-105240079D01*
X87547485Y-105122262D01*
X87644097Y-105004744D01*
X87734715Y-104894212D01*
X87813860Y-104797353D01*
X87876055Y-104720857D01*
X87901944Y-104688777D01*
X87964249Y-104612024D01*
X88043135Y-104516051D01*
X88129229Y-104412200D01*
X88213160Y-104311813D01*
X88227036Y-104295317D01*
X88295374Y-104212571D01*
X88353360Y-104139315D01*
X88396466Y-104081516D01*
X88420161Y-104045136D01*
X88423314Y-104036863D01*
X88417966Y-104006758D01*
X88404204Y-103952047D01*
X88385452Y-103884512D01*
X88365135Y-103815938D01*
X88346677Y-103758108D01*
X88333502Y-103722806D01*
X88330576Y-103717730D01*
X88313072Y-103725848D01*
X88275456Y-103755639D01*
X88228807Y-103797920D01*
X88182542Y-103839611D01*
X88160884Y-103853425D01*
X88165083Y-103838587D01*
X88166188Y-103836764D01*
X88194216Y-103788029D01*
X88228697Y-103724022D01*
X88242301Y-103697715D01*
X88269659Y-103646291D01*
X88286437Y-103626323D01*
X88299648Y-103633236D01*
X88311157Y-103652794D01*
X88321947Y-103669196D01*
X88335573Y-103674817D01*
X88357190Y-103666435D01*
X88391951Y-103640825D01*
X88445009Y-103594768D01*
X88521517Y-103525040D01*
X88534380Y-103513217D01*
X88761282Y-103306348D01*
X88963424Y-103125930D01*
X89143791Y-102969474D01*
X89305370Y-102834487D01*
X89451148Y-102718480D01*
X89584110Y-102618962D01*
X89707244Y-102533441D01*
X89716369Y-102527388D01*
X89879573Y-102426332D01*
X90019226Y-102354396D01*
X90134635Y-102311826D01*
X90225104Y-102298869D01*
X90289938Y-102315770D01*
X90297742Y-102321150D01*
X90319143Y-102339895D01*
X90315159Y-102349050D01*
X90279983Y-102352182D01*
X90246537Y-102352622D01*
X90157162Y-102365878D01*
X90068484Y-102408297D01*
X90064536Y-102410781D01*
X89994319Y-102460393D01*
X89903376Y-102532131D01*
X89799096Y-102619536D01*
X89688867Y-102716148D01*
X89580078Y-102815507D01*
X89480119Y-102911155D01*
X89405635Y-102986799D01*
X89343775Y-103052738D01*
X89265412Y-103137276D01*
X89174658Y-103235882D01*
X89075628Y-103344024D01*
X88972435Y-103457169D01*
X88869192Y-103570785D01*
X88770012Y-103680342D01*
X88679010Y-103781307D01*
X88600298Y-103869147D01*
X88537991Y-103939332D01*
X88496201Y-103987330D01*
X88482492Y-104003839D01*
X88438307Y-104060012D01*
X88492529Y-104304229D01*
X88537070Y-104516350D01*
X88571703Y-104710481D01*
X88597739Y-104897955D01*
X88616488Y-105090105D01*
X88629260Y-105298266D01*
X88637367Y-105533771D01*
X88638052Y-105562784D01*
X88640564Y-105888695D01*
X88631828Y-106186201D01*
X88610804Y-106465667D01*
X88576453Y-106737461D01*
X88527736Y-107011950D01*
X88464275Y-107296774D01*
X88325504Y-107785444D01*
X88150070Y-108259623D01*
X87939384Y-108717386D01*
X87694859Y-109156805D01*
X87417907Y-109575954D01*
X87109939Y-109972908D01*
X86772367Y-110345741D01*
X86406603Y-110692526D01*
X86014059Y-111011337D01*
X85596147Y-111300248D01*
X85474245Y-111375846D01*
X85058205Y-111606805D01*
X84622999Y-111808839D01*
X84175296Y-111979436D01*
X83721764Y-112116082D01*
X83269072Y-112216267D01*
X83221026Y-112224712D01*
X83115641Y-112246162D01*
X83047644Y-112268286D01*
X83014847Y-112291216D01*
X82996661Y-112317149D01*
X82959197Y-112371166D01*
X82905881Y-112448304D01*
X82840142Y-112543600D01*
X82765405Y-112652093D01*
X82706437Y-112737790D01*
X82486434Y-113050128D01*
X82279473Y-113327915D01*
X82083298Y-113573662D01*
X81895650Y-113789879D01*
X81714273Y-113979075D01*
X81536910Y-114143762D01*
X81361302Y-114286449D01*
X81228772Y-114380952D01*
X81111967Y-114452270D01*
X80977500Y-114522952D01*
X80838127Y-114587096D01*
X80706602Y-114638796D01*
X80603822Y-114670216D01*
X80439419Y-114699405D01*
X80261519Y-114712385D01*
X80087598Y-114708557D01*
X79959457Y-114692314D01*
X79721888Y-114626922D01*
X79494200Y-114522747D01*
X79276701Y-114379939D01*
X79201412Y-114319486D01*
X79143299Y-114274232D01*
X79095995Y-114250742D01*
X79042213Y-114242173D01*
X79003989Y-114241342D01*
X78735330Y-114225596D01*
X78462728Y-114180125D01*
X78397896Y-114162529D01*
X79879448Y-114162529D01*
X79907202Y-114179937D01*
X79933259Y-114188075D01*
X79971283Y-114192449D01*
X80037050Y-114194593D01*
X80118257Y-114194188D01*
X80143756Y-114193523D01*
X80260699Y-114185079D01*
X80357194Y-114165655D01*
X80440032Y-114136681D01*
X80575544Y-114074808D01*
X80696817Y-114003952D01*
X80814664Y-113916688D01*
X80939896Y-113805588D01*
X80984293Y-113762813D01*
X81049812Y-113697544D01*
X81098510Y-113646755D01*
X81126780Y-113614408D01*
X81131014Y-113604467D01*
X81126077Y-113607061D01*
X80918869Y-113735754D01*
X80739831Y-113838380D01*
X80587435Y-113915813D01*
X80580141Y-113919199D01*
X80472557Y-113965311D01*
X80349342Y-114012435D01*
X80221641Y-114056821D01*
X80100601Y-114094723D01*
X79997366Y-114122391D01*
X79943033Y-114133447D01*
X79891465Y-114146621D01*
X79879448Y-114162529D01*
X78397896Y-114162529D01*
X78195416Y-114107575D01*
X77942631Y-114010594D01*
X77713610Y-113891830D01*
X77653924Y-113854327D01*
X77584891Y-113814161D01*
X77517035Y-113782941D01*
X77477458Y-113770448D01*
X77425259Y-113754940D01*
X77351893Y-113726928D01*
X77271951Y-113692047D01*
X77260291Y-113686569D01*
X77099921Y-113588573D01*
X77099661Y-113588329D01*
X79051927Y-113588329D01*
X79058577Y-113604223D01*
X79077316Y-113625713D01*
X79081738Y-113630421D01*
X79106818Y-113655152D01*
X79131743Y-113670443D01*
X79164265Y-113676525D01*
X79212136Y-113673635D01*
X79283110Y-113662004D01*
X79384938Y-113641869D01*
X79394786Y-113639870D01*
X79476709Y-113621603D01*
X79570565Y-113598104D01*
X79669096Y-113571520D01*
X79765047Y-113543995D01*
X79851162Y-113517677D01*
X79920186Y-113494711D01*
X79964863Y-113477243D01*
X79977937Y-113467419D01*
X79977921Y-113467404D01*
X79956238Y-113467321D01*
X79904702Y-113473407D01*
X79832868Y-113484448D01*
X79802271Y-113489686D01*
X79714812Y-113502992D01*
X79602064Y-113517182D01*
X79478748Y-113530533D01*
X79362603Y-113541085D01*
X79239127Y-113551162D01*
X79150966Y-113559448D01*
X79093476Y-113567419D01*
X79062012Y-113576554D01*
X79051927Y-113588329D01*
X77099661Y-113588329D01*
X76960868Y-113458086D01*
X76844473Y-113297381D01*
X76752080Y-113108731D01*
X76685029Y-112894410D01*
X76644663Y-112656691D01*
X76643032Y-112640857D01*
X76628926Y-112554651D01*
X76604152Y-112452430D01*
X76573826Y-112355036D01*
X76570870Y-112346867D01*
X76492400Y-112105347D01*
X76482304Y-112066204D01*
X76872962Y-112066204D01*
X76881707Y-112209596D01*
X76890568Y-112296917D01*
X76908612Y-112368508D01*
X76941608Y-112443413D01*
X76966738Y-112490259D01*
X77137326Y-112766185D01*
X77322540Y-113005878D01*
X77523654Y-113210915D01*
X77607766Y-113282711D01*
X77728050Y-113380155D01*
X77858358Y-113367729D01*
X77926235Y-113360228D01*
X77976316Y-113352765D01*
X77997019Y-113347257D01*
X78001314Y-113341860D01*
X77997487Y-113334742D01*
X77979237Y-113321442D01*
X77940261Y-113297496D01*
X77874257Y-113258443D01*
X77858358Y-113249075D01*
X77639254Y-113101440D01*
X77442515Y-112928805D01*
X77264940Y-112727598D01*
X77103325Y-112494248D01*
X76972608Y-112261128D01*
X76872962Y-112066204D01*
X76482304Y-112066204D01*
X76421084Y-111828868D01*
X76357886Y-111522088D01*
X76303770Y-111189662D01*
X76261542Y-110853339D01*
X76252331Y-110748373D01*
X76244603Y-110620661D01*
X76238400Y-110476284D01*
X76233764Y-110321326D01*
X76230739Y-110161866D01*
X76229367Y-110003988D01*
X76229690Y-109853773D01*
X76231752Y-109717303D01*
X76235594Y-109600661D01*
X76241259Y-109509927D01*
X76248790Y-109451185D01*
X76251645Y-109440000D01*
X76262695Y-109409673D01*
X76268834Y-109408137D01*
X76271789Y-109439442D01*
X76273008Y-109490119D01*
X76279516Y-109649394D01*
X76293544Y-109838538D01*
X76313906Y-110048277D01*
X76339417Y-110269343D01*
X76368890Y-110492462D01*
X76401141Y-110708366D01*
X76434984Y-110907781D01*
X76469234Y-111081439D01*
X76485816Y-111154364D01*
X76516447Y-111276459D01*
X76548912Y-111396877D01*
X76581357Y-111509657D01*
X76611930Y-111608841D01*
X76638774Y-111688468D01*
X76660036Y-111742581D01*
X76673861Y-111765218D01*
X76675900Y-111765285D01*
X76694315Y-111732833D01*
X76703520Y-111669083D01*
X76703529Y-111581758D01*
X76694358Y-111478580D01*
X76676021Y-111367270D01*
X76675130Y-111362917D01*
X76646090Y-111213499D01*
X76622493Y-111070485D01*
X76603780Y-110927069D01*
X76589393Y-110776445D01*
X76578773Y-110611806D01*
X76571362Y-110426346D01*
X76566602Y-110213258D01*
X76564271Y-110011350D01*
X76561147Y-109620931D01*
X76676545Y-109620931D01*
X76678470Y-109698829D01*
X76682447Y-109795822D01*
X76688127Y-109904951D01*
X76695160Y-110019257D01*
X76703198Y-110131778D01*
X76711893Y-110235557D01*
X76717414Y-110292013D01*
X76728550Y-110386111D01*
X76743347Y-110494012D01*
X76760488Y-110607844D01*
X76778656Y-110719737D01*
X76796536Y-110821818D01*
X76812811Y-110906218D01*
X76826165Y-110965064D01*
X76833883Y-110988495D01*
X76844707Y-110980353D01*
X76864562Y-110940199D01*
X76890734Y-110874357D01*
X76920510Y-110789151D01*
X76924173Y-110777998D01*
X76969274Y-110643500D01*
X77009607Y-110530557D01*
X77043645Y-110443009D01*
X77069863Y-110384697D01*
X77086735Y-110359461D01*
X77090461Y-110359422D01*
X77089787Y-110381129D01*
X77081802Y-110434227D01*
X77067828Y-110510954D01*
X77049190Y-110603547D01*
X77047311Y-110612478D01*
X77021714Y-110738871D01*
X76994452Y-110881890D01*
X76969488Y-111020376D01*
X76956646Y-111096268D01*
X76917618Y-111335490D01*
X76978537Y-111510397D01*
X77029512Y-111644521D01*
X77092546Y-111791599D01*
X77162329Y-111940583D01*
X77233554Y-112080426D01*
X77300911Y-112200084D01*
X77338515Y-112259455D01*
X77434113Y-112386066D01*
X77550124Y-112516495D01*
X77674393Y-112638121D01*
X77794764Y-112738323D01*
X77811442Y-112750517D01*
X77872117Y-112790415D01*
X77946834Y-112834373D01*
X78027588Y-112878342D01*
X78106372Y-112918274D01*
X78175180Y-112950120D01*
X78226005Y-112969832D01*
X78250842Y-112973359D01*
X78251329Y-112972970D01*
X78247638Y-112952128D01*
X78230303Y-112904544D01*
X78202850Y-112839708D01*
X78196751Y-112826155D01*
X78137564Y-112689949D01*
X78070983Y-112526910D01*
X78001368Y-112348539D01*
X77933077Y-112166337D01*
X77870468Y-111991805D01*
X77817900Y-111836445D01*
X77798579Y-111775517D01*
X77765170Y-111663845D01*
X77729124Y-111537632D01*
X77692063Y-111403178D01*
X77655608Y-111266786D01*
X77621383Y-111134756D01*
X77591009Y-111013389D01*
X77566109Y-110908986D01*
X77548304Y-110827849D01*
X77539217Y-110776279D01*
X77538392Y-110764852D01*
X77545701Y-110772533D01*
X77566090Y-110813510D01*
X77597836Y-110883818D01*
X77639214Y-110979492D01*
X77688502Y-111096566D01*
X77743975Y-111231074D01*
X77785966Y-111334475D01*
X77874004Y-111550839D01*
X77951409Y-111736599D01*
X78021450Y-111898759D01*
X78087399Y-112044321D01*
X78152524Y-112180290D01*
X78220095Y-112313668D01*
X78293383Y-112451460D01*
X78375656Y-112600668D01*
X78384545Y-112616561D01*
X78464504Y-112758327D01*
X78528283Y-112868485D01*
X78578531Y-112950820D01*
X78617900Y-113009122D01*
X78649042Y-113047177D01*
X78674606Y-113068774D01*
X78697244Y-113077700D01*
X78707927Y-113078595D01*
X78744261Y-113067917D01*
X78804129Y-113039095D01*
X78878201Y-112996951D01*
X78933877Y-112961862D01*
X79015595Y-112905636D01*
X79116798Y-112832141D01*
X79226182Y-112749788D01*
X79332441Y-112666988D01*
X79362077Y-112643272D01*
X79381294Y-112627530D01*
X80544704Y-112627530D01*
X80554727Y-112637553D01*
X80564751Y-112627530D01*
X80554727Y-112617506D01*
X80544704Y-112627530D01*
X79381294Y-112627530D01*
X79401985Y-112610581D01*
X80584798Y-112610581D01*
X80600123Y-112606784D01*
X80645930Y-112577412D01*
X80721971Y-112522641D01*
X80827994Y-112442649D01*
X80881762Y-112401297D01*
X80949275Y-112347669D01*
X81001801Y-112303110D01*
X81033172Y-112273039D01*
X81039034Y-112263165D01*
X81021377Y-112271660D01*
X80979390Y-112299993D01*
X80919989Y-112342878D01*
X80850088Y-112395024D01*
X80776602Y-112451144D01*
X80706445Y-112505949D01*
X80646532Y-112554150D01*
X80603779Y-112590459D01*
X80585099Y-112609587D01*
X80584798Y-112610581D01*
X79401985Y-112610581D01*
X79448364Y-112572590D01*
X79543102Y-112493080D01*
X79641700Y-112408808D01*
X79739567Y-112323838D01*
X79832114Y-112242235D01*
X79914750Y-112168065D01*
X79982885Y-112105391D01*
X80031928Y-112058280D01*
X80057289Y-112030796D01*
X80059582Y-112025599D01*
X80039528Y-112016811D01*
X79989271Y-111997171D01*
X79916283Y-111969542D01*
X79828036Y-111936788D01*
X79823526Y-111935130D01*
X79356600Y-111742980D01*
X78905864Y-111516478D01*
X78474027Y-111257623D01*
X78063795Y-110968416D01*
X77677876Y-110650859D01*
X77318978Y-110306952D01*
X76989807Y-109938695D01*
X76806759Y-109705628D01*
X76756136Y-109639188D01*
X76714385Y-109586930D01*
X76687198Y-109555843D01*
X76680243Y-109550261D01*
X76677019Y-109569088D01*
X76676545Y-109620931D01*
X76561147Y-109620931D01*
X76559056Y-109359811D01*
X76425017Y-109139290D01*
X76180357Y-108698515D01*
X75971470Y-108240001D01*
X75798282Y-107763525D01*
X75660717Y-107268865D01*
X75558701Y-106755796D01*
X75510336Y-106402826D01*
X75500990Y-106291182D01*
X75494059Y-106148677D01*
X75489545Y-105984473D01*
X75487447Y-105807732D01*
X75487764Y-105627615D01*
X75490498Y-105453283D01*
X75495648Y-105293898D01*
X75503214Y-105158621D01*
X75510336Y-105079700D01*
X75589002Y-104553219D01*
X75703743Y-104044222D01*
X75854597Y-103552617D01*
X76041600Y-103078314D01*
X76264790Y-102621221D01*
X76524205Y-102181248D01*
X76819882Y-101758303D01*
X76934159Y-101611508D01*
X77036218Y-101489920D01*
X77160537Y-101351238D01*
X77298684Y-101204169D01*
X77442229Y-101057421D01*
X77582741Y-100919701D01*
X77711788Y-100799716D01*
X77768145Y-100750155D01*
X78171338Y-100430104D01*
X78595269Y-100144064D01*
X79038416Y-99892699D01*
X79499260Y-99676672D01*
X79976278Y-99496644D01*
X80467950Y-99353278D01*
X80972756Y-99247238D01*
X81336574Y-99195172D01*
X81485765Y-99181673D01*
X81663600Y-99171702D01*
X81859672Y-99165340D01*
X82063575Y-99162668D01*
X82264903Y-99163765D01*
X82453249Y-99168712D01*
X82618207Y-99177590D01*
X82699794Y-99184646D01*
X83218962Y-99257341D01*
X83721992Y-99366691D01*
X84209312Y-99512872D01*
X84681349Y-99696061D01*
X85138529Y-99916434D01*
X85581281Y-100174168D01*
X86010032Y-100469439D01*
X86238153Y-100646385D01*
X86325659Y-100720493D01*
X86430033Y-100814409D01*
X86545193Y-100922132D01*
X86665054Y-101037660D01*
X86783533Y-101154992D01*
X86894548Y-101268126D01*
X86992014Y-101371061D01*
X87069848Y-101457796D01*
X87110213Y-101506709D01*
X87152626Y-101559545D01*
X87185240Y-101596957D01*
X87200426Y-101610481D01*
X87211514Y-101593392D01*
X87238341Y-101544633D01*
X87278722Y-101468396D01*
X87330469Y-101368875D01*
X87391397Y-101250265D01*
X87459319Y-101116758D01*
X87505718Y-101024900D01*
X87649583Y-100742242D01*
X87787942Y-100476193D01*
X87919596Y-100228827D01*
X88043346Y-100002219D01*
X88157994Y-99798443D01*
X88262341Y-99619574D01*
X88355187Y-99467687D01*
X88435335Y-99344855D01*
X88501586Y-99253154D01*
X88552740Y-99194659D01*
X88572872Y-99178120D01*
X88607684Y-99157466D01*
X88620170Y-99157611D01*
X88620170Y-99157611D01*
G37*
X88620170Y-99157611D02*
X88609672Y-99181774D01*
X88575531Y-99233175D01*
X88555943Y-99260909D01*
X88519301Y-99314996D01*
X88483400Y-99374363D01*
X88445987Y-99443759D01*
X88404808Y-99527930D01*
X88357612Y-99631623D01*
X88302145Y-99759588D01*
X88236155Y-99916570D01*
X88177406Y-100058624D01*
X88127441Y-100181283D01*
X88065817Y-100334588D01*
X87995206Y-100511741D01*
X87918280Y-100705942D01*
X87837710Y-100910392D01*
X87756168Y-101118291D01*
X87676326Y-101322841D01*
X87600855Y-101517241D01*
X87532427Y-101694693D01*
X87473713Y-101848396D01*
X87462031Y-101879234D01*
X87440390Y-101936463D01*
X87327944Y-101782488D01*
X87278227Y-101718114D01*
X87236245Y-101670588D01*
X87207808Y-101646135D01*
X87199719Y-101645069D01*
X87188500Y-101665536D01*
X87161384Y-101719087D01*
X87119860Y-101802677D01*
X87065417Y-101913261D01*
X86999546Y-102047794D01*
X86923735Y-102203231D01*
X86839475Y-102376529D01*
X86748255Y-102564641D01*
X86651564Y-102764523D01*
X86612978Y-102844420D01*
X86390828Y-103304354D01*
X86184686Y-103730569D01*
X85993335Y-104125556D01*
X85815557Y-104491802D01*
X85650136Y-104831795D01*
X85495855Y-105148025D01*
X85351496Y-105442979D01*
X85215843Y-105719147D01*
X85087678Y-105979016D01*
X84965785Y-106225075D01*
X84848945Y-106459813D01*
X84735943Y-106685717D01*
X84671619Y-106813797D01*
X84584440Y-106988165D01*
X84509996Y-107138061D01*
X84445641Y-107266926D01*
X84388726Y-107378204D01*
X84336604Y-107475334D01*
X84286628Y-107561760D01*
X84236150Y-107640924D01*
X84182522Y-107716266D01*
X84123096Y-107791229D01*
X84055226Y-107869254D01*
X83976263Y-107953784D01*
X83883560Y-108048261D01*
X83774470Y-108156125D01*
X83646344Y-108280820D01*
X83496536Y-108425787D01*
X83322397Y-108594467D01*
X83241073Y-108673497D01*
X83094388Y-108817027D01*
X82950879Y-108958950D01*
X82814292Y-109095461D01*
X82688371Y-109222753D01*
X82576861Y-109337020D01*
X82483505Y-109434456D01*
X82412049Y-109511253D01*
X82370455Y-109558503D01*
X82257334Y-109691510D01*
X82120161Y-109848784D01*
X81962950Y-110025956D01*
X81789711Y-110218656D01*
X81604457Y-110422516D01*
X81411200Y-110633164D01*
X81213951Y-110846233D01*
X81016722Y-111057352D01*
X80823525Y-111262153D01*
X80638373Y-111456265D01*
X80465276Y-111635319D01*
X80436952Y-111664340D01*
X80341157Y-111762621D01*
X80255622Y-111850909D01*
X80184047Y-111925343D01*
X80130126Y-111982064D01*
X80097557Y-112017213D01*
X80089380Y-112027233D01*
X80114021Y-112036012D01*
X80169850Y-112052074D01*
X80249050Y-112073426D01*
X80343801Y-112098076D01*
X80446286Y-112124029D01*
X80548687Y-112149294D01*
X80643185Y-112171877D01*
X80721961Y-112189786D01*
X80752396Y-112196239D01*
X80881147Y-112220516D01*
X80974716Y-112233302D01*
X81036262Y-112234831D01*
X81068946Y-112225338D01*
X81073786Y-112220074D01*
X81092939Y-112201177D01*
X81136278Y-112163621D01*
X81196528Y-112113605D01*
X81240360Y-112078114D01*
X81396716Y-111952685D01*
X81080296Y-112251125D01*
X81148293Y-112263294D01*
X81268816Y-112280726D01*
X81413271Y-112294847D01*
X81576185Y-112305697D01*
X81752084Y-112313315D01*
X81935496Y-112317742D01*
X82120945Y-112319018D01*
X82302960Y-112317183D01*
X82476067Y-112312277D01*
X82634792Y-112304340D01*
X82773662Y-112293411D01*
X82887203Y-112279533D01*
X82969942Y-112262743D01*
X83005792Y-112249697D01*
X83028715Y-112226044D01*
X83069288Y-112171075D01*
X83125348Y-112088331D01*
X83194733Y-111981353D01*
X83275282Y-111853685D01*
X83364833Y-111708866D01*
X83461222Y-111550440D01*
X83562290Y-111381947D01*
X83665873Y-111206930D01*
X83769811Y-111028930D01*
X83871940Y-110851489D01*
X83970099Y-110678149D01*
X84023354Y-110582699D01*
X84107862Y-110432909D01*
X84198624Y-110276522D01*
X84290349Y-110122349D01*
X84377745Y-109979199D01*
X84455522Y-109855883D01*
X84504972Y-109780805D01*
X84578957Y-109667836D01*
X84664879Y-109530584D01*
X84755974Y-109380231D01*
X84845478Y-109227962D01*
X84926627Y-109084958D01*
X84934746Y-109070285D01*
X85034375Y-108894271D01*
X85132347Y-108731593D01*
X85235707Y-108571314D01*
X85351505Y-108402500D01*
X85483822Y-108218273D01*
X85767167Y-107822387D01*
X86034919Y-107431254D01*
X86293303Y-107035227D01*
X86548544Y-106624660D01*
X86806866Y-106189905D01*
X86926903Y-105981831D01*
X86998932Y-105858058D01*
X87064478Y-105751220D01*
X87129447Y-105652944D01*
X87199749Y-105554858D01*
X87281291Y-105448591D01*
X87379981Y-105325772D01*
X87450357Y-105240079D01*
X87547485Y-105122262D01*
X87644097Y-105004744D01*
X87734715Y-104894212D01*
X87813860Y-104797353D01*
X87876055Y-104720857D01*
X87901944Y-104688777D01*
X87964249Y-104612024D01*
X88043135Y-104516051D01*
X88129229Y-104412200D01*
X88213160Y-104311813D01*
X88227036Y-104295317D01*
X88295374Y-104212571D01*
X88353360Y-104139315D01*
X88396466Y-104081516D01*
X88420161Y-104045136D01*
X88423314Y-104036863D01*
X88417966Y-104006758D01*
X88404204Y-103952047D01*
X88385452Y-103884512D01*
X88365135Y-103815938D01*
X88346677Y-103758108D01*
X88333502Y-103722806D01*
X88330576Y-103717730D01*
X88313072Y-103725848D01*
X88275456Y-103755639D01*
X88228807Y-103797920D01*
X88182542Y-103839611D01*
X88160884Y-103853425D01*
X88165083Y-103838587D01*
X88166188Y-103836764D01*
X88194216Y-103788029D01*
X88228697Y-103724022D01*
X88242301Y-103697715D01*
X88269659Y-103646291D01*
X88286437Y-103626323D01*
X88299648Y-103633236D01*
X88311157Y-103652794D01*
X88321947Y-103669196D01*
X88335573Y-103674817D01*
X88357190Y-103666435D01*
X88391951Y-103640825D01*
X88445009Y-103594768D01*
X88521517Y-103525040D01*
X88534380Y-103513217D01*
X88761282Y-103306348D01*
X88963424Y-103125930D01*
X89143791Y-102969474D01*
X89305370Y-102834487D01*
X89451148Y-102718480D01*
X89584110Y-102618962D01*
X89707244Y-102533441D01*
X89716369Y-102527388D01*
X89879573Y-102426332D01*
X90019226Y-102354396D01*
X90134635Y-102311826D01*
X90225104Y-102298869D01*
X90289938Y-102315770D01*
X90297742Y-102321150D01*
X90319143Y-102339895D01*
X90315159Y-102349050D01*
X90279983Y-102352182D01*
X90246537Y-102352622D01*
X90157162Y-102365878D01*
X90068484Y-102408297D01*
X90064536Y-102410781D01*
X89994319Y-102460393D01*
X89903376Y-102532131D01*
X89799096Y-102619536D01*
X89688867Y-102716148D01*
X89580078Y-102815507D01*
X89480119Y-102911155D01*
X89405635Y-102986799D01*
X89343775Y-103052738D01*
X89265412Y-103137276D01*
X89174658Y-103235882D01*
X89075628Y-103344024D01*
X88972435Y-103457169D01*
X88869192Y-103570785D01*
X88770012Y-103680342D01*
X88679010Y-103781307D01*
X88600298Y-103869147D01*
X88537991Y-103939332D01*
X88496201Y-103987330D01*
X88482492Y-104003839D01*
X88438307Y-104060012D01*
X88492529Y-104304229D01*
X88537070Y-104516350D01*
X88571703Y-104710481D01*
X88597739Y-104897955D01*
X88616488Y-105090105D01*
X88629260Y-105298266D01*
X88637367Y-105533771D01*
X88638052Y-105562784D01*
X88640564Y-105888695D01*
X88631828Y-106186201D01*
X88610804Y-106465667D01*
X88576453Y-106737461D01*
X88527736Y-107011950D01*
X88464275Y-107296774D01*
X88325504Y-107785444D01*
X88150070Y-108259623D01*
X87939384Y-108717386D01*
X87694859Y-109156805D01*
X87417907Y-109575954D01*
X87109939Y-109972908D01*
X86772367Y-110345741D01*
X86406603Y-110692526D01*
X86014059Y-111011337D01*
X85596147Y-111300248D01*
X85474245Y-111375846D01*
X85058205Y-111606805D01*
X84622999Y-111808839D01*
X84175296Y-111979436D01*
X83721764Y-112116082D01*
X83269072Y-112216267D01*
X83221026Y-112224712D01*
X83115641Y-112246162D01*
X83047644Y-112268286D01*
X83014847Y-112291216D01*
X82996661Y-112317149D01*
X82959197Y-112371166D01*
X82905881Y-112448304D01*
X82840142Y-112543600D01*
X82765405Y-112652093D01*
X82706437Y-112737790D01*
X82486434Y-113050128D01*
X82279473Y-113327915D01*
X82083298Y-113573662D01*
X81895650Y-113789879D01*
X81714273Y-113979075D01*
X81536910Y-114143762D01*
X81361302Y-114286449D01*
X81228772Y-114380952D01*
X81111967Y-114452270D01*
X80977500Y-114522952D01*
X80838127Y-114587096D01*
X80706602Y-114638796D01*
X80603822Y-114670216D01*
X80439419Y-114699405D01*
X80261519Y-114712385D01*
X80087598Y-114708557D01*
X79959457Y-114692314D01*
X79721888Y-114626922D01*
X79494200Y-114522747D01*
X79276701Y-114379939D01*
X79201412Y-114319486D01*
X79143299Y-114274232D01*
X79095995Y-114250742D01*
X79042213Y-114242173D01*
X79003989Y-114241342D01*
X78735330Y-114225596D01*
X78462728Y-114180125D01*
X78397896Y-114162529D01*
X79879448Y-114162529D01*
X79907202Y-114179937D01*
X79933259Y-114188075D01*
X79971283Y-114192449D01*
X80037050Y-114194593D01*
X80118257Y-114194188D01*
X80143756Y-114193523D01*
X80260699Y-114185079D01*
X80357194Y-114165655D01*
X80440032Y-114136681D01*
X80575544Y-114074808D01*
X80696817Y-114003952D01*
X80814664Y-113916688D01*
X80939896Y-113805588D01*
X80984293Y-113762813D01*
X81049812Y-113697544D01*
X81098510Y-113646755D01*
X81126780Y-113614408D01*
X81131014Y-113604467D01*
X81126077Y-113607061D01*
X80918869Y-113735754D01*
X80739831Y-113838380D01*
X80587435Y-113915813D01*
X80580141Y-113919199D01*
X80472557Y-113965311D01*
X80349342Y-114012435D01*
X80221641Y-114056821D01*
X80100601Y-114094723D01*
X79997366Y-114122391D01*
X79943033Y-114133447D01*
X79891465Y-114146621D01*
X79879448Y-114162529D01*
X78397896Y-114162529D01*
X78195416Y-114107575D01*
X77942631Y-114010594D01*
X77713610Y-113891830D01*
X77653924Y-113854327D01*
X77584891Y-113814161D01*
X77517035Y-113782941D01*
X77477458Y-113770448D01*
X77425259Y-113754940D01*
X77351893Y-113726928D01*
X77271951Y-113692047D01*
X77260291Y-113686569D01*
X77099921Y-113588573D01*
X77099661Y-113588329D01*
X79051927Y-113588329D01*
X79058577Y-113604223D01*
X79077316Y-113625713D01*
X79081738Y-113630421D01*
X79106818Y-113655152D01*
X79131743Y-113670443D01*
X79164265Y-113676525D01*
X79212136Y-113673635D01*
X79283110Y-113662004D01*
X79384938Y-113641869D01*
X79394786Y-113639870D01*
X79476709Y-113621603D01*
X79570565Y-113598104D01*
X79669096Y-113571520D01*
X79765047Y-113543995D01*
X79851162Y-113517677D01*
X79920186Y-113494711D01*
X79964863Y-113477243D01*
X79977937Y-113467419D01*
X79977921Y-113467404D01*
X79956238Y-113467321D01*
X79904702Y-113473407D01*
X79832868Y-113484448D01*
X79802271Y-113489686D01*
X79714812Y-113502992D01*
X79602064Y-113517182D01*
X79478748Y-113530533D01*
X79362603Y-113541085D01*
X79239127Y-113551162D01*
X79150966Y-113559448D01*
X79093476Y-113567419D01*
X79062012Y-113576554D01*
X79051927Y-113588329D01*
X77099661Y-113588329D01*
X76960868Y-113458086D01*
X76844473Y-113297381D01*
X76752080Y-113108731D01*
X76685029Y-112894410D01*
X76644663Y-112656691D01*
X76643032Y-112640857D01*
X76628926Y-112554651D01*
X76604152Y-112452430D01*
X76573826Y-112355036D01*
X76570870Y-112346867D01*
X76492400Y-112105347D01*
X76482304Y-112066204D01*
X76872962Y-112066204D01*
X76881707Y-112209596D01*
X76890568Y-112296917D01*
X76908612Y-112368508D01*
X76941608Y-112443413D01*
X76966738Y-112490259D01*
X77137326Y-112766185D01*
X77322540Y-113005878D01*
X77523654Y-113210915D01*
X77607766Y-113282711D01*
X77728050Y-113380155D01*
X77858358Y-113367729D01*
X77926235Y-113360228D01*
X77976316Y-113352765D01*
X77997019Y-113347257D01*
X78001314Y-113341860D01*
X77997487Y-113334742D01*
X77979237Y-113321442D01*
X77940261Y-113297496D01*
X77874257Y-113258443D01*
X77858358Y-113249075D01*
X77639254Y-113101440D01*
X77442515Y-112928805D01*
X77264940Y-112727598D01*
X77103325Y-112494248D01*
X76972608Y-112261128D01*
X76872962Y-112066204D01*
X76482304Y-112066204D01*
X76421084Y-111828868D01*
X76357886Y-111522088D01*
X76303770Y-111189662D01*
X76261542Y-110853339D01*
X76252331Y-110748373D01*
X76244603Y-110620661D01*
X76238400Y-110476284D01*
X76233764Y-110321326D01*
X76230739Y-110161866D01*
X76229367Y-110003988D01*
X76229690Y-109853773D01*
X76231752Y-109717303D01*
X76235594Y-109600661D01*
X76241259Y-109509927D01*
X76248790Y-109451185D01*
X76251645Y-109440000D01*
X76262695Y-109409673D01*
X76268834Y-109408137D01*
X76271789Y-109439442D01*
X76273008Y-109490119D01*
X76279516Y-109649394D01*
X76293544Y-109838538D01*
X76313906Y-110048277D01*
X76339417Y-110269343D01*
X76368890Y-110492462D01*
X76401141Y-110708366D01*
X76434984Y-110907781D01*
X76469234Y-111081439D01*
X76485816Y-111154364D01*
X76516447Y-111276459D01*
X76548912Y-111396877D01*
X76581357Y-111509657D01*
X76611930Y-111608841D01*
X76638774Y-111688468D01*
X76660036Y-111742581D01*
X76673861Y-111765218D01*
X76675900Y-111765285D01*
X76694315Y-111732833D01*
X76703520Y-111669083D01*
X76703529Y-111581758D01*
X76694358Y-111478580D01*
X76676021Y-111367270D01*
X76675130Y-111362917D01*
X76646090Y-111213499D01*
X76622493Y-111070485D01*
X76603780Y-110927069D01*
X76589393Y-110776445D01*
X76578773Y-110611806D01*
X76571362Y-110426346D01*
X76566602Y-110213258D01*
X76564271Y-110011350D01*
X76561147Y-109620931D01*
X76676545Y-109620931D01*
X76678470Y-109698829D01*
X76682447Y-109795822D01*
X76688127Y-109904951D01*
X76695160Y-110019257D01*
X76703198Y-110131778D01*
X76711893Y-110235557D01*
X76717414Y-110292013D01*
X76728550Y-110386111D01*
X76743347Y-110494012D01*
X76760488Y-110607844D01*
X76778656Y-110719737D01*
X76796536Y-110821818D01*
X76812811Y-110906218D01*
X76826165Y-110965064D01*
X76833883Y-110988495D01*
X76844707Y-110980353D01*
X76864562Y-110940199D01*
X76890734Y-110874357D01*
X76920510Y-110789151D01*
X76924173Y-110777998D01*
X76969274Y-110643500D01*
X77009607Y-110530557D01*
X77043645Y-110443009D01*
X77069863Y-110384697D01*
X77086735Y-110359461D01*
X77090461Y-110359422D01*
X77089787Y-110381129D01*
X77081802Y-110434227D01*
X77067828Y-110510954D01*
X77049190Y-110603547D01*
X77047311Y-110612478D01*
X77021714Y-110738871D01*
X76994452Y-110881890D01*
X76969488Y-111020376D01*
X76956646Y-111096268D01*
X76917618Y-111335490D01*
X76978537Y-111510397D01*
X77029512Y-111644521D01*
X77092546Y-111791599D01*
X77162329Y-111940583D01*
X77233554Y-112080426D01*
X77300911Y-112200084D01*
X77338515Y-112259455D01*
X77434113Y-112386066D01*
X77550124Y-112516495D01*
X77674393Y-112638121D01*
X77794764Y-112738323D01*
X77811442Y-112750517D01*
X77872117Y-112790415D01*
X77946834Y-112834373D01*
X78027588Y-112878342D01*
X78106372Y-112918274D01*
X78175180Y-112950120D01*
X78226005Y-112969832D01*
X78250842Y-112973359D01*
X78251329Y-112972970D01*
X78247638Y-112952128D01*
X78230303Y-112904544D01*
X78202850Y-112839708D01*
X78196751Y-112826155D01*
X78137564Y-112689949D01*
X78070983Y-112526910D01*
X78001368Y-112348539D01*
X77933077Y-112166337D01*
X77870468Y-111991805D01*
X77817900Y-111836445D01*
X77798579Y-111775517D01*
X77765170Y-111663845D01*
X77729124Y-111537632D01*
X77692063Y-111403178D01*
X77655608Y-111266786D01*
X77621383Y-111134756D01*
X77591009Y-111013389D01*
X77566109Y-110908986D01*
X77548304Y-110827849D01*
X77539217Y-110776279D01*
X77538392Y-110764852D01*
X77545701Y-110772533D01*
X77566090Y-110813510D01*
X77597836Y-110883818D01*
X77639214Y-110979492D01*
X77688502Y-111096566D01*
X77743975Y-111231074D01*
X77785966Y-111334475D01*
X77874004Y-111550839D01*
X77951409Y-111736599D01*
X78021450Y-111898759D01*
X78087399Y-112044321D01*
X78152524Y-112180290D01*
X78220095Y-112313668D01*
X78293383Y-112451460D01*
X78375656Y-112600668D01*
X78384545Y-112616561D01*
X78464504Y-112758327D01*
X78528283Y-112868485D01*
X78578531Y-112950820D01*
X78617900Y-113009122D01*
X78649042Y-113047177D01*
X78674606Y-113068774D01*
X78697244Y-113077700D01*
X78707927Y-113078595D01*
X78744261Y-113067917D01*
X78804129Y-113039095D01*
X78878201Y-112996951D01*
X78933877Y-112961862D01*
X79015595Y-112905636D01*
X79116798Y-112832141D01*
X79226182Y-112749788D01*
X79332441Y-112666988D01*
X79362077Y-112643272D01*
X79381294Y-112627530D01*
X80544704Y-112627530D01*
X80554727Y-112637553D01*
X80564751Y-112627530D01*
X80554727Y-112617506D01*
X80544704Y-112627530D01*
X79381294Y-112627530D01*
X79401985Y-112610581D01*
X80584798Y-112610581D01*
X80600123Y-112606784D01*
X80645930Y-112577412D01*
X80721971Y-112522641D01*
X80827994Y-112442649D01*
X80881762Y-112401297D01*
X80949275Y-112347669D01*
X81001801Y-112303110D01*
X81033172Y-112273039D01*
X81039034Y-112263165D01*
X81021377Y-112271660D01*
X80979390Y-112299993D01*
X80919989Y-112342878D01*
X80850088Y-112395024D01*
X80776602Y-112451144D01*
X80706445Y-112505949D01*
X80646532Y-112554150D01*
X80603779Y-112590459D01*
X80585099Y-112609587D01*
X80584798Y-112610581D01*
X79401985Y-112610581D01*
X79448364Y-112572590D01*
X79543102Y-112493080D01*
X79641700Y-112408808D01*
X79739567Y-112323838D01*
X79832114Y-112242235D01*
X79914750Y-112168065D01*
X79982885Y-112105391D01*
X80031928Y-112058280D01*
X80057289Y-112030796D01*
X80059582Y-112025599D01*
X80039528Y-112016811D01*
X79989271Y-111997171D01*
X79916283Y-111969542D01*
X79828036Y-111936788D01*
X79823526Y-111935130D01*
X79356600Y-111742980D01*
X78905864Y-111516478D01*
X78474027Y-111257623D01*
X78063795Y-110968416D01*
X77677876Y-110650859D01*
X77318978Y-110306952D01*
X76989807Y-109938695D01*
X76806759Y-109705628D01*
X76756136Y-109639188D01*
X76714385Y-109586930D01*
X76687198Y-109555843D01*
X76680243Y-109550261D01*
X76677019Y-109569088D01*
X76676545Y-109620931D01*
X76561147Y-109620931D01*
X76559056Y-109359811D01*
X76425017Y-109139290D01*
X76180357Y-108698515D01*
X75971470Y-108240001D01*
X75798282Y-107763525D01*
X75660717Y-107268865D01*
X75558701Y-106755796D01*
X75510336Y-106402826D01*
X75500990Y-106291182D01*
X75494059Y-106148677D01*
X75489545Y-105984473D01*
X75487447Y-105807732D01*
X75487764Y-105627615D01*
X75490498Y-105453283D01*
X75495648Y-105293898D01*
X75503214Y-105158621D01*
X75510336Y-105079700D01*
X75589002Y-104553219D01*
X75703743Y-104044222D01*
X75854597Y-103552617D01*
X76041600Y-103078314D01*
X76264790Y-102621221D01*
X76524205Y-102181248D01*
X76819882Y-101758303D01*
X76934159Y-101611508D01*
X77036218Y-101489920D01*
X77160537Y-101351238D01*
X77298684Y-101204169D01*
X77442229Y-101057421D01*
X77582741Y-100919701D01*
X77711788Y-100799716D01*
X77768145Y-100750155D01*
X78171338Y-100430104D01*
X78595269Y-100144064D01*
X79038416Y-99892699D01*
X79499260Y-99676672D01*
X79976278Y-99496644D01*
X80467950Y-99353278D01*
X80972756Y-99247238D01*
X81336574Y-99195172D01*
X81485765Y-99181673D01*
X81663600Y-99171702D01*
X81859672Y-99165340D01*
X82063575Y-99162668D01*
X82264903Y-99163765D01*
X82453249Y-99168712D01*
X82618207Y-99177590D01*
X82699794Y-99184646D01*
X83218962Y-99257341D01*
X83721992Y-99366691D01*
X84209312Y-99512872D01*
X84681349Y-99696061D01*
X85138529Y-99916434D01*
X85581281Y-100174168D01*
X86010032Y-100469439D01*
X86238153Y-100646385D01*
X86325659Y-100720493D01*
X86430033Y-100814409D01*
X86545193Y-100922132D01*
X86665054Y-101037660D01*
X86783533Y-101154992D01*
X86894548Y-101268126D01*
X86992014Y-101371061D01*
X87069848Y-101457796D01*
X87110213Y-101506709D01*
X87152626Y-101559545D01*
X87185240Y-101596957D01*
X87200426Y-101610481D01*
X87211514Y-101593392D01*
X87238341Y-101544633D01*
X87278722Y-101468396D01*
X87330469Y-101368875D01*
X87391397Y-101250265D01*
X87459319Y-101116758D01*
X87505718Y-101024900D01*
X87649583Y-100742242D01*
X87787942Y-100476193D01*
X87919596Y-100228827D01*
X88043346Y-100002219D01*
X88157994Y-99798443D01*
X88262341Y-99619574D01*
X88355187Y-99467687D01*
X88435335Y-99344855D01*
X88501586Y-99253154D01*
X88552740Y-99194659D01*
X88572872Y-99178120D01*
X88607684Y-99157466D01*
X88620170Y-99157611D01*
G04 #@! TO.C,C1*
D12*
X45553333Y-56077142D02*
X45505714Y-56124761D01*
X45362857Y-56172380D01*
X45267619Y-56172380D01*
X45124761Y-56124761D01*
X45029523Y-56029523D01*
X44981904Y-55934285D01*
X44934285Y-55743809D01*
X44934285Y-55600952D01*
X44981904Y-55410476D01*
X45029523Y-55315238D01*
X45124761Y-55220000D01*
X45267619Y-55172380D01*
X45362857Y-55172380D01*
X45505714Y-55220000D01*
X45553333Y-55267619D01*
X46505714Y-56172380D02*
X45934285Y-56172380D01*
X46220000Y-56172380D02*
X46220000Y-55172380D01*
X46124761Y-55315238D01*
X46029523Y-55410476D01*
X45934285Y-55458095D01*
G04 #@! TO.C,C2*
X42427142Y-68746666D02*
X42474761Y-68794285D01*
X42522380Y-68937142D01*
X42522380Y-69032380D01*
X42474761Y-69175238D01*
X42379523Y-69270476D01*
X42284285Y-69318095D01*
X42093809Y-69365714D01*
X41950952Y-69365714D01*
X41760476Y-69318095D01*
X41665238Y-69270476D01*
X41570000Y-69175238D01*
X41522380Y-69032380D01*
X41522380Y-68937142D01*
X41570000Y-68794285D01*
X41617619Y-68746666D01*
X41617619Y-68365714D02*
X41570000Y-68318095D01*
X41522380Y-68222857D01*
X41522380Y-67984761D01*
X41570000Y-67889523D01*
X41617619Y-67841904D01*
X41712857Y-67794285D01*
X41808095Y-67794285D01*
X41950952Y-67841904D01*
X42522380Y-68413333D01*
X42522380Y-67794285D01*
G04 #@! TO.C,C3*
X63483742Y-78500266D02*
X63531361Y-78547885D01*
X63578980Y-78690742D01*
X63578980Y-78785980D01*
X63531361Y-78928838D01*
X63436123Y-79024076D01*
X63340885Y-79071695D01*
X63150409Y-79119314D01*
X63007552Y-79119314D01*
X62817076Y-79071695D01*
X62721838Y-79024076D01*
X62626600Y-78928838D01*
X62578980Y-78785980D01*
X62578980Y-78690742D01*
X62626600Y-78547885D01*
X62674219Y-78500266D01*
X62578980Y-78166933D02*
X62578980Y-77547885D01*
X62959933Y-77881219D01*
X62959933Y-77738361D01*
X63007552Y-77643123D01*
X63055171Y-77595504D01*
X63150409Y-77547885D01*
X63388504Y-77547885D01*
X63483742Y-77595504D01*
X63531361Y-77643123D01*
X63578980Y-77738361D01*
X63578980Y-78024076D01*
X63531361Y-78119314D01*
X63483742Y-78166933D01*
G04 #@! TO.C,C4*
X42427142Y-61126666D02*
X42474761Y-61174285D01*
X42522380Y-61317142D01*
X42522380Y-61412380D01*
X42474761Y-61555238D01*
X42379523Y-61650476D01*
X42284285Y-61698095D01*
X42093809Y-61745714D01*
X41950952Y-61745714D01*
X41760476Y-61698095D01*
X41665238Y-61650476D01*
X41570000Y-61555238D01*
X41522380Y-61412380D01*
X41522380Y-61317142D01*
X41570000Y-61174285D01*
X41617619Y-61126666D01*
X41855714Y-60269523D02*
X42522380Y-60269523D01*
X41474761Y-60507619D02*
X42189047Y-60745714D01*
X42189047Y-60126666D01*
G04 #@! TO.C,C5*
X42427142Y-64936666D02*
X42474761Y-64984285D01*
X42522380Y-65127142D01*
X42522380Y-65222380D01*
X42474761Y-65365238D01*
X42379523Y-65460476D01*
X42284285Y-65508095D01*
X42093809Y-65555714D01*
X41950952Y-65555714D01*
X41760476Y-65508095D01*
X41665238Y-65460476D01*
X41570000Y-65365238D01*
X41522380Y-65222380D01*
X41522380Y-65127142D01*
X41570000Y-64984285D01*
X41617619Y-64936666D01*
X41522380Y-64031904D02*
X41522380Y-64508095D01*
X41998571Y-64555714D01*
X41950952Y-64508095D01*
X41903333Y-64412857D01*
X41903333Y-64174761D01*
X41950952Y-64079523D01*
X41998571Y-64031904D01*
X42093809Y-63984285D01*
X42331904Y-63984285D01*
X42427142Y-64031904D01*
X42474761Y-64079523D01*
X42522380Y-64174761D01*
X42522380Y-64412857D01*
X42474761Y-64508095D01*
X42427142Y-64555714D01*
G04 #@! TO.C,C6*
X63728333Y-81477142D02*
X63680714Y-81524761D01*
X63537857Y-81572380D01*
X63442619Y-81572380D01*
X63299761Y-81524761D01*
X63204523Y-81429523D01*
X63156904Y-81334285D01*
X63109285Y-81143809D01*
X63109285Y-81000952D01*
X63156904Y-80810476D01*
X63204523Y-80715238D01*
X63299761Y-80620000D01*
X63442619Y-80572380D01*
X63537857Y-80572380D01*
X63680714Y-80620000D01*
X63728333Y-80667619D01*
X64585476Y-80572380D02*
X64395000Y-80572380D01*
X64299761Y-80620000D01*
X64252142Y-80667619D01*
X64156904Y-80810476D01*
X64109285Y-81000952D01*
X64109285Y-81381904D01*
X64156904Y-81477142D01*
X64204523Y-81524761D01*
X64299761Y-81572380D01*
X64490238Y-81572380D01*
X64585476Y-81524761D01*
X64633095Y-81477142D01*
X64680714Y-81381904D01*
X64680714Y-81143809D01*
X64633095Y-81048571D01*
X64585476Y-81000952D01*
X64490238Y-80953333D01*
X64299761Y-80953333D01*
X64204523Y-81000952D01*
X64156904Y-81048571D01*
X64109285Y-81143809D01*
G04 #@! TO.C,U1*
X62302715Y-91351667D02*
X62778905Y-91351667D01*
X62207477Y-91637381D02*
X62540810Y-90637381D01*
X62874143Y-91637381D01*
X63159858Y-90732620D02*
X63207477Y-90685001D01*
X63302715Y-90637381D01*
X63540810Y-90637381D01*
X63636048Y-90685001D01*
X63683667Y-90732620D01*
X63731286Y-90827858D01*
X63731286Y-90923096D01*
X63683667Y-91065953D01*
X63112239Y-91637381D01*
X63731286Y-91637381D01*
X62612239Y-88319572D02*
X62755096Y-88367191D01*
X62802715Y-88414810D01*
X62850334Y-88510048D01*
X62850334Y-88652905D01*
X62802715Y-88748143D01*
X62755096Y-88795762D01*
X62659858Y-88843381D01*
X62278905Y-88843381D01*
X62278905Y-87843381D01*
X62612239Y-87843381D01*
X62707477Y-87891001D01*
X62755096Y-87938620D01*
X62802715Y-88033858D01*
X62802715Y-88129096D01*
X62755096Y-88224334D01*
X62707477Y-88271953D01*
X62612239Y-88319572D01*
X62278905Y-88319572D01*
X63231286Y-87938620D02*
X63278905Y-87891001D01*
X63374143Y-87843381D01*
X63612239Y-87843381D01*
X63707477Y-87891001D01*
X63755096Y-87938620D01*
X63802715Y-88033858D01*
X63802715Y-88129096D01*
X63755096Y-88271953D01*
X63183667Y-88843381D01*
X63802715Y-88843381D01*
X61516905Y-45663381D02*
X61516905Y-44663381D01*
X61755001Y-44663381D01*
X61897858Y-44711001D01*
X61993096Y-44806239D01*
X62040715Y-44901477D01*
X62088334Y-45091953D01*
X62088334Y-45234810D01*
X62040715Y-45425286D01*
X61993096Y-45520524D01*
X61897858Y-45615762D01*
X61755001Y-45663381D01*
X61516905Y-45663381D01*
X62469286Y-44758620D02*
X62516905Y-44711001D01*
X62612143Y-44663381D01*
X62850239Y-44663381D01*
X62945477Y-44711001D01*
X62993096Y-44758620D01*
X63040715Y-44853858D01*
X63040715Y-44949096D01*
X62993096Y-45091953D01*
X62421667Y-45663381D01*
X63040715Y-45663381D01*
X62088334Y-48362143D02*
X62040715Y-48409762D01*
X61897858Y-48457381D01*
X61802620Y-48457381D01*
X61659762Y-48409762D01*
X61564524Y-48314524D01*
X61516905Y-48219286D01*
X61469286Y-48028810D01*
X61469286Y-47885953D01*
X61516905Y-47695477D01*
X61564524Y-47600239D01*
X61659762Y-47505001D01*
X61802620Y-47457381D01*
X61897858Y-47457381D01*
X62040715Y-47505001D01*
X62088334Y-47552620D01*
X62469286Y-47552620D02*
X62516905Y-47505001D01*
X62612143Y-47457381D01*
X62850239Y-47457381D01*
X62945477Y-47505001D01*
X62993096Y-47552620D01*
X63040715Y-47647858D01*
X63040715Y-47743096D01*
X62993096Y-47885953D01*
X62421667Y-48457381D01*
X63040715Y-48457381D01*
X59159477Y-84795381D02*
X59826143Y-85795381D01*
X59826143Y-84795381D02*
X59159477Y-85795381D01*
X60635667Y-84795381D02*
X60445191Y-84795381D01*
X60349953Y-84843001D01*
X60302334Y-84890620D01*
X60207096Y-85033477D01*
X60159477Y-85223953D01*
X60159477Y-85604905D01*
X60207096Y-85700143D01*
X60254715Y-85747762D01*
X60349953Y-85795381D01*
X60540429Y-85795381D01*
X60635667Y-85747762D01*
X60683286Y-85700143D01*
X60730905Y-85604905D01*
X60730905Y-85366810D01*
X60683286Y-85271572D01*
X60635667Y-85223953D01*
X60540429Y-85176334D01*
X60349953Y-85176334D01*
X60254715Y-85223953D01*
X60207096Y-85271572D01*
X60159477Y-85366810D01*
X59159477Y-50759381D02*
X59826143Y-51759381D01*
X59826143Y-50759381D02*
X59159477Y-51759381D01*
X60111858Y-50759381D02*
X60778524Y-50759381D01*
X60349953Y-51759381D01*
X37394715Y-87065381D02*
X36823286Y-87065381D01*
X37109001Y-87065381D02*
X37109001Y-86065381D01*
X37013762Y-86208239D01*
X36918524Y-86303477D01*
X36823286Y-86351096D01*
X59778524Y-87065381D02*
X59207096Y-87065381D01*
X59492810Y-87065381D02*
X59492810Y-86065381D01*
X59397572Y-86208239D01*
X59302334Y-86303477D01*
X59207096Y-86351096D01*
X60397572Y-86065381D02*
X60492810Y-86065381D01*
X60588048Y-86113001D01*
X60635667Y-86160620D01*
X60683286Y-86255858D01*
X60730905Y-86446334D01*
X60730905Y-86684429D01*
X60683286Y-86874905D01*
X60635667Y-86970143D01*
X60588048Y-87017762D01*
X60492810Y-87065381D01*
X60397572Y-87065381D01*
X60302334Y-87017762D01*
X60254715Y-86970143D01*
X60207096Y-86874905D01*
X60159477Y-86684429D01*
X60159477Y-86446334D01*
X60207096Y-86255858D01*
X60254715Y-86160620D01*
X60302334Y-86113001D01*
X60397572Y-86065381D01*
X59778524Y-50489381D02*
X59207096Y-50489381D01*
X59492810Y-50489381D02*
X59492810Y-49489381D01*
X59397572Y-49632239D01*
X59302334Y-49727477D01*
X59207096Y-49775096D01*
X60397572Y-49489381D02*
X60492810Y-49489381D01*
X60588048Y-49537001D01*
X60635667Y-49584620D01*
X60683286Y-49679858D01*
X60730905Y-49870334D01*
X60730905Y-50108429D01*
X60683286Y-50298905D01*
X60635667Y-50394143D01*
X60588048Y-50441762D01*
X60492810Y-50489381D01*
X60397572Y-50489381D01*
X60302334Y-50441762D01*
X60254715Y-50394143D01*
X60207096Y-50298905D01*
X60159477Y-50108429D01*
X60159477Y-49870334D01*
X60207096Y-49679858D01*
X60254715Y-49584620D01*
X60302334Y-49537001D01*
X60397572Y-49489381D01*
X37394715Y-50489381D02*
X36823286Y-50489381D01*
X37109001Y-50489381D02*
X37109001Y-49489381D01*
X37013762Y-49632239D01*
X36918524Y-49727477D01*
X36823286Y-49775096D01*
G04 #@! TO.C,U2*
X47498095Y-58222380D02*
X47498095Y-59031904D01*
X47545714Y-59127142D01*
X47593333Y-59174761D01*
X47688571Y-59222380D01*
X47879047Y-59222380D01*
X47974285Y-59174761D01*
X48021904Y-59127142D01*
X48069523Y-59031904D01*
X48069523Y-58222380D01*
X48498095Y-58317619D02*
X48545714Y-58270000D01*
X48640952Y-58222380D01*
X48879047Y-58222380D01*
X48974285Y-58270000D01*
X49021904Y-58317619D01*
X49069523Y-58412857D01*
X49069523Y-58508095D01*
X49021904Y-58650952D01*
X48450476Y-59222380D01*
X49069523Y-59222380D01*
G04 #@! TO.C,U3*
X48880780Y-81046533D02*
X48880780Y-80856057D01*
X48928400Y-80760819D01*
X49023638Y-80665580D01*
X49214114Y-80617961D01*
X49547447Y-80617961D01*
X49737923Y-80665580D01*
X49833161Y-80760819D01*
X49880780Y-80856057D01*
X49880780Y-81046533D01*
X49833161Y-81141771D01*
X49737923Y-81237009D01*
X49547447Y-81284628D01*
X49214114Y-81284628D01*
X49023638Y-81237009D01*
X48928400Y-81141771D01*
X48880780Y-81046533D01*
X49880780Y-80189390D02*
X48880780Y-80189390D01*
X49880780Y-79617961D02*
X49309352Y-80046533D01*
X48880780Y-79617961D02*
X49452209Y-80189390D01*
X49880780Y-79189390D02*
X48880780Y-79189390D01*
G04 #@! TD*
M02*
