G04 #@! TF.GenerationSoftware,KiCad,Pcbnew,(5.0.0)*
G04 #@! TF.CreationDate,2018-09-29T14:24:20-05:00*
G04 #@! TF.ProjectId,DriveBoard_Hardware,4472697665426F6172645F4861726477,rev?*
G04 #@! TF.SameCoordinates,Original*
G04 #@! TF.FileFunction,Copper,L1,Top,Signal*
G04 #@! TF.FilePolarity,Positive*
%FSLAX46Y46*%
G04 Gerber Fmt 4.6, Leading zero omitted, Abs format (unit mm)*
G04 Created by KiCad (PCBNEW (5.0.0)) date 09/29/18 14:24:20*
%MOMM*%
%LPD*%
G01*
G04 APERTURE LIST*
G04 #@! TA.AperFunction,ComponentPad*
%ADD10C,5.080000*%
G04 #@! TD*
G04 #@! TA.AperFunction,ComponentPad*
%ADD11C,1.524000*%
G04 #@! TD*
G04 #@! TA.AperFunction,ComponentPad*
%ADD12C,1.520000*%
G04 #@! TD*
G04 #@! TA.AperFunction,SMDPad,CuDef*
%ADD13R,1.500000X0.600000*%
G04 #@! TD*
G04 #@! TA.AperFunction,Conductor*
%ADD14C,0.100000*%
G04 #@! TD*
G04 #@! TA.AperFunction,SMDPad,CuDef*
%ADD15C,0.950000*%
G04 #@! TD*
G04 #@! TA.AperFunction,ViaPad*
%ADD16C,0.800000*%
G04 #@! TD*
G04 #@! TA.AperFunction,Conductor*
%ADD17C,0.381000*%
G04 #@! TD*
G04 #@! TA.AperFunction,Conductor*
%ADD18C,0.254000*%
G04 #@! TD*
G04 APERTURE END LIST*
D10*
G04 #@! TO.P,Conn1,1*
G04 #@! TO.N,GND*
X129540000Y-92329000D03*
G04 #@! TO.P,Conn1,2*
G04 #@! TO.N,/+12V*
X129540000Y-100330000D03*
G04 #@! TD*
D11*
G04 #@! TO.P,Conn2,1*
G04 #@! TO.N,N/C*
X91440000Y-74930000D03*
G04 #@! TO.P,Conn2,2*
X93980000Y-74930000D03*
G04 #@! TO.P,Conn2,3*
G04 #@! TO.N,GND*
X96520000Y-74930000D03*
G04 #@! TO.P,Conn2,4*
G04 #@! TO.N,TX_1_SL*
X99060000Y-74930000D03*
G04 #@! TO.P,Conn2,5*
G04 #@! TO.N,RX_1_SL*
X101600000Y-74930000D03*
G04 #@! TD*
G04 #@! TO.P,Conn3,5*
G04 #@! TO.N,RX_2_SL*
X120650000Y-74930000D03*
G04 #@! TO.P,Conn3,4*
G04 #@! TO.N,TX_2_SL*
X118110000Y-74930000D03*
G04 #@! TO.P,Conn3,3*
G04 #@! TO.N,GND*
X115570000Y-74930000D03*
G04 #@! TO.P,Conn3,2*
G04 #@! TO.N,N/C*
X113030000Y-74930000D03*
G04 #@! TO.P,Conn3,1*
X110490000Y-74930000D03*
G04 #@! TD*
D12*
G04 #@! TO.P,U1,+3V3*
G04 #@! TO.N,N/C*
X88900000Y-126238000D03*
G04 #@! TO.P,U1,PM6*
X111760000Y-80518000D03*
G04 #@! TO.P,U1,PQ1*
X109220000Y-80518000D03*
G04 #@! TO.P,U1,PQ2*
X101600000Y-80518000D03*
G04 #@! TO.P,U1,PK0*
G04 #@! TO.N,RX_2_IC*
X99060000Y-123698000D03*
G04 #@! TO.P,U1,PQ3*
G04 #@! TO.N,N/C*
X104140000Y-80518000D03*
G04 #@! TO.P,U1,PP3*
X106680000Y-80518000D03*
G04 #@! TO.P,U1,PQ0*
X104140000Y-126238000D03*
G04 #@! TO.P,U1,PA4*
X109220000Y-123698000D03*
G04 #@! TO.P,U1,Rese*
X99060000Y-80518000D03*
G04 #@! TO.P,U1,PA7*
X96520000Y-80518000D03*
G04 #@! TO.P,U1,PN5*
X109220000Y-126238000D03*
G04 #@! TO.P,U1,PK2*
X104140000Y-123698000D03*
G04 #@! TO.P,U1,PK1*
G04 #@! TO.N,TX_2_IC*
X101600000Y-123698000D03*
G04 #@! TO.P,U1,+5V*
G04 #@! TO.N,+5V*
X88900000Y-123698000D03*
G04 #@! TO.P,U1,GND*
G04 #@! TO.N,GND*
X91440000Y-123698000D03*
G04 #@! TO.P,U1,PB4*
G04 #@! TO.N,N/C*
X93980000Y-123698000D03*
G04 #@! TO.P,U1,PB5*
X96520000Y-123698000D03*
G04 #@! TO.P,U1,PK3*
X106680000Y-123698000D03*
G04 #@! TO.P,U1,PA5*
X111760000Y-123698000D03*
G04 #@! TO.P,U1,PD2*
X91440000Y-126238000D03*
G04 #@! TO.P,U1,PP0*
G04 #@! TO.N,RX_1_IC*
X93980000Y-126238000D03*
G04 #@! TO.P,U1,PP1*
G04 #@! TO.N,TX_1_IC*
X96520000Y-126238000D03*
G04 #@! TO.P,U1,PD4*
G04 #@! TO.N,N/C*
X99060000Y-126238000D03*
G04 #@! TO.P,U1,PD5*
X101600000Y-126238000D03*
G04 #@! TO.P,U1,PP4*
X106680000Y-126238000D03*
G04 #@! TO.P,U1,PN4*
X111760000Y-126238000D03*
G04 #@! TO.P,U1,PG1*
X88900000Y-83058000D03*
G04 #@! TO.P,U1,PK4*
X91440000Y-83058000D03*
G04 #@! TO.P,U1,PK5*
X93980000Y-83058000D03*
G04 #@! TO.P,U1,PM0*
X96520000Y-83058000D03*
G04 #@! TO.P,U1,PM1*
X99060000Y-83058000D03*
G04 #@! TO.P,U1,PM2*
X101600000Y-83058000D03*
G04 #@! TO.P,U1,PH0*
X104140000Y-83058000D03*
G04 #@! TO.P,U1,PH1*
X106680000Y-83058000D03*
G04 #@! TO.P,U1,PK6*
X109220000Y-83058000D03*
G04 #@! TO.P,U1,PK7*
X111760000Y-83058000D03*
G04 #@! TO.P,U1,GND*
G04 #@! TO.N,GND*
X88900000Y-80518000D03*
G04 #@! TO.P,U1,PM7*
G04 #@! TO.N,N/C*
X91440000Y-80518000D03*
G04 #@! TO.P,U1,PP5*
X93980000Y-80518000D03*
G04 #@! TD*
D13*
G04 #@! TO.P,U2,1*
G04 #@! TO.N,Net-(C4-Pad1)*
X99007001Y-100330000D03*
G04 #@! TO.P,U2,2*
G04 #@! TO.N,Net-(C1-Pad1)*
X99007001Y-101600000D03*
G04 #@! TO.P,U2,3*
G04 #@! TO.N,Net-(C4-Pad2)*
X99007001Y-102870000D03*
G04 #@! TO.P,U2,4*
G04 #@! TO.N,Net-(C5-Pad1)*
X99007001Y-104140000D03*
G04 #@! TO.P,U2,5*
G04 #@! TO.N,Net-(C5-Pad2)*
X99007001Y-105410000D03*
G04 #@! TO.P,U2,6*
G04 #@! TO.N,Net-(C2-Pad1)*
X99007001Y-106680000D03*
G04 #@! TO.P,U2,7*
G04 #@! TO.N,TX_2_SL*
X99007001Y-107950000D03*
G04 #@! TO.P,U2,8*
G04 #@! TO.N,RX_2_SL*
X99007001Y-109220000D03*
G04 #@! TO.P,U2,9*
G04 #@! TO.N,RX_2_IC*
X104407001Y-109220000D03*
G04 #@! TO.P,U2,10*
G04 #@! TO.N,TX_2_IC*
X104407001Y-107950000D03*
G04 #@! TO.P,U2,11*
G04 #@! TO.N,TX_1_IC*
X104407001Y-106680000D03*
G04 #@! TO.P,U2,12*
G04 #@! TO.N,RX_1_IC*
X104407001Y-105410000D03*
G04 #@! TO.P,U2,13*
G04 #@! TO.N,RX_1_SL*
X104407001Y-104140000D03*
G04 #@! TO.P,U2,14*
G04 #@! TO.N,TX_1_SL*
X104407001Y-102870000D03*
G04 #@! TO.P,U2,15*
G04 #@! TO.N,GND*
X104407001Y-101600000D03*
G04 #@! TO.P,U2,16*
G04 #@! TO.N,+5V*
X104407001Y-100330000D03*
G04 #@! TD*
D11*
G04 #@! TO.P,U3,1*
G04 #@! TO.N,/+12V*
X123190000Y-100330000D03*
G04 #@! TO.P,U3,2*
G04 #@! TO.N,GND*
X120650000Y-100330000D03*
G04 #@! TO.P,U3,3*
G04 #@! TO.N,+5V*
X118110000Y-100330000D03*
G04 #@! TD*
D14*
G04 #@! TO.N,Net-(C1-Pad1)*
G04 #@! TO.C,C1*
G36*
X96755779Y-101126144D02*
X96778834Y-101129563D01*
X96801443Y-101135227D01*
X96823387Y-101143079D01*
X96844457Y-101153044D01*
X96864448Y-101165026D01*
X96883168Y-101178910D01*
X96900438Y-101194562D01*
X96916090Y-101211832D01*
X96929974Y-101230552D01*
X96941956Y-101250543D01*
X96951921Y-101271613D01*
X96959773Y-101293557D01*
X96965437Y-101316166D01*
X96968856Y-101339221D01*
X96970000Y-101362500D01*
X96970000Y-101837500D01*
X96968856Y-101860779D01*
X96965437Y-101883834D01*
X96959773Y-101906443D01*
X96951921Y-101928387D01*
X96941956Y-101949457D01*
X96929974Y-101969448D01*
X96916090Y-101988168D01*
X96900438Y-102005438D01*
X96883168Y-102021090D01*
X96864448Y-102034974D01*
X96844457Y-102046956D01*
X96823387Y-102056921D01*
X96801443Y-102064773D01*
X96778834Y-102070437D01*
X96755779Y-102073856D01*
X96732500Y-102075000D01*
X96157500Y-102075000D01*
X96134221Y-102073856D01*
X96111166Y-102070437D01*
X96088557Y-102064773D01*
X96066613Y-102056921D01*
X96045543Y-102046956D01*
X96025552Y-102034974D01*
X96006832Y-102021090D01*
X95989562Y-102005438D01*
X95973910Y-101988168D01*
X95960026Y-101969448D01*
X95948044Y-101949457D01*
X95938079Y-101928387D01*
X95930227Y-101906443D01*
X95924563Y-101883834D01*
X95921144Y-101860779D01*
X95920000Y-101837500D01*
X95920000Y-101362500D01*
X95921144Y-101339221D01*
X95924563Y-101316166D01*
X95930227Y-101293557D01*
X95938079Y-101271613D01*
X95948044Y-101250543D01*
X95960026Y-101230552D01*
X95973910Y-101211832D01*
X95989562Y-101194562D01*
X96006832Y-101178910D01*
X96025552Y-101165026D01*
X96045543Y-101153044D01*
X96066613Y-101143079D01*
X96088557Y-101135227D01*
X96111166Y-101129563D01*
X96134221Y-101126144D01*
X96157500Y-101125000D01*
X96732500Y-101125000D01*
X96755779Y-101126144D01*
X96755779Y-101126144D01*
G37*
D15*
G04 #@! TD*
G04 #@! TO.P,C1,1*
G04 #@! TO.N,Net-(C1-Pad1)*
X96445000Y-101600000D03*
D14*
G04 #@! TO.N,GND*
G04 #@! TO.C,C1*
G36*
X95005779Y-101126144D02*
X95028834Y-101129563D01*
X95051443Y-101135227D01*
X95073387Y-101143079D01*
X95094457Y-101153044D01*
X95114448Y-101165026D01*
X95133168Y-101178910D01*
X95150438Y-101194562D01*
X95166090Y-101211832D01*
X95179974Y-101230552D01*
X95191956Y-101250543D01*
X95201921Y-101271613D01*
X95209773Y-101293557D01*
X95215437Y-101316166D01*
X95218856Y-101339221D01*
X95220000Y-101362500D01*
X95220000Y-101837500D01*
X95218856Y-101860779D01*
X95215437Y-101883834D01*
X95209773Y-101906443D01*
X95201921Y-101928387D01*
X95191956Y-101949457D01*
X95179974Y-101969448D01*
X95166090Y-101988168D01*
X95150438Y-102005438D01*
X95133168Y-102021090D01*
X95114448Y-102034974D01*
X95094457Y-102046956D01*
X95073387Y-102056921D01*
X95051443Y-102064773D01*
X95028834Y-102070437D01*
X95005779Y-102073856D01*
X94982500Y-102075000D01*
X94407500Y-102075000D01*
X94384221Y-102073856D01*
X94361166Y-102070437D01*
X94338557Y-102064773D01*
X94316613Y-102056921D01*
X94295543Y-102046956D01*
X94275552Y-102034974D01*
X94256832Y-102021090D01*
X94239562Y-102005438D01*
X94223910Y-101988168D01*
X94210026Y-101969448D01*
X94198044Y-101949457D01*
X94188079Y-101928387D01*
X94180227Y-101906443D01*
X94174563Y-101883834D01*
X94171144Y-101860779D01*
X94170000Y-101837500D01*
X94170000Y-101362500D01*
X94171144Y-101339221D01*
X94174563Y-101316166D01*
X94180227Y-101293557D01*
X94188079Y-101271613D01*
X94198044Y-101250543D01*
X94210026Y-101230552D01*
X94223910Y-101211832D01*
X94239562Y-101194562D01*
X94256832Y-101178910D01*
X94275552Y-101165026D01*
X94295543Y-101153044D01*
X94316613Y-101143079D01*
X94338557Y-101135227D01*
X94361166Y-101129563D01*
X94384221Y-101126144D01*
X94407500Y-101125000D01*
X94982500Y-101125000D01*
X95005779Y-101126144D01*
X95005779Y-101126144D01*
G37*
D15*
G04 #@! TD*
G04 #@! TO.P,C1,2*
G04 #@! TO.N,GND*
X94695000Y-101600000D03*
D14*
G04 #@! TO.N,GND*
G04 #@! TO.C,C2*
G36*
X95005779Y-106206144D02*
X95028834Y-106209563D01*
X95051443Y-106215227D01*
X95073387Y-106223079D01*
X95094457Y-106233044D01*
X95114448Y-106245026D01*
X95133168Y-106258910D01*
X95150438Y-106274562D01*
X95166090Y-106291832D01*
X95179974Y-106310552D01*
X95191956Y-106330543D01*
X95201921Y-106351613D01*
X95209773Y-106373557D01*
X95215437Y-106396166D01*
X95218856Y-106419221D01*
X95220000Y-106442500D01*
X95220000Y-106917500D01*
X95218856Y-106940779D01*
X95215437Y-106963834D01*
X95209773Y-106986443D01*
X95201921Y-107008387D01*
X95191956Y-107029457D01*
X95179974Y-107049448D01*
X95166090Y-107068168D01*
X95150438Y-107085438D01*
X95133168Y-107101090D01*
X95114448Y-107114974D01*
X95094457Y-107126956D01*
X95073387Y-107136921D01*
X95051443Y-107144773D01*
X95028834Y-107150437D01*
X95005779Y-107153856D01*
X94982500Y-107155000D01*
X94407500Y-107155000D01*
X94384221Y-107153856D01*
X94361166Y-107150437D01*
X94338557Y-107144773D01*
X94316613Y-107136921D01*
X94295543Y-107126956D01*
X94275552Y-107114974D01*
X94256832Y-107101090D01*
X94239562Y-107085438D01*
X94223910Y-107068168D01*
X94210026Y-107049448D01*
X94198044Y-107029457D01*
X94188079Y-107008387D01*
X94180227Y-106986443D01*
X94174563Y-106963834D01*
X94171144Y-106940779D01*
X94170000Y-106917500D01*
X94170000Y-106442500D01*
X94171144Y-106419221D01*
X94174563Y-106396166D01*
X94180227Y-106373557D01*
X94188079Y-106351613D01*
X94198044Y-106330543D01*
X94210026Y-106310552D01*
X94223910Y-106291832D01*
X94239562Y-106274562D01*
X94256832Y-106258910D01*
X94275552Y-106245026D01*
X94295543Y-106233044D01*
X94316613Y-106223079D01*
X94338557Y-106215227D01*
X94361166Y-106209563D01*
X94384221Y-106206144D01*
X94407500Y-106205000D01*
X94982500Y-106205000D01*
X95005779Y-106206144D01*
X95005779Y-106206144D01*
G37*
D15*
G04 #@! TD*
G04 #@! TO.P,C2,2*
G04 #@! TO.N,GND*
X94695000Y-106680000D03*
D14*
G04 #@! TO.N,Net-(C2-Pad1)*
G04 #@! TO.C,C2*
G36*
X96755779Y-106206144D02*
X96778834Y-106209563D01*
X96801443Y-106215227D01*
X96823387Y-106223079D01*
X96844457Y-106233044D01*
X96864448Y-106245026D01*
X96883168Y-106258910D01*
X96900438Y-106274562D01*
X96916090Y-106291832D01*
X96929974Y-106310552D01*
X96941956Y-106330543D01*
X96951921Y-106351613D01*
X96959773Y-106373557D01*
X96965437Y-106396166D01*
X96968856Y-106419221D01*
X96970000Y-106442500D01*
X96970000Y-106917500D01*
X96968856Y-106940779D01*
X96965437Y-106963834D01*
X96959773Y-106986443D01*
X96951921Y-107008387D01*
X96941956Y-107029457D01*
X96929974Y-107049448D01*
X96916090Y-107068168D01*
X96900438Y-107085438D01*
X96883168Y-107101090D01*
X96864448Y-107114974D01*
X96844457Y-107126956D01*
X96823387Y-107136921D01*
X96801443Y-107144773D01*
X96778834Y-107150437D01*
X96755779Y-107153856D01*
X96732500Y-107155000D01*
X96157500Y-107155000D01*
X96134221Y-107153856D01*
X96111166Y-107150437D01*
X96088557Y-107144773D01*
X96066613Y-107136921D01*
X96045543Y-107126956D01*
X96025552Y-107114974D01*
X96006832Y-107101090D01*
X95989562Y-107085438D01*
X95973910Y-107068168D01*
X95960026Y-107049448D01*
X95948044Y-107029457D01*
X95938079Y-107008387D01*
X95930227Y-106986443D01*
X95924563Y-106963834D01*
X95921144Y-106940779D01*
X95920000Y-106917500D01*
X95920000Y-106442500D01*
X95921144Y-106419221D01*
X95924563Y-106396166D01*
X95930227Y-106373557D01*
X95938079Y-106351613D01*
X95948044Y-106330543D01*
X95960026Y-106310552D01*
X95973910Y-106291832D01*
X95989562Y-106274562D01*
X96006832Y-106258910D01*
X96025552Y-106245026D01*
X96045543Y-106233044D01*
X96066613Y-106223079D01*
X96088557Y-106215227D01*
X96111166Y-106209563D01*
X96134221Y-106206144D01*
X96157500Y-106205000D01*
X96732500Y-106205000D01*
X96755779Y-106206144D01*
X96755779Y-106206144D01*
G37*
D15*
G04 #@! TD*
G04 #@! TO.P,C2,1*
G04 #@! TO.N,Net-(C2-Pad1)*
X96445000Y-106680000D03*
D14*
G04 #@! TO.N,/+12V*
G04 #@! TO.C,C3*
G36*
X124055779Y-102396144D02*
X124078834Y-102399563D01*
X124101443Y-102405227D01*
X124123387Y-102413079D01*
X124144457Y-102423044D01*
X124164448Y-102435026D01*
X124183168Y-102448910D01*
X124200438Y-102464562D01*
X124216090Y-102481832D01*
X124229974Y-102500552D01*
X124241956Y-102520543D01*
X124251921Y-102541613D01*
X124259773Y-102563557D01*
X124265437Y-102586166D01*
X124268856Y-102609221D01*
X124270000Y-102632500D01*
X124270000Y-103107500D01*
X124268856Y-103130779D01*
X124265437Y-103153834D01*
X124259773Y-103176443D01*
X124251921Y-103198387D01*
X124241956Y-103219457D01*
X124229974Y-103239448D01*
X124216090Y-103258168D01*
X124200438Y-103275438D01*
X124183168Y-103291090D01*
X124164448Y-103304974D01*
X124144457Y-103316956D01*
X124123387Y-103326921D01*
X124101443Y-103334773D01*
X124078834Y-103340437D01*
X124055779Y-103343856D01*
X124032500Y-103345000D01*
X123457500Y-103345000D01*
X123434221Y-103343856D01*
X123411166Y-103340437D01*
X123388557Y-103334773D01*
X123366613Y-103326921D01*
X123345543Y-103316956D01*
X123325552Y-103304974D01*
X123306832Y-103291090D01*
X123289562Y-103275438D01*
X123273910Y-103258168D01*
X123260026Y-103239448D01*
X123248044Y-103219457D01*
X123238079Y-103198387D01*
X123230227Y-103176443D01*
X123224563Y-103153834D01*
X123221144Y-103130779D01*
X123220000Y-103107500D01*
X123220000Y-102632500D01*
X123221144Y-102609221D01*
X123224563Y-102586166D01*
X123230227Y-102563557D01*
X123238079Y-102541613D01*
X123248044Y-102520543D01*
X123260026Y-102500552D01*
X123273910Y-102481832D01*
X123289562Y-102464562D01*
X123306832Y-102448910D01*
X123325552Y-102435026D01*
X123345543Y-102423044D01*
X123366613Y-102413079D01*
X123388557Y-102405227D01*
X123411166Y-102399563D01*
X123434221Y-102396144D01*
X123457500Y-102395000D01*
X124032500Y-102395000D01*
X124055779Y-102396144D01*
X124055779Y-102396144D01*
G37*
D15*
G04 #@! TD*
G04 #@! TO.P,C3,1*
G04 #@! TO.N,/+12V*
X123745000Y-102870000D03*
D14*
G04 #@! TO.N,GND*
G04 #@! TO.C,C3*
G36*
X122305779Y-102396144D02*
X122328834Y-102399563D01*
X122351443Y-102405227D01*
X122373387Y-102413079D01*
X122394457Y-102423044D01*
X122414448Y-102435026D01*
X122433168Y-102448910D01*
X122450438Y-102464562D01*
X122466090Y-102481832D01*
X122479974Y-102500552D01*
X122491956Y-102520543D01*
X122501921Y-102541613D01*
X122509773Y-102563557D01*
X122515437Y-102586166D01*
X122518856Y-102609221D01*
X122520000Y-102632500D01*
X122520000Y-103107500D01*
X122518856Y-103130779D01*
X122515437Y-103153834D01*
X122509773Y-103176443D01*
X122501921Y-103198387D01*
X122491956Y-103219457D01*
X122479974Y-103239448D01*
X122466090Y-103258168D01*
X122450438Y-103275438D01*
X122433168Y-103291090D01*
X122414448Y-103304974D01*
X122394457Y-103316956D01*
X122373387Y-103326921D01*
X122351443Y-103334773D01*
X122328834Y-103340437D01*
X122305779Y-103343856D01*
X122282500Y-103345000D01*
X121707500Y-103345000D01*
X121684221Y-103343856D01*
X121661166Y-103340437D01*
X121638557Y-103334773D01*
X121616613Y-103326921D01*
X121595543Y-103316956D01*
X121575552Y-103304974D01*
X121556832Y-103291090D01*
X121539562Y-103275438D01*
X121523910Y-103258168D01*
X121510026Y-103239448D01*
X121498044Y-103219457D01*
X121488079Y-103198387D01*
X121480227Y-103176443D01*
X121474563Y-103153834D01*
X121471144Y-103130779D01*
X121470000Y-103107500D01*
X121470000Y-102632500D01*
X121471144Y-102609221D01*
X121474563Y-102586166D01*
X121480227Y-102563557D01*
X121488079Y-102541613D01*
X121498044Y-102520543D01*
X121510026Y-102500552D01*
X121523910Y-102481832D01*
X121539562Y-102464562D01*
X121556832Y-102448910D01*
X121575552Y-102435026D01*
X121595543Y-102423044D01*
X121616613Y-102413079D01*
X121638557Y-102405227D01*
X121661166Y-102399563D01*
X121684221Y-102396144D01*
X121707500Y-102395000D01*
X122282500Y-102395000D01*
X122305779Y-102396144D01*
X122305779Y-102396144D01*
G37*
D15*
G04 #@! TD*
G04 #@! TO.P,C3,2*
G04 #@! TO.N,GND*
X121995000Y-102870000D03*
D14*
G04 #@! TO.N,Net-(C4-Pad1)*
G04 #@! TO.C,C4*
G36*
X91700779Y-99881144D02*
X91723834Y-99884563D01*
X91746443Y-99890227D01*
X91768387Y-99898079D01*
X91789457Y-99908044D01*
X91809448Y-99920026D01*
X91828168Y-99933910D01*
X91845438Y-99949562D01*
X91861090Y-99966832D01*
X91874974Y-99985552D01*
X91886956Y-100005543D01*
X91896921Y-100026613D01*
X91904773Y-100048557D01*
X91910437Y-100071166D01*
X91913856Y-100094221D01*
X91915000Y-100117500D01*
X91915000Y-100692500D01*
X91913856Y-100715779D01*
X91910437Y-100738834D01*
X91904773Y-100761443D01*
X91896921Y-100783387D01*
X91886956Y-100804457D01*
X91874974Y-100824448D01*
X91861090Y-100843168D01*
X91845438Y-100860438D01*
X91828168Y-100876090D01*
X91809448Y-100889974D01*
X91789457Y-100901956D01*
X91768387Y-100911921D01*
X91746443Y-100919773D01*
X91723834Y-100925437D01*
X91700779Y-100928856D01*
X91677500Y-100930000D01*
X91202500Y-100930000D01*
X91179221Y-100928856D01*
X91156166Y-100925437D01*
X91133557Y-100919773D01*
X91111613Y-100911921D01*
X91090543Y-100901956D01*
X91070552Y-100889974D01*
X91051832Y-100876090D01*
X91034562Y-100860438D01*
X91018910Y-100843168D01*
X91005026Y-100824448D01*
X90993044Y-100804457D01*
X90983079Y-100783387D01*
X90975227Y-100761443D01*
X90969563Y-100738834D01*
X90966144Y-100715779D01*
X90965000Y-100692500D01*
X90965000Y-100117500D01*
X90966144Y-100094221D01*
X90969563Y-100071166D01*
X90975227Y-100048557D01*
X90983079Y-100026613D01*
X90993044Y-100005543D01*
X91005026Y-99985552D01*
X91018910Y-99966832D01*
X91034562Y-99949562D01*
X91051832Y-99933910D01*
X91070552Y-99920026D01*
X91090543Y-99908044D01*
X91111613Y-99898079D01*
X91133557Y-99890227D01*
X91156166Y-99884563D01*
X91179221Y-99881144D01*
X91202500Y-99880000D01*
X91677500Y-99880000D01*
X91700779Y-99881144D01*
X91700779Y-99881144D01*
G37*
D15*
G04 #@! TD*
G04 #@! TO.P,C4,1*
G04 #@! TO.N,Net-(C4-Pad1)*
X91440000Y-100405000D03*
D14*
G04 #@! TO.N,Net-(C4-Pad2)*
G04 #@! TO.C,C4*
G36*
X91700779Y-101631144D02*
X91723834Y-101634563D01*
X91746443Y-101640227D01*
X91768387Y-101648079D01*
X91789457Y-101658044D01*
X91809448Y-101670026D01*
X91828168Y-101683910D01*
X91845438Y-101699562D01*
X91861090Y-101716832D01*
X91874974Y-101735552D01*
X91886956Y-101755543D01*
X91896921Y-101776613D01*
X91904773Y-101798557D01*
X91910437Y-101821166D01*
X91913856Y-101844221D01*
X91915000Y-101867500D01*
X91915000Y-102442500D01*
X91913856Y-102465779D01*
X91910437Y-102488834D01*
X91904773Y-102511443D01*
X91896921Y-102533387D01*
X91886956Y-102554457D01*
X91874974Y-102574448D01*
X91861090Y-102593168D01*
X91845438Y-102610438D01*
X91828168Y-102626090D01*
X91809448Y-102639974D01*
X91789457Y-102651956D01*
X91768387Y-102661921D01*
X91746443Y-102669773D01*
X91723834Y-102675437D01*
X91700779Y-102678856D01*
X91677500Y-102680000D01*
X91202500Y-102680000D01*
X91179221Y-102678856D01*
X91156166Y-102675437D01*
X91133557Y-102669773D01*
X91111613Y-102661921D01*
X91090543Y-102651956D01*
X91070552Y-102639974D01*
X91051832Y-102626090D01*
X91034562Y-102610438D01*
X91018910Y-102593168D01*
X91005026Y-102574448D01*
X90993044Y-102554457D01*
X90983079Y-102533387D01*
X90975227Y-102511443D01*
X90969563Y-102488834D01*
X90966144Y-102465779D01*
X90965000Y-102442500D01*
X90965000Y-101867500D01*
X90966144Y-101844221D01*
X90969563Y-101821166D01*
X90975227Y-101798557D01*
X90983079Y-101776613D01*
X90993044Y-101755543D01*
X91005026Y-101735552D01*
X91018910Y-101716832D01*
X91034562Y-101699562D01*
X91051832Y-101683910D01*
X91070552Y-101670026D01*
X91090543Y-101658044D01*
X91111613Y-101648079D01*
X91133557Y-101640227D01*
X91156166Y-101634563D01*
X91179221Y-101631144D01*
X91202500Y-101630000D01*
X91677500Y-101630000D01*
X91700779Y-101631144D01*
X91700779Y-101631144D01*
G37*
D15*
G04 #@! TD*
G04 #@! TO.P,C4,2*
G04 #@! TO.N,Net-(C4-Pad2)*
X91440000Y-102155000D03*
D14*
G04 #@! TO.N,Net-(C5-Pad2)*
G04 #@! TO.C,C5*
G36*
X95005779Y-103666144D02*
X95028834Y-103669563D01*
X95051443Y-103675227D01*
X95073387Y-103683079D01*
X95094457Y-103693044D01*
X95114448Y-103705026D01*
X95133168Y-103718910D01*
X95150438Y-103734562D01*
X95166090Y-103751832D01*
X95179974Y-103770552D01*
X95191956Y-103790543D01*
X95201921Y-103811613D01*
X95209773Y-103833557D01*
X95215437Y-103856166D01*
X95218856Y-103879221D01*
X95220000Y-103902500D01*
X95220000Y-104377500D01*
X95218856Y-104400779D01*
X95215437Y-104423834D01*
X95209773Y-104446443D01*
X95201921Y-104468387D01*
X95191956Y-104489457D01*
X95179974Y-104509448D01*
X95166090Y-104528168D01*
X95150438Y-104545438D01*
X95133168Y-104561090D01*
X95114448Y-104574974D01*
X95094457Y-104586956D01*
X95073387Y-104596921D01*
X95051443Y-104604773D01*
X95028834Y-104610437D01*
X95005779Y-104613856D01*
X94982500Y-104615000D01*
X94407500Y-104615000D01*
X94384221Y-104613856D01*
X94361166Y-104610437D01*
X94338557Y-104604773D01*
X94316613Y-104596921D01*
X94295543Y-104586956D01*
X94275552Y-104574974D01*
X94256832Y-104561090D01*
X94239562Y-104545438D01*
X94223910Y-104528168D01*
X94210026Y-104509448D01*
X94198044Y-104489457D01*
X94188079Y-104468387D01*
X94180227Y-104446443D01*
X94174563Y-104423834D01*
X94171144Y-104400779D01*
X94170000Y-104377500D01*
X94170000Y-103902500D01*
X94171144Y-103879221D01*
X94174563Y-103856166D01*
X94180227Y-103833557D01*
X94188079Y-103811613D01*
X94198044Y-103790543D01*
X94210026Y-103770552D01*
X94223910Y-103751832D01*
X94239562Y-103734562D01*
X94256832Y-103718910D01*
X94275552Y-103705026D01*
X94295543Y-103693044D01*
X94316613Y-103683079D01*
X94338557Y-103675227D01*
X94361166Y-103669563D01*
X94384221Y-103666144D01*
X94407500Y-103665000D01*
X94982500Y-103665000D01*
X95005779Y-103666144D01*
X95005779Y-103666144D01*
G37*
D15*
G04 #@! TD*
G04 #@! TO.P,C5,2*
G04 #@! TO.N,Net-(C5-Pad2)*
X94695000Y-104140000D03*
D14*
G04 #@! TO.N,Net-(C5-Pad1)*
G04 #@! TO.C,C5*
G36*
X96755779Y-103666144D02*
X96778834Y-103669563D01*
X96801443Y-103675227D01*
X96823387Y-103683079D01*
X96844457Y-103693044D01*
X96864448Y-103705026D01*
X96883168Y-103718910D01*
X96900438Y-103734562D01*
X96916090Y-103751832D01*
X96929974Y-103770552D01*
X96941956Y-103790543D01*
X96951921Y-103811613D01*
X96959773Y-103833557D01*
X96965437Y-103856166D01*
X96968856Y-103879221D01*
X96970000Y-103902500D01*
X96970000Y-104377500D01*
X96968856Y-104400779D01*
X96965437Y-104423834D01*
X96959773Y-104446443D01*
X96951921Y-104468387D01*
X96941956Y-104489457D01*
X96929974Y-104509448D01*
X96916090Y-104528168D01*
X96900438Y-104545438D01*
X96883168Y-104561090D01*
X96864448Y-104574974D01*
X96844457Y-104586956D01*
X96823387Y-104596921D01*
X96801443Y-104604773D01*
X96778834Y-104610437D01*
X96755779Y-104613856D01*
X96732500Y-104615000D01*
X96157500Y-104615000D01*
X96134221Y-104613856D01*
X96111166Y-104610437D01*
X96088557Y-104604773D01*
X96066613Y-104596921D01*
X96045543Y-104586956D01*
X96025552Y-104574974D01*
X96006832Y-104561090D01*
X95989562Y-104545438D01*
X95973910Y-104528168D01*
X95960026Y-104509448D01*
X95948044Y-104489457D01*
X95938079Y-104468387D01*
X95930227Y-104446443D01*
X95924563Y-104423834D01*
X95921144Y-104400779D01*
X95920000Y-104377500D01*
X95920000Y-103902500D01*
X95921144Y-103879221D01*
X95924563Y-103856166D01*
X95930227Y-103833557D01*
X95938079Y-103811613D01*
X95948044Y-103790543D01*
X95960026Y-103770552D01*
X95973910Y-103751832D01*
X95989562Y-103734562D01*
X96006832Y-103718910D01*
X96025552Y-103705026D01*
X96045543Y-103693044D01*
X96066613Y-103683079D01*
X96088557Y-103675227D01*
X96111166Y-103669563D01*
X96134221Y-103666144D01*
X96157500Y-103665000D01*
X96732500Y-103665000D01*
X96755779Y-103666144D01*
X96755779Y-103666144D01*
G37*
D15*
G04 #@! TD*
G04 #@! TO.P,C5,1*
G04 #@! TO.N,Net-(C5-Pad1)*
X96445000Y-104140000D03*
D14*
G04 #@! TO.N,GND*
G04 #@! TO.C,C6*
G36*
X119615779Y-102396144D02*
X119638834Y-102399563D01*
X119661443Y-102405227D01*
X119683387Y-102413079D01*
X119704457Y-102423044D01*
X119724448Y-102435026D01*
X119743168Y-102448910D01*
X119760438Y-102464562D01*
X119776090Y-102481832D01*
X119789974Y-102500552D01*
X119801956Y-102520543D01*
X119811921Y-102541613D01*
X119819773Y-102563557D01*
X119825437Y-102586166D01*
X119828856Y-102609221D01*
X119830000Y-102632500D01*
X119830000Y-103107500D01*
X119828856Y-103130779D01*
X119825437Y-103153834D01*
X119819773Y-103176443D01*
X119811921Y-103198387D01*
X119801956Y-103219457D01*
X119789974Y-103239448D01*
X119776090Y-103258168D01*
X119760438Y-103275438D01*
X119743168Y-103291090D01*
X119724448Y-103304974D01*
X119704457Y-103316956D01*
X119683387Y-103326921D01*
X119661443Y-103334773D01*
X119638834Y-103340437D01*
X119615779Y-103343856D01*
X119592500Y-103345000D01*
X119017500Y-103345000D01*
X118994221Y-103343856D01*
X118971166Y-103340437D01*
X118948557Y-103334773D01*
X118926613Y-103326921D01*
X118905543Y-103316956D01*
X118885552Y-103304974D01*
X118866832Y-103291090D01*
X118849562Y-103275438D01*
X118833910Y-103258168D01*
X118820026Y-103239448D01*
X118808044Y-103219457D01*
X118798079Y-103198387D01*
X118790227Y-103176443D01*
X118784563Y-103153834D01*
X118781144Y-103130779D01*
X118780000Y-103107500D01*
X118780000Y-102632500D01*
X118781144Y-102609221D01*
X118784563Y-102586166D01*
X118790227Y-102563557D01*
X118798079Y-102541613D01*
X118808044Y-102520543D01*
X118820026Y-102500552D01*
X118833910Y-102481832D01*
X118849562Y-102464562D01*
X118866832Y-102448910D01*
X118885552Y-102435026D01*
X118905543Y-102423044D01*
X118926613Y-102413079D01*
X118948557Y-102405227D01*
X118971166Y-102399563D01*
X118994221Y-102396144D01*
X119017500Y-102395000D01*
X119592500Y-102395000D01*
X119615779Y-102396144D01*
X119615779Y-102396144D01*
G37*
D15*
G04 #@! TD*
G04 #@! TO.P,C6,2*
G04 #@! TO.N,GND*
X119305000Y-102870000D03*
D14*
G04 #@! TO.N,+5V*
G04 #@! TO.C,C6*
G36*
X117865779Y-102396144D02*
X117888834Y-102399563D01*
X117911443Y-102405227D01*
X117933387Y-102413079D01*
X117954457Y-102423044D01*
X117974448Y-102435026D01*
X117993168Y-102448910D01*
X118010438Y-102464562D01*
X118026090Y-102481832D01*
X118039974Y-102500552D01*
X118051956Y-102520543D01*
X118061921Y-102541613D01*
X118069773Y-102563557D01*
X118075437Y-102586166D01*
X118078856Y-102609221D01*
X118080000Y-102632500D01*
X118080000Y-103107500D01*
X118078856Y-103130779D01*
X118075437Y-103153834D01*
X118069773Y-103176443D01*
X118061921Y-103198387D01*
X118051956Y-103219457D01*
X118039974Y-103239448D01*
X118026090Y-103258168D01*
X118010438Y-103275438D01*
X117993168Y-103291090D01*
X117974448Y-103304974D01*
X117954457Y-103316956D01*
X117933387Y-103326921D01*
X117911443Y-103334773D01*
X117888834Y-103340437D01*
X117865779Y-103343856D01*
X117842500Y-103345000D01*
X117267500Y-103345000D01*
X117244221Y-103343856D01*
X117221166Y-103340437D01*
X117198557Y-103334773D01*
X117176613Y-103326921D01*
X117155543Y-103316956D01*
X117135552Y-103304974D01*
X117116832Y-103291090D01*
X117099562Y-103275438D01*
X117083910Y-103258168D01*
X117070026Y-103239448D01*
X117058044Y-103219457D01*
X117048079Y-103198387D01*
X117040227Y-103176443D01*
X117034563Y-103153834D01*
X117031144Y-103130779D01*
X117030000Y-103107500D01*
X117030000Y-102632500D01*
X117031144Y-102609221D01*
X117034563Y-102586166D01*
X117040227Y-102563557D01*
X117048079Y-102541613D01*
X117058044Y-102520543D01*
X117070026Y-102500552D01*
X117083910Y-102481832D01*
X117099562Y-102464562D01*
X117116832Y-102448910D01*
X117135552Y-102435026D01*
X117155543Y-102423044D01*
X117176613Y-102413079D01*
X117198557Y-102405227D01*
X117221166Y-102399563D01*
X117244221Y-102396144D01*
X117267500Y-102395000D01*
X117842500Y-102395000D01*
X117865779Y-102396144D01*
X117865779Y-102396144D01*
G37*
D15*
G04 #@! TD*
G04 #@! TO.P,C6,1*
G04 #@! TO.N,+5V*
X117555000Y-102870000D03*
D16*
G04 #@! TO.N,GND*
X92964000Y-101600000D03*
X92964000Y-104140000D03*
G04 #@! TO.N,TX_1_SL*
X106299000Y-102870000D03*
G04 #@! TO.N,RX_1_SL*
X106299000Y-104140000D03*
G04 #@! TO.N,RX_2_SL*
X97409000Y-109220000D03*
G04 #@! TO.N,TX_2_SL*
X97409000Y-107950000D03*
G04 #@! TO.N,RX_1_IC*
X108458000Y-117856000D03*
G04 #@! TO.N,TX_1_IC*
X107569000Y-119888000D03*
G04 #@! TD*
D17*
G04 #@! TO.N,GND*
X94620000Y-101600000D02*
X92964000Y-101600000D01*
G04 #@! TO.N,Net-(C1-Pad1)*
X96520000Y-101600000D02*
X99007001Y-101600000D01*
G04 #@! TO.N,Net-(C2-Pad1)*
X99007001Y-106680000D02*
X96520000Y-106680000D01*
G04 #@! TO.N,/+12V*
X123820000Y-100960000D02*
X123190000Y-100330000D01*
X123820000Y-102870000D02*
X123820000Y-100960000D01*
X129540000Y-100330000D02*
X123190000Y-100330000D01*
G04 #@! TO.N,Net-(C4-Pad2)*
X92080000Y-102870000D02*
X91440000Y-102230000D01*
X99007001Y-102870000D02*
X92080000Y-102870000D01*
G04 #@! TO.N,Net-(C4-Pad1)*
X99007001Y-100330000D02*
X91440000Y-100330000D01*
G04 #@! TO.N,Net-(C5-Pad1)*
X99007001Y-104140000D02*
X96520000Y-104140000D01*
G04 #@! TO.N,Net-(C5-Pad2)*
X94620000Y-104896000D02*
X94620000Y-104140000D01*
X95134000Y-105410000D02*
X94620000Y-104896000D01*
X99007001Y-105410000D02*
X95134000Y-105410000D01*
G04 #@! TO.N,+5V*
X117480000Y-100960000D02*
X118110000Y-100330000D01*
X117480000Y-102870000D02*
X117480000Y-100960000D01*
X118110000Y-100330000D02*
X104407001Y-100330000D01*
G04 #@! TO.N,TX_1_SL*
X104407001Y-102870000D02*
X106299000Y-102870000D01*
G04 #@! TO.N,RX_1_SL*
X104407001Y-104140000D02*
X106299000Y-104140000D01*
G04 #@! TO.N,RX_2_SL*
X99007001Y-109220000D02*
X97409000Y-109220000D01*
G04 #@! TO.N,TX_2_SL*
X97409000Y-107950000D02*
X99007001Y-107950000D01*
G04 #@! TO.N,RX_2_IC*
X99060000Y-122174000D02*
X99060000Y-123698000D01*
X105538001Y-109220000D02*
X106045000Y-109726999D01*
X104407001Y-109220000D02*
X105538001Y-109220000D01*
X106045000Y-109726999D02*
X106045000Y-121158000D01*
X106045000Y-121158000D02*
X105664000Y-121539000D01*
X105664000Y-121539000D02*
X99695000Y-121539000D01*
X99695000Y-121539000D02*
X99060000Y-122174000D01*
G04 #@! TO.N,TX_2_IC*
X101600000Y-122623198D02*
X101600000Y-123698000D01*
X106680000Y-109091999D02*
X106680000Y-121539000D01*
X105538001Y-107950000D02*
X106680000Y-109091999D01*
X106680000Y-121539000D02*
X106045000Y-122174000D01*
X104407001Y-107950000D02*
X105538001Y-107950000D01*
X106045000Y-122174000D02*
X102049198Y-122174000D01*
X102049198Y-122174000D02*
X101600000Y-122623198D01*
G04 #@! TO.N,RX_1_IC*
X108458000Y-117856000D02*
X108458000Y-106553000D01*
X107315000Y-105410000D02*
X104407001Y-105410000D01*
X108458000Y-106553000D02*
X107315000Y-105410000D01*
G04 #@! TO.N,TX_1_IC*
X105538001Y-106680000D02*
X106807000Y-106680000D01*
X104407001Y-106680000D02*
X105538001Y-106680000D01*
X106807000Y-106680000D02*
X107261010Y-107134010D01*
X107569000Y-107442000D02*
X107315000Y-107188000D01*
X107569000Y-119888000D02*
X107569000Y-107442000D01*
X107261010Y-107134010D02*
X107315000Y-107188000D01*
G04 #@! TD*
D18*
G04 #@! TO.N,GND*
G36*
X146927009Y-62428590D02*
X147266352Y-62582881D01*
X147548752Y-62826212D01*
X147751506Y-63139023D01*
X147865348Y-63519684D01*
X147880000Y-63716850D01*
X147880001Y-105105412D01*
X147819910Y-105525009D01*
X147665619Y-105864352D01*
X147422288Y-106146752D01*
X147109479Y-106349506D01*
X146728815Y-106463348D01*
X146531649Y-106478000D01*
X130879925Y-106478000D01*
X130810000Y-106464091D01*
X130740074Y-106478000D01*
X130532972Y-106519195D01*
X130298119Y-106676119D01*
X130141195Y-106910972D01*
X130086091Y-107188000D01*
X130100000Y-107257926D01*
X130100001Y-127946069D01*
X130086091Y-128016000D01*
X130141195Y-128293028D01*
X130298119Y-128527881D01*
X130532972Y-128684805D01*
X130740074Y-128726000D01*
X130740075Y-128726000D01*
X130810000Y-128739909D01*
X130879926Y-128726000D01*
X146507419Y-128726000D01*
X146927009Y-128786090D01*
X147266352Y-128940381D01*
X147548752Y-129183712D01*
X147751506Y-129496523D01*
X147865348Y-129877184D01*
X147880001Y-130074363D01*
X147880000Y-137579760D01*
X147534241Y-137683164D01*
X147446769Y-137723582D01*
X147358806Y-137762929D01*
X147351502Y-137767601D01*
X147351498Y-137767603D01*
X147351499Y-137767603D01*
X146868040Y-138080966D01*
X146795447Y-138144293D01*
X146722045Y-138206763D01*
X146716343Y-138213300D01*
X146340266Y-138649759D01*
X146288347Y-138730942D01*
X146235446Y-138811475D01*
X146231808Y-138819350D01*
X145993347Y-139343817D01*
X145966300Y-139436309D01*
X145938129Y-139528452D01*
X145936847Y-139537031D01*
X145855171Y-140107346D01*
X145855171Y-140179766D01*
X145849362Y-140251963D01*
X145849952Y-140260618D01*
X145872272Y-140560966D01*
X145887826Y-140631711D01*
X145897654Y-140703455D01*
X145900088Y-140711781D01*
X146065164Y-141263758D01*
X146105591Y-141351250D01*
X146144930Y-141439194D01*
X146149603Y-141446501D01*
X146462966Y-141929961D01*
X146526328Y-142002594D01*
X146588763Y-142075955D01*
X146595296Y-142081654D01*
X146595300Y-142081658D01*
X146595305Y-142081661D01*
X147031759Y-142457734D01*
X147112942Y-142509653D01*
X147193475Y-142562554D01*
X147201346Y-142566190D01*
X147201349Y-142566192D01*
X147201352Y-142566193D01*
X147725817Y-142804653D01*
X147818309Y-142831700D01*
X147880001Y-142850561D01*
X147880000Y-150825418D01*
X147819910Y-151245009D01*
X147665619Y-151584352D01*
X147422288Y-151866752D01*
X147109479Y-152069506D01*
X146728815Y-152183348D01*
X146531649Y-152198000D01*
X89712581Y-152198000D01*
X89292991Y-152137910D01*
X88953648Y-151983619D01*
X88671248Y-151740288D01*
X88468494Y-151427479D01*
X88354652Y-151046815D01*
X88340000Y-150849649D01*
X88340000Y-142836239D01*
X88685758Y-142732836D01*
X88773250Y-142692409D01*
X88861194Y-142653070D01*
X88868498Y-142648399D01*
X88868502Y-142648397D01*
X89351961Y-142335034D01*
X89424594Y-142271672D01*
X89497955Y-142209237D01*
X89503654Y-142202704D01*
X89503658Y-142202700D01*
X89503661Y-142202695D01*
X89879734Y-141766241D01*
X89931653Y-141685058D01*
X89984554Y-141604525D01*
X89988192Y-141596650D01*
X90226653Y-141072183D01*
X90253700Y-140979691D01*
X90281871Y-140887548D01*
X90283153Y-140878969D01*
X90364829Y-140308653D01*
X90364829Y-140236233D01*
X90370638Y-140164036D01*
X90370048Y-140155382D01*
X90347728Y-139855033D01*
X90332174Y-139784288D01*
X90322346Y-139712544D01*
X90319912Y-139704219D01*
X90154836Y-139152241D01*
X90114418Y-139064769D01*
X90075071Y-138976806D01*
X90070397Y-138969499D01*
X89757034Y-138486040D01*
X89693707Y-138413447D01*
X89631237Y-138340045D01*
X89624700Y-138334343D01*
X89188241Y-137958266D01*
X89107058Y-137906347D01*
X89026525Y-137853446D01*
X89018654Y-137849810D01*
X89018651Y-137849808D01*
X89018648Y-137849807D01*
X88494183Y-137611347D01*
X88401691Y-137584300D01*
X88340000Y-137565439D01*
X88340000Y-127515978D01*
X88622517Y-127633000D01*
X89177483Y-127633000D01*
X89690204Y-127420624D01*
X90082624Y-127028204D01*
X90170000Y-126817260D01*
X90257376Y-127028204D01*
X90649796Y-127420624D01*
X91162517Y-127633000D01*
X91717483Y-127633000D01*
X92230204Y-127420624D01*
X92622624Y-127028204D01*
X92710000Y-126817260D01*
X92797376Y-127028204D01*
X93189796Y-127420624D01*
X93702517Y-127633000D01*
X94257483Y-127633000D01*
X94770204Y-127420624D01*
X95162624Y-127028204D01*
X95250000Y-126817260D01*
X95337376Y-127028204D01*
X95729796Y-127420624D01*
X96242517Y-127633000D01*
X96797483Y-127633000D01*
X97310204Y-127420624D01*
X97702624Y-127028204D01*
X97790000Y-126817260D01*
X97877376Y-127028204D01*
X98269796Y-127420624D01*
X98782517Y-127633000D01*
X99337483Y-127633000D01*
X99850204Y-127420624D01*
X100242624Y-127028204D01*
X100330000Y-126817260D01*
X100417376Y-127028204D01*
X100809796Y-127420624D01*
X101322517Y-127633000D01*
X101877483Y-127633000D01*
X102390204Y-127420624D01*
X102782624Y-127028204D01*
X102870000Y-126817260D01*
X102957376Y-127028204D01*
X103349796Y-127420624D01*
X103862517Y-127633000D01*
X104417483Y-127633000D01*
X104930204Y-127420624D01*
X105322624Y-127028204D01*
X105410000Y-126817260D01*
X105497376Y-127028204D01*
X105889796Y-127420624D01*
X106402517Y-127633000D01*
X106957483Y-127633000D01*
X107470204Y-127420624D01*
X107862624Y-127028204D01*
X107950000Y-126817260D01*
X108037376Y-127028204D01*
X108429796Y-127420624D01*
X108942517Y-127633000D01*
X109497483Y-127633000D01*
X110010204Y-127420624D01*
X110402624Y-127028204D01*
X110490000Y-126817260D01*
X110577376Y-127028204D01*
X110969796Y-127420624D01*
X111482517Y-127633000D01*
X112037483Y-127633000D01*
X112550204Y-127420624D01*
X112942624Y-127028204D01*
X113155000Y-126515483D01*
X113155000Y-125960517D01*
X112942624Y-125447796D01*
X112550204Y-125055376D01*
X112339260Y-124968000D01*
X112550204Y-124880624D01*
X112942624Y-124488204D01*
X113155000Y-123975483D01*
X113155000Y-123420517D01*
X112942624Y-122907796D01*
X112550204Y-122515376D01*
X112037483Y-122303000D01*
X111482517Y-122303000D01*
X110969796Y-122515376D01*
X110577376Y-122907796D01*
X110490000Y-123118740D01*
X110402624Y-122907796D01*
X110010204Y-122515376D01*
X109497483Y-122303000D01*
X108942517Y-122303000D01*
X108429796Y-122515376D01*
X108037376Y-122907796D01*
X107950000Y-123118740D01*
X107862624Y-122907796D01*
X107470204Y-122515376D01*
X107046543Y-122339890D01*
X107206227Y-122180206D01*
X107275152Y-122134152D01*
X107457604Y-121861094D01*
X107505500Y-121620303D01*
X107521672Y-121539000D01*
X107505500Y-121457697D01*
X107505500Y-120923000D01*
X107774874Y-120923000D01*
X108155280Y-120765431D01*
X108446431Y-120474280D01*
X108604000Y-120093874D01*
X108604000Y-119682126D01*
X108446431Y-119301720D01*
X108394500Y-119249789D01*
X108394500Y-118891000D01*
X108663874Y-118891000D01*
X109044280Y-118733431D01*
X109335431Y-118442280D01*
X109493000Y-118061874D01*
X109493000Y-117650126D01*
X109335431Y-117269720D01*
X109283500Y-117217789D01*
X109283500Y-106634297D01*
X109299671Y-106552999D01*
X109283500Y-106471701D01*
X109283500Y-106471697D01*
X109235604Y-106230906D01*
X109053152Y-105957848D01*
X108984226Y-105911793D01*
X107956209Y-104883777D01*
X107910152Y-104814848D01*
X107637094Y-104632396D01*
X107396303Y-104584500D01*
X107396301Y-104584500D01*
X107315000Y-104568328D01*
X107235289Y-104584184D01*
X107334000Y-104345874D01*
X107334000Y-103934126D01*
X107176431Y-103553720D01*
X107127711Y-103505000D01*
X107176431Y-103456280D01*
X107334000Y-103075874D01*
X107334000Y-102664126D01*
X107176431Y-102283720D01*
X106885280Y-101992569D01*
X106504874Y-101835000D01*
X106093126Y-101835000D01*
X105712720Y-101992569D01*
X105660789Y-102044500D01*
X105513504Y-102044500D01*
X105404766Y-101971843D01*
X105157001Y-101922560D01*
X103657001Y-101922560D01*
X103409236Y-101971843D01*
X103199192Y-102112191D01*
X103058844Y-102322235D01*
X103009561Y-102570000D01*
X103009561Y-103170000D01*
X103058844Y-103417765D01*
X103117133Y-103505000D01*
X103058844Y-103592235D01*
X103009561Y-103840000D01*
X103009561Y-104440000D01*
X103058844Y-104687765D01*
X103117133Y-104775000D01*
X103058844Y-104862235D01*
X103009561Y-105110000D01*
X103009561Y-105710000D01*
X103058844Y-105957765D01*
X103117133Y-106045000D01*
X103058844Y-106132235D01*
X103009561Y-106380000D01*
X103009561Y-106980000D01*
X103058844Y-107227765D01*
X103117133Y-107315000D01*
X103058844Y-107402235D01*
X103009561Y-107650000D01*
X103009561Y-108250000D01*
X103058844Y-108497765D01*
X103117133Y-108585000D01*
X103058844Y-108672235D01*
X103009561Y-108920000D01*
X103009561Y-109520000D01*
X103058844Y-109767765D01*
X103199192Y-109977809D01*
X103409236Y-110118157D01*
X103657001Y-110167440D01*
X105157001Y-110167440D01*
X105219500Y-110155008D01*
X105219501Y-120713500D01*
X99776303Y-120713500D01*
X99695000Y-120697328D01*
X99613697Y-120713500D01*
X99372906Y-120761396D01*
X99099848Y-120943848D01*
X99053793Y-121012774D01*
X98533777Y-121532791D01*
X98464848Y-121578848D01*
X98282396Y-121851907D01*
X98280569Y-121861094D01*
X98218328Y-122174000D01*
X98234500Y-122255302D01*
X98234500Y-122550672D01*
X97877376Y-122907796D01*
X97790000Y-123118740D01*
X97702624Y-122907796D01*
X97310204Y-122515376D01*
X96797483Y-122303000D01*
X96242517Y-122303000D01*
X95729796Y-122515376D01*
X95337376Y-122907796D01*
X95250000Y-123118740D01*
X95162624Y-122907796D01*
X94770204Y-122515376D01*
X94257483Y-122303000D01*
X93702517Y-122303000D01*
X93189796Y-122515376D01*
X92797376Y-122907796D01*
X92585000Y-123420517D01*
X92585000Y-123975483D01*
X92797376Y-124488204D01*
X93189796Y-124880624D01*
X93400740Y-124968000D01*
X93189796Y-125055376D01*
X92797376Y-125447796D01*
X92710000Y-125658740D01*
X92622624Y-125447796D01*
X92230204Y-125055376D01*
X91717483Y-124843000D01*
X91162517Y-124843000D01*
X90649796Y-125055376D01*
X90257376Y-125447796D01*
X90170000Y-125658740D01*
X90082624Y-125447796D01*
X89690204Y-125055376D01*
X89479260Y-124968000D01*
X89690204Y-124880624D01*
X90082624Y-124488204D01*
X90295000Y-123975483D01*
X90295000Y-123420517D01*
X90082624Y-122907796D01*
X89690204Y-122515376D01*
X89177483Y-122303000D01*
X88622517Y-122303000D01*
X88340000Y-122420022D01*
X88340000Y-100117500D01*
X90317560Y-100117500D01*
X90317560Y-100692500D01*
X90384922Y-101031152D01*
X90551197Y-101280000D01*
X90384922Y-101528848D01*
X90317560Y-101867500D01*
X90317560Y-102442500D01*
X90384922Y-102781152D01*
X90576753Y-103068247D01*
X90863848Y-103260078D01*
X91202500Y-103327440D01*
X91370007Y-103327440D01*
X91438793Y-103396226D01*
X91484848Y-103465152D01*
X91617399Y-103553720D01*
X91757906Y-103647604D01*
X92080000Y-103711672D01*
X92161303Y-103695500D01*
X93563735Y-103695500D01*
X93522560Y-103902500D01*
X93522560Y-104377500D01*
X93589922Y-104716152D01*
X93781753Y-105003247D01*
X93802406Y-105017047D01*
X93842396Y-105218093D01*
X94024848Y-105491152D01*
X94093777Y-105537209D01*
X94492791Y-105936223D01*
X94538848Y-106005152D01*
X94686557Y-106103848D01*
X94811905Y-106187604D01*
X95134000Y-106251672D01*
X95215303Y-106235500D01*
X95313735Y-106235500D01*
X95272560Y-106442500D01*
X95272560Y-106917500D01*
X95339922Y-107256152D01*
X95531753Y-107543247D01*
X95818848Y-107735078D01*
X96157500Y-107802440D01*
X96374000Y-107802440D01*
X96374000Y-108155874D01*
X96531569Y-108536280D01*
X96580289Y-108585000D01*
X96531569Y-108633720D01*
X96374000Y-109014126D01*
X96374000Y-109425874D01*
X96531569Y-109806280D01*
X96822720Y-110097431D01*
X97203126Y-110255000D01*
X97614874Y-110255000D01*
X97984747Y-110101794D01*
X98009236Y-110118157D01*
X98257001Y-110167440D01*
X99757001Y-110167440D01*
X100004766Y-110118157D01*
X100214810Y-109977809D01*
X100355158Y-109767765D01*
X100404441Y-109520000D01*
X100404441Y-108920000D01*
X100355158Y-108672235D01*
X100296869Y-108585000D01*
X100355158Y-108497765D01*
X100404441Y-108250000D01*
X100404441Y-107650000D01*
X100355158Y-107402235D01*
X100296869Y-107315000D01*
X100355158Y-107227765D01*
X100404441Y-106980000D01*
X100404441Y-106380000D01*
X100355158Y-106132235D01*
X100296869Y-106045000D01*
X100355158Y-105957765D01*
X100404441Y-105710000D01*
X100404441Y-105110000D01*
X100355158Y-104862235D01*
X100296869Y-104775000D01*
X100355158Y-104687765D01*
X100404441Y-104440000D01*
X100404441Y-103840000D01*
X100355158Y-103592235D01*
X100296869Y-103505000D01*
X100355158Y-103417765D01*
X100404441Y-103170000D01*
X100404441Y-102570000D01*
X100355158Y-102322235D01*
X100296869Y-102235000D01*
X100355158Y-102147765D01*
X100404441Y-101900000D01*
X100404441Y-101300000D01*
X100355158Y-101052235D01*
X100296869Y-100965000D01*
X100355158Y-100877765D01*
X100404441Y-100630000D01*
X100404441Y-100030000D01*
X103009561Y-100030000D01*
X103009561Y-100630000D01*
X103058844Y-100877765D01*
X103199192Y-101087809D01*
X103409236Y-101228157D01*
X103657001Y-101277440D01*
X105157001Y-101277440D01*
X105404766Y-101228157D01*
X105513504Y-101155500D01*
X116654501Y-101155500D01*
X116654500Y-101998235D01*
X116641753Y-102006753D01*
X116449922Y-102293848D01*
X116382560Y-102632500D01*
X116382560Y-103107500D01*
X116449922Y-103446152D01*
X116641753Y-103733247D01*
X116928848Y-103925078D01*
X117267500Y-103992440D01*
X117842500Y-103992440D01*
X118181152Y-103925078D01*
X118468247Y-103733247D01*
X118660078Y-103446152D01*
X118727440Y-103107500D01*
X118727440Y-102632500D01*
X118660078Y-102293848D01*
X118468247Y-102006753D01*
X118305500Y-101898009D01*
X118305500Y-101727000D01*
X118387881Y-101727000D01*
X118901337Y-101514320D01*
X119294320Y-101121337D01*
X119507000Y-100607881D01*
X119507000Y-100052119D01*
X121793000Y-100052119D01*
X121793000Y-100607881D01*
X122005680Y-101121337D01*
X122398663Y-101514320D01*
X122912119Y-101727000D01*
X122994501Y-101727000D01*
X122994501Y-101898008D01*
X122831753Y-102006753D01*
X122639922Y-102293848D01*
X122572560Y-102632500D01*
X122572560Y-103107500D01*
X122639922Y-103446152D01*
X122831753Y-103733247D01*
X123118848Y-103925078D01*
X123457500Y-103992440D01*
X124032500Y-103992440D01*
X124371152Y-103925078D01*
X124658247Y-103733247D01*
X124850078Y-103446152D01*
X124917440Y-103107500D01*
X124917440Y-102632500D01*
X124850078Y-102293848D01*
X124658247Y-102006753D01*
X124645500Y-101998236D01*
X124645500Y-101155500D01*
X126445338Y-101155500D01*
X126848365Y-102128493D01*
X127741507Y-103021635D01*
X128908453Y-103505000D01*
X130171547Y-103505000D01*
X131338493Y-103021635D01*
X132231635Y-102128493D01*
X132715000Y-100961547D01*
X132715000Y-99698453D01*
X132231635Y-98531507D01*
X131338493Y-97638365D01*
X130171547Y-97155000D01*
X128908453Y-97155000D01*
X127741507Y-97638365D01*
X126848365Y-98531507D01*
X126445338Y-99504500D01*
X124340157Y-99504500D01*
X123981337Y-99145680D01*
X123467881Y-98933000D01*
X122912119Y-98933000D01*
X122398663Y-99145680D01*
X122005680Y-99538663D01*
X121793000Y-100052119D01*
X119507000Y-100052119D01*
X119294320Y-99538663D01*
X118901337Y-99145680D01*
X118387881Y-98933000D01*
X117832119Y-98933000D01*
X117318663Y-99145680D01*
X116959843Y-99504500D01*
X105513504Y-99504500D01*
X105404766Y-99431843D01*
X105157001Y-99382560D01*
X103657001Y-99382560D01*
X103409236Y-99431843D01*
X103199192Y-99572191D01*
X103058844Y-99782235D01*
X103009561Y-100030000D01*
X100404441Y-100030000D01*
X100355158Y-99782235D01*
X100214810Y-99572191D01*
X100004766Y-99431843D01*
X99757001Y-99382560D01*
X98257001Y-99382560D01*
X98009236Y-99431843D01*
X97900498Y-99504500D01*
X92311764Y-99504500D01*
X92303247Y-99491753D01*
X92016152Y-99299922D01*
X91677500Y-99232560D01*
X91202500Y-99232560D01*
X90863848Y-99299922D01*
X90576753Y-99491753D01*
X90384922Y-99778848D01*
X90317560Y-100117500D01*
X88340000Y-100117500D01*
X88340000Y-84335978D01*
X88622517Y-84453000D01*
X89177483Y-84453000D01*
X89690204Y-84240624D01*
X90082624Y-83848204D01*
X90170000Y-83637260D01*
X90257376Y-83848204D01*
X90649796Y-84240624D01*
X91162517Y-84453000D01*
X91717483Y-84453000D01*
X92230204Y-84240624D01*
X92622624Y-83848204D01*
X92710000Y-83637260D01*
X92797376Y-83848204D01*
X93189796Y-84240624D01*
X93702517Y-84453000D01*
X94257483Y-84453000D01*
X94770204Y-84240624D01*
X95162624Y-83848204D01*
X95250000Y-83637260D01*
X95337376Y-83848204D01*
X95729796Y-84240624D01*
X96242517Y-84453000D01*
X96797483Y-84453000D01*
X97310204Y-84240624D01*
X97702624Y-83848204D01*
X97790000Y-83637260D01*
X97877376Y-83848204D01*
X98269796Y-84240624D01*
X98782517Y-84453000D01*
X99337483Y-84453000D01*
X99850204Y-84240624D01*
X100242624Y-83848204D01*
X100330000Y-83637260D01*
X100417376Y-83848204D01*
X100809796Y-84240624D01*
X101322517Y-84453000D01*
X101877483Y-84453000D01*
X102390204Y-84240624D01*
X102782624Y-83848204D01*
X102870000Y-83637260D01*
X102957376Y-83848204D01*
X103349796Y-84240624D01*
X103862517Y-84453000D01*
X104417483Y-84453000D01*
X104930204Y-84240624D01*
X105322624Y-83848204D01*
X105410000Y-83637260D01*
X105497376Y-83848204D01*
X105889796Y-84240624D01*
X106402517Y-84453000D01*
X106957483Y-84453000D01*
X107470204Y-84240624D01*
X107862624Y-83848204D01*
X107950000Y-83637260D01*
X108037376Y-83848204D01*
X108429796Y-84240624D01*
X108942517Y-84453000D01*
X109497483Y-84453000D01*
X110010204Y-84240624D01*
X110402624Y-83848204D01*
X110490000Y-83637260D01*
X110577376Y-83848204D01*
X110969796Y-84240624D01*
X111482517Y-84453000D01*
X112037483Y-84453000D01*
X112550204Y-84240624D01*
X112942624Y-83848204D01*
X113155000Y-83335483D01*
X113155000Y-82780517D01*
X112942624Y-82267796D01*
X112550204Y-81875376D01*
X112339260Y-81788000D01*
X112550204Y-81700624D01*
X112942624Y-81308204D01*
X113155000Y-80795483D01*
X113155000Y-80240517D01*
X112942624Y-79727796D01*
X112550204Y-79335376D01*
X112037483Y-79123000D01*
X111482517Y-79123000D01*
X110969796Y-79335376D01*
X110577376Y-79727796D01*
X110490000Y-79938740D01*
X110402624Y-79727796D01*
X110010204Y-79335376D01*
X109497483Y-79123000D01*
X108942517Y-79123000D01*
X108429796Y-79335376D01*
X108037376Y-79727796D01*
X107950000Y-79938740D01*
X107862624Y-79727796D01*
X107470204Y-79335376D01*
X106957483Y-79123000D01*
X106402517Y-79123000D01*
X105889796Y-79335376D01*
X105497376Y-79727796D01*
X105410000Y-79938740D01*
X105322624Y-79727796D01*
X104930204Y-79335376D01*
X104417483Y-79123000D01*
X103862517Y-79123000D01*
X103349796Y-79335376D01*
X102957376Y-79727796D01*
X102870000Y-79938740D01*
X102782624Y-79727796D01*
X102390204Y-79335376D01*
X101877483Y-79123000D01*
X101322517Y-79123000D01*
X100809796Y-79335376D01*
X100417376Y-79727796D01*
X100330000Y-79938740D01*
X100242624Y-79727796D01*
X99850204Y-79335376D01*
X99337483Y-79123000D01*
X98782517Y-79123000D01*
X98269796Y-79335376D01*
X97877376Y-79727796D01*
X97790000Y-79938740D01*
X97702624Y-79727796D01*
X97310204Y-79335376D01*
X96797483Y-79123000D01*
X96242517Y-79123000D01*
X95729796Y-79335376D01*
X95337376Y-79727796D01*
X95250000Y-79938740D01*
X95162624Y-79727796D01*
X94770204Y-79335376D01*
X94257483Y-79123000D01*
X93702517Y-79123000D01*
X93189796Y-79335376D01*
X92797376Y-79727796D01*
X92710000Y-79938740D01*
X92622624Y-79727796D01*
X92230204Y-79335376D01*
X91717483Y-79123000D01*
X91162517Y-79123000D01*
X90649796Y-79335376D01*
X90257376Y-79727796D01*
X90045000Y-80240517D01*
X90045000Y-80795483D01*
X90257376Y-81308204D01*
X90649796Y-81700624D01*
X90860740Y-81788000D01*
X90649796Y-81875376D01*
X90257376Y-82267796D01*
X90170000Y-82478740D01*
X90082624Y-82267796D01*
X89690204Y-81875376D01*
X89177483Y-81663000D01*
X88622517Y-81663000D01*
X88340000Y-81780022D01*
X88340000Y-74652119D01*
X90043000Y-74652119D01*
X90043000Y-75207881D01*
X90255680Y-75721337D01*
X90648663Y-76114320D01*
X91162119Y-76327000D01*
X91717881Y-76327000D01*
X92231337Y-76114320D01*
X92624320Y-75721337D01*
X92710000Y-75514487D01*
X92795680Y-75721337D01*
X93188663Y-76114320D01*
X93702119Y-76327000D01*
X94257881Y-76327000D01*
X94771337Y-76114320D01*
X95164320Y-75721337D01*
X95377000Y-75207881D01*
X95377000Y-74652119D01*
X97663000Y-74652119D01*
X97663000Y-75207881D01*
X97875680Y-75721337D01*
X98268663Y-76114320D01*
X98782119Y-76327000D01*
X99337881Y-76327000D01*
X99851337Y-76114320D01*
X100244320Y-75721337D01*
X100330000Y-75514487D01*
X100415680Y-75721337D01*
X100808663Y-76114320D01*
X101322119Y-76327000D01*
X101877881Y-76327000D01*
X102391337Y-76114320D01*
X102784320Y-75721337D01*
X102997000Y-75207881D01*
X102997000Y-74652119D01*
X109093000Y-74652119D01*
X109093000Y-75207881D01*
X109305680Y-75721337D01*
X109698663Y-76114320D01*
X110212119Y-76327000D01*
X110767881Y-76327000D01*
X111281337Y-76114320D01*
X111674320Y-75721337D01*
X111760000Y-75514487D01*
X111845680Y-75721337D01*
X112238663Y-76114320D01*
X112752119Y-76327000D01*
X113307881Y-76327000D01*
X113821337Y-76114320D01*
X114214320Y-75721337D01*
X114427000Y-75207881D01*
X114427000Y-74652119D01*
X116713000Y-74652119D01*
X116713000Y-75207881D01*
X116925680Y-75721337D01*
X117318663Y-76114320D01*
X117832119Y-76327000D01*
X118387881Y-76327000D01*
X118901337Y-76114320D01*
X119294320Y-75721337D01*
X119380000Y-75514487D01*
X119465680Y-75721337D01*
X119858663Y-76114320D01*
X120372119Y-76327000D01*
X120927881Y-76327000D01*
X121441337Y-76114320D01*
X121834320Y-75721337D01*
X122047000Y-75207881D01*
X122047000Y-74652119D01*
X121834320Y-74138663D01*
X121441337Y-73745680D01*
X120927881Y-73533000D01*
X120372119Y-73533000D01*
X119858663Y-73745680D01*
X119465680Y-74138663D01*
X119380000Y-74345513D01*
X119294320Y-74138663D01*
X118901337Y-73745680D01*
X118387881Y-73533000D01*
X117832119Y-73533000D01*
X117318663Y-73745680D01*
X116925680Y-74138663D01*
X116713000Y-74652119D01*
X114427000Y-74652119D01*
X114214320Y-74138663D01*
X113821337Y-73745680D01*
X113307881Y-73533000D01*
X112752119Y-73533000D01*
X112238663Y-73745680D01*
X111845680Y-74138663D01*
X111760000Y-74345513D01*
X111674320Y-74138663D01*
X111281337Y-73745680D01*
X110767881Y-73533000D01*
X110212119Y-73533000D01*
X109698663Y-73745680D01*
X109305680Y-74138663D01*
X109093000Y-74652119D01*
X102997000Y-74652119D01*
X102784320Y-74138663D01*
X102391337Y-73745680D01*
X101877881Y-73533000D01*
X101322119Y-73533000D01*
X100808663Y-73745680D01*
X100415680Y-74138663D01*
X100330000Y-74345513D01*
X100244320Y-74138663D01*
X99851337Y-73745680D01*
X99337881Y-73533000D01*
X98782119Y-73533000D01*
X98268663Y-73745680D01*
X97875680Y-74138663D01*
X97663000Y-74652119D01*
X95377000Y-74652119D01*
X95164320Y-74138663D01*
X94771337Y-73745680D01*
X94257881Y-73533000D01*
X93702119Y-73533000D01*
X93188663Y-73745680D01*
X92795680Y-74138663D01*
X92710000Y-74345513D01*
X92624320Y-74138663D01*
X92231337Y-73745680D01*
X91717881Y-73533000D01*
X91162119Y-73533000D01*
X90648663Y-73745680D01*
X90255680Y-74138663D01*
X90043000Y-74652119D01*
X88340000Y-74652119D01*
X88340000Y-67801544D01*
X88833167Y-68294711D01*
X89700567Y-68654000D01*
X90639433Y-68654000D01*
X91506833Y-68294711D01*
X92170711Y-67630833D01*
X92530000Y-66763433D01*
X92530000Y-65824567D01*
X100510000Y-65824567D01*
X100510000Y-66763433D01*
X100869289Y-67630833D01*
X101533167Y-68294711D01*
X102400567Y-68654000D01*
X103339433Y-68654000D01*
X104206833Y-68294711D01*
X104870711Y-67630833D01*
X105230000Y-66763433D01*
X105230000Y-65824567D01*
X106860000Y-65824567D01*
X106860000Y-66763433D01*
X107219289Y-67630833D01*
X107883167Y-68294711D01*
X108750567Y-68654000D01*
X109689433Y-68654000D01*
X110556833Y-68294711D01*
X111220711Y-67630833D01*
X111580000Y-66763433D01*
X111580000Y-65824567D01*
X119560000Y-65824567D01*
X119560000Y-66763433D01*
X119919289Y-67630833D01*
X120583167Y-68294711D01*
X121450567Y-68654000D01*
X122389433Y-68654000D01*
X123256833Y-68294711D01*
X123920711Y-67630833D01*
X124280000Y-66763433D01*
X124280000Y-65824567D01*
X123920711Y-64957167D01*
X123256833Y-64293289D01*
X122389433Y-63934000D01*
X121450567Y-63934000D01*
X120583167Y-64293289D01*
X119919289Y-64957167D01*
X119560000Y-65824567D01*
X111580000Y-65824567D01*
X111220711Y-64957167D01*
X110556833Y-64293289D01*
X109689433Y-63934000D01*
X108750567Y-63934000D01*
X107883167Y-64293289D01*
X107219289Y-64957167D01*
X106860000Y-65824567D01*
X105230000Y-65824567D01*
X104870711Y-64957167D01*
X104206833Y-64293289D01*
X103339433Y-63934000D01*
X102400567Y-63934000D01*
X101533167Y-64293289D01*
X100869289Y-64957167D01*
X100510000Y-65824567D01*
X92530000Y-65824567D01*
X92170711Y-64957167D01*
X91506833Y-64293289D01*
X90639433Y-63934000D01*
X89700567Y-63934000D01*
X88833167Y-64293289D01*
X88340000Y-64786456D01*
X88340000Y-63741081D01*
X88400090Y-63321491D01*
X88554381Y-62982148D01*
X88797712Y-62699748D01*
X89110523Y-62496994D01*
X89491184Y-62383152D01*
X89688350Y-62368500D01*
X146507419Y-62368500D01*
X146927009Y-62428590D01*
X146927009Y-62428590D01*
G37*
X146927009Y-62428590D02*
X147266352Y-62582881D01*
X147548752Y-62826212D01*
X147751506Y-63139023D01*
X147865348Y-63519684D01*
X147880000Y-63716850D01*
X147880001Y-105105412D01*
X147819910Y-105525009D01*
X147665619Y-105864352D01*
X147422288Y-106146752D01*
X147109479Y-106349506D01*
X146728815Y-106463348D01*
X146531649Y-106478000D01*
X130879925Y-106478000D01*
X130810000Y-106464091D01*
X130740074Y-106478000D01*
X130532972Y-106519195D01*
X130298119Y-106676119D01*
X130141195Y-106910972D01*
X130086091Y-107188000D01*
X130100000Y-107257926D01*
X130100001Y-127946069D01*
X130086091Y-128016000D01*
X130141195Y-128293028D01*
X130298119Y-128527881D01*
X130532972Y-128684805D01*
X130740074Y-128726000D01*
X130740075Y-128726000D01*
X130810000Y-128739909D01*
X130879926Y-128726000D01*
X146507419Y-128726000D01*
X146927009Y-128786090D01*
X147266352Y-128940381D01*
X147548752Y-129183712D01*
X147751506Y-129496523D01*
X147865348Y-129877184D01*
X147880001Y-130074363D01*
X147880000Y-137579760D01*
X147534241Y-137683164D01*
X147446769Y-137723582D01*
X147358806Y-137762929D01*
X147351502Y-137767601D01*
X147351498Y-137767603D01*
X147351499Y-137767603D01*
X146868040Y-138080966D01*
X146795447Y-138144293D01*
X146722045Y-138206763D01*
X146716343Y-138213300D01*
X146340266Y-138649759D01*
X146288347Y-138730942D01*
X146235446Y-138811475D01*
X146231808Y-138819350D01*
X145993347Y-139343817D01*
X145966300Y-139436309D01*
X145938129Y-139528452D01*
X145936847Y-139537031D01*
X145855171Y-140107346D01*
X145855171Y-140179766D01*
X145849362Y-140251963D01*
X145849952Y-140260618D01*
X145872272Y-140560966D01*
X145887826Y-140631711D01*
X145897654Y-140703455D01*
X145900088Y-140711781D01*
X146065164Y-141263758D01*
X146105591Y-141351250D01*
X146144930Y-141439194D01*
X146149603Y-141446501D01*
X146462966Y-141929961D01*
X146526328Y-142002594D01*
X146588763Y-142075955D01*
X146595296Y-142081654D01*
X146595300Y-142081658D01*
X146595305Y-142081661D01*
X147031759Y-142457734D01*
X147112942Y-142509653D01*
X147193475Y-142562554D01*
X147201346Y-142566190D01*
X147201349Y-142566192D01*
X147201352Y-142566193D01*
X147725817Y-142804653D01*
X147818309Y-142831700D01*
X147880001Y-142850561D01*
X147880000Y-150825418D01*
X147819910Y-151245009D01*
X147665619Y-151584352D01*
X147422288Y-151866752D01*
X147109479Y-152069506D01*
X146728815Y-152183348D01*
X146531649Y-152198000D01*
X89712581Y-152198000D01*
X89292991Y-152137910D01*
X88953648Y-151983619D01*
X88671248Y-151740288D01*
X88468494Y-151427479D01*
X88354652Y-151046815D01*
X88340000Y-150849649D01*
X88340000Y-142836239D01*
X88685758Y-142732836D01*
X88773250Y-142692409D01*
X88861194Y-142653070D01*
X88868498Y-142648399D01*
X88868502Y-142648397D01*
X89351961Y-142335034D01*
X89424594Y-142271672D01*
X89497955Y-142209237D01*
X89503654Y-142202704D01*
X89503658Y-142202700D01*
X89503661Y-142202695D01*
X89879734Y-141766241D01*
X89931653Y-141685058D01*
X89984554Y-141604525D01*
X89988192Y-141596650D01*
X90226653Y-141072183D01*
X90253700Y-140979691D01*
X90281871Y-140887548D01*
X90283153Y-140878969D01*
X90364829Y-140308653D01*
X90364829Y-140236233D01*
X90370638Y-140164036D01*
X90370048Y-140155382D01*
X90347728Y-139855033D01*
X90332174Y-139784288D01*
X90322346Y-139712544D01*
X90319912Y-139704219D01*
X90154836Y-139152241D01*
X90114418Y-139064769D01*
X90075071Y-138976806D01*
X90070397Y-138969499D01*
X89757034Y-138486040D01*
X89693707Y-138413447D01*
X89631237Y-138340045D01*
X89624700Y-138334343D01*
X89188241Y-137958266D01*
X89107058Y-137906347D01*
X89026525Y-137853446D01*
X89018654Y-137849810D01*
X89018651Y-137849808D01*
X89018648Y-137849807D01*
X88494183Y-137611347D01*
X88401691Y-137584300D01*
X88340000Y-137565439D01*
X88340000Y-127515978D01*
X88622517Y-127633000D01*
X89177483Y-127633000D01*
X89690204Y-127420624D01*
X90082624Y-127028204D01*
X90170000Y-126817260D01*
X90257376Y-127028204D01*
X90649796Y-127420624D01*
X91162517Y-127633000D01*
X91717483Y-127633000D01*
X92230204Y-127420624D01*
X92622624Y-127028204D01*
X92710000Y-126817260D01*
X92797376Y-127028204D01*
X93189796Y-127420624D01*
X93702517Y-127633000D01*
X94257483Y-127633000D01*
X94770204Y-127420624D01*
X95162624Y-127028204D01*
X95250000Y-126817260D01*
X95337376Y-127028204D01*
X95729796Y-127420624D01*
X96242517Y-127633000D01*
X96797483Y-127633000D01*
X97310204Y-127420624D01*
X97702624Y-127028204D01*
X97790000Y-126817260D01*
X97877376Y-127028204D01*
X98269796Y-127420624D01*
X98782517Y-127633000D01*
X99337483Y-127633000D01*
X99850204Y-127420624D01*
X100242624Y-127028204D01*
X100330000Y-126817260D01*
X100417376Y-127028204D01*
X100809796Y-127420624D01*
X101322517Y-127633000D01*
X101877483Y-127633000D01*
X102390204Y-127420624D01*
X102782624Y-127028204D01*
X102870000Y-126817260D01*
X102957376Y-127028204D01*
X103349796Y-127420624D01*
X103862517Y-127633000D01*
X104417483Y-127633000D01*
X104930204Y-127420624D01*
X105322624Y-127028204D01*
X105410000Y-126817260D01*
X105497376Y-127028204D01*
X105889796Y-127420624D01*
X106402517Y-127633000D01*
X106957483Y-127633000D01*
X107470204Y-127420624D01*
X107862624Y-127028204D01*
X107950000Y-126817260D01*
X108037376Y-127028204D01*
X108429796Y-127420624D01*
X108942517Y-127633000D01*
X109497483Y-127633000D01*
X110010204Y-127420624D01*
X110402624Y-127028204D01*
X110490000Y-126817260D01*
X110577376Y-127028204D01*
X110969796Y-127420624D01*
X111482517Y-127633000D01*
X112037483Y-127633000D01*
X112550204Y-127420624D01*
X112942624Y-127028204D01*
X113155000Y-126515483D01*
X113155000Y-125960517D01*
X112942624Y-125447796D01*
X112550204Y-125055376D01*
X112339260Y-124968000D01*
X112550204Y-124880624D01*
X112942624Y-124488204D01*
X113155000Y-123975483D01*
X113155000Y-123420517D01*
X112942624Y-122907796D01*
X112550204Y-122515376D01*
X112037483Y-122303000D01*
X111482517Y-122303000D01*
X110969796Y-122515376D01*
X110577376Y-122907796D01*
X110490000Y-123118740D01*
X110402624Y-122907796D01*
X110010204Y-122515376D01*
X109497483Y-122303000D01*
X108942517Y-122303000D01*
X108429796Y-122515376D01*
X108037376Y-122907796D01*
X107950000Y-123118740D01*
X107862624Y-122907796D01*
X107470204Y-122515376D01*
X107046543Y-122339890D01*
X107206227Y-122180206D01*
X107275152Y-122134152D01*
X107457604Y-121861094D01*
X107505500Y-121620303D01*
X107521672Y-121539000D01*
X107505500Y-121457697D01*
X107505500Y-120923000D01*
X107774874Y-120923000D01*
X108155280Y-120765431D01*
X108446431Y-120474280D01*
X108604000Y-120093874D01*
X108604000Y-119682126D01*
X108446431Y-119301720D01*
X108394500Y-119249789D01*
X108394500Y-118891000D01*
X108663874Y-118891000D01*
X109044280Y-118733431D01*
X109335431Y-118442280D01*
X109493000Y-118061874D01*
X109493000Y-117650126D01*
X109335431Y-117269720D01*
X109283500Y-117217789D01*
X109283500Y-106634297D01*
X109299671Y-106552999D01*
X109283500Y-106471701D01*
X109283500Y-106471697D01*
X109235604Y-106230906D01*
X109053152Y-105957848D01*
X108984226Y-105911793D01*
X107956209Y-104883777D01*
X107910152Y-104814848D01*
X107637094Y-104632396D01*
X107396303Y-104584500D01*
X107396301Y-104584500D01*
X107315000Y-104568328D01*
X107235289Y-104584184D01*
X107334000Y-104345874D01*
X107334000Y-103934126D01*
X107176431Y-103553720D01*
X107127711Y-103505000D01*
X107176431Y-103456280D01*
X107334000Y-103075874D01*
X107334000Y-102664126D01*
X107176431Y-102283720D01*
X106885280Y-101992569D01*
X106504874Y-101835000D01*
X106093126Y-101835000D01*
X105712720Y-101992569D01*
X105660789Y-102044500D01*
X105513504Y-102044500D01*
X105404766Y-101971843D01*
X105157001Y-101922560D01*
X103657001Y-101922560D01*
X103409236Y-101971843D01*
X103199192Y-102112191D01*
X103058844Y-102322235D01*
X103009561Y-102570000D01*
X103009561Y-103170000D01*
X103058844Y-103417765D01*
X103117133Y-103505000D01*
X103058844Y-103592235D01*
X103009561Y-103840000D01*
X103009561Y-104440000D01*
X103058844Y-104687765D01*
X103117133Y-104775000D01*
X103058844Y-104862235D01*
X103009561Y-105110000D01*
X103009561Y-105710000D01*
X103058844Y-105957765D01*
X103117133Y-106045000D01*
X103058844Y-106132235D01*
X103009561Y-106380000D01*
X103009561Y-106980000D01*
X103058844Y-107227765D01*
X103117133Y-107315000D01*
X103058844Y-107402235D01*
X103009561Y-107650000D01*
X103009561Y-108250000D01*
X103058844Y-108497765D01*
X103117133Y-108585000D01*
X103058844Y-108672235D01*
X103009561Y-108920000D01*
X103009561Y-109520000D01*
X103058844Y-109767765D01*
X103199192Y-109977809D01*
X103409236Y-110118157D01*
X103657001Y-110167440D01*
X105157001Y-110167440D01*
X105219500Y-110155008D01*
X105219501Y-120713500D01*
X99776303Y-120713500D01*
X99695000Y-120697328D01*
X99613697Y-120713500D01*
X99372906Y-120761396D01*
X99099848Y-120943848D01*
X99053793Y-121012774D01*
X98533777Y-121532791D01*
X98464848Y-121578848D01*
X98282396Y-121851907D01*
X98280569Y-121861094D01*
X98218328Y-122174000D01*
X98234500Y-122255302D01*
X98234500Y-122550672D01*
X97877376Y-122907796D01*
X97790000Y-123118740D01*
X97702624Y-122907796D01*
X97310204Y-122515376D01*
X96797483Y-122303000D01*
X96242517Y-122303000D01*
X95729796Y-122515376D01*
X95337376Y-122907796D01*
X95250000Y-123118740D01*
X95162624Y-122907796D01*
X94770204Y-122515376D01*
X94257483Y-122303000D01*
X93702517Y-122303000D01*
X93189796Y-122515376D01*
X92797376Y-122907796D01*
X92585000Y-123420517D01*
X92585000Y-123975483D01*
X92797376Y-124488204D01*
X93189796Y-124880624D01*
X93400740Y-124968000D01*
X93189796Y-125055376D01*
X92797376Y-125447796D01*
X92710000Y-125658740D01*
X92622624Y-125447796D01*
X92230204Y-125055376D01*
X91717483Y-124843000D01*
X91162517Y-124843000D01*
X90649796Y-125055376D01*
X90257376Y-125447796D01*
X90170000Y-125658740D01*
X90082624Y-125447796D01*
X89690204Y-125055376D01*
X89479260Y-124968000D01*
X89690204Y-124880624D01*
X90082624Y-124488204D01*
X90295000Y-123975483D01*
X90295000Y-123420517D01*
X90082624Y-122907796D01*
X89690204Y-122515376D01*
X89177483Y-122303000D01*
X88622517Y-122303000D01*
X88340000Y-122420022D01*
X88340000Y-100117500D01*
X90317560Y-100117500D01*
X90317560Y-100692500D01*
X90384922Y-101031152D01*
X90551197Y-101280000D01*
X90384922Y-101528848D01*
X90317560Y-101867500D01*
X90317560Y-102442500D01*
X90384922Y-102781152D01*
X90576753Y-103068247D01*
X90863848Y-103260078D01*
X91202500Y-103327440D01*
X91370007Y-103327440D01*
X91438793Y-103396226D01*
X91484848Y-103465152D01*
X91617399Y-103553720D01*
X91757906Y-103647604D01*
X92080000Y-103711672D01*
X92161303Y-103695500D01*
X93563735Y-103695500D01*
X93522560Y-103902500D01*
X93522560Y-104377500D01*
X93589922Y-104716152D01*
X93781753Y-105003247D01*
X93802406Y-105017047D01*
X93842396Y-105218093D01*
X94024848Y-105491152D01*
X94093777Y-105537209D01*
X94492791Y-105936223D01*
X94538848Y-106005152D01*
X94686557Y-106103848D01*
X94811905Y-106187604D01*
X95134000Y-106251672D01*
X95215303Y-106235500D01*
X95313735Y-106235500D01*
X95272560Y-106442500D01*
X95272560Y-106917500D01*
X95339922Y-107256152D01*
X95531753Y-107543247D01*
X95818848Y-107735078D01*
X96157500Y-107802440D01*
X96374000Y-107802440D01*
X96374000Y-108155874D01*
X96531569Y-108536280D01*
X96580289Y-108585000D01*
X96531569Y-108633720D01*
X96374000Y-109014126D01*
X96374000Y-109425874D01*
X96531569Y-109806280D01*
X96822720Y-110097431D01*
X97203126Y-110255000D01*
X97614874Y-110255000D01*
X97984747Y-110101794D01*
X98009236Y-110118157D01*
X98257001Y-110167440D01*
X99757001Y-110167440D01*
X100004766Y-110118157D01*
X100214810Y-109977809D01*
X100355158Y-109767765D01*
X100404441Y-109520000D01*
X100404441Y-108920000D01*
X100355158Y-108672235D01*
X100296869Y-108585000D01*
X100355158Y-108497765D01*
X100404441Y-108250000D01*
X100404441Y-107650000D01*
X100355158Y-107402235D01*
X100296869Y-107315000D01*
X100355158Y-107227765D01*
X100404441Y-106980000D01*
X100404441Y-106380000D01*
X100355158Y-106132235D01*
X100296869Y-106045000D01*
X100355158Y-105957765D01*
X100404441Y-105710000D01*
X100404441Y-105110000D01*
X100355158Y-104862235D01*
X100296869Y-104775000D01*
X100355158Y-104687765D01*
X100404441Y-104440000D01*
X100404441Y-103840000D01*
X100355158Y-103592235D01*
X100296869Y-103505000D01*
X100355158Y-103417765D01*
X100404441Y-103170000D01*
X100404441Y-102570000D01*
X100355158Y-102322235D01*
X100296869Y-102235000D01*
X100355158Y-102147765D01*
X100404441Y-101900000D01*
X100404441Y-101300000D01*
X100355158Y-101052235D01*
X100296869Y-100965000D01*
X100355158Y-100877765D01*
X100404441Y-100630000D01*
X100404441Y-100030000D01*
X103009561Y-100030000D01*
X103009561Y-100630000D01*
X103058844Y-100877765D01*
X103199192Y-101087809D01*
X103409236Y-101228157D01*
X103657001Y-101277440D01*
X105157001Y-101277440D01*
X105404766Y-101228157D01*
X105513504Y-101155500D01*
X116654501Y-101155500D01*
X116654500Y-101998235D01*
X116641753Y-102006753D01*
X116449922Y-102293848D01*
X116382560Y-102632500D01*
X116382560Y-103107500D01*
X116449922Y-103446152D01*
X116641753Y-103733247D01*
X116928848Y-103925078D01*
X117267500Y-103992440D01*
X117842500Y-103992440D01*
X118181152Y-103925078D01*
X118468247Y-103733247D01*
X118660078Y-103446152D01*
X118727440Y-103107500D01*
X118727440Y-102632500D01*
X118660078Y-102293848D01*
X118468247Y-102006753D01*
X118305500Y-101898009D01*
X118305500Y-101727000D01*
X118387881Y-101727000D01*
X118901337Y-101514320D01*
X119294320Y-101121337D01*
X119507000Y-100607881D01*
X119507000Y-100052119D01*
X121793000Y-100052119D01*
X121793000Y-100607881D01*
X122005680Y-101121337D01*
X122398663Y-101514320D01*
X122912119Y-101727000D01*
X122994501Y-101727000D01*
X122994501Y-101898008D01*
X122831753Y-102006753D01*
X122639922Y-102293848D01*
X122572560Y-102632500D01*
X122572560Y-103107500D01*
X122639922Y-103446152D01*
X122831753Y-103733247D01*
X123118848Y-103925078D01*
X123457500Y-103992440D01*
X124032500Y-103992440D01*
X124371152Y-103925078D01*
X124658247Y-103733247D01*
X124850078Y-103446152D01*
X124917440Y-103107500D01*
X124917440Y-102632500D01*
X124850078Y-102293848D01*
X124658247Y-102006753D01*
X124645500Y-101998236D01*
X124645500Y-101155500D01*
X126445338Y-101155500D01*
X126848365Y-102128493D01*
X127741507Y-103021635D01*
X128908453Y-103505000D01*
X130171547Y-103505000D01*
X131338493Y-103021635D01*
X132231635Y-102128493D01*
X132715000Y-100961547D01*
X132715000Y-99698453D01*
X132231635Y-98531507D01*
X131338493Y-97638365D01*
X130171547Y-97155000D01*
X128908453Y-97155000D01*
X127741507Y-97638365D01*
X126848365Y-98531507D01*
X126445338Y-99504500D01*
X124340157Y-99504500D01*
X123981337Y-99145680D01*
X123467881Y-98933000D01*
X122912119Y-98933000D01*
X122398663Y-99145680D01*
X122005680Y-99538663D01*
X121793000Y-100052119D01*
X119507000Y-100052119D01*
X119294320Y-99538663D01*
X118901337Y-99145680D01*
X118387881Y-98933000D01*
X117832119Y-98933000D01*
X117318663Y-99145680D01*
X116959843Y-99504500D01*
X105513504Y-99504500D01*
X105404766Y-99431843D01*
X105157001Y-99382560D01*
X103657001Y-99382560D01*
X103409236Y-99431843D01*
X103199192Y-99572191D01*
X103058844Y-99782235D01*
X103009561Y-100030000D01*
X100404441Y-100030000D01*
X100355158Y-99782235D01*
X100214810Y-99572191D01*
X100004766Y-99431843D01*
X99757001Y-99382560D01*
X98257001Y-99382560D01*
X98009236Y-99431843D01*
X97900498Y-99504500D01*
X92311764Y-99504500D01*
X92303247Y-99491753D01*
X92016152Y-99299922D01*
X91677500Y-99232560D01*
X91202500Y-99232560D01*
X90863848Y-99299922D01*
X90576753Y-99491753D01*
X90384922Y-99778848D01*
X90317560Y-100117500D01*
X88340000Y-100117500D01*
X88340000Y-84335978D01*
X88622517Y-84453000D01*
X89177483Y-84453000D01*
X89690204Y-84240624D01*
X90082624Y-83848204D01*
X90170000Y-83637260D01*
X90257376Y-83848204D01*
X90649796Y-84240624D01*
X91162517Y-84453000D01*
X91717483Y-84453000D01*
X92230204Y-84240624D01*
X92622624Y-83848204D01*
X92710000Y-83637260D01*
X92797376Y-83848204D01*
X93189796Y-84240624D01*
X93702517Y-84453000D01*
X94257483Y-84453000D01*
X94770204Y-84240624D01*
X95162624Y-83848204D01*
X95250000Y-83637260D01*
X95337376Y-83848204D01*
X95729796Y-84240624D01*
X96242517Y-84453000D01*
X96797483Y-84453000D01*
X97310204Y-84240624D01*
X97702624Y-83848204D01*
X97790000Y-83637260D01*
X97877376Y-83848204D01*
X98269796Y-84240624D01*
X98782517Y-84453000D01*
X99337483Y-84453000D01*
X99850204Y-84240624D01*
X100242624Y-83848204D01*
X100330000Y-83637260D01*
X100417376Y-83848204D01*
X100809796Y-84240624D01*
X101322517Y-84453000D01*
X101877483Y-84453000D01*
X102390204Y-84240624D01*
X102782624Y-83848204D01*
X102870000Y-83637260D01*
X102957376Y-83848204D01*
X103349796Y-84240624D01*
X103862517Y-84453000D01*
X104417483Y-84453000D01*
X104930204Y-84240624D01*
X105322624Y-83848204D01*
X105410000Y-83637260D01*
X105497376Y-83848204D01*
X105889796Y-84240624D01*
X106402517Y-84453000D01*
X106957483Y-84453000D01*
X107470204Y-84240624D01*
X107862624Y-83848204D01*
X107950000Y-83637260D01*
X108037376Y-83848204D01*
X108429796Y-84240624D01*
X108942517Y-84453000D01*
X109497483Y-84453000D01*
X110010204Y-84240624D01*
X110402624Y-83848204D01*
X110490000Y-83637260D01*
X110577376Y-83848204D01*
X110969796Y-84240624D01*
X111482517Y-84453000D01*
X112037483Y-84453000D01*
X112550204Y-84240624D01*
X112942624Y-83848204D01*
X113155000Y-83335483D01*
X113155000Y-82780517D01*
X112942624Y-82267796D01*
X112550204Y-81875376D01*
X112339260Y-81788000D01*
X112550204Y-81700624D01*
X112942624Y-81308204D01*
X113155000Y-80795483D01*
X113155000Y-80240517D01*
X112942624Y-79727796D01*
X112550204Y-79335376D01*
X112037483Y-79123000D01*
X111482517Y-79123000D01*
X110969796Y-79335376D01*
X110577376Y-79727796D01*
X110490000Y-79938740D01*
X110402624Y-79727796D01*
X110010204Y-79335376D01*
X109497483Y-79123000D01*
X108942517Y-79123000D01*
X108429796Y-79335376D01*
X108037376Y-79727796D01*
X107950000Y-79938740D01*
X107862624Y-79727796D01*
X107470204Y-79335376D01*
X106957483Y-79123000D01*
X106402517Y-79123000D01*
X105889796Y-79335376D01*
X105497376Y-79727796D01*
X105410000Y-79938740D01*
X105322624Y-79727796D01*
X104930204Y-79335376D01*
X104417483Y-79123000D01*
X103862517Y-79123000D01*
X103349796Y-79335376D01*
X102957376Y-79727796D01*
X102870000Y-79938740D01*
X102782624Y-79727796D01*
X102390204Y-79335376D01*
X101877483Y-79123000D01*
X101322517Y-79123000D01*
X100809796Y-79335376D01*
X100417376Y-79727796D01*
X100330000Y-79938740D01*
X100242624Y-79727796D01*
X99850204Y-79335376D01*
X99337483Y-79123000D01*
X98782517Y-79123000D01*
X98269796Y-79335376D01*
X97877376Y-79727796D01*
X97790000Y-79938740D01*
X97702624Y-79727796D01*
X97310204Y-79335376D01*
X96797483Y-79123000D01*
X96242517Y-79123000D01*
X95729796Y-79335376D01*
X95337376Y-79727796D01*
X95250000Y-79938740D01*
X95162624Y-79727796D01*
X94770204Y-79335376D01*
X94257483Y-79123000D01*
X93702517Y-79123000D01*
X93189796Y-79335376D01*
X92797376Y-79727796D01*
X92710000Y-79938740D01*
X92622624Y-79727796D01*
X92230204Y-79335376D01*
X91717483Y-79123000D01*
X91162517Y-79123000D01*
X90649796Y-79335376D01*
X90257376Y-79727796D01*
X90045000Y-80240517D01*
X90045000Y-80795483D01*
X90257376Y-81308204D01*
X90649796Y-81700624D01*
X90860740Y-81788000D01*
X90649796Y-81875376D01*
X90257376Y-82267796D01*
X90170000Y-82478740D01*
X90082624Y-82267796D01*
X89690204Y-81875376D01*
X89177483Y-81663000D01*
X88622517Y-81663000D01*
X88340000Y-81780022D01*
X88340000Y-74652119D01*
X90043000Y-74652119D01*
X90043000Y-75207881D01*
X90255680Y-75721337D01*
X90648663Y-76114320D01*
X91162119Y-76327000D01*
X91717881Y-76327000D01*
X92231337Y-76114320D01*
X92624320Y-75721337D01*
X92710000Y-75514487D01*
X92795680Y-75721337D01*
X93188663Y-76114320D01*
X93702119Y-76327000D01*
X94257881Y-76327000D01*
X94771337Y-76114320D01*
X95164320Y-75721337D01*
X95377000Y-75207881D01*
X95377000Y-74652119D01*
X97663000Y-74652119D01*
X97663000Y-75207881D01*
X97875680Y-75721337D01*
X98268663Y-76114320D01*
X98782119Y-76327000D01*
X99337881Y-76327000D01*
X99851337Y-76114320D01*
X100244320Y-75721337D01*
X100330000Y-75514487D01*
X100415680Y-75721337D01*
X100808663Y-76114320D01*
X101322119Y-76327000D01*
X101877881Y-76327000D01*
X102391337Y-76114320D01*
X102784320Y-75721337D01*
X102997000Y-75207881D01*
X102997000Y-74652119D01*
X109093000Y-74652119D01*
X109093000Y-75207881D01*
X109305680Y-75721337D01*
X109698663Y-76114320D01*
X110212119Y-76327000D01*
X110767881Y-76327000D01*
X111281337Y-76114320D01*
X111674320Y-75721337D01*
X111760000Y-75514487D01*
X111845680Y-75721337D01*
X112238663Y-76114320D01*
X112752119Y-76327000D01*
X113307881Y-76327000D01*
X113821337Y-76114320D01*
X114214320Y-75721337D01*
X114427000Y-75207881D01*
X114427000Y-74652119D01*
X116713000Y-74652119D01*
X116713000Y-75207881D01*
X116925680Y-75721337D01*
X117318663Y-76114320D01*
X117832119Y-76327000D01*
X118387881Y-76327000D01*
X118901337Y-76114320D01*
X119294320Y-75721337D01*
X119380000Y-75514487D01*
X119465680Y-75721337D01*
X119858663Y-76114320D01*
X120372119Y-76327000D01*
X120927881Y-76327000D01*
X121441337Y-76114320D01*
X121834320Y-75721337D01*
X122047000Y-75207881D01*
X122047000Y-74652119D01*
X121834320Y-74138663D01*
X121441337Y-73745680D01*
X120927881Y-73533000D01*
X120372119Y-73533000D01*
X119858663Y-73745680D01*
X119465680Y-74138663D01*
X119380000Y-74345513D01*
X119294320Y-74138663D01*
X118901337Y-73745680D01*
X118387881Y-73533000D01*
X117832119Y-73533000D01*
X117318663Y-73745680D01*
X116925680Y-74138663D01*
X116713000Y-74652119D01*
X114427000Y-74652119D01*
X114214320Y-74138663D01*
X113821337Y-73745680D01*
X113307881Y-73533000D01*
X112752119Y-73533000D01*
X112238663Y-73745680D01*
X111845680Y-74138663D01*
X111760000Y-74345513D01*
X111674320Y-74138663D01*
X111281337Y-73745680D01*
X110767881Y-73533000D01*
X110212119Y-73533000D01*
X109698663Y-73745680D01*
X109305680Y-74138663D01*
X109093000Y-74652119D01*
X102997000Y-74652119D01*
X102784320Y-74138663D01*
X102391337Y-73745680D01*
X101877881Y-73533000D01*
X101322119Y-73533000D01*
X100808663Y-73745680D01*
X100415680Y-74138663D01*
X100330000Y-74345513D01*
X100244320Y-74138663D01*
X99851337Y-73745680D01*
X99337881Y-73533000D01*
X98782119Y-73533000D01*
X98268663Y-73745680D01*
X97875680Y-74138663D01*
X97663000Y-74652119D01*
X95377000Y-74652119D01*
X95164320Y-74138663D01*
X94771337Y-73745680D01*
X94257881Y-73533000D01*
X93702119Y-73533000D01*
X93188663Y-73745680D01*
X92795680Y-74138663D01*
X92710000Y-74345513D01*
X92624320Y-74138663D01*
X92231337Y-73745680D01*
X91717881Y-73533000D01*
X91162119Y-73533000D01*
X90648663Y-73745680D01*
X90255680Y-74138663D01*
X90043000Y-74652119D01*
X88340000Y-74652119D01*
X88340000Y-67801544D01*
X88833167Y-68294711D01*
X89700567Y-68654000D01*
X90639433Y-68654000D01*
X91506833Y-68294711D01*
X92170711Y-67630833D01*
X92530000Y-66763433D01*
X92530000Y-65824567D01*
X100510000Y-65824567D01*
X100510000Y-66763433D01*
X100869289Y-67630833D01*
X101533167Y-68294711D01*
X102400567Y-68654000D01*
X103339433Y-68654000D01*
X104206833Y-68294711D01*
X104870711Y-67630833D01*
X105230000Y-66763433D01*
X105230000Y-65824567D01*
X106860000Y-65824567D01*
X106860000Y-66763433D01*
X107219289Y-67630833D01*
X107883167Y-68294711D01*
X108750567Y-68654000D01*
X109689433Y-68654000D01*
X110556833Y-68294711D01*
X111220711Y-67630833D01*
X111580000Y-66763433D01*
X111580000Y-65824567D01*
X119560000Y-65824567D01*
X119560000Y-66763433D01*
X119919289Y-67630833D01*
X120583167Y-68294711D01*
X121450567Y-68654000D01*
X122389433Y-68654000D01*
X123256833Y-68294711D01*
X123920711Y-67630833D01*
X124280000Y-66763433D01*
X124280000Y-65824567D01*
X123920711Y-64957167D01*
X123256833Y-64293289D01*
X122389433Y-63934000D01*
X121450567Y-63934000D01*
X120583167Y-64293289D01*
X119919289Y-64957167D01*
X119560000Y-65824567D01*
X111580000Y-65824567D01*
X111220711Y-64957167D01*
X110556833Y-64293289D01*
X109689433Y-63934000D01*
X108750567Y-63934000D01*
X107883167Y-64293289D01*
X107219289Y-64957167D01*
X106860000Y-65824567D01*
X105230000Y-65824567D01*
X104870711Y-64957167D01*
X104206833Y-64293289D01*
X103339433Y-63934000D01*
X102400567Y-63934000D01*
X101533167Y-64293289D01*
X100869289Y-64957167D01*
X100510000Y-65824567D01*
X92530000Y-65824567D01*
X92170711Y-64957167D01*
X91506833Y-64293289D01*
X90639433Y-63934000D01*
X89700567Y-63934000D01*
X88833167Y-64293289D01*
X88340000Y-64786456D01*
X88340000Y-63741081D01*
X88400090Y-63321491D01*
X88554381Y-62982148D01*
X88797712Y-62699748D01*
X89110523Y-62496994D01*
X89491184Y-62383152D01*
X89688350Y-62368500D01*
X146507419Y-62368500D01*
X146927009Y-62428590D01*
G36*
X95272560Y-101362500D02*
X95272560Y-101837500D01*
X95313735Y-102044500D01*
X92562440Y-102044500D01*
X92562440Y-101867500D01*
X92495078Y-101528848D01*
X92328803Y-101280000D01*
X92411991Y-101155500D01*
X95313735Y-101155500D01*
X95272560Y-101362500D01*
X95272560Y-101362500D01*
G37*
X95272560Y-101362500D02*
X95272560Y-101837500D01*
X95313735Y-102044500D01*
X92562440Y-102044500D01*
X92562440Y-101867500D01*
X92495078Y-101528848D01*
X92328803Y-101280000D01*
X92411991Y-101155500D01*
X95313735Y-101155500D01*
X95272560Y-101362500D01*
G04 #@! TD*
M02*
