G04 #@! TF.GenerationSoftware,KiCad,Pcbnew,(5.0.0)*
G04 #@! TF.CreationDate,2018-09-29T14:22:10-05:00*
G04 #@! TF.ProjectId,DriveBoard_Hardware,4472697665426F6172645F4861726477,rev?*
G04 #@! TF.SameCoordinates,Original*
G04 #@! TF.FileFunction,Legend,Top*
G04 #@! TF.FilePolarity,Positive*
%FSLAX46Y46*%
G04 Gerber Fmt 4.6, Leading zero omitted, Abs format (unit mm)*
G04 Created by KiCad (PCBNEW (5.0.0)) date 09/29/18 14:22:10*
%MOMM*%
%LPD*%
G01*
G04 APERTURE LIST*
%ADD10C,0.120000*%
%ADD11C,0.150000*%
G04 APERTURE END LIST*
D10*
G04 #@! TO.C,C1*
X39603734Y-71385001D02*
X39946268Y-71385001D01*
X39603734Y-72405001D02*
X39946268Y-72405001D01*
G04 #@! TO.C,C2*
X43008733Y-55370000D02*
X43351267Y-55370000D01*
X43008733Y-56390000D02*
X43351267Y-56390000D01*
G04 #@! TO.C,C3*
X64993733Y-51560000D02*
X65336267Y-51560000D01*
X64993733Y-52580000D02*
X65336267Y-52580000D01*
G04 #@! TO.C,C4*
X39603734Y-72895001D02*
X39946268Y-72895001D01*
X39603734Y-73915001D02*
X39946268Y-73915001D01*
G04 #@! TO.C,C5*
X39198733Y-55370000D02*
X39541267Y-55370000D01*
X39198733Y-56390000D02*
X39541267Y-56390000D01*
G04 #@! TO.C,C6*
X68408733Y-52580000D02*
X68751267Y-52580000D01*
X68408733Y-51560000D02*
X68751267Y-51560000D01*
D11*
G04 #@! TO.C,Conn1*
X86893400Y-75566000D02*
G75*
G03X88011000Y-76683600I1117600J0D01*
G01*
X88011000Y-76683600D02*
G75*
G03X89128600Y-75566000I0J1117600D01*
G01*
X98069400Y-91314000D02*
X98069400Y-75566000D01*
X73431400Y-91314000D02*
X73431400Y-75566000D01*
X89154000Y-91314000D02*
X90373200Y-91314000D01*
X88011000Y-90171000D02*
G75*
G03X86868000Y-91314000I0J-1143000D01*
G01*
X89154000Y-91314000D02*
G75*
G03X88011000Y-90171000I-1143000J0D01*
G01*
X85699600Y-75566000D02*
X86893400Y-75566000D01*
X88011000Y-77877400D02*
X88011000Y-76709000D01*
X90322400Y-75566000D02*
X89154000Y-75566000D01*
X85750400Y-91314000D02*
X86842600Y-91314000D01*
X88011000Y-90171000D02*
X88011000Y-89002600D01*
X88011000Y-81154000D02*
X88011000Y-82297000D01*
X98044000Y-83465400D02*
X89154000Y-83465400D01*
X88011000Y-85726000D02*
X88011000Y-84583000D01*
X85725000Y-83440000D02*
X86868000Y-83440000D01*
X88011000Y-81154000D02*
X88011000Y-77852000D01*
X85725000Y-83440000D02*
X73431400Y-83440000D01*
X88011000Y-85726000D02*
X88011000Y-89002600D01*
X89154000Y-83440000D02*
G75*
G03X89154000Y-83440000I-1143000J0D01*
G01*
X85725000Y-75566000D02*
X73431400Y-75566000D01*
X90297000Y-75566000D02*
X98044000Y-75566000D01*
X98044000Y-91314000D02*
X90297000Y-91314000D01*
X85725000Y-91314000D02*
X73431400Y-91314000D01*
G04 #@! TO.C,Conn2*
X43180000Y-23622000D02*
X43180000Y-24130000D01*
X50800000Y-24130000D02*
X50800000Y-23622000D01*
X38735000Y-23622000D02*
X55245000Y-23622000D01*
X38735000Y-35560000D02*
X38735000Y-23622000D01*
X55245000Y-35560000D02*
X55245000Y-23622000D01*
X53340000Y-35560000D02*
X55245000Y-35560000D01*
X40640000Y-35560000D02*
X38735000Y-35560000D01*
X43180000Y-27940000D02*
X43180000Y-29210000D01*
X43180000Y-29210000D02*
X50800000Y-29210000D01*
X50800000Y-29210000D02*
X50800000Y-27940000D01*
X50800000Y-27940000D02*
X50800000Y-24130000D01*
X43180000Y-27940000D02*
X43180000Y-24130000D01*
X45720000Y-29210000D02*
X45720000Y-31750000D01*
X45720000Y-31750000D02*
X48260000Y-31750000D01*
X48260000Y-31750000D02*
X48260000Y-29210000D01*
X40640000Y-35560000D02*
X53340000Y-35560000D01*
X53340000Y-35560000D02*
X53340000Y-38100000D01*
X53340000Y-38100000D02*
X40640000Y-38100000D01*
X40640000Y-38100000D02*
X40640000Y-35560000D01*
G04 #@! TO.C,Conn3*
X62230000Y-23622000D02*
X62230000Y-24130000D01*
X69850000Y-24130000D02*
X69850000Y-23622000D01*
X57785000Y-23622000D02*
X74295000Y-23622000D01*
X57785000Y-35560000D02*
X57785000Y-23622000D01*
X74295000Y-35560000D02*
X74295000Y-23622000D01*
X72390000Y-35560000D02*
X74295000Y-35560000D01*
X59690000Y-35560000D02*
X57785000Y-35560000D01*
X62230000Y-27940000D02*
X62230000Y-29210000D01*
X62230000Y-29210000D02*
X69850000Y-29210000D01*
X69850000Y-29210000D02*
X69850000Y-27940000D01*
X69850000Y-27940000D02*
X69850000Y-24130000D01*
X62230000Y-27940000D02*
X62230000Y-24130000D01*
X64770000Y-29210000D02*
X64770000Y-31750000D01*
X64770000Y-31750000D02*
X67310000Y-31750000D01*
X67310000Y-31750000D02*
X67310000Y-29210000D01*
X59690000Y-35560000D02*
X72390000Y-35560000D01*
X72390000Y-35560000D02*
X72390000Y-38100000D01*
X72390000Y-38100000D02*
X59690000Y-38100000D01*
X59690000Y-38100000D02*
X59690000Y-35560000D01*
G04 #@! TO.C,U1*
X35839001Y-44195001D02*
X35839001Y-49275001D01*
X61239001Y-44195001D02*
X35839001Y-44195001D01*
X61239001Y-49275001D02*
X61239001Y-44195001D01*
X35839001Y-92455001D02*
X61239001Y-92455001D01*
X35839001Y-87375001D02*
X35839001Y-92455001D01*
X61239001Y-92455001D02*
X61239001Y-87375001D01*
X35839001Y-49275001D02*
X61239001Y-49275001D01*
X61239001Y-87375001D02*
X35839001Y-87375001D01*
G04 #@! TO.C,U2*
X39960000Y-59550000D02*
X40960000Y-58550000D01*
X39960000Y-68450000D02*
X39960000Y-59550000D01*
X43860000Y-68450000D02*
X39960000Y-68450000D01*
X43860000Y-58550000D02*
X43860000Y-68450000D01*
X40960000Y-58550000D02*
X43860000Y-58550000D01*
G04 #@! TO.C,U3*
X41910000Y-74930000D02*
X58420000Y-74930000D01*
X58420000Y-85090000D02*
X41910000Y-85090000D01*
X58420000Y-74930000D02*
X58420000Y-85090000D01*
X41910000Y-74930000D02*
X41910000Y-85090000D01*
X54610000Y-77470000D02*
X54610000Y-82550000D01*
X52070000Y-74930000D02*
X54610000Y-77470000D01*
X46990000Y-74930000D02*
X52070000Y-74930000D01*
X44450000Y-77470000D02*
X46990000Y-74930000D01*
X44450000Y-82550000D02*
X44450000Y-77470000D01*
X46990000Y-85090000D02*
X44450000Y-82550000D01*
X52070000Y-85090000D02*
X46990000Y-85090000D01*
X54610000Y-82550000D02*
X52070000Y-85090000D01*
G04 #@! TO.C,C1*
X39608334Y-70822143D02*
X39560715Y-70869762D01*
X39417858Y-70917381D01*
X39322620Y-70917381D01*
X39179762Y-70869762D01*
X39084524Y-70774524D01*
X39036905Y-70679286D01*
X38989286Y-70488810D01*
X38989286Y-70345953D01*
X39036905Y-70155477D01*
X39084524Y-70060239D01*
X39179762Y-69965001D01*
X39322620Y-69917381D01*
X39417858Y-69917381D01*
X39560715Y-69965001D01*
X39608334Y-70012620D01*
X40560715Y-70917381D02*
X39989286Y-70917381D01*
X40275001Y-70917381D02*
X40275001Y-69917381D01*
X40179762Y-70060239D01*
X40084524Y-70155477D01*
X39989286Y-70203096D01*
G04 #@! TO.C,C2*
X43013333Y-54807142D02*
X42965714Y-54854761D01*
X42822857Y-54902380D01*
X42727619Y-54902380D01*
X42584761Y-54854761D01*
X42489523Y-54759523D01*
X42441904Y-54664285D01*
X42394285Y-54473809D01*
X42394285Y-54330952D01*
X42441904Y-54140476D01*
X42489523Y-54045238D01*
X42584761Y-53950000D01*
X42727619Y-53902380D01*
X42822857Y-53902380D01*
X42965714Y-53950000D01*
X43013333Y-53997619D01*
X43394285Y-53997619D02*
X43441904Y-53950000D01*
X43537142Y-53902380D01*
X43775238Y-53902380D01*
X43870476Y-53950000D01*
X43918095Y-53997619D01*
X43965714Y-54092857D01*
X43965714Y-54188095D01*
X43918095Y-54330952D01*
X43346666Y-54902380D01*
X43965714Y-54902380D01*
G04 #@! TO.C,C3*
X64998333Y-50997142D02*
X64950714Y-51044761D01*
X64807857Y-51092380D01*
X64712619Y-51092380D01*
X64569761Y-51044761D01*
X64474523Y-50949523D01*
X64426904Y-50854285D01*
X64379285Y-50663809D01*
X64379285Y-50520952D01*
X64426904Y-50330476D01*
X64474523Y-50235238D01*
X64569761Y-50140000D01*
X64712619Y-50092380D01*
X64807857Y-50092380D01*
X64950714Y-50140000D01*
X64998333Y-50187619D01*
X65331666Y-50092380D02*
X65950714Y-50092380D01*
X65617380Y-50473333D01*
X65760238Y-50473333D01*
X65855476Y-50520952D01*
X65903095Y-50568571D01*
X65950714Y-50663809D01*
X65950714Y-50901904D01*
X65903095Y-50997142D01*
X65855476Y-51044761D01*
X65760238Y-51092380D01*
X65474523Y-51092380D01*
X65379285Y-51044761D01*
X65331666Y-50997142D01*
G04 #@! TO.C,C4*
X39608334Y-72332143D02*
X39560715Y-72379762D01*
X39417858Y-72427381D01*
X39322620Y-72427381D01*
X39179762Y-72379762D01*
X39084524Y-72284524D01*
X39036905Y-72189286D01*
X38989286Y-71998810D01*
X38989286Y-71855953D01*
X39036905Y-71665477D01*
X39084524Y-71570239D01*
X39179762Y-71475001D01*
X39322620Y-71427381D01*
X39417858Y-71427381D01*
X39560715Y-71475001D01*
X39608334Y-71522620D01*
X40465477Y-71760715D02*
X40465477Y-72427381D01*
X40227381Y-71379762D02*
X39989286Y-72094048D01*
X40608334Y-72094048D01*
G04 #@! TO.C,C5*
X39203333Y-54807142D02*
X39155714Y-54854761D01*
X39012857Y-54902380D01*
X38917619Y-54902380D01*
X38774761Y-54854761D01*
X38679523Y-54759523D01*
X38631904Y-54664285D01*
X38584285Y-54473809D01*
X38584285Y-54330952D01*
X38631904Y-54140476D01*
X38679523Y-54045238D01*
X38774761Y-53950000D01*
X38917619Y-53902380D01*
X39012857Y-53902380D01*
X39155714Y-53950000D01*
X39203333Y-53997619D01*
X40108095Y-53902380D02*
X39631904Y-53902380D01*
X39584285Y-54378571D01*
X39631904Y-54330952D01*
X39727142Y-54283333D01*
X39965238Y-54283333D01*
X40060476Y-54330952D01*
X40108095Y-54378571D01*
X40155714Y-54473809D01*
X40155714Y-54711904D01*
X40108095Y-54807142D01*
X40060476Y-54854761D01*
X39965238Y-54902380D01*
X39727142Y-54902380D01*
X39631904Y-54854761D01*
X39584285Y-54807142D01*
G04 #@! TO.C,C6*
X68413333Y-50997142D02*
X68365714Y-51044761D01*
X68222857Y-51092380D01*
X68127619Y-51092380D01*
X67984761Y-51044761D01*
X67889523Y-50949523D01*
X67841904Y-50854285D01*
X67794285Y-50663809D01*
X67794285Y-50520952D01*
X67841904Y-50330476D01*
X67889523Y-50235238D01*
X67984761Y-50140000D01*
X68127619Y-50092380D01*
X68222857Y-50092380D01*
X68365714Y-50140000D01*
X68413333Y-50187619D01*
X69270476Y-50092380D02*
X69080000Y-50092380D01*
X68984761Y-50140000D01*
X68937142Y-50187619D01*
X68841904Y-50330476D01*
X68794285Y-50520952D01*
X68794285Y-50901904D01*
X68841904Y-50997142D01*
X68889523Y-51044761D01*
X68984761Y-51092380D01*
X69175238Y-51092380D01*
X69270476Y-51044761D01*
X69318095Y-50997142D01*
X69365714Y-50901904D01*
X69365714Y-50663809D01*
X69318095Y-50568571D01*
X69270476Y-50520952D01*
X69175238Y-50473333D01*
X68984761Y-50473333D01*
X68889523Y-50520952D01*
X68841904Y-50568571D01*
X68794285Y-50663809D01*
G04 #@! TO.C,U1*
X62302715Y-91351667D02*
X62778905Y-91351667D01*
X62207477Y-91637381D02*
X62540810Y-90637381D01*
X62874143Y-91637381D01*
X63159858Y-90732620D02*
X63207477Y-90685001D01*
X63302715Y-90637381D01*
X63540810Y-90637381D01*
X63636048Y-90685001D01*
X63683667Y-90732620D01*
X63731286Y-90827858D01*
X63731286Y-90923096D01*
X63683667Y-91065953D01*
X63112239Y-91637381D01*
X63731286Y-91637381D01*
X62612239Y-88319572D02*
X62755096Y-88367191D01*
X62802715Y-88414810D01*
X62850334Y-88510048D01*
X62850334Y-88652905D01*
X62802715Y-88748143D01*
X62755096Y-88795762D01*
X62659858Y-88843381D01*
X62278905Y-88843381D01*
X62278905Y-87843381D01*
X62612239Y-87843381D01*
X62707477Y-87891001D01*
X62755096Y-87938620D01*
X62802715Y-88033858D01*
X62802715Y-88129096D01*
X62755096Y-88224334D01*
X62707477Y-88271953D01*
X62612239Y-88319572D01*
X62278905Y-88319572D01*
X63231286Y-87938620D02*
X63278905Y-87891001D01*
X63374143Y-87843381D01*
X63612239Y-87843381D01*
X63707477Y-87891001D01*
X63755096Y-87938620D01*
X63802715Y-88033858D01*
X63802715Y-88129096D01*
X63755096Y-88271953D01*
X63183667Y-88843381D01*
X63802715Y-88843381D01*
X61516905Y-45663381D02*
X61516905Y-44663381D01*
X61755001Y-44663381D01*
X61897858Y-44711001D01*
X61993096Y-44806239D01*
X62040715Y-44901477D01*
X62088334Y-45091953D01*
X62088334Y-45234810D01*
X62040715Y-45425286D01*
X61993096Y-45520524D01*
X61897858Y-45615762D01*
X61755001Y-45663381D01*
X61516905Y-45663381D01*
X62469286Y-44758620D02*
X62516905Y-44711001D01*
X62612143Y-44663381D01*
X62850239Y-44663381D01*
X62945477Y-44711001D01*
X62993096Y-44758620D01*
X63040715Y-44853858D01*
X63040715Y-44949096D01*
X62993096Y-45091953D01*
X62421667Y-45663381D01*
X63040715Y-45663381D01*
X62088334Y-48362143D02*
X62040715Y-48409762D01*
X61897858Y-48457381D01*
X61802620Y-48457381D01*
X61659762Y-48409762D01*
X61564524Y-48314524D01*
X61516905Y-48219286D01*
X61469286Y-48028810D01*
X61469286Y-47885953D01*
X61516905Y-47695477D01*
X61564524Y-47600239D01*
X61659762Y-47505001D01*
X61802620Y-47457381D01*
X61897858Y-47457381D01*
X62040715Y-47505001D01*
X62088334Y-47552620D01*
X62469286Y-47552620D02*
X62516905Y-47505001D01*
X62612143Y-47457381D01*
X62850239Y-47457381D01*
X62945477Y-47505001D01*
X62993096Y-47552620D01*
X63040715Y-47647858D01*
X63040715Y-47743096D01*
X62993096Y-47885953D01*
X62421667Y-48457381D01*
X63040715Y-48457381D01*
X59159477Y-84795381D02*
X59826143Y-85795381D01*
X59826143Y-84795381D02*
X59159477Y-85795381D01*
X60635667Y-84795381D02*
X60445191Y-84795381D01*
X60349953Y-84843001D01*
X60302334Y-84890620D01*
X60207096Y-85033477D01*
X60159477Y-85223953D01*
X60159477Y-85604905D01*
X60207096Y-85700143D01*
X60254715Y-85747762D01*
X60349953Y-85795381D01*
X60540429Y-85795381D01*
X60635667Y-85747762D01*
X60683286Y-85700143D01*
X60730905Y-85604905D01*
X60730905Y-85366810D01*
X60683286Y-85271572D01*
X60635667Y-85223953D01*
X60540429Y-85176334D01*
X60349953Y-85176334D01*
X60254715Y-85223953D01*
X60207096Y-85271572D01*
X60159477Y-85366810D01*
X59159477Y-50759381D02*
X59826143Y-51759381D01*
X59826143Y-50759381D02*
X59159477Y-51759381D01*
X60111858Y-50759381D02*
X60778524Y-50759381D01*
X60349953Y-51759381D01*
X37394715Y-87065381D02*
X36823286Y-87065381D01*
X37109001Y-87065381D02*
X37109001Y-86065381D01*
X37013762Y-86208239D01*
X36918524Y-86303477D01*
X36823286Y-86351096D01*
X59778524Y-87065381D02*
X59207096Y-87065381D01*
X59492810Y-87065381D02*
X59492810Y-86065381D01*
X59397572Y-86208239D01*
X59302334Y-86303477D01*
X59207096Y-86351096D01*
X60397572Y-86065381D02*
X60492810Y-86065381D01*
X60588048Y-86113001D01*
X60635667Y-86160620D01*
X60683286Y-86255858D01*
X60730905Y-86446334D01*
X60730905Y-86684429D01*
X60683286Y-86874905D01*
X60635667Y-86970143D01*
X60588048Y-87017762D01*
X60492810Y-87065381D01*
X60397572Y-87065381D01*
X60302334Y-87017762D01*
X60254715Y-86970143D01*
X60207096Y-86874905D01*
X60159477Y-86684429D01*
X60159477Y-86446334D01*
X60207096Y-86255858D01*
X60254715Y-86160620D01*
X60302334Y-86113001D01*
X60397572Y-86065381D01*
X59778524Y-50489381D02*
X59207096Y-50489381D01*
X59492810Y-50489381D02*
X59492810Y-49489381D01*
X59397572Y-49632239D01*
X59302334Y-49727477D01*
X59207096Y-49775096D01*
X60397572Y-49489381D02*
X60492810Y-49489381D01*
X60588048Y-49537001D01*
X60635667Y-49584620D01*
X60683286Y-49679858D01*
X60730905Y-49870334D01*
X60730905Y-50108429D01*
X60683286Y-50298905D01*
X60635667Y-50394143D01*
X60588048Y-50441762D01*
X60492810Y-50489381D01*
X60397572Y-50489381D01*
X60302334Y-50441762D01*
X60254715Y-50394143D01*
X60207096Y-50298905D01*
X60159477Y-50108429D01*
X60159477Y-49870334D01*
X60207096Y-49679858D01*
X60254715Y-49584620D01*
X60302334Y-49537001D01*
X60397572Y-49489381D01*
X37394715Y-50489381D02*
X36823286Y-50489381D01*
X37109001Y-50489381D02*
X37109001Y-49489381D01*
X37013762Y-49632239D01*
X36918524Y-49727477D01*
X36823286Y-49775096D01*
G04 #@! TO.C,U2*
X41148095Y-56952380D02*
X41148095Y-57761904D01*
X41195714Y-57857142D01*
X41243333Y-57904761D01*
X41338571Y-57952380D01*
X41529047Y-57952380D01*
X41624285Y-57904761D01*
X41671904Y-57857142D01*
X41719523Y-57761904D01*
X41719523Y-56952380D01*
X42148095Y-57047619D02*
X42195714Y-57000000D01*
X42290952Y-56952380D01*
X42529047Y-56952380D01*
X42624285Y-57000000D01*
X42671904Y-57047619D01*
X42719523Y-57142857D01*
X42719523Y-57238095D01*
X42671904Y-57380952D01*
X42100476Y-57952380D01*
X42719523Y-57952380D01*
G04 #@! TO.C,U3*
X59142380Y-82113333D02*
X59142380Y-81922857D01*
X59190000Y-81827619D01*
X59285238Y-81732380D01*
X59475714Y-81684761D01*
X59809047Y-81684761D01*
X59999523Y-81732380D01*
X60094761Y-81827619D01*
X60142380Y-81922857D01*
X60142380Y-82113333D01*
X60094761Y-82208571D01*
X59999523Y-82303809D01*
X59809047Y-82351428D01*
X59475714Y-82351428D01*
X59285238Y-82303809D01*
X59190000Y-82208571D01*
X59142380Y-82113333D01*
X60142380Y-81256190D02*
X59142380Y-81256190D01*
X60142380Y-80684761D02*
X59570952Y-81113333D01*
X59142380Y-80684761D02*
X59713809Y-81256190D01*
X60142380Y-80256190D02*
X59142380Y-80256190D01*
G04 #@! TD*
M02*
