M48
;DRILL file {KiCad (5.0.0)} date 09/29/18 14:24:23
;FORMAT={-:-/ absolute / inch / decimal}
FMAT,2
INCH,TZ
T1C0.0157
T2C0.0300
T3C0.0350
T4C0.0394
T5C0.1598
%
G90
G05
M72
T1
X3.66Y-4.
X3.66Y-4.1
X3.835Y-4.25
X3.835Y-4.3
X4.185Y-4.05
X4.185Y-4.1
X4.235Y-4.72
X4.27Y-4.64
T2
X3.6Y-2.95
X3.7Y-2.95
X3.8Y-2.95
X3.9Y-2.95
X4.Y-2.95
X4.35Y-2.95
X4.45Y-2.95
X4.55Y-2.95
X4.65Y-2.95
X4.75Y-2.95
T3
X4.65Y-3.95
X4.75Y-3.95
X4.85Y-3.95
T4
X3.5Y-3.17
X3.5Y-3.27
X3.5Y-4.87
X3.5Y-4.97
X3.6Y-3.17
X3.6Y-3.27
X3.6Y-4.87
X3.6Y-4.97
X3.7Y-3.17
X3.7Y-3.27
X3.7Y-4.87
X3.7Y-4.97
X3.8Y-3.17
X3.8Y-3.27
X3.8Y-4.87
X3.8Y-4.97
X3.9Y-3.17
X3.9Y-3.27
X3.9Y-4.87
X3.9Y-4.97
X4.Y-3.17
X4.Y-3.27
X4.Y-4.87
X4.Y-4.97
X4.1Y-3.17
X4.1Y-3.27
X4.1Y-4.87
X4.1Y-4.97
X4.2Y-3.17
X4.2Y-3.27
X4.2Y-4.87
X4.2Y-4.97
X4.3Y-3.17
X4.3Y-3.27
X4.3Y-4.87
X4.3Y-4.97
X4.4Y-3.17
X4.4Y-3.27
X4.4Y-4.87
X4.4Y-4.97
T5
X5.1Y-3.635
X5.1Y-3.95
T0
M30
