G04 #@! TF.GenerationSoftware,KiCad,Pcbnew,(5.0.0)*
G04 #@! TF.CreationDate,2018-09-29T16:55:19-05:00*
G04 #@! TF.ProjectId,Driveboard_Hardware,4472697665626F6172645F4861726477,rev?*
G04 #@! TF.SameCoordinates,Original*
G04 #@! TF.FileFunction,Legend,Top*
G04 #@! TF.FilePolarity,Positive*
%FSLAX46Y46*%
G04 Gerber Fmt 4.6, Leading zero omitted, Abs format (unit mm)*
G04 Created by KiCad (PCBNEW (5.0.0)) date 09/29/18 16:55:19*
%MOMM*%
%LPD*%
G01*
G04 APERTURE LIST*
%ADD10C,0.300000*%
%ADD11C,0.150000*%
%ADD12C,0.120000*%
%ADD13C,0.010000*%
G04 APERTURE END LIST*
D10*
X86469142Y-148237571D02*
X86469142Y-146737571D01*
X86826285Y-146737571D01*
X87040571Y-146809000D01*
X87183428Y-146951857D01*
X87254857Y-147094714D01*
X87326285Y-147380428D01*
X87326285Y-147594714D01*
X87254857Y-147880428D01*
X87183428Y-148023285D01*
X87040571Y-148166142D01*
X86826285Y-148237571D01*
X86469142Y-148237571D01*
X87969142Y-148237571D02*
X87969142Y-147237571D01*
X87969142Y-147523285D02*
X88040571Y-147380428D01*
X88112000Y-147309000D01*
X88254857Y-147237571D01*
X88397714Y-147237571D01*
X88897714Y-148237571D02*
X88897714Y-147237571D01*
X88897714Y-146737571D02*
X88826285Y-146809000D01*
X88897714Y-146880428D01*
X88969142Y-146809000D01*
X88897714Y-146737571D01*
X88897714Y-146880428D01*
X89469142Y-147237571D02*
X89826285Y-148237571D01*
X90183428Y-147237571D01*
X91326285Y-148166142D02*
X91183428Y-148237571D01*
X90897714Y-148237571D01*
X90754857Y-148166142D01*
X90683428Y-148023285D01*
X90683428Y-147451857D01*
X90754857Y-147309000D01*
X90897714Y-147237571D01*
X91183428Y-147237571D01*
X91326285Y-147309000D01*
X91397714Y-147451857D01*
X91397714Y-147594714D01*
X90683428Y-147737571D01*
X92040571Y-148237571D02*
X92040571Y-146737571D01*
X92040571Y-147309000D02*
X92183428Y-147237571D01*
X92469142Y-147237571D01*
X92612000Y-147309000D01*
X92683428Y-147380428D01*
X92754857Y-147523285D01*
X92754857Y-147951857D01*
X92683428Y-148094714D01*
X92612000Y-148166142D01*
X92469142Y-148237571D01*
X92183428Y-148237571D01*
X92040571Y-148166142D01*
X93612000Y-148237571D02*
X93469142Y-148166142D01*
X93397714Y-148094714D01*
X93326285Y-147951857D01*
X93326285Y-147523285D01*
X93397714Y-147380428D01*
X93469142Y-147309000D01*
X93612000Y-147237571D01*
X93826285Y-147237571D01*
X93969142Y-147309000D01*
X94040571Y-147380428D01*
X94112000Y-147523285D01*
X94112000Y-147951857D01*
X94040571Y-148094714D01*
X93969142Y-148166142D01*
X93826285Y-148237571D01*
X93612000Y-148237571D01*
X95397714Y-148237571D02*
X95397714Y-147451857D01*
X95326285Y-147309000D01*
X95183428Y-147237571D01*
X94897714Y-147237571D01*
X94754857Y-147309000D01*
X95397714Y-148166142D02*
X95254857Y-148237571D01*
X94897714Y-148237571D01*
X94754857Y-148166142D01*
X94683428Y-148023285D01*
X94683428Y-147880428D01*
X94754857Y-147737571D01*
X94897714Y-147666142D01*
X95254857Y-147666142D01*
X95397714Y-147594714D01*
X96112000Y-148237571D02*
X96112000Y-147237571D01*
X96112000Y-147523285D02*
X96183428Y-147380428D01*
X96254857Y-147309000D01*
X96397714Y-147237571D01*
X96540571Y-147237571D01*
X97683428Y-148237571D02*
X97683428Y-146737571D01*
X97683428Y-148166142D02*
X97540571Y-148237571D01*
X97254857Y-148237571D01*
X97112000Y-148166142D01*
X97040571Y-148094714D01*
X96969142Y-147951857D01*
X96969142Y-147523285D01*
X97040571Y-147380428D01*
X97112000Y-147309000D01*
X97254857Y-147237571D01*
X97540571Y-147237571D01*
X97683428Y-147309000D01*
X98040571Y-148380428D02*
X99183428Y-148380428D01*
X99540571Y-148237571D02*
X99540571Y-146737571D01*
X99540571Y-147451857D02*
X100397714Y-147451857D01*
X100397714Y-148237571D02*
X100397714Y-146737571D01*
X101754857Y-148237571D02*
X101754857Y-147451857D01*
X101683428Y-147309000D01*
X101540571Y-147237571D01*
X101254857Y-147237571D01*
X101112000Y-147309000D01*
X101754857Y-148166142D02*
X101612000Y-148237571D01*
X101254857Y-148237571D01*
X101112000Y-148166142D01*
X101040571Y-148023285D01*
X101040571Y-147880428D01*
X101112000Y-147737571D01*
X101254857Y-147666142D01*
X101612000Y-147666142D01*
X101754857Y-147594714D01*
X102469142Y-148237571D02*
X102469142Y-147237571D01*
X102469142Y-147523285D02*
X102540571Y-147380428D01*
X102612000Y-147309000D01*
X102754857Y-147237571D01*
X102897714Y-147237571D01*
X104040571Y-148237571D02*
X104040571Y-146737571D01*
X104040571Y-148166142D02*
X103897714Y-148237571D01*
X103612000Y-148237571D01*
X103469142Y-148166142D01*
X103397714Y-148094714D01*
X103326285Y-147951857D01*
X103326285Y-147523285D01*
X103397714Y-147380428D01*
X103469142Y-147309000D01*
X103612000Y-147237571D01*
X103897714Y-147237571D01*
X104040571Y-147309000D01*
X104612000Y-147237571D02*
X104897714Y-148237571D01*
X105183428Y-147523285D01*
X105469142Y-148237571D01*
X105754857Y-147237571D01*
X106969142Y-148237571D02*
X106969142Y-147451857D01*
X106897714Y-147309000D01*
X106754857Y-147237571D01*
X106469142Y-147237571D01*
X106326285Y-147309000D01*
X106969142Y-148166142D02*
X106826285Y-148237571D01*
X106469142Y-148237571D01*
X106326285Y-148166142D01*
X106254857Y-148023285D01*
X106254857Y-147880428D01*
X106326285Y-147737571D01*
X106469142Y-147666142D01*
X106826285Y-147666142D01*
X106969142Y-147594714D01*
X107683428Y-148237571D02*
X107683428Y-147237571D01*
X107683428Y-147523285D02*
X107754857Y-147380428D01*
X107826285Y-147309000D01*
X107969142Y-147237571D01*
X108112000Y-147237571D01*
X109183428Y-148166142D02*
X109040571Y-148237571D01*
X108754857Y-148237571D01*
X108612000Y-148166142D01*
X108540571Y-148023285D01*
X108540571Y-147451857D01*
X108612000Y-147309000D01*
X108754857Y-147237571D01*
X109040571Y-147237571D01*
X109183428Y-147309000D01*
X109254857Y-147451857D01*
X109254857Y-147594714D01*
X108540571Y-147737571D01*
X109969142Y-148166142D02*
X109969142Y-148237571D01*
X109897714Y-148380428D01*
X109826285Y-148451857D01*
X112612000Y-148237571D02*
X112112000Y-147523285D01*
X111754857Y-148237571D02*
X111754857Y-146737571D01*
X112326285Y-146737571D01*
X112469142Y-146809000D01*
X112540571Y-146880428D01*
X112612000Y-147023285D01*
X112612000Y-147237571D01*
X112540571Y-147380428D01*
X112469142Y-147451857D01*
X112326285Y-147523285D01*
X111754857Y-147523285D01*
X113826285Y-148166142D02*
X113683428Y-148237571D01*
X113397714Y-148237571D01*
X113254857Y-148166142D01*
X113183428Y-148023285D01*
X113183428Y-147451857D01*
X113254857Y-147309000D01*
X113397714Y-147237571D01*
X113683428Y-147237571D01*
X113826285Y-147309000D01*
X113897714Y-147451857D01*
X113897714Y-147594714D01*
X113183428Y-147737571D01*
X114397714Y-147237571D02*
X114754857Y-148237571D01*
X115112000Y-147237571D01*
X115683428Y-148094714D02*
X115754857Y-148166142D01*
X115683428Y-148237571D01*
X115612000Y-148166142D01*
X115683428Y-148094714D01*
X115683428Y-148237571D01*
X118326285Y-148237571D02*
X117469142Y-148237571D01*
X117897714Y-148237571D02*
X117897714Y-146737571D01*
X117754857Y-146951857D01*
X117612000Y-147094714D01*
X117469142Y-147166142D01*
X84897714Y-150787571D02*
X84897714Y-149287571D01*
X85397714Y-150359000D01*
X85897714Y-149287571D01*
X85897714Y-150787571D01*
X87254857Y-150787571D02*
X87254857Y-150001857D01*
X87183428Y-149859000D01*
X87040571Y-149787571D01*
X86754857Y-149787571D01*
X86612000Y-149859000D01*
X87254857Y-150716142D02*
X87112000Y-150787571D01*
X86754857Y-150787571D01*
X86612000Y-150716142D01*
X86540571Y-150573285D01*
X86540571Y-150430428D01*
X86612000Y-150287571D01*
X86754857Y-150216142D01*
X87112000Y-150216142D01*
X87254857Y-150144714D01*
X87969142Y-150787571D02*
X87969142Y-149787571D01*
X87969142Y-150073285D02*
X88040571Y-149930428D01*
X88112000Y-149859000D01*
X88254857Y-149787571D01*
X88397714Y-149787571D01*
X88826285Y-150716142D02*
X88969142Y-150787571D01*
X89254857Y-150787571D01*
X89397714Y-150716142D01*
X89469142Y-150573285D01*
X89469142Y-150501857D01*
X89397714Y-150359000D01*
X89254857Y-150287571D01*
X89040571Y-150287571D01*
X88897714Y-150216142D01*
X88826285Y-150073285D01*
X88826285Y-150001857D01*
X88897714Y-149859000D01*
X89040571Y-149787571D01*
X89254857Y-149787571D01*
X89397714Y-149859000D01*
X92112000Y-150787571D02*
X91612000Y-150073285D01*
X91254857Y-150787571D02*
X91254857Y-149287571D01*
X91826285Y-149287571D01*
X91969142Y-149359000D01*
X92040571Y-149430428D01*
X92112000Y-149573285D01*
X92112000Y-149787571D01*
X92040571Y-149930428D01*
X91969142Y-150001857D01*
X91826285Y-150073285D01*
X91254857Y-150073285D01*
X92969142Y-150787571D02*
X92826285Y-150716142D01*
X92754857Y-150644714D01*
X92683428Y-150501857D01*
X92683428Y-150073285D01*
X92754857Y-149930428D01*
X92826285Y-149859000D01*
X92969142Y-149787571D01*
X93183428Y-149787571D01*
X93326285Y-149859000D01*
X93397714Y-149930428D01*
X93469142Y-150073285D01*
X93469142Y-150501857D01*
X93397714Y-150644714D01*
X93326285Y-150716142D01*
X93183428Y-150787571D01*
X92969142Y-150787571D01*
X93969142Y-149787571D02*
X94326285Y-150787571D01*
X94683428Y-149787571D01*
X95826285Y-150716142D02*
X95683428Y-150787571D01*
X95397714Y-150787571D01*
X95254857Y-150716142D01*
X95183428Y-150573285D01*
X95183428Y-150001857D01*
X95254857Y-149859000D01*
X95397714Y-149787571D01*
X95683428Y-149787571D01*
X95826285Y-149859000D01*
X95897714Y-150001857D01*
X95897714Y-150144714D01*
X95183428Y-150287571D01*
X96540571Y-150787571D02*
X96540571Y-149787571D01*
X96540571Y-150073285D02*
X96612000Y-149930428D01*
X96683428Y-149859000D01*
X96826285Y-149787571D01*
X96969142Y-149787571D01*
X98612000Y-150787571D02*
X98612000Y-149287571D01*
X98969142Y-149287571D01*
X99183428Y-149359000D01*
X99326285Y-149501857D01*
X99397714Y-149644714D01*
X99469142Y-149930428D01*
X99469142Y-150144714D01*
X99397714Y-150430428D01*
X99326285Y-150573285D01*
X99183428Y-150716142D01*
X98969142Y-150787571D01*
X98612000Y-150787571D01*
X100683428Y-150716142D02*
X100540571Y-150787571D01*
X100254857Y-150787571D01*
X100112000Y-150716142D01*
X100040571Y-150573285D01*
X100040571Y-150001857D01*
X100112000Y-149859000D01*
X100254857Y-149787571D01*
X100540571Y-149787571D01*
X100683428Y-149859000D01*
X100754857Y-150001857D01*
X100754857Y-150144714D01*
X100040571Y-150287571D01*
X101326285Y-150716142D02*
X101469142Y-150787571D01*
X101754857Y-150787571D01*
X101897714Y-150716142D01*
X101969142Y-150573285D01*
X101969142Y-150501857D01*
X101897714Y-150359000D01*
X101754857Y-150287571D01*
X101540571Y-150287571D01*
X101397714Y-150216142D01*
X101326285Y-150073285D01*
X101326285Y-150001857D01*
X101397714Y-149859000D01*
X101540571Y-149787571D01*
X101754857Y-149787571D01*
X101897714Y-149859000D01*
X102612000Y-150787571D02*
X102612000Y-149787571D01*
X102612000Y-149287571D02*
X102540571Y-149359000D01*
X102612000Y-149430428D01*
X102683428Y-149359000D01*
X102612000Y-149287571D01*
X102612000Y-149430428D01*
X103969142Y-149787571D02*
X103969142Y-151001857D01*
X103897714Y-151144714D01*
X103826285Y-151216142D01*
X103683428Y-151287571D01*
X103469142Y-151287571D01*
X103326285Y-151216142D01*
X103969142Y-150716142D02*
X103826285Y-150787571D01*
X103540571Y-150787571D01*
X103397714Y-150716142D01*
X103326285Y-150644714D01*
X103254857Y-150501857D01*
X103254857Y-150073285D01*
X103326285Y-149930428D01*
X103397714Y-149859000D01*
X103540571Y-149787571D01*
X103826285Y-149787571D01*
X103969142Y-149859000D01*
X104683428Y-149787571D02*
X104683428Y-150787571D01*
X104683428Y-149930428D02*
X104754857Y-149859000D01*
X104897714Y-149787571D01*
X105112000Y-149787571D01*
X105254857Y-149859000D01*
X105326285Y-150001857D01*
X105326285Y-150787571D01*
X106969142Y-149287571D02*
X107826285Y-149287571D01*
X107397714Y-150787571D02*
X107397714Y-149287571D01*
X108897714Y-150716142D02*
X108754857Y-150787571D01*
X108469142Y-150787571D01*
X108326285Y-150716142D01*
X108254857Y-150573285D01*
X108254857Y-150001857D01*
X108326285Y-149859000D01*
X108469142Y-149787571D01*
X108754857Y-149787571D01*
X108897714Y-149859000D01*
X108969142Y-150001857D01*
X108969142Y-150144714D01*
X108254857Y-150287571D01*
X110254857Y-150787571D02*
X110254857Y-150001857D01*
X110183428Y-149859000D01*
X110040571Y-149787571D01*
X109754857Y-149787571D01*
X109612000Y-149859000D01*
X110254857Y-150716142D02*
X110112000Y-150787571D01*
X109754857Y-150787571D01*
X109612000Y-150716142D01*
X109540571Y-150573285D01*
X109540571Y-150430428D01*
X109612000Y-150287571D01*
X109754857Y-150216142D01*
X110112000Y-150216142D01*
X110254857Y-150144714D01*
X110969142Y-150787571D02*
X110969142Y-149787571D01*
X110969142Y-149930428D02*
X111040571Y-149859000D01*
X111183428Y-149787571D01*
X111397714Y-149787571D01*
X111540571Y-149859000D01*
X111612000Y-150001857D01*
X111612000Y-150787571D01*
X111612000Y-150001857D02*
X111683428Y-149859000D01*
X111826285Y-149787571D01*
X112040571Y-149787571D01*
X112183428Y-149859000D01*
X112254857Y-150001857D01*
X112254857Y-150787571D01*
X113040571Y-150716142D02*
X113040571Y-150787571D01*
X112969142Y-150930428D01*
X112897714Y-151001857D01*
X114754857Y-149430428D02*
X114826285Y-149359000D01*
X114969142Y-149287571D01*
X115326285Y-149287571D01*
X115469142Y-149359000D01*
X115540571Y-149430428D01*
X115612000Y-149573285D01*
X115612000Y-149716142D01*
X115540571Y-149930428D01*
X114683428Y-150787571D01*
X115612000Y-150787571D01*
X116540571Y-149287571D02*
X116683428Y-149287571D01*
X116826285Y-149359000D01*
X116897714Y-149430428D01*
X116969142Y-149573285D01*
X117040571Y-149859000D01*
X117040571Y-150216142D01*
X116969142Y-150501857D01*
X116897714Y-150644714D01*
X116826285Y-150716142D01*
X116683428Y-150787571D01*
X116540571Y-150787571D01*
X116397714Y-150716142D01*
X116326285Y-150644714D01*
X116254857Y-150501857D01*
X116183428Y-150216142D01*
X116183428Y-149859000D01*
X116254857Y-149573285D01*
X116326285Y-149430428D01*
X116397714Y-149359000D01*
X116540571Y-149287571D01*
X118469142Y-150787571D02*
X117612000Y-150787571D01*
X118040571Y-150787571D02*
X118040571Y-149287571D01*
X117897714Y-149501857D01*
X117754857Y-149644714D01*
X117612000Y-149716142D01*
X119183428Y-150787571D02*
X119469142Y-150787571D01*
X119612000Y-150716142D01*
X119683428Y-150644714D01*
X119826285Y-150430428D01*
X119897714Y-150144714D01*
X119897714Y-149573285D01*
X119826285Y-149430428D01*
X119754857Y-149359000D01*
X119612000Y-149287571D01*
X119326285Y-149287571D01*
X119183428Y-149359000D01*
X119112000Y-149430428D01*
X119040571Y-149573285D01*
X119040571Y-149930428D01*
X119112000Y-150073285D01*
X119183428Y-150144714D01*
X119326285Y-150216142D01*
X119612000Y-150216142D01*
X119754857Y-150144714D01*
X119826285Y-150073285D01*
X119897714Y-149930428D01*
X95326285Y-153337571D02*
X95326285Y-151837571D01*
X95826285Y-152909000D01*
X96326285Y-151837571D01*
X96326285Y-153337571D01*
X97040571Y-153337571D02*
X97040571Y-152337571D01*
X97040571Y-151837571D02*
X96969142Y-151909000D01*
X97040571Y-151980428D01*
X97112000Y-151909000D01*
X97040571Y-151837571D01*
X97040571Y-151980428D01*
X97683428Y-153266142D02*
X97826285Y-153337571D01*
X98112000Y-153337571D01*
X98254857Y-153266142D01*
X98326285Y-153123285D01*
X98326285Y-153051857D01*
X98254857Y-152909000D01*
X98112000Y-152837571D01*
X97897714Y-152837571D01*
X97754857Y-152766142D01*
X97683428Y-152623285D01*
X97683428Y-152551857D01*
X97754857Y-152409000D01*
X97897714Y-152337571D01*
X98112000Y-152337571D01*
X98254857Y-152409000D01*
X98897714Y-153266142D02*
X99040571Y-153337571D01*
X99326285Y-153337571D01*
X99469142Y-153266142D01*
X99540571Y-153123285D01*
X99540571Y-153051857D01*
X99469142Y-152909000D01*
X99326285Y-152837571D01*
X99112000Y-152837571D01*
X98969142Y-152766142D01*
X98897714Y-152623285D01*
X98897714Y-152551857D01*
X98969142Y-152409000D01*
X99112000Y-152337571D01*
X99326285Y-152337571D01*
X99469142Y-152409000D01*
X100397714Y-153337571D02*
X100254857Y-153266142D01*
X100183428Y-153194714D01*
X100112000Y-153051857D01*
X100112000Y-152623285D01*
X100183428Y-152480428D01*
X100254857Y-152409000D01*
X100397714Y-152337571D01*
X100612000Y-152337571D01*
X100754857Y-152409000D01*
X100826285Y-152480428D01*
X100897714Y-152623285D01*
X100897714Y-153051857D01*
X100826285Y-153194714D01*
X100754857Y-153266142D01*
X100612000Y-153337571D01*
X100397714Y-153337571D01*
X102183428Y-152337571D02*
X102183428Y-153337571D01*
X101540571Y-152337571D02*
X101540571Y-153123285D01*
X101612000Y-153266142D01*
X101754857Y-153337571D01*
X101969142Y-153337571D01*
X102112000Y-153266142D01*
X102183428Y-153194714D01*
X102897714Y-153337571D02*
X102897714Y-152337571D01*
X102897714Y-152623285D02*
X102969142Y-152480428D01*
X103040571Y-152409000D01*
X103183428Y-152337571D01*
X103326285Y-152337571D01*
X103826285Y-153337571D02*
X103826285Y-152337571D01*
X103826285Y-151837571D02*
X103754857Y-151909000D01*
X103826285Y-151980428D01*
X103897714Y-151909000D01*
X103826285Y-151837571D01*
X103826285Y-151980428D01*
X105612000Y-153266142D02*
X105826285Y-153337571D01*
X106183428Y-153337571D01*
X106326285Y-153266142D01*
X106397714Y-153194714D01*
X106469142Y-153051857D01*
X106469142Y-152909000D01*
X106397714Y-152766142D01*
X106326285Y-152694714D01*
X106183428Y-152623285D01*
X105897714Y-152551857D01*
X105754857Y-152480428D01*
X105683428Y-152409000D01*
X105612000Y-152266142D01*
X105612000Y-152123285D01*
X105683428Y-151980428D01*
X105754857Y-151909000D01*
X105897714Y-151837571D01*
X106254857Y-151837571D01*
X106469142Y-151909000D01*
X108326285Y-153337571D02*
X108254857Y-153337571D01*
X108112000Y-153266142D01*
X107897714Y-153051857D01*
X107540571Y-152623285D01*
X107397714Y-152409000D01*
X107326285Y-152194714D01*
X107326285Y-152051857D01*
X107397714Y-151909000D01*
X107540571Y-151837571D01*
X107612000Y-151837571D01*
X107754857Y-151909000D01*
X107826285Y-152051857D01*
X107826285Y-152123285D01*
X107754857Y-152266142D01*
X107683428Y-152337571D01*
X107254857Y-152623285D01*
X107183428Y-152694714D01*
X107112000Y-152837571D01*
X107112000Y-153051857D01*
X107183428Y-153194714D01*
X107254857Y-153266142D01*
X107397714Y-153337571D01*
X107612000Y-153337571D01*
X107754857Y-153266142D01*
X107826285Y-153194714D01*
X108040571Y-152909000D01*
X108112000Y-152694714D01*
X108112000Y-152551857D01*
X108754857Y-151837571D02*
X109612000Y-151837571D01*
X109183428Y-153337571D02*
X109183428Y-151837571D01*
X93969142Y-155459000D02*
X94683428Y-155459000D01*
X93826285Y-155887571D02*
X94326285Y-154387571D01*
X94826285Y-155887571D01*
X95326285Y-154887571D02*
X95326285Y-155887571D01*
X95326285Y-155030428D02*
X95397714Y-154959000D01*
X95540571Y-154887571D01*
X95754857Y-154887571D01*
X95897714Y-154959000D01*
X95969142Y-155101857D01*
X95969142Y-155887571D01*
X97326285Y-155887571D02*
X97326285Y-154387571D01*
X97326285Y-155816142D02*
X97183428Y-155887571D01*
X96897714Y-155887571D01*
X96754857Y-155816142D01*
X96683428Y-155744714D01*
X96612000Y-155601857D01*
X96612000Y-155173285D01*
X96683428Y-155030428D01*
X96754857Y-154959000D01*
X96897714Y-154887571D01*
X97183428Y-154887571D01*
X97326285Y-154959000D01*
X98040571Y-155887571D02*
X98040571Y-154887571D01*
X98040571Y-155173285D02*
X98112000Y-155030428D01*
X98183428Y-154959000D01*
X98326285Y-154887571D01*
X98469142Y-154887571D01*
X99540571Y-155816142D02*
X99397714Y-155887571D01*
X99112000Y-155887571D01*
X98969142Y-155816142D01*
X98897714Y-155673285D01*
X98897714Y-155101857D01*
X98969142Y-154959000D01*
X99112000Y-154887571D01*
X99397714Y-154887571D01*
X99540571Y-154959000D01*
X99612000Y-155101857D01*
X99612000Y-155244714D01*
X98897714Y-155387571D01*
X100112000Y-154887571D02*
X100397714Y-155887571D01*
X100683428Y-155173285D01*
X100969142Y-155887571D01*
X101254857Y-154887571D01*
X102969142Y-155887571D02*
X102969142Y-154387571D01*
X103540571Y-154387571D01*
X103683428Y-154459000D01*
X103754857Y-154530428D01*
X103826285Y-154673285D01*
X103826285Y-154887571D01*
X103754857Y-155030428D01*
X103683428Y-155101857D01*
X103540571Y-155173285D01*
X102969142Y-155173285D01*
X104469142Y-155887571D02*
X104469142Y-154387571D01*
X105112000Y-155887571D02*
X105112000Y-155101857D01*
X105040571Y-154959000D01*
X104897714Y-154887571D01*
X104683428Y-154887571D01*
X104540571Y-154959000D01*
X104469142Y-155030428D01*
X105826285Y-155887571D02*
X105826285Y-154887571D01*
X105826285Y-154387571D02*
X105754857Y-154459000D01*
X105826285Y-154530428D01*
X105897714Y-154459000D01*
X105826285Y-154387571D01*
X105826285Y-154530428D01*
X106754857Y-155887571D02*
X106612000Y-155816142D01*
X106540571Y-155673285D01*
X106540571Y-154387571D01*
X107540571Y-155887571D02*
X107397714Y-155816142D01*
X107326285Y-155673285D01*
X107326285Y-154387571D01*
X108112000Y-155887571D02*
X108112000Y-154887571D01*
X108112000Y-154387571D02*
X108040571Y-154459000D01*
X108112000Y-154530428D01*
X108183428Y-154459000D01*
X108112000Y-154387571D01*
X108112000Y-154530428D01*
X108826285Y-154887571D02*
X108826285Y-156387571D01*
X108826285Y-154959000D02*
X108969142Y-154887571D01*
X109254857Y-154887571D01*
X109397714Y-154959000D01*
X109469142Y-155030428D01*
X109540571Y-155173285D01*
X109540571Y-155601857D01*
X109469142Y-155744714D01*
X109397714Y-155816142D01*
X109254857Y-155887571D01*
X108969142Y-155887571D01*
X108826285Y-155816142D01*
X110112000Y-155816142D02*
X110254857Y-155887571D01*
X110540571Y-155887571D01*
X110683428Y-155816142D01*
X110754857Y-155673285D01*
X110754857Y-155601857D01*
X110683428Y-155459000D01*
X110540571Y-155387571D01*
X110326285Y-155387571D01*
X110183428Y-155316142D01*
X110112000Y-155173285D01*
X110112000Y-155101857D01*
X110183428Y-154959000D01*
X110326285Y-154887571D01*
X110540571Y-154887571D01*
X110683428Y-154959000D01*
D11*
G04 #@! TO.C,U1*
X89179001Y-133095001D02*
X89179001Y-128015001D01*
X89179001Y-128015001D02*
X63779001Y-128015001D01*
X63779001Y-128015001D02*
X63779001Y-133095001D01*
X63779001Y-133095001D02*
X89179001Y-133095001D01*
X89179001Y-89915001D02*
X89179001Y-84835001D01*
X89179001Y-84835001D02*
X63779001Y-84835001D01*
X63779001Y-84835001D02*
X63779001Y-89915001D01*
X63779001Y-89915001D02*
X89179001Y-89915001D01*
G04 #@! TO.C,U2*
X101144008Y-119097532D02*
X103684008Y-121637532D01*
X103684008Y-121637532D02*
X103684008Y-126717532D01*
X103684008Y-126717532D02*
X101144008Y-129257532D01*
X101144008Y-129257532D02*
X96064008Y-129257532D01*
X96064008Y-129257532D02*
X93524008Y-126717532D01*
X93524008Y-126717532D02*
X93524008Y-121637532D01*
X93524008Y-121637532D02*
X96064008Y-119097532D01*
X96064008Y-119097532D02*
X101144008Y-119097532D01*
X93524008Y-131797532D02*
X103684008Y-131797532D01*
X93524008Y-115287532D02*
X103684008Y-115287532D01*
X103684008Y-115287532D02*
X103684008Y-131797532D01*
X93524008Y-131797532D02*
X93524008Y-115287532D01*
D12*
G04 #@! TO.C,C1*
X96715733Y-111987532D02*
X97058267Y-111987532D01*
X96715733Y-110967532D02*
X97058267Y-110967532D01*
G04 #@! TO.C,C2*
X100920275Y-110967532D02*
X100577741Y-110967532D01*
X100920275Y-111987532D02*
X100577741Y-111987532D01*
G04 #@! TO.C,C3*
X76258267Y-104650000D02*
X75915733Y-104650000D01*
X76258267Y-103630000D02*
X75915733Y-103630000D01*
G04 #@! TO.C,C4*
X71823733Y-108710000D02*
X72166267Y-108710000D01*
X71823733Y-109730000D02*
X72166267Y-109730000D01*
G04 #@! TO.C,C5*
X71750133Y-104900000D02*
X72092667Y-104900000D01*
X71750133Y-105920000D02*
X72092667Y-105920000D01*
G04 #@! TO.C,C6*
X76028733Y-107440000D02*
X76371267Y-107440000D01*
X76028733Y-108460000D02*
X76371267Y-108460000D01*
D11*
G04 #@! TO.C,Conn2*
X68580000Y-64262000D02*
X68580000Y-64770000D01*
X76200000Y-64770000D02*
X76200000Y-64262000D01*
X64135000Y-64262000D02*
X80645000Y-64262000D01*
X64135000Y-76200000D02*
X64135000Y-64262000D01*
X80645000Y-76200000D02*
X80645000Y-64262000D01*
X78740000Y-76200000D02*
X80645000Y-76200000D01*
X66040000Y-76200000D02*
X64135000Y-76200000D01*
X68580000Y-68580000D02*
X68580000Y-69850000D01*
X68580000Y-69850000D02*
X76200000Y-69850000D01*
X76200000Y-69850000D02*
X76200000Y-68580000D01*
X76200000Y-68580000D02*
X76200000Y-64770000D01*
X68580000Y-68580000D02*
X68580000Y-64770000D01*
X71120000Y-69850000D02*
X71120000Y-72390000D01*
X71120000Y-72390000D02*
X73660000Y-72390000D01*
X73660000Y-72390000D02*
X73660000Y-69850000D01*
X66040000Y-76200000D02*
X78740000Y-76200000D01*
X78740000Y-76200000D02*
X78740000Y-78740000D01*
X78740000Y-78740000D02*
X66040000Y-78740000D01*
X66040000Y-78740000D02*
X66040000Y-76200000D01*
G04 #@! TO.C,Conn3*
X109220000Y-78740000D02*
X109220000Y-76200000D01*
X121920000Y-78740000D02*
X109220000Y-78740000D01*
X121920000Y-76200000D02*
X121920000Y-78740000D01*
X109220000Y-76200000D02*
X121920000Y-76200000D01*
X116840000Y-72390000D02*
X116840000Y-69850000D01*
X114300000Y-72390000D02*
X116840000Y-72390000D01*
X114300000Y-69850000D02*
X114300000Y-72390000D01*
X111760000Y-68580000D02*
X111760000Y-64770000D01*
X119380000Y-68580000D02*
X119380000Y-64770000D01*
X119380000Y-69850000D02*
X119380000Y-68580000D01*
X111760000Y-69850000D02*
X119380000Y-69850000D01*
X111760000Y-68580000D02*
X111760000Y-69850000D01*
X109220000Y-76200000D02*
X107315000Y-76200000D01*
X121920000Y-76200000D02*
X123825000Y-76200000D01*
X123825000Y-76200000D02*
X123825000Y-64262000D01*
X107315000Y-76200000D02*
X107315000Y-64262000D01*
X107315000Y-64262000D02*
X123825000Y-64262000D01*
X119380000Y-64770000D02*
X119380000Y-64262000D01*
X111760000Y-64262000D02*
X111760000Y-64770000D01*
G04 #@! TO.C,U3*
X83030000Y-102365000D02*
X85930000Y-102365000D01*
X85930000Y-102365000D02*
X85930000Y-112265000D01*
X85930000Y-112265000D02*
X82030000Y-112265000D01*
X82030000Y-112265000D02*
X82030000Y-103365000D01*
X82030000Y-103365000D02*
X83030000Y-102365000D01*
G04 #@! TO.C,Conn1*
X122682000Y-95250000D02*
G75*
G03X123799600Y-96367600I1117600J0D01*
G01*
X123799600Y-96367600D02*
G75*
G03X124917200Y-95250000I0J1117600D01*
G01*
X133858000Y-110998000D02*
X133858000Y-95250000D01*
X109220000Y-110998000D02*
X109220000Y-95250000D01*
X124942600Y-110998000D02*
X126161800Y-110998000D01*
X123799600Y-109855000D02*
G75*
G03X122656600Y-110998000I0J-1143000D01*
G01*
X124942600Y-110998000D02*
G75*
G03X123799600Y-109855000I-1143000J0D01*
G01*
X121488200Y-95250000D02*
X122682000Y-95250000D01*
X123799600Y-97561400D02*
X123799600Y-96393000D01*
X126111000Y-95250000D02*
X124942600Y-95250000D01*
X121539000Y-110998000D02*
X122631200Y-110998000D01*
X123799600Y-109855000D02*
X123799600Y-108686600D01*
X123799600Y-100838000D02*
X123799600Y-101981000D01*
X133832600Y-103149400D02*
X124942600Y-103149400D01*
X123799600Y-105410000D02*
X123799600Y-104267000D01*
X121513600Y-103124000D02*
X122656600Y-103124000D01*
X123799600Y-100838000D02*
X123799600Y-97536000D01*
X121513600Y-103124000D02*
X109220000Y-103124000D01*
X123799600Y-105410000D02*
X123799600Y-108686600D01*
X124942600Y-103124000D02*
G75*
G03X124942600Y-103124000I-1143000J0D01*
G01*
X121513600Y-95250000D02*
X109220000Y-95250000D01*
X126085600Y-95250000D02*
X133832600Y-95250000D01*
X133832600Y-110998000D02*
X126085600Y-110998000D01*
X121513600Y-110998000D02*
X109220000Y-110998000D01*
D13*
G04 #@! TO.C,G\002A\002A\002A*
G36*
X86909896Y-135023364D02*
X87041117Y-135042290D01*
X87147956Y-135073351D01*
X87164253Y-135080407D01*
X87229655Y-135110715D01*
X87169513Y-135100541D01*
X86960196Y-135077066D01*
X86764137Y-135078629D01*
X86590244Y-135105134D01*
X86583063Y-135106916D01*
X86380424Y-135173555D01*
X86169259Y-135273412D01*
X85948850Y-135407073D01*
X85718476Y-135575123D01*
X85477416Y-135778149D01*
X85224951Y-136016738D01*
X84960360Y-136291476D01*
X84682922Y-136602949D01*
X84544674Y-136766039D01*
X84416595Y-136920726D01*
X84294234Y-137071569D01*
X84175674Y-137221339D01*
X84058997Y-137372810D01*
X83942286Y-137528751D01*
X83823623Y-137691936D01*
X83701092Y-137865136D01*
X83572773Y-138051123D01*
X83436751Y-138252669D01*
X83291107Y-138472545D01*
X83133924Y-138713524D01*
X82963284Y-138978377D01*
X82777270Y-139269876D01*
X82573965Y-139590793D01*
X82403114Y-139861783D01*
X82013504Y-140490057D01*
X81638770Y-141112898D01*
X81284937Y-141720254D01*
X81195886Y-141876542D01*
X81115409Y-142017746D01*
X81022172Y-142180150D01*
X80923853Y-142350458D01*
X80828127Y-142515373D01*
X80744135Y-142659103D01*
X80660477Y-142802510D01*
X80568709Y-142961325D01*
X80475914Y-143123192D01*
X80389173Y-143275754D01*
X80315570Y-143406655D01*
X80313215Y-143410879D01*
X80249738Y-143524571D01*
X80189519Y-143632068D01*
X80136564Y-143726244D01*
X80094882Y-143799974D01*
X80068476Y-143846135D01*
X80067645Y-143847564D01*
X80017215Y-143934135D01*
X79939388Y-143727280D01*
X79898568Y-143624977D01*
X79847818Y-143507482D01*
X79789684Y-143379792D01*
X79726713Y-143246899D01*
X79661450Y-143113801D01*
X79596441Y-142985490D01*
X79534233Y-142866962D01*
X79477371Y-142763212D01*
X79428402Y-142679235D01*
X79389871Y-142620025D01*
X79364324Y-142590577D01*
X79358774Y-142588223D01*
X79345304Y-142604984D01*
X79316388Y-142651461D01*
X79275363Y-142721947D01*
X79225563Y-142810734D01*
X79180112Y-142893945D01*
X79106723Y-143029318D01*
X79028028Y-143173554D01*
X78946422Y-143322346D01*
X78864303Y-143471386D01*
X78784068Y-143616364D01*
X78708113Y-143752974D01*
X78638834Y-143876907D01*
X78578629Y-143983855D01*
X78529894Y-144069510D01*
X78495026Y-144129564D01*
X78476421Y-144159708D01*
X78474709Y-144161940D01*
X78473319Y-144153140D01*
X78483975Y-144113615D01*
X78504652Y-144050184D01*
X78525332Y-143991538D01*
X78575554Y-143853544D01*
X78631380Y-143701317D01*
X78691214Y-143539107D01*
X78753461Y-143371163D01*
X78816526Y-143201736D01*
X78878812Y-143035076D01*
X78938723Y-142875433D01*
X78994665Y-142727057D01*
X79045041Y-142594198D01*
X79088256Y-142481105D01*
X79122713Y-142392030D01*
X79146819Y-142331222D01*
X79158976Y-142302931D01*
X79159836Y-142301546D01*
X79176745Y-142309386D01*
X79208460Y-142344479D01*
X79248907Y-142399849D01*
X79260178Y-142416819D01*
X79301994Y-142478621D01*
X79336076Y-142524624D01*
X79356325Y-142546712D01*
X79358410Y-142547555D01*
X79371103Y-142530489D01*
X79399639Y-142483000D01*
X79441163Y-142410134D01*
X79492823Y-142316939D01*
X79551766Y-142208459D01*
X79581588Y-142152851D01*
X79651820Y-142022087D01*
X79735905Y-141866714D01*
X79828172Y-141697138D01*
X79922949Y-141523770D01*
X80014564Y-141357017D01*
X80070173Y-141256305D01*
X80150896Y-141110217D01*
X80245719Y-140938200D01*
X80349546Y-140749526D01*
X80457279Y-140553465D01*
X80563823Y-140359289D01*
X80664080Y-140176269D01*
X80699032Y-140112375D01*
X80861475Y-139817646D01*
X81021033Y-139532741D01*
X81175976Y-139260559D01*
X81324576Y-139003999D01*
X81465105Y-138765962D01*
X81595834Y-138549346D01*
X81715035Y-138357052D01*
X81820980Y-138191979D01*
X81911941Y-138057026D01*
X81980645Y-137962303D01*
X82076883Y-137846260D01*
X82162714Y-137762827D01*
X82236716Y-137712797D01*
X82297466Y-137696966D01*
X82343542Y-137716126D01*
X82364953Y-137747730D01*
X82384799Y-137801281D01*
X82388215Y-137832765D01*
X82376920Y-137836969D01*
X82352636Y-137808682D01*
X82347512Y-137800550D01*
X82308827Y-137753563D01*
X82272886Y-137740430D01*
X82272410Y-137740515D01*
X82234734Y-137764564D01*
X82182554Y-137824614D01*
X82116504Y-137919541D01*
X82037218Y-138048221D01*
X81945330Y-138209527D01*
X81841474Y-138402335D01*
X81726283Y-138625521D01*
X81600393Y-138877958D01*
X81464436Y-139158522D01*
X81415916Y-139260362D01*
X81368132Y-139362182D01*
X81309809Y-139488305D01*
X81242415Y-139635431D01*
X81167418Y-139800261D01*
X81086284Y-139979496D01*
X81000481Y-140169836D01*
X80911478Y-140367981D01*
X80820740Y-140570634D01*
X80729736Y-140774493D01*
X80639934Y-140976261D01*
X80552800Y-141172637D01*
X80469803Y-141360322D01*
X80392409Y-141536018D01*
X80322086Y-141696424D01*
X80260302Y-141838241D01*
X80208525Y-141958170D01*
X80168221Y-142052911D01*
X80140858Y-142119166D01*
X80127904Y-142153635D01*
X80127144Y-142157879D01*
X80139418Y-142143534D01*
X80170847Y-142100307D01*
X80218324Y-142032660D01*
X80278739Y-141945057D01*
X80348983Y-141841958D01*
X80403530Y-141761187D01*
X80494460Y-141626900D01*
X80602112Y-141469331D01*
X80723739Y-141292405D01*
X80856593Y-141100050D01*
X80997927Y-140896190D01*
X81144992Y-140684751D01*
X81295040Y-140469659D01*
X81445325Y-140254841D01*
X81593097Y-140044221D01*
X81735609Y-139841725D01*
X81870114Y-139651281D01*
X81993863Y-139476812D01*
X82104109Y-139322246D01*
X82198104Y-139191508D01*
X82273100Y-139088523D01*
X82294257Y-139059888D01*
X82660212Y-138573274D01*
X83009207Y-138121839D01*
X83342000Y-137704794D01*
X83659345Y-137321350D01*
X83962002Y-136970718D01*
X84250725Y-136652110D01*
X84526272Y-136364736D01*
X84789399Y-136107807D01*
X85040863Y-135880534D01*
X85281422Y-135682128D01*
X85511830Y-135511801D01*
X85732846Y-135368762D01*
X85945226Y-135252224D01*
X85946624Y-135251529D01*
X86104935Y-135175975D01*
X86239676Y-135119257D01*
X86360715Y-135078091D01*
X86477922Y-135049193D01*
X86601167Y-135029279D01*
X86622341Y-135026679D01*
X86766301Y-135017764D01*
X86909896Y-135023364D01*
X86909896Y-135023364D01*
G37*
X86909896Y-135023364D02*
X87041117Y-135042290D01*
X87147956Y-135073351D01*
X87164253Y-135080407D01*
X87229655Y-135110715D01*
X87169513Y-135100541D01*
X86960196Y-135077066D01*
X86764137Y-135078629D01*
X86590244Y-135105134D01*
X86583063Y-135106916D01*
X86380424Y-135173555D01*
X86169259Y-135273412D01*
X85948850Y-135407073D01*
X85718476Y-135575123D01*
X85477416Y-135778149D01*
X85224951Y-136016738D01*
X84960360Y-136291476D01*
X84682922Y-136602949D01*
X84544674Y-136766039D01*
X84416595Y-136920726D01*
X84294234Y-137071569D01*
X84175674Y-137221339D01*
X84058997Y-137372810D01*
X83942286Y-137528751D01*
X83823623Y-137691936D01*
X83701092Y-137865136D01*
X83572773Y-138051123D01*
X83436751Y-138252669D01*
X83291107Y-138472545D01*
X83133924Y-138713524D01*
X82963284Y-138978377D01*
X82777270Y-139269876D01*
X82573965Y-139590793D01*
X82403114Y-139861783D01*
X82013504Y-140490057D01*
X81638770Y-141112898D01*
X81284937Y-141720254D01*
X81195886Y-141876542D01*
X81115409Y-142017746D01*
X81022172Y-142180150D01*
X80923853Y-142350458D01*
X80828127Y-142515373D01*
X80744135Y-142659103D01*
X80660477Y-142802510D01*
X80568709Y-142961325D01*
X80475914Y-143123192D01*
X80389173Y-143275754D01*
X80315570Y-143406655D01*
X80313215Y-143410879D01*
X80249738Y-143524571D01*
X80189519Y-143632068D01*
X80136564Y-143726244D01*
X80094882Y-143799974D01*
X80068476Y-143846135D01*
X80067645Y-143847564D01*
X80017215Y-143934135D01*
X79939388Y-143727280D01*
X79898568Y-143624977D01*
X79847818Y-143507482D01*
X79789684Y-143379792D01*
X79726713Y-143246899D01*
X79661450Y-143113801D01*
X79596441Y-142985490D01*
X79534233Y-142866962D01*
X79477371Y-142763212D01*
X79428402Y-142679235D01*
X79389871Y-142620025D01*
X79364324Y-142590577D01*
X79358774Y-142588223D01*
X79345304Y-142604984D01*
X79316388Y-142651461D01*
X79275363Y-142721947D01*
X79225563Y-142810734D01*
X79180112Y-142893945D01*
X79106723Y-143029318D01*
X79028028Y-143173554D01*
X78946422Y-143322346D01*
X78864303Y-143471386D01*
X78784068Y-143616364D01*
X78708113Y-143752974D01*
X78638834Y-143876907D01*
X78578629Y-143983855D01*
X78529894Y-144069510D01*
X78495026Y-144129564D01*
X78476421Y-144159708D01*
X78474709Y-144161940D01*
X78473319Y-144153140D01*
X78483975Y-144113615D01*
X78504652Y-144050184D01*
X78525332Y-143991538D01*
X78575554Y-143853544D01*
X78631380Y-143701317D01*
X78691214Y-143539107D01*
X78753461Y-143371163D01*
X78816526Y-143201736D01*
X78878812Y-143035076D01*
X78938723Y-142875433D01*
X78994665Y-142727057D01*
X79045041Y-142594198D01*
X79088256Y-142481105D01*
X79122713Y-142392030D01*
X79146819Y-142331222D01*
X79158976Y-142302931D01*
X79159836Y-142301546D01*
X79176745Y-142309386D01*
X79208460Y-142344479D01*
X79248907Y-142399849D01*
X79260178Y-142416819D01*
X79301994Y-142478621D01*
X79336076Y-142524624D01*
X79356325Y-142546712D01*
X79358410Y-142547555D01*
X79371103Y-142530489D01*
X79399639Y-142483000D01*
X79441163Y-142410134D01*
X79492823Y-142316939D01*
X79551766Y-142208459D01*
X79581588Y-142152851D01*
X79651820Y-142022087D01*
X79735905Y-141866714D01*
X79828172Y-141697138D01*
X79922949Y-141523770D01*
X80014564Y-141357017D01*
X80070173Y-141256305D01*
X80150896Y-141110217D01*
X80245719Y-140938200D01*
X80349546Y-140749526D01*
X80457279Y-140553465D01*
X80563823Y-140359289D01*
X80664080Y-140176269D01*
X80699032Y-140112375D01*
X80861475Y-139817646D01*
X81021033Y-139532741D01*
X81175976Y-139260559D01*
X81324576Y-139003999D01*
X81465105Y-138765962D01*
X81595834Y-138549346D01*
X81715035Y-138357052D01*
X81820980Y-138191979D01*
X81911941Y-138057026D01*
X81980645Y-137962303D01*
X82076883Y-137846260D01*
X82162714Y-137762827D01*
X82236716Y-137712797D01*
X82297466Y-137696966D01*
X82343542Y-137716126D01*
X82364953Y-137747730D01*
X82384799Y-137801281D01*
X82388215Y-137832765D01*
X82376920Y-137836969D01*
X82352636Y-137808682D01*
X82347512Y-137800550D01*
X82308827Y-137753563D01*
X82272886Y-137740430D01*
X82272410Y-137740515D01*
X82234734Y-137764564D01*
X82182554Y-137824614D01*
X82116504Y-137919541D01*
X82037218Y-138048221D01*
X81945330Y-138209527D01*
X81841474Y-138402335D01*
X81726283Y-138625521D01*
X81600393Y-138877958D01*
X81464436Y-139158522D01*
X81415916Y-139260362D01*
X81368132Y-139362182D01*
X81309809Y-139488305D01*
X81242415Y-139635431D01*
X81167418Y-139800261D01*
X81086284Y-139979496D01*
X81000481Y-140169836D01*
X80911478Y-140367981D01*
X80820740Y-140570634D01*
X80729736Y-140774493D01*
X80639934Y-140976261D01*
X80552800Y-141172637D01*
X80469803Y-141360322D01*
X80392409Y-141536018D01*
X80322086Y-141696424D01*
X80260302Y-141838241D01*
X80208525Y-141958170D01*
X80168221Y-142052911D01*
X80140858Y-142119166D01*
X80127904Y-142153635D01*
X80127144Y-142157879D01*
X80139418Y-142143534D01*
X80170847Y-142100307D01*
X80218324Y-142032660D01*
X80278739Y-141945057D01*
X80348983Y-141841958D01*
X80403530Y-141761187D01*
X80494460Y-141626900D01*
X80602112Y-141469331D01*
X80723739Y-141292405D01*
X80856593Y-141100050D01*
X80997927Y-140896190D01*
X81144992Y-140684751D01*
X81295040Y-140469659D01*
X81445325Y-140254841D01*
X81593097Y-140044221D01*
X81735609Y-139841725D01*
X81870114Y-139651281D01*
X81993863Y-139476812D01*
X82104109Y-139322246D01*
X82198104Y-139191508D01*
X82273100Y-139088523D01*
X82294257Y-139059888D01*
X82660212Y-138573274D01*
X83009207Y-138121839D01*
X83342000Y-137704794D01*
X83659345Y-137321350D01*
X83962002Y-136970718D01*
X84250725Y-136652110D01*
X84526272Y-136364736D01*
X84789399Y-136107807D01*
X85040863Y-135880534D01*
X85281422Y-135682128D01*
X85511830Y-135511801D01*
X85732846Y-135368762D01*
X85945226Y-135252224D01*
X85946624Y-135251529D01*
X86104935Y-135175975D01*
X86239676Y-135119257D01*
X86360715Y-135078091D01*
X86477922Y-135049193D01*
X86601167Y-135029279D01*
X86622341Y-135026679D01*
X86766301Y-135017764D01*
X86909896Y-135023364D01*
G36*
X78458937Y-144202035D02*
X78448913Y-144212059D01*
X78438889Y-144202035D01*
X78448913Y-144192012D01*
X78458937Y-144202035D01*
X78458937Y-144202035D01*
G37*
X78458937Y-144202035D02*
X78448913Y-144212059D01*
X78438889Y-144202035D01*
X78448913Y-144192012D01*
X78458937Y-144202035D01*
G36*
X80339770Y-139492811D02*
X80329272Y-139516974D01*
X80295131Y-139568375D01*
X80275543Y-139596109D01*
X80238901Y-139650196D01*
X80203000Y-139709563D01*
X80165587Y-139778959D01*
X80124408Y-139863130D01*
X80077212Y-139966823D01*
X80021745Y-140094788D01*
X79955755Y-140251770D01*
X79897006Y-140393824D01*
X79847041Y-140516483D01*
X79785417Y-140669788D01*
X79714806Y-140846941D01*
X79637880Y-141041142D01*
X79557310Y-141245592D01*
X79475768Y-141453491D01*
X79395926Y-141658041D01*
X79320455Y-141852441D01*
X79252027Y-142029893D01*
X79193313Y-142183596D01*
X79181631Y-142214434D01*
X79159990Y-142271663D01*
X79047544Y-142117688D01*
X78997827Y-142053314D01*
X78955845Y-142005788D01*
X78927408Y-141981335D01*
X78919319Y-141980269D01*
X78908100Y-142000736D01*
X78880984Y-142054287D01*
X78839460Y-142137877D01*
X78785017Y-142248461D01*
X78719146Y-142382994D01*
X78643335Y-142538431D01*
X78559075Y-142711729D01*
X78467855Y-142899841D01*
X78371164Y-143099723D01*
X78332578Y-143179620D01*
X78110428Y-143639554D01*
X77904286Y-144065769D01*
X77712935Y-144460756D01*
X77535157Y-144827002D01*
X77369736Y-145166995D01*
X77215455Y-145483225D01*
X77071096Y-145778179D01*
X76935443Y-146054347D01*
X76807278Y-146314216D01*
X76685385Y-146560275D01*
X76568545Y-146795013D01*
X76455543Y-147020917D01*
X76391219Y-147148997D01*
X76304040Y-147323365D01*
X76229596Y-147473261D01*
X76165241Y-147602126D01*
X76108326Y-147713404D01*
X76056204Y-147810534D01*
X76006228Y-147896960D01*
X75955750Y-147976124D01*
X75902122Y-148051466D01*
X75842696Y-148126429D01*
X75774826Y-148204454D01*
X75695863Y-148288984D01*
X75603160Y-148383461D01*
X75494070Y-148491325D01*
X75365944Y-148616020D01*
X75216136Y-148760987D01*
X75041997Y-148929667D01*
X74960673Y-149008697D01*
X74813988Y-149152227D01*
X74670479Y-149294150D01*
X74533892Y-149430661D01*
X74407971Y-149557953D01*
X74296461Y-149672220D01*
X74203105Y-149769656D01*
X74131649Y-149846453D01*
X74090055Y-149893703D01*
X73976934Y-150026710D01*
X73839761Y-150183984D01*
X73682550Y-150361156D01*
X73509311Y-150553856D01*
X73324057Y-150757716D01*
X73130800Y-150968364D01*
X72933551Y-151181433D01*
X72736322Y-151392552D01*
X72543125Y-151597353D01*
X72357973Y-151791465D01*
X72184876Y-151970519D01*
X72156552Y-151999540D01*
X72060757Y-152097821D01*
X71975222Y-152186109D01*
X71903647Y-152260543D01*
X71849726Y-152317264D01*
X71817157Y-152352413D01*
X71808980Y-152362433D01*
X71833621Y-152371212D01*
X71889450Y-152387274D01*
X71968650Y-152408626D01*
X72063401Y-152433276D01*
X72165886Y-152459229D01*
X72268287Y-152484494D01*
X72362785Y-152507077D01*
X72441561Y-152524986D01*
X72471996Y-152531439D01*
X72600747Y-152555716D01*
X72694316Y-152568502D01*
X72755862Y-152570031D01*
X72788546Y-152560538D01*
X72793386Y-152555274D01*
X72812539Y-152536377D01*
X72855878Y-152498821D01*
X72916128Y-152448805D01*
X72959960Y-152413314D01*
X73116316Y-152287885D01*
X72799896Y-152586325D01*
X72867893Y-152598494D01*
X72988416Y-152615926D01*
X73132871Y-152630047D01*
X73295785Y-152640897D01*
X73471684Y-152648515D01*
X73655096Y-152652942D01*
X73840545Y-152654218D01*
X74022560Y-152652383D01*
X74195667Y-152647477D01*
X74354392Y-152639540D01*
X74493262Y-152628611D01*
X74606803Y-152614733D01*
X74689542Y-152597943D01*
X74725392Y-152584897D01*
X74748315Y-152561244D01*
X74788888Y-152506275D01*
X74844948Y-152423531D01*
X74914333Y-152316553D01*
X74994882Y-152188885D01*
X75084433Y-152044066D01*
X75180822Y-151885640D01*
X75281890Y-151717147D01*
X75385473Y-151542130D01*
X75489411Y-151364130D01*
X75591540Y-151186689D01*
X75689699Y-151013349D01*
X75742954Y-150917899D01*
X75827462Y-150768109D01*
X75918224Y-150611722D01*
X76009949Y-150457549D01*
X76097345Y-150314399D01*
X76175122Y-150191083D01*
X76224572Y-150116005D01*
X76298557Y-150003036D01*
X76384479Y-149865784D01*
X76475574Y-149715431D01*
X76565078Y-149563162D01*
X76646227Y-149420158D01*
X76654346Y-149405485D01*
X76753975Y-149229471D01*
X76851947Y-149066793D01*
X76955307Y-148906514D01*
X77071105Y-148737700D01*
X77203422Y-148553473D01*
X77486767Y-148157587D01*
X77754519Y-147766454D01*
X78012903Y-147370427D01*
X78268144Y-146959860D01*
X78526466Y-146525105D01*
X78646503Y-146317031D01*
X78718532Y-146193258D01*
X78784078Y-146086420D01*
X78849047Y-145988144D01*
X78919349Y-145890058D01*
X79000891Y-145783791D01*
X79099581Y-145660972D01*
X79169957Y-145575279D01*
X79267085Y-145457462D01*
X79363697Y-145339944D01*
X79454315Y-145229412D01*
X79533460Y-145132553D01*
X79595655Y-145056057D01*
X79621544Y-145023977D01*
X79683849Y-144947224D01*
X79762735Y-144851251D01*
X79848829Y-144747400D01*
X79932760Y-144647013D01*
X79946636Y-144630517D01*
X80014974Y-144547771D01*
X80072960Y-144474515D01*
X80116066Y-144416716D01*
X80139761Y-144380336D01*
X80142914Y-144372063D01*
X80137566Y-144341958D01*
X80123804Y-144287247D01*
X80105052Y-144219712D01*
X80084735Y-144151138D01*
X80066277Y-144093308D01*
X80053102Y-144058006D01*
X80050176Y-144052930D01*
X80032672Y-144061048D01*
X79995056Y-144090839D01*
X79948407Y-144133120D01*
X79902142Y-144174811D01*
X79880484Y-144188625D01*
X79884683Y-144173787D01*
X79885788Y-144171964D01*
X79913816Y-144123229D01*
X79948297Y-144059222D01*
X79961901Y-144032915D01*
X79989259Y-143981491D01*
X80006037Y-143961523D01*
X80019248Y-143968436D01*
X80030757Y-143987994D01*
X80041547Y-144004396D01*
X80055173Y-144010017D01*
X80076790Y-144001635D01*
X80111551Y-143976025D01*
X80164609Y-143929968D01*
X80241117Y-143860240D01*
X80253980Y-143848417D01*
X80480882Y-143641548D01*
X80683024Y-143461130D01*
X80863391Y-143304674D01*
X81024970Y-143169687D01*
X81170748Y-143053680D01*
X81303710Y-142954162D01*
X81426844Y-142868641D01*
X81435969Y-142862588D01*
X81599173Y-142761532D01*
X81738826Y-142689596D01*
X81854235Y-142647026D01*
X81944704Y-142634069D01*
X82009538Y-142650970D01*
X82017342Y-142656350D01*
X82038743Y-142675095D01*
X82034759Y-142684250D01*
X81999583Y-142687382D01*
X81966137Y-142687822D01*
X81876762Y-142701078D01*
X81788084Y-142743497D01*
X81784136Y-142745981D01*
X81713919Y-142795593D01*
X81622976Y-142867331D01*
X81518696Y-142954736D01*
X81408467Y-143051348D01*
X81299678Y-143150707D01*
X81199719Y-143246355D01*
X81125235Y-143321999D01*
X81063375Y-143387938D01*
X80985012Y-143472476D01*
X80894258Y-143571082D01*
X80795228Y-143679224D01*
X80692035Y-143792369D01*
X80588792Y-143905985D01*
X80489612Y-144015542D01*
X80398610Y-144116507D01*
X80319898Y-144204347D01*
X80257591Y-144274532D01*
X80215801Y-144322530D01*
X80202092Y-144339039D01*
X80157907Y-144395212D01*
X80212129Y-144639429D01*
X80256670Y-144851550D01*
X80291303Y-145045681D01*
X80317339Y-145233155D01*
X80336088Y-145425305D01*
X80348860Y-145633466D01*
X80356967Y-145868971D01*
X80357652Y-145897984D01*
X80360164Y-146223895D01*
X80351428Y-146521401D01*
X80330404Y-146800867D01*
X80296053Y-147072661D01*
X80247336Y-147347150D01*
X80183875Y-147631974D01*
X80045104Y-148120644D01*
X79869670Y-148594823D01*
X79658984Y-149052586D01*
X79414459Y-149492005D01*
X79137507Y-149911154D01*
X78829539Y-150308108D01*
X78491967Y-150680941D01*
X78126203Y-151027726D01*
X77733659Y-151346537D01*
X77315747Y-151635448D01*
X77193845Y-151711046D01*
X76777805Y-151942005D01*
X76342599Y-152144039D01*
X75894896Y-152314636D01*
X75441364Y-152451282D01*
X74988672Y-152551467D01*
X74940626Y-152559912D01*
X74835241Y-152581362D01*
X74767244Y-152603486D01*
X74734447Y-152626416D01*
X74716261Y-152652349D01*
X74678797Y-152706366D01*
X74625481Y-152783504D01*
X74559742Y-152878800D01*
X74485005Y-152987293D01*
X74426037Y-153072990D01*
X74206034Y-153385328D01*
X73999073Y-153663115D01*
X73802898Y-153908862D01*
X73615250Y-154125079D01*
X73433873Y-154314275D01*
X73256510Y-154478962D01*
X73080902Y-154621649D01*
X72948372Y-154716152D01*
X72831567Y-154787470D01*
X72697100Y-154858152D01*
X72557727Y-154922296D01*
X72426202Y-154973996D01*
X72323422Y-155005416D01*
X72159019Y-155034605D01*
X71981119Y-155047585D01*
X71807198Y-155043757D01*
X71679057Y-155027514D01*
X71441488Y-154962122D01*
X71213800Y-154857947D01*
X70996301Y-154715139D01*
X70921012Y-154654686D01*
X70862899Y-154609432D01*
X70815595Y-154585942D01*
X70761813Y-154577373D01*
X70723589Y-154576542D01*
X70454930Y-154560796D01*
X70182328Y-154515325D01*
X70117496Y-154497729D01*
X71599048Y-154497729D01*
X71626802Y-154515137D01*
X71652859Y-154523275D01*
X71690883Y-154527649D01*
X71756650Y-154529793D01*
X71837857Y-154529388D01*
X71863356Y-154528723D01*
X71980299Y-154520279D01*
X72076794Y-154500855D01*
X72159632Y-154471881D01*
X72295144Y-154410008D01*
X72416417Y-154339152D01*
X72534264Y-154251888D01*
X72659496Y-154140788D01*
X72703893Y-154098013D01*
X72769412Y-154032744D01*
X72818110Y-153981955D01*
X72846380Y-153949608D01*
X72850614Y-153939667D01*
X72845677Y-153942261D01*
X72638469Y-154070954D01*
X72459431Y-154173580D01*
X72307035Y-154251013D01*
X72299741Y-154254399D01*
X72192157Y-154300511D01*
X72068942Y-154347635D01*
X71941241Y-154392021D01*
X71820201Y-154429923D01*
X71716966Y-154457591D01*
X71662633Y-154468647D01*
X71611065Y-154481821D01*
X71599048Y-154497729D01*
X70117496Y-154497729D01*
X69915016Y-154442775D01*
X69662231Y-154345794D01*
X69433210Y-154227030D01*
X69373524Y-154189527D01*
X69304491Y-154149361D01*
X69236635Y-154118141D01*
X69197058Y-154105648D01*
X69144859Y-154090140D01*
X69071493Y-154062128D01*
X68991551Y-154027247D01*
X68979891Y-154021769D01*
X68819521Y-153923773D01*
X68819261Y-153923529D01*
X70771527Y-153923529D01*
X70778177Y-153939423D01*
X70796916Y-153960913D01*
X70801338Y-153965621D01*
X70826418Y-153990352D01*
X70851343Y-154005643D01*
X70883865Y-154011725D01*
X70931736Y-154008835D01*
X71002710Y-153997204D01*
X71104538Y-153977069D01*
X71114386Y-153975070D01*
X71196309Y-153956803D01*
X71290165Y-153933304D01*
X71388696Y-153906720D01*
X71484647Y-153879195D01*
X71570762Y-153852877D01*
X71639786Y-153829911D01*
X71684463Y-153812443D01*
X71697537Y-153802619D01*
X71697521Y-153802604D01*
X71675838Y-153802521D01*
X71624302Y-153808607D01*
X71552468Y-153819648D01*
X71521871Y-153824886D01*
X71434412Y-153838192D01*
X71321664Y-153852382D01*
X71198348Y-153865733D01*
X71082203Y-153876285D01*
X70958727Y-153886362D01*
X70870566Y-153894648D01*
X70813076Y-153902619D01*
X70781612Y-153911754D01*
X70771527Y-153923529D01*
X68819261Y-153923529D01*
X68680468Y-153793286D01*
X68564073Y-153632581D01*
X68471680Y-153443931D01*
X68404629Y-153229610D01*
X68364263Y-152991891D01*
X68362632Y-152976057D01*
X68348526Y-152889851D01*
X68323752Y-152787630D01*
X68293426Y-152690236D01*
X68290470Y-152682067D01*
X68212000Y-152440547D01*
X68201904Y-152401404D01*
X68592562Y-152401404D01*
X68601307Y-152544796D01*
X68610168Y-152632117D01*
X68628212Y-152703708D01*
X68661208Y-152778613D01*
X68686338Y-152825459D01*
X68856926Y-153101385D01*
X69042140Y-153341078D01*
X69243254Y-153546115D01*
X69327366Y-153617911D01*
X69447650Y-153715355D01*
X69577958Y-153702929D01*
X69645835Y-153695428D01*
X69695916Y-153687965D01*
X69716619Y-153682457D01*
X69720914Y-153677060D01*
X69717087Y-153669942D01*
X69698837Y-153656642D01*
X69659861Y-153632696D01*
X69593857Y-153593643D01*
X69577958Y-153584275D01*
X69358854Y-153436640D01*
X69162115Y-153264005D01*
X68984540Y-153062798D01*
X68822925Y-152829448D01*
X68692208Y-152596328D01*
X68592562Y-152401404D01*
X68201904Y-152401404D01*
X68140684Y-152164068D01*
X68077486Y-151857288D01*
X68023370Y-151524862D01*
X67981142Y-151188539D01*
X67971931Y-151083573D01*
X67964203Y-150955861D01*
X67958000Y-150811484D01*
X67953364Y-150656526D01*
X67950339Y-150497066D01*
X67948967Y-150339188D01*
X67949290Y-150188973D01*
X67951352Y-150052503D01*
X67955194Y-149935861D01*
X67960859Y-149845127D01*
X67968390Y-149786385D01*
X67971245Y-149775200D01*
X67982295Y-149744873D01*
X67988434Y-149743337D01*
X67991389Y-149774642D01*
X67992608Y-149825319D01*
X67999116Y-149984594D01*
X68013144Y-150173738D01*
X68033506Y-150383477D01*
X68059017Y-150604543D01*
X68088490Y-150827662D01*
X68120741Y-151043566D01*
X68154584Y-151242981D01*
X68188834Y-151416639D01*
X68205416Y-151489564D01*
X68236047Y-151611659D01*
X68268512Y-151732077D01*
X68300957Y-151844857D01*
X68331530Y-151944041D01*
X68358374Y-152023668D01*
X68379636Y-152077781D01*
X68393461Y-152100418D01*
X68395500Y-152100485D01*
X68413915Y-152068033D01*
X68423120Y-152004283D01*
X68423129Y-151916958D01*
X68413958Y-151813780D01*
X68395621Y-151702470D01*
X68394730Y-151698117D01*
X68365690Y-151548699D01*
X68342093Y-151405685D01*
X68323380Y-151262269D01*
X68308993Y-151111645D01*
X68298373Y-150947006D01*
X68290962Y-150761546D01*
X68286202Y-150548458D01*
X68283871Y-150346550D01*
X68280747Y-149956131D01*
X68396145Y-149956131D01*
X68398070Y-150034029D01*
X68402047Y-150131022D01*
X68407727Y-150240151D01*
X68414760Y-150354457D01*
X68422798Y-150466978D01*
X68431493Y-150570757D01*
X68437014Y-150627213D01*
X68448150Y-150721311D01*
X68462947Y-150829212D01*
X68480088Y-150943044D01*
X68498256Y-151054937D01*
X68516136Y-151157018D01*
X68532411Y-151241418D01*
X68545765Y-151300264D01*
X68553483Y-151323695D01*
X68564307Y-151315553D01*
X68584162Y-151275399D01*
X68610334Y-151209557D01*
X68640110Y-151124351D01*
X68643773Y-151113198D01*
X68688874Y-150978700D01*
X68729207Y-150865757D01*
X68763245Y-150778209D01*
X68789463Y-150719897D01*
X68806335Y-150694661D01*
X68810061Y-150694622D01*
X68809387Y-150716329D01*
X68801402Y-150769427D01*
X68787428Y-150846154D01*
X68768790Y-150938747D01*
X68766911Y-150947678D01*
X68741314Y-151074071D01*
X68714052Y-151217090D01*
X68689088Y-151355576D01*
X68676246Y-151431468D01*
X68637218Y-151670690D01*
X68698137Y-151845597D01*
X68749112Y-151979721D01*
X68812146Y-152126799D01*
X68881929Y-152275783D01*
X68953154Y-152415626D01*
X69020511Y-152535284D01*
X69058115Y-152594655D01*
X69153713Y-152721266D01*
X69269724Y-152851695D01*
X69393993Y-152973321D01*
X69514364Y-153073523D01*
X69531042Y-153085717D01*
X69591717Y-153125615D01*
X69666434Y-153169573D01*
X69747188Y-153213542D01*
X69825972Y-153253474D01*
X69894780Y-153285320D01*
X69945605Y-153305032D01*
X69970442Y-153308559D01*
X69970929Y-153308170D01*
X69967238Y-153287328D01*
X69949903Y-153239744D01*
X69922450Y-153174908D01*
X69916351Y-153161355D01*
X69857164Y-153025149D01*
X69790583Y-152862110D01*
X69720968Y-152683739D01*
X69652677Y-152501537D01*
X69590068Y-152327005D01*
X69537500Y-152171645D01*
X69518179Y-152110717D01*
X69484770Y-151999045D01*
X69448724Y-151872832D01*
X69411663Y-151738378D01*
X69375208Y-151601986D01*
X69340983Y-151469956D01*
X69310609Y-151348589D01*
X69285709Y-151244186D01*
X69267904Y-151163049D01*
X69258817Y-151111479D01*
X69257992Y-151100052D01*
X69265301Y-151107733D01*
X69285690Y-151148710D01*
X69317436Y-151219018D01*
X69358814Y-151314692D01*
X69408102Y-151431766D01*
X69463575Y-151566274D01*
X69505566Y-151669675D01*
X69593604Y-151886039D01*
X69671009Y-152071799D01*
X69741050Y-152233959D01*
X69806999Y-152379521D01*
X69872124Y-152515490D01*
X69939695Y-152648868D01*
X70012983Y-152786660D01*
X70095256Y-152935868D01*
X70104145Y-152951761D01*
X70184104Y-153093527D01*
X70247883Y-153203685D01*
X70298131Y-153286020D01*
X70337500Y-153344322D01*
X70368642Y-153382377D01*
X70394206Y-153403974D01*
X70416844Y-153412900D01*
X70427527Y-153413795D01*
X70463861Y-153403117D01*
X70523729Y-153374295D01*
X70597801Y-153332151D01*
X70653477Y-153297062D01*
X70735195Y-153240836D01*
X70836398Y-153167341D01*
X70945782Y-153084988D01*
X71052041Y-153002188D01*
X71081677Y-152978472D01*
X71100894Y-152962730D01*
X72264304Y-152962730D01*
X72274327Y-152972753D01*
X72284351Y-152962730D01*
X72274327Y-152952706D01*
X72264304Y-152962730D01*
X71100894Y-152962730D01*
X71121585Y-152945781D01*
X72304398Y-152945781D01*
X72319723Y-152941984D01*
X72365530Y-152912612D01*
X72441571Y-152857841D01*
X72547594Y-152777849D01*
X72601362Y-152736497D01*
X72668875Y-152682869D01*
X72721401Y-152638310D01*
X72752772Y-152608239D01*
X72758634Y-152598365D01*
X72740977Y-152606860D01*
X72698990Y-152635193D01*
X72639589Y-152678078D01*
X72569688Y-152730224D01*
X72496202Y-152786344D01*
X72426045Y-152841149D01*
X72366132Y-152889350D01*
X72323379Y-152925659D01*
X72304699Y-152944787D01*
X72304398Y-152945781D01*
X71121585Y-152945781D01*
X71167964Y-152907790D01*
X71262702Y-152828280D01*
X71361300Y-152744008D01*
X71459167Y-152659038D01*
X71551714Y-152577435D01*
X71634350Y-152503265D01*
X71702485Y-152440591D01*
X71751528Y-152393480D01*
X71776889Y-152365996D01*
X71779182Y-152360799D01*
X71759128Y-152352011D01*
X71708871Y-152332371D01*
X71635883Y-152304742D01*
X71547636Y-152271988D01*
X71543126Y-152270330D01*
X71076200Y-152078180D01*
X70625464Y-151851678D01*
X70193627Y-151592823D01*
X69783395Y-151303616D01*
X69397476Y-150986059D01*
X69038578Y-150642152D01*
X68709407Y-150273895D01*
X68526359Y-150040828D01*
X68475736Y-149974388D01*
X68433985Y-149922130D01*
X68406798Y-149891043D01*
X68399843Y-149885461D01*
X68396619Y-149904288D01*
X68396145Y-149956131D01*
X68280747Y-149956131D01*
X68278656Y-149695011D01*
X68144617Y-149474490D01*
X67899957Y-149033715D01*
X67691070Y-148575201D01*
X67517882Y-148098725D01*
X67380317Y-147604065D01*
X67278301Y-147090996D01*
X67229936Y-146738026D01*
X67220590Y-146626382D01*
X67213659Y-146483877D01*
X67209145Y-146319673D01*
X67207047Y-146142932D01*
X67207364Y-145962815D01*
X67210098Y-145788483D01*
X67215248Y-145629098D01*
X67222814Y-145493821D01*
X67229936Y-145414900D01*
X67308602Y-144888419D01*
X67423343Y-144379422D01*
X67574197Y-143887817D01*
X67761200Y-143413514D01*
X67984390Y-142956421D01*
X68243805Y-142516448D01*
X68539482Y-142093503D01*
X68653759Y-141946708D01*
X68755818Y-141825120D01*
X68880137Y-141686438D01*
X69018284Y-141539369D01*
X69161829Y-141392621D01*
X69302341Y-141254901D01*
X69431388Y-141134916D01*
X69487745Y-141085355D01*
X69890938Y-140765304D01*
X70314869Y-140479264D01*
X70758016Y-140227899D01*
X71218860Y-140011872D01*
X71695878Y-139831844D01*
X72187550Y-139688478D01*
X72692356Y-139582438D01*
X73056174Y-139530372D01*
X73205365Y-139516873D01*
X73383200Y-139506902D01*
X73579272Y-139500540D01*
X73783175Y-139497868D01*
X73984503Y-139498965D01*
X74172849Y-139503912D01*
X74337807Y-139512790D01*
X74419394Y-139519846D01*
X74938562Y-139592541D01*
X75441592Y-139701891D01*
X75928912Y-139848072D01*
X76400949Y-140031261D01*
X76858129Y-140251634D01*
X77300881Y-140509368D01*
X77729632Y-140804639D01*
X77957753Y-140981585D01*
X78045259Y-141055693D01*
X78149633Y-141149609D01*
X78264793Y-141257332D01*
X78384654Y-141372860D01*
X78503133Y-141490192D01*
X78614148Y-141603326D01*
X78711614Y-141706261D01*
X78789448Y-141792996D01*
X78829813Y-141841909D01*
X78872226Y-141894745D01*
X78904840Y-141932157D01*
X78920026Y-141945681D01*
X78931114Y-141928592D01*
X78957941Y-141879833D01*
X78998322Y-141803596D01*
X79050069Y-141704075D01*
X79110997Y-141585465D01*
X79178919Y-141451958D01*
X79225318Y-141360100D01*
X79369183Y-141077442D01*
X79507542Y-140811393D01*
X79639196Y-140564027D01*
X79762946Y-140337419D01*
X79877594Y-140133643D01*
X79981941Y-139954774D01*
X80074787Y-139802887D01*
X80154935Y-139680055D01*
X80221186Y-139588354D01*
X80272340Y-139529859D01*
X80292472Y-139513320D01*
X80327284Y-139492666D01*
X80339770Y-139492811D01*
X80339770Y-139492811D01*
G37*
X80339770Y-139492811D02*
X80329272Y-139516974D01*
X80295131Y-139568375D01*
X80275543Y-139596109D01*
X80238901Y-139650196D01*
X80203000Y-139709563D01*
X80165587Y-139778959D01*
X80124408Y-139863130D01*
X80077212Y-139966823D01*
X80021745Y-140094788D01*
X79955755Y-140251770D01*
X79897006Y-140393824D01*
X79847041Y-140516483D01*
X79785417Y-140669788D01*
X79714806Y-140846941D01*
X79637880Y-141041142D01*
X79557310Y-141245592D01*
X79475768Y-141453491D01*
X79395926Y-141658041D01*
X79320455Y-141852441D01*
X79252027Y-142029893D01*
X79193313Y-142183596D01*
X79181631Y-142214434D01*
X79159990Y-142271663D01*
X79047544Y-142117688D01*
X78997827Y-142053314D01*
X78955845Y-142005788D01*
X78927408Y-141981335D01*
X78919319Y-141980269D01*
X78908100Y-142000736D01*
X78880984Y-142054287D01*
X78839460Y-142137877D01*
X78785017Y-142248461D01*
X78719146Y-142382994D01*
X78643335Y-142538431D01*
X78559075Y-142711729D01*
X78467855Y-142899841D01*
X78371164Y-143099723D01*
X78332578Y-143179620D01*
X78110428Y-143639554D01*
X77904286Y-144065769D01*
X77712935Y-144460756D01*
X77535157Y-144827002D01*
X77369736Y-145166995D01*
X77215455Y-145483225D01*
X77071096Y-145778179D01*
X76935443Y-146054347D01*
X76807278Y-146314216D01*
X76685385Y-146560275D01*
X76568545Y-146795013D01*
X76455543Y-147020917D01*
X76391219Y-147148997D01*
X76304040Y-147323365D01*
X76229596Y-147473261D01*
X76165241Y-147602126D01*
X76108326Y-147713404D01*
X76056204Y-147810534D01*
X76006228Y-147896960D01*
X75955750Y-147976124D01*
X75902122Y-148051466D01*
X75842696Y-148126429D01*
X75774826Y-148204454D01*
X75695863Y-148288984D01*
X75603160Y-148383461D01*
X75494070Y-148491325D01*
X75365944Y-148616020D01*
X75216136Y-148760987D01*
X75041997Y-148929667D01*
X74960673Y-149008697D01*
X74813988Y-149152227D01*
X74670479Y-149294150D01*
X74533892Y-149430661D01*
X74407971Y-149557953D01*
X74296461Y-149672220D01*
X74203105Y-149769656D01*
X74131649Y-149846453D01*
X74090055Y-149893703D01*
X73976934Y-150026710D01*
X73839761Y-150183984D01*
X73682550Y-150361156D01*
X73509311Y-150553856D01*
X73324057Y-150757716D01*
X73130800Y-150968364D01*
X72933551Y-151181433D01*
X72736322Y-151392552D01*
X72543125Y-151597353D01*
X72357973Y-151791465D01*
X72184876Y-151970519D01*
X72156552Y-151999540D01*
X72060757Y-152097821D01*
X71975222Y-152186109D01*
X71903647Y-152260543D01*
X71849726Y-152317264D01*
X71817157Y-152352413D01*
X71808980Y-152362433D01*
X71833621Y-152371212D01*
X71889450Y-152387274D01*
X71968650Y-152408626D01*
X72063401Y-152433276D01*
X72165886Y-152459229D01*
X72268287Y-152484494D01*
X72362785Y-152507077D01*
X72441561Y-152524986D01*
X72471996Y-152531439D01*
X72600747Y-152555716D01*
X72694316Y-152568502D01*
X72755862Y-152570031D01*
X72788546Y-152560538D01*
X72793386Y-152555274D01*
X72812539Y-152536377D01*
X72855878Y-152498821D01*
X72916128Y-152448805D01*
X72959960Y-152413314D01*
X73116316Y-152287885D01*
X72799896Y-152586325D01*
X72867893Y-152598494D01*
X72988416Y-152615926D01*
X73132871Y-152630047D01*
X73295785Y-152640897D01*
X73471684Y-152648515D01*
X73655096Y-152652942D01*
X73840545Y-152654218D01*
X74022560Y-152652383D01*
X74195667Y-152647477D01*
X74354392Y-152639540D01*
X74493262Y-152628611D01*
X74606803Y-152614733D01*
X74689542Y-152597943D01*
X74725392Y-152584897D01*
X74748315Y-152561244D01*
X74788888Y-152506275D01*
X74844948Y-152423531D01*
X74914333Y-152316553D01*
X74994882Y-152188885D01*
X75084433Y-152044066D01*
X75180822Y-151885640D01*
X75281890Y-151717147D01*
X75385473Y-151542130D01*
X75489411Y-151364130D01*
X75591540Y-151186689D01*
X75689699Y-151013349D01*
X75742954Y-150917899D01*
X75827462Y-150768109D01*
X75918224Y-150611722D01*
X76009949Y-150457549D01*
X76097345Y-150314399D01*
X76175122Y-150191083D01*
X76224572Y-150116005D01*
X76298557Y-150003036D01*
X76384479Y-149865784D01*
X76475574Y-149715431D01*
X76565078Y-149563162D01*
X76646227Y-149420158D01*
X76654346Y-149405485D01*
X76753975Y-149229471D01*
X76851947Y-149066793D01*
X76955307Y-148906514D01*
X77071105Y-148737700D01*
X77203422Y-148553473D01*
X77486767Y-148157587D01*
X77754519Y-147766454D01*
X78012903Y-147370427D01*
X78268144Y-146959860D01*
X78526466Y-146525105D01*
X78646503Y-146317031D01*
X78718532Y-146193258D01*
X78784078Y-146086420D01*
X78849047Y-145988144D01*
X78919349Y-145890058D01*
X79000891Y-145783791D01*
X79099581Y-145660972D01*
X79169957Y-145575279D01*
X79267085Y-145457462D01*
X79363697Y-145339944D01*
X79454315Y-145229412D01*
X79533460Y-145132553D01*
X79595655Y-145056057D01*
X79621544Y-145023977D01*
X79683849Y-144947224D01*
X79762735Y-144851251D01*
X79848829Y-144747400D01*
X79932760Y-144647013D01*
X79946636Y-144630517D01*
X80014974Y-144547771D01*
X80072960Y-144474515D01*
X80116066Y-144416716D01*
X80139761Y-144380336D01*
X80142914Y-144372063D01*
X80137566Y-144341958D01*
X80123804Y-144287247D01*
X80105052Y-144219712D01*
X80084735Y-144151138D01*
X80066277Y-144093308D01*
X80053102Y-144058006D01*
X80050176Y-144052930D01*
X80032672Y-144061048D01*
X79995056Y-144090839D01*
X79948407Y-144133120D01*
X79902142Y-144174811D01*
X79880484Y-144188625D01*
X79884683Y-144173787D01*
X79885788Y-144171964D01*
X79913816Y-144123229D01*
X79948297Y-144059222D01*
X79961901Y-144032915D01*
X79989259Y-143981491D01*
X80006037Y-143961523D01*
X80019248Y-143968436D01*
X80030757Y-143987994D01*
X80041547Y-144004396D01*
X80055173Y-144010017D01*
X80076790Y-144001635D01*
X80111551Y-143976025D01*
X80164609Y-143929968D01*
X80241117Y-143860240D01*
X80253980Y-143848417D01*
X80480882Y-143641548D01*
X80683024Y-143461130D01*
X80863391Y-143304674D01*
X81024970Y-143169687D01*
X81170748Y-143053680D01*
X81303710Y-142954162D01*
X81426844Y-142868641D01*
X81435969Y-142862588D01*
X81599173Y-142761532D01*
X81738826Y-142689596D01*
X81854235Y-142647026D01*
X81944704Y-142634069D01*
X82009538Y-142650970D01*
X82017342Y-142656350D01*
X82038743Y-142675095D01*
X82034759Y-142684250D01*
X81999583Y-142687382D01*
X81966137Y-142687822D01*
X81876762Y-142701078D01*
X81788084Y-142743497D01*
X81784136Y-142745981D01*
X81713919Y-142795593D01*
X81622976Y-142867331D01*
X81518696Y-142954736D01*
X81408467Y-143051348D01*
X81299678Y-143150707D01*
X81199719Y-143246355D01*
X81125235Y-143321999D01*
X81063375Y-143387938D01*
X80985012Y-143472476D01*
X80894258Y-143571082D01*
X80795228Y-143679224D01*
X80692035Y-143792369D01*
X80588792Y-143905985D01*
X80489612Y-144015542D01*
X80398610Y-144116507D01*
X80319898Y-144204347D01*
X80257591Y-144274532D01*
X80215801Y-144322530D01*
X80202092Y-144339039D01*
X80157907Y-144395212D01*
X80212129Y-144639429D01*
X80256670Y-144851550D01*
X80291303Y-145045681D01*
X80317339Y-145233155D01*
X80336088Y-145425305D01*
X80348860Y-145633466D01*
X80356967Y-145868971D01*
X80357652Y-145897984D01*
X80360164Y-146223895D01*
X80351428Y-146521401D01*
X80330404Y-146800867D01*
X80296053Y-147072661D01*
X80247336Y-147347150D01*
X80183875Y-147631974D01*
X80045104Y-148120644D01*
X79869670Y-148594823D01*
X79658984Y-149052586D01*
X79414459Y-149492005D01*
X79137507Y-149911154D01*
X78829539Y-150308108D01*
X78491967Y-150680941D01*
X78126203Y-151027726D01*
X77733659Y-151346537D01*
X77315747Y-151635448D01*
X77193845Y-151711046D01*
X76777805Y-151942005D01*
X76342599Y-152144039D01*
X75894896Y-152314636D01*
X75441364Y-152451282D01*
X74988672Y-152551467D01*
X74940626Y-152559912D01*
X74835241Y-152581362D01*
X74767244Y-152603486D01*
X74734447Y-152626416D01*
X74716261Y-152652349D01*
X74678797Y-152706366D01*
X74625481Y-152783504D01*
X74559742Y-152878800D01*
X74485005Y-152987293D01*
X74426037Y-153072990D01*
X74206034Y-153385328D01*
X73999073Y-153663115D01*
X73802898Y-153908862D01*
X73615250Y-154125079D01*
X73433873Y-154314275D01*
X73256510Y-154478962D01*
X73080902Y-154621649D01*
X72948372Y-154716152D01*
X72831567Y-154787470D01*
X72697100Y-154858152D01*
X72557727Y-154922296D01*
X72426202Y-154973996D01*
X72323422Y-155005416D01*
X72159019Y-155034605D01*
X71981119Y-155047585D01*
X71807198Y-155043757D01*
X71679057Y-155027514D01*
X71441488Y-154962122D01*
X71213800Y-154857947D01*
X70996301Y-154715139D01*
X70921012Y-154654686D01*
X70862899Y-154609432D01*
X70815595Y-154585942D01*
X70761813Y-154577373D01*
X70723589Y-154576542D01*
X70454930Y-154560796D01*
X70182328Y-154515325D01*
X70117496Y-154497729D01*
X71599048Y-154497729D01*
X71626802Y-154515137D01*
X71652859Y-154523275D01*
X71690883Y-154527649D01*
X71756650Y-154529793D01*
X71837857Y-154529388D01*
X71863356Y-154528723D01*
X71980299Y-154520279D01*
X72076794Y-154500855D01*
X72159632Y-154471881D01*
X72295144Y-154410008D01*
X72416417Y-154339152D01*
X72534264Y-154251888D01*
X72659496Y-154140788D01*
X72703893Y-154098013D01*
X72769412Y-154032744D01*
X72818110Y-153981955D01*
X72846380Y-153949608D01*
X72850614Y-153939667D01*
X72845677Y-153942261D01*
X72638469Y-154070954D01*
X72459431Y-154173580D01*
X72307035Y-154251013D01*
X72299741Y-154254399D01*
X72192157Y-154300511D01*
X72068942Y-154347635D01*
X71941241Y-154392021D01*
X71820201Y-154429923D01*
X71716966Y-154457591D01*
X71662633Y-154468647D01*
X71611065Y-154481821D01*
X71599048Y-154497729D01*
X70117496Y-154497729D01*
X69915016Y-154442775D01*
X69662231Y-154345794D01*
X69433210Y-154227030D01*
X69373524Y-154189527D01*
X69304491Y-154149361D01*
X69236635Y-154118141D01*
X69197058Y-154105648D01*
X69144859Y-154090140D01*
X69071493Y-154062128D01*
X68991551Y-154027247D01*
X68979891Y-154021769D01*
X68819521Y-153923773D01*
X68819261Y-153923529D01*
X70771527Y-153923529D01*
X70778177Y-153939423D01*
X70796916Y-153960913D01*
X70801338Y-153965621D01*
X70826418Y-153990352D01*
X70851343Y-154005643D01*
X70883865Y-154011725D01*
X70931736Y-154008835D01*
X71002710Y-153997204D01*
X71104538Y-153977069D01*
X71114386Y-153975070D01*
X71196309Y-153956803D01*
X71290165Y-153933304D01*
X71388696Y-153906720D01*
X71484647Y-153879195D01*
X71570762Y-153852877D01*
X71639786Y-153829911D01*
X71684463Y-153812443D01*
X71697537Y-153802619D01*
X71697521Y-153802604D01*
X71675838Y-153802521D01*
X71624302Y-153808607D01*
X71552468Y-153819648D01*
X71521871Y-153824886D01*
X71434412Y-153838192D01*
X71321664Y-153852382D01*
X71198348Y-153865733D01*
X71082203Y-153876285D01*
X70958727Y-153886362D01*
X70870566Y-153894648D01*
X70813076Y-153902619D01*
X70781612Y-153911754D01*
X70771527Y-153923529D01*
X68819261Y-153923529D01*
X68680468Y-153793286D01*
X68564073Y-153632581D01*
X68471680Y-153443931D01*
X68404629Y-153229610D01*
X68364263Y-152991891D01*
X68362632Y-152976057D01*
X68348526Y-152889851D01*
X68323752Y-152787630D01*
X68293426Y-152690236D01*
X68290470Y-152682067D01*
X68212000Y-152440547D01*
X68201904Y-152401404D01*
X68592562Y-152401404D01*
X68601307Y-152544796D01*
X68610168Y-152632117D01*
X68628212Y-152703708D01*
X68661208Y-152778613D01*
X68686338Y-152825459D01*
X68856926Y-153101385D01*
X69042140Y-153341078D01*
X69243254Y-153546115D01*
X69327366Y-153617911D01*
X69447650Y-153715355D01*
X69577958Y-153702929D01*
X69645835Y-153695428D01*
X69695916Y-153687965D01*
X69716619Y-153682457D01*
X69720914Y-153677060D01*
X69717087Y-153669942D01*
X69698837Y-153656642D01*
X69659861Y-153632696D01*
X69593857Y-153593643D01*
X69577958Y-153584275D01*
X69358854Y-153436640D01*
X69162115Y-153264005D01*
X68984540Y-153062798D01*
X68822925Y-152829448D01*
X68692208Y-152596328D01*
X68592562Y-152401404D01*
X68201904Y-152401404D01*
X68140684Y-152164068D01*
X68077486Y-151857288D01*
X68023370Y-151524862D01*
X67981142Y-151188539D01*
X67971931Y-151083573D01*
X67964203Y-150955861D01*
X67958000Y-150811484D01*
X67953364Y-150656526D01*
X67950339Y-150497066D01*
X67948967Y-150339188D01*
X67949290Y-150188973D01*
X67951352Y-150052503D01*
X67955194Y-149935861D01*
X67960859Y-149845127D01*
X67968390Y-149786385D01*
X67971245Y-149775200D01*
X67982295Y-149744873D01*
X67988434Y-149743337D01*
X67991389Y-149774642D01*
X67992608Y-149825319D01*
X67999116Y-149984594D01*
X68013144Y-150173738D01*
X68033506Y-150383477D01*
X68059017Y-150604543D01*
X68088490Y-150827662D01*
X68120741Y-151043566D01*
X68154584Y-151242981D01*
X68188834Y-151416639D01*
X68205416Y-151489564D01*
X68236047Y-151611659D01*
X68268512Y-151732077D01*
X68300957Y-151844857D01*
X68331530Y-151944041D01*
X68358374Y-152023668D01*
X68379636Y-152077781D01*
X68393461Y-152100418D01*
X68395500Y-152100485D01*
X68413915Y-152068033D01*
X68423120Y-152004283D01*
X68423129Y-151916958D01*
X68413958Y-151813780D01*
X68395621Y-151702470D01*
X68394730Y-151698117D01*
X68365690Y-151548699D01*
X68342093Y-151405685D01*
X68323380Y-151262269D01*
X68308993Y-151111645D01*
X68298373Y-150947006D01*
X68290962Y-150761546D01*
X68286202Y-150548458D01*
X68283871Y-150346550D01*
X68280747Y-149956131D01*
X68396145Y-149956131D01*
X68398070Y-150034029D01*
X68402047Y-150131022D01*
X68407727Y-150240151D01*
X68414760Y-150354457D01*
X68422798Y-150466978D01*
X68431493Y-150570757D01*
X68437014Y-150627213D01*
X68448150Y-150721311D01*
X68462947Y-150829212D01*
X68480088Y-150943044D01*
X68498256Y-151054937D01*
X68516136Y-151157018D01*
X68532411Y-151241418D01*
X68545765Y-151300264D01*
X68553483Y-151323695D01*
X68564307Y-151315553D01*
X68584162Y-151275399D01*
X68610334Y-151209557D01*
X68640110Y-151124351D01*
X68643773Y-151113198D01*
X68688874Y-150978700D01*
X68729207Y-150865757D01*
X68763245Y-150778209D01*
X68789463Y-150719897D01*
X68806335Y-150694661D01*
X68810061Y-150694622D01*
X68809387Y-150716329D01*
X68801402Y-150769427D01*
X68787428Y-150846154D01*
X68768790Y-150938747D01*
X68766911Y-150947678D01*
X68741314Y-151074071D01*
X68714052Y-151217090D01*
X68689088Y-151355576D01*
X68676246Y-151431468D01*
X68637218Y-151670690D01*
X68698137Y-151845597D01*
X68749112Y-151979721D01*
X68812146Y-152126799D01*
X68881929Y-152275783D01*
X68953154Y-152415626D01*
X69020511Y-152535284D01*
X69058115Y-152594655D01*
X69153713Y-152721266D01*
X69269724Y-152851695D01*
X69393993Y-152973321D01*
X69514364Y-153073523D01*
X69531042Y-153085717D01*
X69591717Y-153125615D01*
X69666434Y-153169573D01*
X69747188Y-153213542D01*
X69825972Y-153253474D01*
X69894780Y-153285320D01*
X69945605Y-153305032D01*
X69970442Y-153308559D01*
X69970929Y-153308170D01*
X69967238Y-153287328D01*
X69949903Y-153239744D01*
X69922450Y-153174908D01*
X69916351Y-153161355D01*
X69857164Y-153025149D01*
X69790583Y-152862110D01*
X69720968Y-152683739D01*
X69652677Y-152501537D01*
X69590068Y-152327005D01*
X69537500Y-152171645D01*
X69518179Y-152110717D01*
X69484770Y-151999045D01*
X69448724Y-151872832D01*
X69411663Y-151738378D01*
X69375208Y-151601986D01*
X69340983Y-151469956D01*
X69310609Y-151348589D01*
X69285709Y-151244186D01*
X69267904Y-151163049D01*
X69258817Y-151111479D01*
X69257992Y-151100052D01*
X69265301Y-151107733D01*
X69285690Y-151148710D01*
X69317436Y-151219018D01*
X69358814Y-151314692D01*
X69408102Y-151431766D01*
X69463575Y-151566274D01*
X69505566Y-151669675D01*
X69593604Y-151886039D01*
X69671009Y-152071799D01*
X69741050Y-152233959D01*
X69806999Y-152379521D01*
X69872124Y-152515490D01*
X69939695Y-152648868D01*
X70012983Y-152786660D01*
X70095256Y-152935868D01*
X70104145Y-152951761D01*
X70184104Y-153093527D01*
X70247883Y-153203685D01*
X70298131Y-153286020D01*
X70337500Y-153344322D01*
X70368642Y-153382377D01*
X70394206Y-153403974D01*
X70416844Y-153412900D01*
X70427527Y-153413795D01*
X70463861Y-153403117D01*
X70523729Y-153374295D01*
X70597801Y-153332151D01*
X70653477Y-153297062D01*
X70735195Y-153240836D01*
X70836398Y-153167341D01*
X70945782Y-153084988D01*
X71052041Y-153002188D01*
X71081677Y-152978472D01*
X71100894Y-152962730D01*
X72264304Y-152962730D01*
X72274327Y-152972753D01*
X72284351Y-152962730D01*
X72274327Y-152952706D01*
X72264304Y-152962730D01*
X71100894Y-152962730D01*
X71121585Y-152945781D01*
X72304398Y-152945781D01*
X72319723Y-152941984D01*
X72365530Y-152912612D01*
X72441571Y-152857841D01*
X72547594Y-152777849D01*
X72601362Y-152736497D01*
X72668875Y-152682869D01*
X72721401Y-152638310D01*
X72752772Y-152608239D01*
X72758634Y-152598365D01*
X72740977Y-152606860D01*
X72698990Y-152635193D01*
X72639589Y-152678078D01*
X72569688Y-152730224D01*
X72496202Y-152786344D01*
X72426045Y-152841149D01*
X72366132Y-152889350D01*
X72323379Y-152925659D01*
X72304699Y-152944787D01*
X72304398Y-152945781D01*
X71121585Y-152945781D01*
X71167964Y-152907790D01*
X71262702Y-152828280D01*
X71361300Y-152744008D01*
X71459167Y-152659038D01*
X71551714Y-152577435D01*
X71634350Y-152503265D01*
X71702485Y-152440591D01*
X71751528Y-152393480D01*
X71776889Y-152365996D01*
X71779182Y-152360799D01*
X71759128Y-152352011D01*
X71708871Y-152332371D01*
X71635883Y-152304742D01*
X71547636Y-152271988D01*
X71543126Y-152270330D01*
X71076200Y-152078180D01*
X70625464Y-151851678D01*
X70193627Y-151592823D01*
X69783395Y-151303616D01*
X69397476Y-150986059D01*
X69038578Y-150642152D01*
X68709407Y-150273895D01*
X68526359Y-150040828D01*
X68475736Y-149974388D01*
X68433985Y-149922130D01*
X68406798Y-149891043D01*
X68399843Y-149885461D01*
X68396619Y-149904288D01*
X68396145Y-149956131D01*
X68280747Y-149956131D01*
X68278656Y-149695011D01*
X68144617Y-149474490D01*
X67899957Y-149033715D01*
X67691070Y-148575201D01*
X67517882Y-148098725D01*
X67380317Y-147604065D01*
X67278301Y-147090996D01*
X67229936Y-146738026D01*
X67220590Y-146626382D01*
X67213659Y-146483877D01*
X67209145Y-146319673D01*
X67207047Y-146142932D01*
X67207364Y-145962815D01*
X67210098Y-145788483D01*
X67215248Y-145629098D01*
X67222814Y-145493821D01*
X67229936Y-145414900D01*
X67308602Y-144888419D01*
X67423343Y-144379422D01*
X67574197Y-143887817D01*
X67761200Y-143413514D01*
X67984390Y-142956421D01*
X68243805Y-142516448D01*
X68539482Y-142093503D01*
X68653759Y-141946708D01*
X68755818Y-141825120D01*
X68880137Y-141686438D01*
X69018284Y-141539369D01*
X69161829Y-141392621D01*
X69302341Y-141254901D01*
X69431388Y-141134916D01*
X69487745Y-141085355D01*
X69890938Y-140765304D01*
X70314869Y-140479264D01*
X70758016Y-140227899D01*
X71218860Y-140011872D01*
X71695878Y-139831844D01*
X72187550Y-139688478D01*
X72692356Y-139582438D01*
X73056174Y-139530372D01*
X73205365Y-139516873D01*
X73383200Y-139506902D01*
X73579272Y-139500540D01*
X73783175Y-139497868D01*
X73984503Y-139498965D01*
X74172849Y-139503912D01*
X74337807Y-139512790D01*
X74419394Y-139519846D01*
X74938562Y-139592541D01*
X75441592Y-139701891D01*
X75928912Y-139848072D01*
X76400949Y-140031261D01*
X76858129Y-140251634D01*
X77300881Y-140509368D01*
X77729632Y-140804639D01*
X77957753Y-140981585D01*
X78045259Y-141055693D01*
X78149633Y-141149609D01*
X78264793Y-141257332D01*
X78384654Y-141372860D01*
X78503133Y-141490192D01*
X78614148Y-141603326D01*
X78711614Y-141706261D01*
X78789448Y-141792996D01*
X78829813Y-141841909D01*
X78872226Y-141894745D01*
X78904840Y-141932157D01*
X78920026Y-141945681D01*
X78931114Y-141928592D01*
X78957941Y-141879833D01*
X78998322Y-141803596D01*
X79050069Y-141704075D01*
X79110997Y-141585465D01*
X79178919Y-141451958D01*
X79225318Y-141360100D01*
X79369183Y-141077442D01*
X79507542Y-140811393D01*
X79639196Y-140564027D01*
X79762946Y-140337419D01*
X79877594Y-140133643D01*
X79981941Y-139954774D01*
X80074787Y-139802887D01*
X80154935Y-139680055D01*
X80221186Y-139588354D01*
X80272340Y-139529859D01*
X80292472Y-139513320D01*
X80327284Y-139492666D01*
X80339770Y-139492811D01*
G04 #@! TO.C,U1*
D11*
X65334715Y-91129381D02*
X64763286Y-91129381D01*
X65049001Y-91129381D02*
X65049001Y-90129381D01*
X64953762Y-90272239D01*
X64858524Y-90367477D01*
X64763286Y-90415096D01*
X87972524Y-91129381D02*
X87401096Y-91129381D01*
X87686810Y-91129381D02*
X87686810Y-90129381D01*
X87591572Y-90272239D01*
X87496334Y-90367477D01*
X87401096Y-90415096D01*
X88591572Y-90129381D02*
X88686810Y-90129381D01*
X88782048Y-90177001D01*
X88829667Y-90224620D01*
X88877286Y-90319858D01*
X88924905Y-90510334D01*
X88924905Y-90748429D01*
X88877286Y-90938905D01*
X88829667Y-91034143D01*
X88782048Y-91081762D01*
X88686810Y-91129381D01*
X88591572Y-91129381D01*
X88496334Y-91081762D01*
X88448715Y-91034143D01*
X88401096Y-90938905D01*
X88353477Y-90748429D01*
X88353477Y-90510334D01*
X88401096Y-90319858D01*
X88448715Y-90224620D01*
X88496334Y-90177001D01*
X88591572Y-90129381D01*
X65334715Y-127705381D02*
X64763286Y-127705381D01*
X65049001Y-127705381D02*
X65049001Y-126705381D01*
X64953762Y-126848239D01*
X64858524Y-126943477D01*
X64763286Y-126991096D01*
X87972524Y-127705381D02*
X87401096Y-127705381D01*
X87686810Y-127705381D02*
X87686810Y-126705381D01*
X87591572Y-126848239D01*
X87496334Y-126943477D01*
X87401096Y-126991096D01*
X88591572Y-126705381D02*
X88686810Y-126705381D01*
X88782048Y-126753001D01*
X88829667Y-126800620D01*
X88877286Y-126895858D01*
X88924905Y-127086334D01*
X88924905Y-127324429D01*
X88877286Y-127514905D01*
X88829667Y-127610143D01*
X88782048Y-127657762D01*
X88686810Y-127705381D01*
X88591572Y-127705381D01*
X88496334Y-127657762D01*
X88448715Y-127610143D01*
X88401096Y-127514905D01*
X88353477Y-127324429D01*
X88353477Y-127086334D01*
X88401096Y-126895858D01*
X88448715Y-126800620D01*
X88496334Y-126753001D01*
X88591572Y-126705381D01*
X87353477Y-91399381D02*
X88020143Y-92399381D01*
X88020143Y-91399381D02*
X87353477Y-92399381D01*
X88448715Y-92399381D02*
X88639191Y-92399381D01*
X88734429Y-92351762D01*
X88782048Y-92304143D01*
X88877286Y-92161286D01*
X88924905Y-91970810D01*
X88924905Y-91589858D01*
X88877286Y-91494620D01*
X88829667Y-91447001D01*
X88734429Y-91399381D01*
X88543953Y-91399381D01*
X88448715Y-91447001D01*
X88401096Y-91494620D01*
X88353477Y-91589858D01*
X88353477Y-91827953D01*
X88401096Y-91923191D01*
X88448715Y-91970810D01*
X88543953Y-92018429D01*
X88734429Y-92018429D01*
X88829667Y-91970810D01*
X88877286Y-91923191D01*
X88924905Y-91827953D01*
X87353477Y-125435381D02*
X88020143Y-126435381D01*
X88020143Y-125435381D02*
X87353477Y-126435381D01*
X88543953Y-125863953D02*
X88448715Y-125816334D01*
X88401096Y-125768715D01*
X88353477Y-125673477D01*
X88353477Y-125625858D01*
X88401096Y-125530620D01*
X88448715Y-125483001D01*
X88543953Y-125435381D01*
X88734429Y-125435381D01*
X88829667Y-125483001D01*
X88877286Y-125530620D01*
X88924905Y-125625858D01*
X88924905Y-125673477D01*
X88877286Y-125768715D01*
X88829667Y-125816334D01*
X88734429Y-125863953D01*
X88543953Y-125863953D01*
X88448715Y-125911572D01*
X88401096Y-125959191D01*
X88353477Y-126054429D01*
X88353477Y-126244905D01*
X88401096Y-126340143D01*
X88448715Y-126387762D01*
X88543953Y-126435381D01*
X88734429Y-126435381D01*
X88829667Y-126387762D01*
X88877286Y-126340143D01*
X88924905Y-126244905D01*
X88924905Y-126054429D01*
X88877286Y-125959191D01*
X88829667Y-125911572D01*
X88734429Y-125863953D01*
X90028334Y-89002143D02*
X89980715Y-89049762D01*
X89837858Y-89097381D01*
X89742620Y-89097381D01*
X89599762Y-89049762D01*
X89504524Y-88954524D01*
X89456905Y-88859286D01*
X89409286Y-88668810D01*
X89409286Y-88525953D01*
X89456905Y-88335477D01*
X89504524Y-88240239D01*
X89599762Y-88145001D01*
X89742620Y-88097381D01*
X89837858Y-88097381D01*
X89980715Y-88145001D01*
X90028334Y-88192620D01*
X90980715Y-89097381D02*
X90409286Y-89097381D01*
X90695001Y-89097381D02*
X90695001Y-88097381D01*
X90599762Y-88240239D01*
X90504524Y-88335477D01*
X90409286Y-88383096D01*
X89456905Y-86811381D02*
X89456905Y-85811381D01*
X89695001Y-85811381D01*
X89837858Y-85859001D01*
X89933096Y-85954239D01*
X89980715Y-86049477D01*
X90028334Y-86239953D01*
X90028334Y-86382810D01*
X89980715Y-86573286D01*
X89933096Y-86668524D01*
X89837858Y-86763762D01*
X89695001Y-86811381D01*
X89456905Y-86811381D01*
X90980715Y-86811381D02*
X90409286Y-86811381D01*
X90695001Y-86811381D02*
X90695001Y-85811381D01*
X90599762Y-85954239D01*
X90504524Y-86049477D01*
X90409286Y-86097096D01*
X89790239Y-129213572D02*
X89933096Y-129261191D01*
X89980715Y-129308810D01*
X90028334Y-129404048D01*
X90028334Y-129546905D01*
X89980715Y-129642143D01*
X89933096Y-129689762D01*
X89837858Y-129737381D01*
X89456905Y-129737381D01*
X89456905Y-128737381D01*
X89790239Y-128737381D01*
X89885477Y-128785001D01*
X89933096Y-128832620D01*
X89980715Y-128927858D01*
X89980715Y-129023096D01*
X89933096Y-129118334D01*
X89885477Y-129165953D01*
X89790239Y-129213572D01*
X89456905Y-129213572D01*
X90980715Y-129737381D02*
X90409286Y-129737381D01*
X90695001Y-129737381D02*
X90695001Y-128737381D01*
X90599762Y-128880239D01*
X90504524Y-128975477D01*
X90409286Y-129023096D01*
X89480715Y-131991667D02*
X89956905Y-131991667D01*
X89385477Y-132277381D02*
X89718810Y-131277381D01*
X90052143Y-132277381D01*
X90909286Y-132277381D02*
X90337858Y-132277381D01*
X90623572Y-132277381D02*
X90623572Y-131277381D01*
X90528334Y-131420239D01*
X90433096Y-131515477D01*
X90337858Y-131563096D01*
G04 #@! TO.C,U2*
X99040674Y-113469912D02*
X99231150Y-113469912D01*
X99326388Y-113517532D01*
X99421627Y-113612770D01*
X99469246Y-113803246D01*
X99469246Y-114136579D01*
X99421627Y-114327055D01*
X99326388Y-114422293D01*
X99231150Y-114469912D01*
X99040674Y-114469912D01*
X98945436Y-114422293D01*
X98850198Y-114327055D01*
X98802579Y-114136579D01*
X98802579Y-113803246D01*
X98850198Y-113612770D01*
X98945436Y-113517532D01*
X99040674Y-113469912D01*
X99897817Y-114469912D02*
X99897817Y-113469912D01*
X100469246Y-114469912D02*
X100040674Y-113898484D01*
X100469246Y-113469912D02*
X99897817Y-114041341D01*
X100897817Y-114469912D02*
X100897817Y-113469912D01*
G04 #@! TO.C,C1*
X93987325Y-111863142D02*
X93939706Y-111910761D01*
X93796849Y-111958380D01*
X93701611Y-111958380D01*
X93558753Y-111910761D01*
X93463515Y-111815523D01*
X93415896Y-111720285D01*
X93368277Y-111529809D01*
X93368277Y-111386952D01*
X93415896Y-111196476D01*
X93463515Y-111101238D01*
X93558753Y-111006000D01*
X93701611Y-110958380D01*
X93796849Y-110958380D01*
X93939706Y-111006000D01*
X93987325Y-111053619D01*
X94939706Y-111958380D02*
X94368277Y-111958380D01*
X94653992Y-111958380D02*
X94653992Y-110958380D01*
X94558753Y-111101238D01*
X94463515Y-111196476D01*
X94368277Y-111244095D01*
G04 #@! TO.C,C2*
X103465333Y-111863142D02*
X103417714Y-111910761D01*
X103274857Y-111958380D01*
X103179619Y-111958380D01*
X103036761Y-111910761D01*
X102941523Y-111815523D01*
X102893904Y-111720285D01*
X102846285Y-111529809D01*
X102846285Y-111386952D01*
X102893904Y-111196476D01*
X102941523Y-111101238D01*
X103036761Y-111006000D01*
X103179619Y-110958380D01*
X103274857Y-110958380D01*
X103417714Y-111006000D01*
X103465333Y-111053619D01*
X103846285Y-111053619D02*
X103893904Y-111006000D01*
X103989142Y-110958380D01*
X104227238Y-110958380D01*
X104322476Y-111006000D01*
X104370095Y-111053619D01*
X104417714Y-111148857D01*
X104417714Y-111244095D01*
X104370095Y-111386952D01*
X103798666Y-111958380D01*
X104417714Y-111958380D01*
G04 #@! TO.C,C3*
X73239333Y-104497142D02*
X73191714Y-104544761D01*
X73048857Y-104592380D01*
X72953619Y-104592380D01*
X72810761Y-104544761D01*
X72715523Y-104449523D01*
X72667904Y-104354285D01*
X72620285Y-104163809D01*
X72620285Y-104020952D01*
X72667904Y-103830476D01*
X72715523Y-103735238D01*
X72810761Y-103640000D01*
X72953619Y-103592380D01*
X73048857Y-103592380D01*
X73191714Y-103640000D01*
X73239333Y-103687619D01*
X73572666Y-103592380D02*
X74191714Y-103592380D01*
X73858380Y-103973333D01*
X74001238Y-103973333D01*
X74096476Y-104020952D01*
X74144095Y-104068571D01*
X74191714Y-104163809D01*
X74191714Y-104401904D01*
X74144095Y-104497142D01*
X74096476Y-104544761D01*
X74001238Y-104592380D01*
X73715523Y-104592380D01*
X73620285Y-104544761D01*
X73572666Y-104497142D01*
G04 #@! TO.C,C4*
X68921333Y-109577142D02*
X68873714Y-109624761D01*
X68730857Y-109672380D01*
X68635619Y-109672380D01*
X68492761Y-109624761D01*
X68397523Y-109529523D01*
X68349904Y-109434285D01*
X68302285Y-109243809D01*
X68302285Y-109100952D01*
X68349904Y-108910476D01*
X68397523Y-108815238D01*
X68492761Y-108720000D01*
X68635619Y-108672380D01*
X68730857Y-108672380D01*
X68873714Y-108720000D01*
X68921333Y-108767619D01*
X69778476Y-109005714D02*
X69778476Y-109672380D01*
X69540380Y-108624761D02*
X69302285Y-109339047D01*
X69921333Y-109339047D01*
G04 #@! TO.C,C5*
X68921333Y-105767142D02*
X68873714Y-105814761D01*
X68730857Y-105862380D01*
X68635619Y-105862380D01*
X68492761Y-105814761D01*
X68397523Y-105719523D01*
X68349904Y-105624285D01*
X68302285Y-105433809D01*
X68302285Y-105290952D01*
X68349904Y-105100476D01*
X68397523Y-105005238D01*
X68492761Y-104910000D01*
X68635619Y-104862380D01*
X68730857Y-104862380D01*
X68873714Y-104910000D01*
X68921333Y-104957619D01*
X69826095Y-104862380D02*
X69349904Y-104862380D01*
X69302285Y-105338571D01*
X69349904Y-105290952D01*
X69445142Y-105243333D01*
X69683238Y-105243333D01*
X69778476Y-105290952D01*
X69826095Y-105338571D01*
X69873714Y-105433809D01*
X69873714Y-105671904D01*
X69826095Y-105767142D01*
X69778476Y-105814761D01*
X69683238Y-105862380D01*
X69445142Y-105862380D01*
X69349904Y-105814761D01*
X69302285Y-105767142D01*
G04 #@! TO.C,C6*
X73493333Y-108307142D02*
X73445714Y-108354761D01*
X73302857Y-108402380D01*
X73207619Y-108402380D01*
X73064761Y-108354761D01*
X72969523Y-108259523D01*
X72921904Y-108164285D01*
X72874285Y-107973809D01*
X72874285Y-107830952D01*
X72921904Y-107640476D01*
X72969523Y-107545238D01*
X73064761Y-107450000D01*
X73207619Y-107402380D01*
X73302857Y-107402380D01*
X73445714Y-107450000D01*
X73493333Y-107497619D01*
X74350476Y-107402380D02*
X74160000Y-107402380D01*
X74064761Y-107450000D01*
X74017142Y-107497619D01*
X73921904Y-107640476D01*
X73874285Y-107830952D01*
X73874285Y-108211904D01*
X73921904Y-108307142D01*
X73969523Y-108354761D01*
X74064761Y-108402380D01*
X74255238Y-108402380D01*
X74350476Y-108354761D01*
X74398095Y-108307142D01*
X74445714Y-108211904D01*
X74445714Y-107973809D01*
X74398095Y-107878571D01*
X74350476Y-107830952D01*
X74255238Y-107783333D01*
X74064761Y-107783333D01*
X73969523Y-107830952D01*
X73921904Y-107878571D01*
X73874285Y-107973809D01*
G04 #@! TO.C,Conn2*
X66524476Y-81732380D02*
X66524476Y-80732380D01*
X66857809Y-81446666D01*
X67191142Y-80732380D01*
X67191142Y-81732380D01*
X67810190Y-81732380D02*
X67714952Y-81684761D01*
X67667333Y-81637142D01*
X67619714Y-81541904D01*
X67619714Y-81256190D01*
X67667333Y-81160952D01*
X67714952Y-81113333D01*
X67810190Y-81065714D01*
X67953047Y-81065714D01*
X68048285Y-81113333D01*
X68095904Y-81160952D01*
X68143523Y-81256190D01*
X68143523Y-81541904D01*
X68095904Y-81637142D01*
X68048285Y-81684761D01*
X67953047Y-81732380D01*
X67810190Y-81732380D01*
X68429238Y-81065714D02*
X68810190Y-81065714D01*
X68572095Y-80732380D02*
X68572095Y-81589523D01*
X68619714Y-81684761D01*
X68714952Y-81732380D01*
X68810190Y-81732380D01*
X69286380Y-81732380D02*
X69191142Y-81684761D01*
X69143523Y-81637142D01*
X69095904Y-81541904D01*
X69095904Y-81256190D01*
X69143523Y-81160952D01*
X69191142Y-81113333D01*
X69286380Y-81065714D01*
X69429238Y-81065714D01*
X69524476Y-81113333D01*
X69572095Y-81160952D01*
X69619714Y-81256190D01*
X69619714Y-81541904D01*
X69572095Y-81637142D01*
X69524476Y-81684761D01*
X69429238Y-81732380D01*
X69286380Y-81732380D01*
X70048285Y-81732380D02*
X70048285Y-81065714D01*
X70048285Y-81256190D02*
X70095904Y-81160952D01*
X70143523Y-81113333D01*
X70238761Y-81065714D01*
X70334000Y-81065714D01*
X71191142Y-81732380D02*
X70619714Y-81732380D01*
X70905428Y-81732380D02*
X70905428Y-80732380D01*
X70810190Y-80875238D01*
X70714952Y-80970476D01*
X70619714Y-81018095D01*
G04 #@! TO.C,Conn3*
X109704476Y-81732380D02*
X109704476Y-80732380D01*
X110037809Y-81446666D01*
X110371142Y-80732380D01*
X110371142Y-81732380D01*
X110990190Y-81732380D02*
X110894952Y-81684761D01*
X110847333Y-81637142D01*
X110799714Y-81541904D01*
X110799714Y-81256190D01*
X110847333Y-81160952D01*
X110894952Y-81113333D01*
X110990190Y-81065714D01*
X111133047Y-81065714D01*
X111228285Y-81113333D01*
X111275904Y-81160952D01*
X111323523Y-81256190D01*
X111323523Y-81541904D01*
X111275904Y-81637142D01*
X111228285Y-81684761D01*
X111133047Y-81732380D01*
X110990190Y-81732380D01*
X111609238Y-81065714D02*
X111990190Y-81065714D01*
X111752095Y-80732380D02*
X111752095Y-81589523D01*
X111799714Y-81684761D01*
X111894952Y-81732380D01*
X111990190Y-81732380D01*
X112466380Y-81732380D02*
X112371142Y-81684761D01*
X112323523Y-81637142D01*
X112275904Y-81541904D01*
X112275904Y-81256190D01*
X112323523Y-81160952D01*
X112371142Y-81113333D01*
X112466380Y-81065714D01*
X112609238Y-81065714D01*
X112704476Y-81113333D01*
X112752095Y-81160952D01*
X112799714Y-81256190D01*
X112799714Y-81541904D01*
X112752095Y-81637142D01*
X112704476Y-81684761D01*
X112609238Y-81732380D01*
X112466380Y-81732380D01*
X113228285Y-81732380D02*
X113228285Y-81065714D01*
X113228285Y-81256190D02*
X113275904Y-81160952D01*
X113323523Y-81113333D01*
X113418761Y-81065714D01*
X113514000Y-81065714D01*
X113799714Y-80827619D02*
X113847333Y-80780000D01*
X113942571Y-80732380D01*
X114180666Y-80732380D01*
X114275904Y-80780000D01*
X114323523Y-80827619D01*
X114371142Y-80922857D01*
X114371142Y-81018095D01*
X114323523Y-81160952D01*
X113752095Y-81732380D01*
X114371142Y-81732380D01*
G04 #@! TO.C,U3*
X83218095Y-100767380D02*
X83218095Y-101576904D01*
X83265714Y-101672142D01*
X83313333Y-101719761D01*
X83408571Y-101767380D01*
X83599047Y-101767380D01*
X83694285Y-101719761D01*
X83741904Y-101672142D01*
X83789523Y-101576904D01*
X83789523Y-100767380D01*
X84170476Y-100767380D02*
X84789523Y-100767380D01*
X84456190Y-101148333D01*
X84599047Y-101148333D01*
X84694285Y-101195952D01*
X84741904Y-101243571D01*
X84789523Y-101338809D01*
X84789523Y-101576904D01*
X84741904Y-101672142D01*
X84694285Y-101719761D01*
X84599047Y-101767380D01*
X84313333Y-101767380D01*
X84218095Y-101719761D01*
X84170476Y-101672142D01*
G04 #@! TD*
M02*
