G04 #@! TF.GenerationSoftware,KiCad,Pcbnew,(5.0.0)*
G04 #@! TF.CreationDate,2018-09-29T17:08:45-05:00*
G04 #@! TF.ProjectId,DriveBoard_Hardware,4472697665426F6172645F4861726477,rev?*
G04 #@! TF.SameCoordinates,Original*
G04 #@! TF.FileFunction,Paste,Top*
G04 #@! TF.FilePolarity,Positive*
%FSLAX46Y46*%
G04 Gerber Fmt 4.6, Leading zero omitted, Abs format (unit mm)*
G04 Created by KiCad (PCBNEW (5.0.0)) date 09/29/18 17:08:45*
%MOMM*%
%LPD*%
G01*
G04 APERTURE LIST*
%ADD10C,1.520000*%
%ADD11R,1.500000X0.600000*%
%ADD12C,5.080000*%
%ADD13C,0.100000*%
%ADD14C,0.950000*%
G04 APERTURE END LIST*
D10*
G04 #@! TO.C,U1*
X118389001Y-111505001D03*
X141249001Y-65785001D03*
X138709001Y-65785001D03*
X131089001Y-65785001D03*
X128549001Y-108965001D03*
X133629001Y-65785001D03*
X136169001Y-65785001D03*
X133629001Y-111505001D03*
X138709001Y-108965001D03*
X128549001Y-65785001D03*
X126009001Y-65785001D03*
X138709001Y-111505001D03*
X133629001Y-108965001D03*
X131089001Y-108965001D03*
X118389001Y-108965001D03*
X120929001Y-108965001D03*
X123469001Y-108965001D03*
X126009001Y-108965001D03*
X136169001Y-108965001D03*
X141249001Y-108965001D03*
X120929001Y-111505001D03*
X123469001Y-111505001D03*
X126009001Y-111505001D03*
X128549001Y-111505001D03*
X131089001Y-111505001D03*
X136169001Y-111505001D03*
X141249001Y-111505001D03*
X118389001Y-68325001D03*
X120929001Y-68325001D03*
X123469001Y-68325001D03*
X126009001Y-68325001D03*
X128549001Y-68325001D03*
X131089001Y-68325001D03*
X133629001Y-68325001D03*
X136169001Y-68325001D03*
X138709001Y-68325001D03*
X141249001Y-68325001D03*
X118389001Y-65785001D03*
X120929001Y-65785001D03*
X123469001Y-65785001D03*
G04 #@! TD*
D11*
G04 #@! TO.C,U2*
X158590000Y-74295000D03*
X158590000Y-75565000D03*
X158590000Y-76835000D03*
X158590000Y-78105000D03*
X158590000Y-79375000D03*
X158590000Y-80645000D03*
X158590000Y-81915000D03*
X158590000Y-83185000D03*
X163990000Y-83185000D03*
X163990000Y-81915000D03*
X163990000Y-80645000D03*
X163990000Y-79375000D03*
X163990000Y-78105000D03*
X163990000Y-76835000D03*
X163990000Y-75565000D03*
X163990000Y-74295000D03*
G04 #@! TD*
D12*
G04 #@! TO.C,Conn1*
X136677400Y-58675000D03*
X136677400Y-50674000D03*
G04 #@! TD*
D13*
G04 #@! TO.C,C1*
G36*
X149295779Y-75726144D02*
X149318834Y-75729563D01*
X149341443Y-75735227D01*
X149363387Y-75743079D01*
X149384457Y-75753044D01*
X149404448Y-75765026D01*
X149423168Y-75778910D01*
X149440438Y-75794562D01*
X149456090Y-75811832D01*
X149469974Y-75830552D01*
X149481956Y-75850543D01*
X149491921Y-75871613D01*
X149499773Y-75893557D01*
X149505437Y-75916166D01*
X149508856Y-75939221D01*
X149510000Y-75962500D01*
X149510000Y-76437500D01*
X149508856Y-76460779D01*
X149505437Y-76483834D01*
X149499773Y-76506443D01*
X149491921Y-76528387D01*
X149481956Y-76549457D01*
X149469974Y-76569448D01*
X149456090Y-76588168D01*
X149440438Y-76605438D01*
X149423168Y-76621090D01*
X149404448Y-76634974D01*
X149384457Y-76646956D01*
X149363387Y-76656921D01*
X149341443Y-76664773D01*
X149318834Y-76670437D01*
X149295779Y-76673856D01*
X149272500Y-76675000D01*
X148697500Y-76675000D01*
X148674221Y-76673856D01*
X148651166Y-76670437D01*
X148628557Y-76664773D01*
X148606613Y-76656921D01*
X148585543Y-76646956D01*
X148565552Y-76634974D01*
X148546832Y-76621090D01*
X148529562Y-76605438D01*
X148513910Y-76588168D01*
X148500026Y-76569448D01*
X148488044Y-76549457D01*
X148478079Y-76528387D01*
X148470227Y-76506443D01*
X148464563Y-76483834D01*
X148461144Y-76460779D01*
X148460000Y-76437500D01*
X148460000Y-75962500D01*
X148461144Y-75939221D01*
X148464563Y-75916166D01*
X148470227Y-75893557D01*
X148478079Y-75871613D01*
X148488044Y-75850543D01*
X148500026Y-75830552D01*
X148513910Y-75811832D01*
X148529562Y-75794562D01*
X148546832Y-75778910D01*
X148565552Y-75765026D01*
X148585543Y-75753044D01*
X148606613Y-75743079D01*
X148628557Y-75735227D01*
X148651166Y-75729563D01*
X148674221Y-75726144D01*
X148697500Y-75725000D01*
X149272500Y-75725000D01*
X149295779Y-75726144D01*
X149295779Y-75726144D01*
G37*
D14*
X148985000Y-76200000D03*
D13*
G36*
X151045779Y-75726144D02*
X151068834Y-75729563D01*
X151091443Y-75735227D01*
X151113387Y-75743079D01*
X151134457Y-75753044D01*
X151154448Y-75765026D01*
X151173168Y-75778910D01*
X151190438Y-75794562D01*
X151206090Y-75811832D01*
X151219974Y-75830552D01*
X151231956Y-75850543D01*
X151241921Y-75871613D01*
X151249773Y-75893557D01*
X151255437Y-75916166D01*
X151258856Y-75939221D01*
X151260000Y-75962500D01*
X151260000Y-76437500D01*
X151258856Y-76460779D01*
X151255437Y-76483834D01*
X151249773Y-76506443D01*
X151241921Y-76528387D01*
X151231956Y-76549457D01*
X151219974Y-76569448D01*
X151206090Y-76588168D01*
X151190438Y-76605438D01*
X151173168Y-76621090D01*
X151154448Y-76634974D01*
X151134457Y-76646956D01*
X151113387Y-76656921D01*
X151091443Y-76664773D01*
X151068834Y-76670437D01*
X151045779Y-76673856D01*
X151022500Y-76675000D01*
X150447500Y-76675000D01*
X150424221Y-76673856D01*
X150401166Y-76670437D01*
X150378557Y-76664773D01*
X150356613Y-76656921D01*
X150335543Y-76646956D01*
X150315552Y-76634974D01*
X150296832Y-76621090D01*
X150279562Y-76605438D01*
X150263910Y-76588168D01*
X150250026Y-76569448D01*
X150238044Y-76549457D01*
X150228079Y-76528387D01*
X150220227Y-76506443D01*
X150214563Y-76483834D01*
X150211144Y-76460779D01*
X150210000Y-76437500D01*
X150210000Y-75962500D01*
X150211144Y-75939221D01*
X150214563Y-75916166D01*
X150220227Y-75893557D01*
X150228079Y-75871613D01*
X150238044Y-75850543D01*
X150250026Y-75830552D01*
X150263910Y-75811832D01*
X150279562Y-75794562D01*
X150296832Y-75778910D01*
X150315552Y-75765026D01*
X150335543Y-75753044D01*
X150356613Y-75743079D01*
X150378557Y-75735227D01*
X150401166Y-75729563D01*
X150424221Y-75726144D01*
X150447500Y-75725000D01*
X151022500Y-75725000D01*
X151045779Y-75726144D01*
X151045779Y-75726144D01*
G37*
D14*
X150735000Y-76200000D03*
G04 #@! TD*
D13*
G04 #@! TO.C,C2*
G36*
X151045779Y-80806144D02*
X151068834Y-80809563D01*
X151091443Y-80815227D01*
X151113387Y-80823079D01*
X151134457Y-80833044D01*
X151154448Y-80845026D01*
X151173168Y-80858910D01*
X151190438Y-80874562D01*
X151206090Y-80891832D01*
X151219974Y-80910552D01*
X151231956Y-80930543D01*
X151241921Y-80951613D01*
X151249773Y-80973557D01*
X151255437Y-80996166D01*
X151258856Y-81019221D01*
X151260000Y-81042500D01*
X151260000Y-81517500D01*
X151258856Y-81540779D01*
X151255437Y-81563834D01*
X151249773Y-81586443D01*
X151241921Y-81608387D01*
X151231956Y-81629457D01*
X151219974Y-81649448D01*
X151206090Y-81668168D01*
X151190438Y-81685438D01*
X151173168Y-81701090D01*
X151154448Y-81714974D01*
X151134457Y-81726956D01*
X151113387Y-81736921D01*
X151091443Y-81744773D01*
X151068834Y-81750437D01*
X151045779Y-81753856D01*
X151022500Y-81755000D01*
X150447500Y-81755000D01*
X150424221Y-81753856D01*
X150401166Y-81750437D01*
X150378557Y-81744773D01*
X150356613Y-81736921D01*
X150335543Y-81726956D01*
X150315552Y-81714974D01*
X150296832Y-81701090D01*
X150279562Y-81685438D01*
X150263910Y-81668168D01*
X150250026Y-81649448D01*
X150238044Y-81629457D01*
X150228079Y-81608387D01*
X150220227Y-81586443D01*
X150214563Y-81563834D01*
X150211144Y-81540779D01*
X150210000Y-81517500D01*
X150210000Y-81042500D01*
X150211144Y-81019221D01*
X150214563Y-80996166D01*
X150220227Y-80973557D01*
X150228079Y-80951613D01*
X150238044Y-80930543D01*
X150250026Y-80910552D01*
X150263910Y-80891832D01*
X150279562Y-80874562D01*
X150296832Y-80858910D01*
X150315552Y-80845026D01*
X150335543Y-80833044D01*
X150356613Y-80823079D01*
X150378557Y-80815227D01*
X150401166Y-80809563D01*
X150424221Y-80806144D01*
X150447500Y-80805000D01*
X151022500Y-80805000D01*
X151045779Y-80806144D01*
X151045779Y-80806144D01*
G37*
D14*
X150735000Y-81280000D03*
D13*
G36*
X149295779Y-80806144D02*
X149318834Y-80809563D01*
X149341443Y-80815227D01*
X149363387Y-80823079D01*
X149384457Y-80833044D01*
X149404448Y-80845026D01*
X149423168Y-80858910D01*
X149440438Y-80874562D01*
X149456090Y-80891832D01*
X149469974Y-80910552D01*
X149481956Y-80930543D01*
X149491921Y-80951613D01*
X149499773Y-80973557D01*
X149505437Y-80996166D01*
X149508856Y-81019221D01*
X149510000Y-81042500D01*
X149510000Y-81517500D01*
X149508856Y-81540779D01*
X149505437Y-81563834D01*
X149499773Y-81586443D01*
X149491921Y-81608387D01*
X149481956Y-81629457D01*
X149469974Y-81649448D01*
X149456090Y-81668168D01*
X149440438Y-81685438D01*
X149423168Y-81701090D01*
X149404448Y-81714974D01*
X149384457Y-81726956D01*
X149363387Y-81736921D01*
X149341443Y-81744773D01*
X149318834Y-81750437D01*
X149295779Y-81753856D01*
X149272500Y-81755000D01*
X148697500Y-81755000D01*
X148674221Y-81753856D01*
X148651166Y-81750437D01*
X148628557Y-81744773D01*
X148606613Y-81736921D01*
X148585543Y-81726956D01*
X148565552Y-81714974D01*
X148546832Y-81701090D01*
X148529562Y-81685438D01*
X148513910Y-81668168D01*
X148500026Y-81649448D01*
X148488044Y-81629457D01*
X148478079Y-81608387D01*
X148470227Y-81586443D01*
X148464563Y-81563834D01*
X148461144Y-81540779D01*
X148460000Y-81517500D01*
X148460000Y-81042500D01*
X148461144Y-81019221D01*
X148464563Y-80996166D01*
X148470227Y-80973557D01*
X148478079Y-80951613D01*
X148488044Y-80930543D01*
X148500026Y-80910552D01*
X148513910Y-80891832D01*
X148529562Y-80874562D01*
X148546832Y-80858910D01*
X148565552Y-80845026D01*
X148585543Y-80833044D01*
X148606613Y-80823079D01*
X148628557Y-80815227D01*
X148651166Y-80809563D01*
X148674221Y-80806144D01*
X148697500Y-80805000D01*
X149272500Y-80805000D01*
X149295779Y-80806144D01*
X149295779Y-80806144D01*
G37*
D14*
X148985000Y-81280000D03*
G04 #@! TD*
D13*
G04 #@! TO.C,C3*
G36*
X173905779Y-75726144D02*
X173928834Y-75729563D01*
X173951443Y-75735227D01*
X173973387Y-75743079D01*
X173994457Y-75753044D01*
X174014448Y-75765026D01*
X174033168Y-75778910D01*
X174050438Y-75794562D01*
X174066090Y-75811832D01*
X174079974Y-75830552D01*
X174091956Y-75850543D01*
X174101921Y-75871613D01*
X174109773Y-75893557D01*
X174115437Y-75916166D01*
X174118856Y-75939221D01*
X174120000Y-75962500D01*
X174120000Y-76437500D01*
X174118856Y-76460779D01*
X174115437Y-76483834D01*
X174109773Y-76506443D01*
X174101921Y-76528387D01*
X174091956Y-76549457D01*
X174079974Y-76569448D01*
X174066090Y-76588168D01*
X174050438Y-76605438D01*
X174033168Y-76621090D01*
X174014448Y-76634974D01*
X173994457Y-76646956D01*
X173973387Y-76656921D01*
X173951443Y-76664773D01*
X173928834Y-76670437D01*
X173905779Y-76673856D01*
X173882500Y-76675000D01*
X173307500Y-76675000D01*
X173284221Y-76673856D01*
X173261166Y-76670437D01*
X173238557Y-76664773D01*
X173216613Y-76656921D01*
X173195543Y-76646956D01*
X173175552Y-76634974D01*
X173156832Y-76621090D01*
X173139562Y-76605438D01*
X173123910Y-76588168D01*
X173110026Y-76569448D01*
X173098044Y-76549457D01*
X173088079Y-76528387D01*
X173080227Y-76506443D01*
X173074563Y-76483834D01*
X173071144Y-76460779D01*
X173070000Y-76437500D01*
X173070000Y-75962500D01*
X173071144Y-75939221D01*
X173074563Y-75916166D01*
X173080227Y-75893557D01*
X173088079Y-75871613D01*
X173098044Y-75850543D01*
X173110026Y-75830552D01*
X173123910Y-75811832D01*
X173139562Y-75794562D01*
X173156832Y-75778910D01*
X173175552Y-75765026D01*
X173195543Y-75753044D01*
X173216613Y-75743079D01*
X173238557Y-75735227D01*
X173261166Y-75729563D01*
X173284221Y-75726144D01*
X173307500Y-75725000D01*
X173882500Y-75725000D01*
X173905779Y-75726144D01*
X173905779Y-75726144D01*
G37*
D14*
X173595000Y-76200000D03*
D13*
G36*
X172155779Y-75726144D02*
X172178834Y-75729563D01*
X172201443Y-75735227D01*
X172223387Y-75743079D01*
X172244457Y-75753044D01*
X172264448Y-75765026D01*
X172283168Y-75778910D01*
X172300438Y-75794562D01*
X172316090Y-75811832D01*
X172329974Y-75830552D01*
X172341956Y-75850543D01*
X172351921Y-75871613D01*
X172359773Y-75893557D01*
X172365437Y-75916166D01*
X172368856Y-75939221D01*
X172370000Y-75962500D01*
X172370000Y-76437500D01*
X172368856Y-76460779D01*
X172365437Y-76483834D01*
X172359773Y-76506443D01*
X172351921Y-76528387D01*
X172341956Y-76549457D01*
X172329974Y-76569448D01*
X172316090Y-76588168D01*
X172300438Y-76605438D01*
X172283168Y-76621090D01*
X172264448Y-76634974D01*
X172244457Y-76646956D01*
X172223387Y-76656921D01*
X172201443Y-76664773D01*
X172178834Y-76670437D01*
X172155779Y-76673856D01*
X172132500Y-76675000D01*
X171557500Y-76675000D01*
X171534221Y-76673856D01*
X171511166Y-76670437D01*
X171488557Y-76664773D01*
X171466613Y-76656921D01*
X171445543Y-76646956D01*
X171425552Y-76634974D01*
X171406832Y-76621090D01*
X171389562Y-76605438D01*
X171373910Y-76588168D01*
X171360026Y-76569448D01*
X171348044Y-76549457D01*
X171338079Y-76528387D01*
X171330227Y-76506443D01*
X171324563Y-76483834D01*
X171321144Y-76460779D01*
X171320000Y-76437500D01*
X171320000Y-75962500D01*
X171321144Y-75939221D01*
X171324563Y-75916166D01*
X171330227Y-75893557D01*
X171338079Y-75871613D01*
X171348044Y-75850543D01*
X171360026Y-75830552D01*
X171373910Y-75811832D01*
X171389562Y-75794562D01*
X171406832Y-75778910D01*
X171425552Y-75765026D01*
X171445543Y-75753044D01*
X171466613Y-75743079D01*
X171488557Y-75735227D01*
X171511166Y-75729563D01*
X171534221Y-75726144D01*
X171557500Y-75725000D01*
X172132500Y-75725000D01*
X172155779Y-75726144D01*
X172155779Y-75726144D01*
G37*
D14*
X171845000Y-76200000D03*
G04 #@! TD*
D13*
G04 #@! TO.C,C4*
G36*
X153105779Y-73186144D02*
X153128834Y-73189563D01*
X153151443Y-73195227D01*
X153173387Y-73203079D01*
X153194457Y-73213044D01*
X153214448Y-73225026D01*
X153233168Y-73238910D01*
X153250438Y-73254562D01*
X153266090Y-73271832D01*
X153279974Y-73290552D01*
X153291956Y-73310543D01*
X153301921Y-73331613D01*
X153309773Y-73353557D01*
X153315437Y-73376166D01*
X153318856Y-73399221D01*
X153320000Y-73422500D01*
X153320000Y-73897500D01*
X153318856Y-73920779D01*
X153315437Y-73943834D01*
X153309773Y-73966443D01*
X153301921Y-73988387D01*
X153291956Y-74009457D01*
X153279974Y-74029448D01*
X153266090Y-74048168D01*
X153250438Y-74065438D01*
X153233168Y-74081090D01*
X153214448Y-74094974D01*
X153194457Y-74106956D01*
X153173387Y-74116921D01*
X153151443Y-74124773D01*
X153128834Y-74130437D01*
X153105779Y-74133856D01*
X153082500Y-74135000D01*
X152507500Y-74135000D01*
X152484221Y-74133856D01*
X152461166Y-74130437D01*
X152438557Y-74124773D01*
X152416613Y-74116921D01*
X152395543Y-74106956D01*
X152375552Y-74094974D01*
X152356832Y-74081090D01*
X152339562Y-74065438D01*
X152323910Y-74048168D01*
X152310026Y-74029448D01*
X152298044Y-74009457D01*
X152288079Y-73988387D01*
X152280227Y-73966443D01*
X152274563Y-73943834D01*
X152271144Y-73920779D01*
X152270000Y-73897500D01*
X152270000Y-73422500D01*
X152271144Y-73399221D01*
X152274563Y-73376166D01*
X152280227Y-73353557D01*
X152288079Y-73331613D01*
X152298044Y-73310543D01*
X152310026Y-73290552D01*
X152323910Y-73271832D01*
X152339562Y-73254562D01*
X152356832Y-73238910D01*
X152375552Y-73225026D01*
X152395543Y-73213044D01*
X152416613Y-73203079D01*
X152438557Y-73195227D01*
X152461166Y-73189563D01*
X152484221Y-73186144D01*
X152507500Y-73185000D01*
X153082500Y-73185000D01*
X153105779Y-73186144D01*
X153105779Y-73186144D01*
G37*
D14*
X152795000Y-73660000D03*
D13*
G36*
X154855779Y-73186144D02*
X154878834Y-73189563D01*
X154901443Y-73195227D01*
X154923387Y-73203079D01*
X154944457Y-73213044D01*
X154964448Y-73225026D01*
X154983168Y-73238910D01*
X155000438Y-73254562D01*
X155016090Y-73271832D01*
X155029974Y-73290552D01*
X155041956Y-73310543D01*
X155051921Y-73331613D01*
X155059773Y-73353557D01*
X155065437Y-73376166D01*
X155068856Y-73399221D01*
X155070000Y-73422500D01*
X155070000Y-73897500D01*
X155068856Y-73920779D01*
X155065437Y-73943834D01*
X155059773Y-73966443D01*
X155051921Y-73988387D01*
X155041956Y-74009457D01*
X155029974Y-74029448D01*
X155016090Y-74048168D01*
X155000438Y-74065438D01*
X154983168Y-74081090D01*
X154964448Y-74094974D01*
X154944457Y-74106956D01*
X154923387Y-74116921D01*
X154901443Y-74124773D01*
X154878834Y-74130437D01*
X154855779Y-74133856D01*
X154832500Y-74135000D01*
X154257500Y-74135000D01*
X154234221Y-74133856D01*
X154211166Y-74130437D01*
X154188557Y-74124773D01*
X154166613Y-74116921D01*
X154145543Y-74106956D01*
X154125552Y-74094974D01*
X154106832Y-74081090D01*
X154089562Y-74065438D01*
X154073910Y-74048168D01*
X154060026Y-74029448D01*
X154048044Y-74009457D01*
X154038079Y-73988387D01*
X154030227Y-73966443D01*
X154024563Y-73943834D01*
X154021144Y-73920779D01*
X154020000Y-73897500D01*
X154020000Y-73422500D01*
X154021144Y-73399221D01*
X154024563Y-73376166D01*
X154030227Y-73353557D01*
X154038079Y-73331613D01*
X154048044Y-73310543D01*
X154060026Y-73290552D01*
X154073910Y-73271832D01*
X154089562Y-73254562D01*
X154106832Y-73238910D01*
X154125552Y-73225026D01*
X154145543Y-73213044D01*
X154166613Y-73203079D01*
X154188557Y-73195227D01*
X154211166Y-73189563D01*
X154234221Y-73186144D01*
X154257500Y-73185000D01*
X154832500Y-73185000D01*
X154855779Y-73186144D01*
X154855779Y-73186144D01*
G37*
D14*
X154545000Y-73660000D03*
G04 #@! TD*
D13*
G04 #@! TO.C,C5*
G36*
X154855779Y-78266144D02*
X154878834Y-78269563D01*
X154901443Y-78275227D01*
X154923387Y-78283079D01*
X154944457Y-78293044D01*
X154964448Y-78305026D01*
X154983168Y-78318910D01*
X155000438Y-78334562D01*
X155016090Y-78351832D01*
X155029974Y-78370552D01*
X155041956Y-78390543D01*
X155051921Y-78411613D01*
X155059773Y-78433557D01*
X155065437Y-78456166D01*
X155068856Y-78479221D01*
X155070000Y-78502500D01*
X155070000Y-78977500D01*
X155068856Y-79000779D01*
X155065437Y-79023834D01*
X155059773Y-79046443D01*
X155051921Y-79068387D01*
X155041956Y-79089457D01*
X155029974Y-79109448D01*
X155016090Y-79128168D01*
X155000438Y-79145438D01*
X154983168Y-79161090D01*
X154964448Y-79174974D01*
X154944457Y-79186956D01*
X154923387Y-79196921D01*
X154901443Y-79204773D01*
X154878834Y-79210437D01*
X154855779Y-79213856D01*
X154832500Y-79215000D01*
X154257500Y-79215000D01*
X154234221Y-79213856D01*
X154211166Y-79210437D01*
X154188557Y-79204773D01*
X154166613Y-79196921D01*
X154145543Y-79186956D01*
X154125552Y-79174974D01*
X154106832Y-79161090D01*
X154089562Y-79145438D01*
X154073910Y-79128168D01*
X154060026Y-79109448D01*
X154048044Y-79089457D01*
X154038079Y-79068387D01*
X154030227Y-79046443D01*
X154024563Y-79023834D01*
X154021144Y-79000779D01*
X154020000Y-78977500D01*
X154020000Y-78502500D01*
X154021144Y-78479221D01*
X154024563Y-78456166D01*
X154030227Y-78433557D01*
X154038079Y-78411613D01*
X154048044Y-78390543D01*
X154060026Y-78370552D01*
X154073910Y-78351832D01*
X154089562Y-78334562D01*
X154106832Y-78318910D01*
X154125552Y-78305026D01*
X154145543Y-78293044D01*
X154166613Y-78283079D01*
X154188557Y-78275227D01*
X154211166Y-78269563D01*
X154234221Y-78266144D01*
X154257500Y-78265000D01*
X154832500Y-78265000D01*
X154855779Y-78266144D01*
X154855779Y-78266144D01*
G37*
D14*
X154545000Y-78740000D03*
D13*
G36*
X153105779Y-78266144D02*
X153128834Y-78269563D01*
X153151443Y-78275227D01*
X153173387Y-78283079D01*
X153194457Y-78293044D01*
X153214448Y-78305026D01*
X153233168Y-78318910D01*
X153250438Y-78334562D01*
X153266090Y-78351832D01*
X153279974Y-78370552D01*
X153291956Y-78390543D01*
X153301921Y-78411613D01*
X153309773Y-78433557D01*
X153315437Y-78456166D01*
X153318856Y-78479221D01*
X153320000Y-78502500D01*
X153320000Y-78977500D01*
X153318856Y-79000779D01*
X153315437Y-79023834D01*
X153309773Y-79046443D01*
X153301921Y-79068387D01*
X153291956Y-79089457D01*
X153279974Y-79109448D01*
X153266090Y-79128168D01*
X153250438Y-79145438D01*
X153233168Y-79161090D01*
X153214448Y-79174974D01*
X153194457Y-79186956D01*
X153173387Y-79196921D01*
X153151443Y-79204773D01*
X153128834Y-79210437D01*
X153105779Y-79213856D01*
X153082500Y-79215000D01*
X152507500Y-79215000D01*
X152484221Y-79213856D01*
X152461166Y-79210437D01*
X152438557Y-79204773D01*
X152416613Y-79196921D01*
X152395543Y-79186956D01*
X152375552Y-79174974D01*
X152356832Y-79161090D01*
X152339562Y-79145438D01*
X152323910Y-79128168D01*
X152310026Y-79109448D01*
X152298044Y-79089457D01*
X152288079Y-79068387D01*
X152280227Y-79046443D01*
X152274563Y-79023834D01*
X152271144Y-79000779D01*
X152270000Y-78977500D01*
X152270000Y-78502500D01*
X152271144Y-78479221D01*
X152274563Y-78456166D01*
X152280227Y-78433557D01*
X152288079Y-78411613D01*
X152298044Y-78390543D01*
X152310026Y-78370552D01*
X152323910Y-78351832D01*
X152339562Y-78334562D01*
X152356832Y-78318910D01*
X152375552Y-78305026D01*
X152395543Y-78293044D01*
X152416613Y-78283079D01*
X152438557Y-78275227D01*
X152461166Y-78269563D01*
X152484221Y-78266144D01*
X152507500Y-78265000D01*
X153082500Y-78265000D01*
X153105779Y-78266144D01*
X153105779Y-78266144D01*
G37*
D14*
X152795000Y-78740000D03*
G04 #@! TD*
D13*
G04 #@! TO.C,C6*
G36*
X170095779Y-73186144D02*
X170118834Y-73189563D01*
X170141443Y-73195227D01*
X170163387Y-73203079D01*
X170184457Y-73213044D01*
X170204448Y-73225026D01*
X170223168Y-73238910D01*
X170240438Y-73254562D01*
X170256090Y-73271832D01*
X170269974Y-73290552D01*
X170281956Y-73310543D01*
X170291921Y-73331613D01*
X170299773Y-73353557D01*
X170305437Y-73376166D01*
X170308856Y-73399221D01*
X170310000Y-73422500D01*
X170310000Y-73897500D01*
X170308856Y-73920779D01*
X170305437Y-73943834D01*
X170299773Y-73966443D01*
X170291921Y-73988387D01*
X170281956Y-74009457D01*
X170269974Y-74029448D01*
X170256090Y-74048168D01*
X170240438Y-74065438D01*
X170223168Y-74081090D01*
X170204448Y-74094974D01*
X170184457Y-74106956D01*
X170163387Y-74116921D01*
X170141443Y-74124773D01*
X170118834Y-74130437D01*
X170095779Y-74133856D01*
X170072500Y-74135000D01*
X169497500Y-74135000D01*
X169474221Y-74133856D01*
X169451166Y-74130437D01*
X169428557Y-74124773D01*
X169406613Y-74116921D01*
X169385543Y-74106956D01*
X169365552Y-74094974D01*
X169346832Y-74081090D01*
X169329562Y-74065438D01*
X169313910Y-74048168D01*
X169300026Y-74029448D01*
X169288044Y-74009457D01*
X169278079Y-73988387D01*
X169270227Y-73966443D01*
X169264563Y-73943834D01*
X169261144Y-73920779D01*
X169260000Y-73897500D01*
X169260000Y-73422500D01*
X169261144Y-73399221D01*
X169264563Y-73376166D01*
X169270227Y-73353557D01*
X169278079Y-73331613D01*
X169288044Y-73310543D01*
X169300026Y-73290552D01*
X169313910Y-73271832D01*
X169329562Y-73254562D01*
X169346832Y-73238910D01*
X169365552Y-73225026D01*
X169385543Y-73213044D01*
X169406613Y-73203079D01*
X169428557Y-73195227D01*
X169451166Y-73189563D01*
X169474221Y-73186144D01*
X169497500Y-73185000D01*
X170072500Y-73185000D01*
X170095779Y-73186144D01*
X170095779Y-73186144D01*
G37*
D14*
X169785000Y-73660000D03*
D13*
G36*
X168345779Y-73186144D02*
X168368834Y-73189563D01*
X168391443Y-73195227D01*
X168413387Y-73203079D01*
X168434457Y-73213044D01*
X168454448Y-73225026D01*
X168473168Y-73238910D01*
X168490438Y-73254562D01*
X168506090Y-73271832D01*
X168519974Y-73290552D01*
X168531956Y-73310543D01*
X168541921Y-73331613D01*
X168549773Y-73353557D01*
X168555437Y-73376166D01*
X168558856Y-73399221D01*
X168560000Y-73422500D01*
X168560000Y-73897500D01*
X168558856Y-73920779D01*
X168555437Y-73943834D01*
X168549773Y-73966443D01*
X168541921Y-73988387D01*
X168531956Y-74009457D01*
X168519974Y-74029448D01*
X168506090Y-74048168D01*
X168490438Y-74065438D01*
X168473168Y-74081090D01*
X168454448Y-74094974D01*
X168434457Y-74106956D01*
X168413387Y-74116921D01*
X168391443Y-74124773D01*
X168368834Y-74130437D01*
X168345779Y-74133856D01*
X168322500Y-74135000D01*
X167747500Y-74135000D01*
X167724221Y-74133856D01*
X167701166Y-74130437D01*
X167678557Y-74124773D01*
X167656613Y-74116921D01*
X167635543Y-74106956D01*
X167615552Y-74094974D01*
X167596832Y-74081090D01*
X167579562Y-74065438D01*
X167563910Y-74048168D01*
X167550026Y-74029448D01*
X167538044Y-74009457D01*
X167528079Y-73988387D01*
X167520227Y-73966443D01*
X167514563Y-73943834D01*
X167511144Y-73920779D01*
X167510000Y-73897500D01*
X167510000Y-73422500D01*
X167511144Y-73399221D01*
X167514563Y-73376166D01*
X167520227Y-73353557D01*
X167528079Y-73331613D01*
X167538044Y-73310543D01*
X167550026Y-73290552D01*
X167563910Y-73271832D01*
X167579562Y-73254562D01*
X167596832Y-73238910D01*
X167615552Y-73225026D01*
X167635543Y-73213044D01*
X167656613Y-73203079D01*
X167678557Y-73195227D01*
X167701166Y-73189563D01*
X167724221Y-73186144D01*
X167747500Y-73185000D01*
X168322500Y-73185000D01*
X168345779Y-73186144D01*
X168345779Y-73186144D01*
G37*
D14*
X168035000Y-73660000D03*
G04 #@! TD*
M02*
