G04 #@! TF.GenerationSoftware,KiCad,Pcbnew,(5.0.0)*
G04 #@! TF.CreationDate,2018-09-29T14:22:10-05:00*
G04 #@! TF.ProjectId,DriveBoard_Hardware,4472697665426F6172645F4861726477,rev?*
G04 #@! TF.SameCoordinates,Original*
G04 #@! TF.FileFunction,Paste,Top*
G04 #@! TF.FilePolarity,Positive*
%FSLAX46Y46*%
G04 Gerber Fmt 4.6, Leading zero omitted, Abs format (unit mm)*
G04 Created by KiCad (PCBNEW (5.0.0)) date 09/29/18 14:22:10*
%MOMM*%
%LPD*%
G01*
G04 APERTURE LIST*
%ADD10C,0.100000*%
%ADD11C,0.950000*%
%ADD12C,5.080000*%
%ADD13C,1.520000*%
%ADD14R,1.500000X0.600000*%
G04 APERTURE END LIST*
D10*
G04 #@! TO.C,C1*
G36*
X39210780Y-71421145D02*
X39233835Y-71424564D01*
X39256444Y-71430228D01*
X39278388Y-71438080D01*
X39299458Y-71448045D01*
X39319449Y-71460027D01*
X39338169Y-71473911D01*
X39355439Y-71489563D01*
X39371091Y-71506833D01*
X39384975Y-71525553D01*
X39396957Y-71545544D01*
X39406922Y-71566614D01*
X39414774Y-71588558D01*
X39420438Y-71611167D01*
X39423857Y-71634222D01*
X39425001Y-71657501D01*
X39425001Y-72132501D01*
X39423857Y-72155780D01*
X39420438Y-72178835D01*
X39414774Y-72201444D01*
X39406922Y-72223388D01*
X39396957Y-72244458D01*
X39384975Y-72264449D01*
X39371091Y-72283169D01*
X39355439Y-72300439D01*
X39338169Y-72316091D01*
X39319449Y-72329975D01*
X39299458Y-72341957D01*
X39278388Y-72351922D01*
X39256444Y-72359774D01*
X39233835Y-72365438D01*
X39210780Y-72368857D01*
X39187501Y-72370001D01*
X38612501Y-72370001D01*
X38589222Y-72368857D01*
X38566167Y-72365438D01*
X38543558Y-72359774D01*
X38521614Y-72351922D01*
X38500544Y-72341957D01*
X38480553Y-72329975D01*
X38461833Y-72316091D01*
X38444563Y-72300439D01*
X38428911Y-72283169D01*
X38415027Y-72264449D01*
X38403045Y-72244458D01*
X38393080Y-72223388D01*
X38385228Y-72201444D01*
X38379564Y-72178835D01*
X38376145Y-72155780D01*
X38375001Y-72132501D01*
X38375001Y-71657501D01*
X38376145Y-71634222D01*
X38379564Y-71611167D01*
X38385228Y-71588558D01*
X38393080Y-71566614D01*
X38403045Y-71545544D01*
X38415027Y-71525553D01*
X38428911Y-71506833D01*
X38444563Y-71489563D01*
X38461833Y-71473911D01*
X38480553Y-71460027D01*
X38500544Y-71448045D01*
X38521614Y-71438080D01*
X38543558Y-71430228D01*
X38566167Y-71424564D01*
X38589222Y-71421145D01*
X38612501Y-71420001D01*
X39187501Y-71420001D01*
X39210780Y-71421145D01*
X39210780Y-71421145D01*
G37*
D11*
X38900001Y-71895001D03*
D10*
G36*
X40960780Y-71421145D02*
X40983835Y-71424564D01*
X41006444Y-71430228D01*
X41028388Y-71438080D01*
X41049458Y-71448045D01*
X41069449Y-71460027D01*
X41088169Y-71473911D01*
X41105439Y-71489563D01*
X41121091Y-71506833D01*
X41134975Y-71525553D01*
X41146957Y-71545544D01*
X41156922Y-71566614D01*
X41164774Y-71588558D01*
X41170438Y-71611167D01*
X41173857Y-71634222D01*
X41175001Y-71657501D01*
X41175001Y-72132501D01*
X41173857Y-72155780D01*
X41170438Y-72178835D01*
X41164774Y-72201444D01*
X41156922Y-72223388D01*
X41146957Y-72244458D01*
X41134975Y-72264449D01*
X41121091Y-72283169D01*
X41105439Y-72300439D01*
X41088169Y-72316091D01*
X41069449Y-72329975D01*
X41049458Y-72341957D01*
X41028388Y-72351922D01*
X41006444Y-72359774D01*
X40983835Y-72365438D01*
X40960780Y-72368857D01*
X40937501Y-72370001D01*
X40362501Y-72370001D01*
X40339222Y-72368857D01*
X40316167Y-72365438D01*
X40293558Y-72359774D01*
X40271614Y-72351922D01*
X40250544Y-72341957D01*
X40230553Y-72329975D01*
X40211833Y-72316091D01*
X40194563Y-72300439D01*
X40178911Y-72283169D01*
X40165027Y-72264449D01*
X40153045Y-72244458D01*
X40143080Y-72223388D01*
X40135228Y-72201444D01*
X40129564Y-72178835D01*
X40126145Y-72155780D01*
X40125001Y-72132501D01*
X40125001Y-71657501D01*
X40126145Y-71634222D01*
X40129564Y-71611167D01*
X40135228Y-71588558D01*
X40143080Y-71566614D01*
X40153045Y-71545544D01*
X40165027Y-71525553D01*
X40178911Y-71506833D01*
X40194563Y-71489563D01*
X40211833Y-71473911D01*
X40230553Y-71460027D01*
X40250544Y-71448045D01*
X40271614Y-71438080D01*
X40293558Y-71430228D01*
X40316167Y-71424564D01*
X40339222Y-71421145D01*
X40362501Y-71420001D01*
X40937501Y-71420001D01*
X40960780Y-71421145D01*
X40960780Y-71421145D01*
G37*
D11*
X40650001Y-71895001D03*
G04 #@! TD*
D10*
G04 #@! TO.C,C2*
G36*
X42615779Y-55406144D02*
X42638834Y-55409563D01*
X42661443Y-55415227D01*
X42683387Y-55423079D01*
X42704457Y-55433044D01*
X42724448Y-55445026D01*
X42743168Y-55458910D01*
X42760438Y-55474562D01*
X42776090Y-55491832D01*
X42789974Y-55510552D01*
X42801956Y-55530543D01*
X42811921Y-55551613D01*
X42819773Y-55573557D01*
X42825437Y-55596166D01*
X42828856Y-55619221D01*
X42830000Y-55642500D01*
X42830000Y-56117500D01*
X42828856Y-56140779D01*
X42825437Y-56163834D01*
X42819773Y-56186443D01*
X42811921Y-56208387D01*
X42801956Y-56229457D01*
X42789974Y-56249448D01*
X42776090Y-56268168D01*
X42760438Y-56285438D01*
X42743168Y-56301090D01*
X42724448Y-56314974D01*
X42704457Y-56326956D01*
X42683387Y-56336921D01*
X42661443Y-56344773D01*
X42638834Y-56350437D01*
X42615779Y-56353856D01*
X42592500Y-56355000D01*
X42017500Y-56355000D01*
X41994221Y-56353856D01*
X41971166Y-56350437D01*
X41948557Y-56344773D01*
X41926613Y-56336921D01*
X41905543Y-56326956D01*
X41885552Y-56314974D01*
X41866832Y-56301090D01*
X41849562Y-56285438D01*
X41833910Y-56268168D01*
X41820026Y-56249448D01*
X41808044Y-56229457D01*
X41798079Y-56208387D01*
X41790227Y-56186443D01*
X41784563Y-56163834D01*
X41781144Y-56140779D01*
X41780000Y-56117500D01*
X41780000Y-55642500D01*
X41781144Y-55619221D01*
X41784563Y-55596166D01*
X41790227Y-55573557D01*
X41798079Y-55551613D01*
X41808044Y-55530543D01*
X41820026Y-55510552D01*
X41833910Y-55491832D01*
X41849562Y-55474562D01*
X41866832Y-55458910D01*
X41885552Y-55445026D01*
X41905543Y-55433044D01*
X41926613Y-55423079D01*
X41948557Y-55415227D01*
X41971166Y-55409563D01*
X41994221Y-55406144D01*
X42017500Y-55405000D01*
X42592500Y-55405000D01*
X42615779Y-55406144D01*
X42615779Y-55406144D01*
G37*
D11*
X42305000Y-55880000D03*
D10*
G36*
X44365779Y-55406144D02*
X44388834Y-55409563D01*
X44411443Y-55415227D01*
X44433387Y-55423079D01*
X44454457Y-55433044D01*
X44474448Y-55445026D01*
X44493168Y-55458910D01*
X44510438Y-55474562D01*
X44526090Y-55491832D01*
X44539974Y-55510552D01*
X44551956Y-55530543D01*
X44561921Y-55551613D01*
X44569773Y-55573557D01*
X44575437Y-55596166D01*
X44578856Y-55619221D01*
X44580000Y-55642500D01*
X44580000Y-56117500D01*
X44578856Y-56140779D01*
X44575437Y-56163834D01*
X44569773Y-56186443D01*
X44561921Y-56208387D01*
X44551956Y-56229457D01*
X44539974Y-56249448D01*
X44526090Y-56268168D01*
X44510438Y-56285438D01*
X44493168Y-56301090D01*
X44474448Y-56314974D01*
X44454457Y-56326956D01*
X44433387Y-56336921D01*
X44411443Y-56344773D01*
X44388834Y-56350437D01*
X44365779Y-56353856D01*
X44342500Y-56355000D01*
X43767500Y-56355000D01*
X43744221Y-56353856D01*
X43721166Y-56350437D01*
X43698557Y-56344773D01*
X43676613Y-56336921D01*
X43655543Y-56326956D01*
X43635552Y-56314974D01*
X43616832Y-56301090D01*
X43599562Y-56285438D01*
X43583910Y-56268168D01*
X43570026Y-56249448D01*
X43558044Y-56229457D01*
X43548079Y-56208387D01*
X43540227Y-56186443D01*
X43534563Y-56163834D01*
X43531144Y-56140779D01*
X43530000Y-56117500D01*
X43530000Y-55642500D01*
X43531144Y-55619221D01*
X43534563Y-55596166D01*
X43540227Y-55573557D01*
X43548079Y-55551613D01*
X43558044Y-55530543D01*
X43570026Y-55510552D01*
X43583910Y-55491832D01*
X43599562Y-55474562D01*
X43616832Y-55458910D01*
X43635552Y-55445026D01*
X43655543Y-55433044D01*
X43676613Y-55423079D01*
X43698557Y-55415227D01*
X43721166Y-55409563D01*
X43744221Y-55406144D01*
X43767500Y-55405000D01*
X44342500Y-55405000D01*
X44365779Y-55406144D01*
X44365779Y-55406144D01*
G37*
D11*
X44055000Y-55880000D03*
G04 #@! TD*
D10*
G04 #@! TO.C,C3*
G36*
X64600779Y-51596144D02*
X64623834Y-51599563D01*
X64646443Y-51605227D01*
X64668387Y-51613079D01*
X64689457Y-51623044D01*
X64709448Y-51635026D01*
X64728168Y-51648910D01*
X64745438Y-51664562D01*
X64761090Y-51681832D01*
X64774974Y-51700552D01*
X64786956Y-51720543D01*
X64796921Y-51741613D01*
X64804773Y-51763557D01*
X64810437Y-51786166D01*
X64813856Y-51809221D01*
X64815000Y-51832500D01*
X64815000Y-52307500D01*
X64813856Y-52330779D01*
X64810437Y-52353834D01*
X64804773Y-52376443D01*
X64796921Y-52398387D01*
X64786956Y-52419457D01*
X64774974Y-52439448D01*
X64761090Y-52458168D01*
X64745438Y-52475438D01*
X64728168Y-52491090D01*
X64709448Y-52504974D01*
X64689457Y-52516956D01*
X64668387Y-52526921D01*
X64646443Y-52534773D01*
X64623834Y-52540437D01*
X64600779Y-52543856D01*
X64577500Y-52545000D01*
X64002500Y-52545000D01*
X63979221Y-52543856D01*
X63956166Y-52540437D01*
X63933557Y-52534773D01*
X63911613Y-52526921D01*
X63890543Y-52516956D01*
X63870552Y-52504974D01*
X63851832Y-52491090D01*
X63834562Y-52475438D01*
X63818910Y-52458168D01*
X63805026Y-52439448D01*
X63793044Y-52419457D01*
X63783079Y-52398387D01*
X63775227Y-52376443D01*
X63769563Y-52353834D01*
X63766144Y-52330779D01*
X63765000Y-52307500D01*
X63765000Y-51832500D01*
X63766144Y-51809221D01*
X63769563Y-51786166D01*
X63775227Y-51763557D01*
X63783079Y-51741613D01*
X63793044Y-51720543D01*
X63805026Y-51700552D01*
X63818910Y-51681832D01*
X63834562Y-51664562D01*
X63851832Y-51648910D01*
X63870552Y-51635026D01*
X63890543Y-51623044D01*
X63911613Y-51613079D01*
X63933557Y-51605227D01*
X63956166Y-51599563D01*
X63979221Y-51596144D01*
X64002500Y-51595000D01*
X64577500Y-51595000D01*
X64600779Y-51596144D01*
X64600779Y-51596144D01*
G37*
D11*
X64290000Y-52070000D03*
D10*
G36*
X66350779Y-51596144D02*
X66373834Y-51599563D01*
X66396443Y-51605227D01*
X66418387Y-51613079D01*
X66439457Y-51623044D01*
X66459448Y-51635026D01*
X66478168Y-51648910D01*
X66495438Y-51664562D01*
X66511090Y-51681832D01*
X66524974Y-51700552D01*
X66536956Y-51720543D01*
X66546921Y-51741613D01*
X66554773Y-51763557D01*
X66560437Y-51786166D01*
X66563856Y-51809221D01*
X66565000Y-51832500D01*
X66565000Y-52307500D01*
X66563856Y-52330779D01*
X66560437Y-52353834D01*
X66554773Y-52376443D01*
X66546921Y-52398387D01*
X66536956Y-52419457D01*
X66524974Y-52439448D01*
X66511090Y-52458168D01*
X66495438Y-52475438D01*
X66478168Y-52491090D01*
X66459448Y-52504974D01*
X66439457Y-52516956D01*
X66418387Y-52526921D01*
X66396443Y-52534773D01*
X66373834Y-52540437D01*
X66350779Y-52543856D01*
X66327500Y-52545000D01*
X65752500Y-52545000D01*
X65729221Y-52543856D01*
X65706166Y-52540437D01*
X65683557Y-52534773D01*
X65661613Y-52526921D01*
X65640543Y-52516956D01*
X65620552Y-52504974D01*
X65601832Y-52491090D01*
X65584562Y-52475438D01*
X65568910Y-52458168D01*
X65555026Y-52439448D01*
X65543044Y-52419457D01*
X65533079Y-52398387D01*
X65525227Y-52376443D01*
X65519563Y-52353834D01*
X65516144Y-52330779D01*
X65515000Y-52307500D01*
X65515000Y-51832500D01*
X65516144Y-51809221D01*
X65519563Y-51786166D01*
X65525227Y-51763557D01*
X65533079Y-51741613D01*
X65543044Y-51720543D01*
X65555026Y-51700552D01*
X65568910Y-51681832D01*
X65584562Y-51664562D01*
X65601832Y-51648910D01*
X65620552Y-51635026D01*
X65640543Y-51623044D01*
X65661613Y-51613079D01*
X65683557Y-51605227D01*
X65706166Y-51599563D01*
X65729221Y-51596144D01*
X65752500Y-51595000D01*
X66327500Y-51595000D01*
X66350779Y-51596144D01*
X66350779Y-51596144D01*
G37*
D11*
X66040000Y-52070000D03*
G04 #@! TD*
D10*
G04 #@! TO.C,C4*
G36*
X39210780Y-72931145D02*
X39233835Y-72934564D01*
X39256444Y-72940228D01*
X39278388Y-72948080D01*
X39299458Y-72958045D01*
X39319449Y-72970027D01*
X39338169Y-72983911D01*
X39355439Y-72999563D01*
X39371091Y-73016833D01*
X39384975Y-73035553D01*
X39396957Y-73055544D01*
X39406922Y-73076614D01*
X39414774Y-73098558D01*
X39420438Y-73121167D01*
X39423857Y-73144222D01*
X39425001Y-73167501D01*
X39425001Y-73642501D01*
X39423857Y-73665780D01*
X39420438Y-73688835D01*
X39414774Y-73711444D01*
X39406922Y-73733388D01*
X39396957Y-73754458D01*
X39384975Y-73774449D01*
X39371091Y-73793169D01*
X39355439Y-73810439D01*
X39338169Y-73826091D01*
X39319449Y-73839975D01*
X39299458Y-73851957D01*
X39278388Y-73861922D01*
X39256444Y-73869774D01*
X39233835Y-73875438D01*
X39210780Y-73878857D01*
X39187501Y-73880001D01*
X38612501Y-73880001D01*
X38589222Y-73878857D01*
X38566167Y-73875438D01*
X38543558Y-73869774D01*
X38521614Y-73861922D01*
X38500544Y-73851957D01*
X38480553Y-73839975D01*
X38461833Y-73826091D01*
X38444563Y-73810439D01*
X38428911Y-73793169D01*
X38415027Y-73774449D01*
X38403045Y-73754458D01*
X38393080Y-73733388D01*
X38385228Y-73711444D01*
X38379564Y-73688835D01*
X38376145Y-73665780D01*
X38375001Y-73642501D01*
X38375001Y-73167501D01*
X38376145Y-73144222D01*
X38379564Y-73121167D01*
X38385228Y-73098558D01*
X38393080Y-73076614D01*
X38403045Y-73055544D01*
X38415027Y-73035553D01*
X38428911Y-73016833D01*
X38444563Y-72999563D01*
X38461833Y-72983911D01*
X38480553Y-72970027D01*
X38500544Y-72958045D01*
X38521614Y-72948080D01*
X38543558Y-72940228D01*
X38566167Y-72934564D01*
X38589222Y-72931145D01*
X38612501Y-72930001D01*
X39187501Y-72930001D01*
X39210780Y-72931145D01*
X39210780Y-72931145D01*
G37*
D11*
X38900001Y-73405001D03*
D10*
G36*
X40960780Y-72931145D02*
X40983835Y-72934564D01*
X41006444Y-72940228D01*
X41028388Y-72948080D01*
X41049458Y-72958045D01*
X41069449Y-72970027D01*
X41088169Y-72983911D01*
X41105439Y-72999563D01*
X41121091Y-73016833D01*
X41134975Y-73035553D01*
X41146957Y-73055544D01*
X41156922Y-73076614D01*
X41164774Y-73098558D01*
X41170438Y-73121167D01*
X41173857Y-73144222D01*
X41175001Y-73167501D01*
X41175001Y-73642501D01*
X41173857Y-73665780D01*
X41170438Y-73688835D01*
X41164774Y-73711444D01*
X41156922Y-73733388D01*
X41146957Y-73754458D01*
X41134975Y-73774449D01*
X41121091Y-73793169D01*
X41105439Y-73810439D01*
X41088169Y-73826091D01*
X41069449Y-73839975D01*
X41049458Y-73851957D01*
X41028388Y-73861922D01*
X41006444Y-73869774D01*
X40983835Y-73875438D01*
X40960780Y-73878857D01*
X40937501Y-73880001D01*
X40362501Y-73880001D01*
X40339222Y-73878857D01*
X40316167Y-73875438D01*
X40293558Y-73869774D01*
X40271614Y-73861922D01*
X40250544Y-73851957D01*
X40230553Y-73839975D01*
X40211833Y-73826091D01*
X40194563Y-73810439D01*
X40178911Y-73793169D01*
X40165027Y-73774449D01*
X40153045Y-73754458D01*
X40143080Y-73733388D01*
X40135228Y-73711444D01*
X40129564Y-73688835D01*
X40126145Y-73665780D01*
X40125001Y-73642501D01*
X40125001Y-73167501D01*
X40126145Y-73144222D01*
X40129564Y-73121167D01*
X40135228Y-73098558D01*
X40143080Y-73076614D01*
X40153045Y-73055544D01*
X40165027Y-73035553D01*
X40178911Y-73016833D01*
X40194563Y-72999563D01*
X40211833Y-72983911D01*
X40230553Y-72970027D01*
X40250544Y-72958045D01*
X40271614Y-72948080D01*
X40293558Y-72940228D01*
X40316167Y-72934564D01*
X40339222Y-72931145D01*
X40362501Y-72930001D01*
X40937501Y-72930001D01*
X40960780Y-72931145D01*
X40960780Y-72931145D01*
G37*
D11*
X40650001Y-73405001D03*
G04 #@! TD*
D10*
G04 #@! TO.C,C5*
G36*
X38805779Y-55406144D02*
X38828834Y-55409563D01*
X38851443Y-55415227D01*
X38873387Y-55423079D01*
X38894457Y-55433044D01*
X38914448Y-55445026D01*
X38933168Y-55458910D01*
X38950438Y-55474562D01*
X38966090Y-55491832D01*
X38979974Y-55510552D01*
X38991956Y-55530543D01*
X39001921Y-55551613D01*
X39009773Y-55573557D01*
X39015437Y-55596166D01*
X39018856Y-55619221D01*
X39020000Y-55642500D01*
X39020000Y-56117500D01*
X39018856Y-56140779D01*
X39015437Y-56163834D01*
X39009773Y-56186443D01*
X39001921Y-56208387D01*
X38991956Y-56229457D01*
X38979974Y-56249448D01*
X38966090Y-56268168D01*
X38950438Y-56285438D01*
X38933168Y-56301090D01*
X38914448Y-56314974D01*
X38894457Y-56326956D01*
X38873387Y-56336921D01*
X38851443Y-56344773D01*
X38828834Y-56350437D01*
X38805779Y-56353856D01*
X38782500Y-56355000D01*
X38207500Y-56355000D01*
X38184221Y-56353856D01*
X38161166Y-56350437D01*
X38138557Y-56344773D01*
X38116613Y-56336921D01*
X38095543Y-56326956D01*
X38075552Y-56314974D01*
X38056832Y-56301090D01*
X38039562Y-56285438D01*
X38023910Y-56268168D01*
X38010026Y-56249448D01*
X37998044Y-56229457D01*
X37988079Y-56208387D01*
X37980227Y-56186443D01*
X37974563Y-56163834D01*
X37971144Y-56140779D01*
X37970000Y-56117500D01*
X37970000Y-55642500D01*
X37971144Y-55619221D01*
X37974563Y-55596166D01*
X37980227Y-55573557D01*
X37988079Y-55551613D01*
X37998044Y-55530543D01*
X38010026Y-55510552D01*
X38023910Y-55491832D01*
X38039562Y-55474562D01*
X38056832Y-55458910D01*
X38075552Y-55445026D01*
X38095543Y-55433044D01*
X38116613Y-55423079D01*
X38138557Y-55415227D01*
X38161166Y-55409563D01*
X38184221Y-55406144D01*
X38207500Y-55405000D01*
X38782500Y-55405000D01*
X38805779Y-55406144D01*
X38805779Y-55406144D01*
G37*
D11*
X38495000Y-55880000D03*
D10*
G36*
X40555779Y-55406144D02*
X40578834Y-55409563D01*
X40601443Y-55415227D01*
X40623387Y-55423079D01*
X40644457Y-55433044D01*
X40664448Y-55445026D01*
X40683168Y-55458910D01*
X40700438Y-55474562D01*
X40716090Y-55491832D01*
X40729974Y-55510552D01*
X40741956Y-55530543D01*
X40751921Y-55551613D01*
X40759773Y-55573557D01*
X40765437Y-55596166D01*
X40768856Y-55619221D01*
X40770000Y-55642500D01*
X40770000Y-56117500D01*
X40768856Y-56140779D01*
X40765437Y-56163834D01*
X40759773Y-56186443D01*
X40751921Y-56208387D01*
X40741956Y-56229457D01*
X40729974Y-56249448D01*
X40716090Y-56268168D01*
X40700438Y-56285438D01*
X40683168Y-56301090D01*
X40664448Y-56314974D01*
X40644457Y-56326956D01*
X40623387Y-56336921D01*
X40601443Y-56344773D01*
X40578834Y-56350437D01*
X40555779Y-56353856D01*
X40532500Y-56355000D01*
X39957500Y-56355000D01*
X39934221Y-56353856D01*
X39911166Y-56350437D01*
X39888557Y-56344773D01*
X39866613Y-56336921D01*
X39845543Y-56326956D01*
X39825552Y-56314974D01*
X39806832Y-56301090D01*
X39789562Y-56285438D01*
X39773910Y-56268168D01*
X39760026Y-56249448D01*
X39748044Y-56229457D01*
X39738079Y-56208387D01*
X39730227Y-56186443D01*
X39724563Y-56163834D01*
X39721144Y-56140779D01*
X39720000Y-56117500D01*
X39720000Y-55642500D01*
X39721144Y-55619221D01*
X39724563Y-55596166D01*
X39730227Y-55573557D01*
X39738079Y-55551613D01*
X39748044Y-55530543D01*
X39760026Y-55510552D01*
X39773910Y-55491832D01*
X39789562Y-55474562D01*
X39806832Y-55458910D01*
X39825552Y-55445026D01*
X39845543Y-55433044D01*
X39866613Y-55423079D01*
X39888557Y-55415227D01*
X39911166Y-55409563D01*
X39934221Y-55406144D01*
X39957500Y-55405000D01*
X40532500Y-55405000D01*
X40555779Y-55406144D01*
X40555779Y-55406144D01*
G37*
D11*
X40245000Y-55880000D03*
G04 #@! TD*
D10*
G04 #@! TO.C,C6*
G36*
X69765779Y-51596144D02*
X69788834Y-51599563D01*
X69811443Y-51605227D01*
X69833387Y-51613079D01*
X69854457Y-51623044D01*
X69874448Y-51635026D01*
X69893168Y-51648910D01*
X69910438Y-51664562D01*
X69926090Y-51681832D01*
X69939974Y-51700552D01*
X69951956Y-51720543D01*
X69961921Y-51741613D01*
X69969773Y-51763557D01*
X69975437Y-51786166D01*
X69978856Y-51809221D01*
X69980000Y-51832500D01*
X69980000Y-52307500D01*
X69978856Y-52330779D01*
X69975437Y-52353834D01*
X69969773Y-52376443D01*
X69961921Y-52398387D01*
X69951956Y-52419457D01*
X69939974Y-52439448D01*
X69926090Y-52458168D01*
X69910438Y-52475438D01*
X69893168Y-52491090D01*
X69874448Y-52504974D01*
X69854457Y-52516956D01*
X69833387Y-52526921D01*
X69811443Y-52534773D01*
X69788834Y-52540437D01*
X69765779Y-52543856D01*
X69742500Y-52545000D01*
X69167500Y-52545000D01*
X69144221Y-52543856D01*
X69121166Y-52540437D01*
X69098557Y-52534773D01*
X69076613Y-52526921D01*
X69055543Y-52516956D01*
X69035552Y-52504974D01*
X69016832Y-52491090D01*
X68999562Y-52475438D01*
X68983910Y-52458168D01*
X68970026Y-52439448D01*
X68958044Y-52419457D01*
X68948079Y-52398387D01*
X68940227Y-52376443D01*
X68934563Y-52353834D01*
X68931144Y-52330779D01*
X68930000Y-52307500D01*
X68930000Y-51832500D01*
X68931144Y-51809221D01*
X68934563Y-51786166D01*
X68940227Y-51763557D01*
X68948079Y-51741613D01*
X68958044Y-51720543D01*
X68970026Y-51700552D01*
X68983910Y-51681832D01*
X68999562Y-51664562D01*
X69016832Y-51648910D01*
X69035552Y-51635026D01*
X69055543Y-51623044D01*
X69076613Y-51613079D01*
X69098557Y-51605227D01*
X69121166Y-51599563D01*
X69144221Y-51596144D01*
X69167500Y-51595000D01*
X69742500Y-51595000D01*
X69765779Y-51596144D01*
X69765779Y-51596144D01*
G37*
D11*
X69455000Y-52070000D03*
D10*
G36*
X68015779Y-51596144D02*
X68038834Y-51599563D01*
X68061443Y-51605227D01*
X68083387Y-51613079D01*
X68104457Y-51623044D01*
X68124448Y-51635026D01*
X68143168Y-51648910D01*
X68160438Y-51664562D01*
X68176090Y-51681832D01*
X68189974Y-51700552D01*
X68201956Y-51720543D01*
X68211921Y-51741613D01*
X68219773Y-51763557D01*
X68225437Y-51786166D01*
X68228856Y-51809221D01*
X68230000Y-51832500D01*
X68230000Y-52307500D01*
X68228856Y-52330779D01*
X68225437Y-52353834D01*
X68219773Y-52376443D01*
X68211921Y-52398387D01*
X68201956Y-52419457D01*
X68189974Y-52439448D01*
X68176090Y-52458168D01*
X68160438Y-52475438D01*
X68143168Y-52491090D01*
X68124448Y-52504974D01*
X68104457Y-52516956D01*
X68083387Y-52526921D01*
X68061443Y-52534773D01*
X68038834Y-52540437D01*
X68015779Y-52543856D01*
X67992500Y-52545000D01*
X67417500Y-52545000D01*
X67394221Y-52543856D01*
X67371166Y-52540437D01*
X67348557Y-52534773D01*
X67326613Y-52526921D01*
X67305543Y-52516956D01*
X67285552Y-52504974D01*
X67266832Y-52491090D01*
X67249562Y-52475438D01*
X67233910Y-52458168D01*
X67220026Y-52439448D01*
X67208044Y-52419457D01*
X67198079Y-52398387D01*
X67190227Y-52376443D01*
X67184563Y-52353834D01*
X67181144Y-52330779D01*
X67180000Y-52307500D01*
X67180000Y-51832500D01*
X67181144Y-51809221D01*
X67184563Y-51786166D01*
X67190227Y-51763557D01*
X67198079Y-51741613D01*
X67208044Y-51720543D01*
X67220026Y-51700552D01*
X67233910Y-51681832D01*
X67249562Y-51664562D01*
X67266832Y-51648910D01*
X67285552Y-51635026D01*
X67305543Y-51623044D01*
X67326613Y-51613079D01*
X67348557Y-51605227D01*
X67371166Y-51599563D01*
X67394221Y-51596144D01*
X67417500Y-51595000D01*
X67992500Y-51595000D01*
X68015779Y-51596144D01*
X68015779Y-51596144D01*
G37*
D11*
X67705000Y-52070000D03*
G04 #@! TD*
D12*
G04 #@! TO.C,Conn1*
X69850000Y-79629000D03*
X69850000Y-87630000D03*
G04 #@! TD*
D13*
G04 #@! TO.C,U1*
X42189001Y-45465001D03*
X39649001Y-45465001D03*
X37109001Y-45465001D03*
X59969001Y-48005001D03*
X57429001Y-48005001D03*
X54889001Y-48005001D03*
X52349001Y-48005001D03*
X49809001Y-48005001D03*
X47269001Y-48005001D03*
X44729001Y-48005001D03*
X42189001Y-48005001D03*
X39649001Y-48005001D03*
X37109001Y-48005001D03*
X59969001Y-91185001D03*
X54889001Y-91185001D03*
X49809001Y-91185001D03*
X47269001Y-91185001D03*
X44729001Y-91185001D03*
X42189001Y-91185001D03*
X39649001Y-91185001D03*
X59969001Y-88645001D03*
X54889001Y-88645001D03*
X44729001Y-88645001D03*
X42189001Y-88645001D03*
X39649001Y-88645001D03*
X37109001Y-88645001D03*
X49809001Y-88645001D03*
X52349001Y-88645001D03*
X57429001Y-91185001D03*
X44729001Y-45465001D03*
X47269001Y-45465001D03*
X57429001Y-88645001D03*
X52349001Y-91185001D03*
X54889001Y-45465001D03*
X52349001Y-45465001D03*
X47269001Y-88645001D03*
X49809001Y-45465001D03*
X57429001Y-45465001D03*
X59969001Y-45465001D03*
X37109001Y-91185001D03*
G04 #@! TD*
D14*
G04 #@! TO.C,U2*
X44610000Y-59055000D03*
X44610000Y-60325000D03*
X44610000Y-61595000D03*
X44610000Y-62865000D03*
X44610000Y-64135000D03*
X44610000Y-65405000D03*
X44610000Y-66675000D03*
X44610000Y-67945000D03*
X39210000Y-67945000D03*
X39210000Y-66675000D03*
X39210000Y-65405000D03*
X39210000Y-64135000D03*
X39210000Y-62865000D03*
X39210000Y-61595000D03*
X39210000Y-60325000D03*
X39210000Y-59055000D03*
G04 #@! TD*
M02*
