G04 #@! TF.GenerationSoftware,KiCad,Pcbnew,(5.0.0)*
G04 #@! TF.CreationDate,2018-09-29T17:08:45-05:00*
G04 #@! TF.ProjectId,DriveBoard_Hardware,4472697665426F6172645F4861726477,rev?*
G04 #@! TF.SameCoordinates,Original*
G04 #@! TF.FileFunction,Copper,L1,Top,Signal*
G04 #@! TF.FilePolarity,Positive*
%FSLAX46Y46*%
G04 Gerber Fmt 4.6, Leading zero omitted, Abs format (unit mm)*
G04 Created by KiCad (PCBNEW (5.0.0)) date 09/29/18 17:08:45*
%MOMM*%
%LPD*%
G01*
G04 APERTURE LIST*
G04 #@! TA.AperFunction,ComponentPad*
%ADD10C,1.520000*%
G04 #@! TD*
G04 #@! TA.AperFunction,SMDPad,CuDef*
%ADD11R,1.500000X0.600000*%
G04 #@! TD*
G04 #@! TA.AperFunction,ComponentPad*
%ADD12C,5.080000*%
G04 #@! TD*
G04 #@! TA.AperFunction,ComponentPad*
%ADD13C,1.524000*%
G04 #@! TD*
G04 #@! TA.AperFunction,Conductor*
%ADD14C,0.100000*%
G04 #@! TD*
G04 #@! TA.AperFunction,SMDPad,CuDef*
%ADD15C,0.950000*%
G04 #@! TD*
G04 #@! TA.AperFunction,ViaPad*
%ADD16C,0.800000*%
G04 #@! TD*
G04 #@! TA.AperFunction,Conductor*
%ADD17C,0.381000*%
G04 #@! TD*
G04 #@! TA.AperFunction,Conductor*
%ADD18C,0.254000*%
G04 #@! TD*
G04 APERTURE END LIST*
D10*
G04 #@! TO.P,U1,+3V3*
G04 #@! TO.N,Net-(U1-Pad+3V3)*
X118389001Y-111505001D03*
G04 #@! TO.P,U1,PM6*
G04 #@! TO.N,Net-(U1-PadPM6)*
X141249001Y-65785001D03*
G04 #@! TO.P,U1,PQ1*
G04 #@! TO.N,Net-(U1-PadPQ1)*
X138709001Y-65785001D03*
G04 #@! TO.P,U1,PQ2*
G04 #@! TO.N,Net-(U1-PadPQ2)*
X131089001Y-65785001D03*
G04 #@! TO.P,U1,PK0*
G04 #@! TO.N,RX_2_IC*
X128549001Y-108965001D03*
G04 #@! TO.P,U1,PQ3*
G04 #@! TO.N,Net-(U1-PadPQ3)*
X133629001Y-65785001D03*
G04 #@! TO.P,U1,PP3*
G04 #@! TO.N,Net-(U1-PadPP3)*
X136169001Y-65785001D03*
G04 #@! TO.P,U1,PQ0*
G04 #@! TO.N,Net-(U1-PadPQ0)*
X133629001Y-111505001D03*
G04 #@! TO.P,U1,PA4*
G04 #@! TO.N,Net-(U1-PadPA4)*
X138709001Y-108965001D03*
G04 #@! TO.P,U1,Rese*
G04 #@! TO.N,Net-(U1-PadRese)*
X128549001Y-65785001D03*
G04 #@! TO.P,U1,PA7*
G04 #@! TO.N,Net-(U1-PadPA7)*
X126009001Y-65785001D03*
G04 #@! TO.P,U1,PN5*
G04 #@! TO.N,Net-(U1-PadPN5)*
X138709001Y-111505001D03*
G04 #@! TO.P,U1,PK2*
G04 #@! TO.N,Net-(U1-PadPK2)*
X133629001Y-108965001D03*
G04 #@! TO.P,U1,PK1*
G04 #@! TO.N,TX_2_IC*
X131089001Y-108965001D03*
G04 #@! TO.P,U1,+5V*
G04 #@! TO.N,+5V*
X118389001Y-108965001D03*
G04 #@! TO.P,U1,GND*
G04 #@! TO.N,GND*
X120929001Y-108965001D03*
G04 #@! TO.P,U1,PB4*
G04 #@! TO.N,Net-(U1-PadPB4)*
X123469001Y-108965001D03*
G04 #@! TO.P,U1,PB5*
G04 #@! TO.N,Net-(U1-PadPB5)*
X126009001Y-108965001D03*
G04 #@! TO.P,U1,PK3*
G04 #@! TO.N,Net-(U1-PadPK3)*
X136169001Y-108965001D03*
G04 #@! TO.P,U1,PA5*
G04 #@! TO.N,Net-(U1-PadPA5)*
X141249001Y-108965001D03*
G04 #@! TO.P,U1,PD2*
G04 #@! TO.N,Net-(U1-PadPD2)*
X120929001Y-111505001D03*
G04 #@! TO.P,U1,PP0*
G04 #@! TO.N,RX_1_IC*
X123469001Y-111505001D03*
G04 #@! TO.P,U1,PP1*
G04 #@! TO.N,TX_1_IC*
X126009001Y-111505001D03*
G04 #@! TO.P,U1,PD4*
G04 #@! TO.N,Net-(U1-PadPD4)*
X128549001Y-111505001D03*
G04 #@! TO.P,U1,PD5*
G04 #@! TO.N,Net-(U1-PadPD5)*
X131089001Y-111505001D03*
G04 #@! TO.P,U1,PP4*
G04 #@! TO.N,Net-(U1-PadPP4)*
X136169001Y-111505001D03*
G04 #@! TO.P,U1,PN4*
G04 #@! TO.N,Net-(U1-PadPN4)*
X141249001Y-111505001D03*
G04 #@! TO.P,U1,PG1*
G04 #@! TO.N,Net-(U1-PadPG1)*
X118389001Y-68325001D03*
G04 #@! TO.P,U1,PK4*
G04 #@! TO.N,Net-(U1-PadPK4)*
X120929001Y-68325001D03*
G04 #@! TO.P,U1,PK5*
G04 #@! TO.N,Net-(U1-PadPK5)*
X123469001Y-68325001D03*
G04 #@! TO.P,U1,PM0*
G04 #@! TO.N,Net-(U1-PadPM0)*
X126009001Y-68325001D03*
G04 #@! TO.P,U1,PM1*
G04 #@! TO.N,Net-(U1-PadPM1)*
X128549001Y-68325001D03*
G04 #@! TO.P,U1,PM2*
G04 #@! TO.N,Net-(U1-PadPM2)*
X131089001Y-68325001D03*
G04 #@! TO.P,U1,PH0*
G04 #@! TO.N,Net-(U1-PadPH0)*
X133629001Y-68325001D03*
G04 #@! TO.P,U1,PH1*
G04 #@! TO.N,Net-(U1-PadPH1)*
X136169001Y-68325001D03*
G04 #@! TO.P,U1,PK6*
G04 #@! TO.N,Net-(U1-PadPK6)*
X138709001Y-68325001D03*
G04 #@! TO.P,U1,PK7*
G04 #@! TO.N,Net-(U1-PadPK7)*
X141249001Y-68325001D03*
G04 #@! TO.P,U1,GND*
G04 #@! TO.N,GND*
X118389001Y-65785001D03*
G04 #@! TO.P,U1,PM7*
G04 #@! TO.N,Net-(U1-PadPM7)*
X120929001Y-65785001D03*
G04 #@! TO.P,U1,PP5*
G04 #@! TO.N,Net-(U1-PadPP5)*
X123469001Y-65785001D03*
G04 #@! TD*
D11*
G04 #@! TO.P,U2,1*
G04 #@! TO.N,Net-(C4-Pad1)*
X158590000Y-74295000D03*
G04 #@! TO.P,U2,2*
G04 #@! TO.N,Net-(C1-Pad1)*
X158590000Y-75565000D03*
G04 #@! TO.P,U2,3*
G04 #@! TO.N,Net-(C4-Pad2)*
X158590000Y-76835000D03*
G04 #@! TO.P,U2,4*
G04 #@! TO.N,Net-(C5-Pad1)*
X158590000Y-78105000D03*
G04 #@! TO.P,U2,5*
G04 #@! TO.N,Net-(C5-Pad2)*
X158590000Y-79375000D03*
G04 #@! TO.P,U2,6*
G04 #@! TO.N,Net-(C2-Pad1)*
X158590000Y-80645000D03*
G04 #@! TO.P,U2,7*
G04 #@! TO.N,TX_2_SL*
X158590000Y-81915000D03*
G04 #@! TO.P,U2,8*
G04 #@! TO.N,RX_2_SL*
X158590000Y-83185000D03*
G04 #@! TO.P,U2,9*
G04 #@! TO.N,RX_2_IC*
X163990000Y-83185000D03*
G04 #@! TO.P,U2,10*
G04 #@! TO.N,TX_2_IC*
X163990000Y-81915000D03*
G04 #@! TO.P,U2,11*
G04 #@! TO.N,TX_1_IC*
X163990000Y-80645000D03*
G04 #@! TO.P,U2,12*
G04 #@! TO.N,RX_1_IC*
X163990000Y-79375000D03*
G04 #@! TO.P,U2,13*
G04 #@! TO.N,RX_1_SL*
X163990000Y-78105000D03*
G04 #@! TO.P,U2,14*
G04 #@! TO.N,TX_1_SL*
X163990000Y-76835000D03*
G04 #@! TO.P,U2,15*
G04 #@! TO.N,GND*
X163990000Y-75565000D03*
G04 #@! TO.P,U2,16*
G04 #@! TO.N,+5V*
X163990000Y-74295000D03*
G04 #@! TD*
D12*
G04 #@! TO.P,Conn1,1*
G04 #@! TO.N,GND*
X136677400Y-58675000D03*
G04 #@! TO.P,Conn1,2*
G04 #@! TO.N,/+12V*
X136677400Y-50674000D03*
G04 #@! TD*
D13*
G04 #@! TO.P,Conn2,1*
G04 #@! TO.N,Net-(Conn2-Pad1)*
X129032000Y-101600000D03*
G04 #@! TO.P,Conn2,2*
G04 #@! TO.N,Net-(Conn2-Pad2)*
X129032000Y-99060000D03*
G04 #@! TO.P,Conn2,3*
G04 #@! TO.N,GND*
X129032000Y-96520000D03*
G04 #@! TO.P,Conn2,4*
G04 #@! TO.N,TX_1_SL*
X129032000Y-93980000D03*
G04 #@! TO.P,Conn2,5*
G04 #@! TO.N,RX_1_SL*
X129032000Y-91440000D03*
G04 #@! TD*
G04 #@! TO.P,Conn3,5*
G04 #@! TO.N,RX_2_SL*
X129032000Y-74676000D03*
G04 #@! TO.P,Conn3,4*
G04 #@! TO.N,TX_2_SL*
X129032000Y-77216000D03*
G04 #@! TO.P,Conn3,3*
G04 #@! TO.N,GND*
X129032000Y-79756000D03*
G04 #@! TO.P,Conn3,2*
G04 #@! TO.N,Net-(Conn3-Pad2)*
X129032000Y-82296000D03*
G04 #@! TO.P,Conn3,1*
G04 #@! TO.N,Net-(Conn3-Pad1)*
X129032000Y-84836000D03*
G04 #@! TD*
G04 #@! TO.P,U3,1*
G04 #@! TO.N,/+12V*
X162560000Y-62230000D03*
G04 #@! TO.P,U3,2*
G04 #@! TO.N,GND*
X160020000Y-62230000D03*
G04 #@! TO.P,U3,3*
G04 #@! TO.N,+5V*
X157480000Y-62230000D03*
G04 #@! TD*
D14*
G04 #@! TO.N,Net-(C1-Pad1)*
G04 #@! TO.C,C1*
G36*
X149295779Y-75726144D02*
X149318834Y-75729563D01*
X149341443Y-75735227D01*
X149363387Y-75743079D01*
X149384457Y-75753044D01*
X149404448Y-75765026D01*
X149423168Y-75778910D01*
X149440438Y-75794562D01*
X149456090Y-75811832D01*
X149469974Y-75830552D01*
X149481956Y-75850543D01*
X149491921Y-75871613D01*
X149499773Y-75893557D01*
X149505437Y-75916166D01*
X149508856Y-75939221D01*
X149510000Y-75962500D01*
X149510000Y-76437500D01*
X149508856Y-76460779D01*
X149505437Y-76483834D01*
X149499773Y-76506443D01*
X149491921Y-76528387D01*
X149481956Y-76549457D01*
X149469974Y-76569448D01*
X149456090Y-76588168D01*
X149440438Y-76605438D01*
X149423168Y-76621090D01*
X149404448Y-76634974D01*
X149384457Y-76646956D01*
X149363387Y-76656921D01*
X149341443Y-76664773D01*
X149318834Y-76670437D01*
X149295779Y-76673856D01*
X149272500Y-76675000D01*
X148697500Y-76675000D01*
X148674221Y-76673856D01*
X148651166Y-76670437D01*
X148628557Y-76664773D01*
X148606613Y-76656921D01*
X148585543Y-76646956D01*
X148565552Y-76634974D01*
X148546832Y-76621090D01*
X148529562Y-76605438D01*
X148513910Y-76588168D01*
X148500026Y-76569448D01*
X148488044Y-76549457D01*
X148478079Y-76528387D01*
X148470227Y-76506443D01*
X148464563Y-76483834D01*
X148461144Y-76460779D01*
X148460000Y-76437500D01*
X148460000Y-75962500D01*
X148461144Y-75939221D01*
X148464563Y-75916166D01*
X148470227Y-75893557D01*
X148478079Y-75871613D01*
X148488044Y-75850543D01*
X148500026Y-75830552D01*
X148513910Y-75811832D01*
X148529562Y-75794562D01*
X148546832Y-75778910D01*
X148565552Y-75765026D01*
X148585543Y-75753044D01*
X148606613Y-75743079D01*
X148628557Y-75735227D01*
X148651166Y-75729563D01*
X148674221Y-75726144D01*
X148697500Y-75725000D01*
X149272500Y-75725000D01*
X149295779Y-75726144D01*
X149295779Y-75726144D01*
G37*
D15*
G04 #@! TD*
G04 #@! TO.P,C1,1*
G04 #@! TO.N,Net-(C1-Pad1)*
X148985000Y-76200000D03*
D14*
G04 #@! TO.N,GND*
G04 #@! TO.C,C1*
G36*
X151045779Y-75726144D02*
X151068834Y-75729563D01*
X151091443Y-75735227D01*
X151113387Y-75743079D01*
X151134457Y-75753044D01*
X151154448Y-75765026D01*
X151173168Y-75778910D01*
X151190438Y-75794562D01*
X151206090Y-75811832D01*
X151219974Y-75830552D01*
X151231956Y-75850543D01*
X151241921Y-75871613D01*
X151249773Y-75893557D01*
X151255437Y-75916166D01*
X151258856Y-75939221D01*
X151260000Y-75962500D01*
X151260000Y-76437500D01*
X151258856Y-76460779D01*
X151255437Y-76483834D01*
X151249773Y-76506443D01*
X151241921Y-76528387D01*
X151231956Y-76549457D01*
X151219974Y-76569448D01*
X151206090Y-76588168D01*
X151190438Y-76605438D01*
X151173168Y-76621090D01*
X151154448Y-76634974D01*
X151134457Y-76646956D01*
X151113387Y-76656921D01*
X151091443Y-76664773D01*
X151068834Y-76670437D01*
X151045779Y-76673856D01*
X151022500Y-76675000D01*
X150447500Y-76675000D01*
X150424221Y-76673856D01*
X150401166Y-76670437D01*
X150378557Y-76664773D01*
X150356613Y-76656921D01*
X150335543Y-76646956D01*
X150315552Y-76634974D01*
X150296832Y-76621090D01*
X150279562Y-76605438D01*
X150263910Y-76588168D01*
X150250026Y-76569448D01*
X150238044Y-76549457D01*
X150228079Y-76528387D01*
X150220227Y-76506443D01*
X150214563Y-76483834D01*
X150211144Y-76460779D01*
X150210000Y-76437500D01*
X150210000Y-75962500D01*
X150211144Y-75939221D01*
X150214563Y-75916166D01*
X150220227Y-75893557D01*
X150228079Y-75871613D01*
X150238044Y-75850543D01*
X150250026Y-75830552D01*
X150263910Y-75811832D01*
X150279562Y-75794562D01*
X150296832Y-75778910D01*
X150315552Y-75765026D01*
X150335543Y-75753044D01*
X150356613Y-75743079D01*
X150378557Y-75735227D01*
X150401166Y-75729563D01*
X150424221Y-75726144D01*
X150447500Y-75725000D01*
X151022500Y-75725000D01*
X151045779Y-75726144D01*
X151045779Y-75726144D01*
G37*
D15*
G04 #@! TD*
G04 #@! TO.P,C1,2*
G04 #@! TO.N,GND*
X150735000Y-76200000D03*
D14*
G04 #@! TO.N,GND*
G04 #@! TO.C,C2*
G36*
X151045779Y-80806144D02*
X151068834Y-80809563D01*
X151091443Y-80815227D01*
X151113387Y-80823079D01*
X151134457Y-80833044D01*
X151154448Y-80845026D01*
X151173168Y-80858910D01*
X151190438Y-80874562D01*
X151206090Y-80891832D01*
X151219974Y-80910552D01*
X151231956Y-80930543D01*
X151241921Y-80951613D01*
X151249773Y-80973557D01*
X151255437Y-80996166D01*
X151258856Y-81019221D01*
X151260000Y-81042500D01*
X151260000Y-81517500D01*
X151258856Y-81540779D01*
X151255437Y-81563834D01*
X151249773Y-81586443D01*
X151241921Y-81608387D01*
X151231956Y-81629457D01*
X151219974Y-81649448D01*
X151206090Y-81668168D01*
X151190438Y-81685438D01*
X151173168Y-81701090D01*
X151154448Y-81714974D01*
X151134457Y-81726956D01*
X151113387Y-81736921D01*
X151091443Y-81744773D01*
X151068834Y-81750437D01*
X151045779Y-81753856D01*
X151022500Y-81755000D01*
X150447500Y-81755000D01*
X150424221Y-81753856D01*
X150401166Y-81750437D01*
X150378557Y-81744773D01*
X150356613Y-81736921D01*
X150335543Y-81726956D01*
X150315552Y-81714974D01*
X150296832Y-81701090D01*
X150279562Y-81685438D01*
X150263910Y-81668168D01*
X150250026Y-81649448D01*
X150238044Y-81629457D01*
X150228079Y-81608387D01*
X150220227Y-81586443D01*
X150214563Y-81563834D01*
X150211144Y-81540779D01*
X150210000Y-81517500D01*
X150210000Y-81042500D01*
X150211144Y-81019221D01*
X150214563Y-80996166D01*
X150220227Y-80973557D01*
X150228079Y-80951613D01*
X150238044Y-80930543D01*
X150250026Y-80910552D01*
X150263910Y-80891832D01*
X150279562Y-80874562D01*
X150296832Y-80858910D01*
X150315552Y-80845026D01*
X150335543Y-80833044D01*
X150356613Y-80823079D01*
X150378557Y-80815227D01*
X150401166Y-80809563D01*
X150424221Y-80806144D01*
X150447500Y-80805000D01*
X151022500Y-80805000D01*
X151045779Y-80806144D01*
X151045779Y-80806144D01*
G37*
D15*
G04 #@! TD*
G04 #@! TO.P,C2,2*
G04 #@! TO.N,GND*
X150735000Y-81280000D03*
D14*
G04 #@! TO.N,Net-(C2-Pad1)*
G04 #@! TO.C,C2*
G36*
X149295779Y-80806144D02*
X149318834Y-80809563D01*
X149341443Y-80815227D01*
X149363387Y-80823079D01*
X149384457Y-80833044D01*
X149404448Y-80845026D01*
X149423168Y-80858910D01*
X149440438Y-80874562D01*
X149456090Y-80891832D01*
X149469974Y-80910552D01*
X149481956Y-80930543D01*
X149491921Y-80951613D01*
X149499773Y-80973557D01*
X149505437Y-80996166D01*
X149508856Y-81019221D01*
X149510000Y-81042500D01*
X149510000Y-81517500D01*
X149508856Y-81540779D01*
X149505437Y-81563834D01*
X149499773Y-81586443D01*
X149491921Y-81608387D01*
X149481956Y-81629457D01*
X149469974Y-81649448D01*
X149456090Y-81668168D01*
X149440438Y-81685438D01*
X149423168Y-81701090D01*
X149404448Y-81714974D01*
X149384457Y-81726956D01*
X149363387Y-81736921D01*
X149341443Y-81744773D01*
X149318834Y-81750437D01*
X149295779Y-81753856D01*
X149272500Y-81755000D01*
X148697500Y-81755000D01*
X148674221Y-81753856D01*
X148651166Y-81750437D01*
X148628557Y-81744773D01*
X148606613Y-81736921D01*
X148585543Y-81726956D01*
X148565552Y-81714974D01*
X148546832Y-81701090D01*
X148529562Y-81685438D01*
X148513910Y-81668168D01*
X148500026Y-81649448D01*
X148488044Y-81629457D01*
X148478079Y-81608387D01*
X148470227Y-81586443D01*
X148464563Y-81563834D01*
X148461144Y-81540779D01*
X148460000Y-81517500D01*
X148460000Y-81042500D01*
X148461144Y-81019221D01*
X148464563Y-80996166D01*
X148470227Y-80973557D01*
X148478079Y-80951613D01*
X148488044Y-80930543D01*
X148500026Y-80910552D01*
X148513910Y-80891832D01*
X148529562Y-80874562D01*
X148546832Y-80858910D01*
X148565552Y-80845026D01*
X148585543Y-80833044D01*
X148606613Y-80823079D01*
X148628557Y-80815227D01*
X148651166Y-80809563D01*
X148674221Y-80806144D01*
X148697500Y-80805000D01*
X149272500Y-80805000D01*
X149295779Y-80806144D01*
X149295779Y-80806144D01*
G37*
D15*
G04 #@! TD*
G04 #@! TO.P,C2,1*
G04 #@! TO.N,Net-(C2-Pad1)*
X148985000Y-81280000D03*
D14*
G04 #@! TO.N,GND*
G04 #@! TO.C,C3*
G36*
X173905779Y-75726144D02*
X173928834Y-75729563D01*
X173951443Y-75735227D01*
X173973387Y-75743079D01*
X173994457Y-75753044D01*
X174014448Y-75765026D01*
X174033168Y-75778910D01*
X174050438Y-75794562D01*
X174066090Y-75811832D01*
X174079974Y-75830552D01*
X174091956Y-75850543D01*
X174101921Y-75871613D01*
X174109773Y-75893557D01*
X174115437Y-75916166D01*
X174118856Y-75939221D01*
X174120000Y-75962500D01*
X174120000Y-76437500D01*
X174118856Y-76460779D01*
X174115437Y-76483834D01*
X174109773Y-76506443D01*
X174101921Y-76528387D01*
X174091956Y-76549457D01*
X174079974Y-76569448D01*
X174066090Y-76588168D01*
X174050438Y-76605438D01*
X174033168Y-76621090D01*
X174014448Y-76634974D01*
X173994457Y-76646956D01*
X173973387Y-76656921D01*
X173951443Y-76664773D01*
X173928834Y-76670437D01*
X173905779Y-76673856D01*
X173882500Y-76675000D01*
X173307500Y-76675000D01*
X173284221Y-76673856D01*
X173261166Y-76670437D01*
X173238557Y-76664773D01*
X173216613Y-76656921D01*
X173195543Y-76646956D01*
X173175552Y-76634974D01*
X173156832Y-76621090D01*
X173139562Y-76605438D01*
X173123910Y-76588168D01*
X173110026Y-76569448D01*
X173098044Y-76549457D01*
X173088079Y-76528387D01*
X173080227Y-76506443D01*
X173074563Y-76483834D01*
X173071144Y-76460779D01*
X173070000Y-76437500D01*
X173070000Y-75962500D01*
X173071144Y-75939221D01*
X173074563Y-75916166D01*
X173080227Y-75893557D01*
X173088079Y-75871613D01*
X173098044Y-75850543D01*
X173110026Y-75830552D01*
X173123910Y-75811832D01*
X173139562Y-75794562D01*
X173156832Y-75778910D01*
X173175552Y-75765026D01*
X173195543Y-75753044D01*
X173216613Y-75743079D01*
X173238557Y-75735227D01*
X173261166Y-75729563D01*
X173284221Y-75726144D01*
X173307500Y-75725000D01*
X173882500Y-75725000D01*
X173905779Y-75726144D01*
X173905779Y-75726144D01*
G37*
D15*
G04 #@! TD*
G04 #@! TO.P,C3,2*
G04 #@! TO.N,GND*
X173595000Y-76200000D03*
D14*
G04 #@! TO.N,/+12V*
G04 #@! TO.C,C3*
G36*
X172155779Y-75726144D02*
X172178834Y-75729563D01*
X172201443Y-75735227D01*
X172223387Y-75743079D01*
X172244457Y-75753044D01*
X172264448Y-75765026D01*
X172283168Y-75778910D01*
X172300438Y-75794562D01*
X172316090Y-75811832D01*
X172329974Y-75830552D01*
X172341956Y-75850543D01*
X172351921Y-75871613D01*
X172359773Y-75893557D01*
X172365437Y-75916166D01*
X172368856Y-75939221D01*
X172370000Y-75962500D01*
X172370000Y-76437500D01*
X172368856Y-76460779D01*
X172365437Y-76483834D01*
X172359773Y-76506443D01*
X172351921Y-76528387D01*
X172341956Y-76549457D01*
X172329974Y-76569448D01*
X172316090Y-76588168D01*
X172300438Y-76605438D01*
X172283168Y-76621090D01*
X172264448Y-76634974D01*
X172244457Y-76646956D01*
X172223387Y-76656921D01*
X172201443Y-76664773D01*
X172178834Y-76670437D01*
X172155779Y-76673856D01*
X172132500Y-76675000D01*
X171557500Y-76675000D01*
X171534221Y-76673856D01*
X171511166Y-76670437D01*
X171488557Y-76664773D01*
X171466613Y-76656921D01*
X171445543Y-76646956D01*
X171425552Y-76634974D01*
X171406832Y-76621090D01*
X171389562Y-76605438D01*
X171373910Y-76588168D01*
X171360026Y-76569448D01*
X171348044Y-76549457D01*
X171338079Y-76528387D01*
X171330227Y-76506443D01*
X171324563Y-76483834D01*
X171321144Y-76460779D01*
X171320000Y-76437500D01*
X171320000Y-75962500D01*
X171321144Y-75939221D01*
X171324563Y-75916166D01*
X171330227Y-75893557D01*
X171338079Y-75871613D01*
X171348044Y-75850543D01*
X171360026Y-75830552D01*
X171373910Y-75811832D01*
X171389562Y-75794562D01*
X171406832Y-75778910D01*
X171425552Y-75765026D01*
X171445543Y-75753044D01*
X171466613Y-75743079D01*
X171488557Y-75735227D01*
X171511166Y-75729563D01*
X171534221Y-75726144D01*
X171557500Y-75725000D01*
X172132500Y-75725000D01*
X172155779Y-75726144D01*
X172155779Y-75726144D01*
G37*
D15*
G04 #@! TD*
G04 #@! TO.P,C3,1*
G04 #@! TO.N,/+12V*
X171845000Y-76200000D03*
D14*
G04 #@! TO.N,Net-(C4-Pad1)*
G04 #@! TO.C,C4*
G36*
X153105779Y-73186144D02*
X153128834Y-73189563D01*
X153151443Y-73195227D01*
X153173387Y-73203079D01*
X153194457Y-73213044D01*
X153214448Y-73225026D01*
X153233168Y-73238910D01*
X153250438Y-73254562D01*
X153266090Y-73271832D01*
X153279974Y-73290552D01*
X153291956Y-73310543D01*
X153301921Y-73331613D01*
X153309773Y-73353557D01*
X153315437Y-73376166D01*
X153318856Y-73399221D01*
X153320000Y-73422500D01*
X153320000Y-73897500D01*
X153318856Y-73920779D01*
X153315437Y-73943834D01*
X153309773Y-73966443D01*
X153301921Y-73988387D01*
X153291956Y-74009457D01*
X153279974Y-74029448D01*
X153266090Y-74048168D01*
X153250438Y-74065438D01*
X153233168Y-74081090D01*
X153214448Y-74094974D01*
X153194457Y-74106956D01*
X153173387Y-74116921D01*
X153151443Y-74124773D01*
X153128834Y-74130437D01*
X153105779Y-74133856D01*
X153082500Y-74135000D01*
X152507500Y-74135000D01*
X152484221Y-74133856D01*
X152461166Y-74130437D01*
X152438557Y-74124773D01*
X152416613Y-74116921D01*
X152395543Y-74106956D01*
X152375552Y-74094974D01*
X152356832Y-74081090D01*
X152339562Y-74065438D01*
X152323910Y-74048168D01*
X152310026Y-74029448D01*
X152298044Y-74009457D01*
X152288079Y-73988387D01*
X152280227Y-73966443D01*
X152274563Y-73943834D01*
X152271144Y-73920779D01*
X152270000Y-73897500D01*
X152270000Y-73422500D01*
X152271144Y-73399221D01*
X152274563Y-73376166D01*
X152280227Y-73353557D01*
X152288079Y-73331613D01*
X152298044Y-73310543D01*
X152310026Y-73290552D01*
X152323910Y-73271832D01*
X152339562Y-73254562D01*
X152356832Y-73238910D01*
X152375552Y-73225026D01*
X152395543Y-73213044D01*
X152416613Y-73203079D01*
X152438557Y-73195227D01*
X152461166Y-73189563D01*
X152484221Y-73186144D01*
X152507500Y-73185000D01*
X153082500Y-73185000D01*
X153105779Y-73186144D01*
X153105779Y-73186144D01*
G37*
D15*
G04 #@! TD*
G04 #@! TO.P,C4,1*
G04 #@! TO.N,Net-(C4-Pad1)*
X152795000Y-73660000D03*
D14*
G04 #@! TO.N,Net-(C4-Pad2)*
G04 #@! TO.C,C4*
G36*
X154855779Y-73186144D02*
X154878834Y-73189563D01*
X154901443Y-73195227D01*
X154923387Y-73203079D01*
X154944457Y-73213044D01*
X154964448Y-73225026D01*
X154983168Y-73238910D01*
X155000438Y-73254562D01*
X155016090Y-73271832D01*
X155029974Y-73290552D01*
X155041956Y-73310543D01*
X155051921Y-73331613D01*
X155059773Y-73353557D01*
X155065437Y-73376166D01*
X155068856Y-73399221D01*
X155070000Y-73422500D01*
X155070000Y-73897500D01*
X155068856Y-73920779D01*
X155065437Y-73943834D01*
X155059773Y-73966443D01*
X155051921Y-73988387D01*
X155041956Y-74009457D01*
X155029974Y-74029448D01*
X155016090Y-74048168D01*
X155000438Y-74065438D01*
X154983168Y-74081090D01*
X154964448Y-74094974D01*
X154944457Y-74106956D01*
X154923387Y-74116921D01*
X154901443Y-74124773D01*
X154878834Y-74130437D01*
X154855779Y-74133856D01*
X154832500Y-74135000D01*
X154257500Y-74135000D01*
X154234221Y-74133856D01*
X154211166Y-74130437D01*
X154188557Y-74124773D01*
X154166613Y-74116921D01*
X154145543Y-74106956D01*
X154125552Y-74094974D01*
X154106832Y-74081090D01*
X154089562Y-74065438D01*
X154073910Y-74048168D01*
X154060026Y-74029448D01*
X154048044Y-74009457D01*
X154038079Y-73988387D01*
X154030227Y-73966443D01*
X154024563Y-73943834D01*
X154021144Y-73920779D01*
X154020000Y-73897500D01*
X154020000Y-73422500D01*
X154021144Y-73399221D01*
X154024563Y-73376166D01*
X154030227Y-73353557D01*
X154038079Y-73331613D01*
X154048044Y-73310543D01*
X154060026Y-73290552D01*
X154073910Y-73271832D01*
X154089562Y-73254562D01*
X154106832Y-73238910D01*
X154125552Y-73225026D01*
X154145543Y-73213044D01*
X154166613Y-73203079D01*
X154188557Y-73195227D01*
X154211166Y-73189563D01*
X154234221Y-73186144D01*
X154257500Y-73185000D01*
X154832500Y-73185000D01*
X154855779Y-73186144D01*
X154855779Y-73186144D01*
G37*
D15*
G04 #@! TD*
G04 #@! TO.P,C4,2*
G04 #@! TO.N,Net-(C4-Pad2)*
X154545000Y-73660000D03*
D14*
G04 #@! TO.N,Net-(C5-Pad2)*
G04 #@! TO.C,C5*
G36*
X154855779Y-78266144D02*
X154878834Y-78269563D01*
X154901443Y-78275227D01*
X154923387Y-78283079D01*
X154944457Y-78293044D01*
X154964448Y-78305026D01*
X154983168Y-78318910D01*
X155000438Y-78334562D01*
X155016090Y-78351832D01*
X155029974Y-78370552D01*
X155041956Y-78390543D01*
X155051921Y-78411613D01*
X155059773Y-78433557D01*
X155065437Y-78456166D01*
X155068856Y-78479221D01*
X155070000Y-78502500D01*
X155070000Y-78977500D01*
X155068856Y-79000779D01*
X155065437Y-79023834D01*
X155059773Y-79046443D01*
X155051921Y-79068387D01*
X155041956Y-79089457D01*
X155029974Y-79109448D01*
X155016090Y-79128168D01*
X155000438Y-79145438D01*
X154983168Y-79161090D01*
X154964448Y-79174974D01*
X154944457Y-79186956D01*
X154923387Y-79196921D01*
X154901443Y-79204773D01*
X154878834Y-79210437D01*
X154855779Y-79213856D01*
X154832500Y-79215000D01*
X154257500Y-79215000D01*
X154234221Y-79213856D01*
X154211166Y-79210437D01*
X154188557Y-79204773D01*
X154166613Y-79196921D01*
X154145543Y-79186956D01*
X154125552Y-79174974D01*
X154106832Y-79161090D01*
X154089562Y-79145438D01*
X154073910Y-79128168D01*
X154060026Y-79109448D01*
X154048044Y-79089457D01*
X154038079Y-79068387D01*
X154030227Y-79046443D01*
X154024563Y-79023834D01*
X154021144Y-79000779D01*
X154020000Y-78977500D01*
X154020000Y-78502500D01*
X154021144Y-78479221D01*
X154024563Y-78456166D01*
X154030227Y-78433557D01*
X154038079Y-78411613D01*
X154048044Y-78390543D01*
X154060026Y-78370552D01*
X154073910Y-78351832D01*
X154089562Y-78334562D01*
X154106832Y-78318910D01*
X154125552Y-78305026D01*
X154145543Y-78293044D01*
X154166613Y-78283079D01*
X154188557Y-78275227D01*
X154211166Y-78269563D01*
X154234221Y-78266144D01*
X154257500Y-78265000D01*
X154832500Y-78265000D01*
X154855779Y-78266144D01*
X154855779Y-78266144D01*
G37*
D15*
G04 #@! TD*
G04 #@! TO.P,C5,2*
G04 #@! TO.N,Net-(C5-Pad2)*
X154545000Y-78740000D03*
D14*
G04 #@! TO.N,Net-(C5-Pad1)*
G04 #@! TO.C,C5*
G36*
X153105779Y-78266144D02*
X153128834Y-78269563D01*
X153151443Y-78275227D01*
X153173387Y-78283079D01*
X153194457Y-78293044D01*
X153214448Y-78305026D01*
X153233168Y-78318910D01*
X153250438Y-78334562D01*
X153266090Y-78351832D01*
X153279974Y-78370552D01*
X153291956Y-78390543D01*
X153301921Y-78411613D01*
X153309773Y-78433557D01*
X153315437Y-78456166D01*
X153318856Y-78479221D01*
X153320000Y-78502500D01*
X153320000Y-78977500D01*
X153318856Y-79000779D01*
X153315437Y-79023834D01*
X153309773Y-79046443D01*
X153301921Y-79068387D01*
X153291956Y-79089457D01*
X153279974Y-79109448D01*
X153266090Y-79128168D01*
X153250438Y-79145438D01*
X153233168Y-79161090D01*
X153214448Y-79174974D01*
X153194457Y-79186956D01*
X153173387Y-79196921D01*
X153151443Y-79204773D01*
X153128834Y-79210437D01*
X153105779Y-79213856D01*
X153082500Y-79215000D01*
X152507500Y-79215000D01*
X152484221Y-79213856D01*
X152461166Y-79210437D01*
X152438557Y-79204773D01*
X152416613Y-79196921D01*
X152395543Y-79186956D01*
X152375552Y-79174974D01*
X152356832Y-79161090D01*
X152339562Y-79145438D01*
X152323910Y-79128168D01*
X152310026Y-79109448D01*
X152298044Y-79089457D01*
X152288079Y-79068387D01*
X152280227Y-79046443D01*
X152274563Y-79023834D01*
X152271144Y-79000779D01*
X152270000Y-78977500D01*
X152270000Y-78502500D01*
X152271144Y-78479221D01*
X152274563Y-78456166D01*
X152280227Y-78433557D01*
X152288079Y-78411613D01*
X152298044Y-78390543D01*
X152310026Y-78370552D01*
X152323910Y-78351832D01*
X152339562Y-78334562D01*
X152356832Y-78318910D01*
X152375552Y-78305026D01*
X152395543Y-78293044D01*
X152416613Y-78283079D01*
X152438557Y-78275227D01*
X152461166Y-78269563D01*
X152484221Y-78266144D01*
X152507500Y-78265000D01*
X153082500Y-78265000D01*
X153105779Y-78266144D01*
X153105779Y-78266144D01*
G37*
D15*
G04 #@! TD*
G04 #@! TO.P,C5,1*
G04 #@! TO.N,Net-(C5-Pad1)*
X152795000Y-78740000D03*
D14*
G04 #@! TO.N,GND*
G04 #@! TO.C,C6*
G36*
X170095779Y-73186144D02*
X170118834Y-73189563D01*
X170141443Y-73195227D01*
X170163387Y-73203079D01*
X170184457Y-73213044D01*
X170204448Y-73225026D01*
X170223168Y-73238910D01*
X170240438Y-73254562D01*
X170256090Y-73271832D01*
X170269974Y-73290552D01*
X170281956Y-73310543D01*
X170291921Y-73331613D01*
X170299773Y-73353557D01*
X170305437Y-73376166D01*
X170308856Y-73399221D01*
X170310000Y-73422500D01*
X170310000Y-73897500D01*
X170308856Y-73920779D01*
X170305437Y-73943834D01*
X170299773Y-73966443D01*
X170291921Y-73988387D01*
X170281956Y-74009457D01*
X170269974Y-74029448D01*
X170256090Y-74048168D01*
X170240438Y-74065438D01*
X170223168Y-74081090D01*
X170204448Y-74094974D01*
X170184457Y-74106956D01*
X170163387Y-74116921D01*
X170141443Y-74124773D01*
X170118834Y-74130437D01*
X170095779Y-74133856D01*
X170072500Y-74135000D01*
X169497500Y-74135000D01*
X169474221Y-74133856D01*
X169451166Y-74130437D01*
X169428557Y-74124773D01*
X169406613Y-74116921D01*
X169385543Y-74106956D01*
X169365552Y-74094974D01*
X169346832Y-74081090D01*
X169329562Y-74065438D01*
X169313910Y-74048168D01*
X169300026Y-74029448D01*
X169288044Y-74009457D01*
X169278079Y-73988387D01*
X169270227Y-73966443D01*
X169264563Y-73943834D01*
X169261144Y-73920779D01*
X169260000Y-73897500D01*
X169260000Y-73422500D01*
X169261144Y-73399221D01*
X169264563Y-73376166D01*
X169270227Y-73353557D01*
X169278079Y-73331613D01*
X169288044Y-73310543D01*
X169300026Y-73290552D01*
X169313910Y-73271832D01*
X169329562Y-73254562D01*
X169346832Y-73238910D01*
X169365552Y-73225026D01*
X169385543Y-73213044D01*
X169406613Y-73203079D01*
X169428557Y-73195227D01*
X169451166Y-73189563D01*
X169474221Y-73186144D01*
X169497500Y-73185000D01*
X170072500Y-73185000D01*
X170095779Y-73186144D01*
X170095779Y-73186144D01*
G37*
D15*
G04 #@! TD*
G04 #@! TO.P,C6,2*
G04 #@! TO.N,GND*
X169785000Y-73660000D03*
D14*
G04 #@! TO.N,+5V*
G04 #@! TO.C,C6*
G36*
X168345779Y-73186144D02*
X168368834Y-73189563D01*
X168391443Y-73195227D01*
X168413387Y-73203079D01*
X168434457Y-73213044D01*
X168454448Y-73225026D01*
X168473168Y-73238910D01*
X168490438Y-73254562D01*
X168506090Y-73271832D01*
X168519974Y-73290552D01*
X168531956Y-73310543D01*
X168541921Y-73331613D01*
X168549773Y-73353557D01*
X168555437Y-73376166D01*
X168558856Y-73399221D01*
X168560000Y-73422500D01*
X168560000Y-73897500D01*
X168558856Y-73920779D01*
X168555437Y-73943834D01*
X168549773Y-73966443D01*
X168541921Y-73988387D01*
X168531956Y-74009457D01*
X168519974Y-74029448D01*
X168506090Y-74048168D01*
X168490438Y-74065438D01*
X168473168Y-74081090D01*
X168454448Y-74094974D01*
X168434457Y-74106956D01*
X168413387Y-74116921D01*
X168391443Y-74124773D01*
X168368834Y-74130437D01*
X168345779Y-74133856D01*
X168322500Y-74135000D01*
X167747500Y-74135000D01*
X167724221Y-74133856D01*
X167701166Y-74130437D01*
X167678557Y-74124773D01*
X167656613Y-74116921D01*
X167635543Y-74106956D01*
X167615552Y-74094974D01*
X167596832Y-74081090D01*
X167579562Y-74065438D01*
X167563910Y-74048168D01*
X167550026Y-74029448D01*
X167538044Y-74009457D01*
X167528079Y-73988387D01*
X167520227Y-73966443D01*
X167514563Y-73943834D01*
X167511144Y-73920779D01*
X167510000Y-73897500D01*
X167510000Y-73422500D01*
X167511144Y-73399221D01*
X167514563Y-73376166D01*
X167520227Y-73353557D01*
X167528079Y-73331613D01*
X167538044Y-73310543D01*
X167550026Y-73290552D01*
X167563910Y-73271832D01*
X167579562Y-73254562D01*
X167596832Y-73238910D01*
X167615552Y-73225026D01*
X167635543Y-73213044D01*
X167656613Y-73203079D01*
X167678557Y-73195227D01*
X167701166Y-73189563D01*
X167724221Y-73186144D01*
X167747500Y-73185000D01*
X168322500Y-73185000D01*
X168345779Y-73186144D01*
X168345779Y-73186144D01*
G37*
D15*
G04 #@! TD*
G04 #@! TO.P,C6,1*
G04 #@! TO.N,+5V*
X168035000Y-73660000D03*
D16*
G04 #@! TO.N,Net-(C1-Pad1)*
X153670000Y-75946000D03*
X155335500Y-75946000D03*
G04 #@! TO.N,Net-(C4-Pad1)*
X155335500Y-74930000D03*
X153754500Y-74930000D03*
G04 #@! TO.N,+5V*
X168148000Y-75692000D03*
X157480000Y-64516000D03*
G04 #@! TO.N,TX_1_SL*
X134591500Y-93980000D03*
X137915527Y-93980000D03*
G04 #@! TO.N,RX_1_SL*
X134591500Y-91440000D03*
X137922000Y-91440000D03*
G04 #@! TO.N,RX_2_SL*
X146529500Y-79502000D03*
X146558000Y-76962000D03*
G04 #@! TO.N,RX_1_IC*
X126463500Y-106426000D03*
X131879501Y-106426000D03*
G04 #@! TO.N,TX_1_IC*
X127758501Y-105410000D03*
X131879501Y-105410000D03*
G04 #@! TD*
D17*
G04 #@! TO.N,Net-(C1-Pad1)*
X153104315Y-75946000D02*
X151384000Y-77666315D01*
X151384000Y-77666315D02*
X149548315Y-77666315D01*
X148985000Y-77103000D02*
X148985000Y-76200000D01*
X149548315Y-77666315D02*
X148985000Y-77103000D01*
X153670000Y-75946000D02*
X153104315Y-75946000D01*
X158590000Y-75565000D02*
X156591000Y-75565000D01*
X156591000Y-75565000D02*
X156210000Y-75946000D01*
X156210000Y-75946000D02*
X155335500Y-75946000D01*
G04 #@! TO.N,Net-(C2-Pad1)*
X148985000Y-82183000D02*
X148985000Y-81280000D01*
X149352000Y-82550000D02*
X148985000Y-82183000D01*
X155554000Y-82550000D02*
X149352000Y-82550000D01*
X158590000Y-80645000D02*
X157459000Y-80645000D01*
X157459000Y-80645000D02*
X155554000Y-82550000D01*
G04 #@! TO.N,/+12V*
X162560000Y-62230000D02*
X162560000Y-65278000D01*
X163068000Y-65786000D02*
X162560000Y-65278000D01*
X171450000Y-65786000D02*
X163068000Y-65786000D01*
X171845000Y-76200000D02*
X171845000Y-66181000D01*
X171845000Y-66181000D02*
X171450000Y-65786000D01*
X162052000Y-65786000D02*
X154432000Y-65786000D01*
X162560000Y-65278000D02*
X162052000Y-65786000D01*
X154432000Y-65786000D02*
X154178000Y-65532000D01*
X154178000Y-65532000D02*
X154178000Y-51054000D01*
X153290000Y-50674000D02*
X136677400Y-50674000D01*
X154178000Y-51054000D02*
X153798000Y-50674000D01*
X153798000Y-50674000D02*
X153290000Y-50674000D01*
G04 #@! TO.N,Net-(C4-Pad2)*
X158590000Y-76835000D02*
X155067000Y-76835000D01*
X154545000Y-76313000D02*
X154545000Y-73660000D01*
X155067000Y-76835000D02*
X154545000Y-76313000D01*
G04 #@! TO.N,Net-(C4-Pad1)*
X158140000Y-74295000D02*
X158590000Y-74295000D01*
X158590000Y-74295000D02*
X156337000Y-74295000D01*
X156337000Y-74295000D02*
X156083000Y-74295000D01*
X156083000Y-74295000D02*
X155448000Y-74930000D01*
X155448000Y-74930000D02*
X155335500Y-74930000D01*
X153754500Y-74930000D02*
X153162000Y-74930000D01*
X152795000Y-74563000D02*
X152795000Y-73660000D01*
X153162000Y-74930000D02*
X152795000Y-74563000D01*
G04 #@! TO.N,Net-(C5-Pad1)*
X152795000Y-77583000D02*
X152795000Y-78740000D01*
X152908000Y-77470000D02*
X152795000Y-77583000D01*
X157505000Y-77470000D02*
X152908000Y-77470000D01*
X158590000Y-78105000D02*
X158140000Y-78105000D01*
X158140000Y-78105000D02*
X157505000Y-77470000D01*
G04 #@! TO.N,Net-(C5-Pad2)*
X155180000Y-79375000D02*
X154545000Y-78740000D01*
X158590000Y-79375000D02*
X155180000Y-79375000D01*
G04 #@! TO.N,+5V*
X168035000Y-73660000D02*
X166370000Y-73660000D01*
X165735000Y-74295000D02*
X163990000Y-74295000D01*
X166370000Y-73660000D02*
X165735000Y-74295000D01*
X168035000Y-73660000D02*
X168035000Y-75579000D01*
X168035000Y-75579000D02*
X168148000Y-75692000D01*
X157480000Y-62230000D02*
X157480000Y-64516000D01*
G04 #@! TO.N,TX_1_SL*
X129032000Y-93980000D02*
X134591500Y-93980000D01*
X168259047Y-79973047D02*
X165121000Y-76835000D01*
X166173696Y-87630000D02*
X168259047Y-85544650D01*
X137915527Y-93980000D02*
X138315526Y-93580001D01*
X138315526Y-93580001D02*
X138321999Y-93580001D01*
X168259047Y-85544650D02*
X168259047Y-79973047D01*
X138321999Y-93580001D02*
X138712501Y-93189499D01*
X138712501Y-93189499D02*
X138712501Y-87912501D01*
X138712501Y-87912501D02*
X138995002Y-87630000D01*
X165121000Y-76835000D02*
X163990000Y-76835000D01*
X138995002Y-87630000D02*
X166173696Y-87630000D01*
G04 #@! TO.N,RX_1_SL*
X129032000Y-91440000D02*
X134591500Y-91440000D01*
X137922000Y-91440000D02*
X137922000Y-87376000D01*
X165121000Y-78105000D02*
X163990000Y-78105000D01*
X137922000Y-87376000D02*
X138356990Y-86941010D01*
X138356990Y-86941010D02*
X166041014Y-86941010D01*
X166041014Y-86941010D02*
X167678037Y-85303988D01*
X167678037Y-85303988D02*
X167678037Y-80662037D01*
X167678037Y-80662037D02*
X165121000Y-78105000D01*
G04 #@! TO.N,RX_2_SL*
X146050000Y-74676000D02*
X146558000Y-75184000D01*
X129032000Y-74676000D02*
X146050000Y-74676000D01*
X146529500Y-82327172D02*
X146529500Y-79502000D01*
X146558000Y-76962000D02*
X146558000Y-75184000D01*
X158590000Y-83185000D02*
X157099000Y-83185000D01*
X157099000Y-83185000D02*
X156283010Y-84000990D01*
X148203318Y-84000990D02*
X146529500Y-82327172D01*
X156283010Y-84000990D02*
X148203318Y-84000990D01*
G04 #@! TO.N,TX_2_SL*
X145542000Y-77216000D02*
X129032000Y-77216000D01*
X157459000Y-81915000D02*
X156062000Y-83312000D01*
X158590000Y-81915000D02*
X157459000Y-81915000D01*
X156062000Y-83312000D02*
X148336000Y-83312000D01*
X148336000Y-83312000D02*
X147320000Y-82296000D01*
X147320000Y-82296000D02*
X147320000Y-78994000D01*
X147320000Y-78994000D02*
X145542000Y-77216000D01*
G04 #@! TO.N,RX_2_IC*
X128549001Y-104114999D02*
X128549001Y-108965001D01*
X129032000Y-103632000D02*
X128549001Y-104114999D01*
X165121000Y-83185000D02*
X165354000Y-83418000D01*
X163990000Y-83185000D02*
X165121000Y-83185000D01*
X133858000Y-103632000D02*
X135382000Y-102108000D01*
X129032000Y-103632000D02*
X133858000Y-103632000D01*
X135382000Y-85344000D02*
X135382000Y-102108000D01*
X165100000Y-84582000D02*
X165354000Y-84328000D01*
X136144000Y-84582000D02*
X165100000Y-84582000D01*
X135382000Y-85344000D02*
X136144000Y-84582000D01*
X165354000Y-83418000D02*
X165354000Y-84328000D01*
G04 #@! TO.N,TX_2_IC*
X165121000Y-81915000D02*
X165935010Y-82729010D01*
X163990000Y-81915000D02*
X165121000Y-81915000D01*
X135963010Y-85778990D02*
X136578990Y-85163010D01*
X135963009Y-102348663D02*
X135963010Y-85778990D01*
X165354000Y-85163010D02*
X165935010Y-84582000D01*
X165935010Y-82729010D02*
X165935010Y-84582000D01*
X131089001Y-108965001D02*
X131089001Y-104368999D01*
X136578990Y-85163010D02*
X165354000Y-85163010D01*
X131089001Y-104368999D02*
X131244990Y-104213010D01*
X131244990Y-104213010D02*
X134098662Y-104213010D01*
X134098662Y-104213010D02*
X135963009Y-102348663D01*
G04 #@! TO.N,RX_1_IC*
X123469001Y-111505001D02*
X124714000Y-110260002D01*
X124714000Y-110260002D02*
X124714000Y-107696000D01*
X124714000Y-107696000D02*
X124714000Y-106680000D01*
X124714000Y-106680000D02*
X124968000Y-106426000D01*
X124968000Y-106426000D02*
X126463500Y-106426000D01*
X165121000Y-79375000D02*
X163990000Y-79375000D01*
X167097028Y-81351028D02*
X165121000Y-79375000D01*
X167097028Y-85063326D02*
X167097028Y-81351028D01*
X131879501Y-106426000D02*
X133529012Y-106426000D01*
X133529012Y-106426000D02*
X137125027Y-102829985D01*
X137125027Y-102829985D02*
X137125027Y-86648973D01*
X137125027Y-86648973D02*
X137414000Y-86360000D01*
X137414000Y-86360000D02*
X165800352Y-86360000D01*
X165800352Y-86360000D02*
X167097028Y-85063326D01*
G04 #@! TO.N,TX_1_IC*
X126009001Y-111505001D02*
X127254000Y-110260002D01*
X127254000Y-110260002D02*
X127254000Y-107696000D01*
X127254000Y-107696000D02*
X127254000Y-105914501D01*
X127254000Y-105914501D02*
X127758501Y-105410000D01*
X166516019Y-82040019D02*
X165121000Y-80645000D01*
X166516019Y-84822663D02*
X166516019Y-82040019D01*
X165594663Y-85744019D02*
X166516019Y-84822663D01*
X165121000Y-80645000D02*
X163990000Y-80645000D01*
X134339325Y-104794019D02*
X136544018Y-102589324D01*
X136544018Y-102589324D02*
X136544019Y-86213981D01*
X136544019Y-86213981D02*
X137013980Y-85744020D01*
X137013980Y-85744020D02*
X165594663Y-85744019D01*
X131879501Y-105410000D02*
X132495481Y-104794020D01*
X132495481Y-104794020D02*
X134339325Y-104794019D01*
G04 #@! TD*
D18*
G04 #@! TO.N,GND*
G36*
X177344001Y-90373412D02*
X177283910Y-90793009D01*
X177129619Y-91132352D01*
X176886288Y-91414752D01*
X176573479Y-91617506D01*
X176192815Y-91731348D01*
X175995649Y-91746000D01*
X160343925Y-91746000D01*
X160274000Y-91732091D01*
X160204074Y-91746000D01*
X159996972Y-91787195D01*
X159762119Y-91944119D01*
X159605195Y-92178972D01*
X159550091Y-92456000D01*
X159564000Y-92525926D01*
X159564001Y-113214069D01*
X159550091Y-113284000D01*
X159605195Y-113561028D01*
X159762119Y-113795881D01*
X159996972Y-113952805D01*
X160204074Y-113994000D01*
X160204075Y-113994000D01*
X160274000Y-114007909D01*
X160343926Y-113994000D01*
X175971419Y-113994000D01*
X176391009Y-114054090D01*
X176730352Y-114208381D01*
X177012752Y-114451712D01*
X177215506Y-114764523D01*
X177329348Y-115145184D01*
X177344000Y-115342350D01*
X177344001Y-122833281D01*
X177258491Y-122859423D01*
X177166033Y-122886460D01*
X177158159Y-122890098D01*
X176636644Y-123134948D01*
X176556075Y-123187872D01*
X176474927Y-123239768D01*
X176468390Y-123245470D01*
X176036558Y-123626851D01*
X175974096Y-123700244D01*
X175910760Y-123772847D01*
X175906087Y-123780154D01*
X175598654Y-124267407D01*
X175559298Y-124355387D01*
X175518889Y-124442840D01*
X175516457Y-124451160D01*
X175516454Y-124451166D01*
X175516453Y-124451173D01*
X175358134Y-125005118D01*
X175345056Y-125100586D01*
X175330813Y-125195890D01*
X175330813Y-125204564D01*
X175334333Y-125780687D01*
X175348588Y-125876068D01*
X175361654Y-125971455D01*
X175364088Y-125979781D01*
X175529164Y-126531758D01*
X175569591Y-126619250D01*
X175608930Y-126707194D01*
X175613603Y-126714501D01*
X175926966Y-127197961D01*
X175990328Y-127270594D01*
X176052763Y-127343955D01*
X176059296Y-127349654D01*
X176059300Y-127349658D01*
X176059305Y-127349661D01*
X176495759Y-127725734D01*
X176576942Y-127777653D01*
X176657475Y-127830554D01*
X176665346Y-127834190D01*
X176665349Y-127834192D01*
X176665352Y-127834193D01*
X177189817Y-128072653D01*
X177282309Y-128099700D01*
X177344000Y-128118561D01*
X177344001Y-136093412D01*
X177283910Y-136513009D01*
X177129619Y-136852352D01*
X176886288Y-137134752D01*
X176573479Y-137337506D01*
X176192815Y-137451348D01*
X175995649Y-137466000D01*
X119678667Y-137466000D01*
X119180301Y-137403042D01*
X118755111Y-137234697D01*
X118385141Y-136965899D01*
X118093645Y-136613541D01*
X117898933Y-136199756D01*
X117806907Y-135717339D01*
X117804000Y-135624836D01*
X117804000Y-128118719D01*
X117889509Y-128092577D01*
X117981967Y-128065540D01*
X117989841Y-128061902D01*
X118511356Y-127817052D01*
X118591925Y-127764128D01*
X118673073Y-127712232D01*
X118679610Y-127706530D01*
X119111442Y-127325149D01*
X119173887Y-127251776D01*
X119237240Y-127179153D01*
X119241913Y-127171846D01*
X119549346Y-126684593D01*
X119588687Y-126596645D01*
X119629111Y-126509160D01*
X119631545Y-126500835D01*
X119789866Y-125946882D01*
X119802943Y-125851421D01*
X119817187Y-125756111D01*
X119817187Y-125747436D01*
X119813667Y-125171313D01*
X119799414Y-125075943D01*
X119786346Y-124980544D01*
X119783912Y-124972219D01*
X119618836Y-124420241D01*
X119578418Y-124332769D01*
X119539071Y-124244806D01*
X119534397Y-124237499D01*
X119221034Y-123754040D01*
X119157707Y-123681447D01*
X119095237Y-123608045D01*
X119088700Y-123602343D01*
X118652241Y-123226266D01*
X118571058Y-123174347D01*
X118490525Y-123121446D01*
X118482654Y-123117810D01*
X118482651Y-123117808D01*
X118482648Y-123117807D01*
X117958183Y-122879347D01*
X117865691Y-122852300D01*
X117804000Y-122833439D01*
X117804000Y-112772623D01*
X118111518Y-112900001D01*
X118666484Y-112900001D01*
X119179205Y-112687625D01*
X119571625Y-112295205D01*
X119659001Y-112084261D01*
X119746377Y-112295205D01*
X120138797Y-112687625D01*
X120651518Y-112900001D01*
X121206484Y-112900001D01*
X121719205Y-112687625D01*
X122111625Y-112295205D01*
X122199001Y-112084261D01*
X122286377Y-112295205D01*
X122678797Y-112687625D01*
X123191518Y-112900001D01*
X123746484Y-112900001D01*
X124259205Y-112687625D01*
X124651625Y-112295205D01*
X124739001Y-112084261D01*
X124826377Y-112295205D01*
X125218797Y-112687625D01*
X125731518Y-112900001D01*
X126286484Y-112900001D01*
X126799205Y-112687625D01*
X127191625Y-112295205D01*
X127279001Y-112084261D01*
X127366377Y-112295205D01*
X127758797Y-112687625D01*
X128271518Y-112900001D01*
X128826484Y-112900001D01*
X129339205Y-112687625D01*
X129731625Y-112295205D01*
X129819001Y-112084261D01*
X129906377Y-112295205D01*
X130298797Y-112687625D01*
X130811518Y-112900001D01*
X131366484Y-112900001D01*
X131879205Y-112687625D01*
X132271625Y-112295205D01*
X132359001Y-112084261D01*
X132446377Y-112295205D01*
X132838797Y-112687625D01*
X133351518Y-112900001D01*
X133906484Y-112900001D01*
X134419205Y-112687625D01*
X134811625Y-112295205D01*
X134899001Y-112084261D01*
X134986377Y-112295205D01*
X135378797Y-112687625D01*
X135891518Y-112900001D01*
X136446484Y-112900001D01*
X136959205Y-112687625D01*
X137351625Y-112295205D01*
X137439001Y-112084261D01*
X137526377Y-112295205D01*
X137918797Y-112687625D01*
X138431518Y-112900001D01*
X138986484Y-112900001D01*
X139499205Y-112687625D01*
X139891625Y-112295205D01*
X139979001Y-112084261D01*
X140066377Y-112295205D01*
X140458797Y-112687625D01*
X140971518Y-112900001D01*
X141526484Y-112900001D01*
X142039205Y-112687625D01*
X142431625Y-112295205D01*
X142644001Y-111782484D01*
X142644001Y-111227518D01*
X142431625Y-110714797D01*
X142039205Y-110322377D01*
X141828261Y-110235001D01*
X142039205Y-110147625D01*
X142431625Y-109755205D01*
X142644001Y-109242484D01*
X142644001Y-108687518D01*
X142431625Y-108174797D01*
X142039205Y-107782377D01*
X141526484Y-107570001D01*
X140971518Y-107570001D01*
X140458797Y-107782377D01*
X140066377Y-108174797D01*
X139979001Y-108385741D01*
X139891625Y-108174797D01*
X139499205Y-107782377D01*
X138986484Y-107570001D01*
X138431518Y-107570001D01*
X137918797Y-107782377D01*
X137526377Y-108174797D01*
X137439001Y-108385741D01*
X137351625Y-108174797D01*
X136959205Y-107782377D01*
X136446484Y-107570001D01*
X135891518Y-107570001D01*
X135378797Y-107782377D01*
X134986377Y-108174797D01*
X134899001Y-108385741D01*
X134811625Y-108174797D01*
X134419205Y-107782377D01*
X133906484Y-107570001D01*
X133351518Y-107570001D01*
X132838797Y-107782377D01*
X132446377Y-108174797D01*
X132359001Y-108385741D01*
X132271625Y-108174797D01*
X131914501Y-107817673D01*
X131914501Y-107461000D01*
X132085375Y-107461000D01*
X132465781Y-107303431D01*
X132517712Y-107251500D01*
X133447711Y-107251500D01*
X133529012Y-107267672D01*
X133610313Y-107251500D01*
X133610315Y-107251500D01*
X133851106Y-107203604D01*
X134124164Y-107021152D01*
X134170221Y-106952223D01*
X137651253Y-103471192D01*
X137720179Y-103425137D01*
X137902631Y-103152079D01*
X137950527Y-102911288D01*
X137950527Y-102911284D01*
X137966698Y-102829986D01*
X137950527Y-102748688D01*
X137950527Y-95015000D01*
X138121401Y-95015000D01*
X138501807Y-94857431D01*
X138792958Y-94566280D01*
X138950527Y-94185874D01*
X138950527Y-94125202D01*
X138963208Y-94106224D01*
X139238724Y-93830708D01*
X139307653Y-93784651D01*
X139490105Y-93511593D01*
X139538001Y-93270802D01*
X139538001Y-93270798D01*
X139554172Y-93189500D01*
X139538001Y-93108202D01*
X139538001Y-88455500D01*
X166092395Y-88455500D01*
X166173696Y-88471672D01*
X166254997Y-88455500D01*
X166254999Y-88455500D01*
X166495790Y-88407604D01*
X166768848Y-88225152D01*
X166814905Y-88156223D01*
X168785273Y-86185857D01*
X168854199Y-86139802D01*
X169036651Y-85866744D01*
X169084547Y-85625953D01*
X169084547Y-85625952D01*
X169100719Y-85544651D01*
X169084547Y-85463348D01*
X169084547Y-80054350D01*
X169100719Y-79973047D01*
X169036651Y-79650953D01*
X168900253Y-79446820D01*
X168854199Y-79377895D01*
X168785273Y-79331840D01*
X165762209Y-76308777D01*
X165716152Y-76239848D01*
X165443094Y-76057396D01*
X165202303Y-76009500D01*
X165202301Y-76009500D01*
X165121000Y-75993328D01*
X165083472Y-76000793D01*
X164987765Y-75936843D01*
X164740000Y-75887560D01*
X163240000Y-75887560D01*
X162992235Y-75936843D01*
X162782191Y-76077191D01*
X162641843Y-76287235D01*
X162592560Y-76535000D01*
X162592560Y-77135000D01*
X162641843Y-77382765D01*
X162700132Y-77470000D01*
X162641843Y-77557235D01*
X162592560Y-77805000D01*
X162592560Y-78405000D01*
X162641843Y-78652765D01*
X162700132Y-78740000D01*
X162641843Y-78827235D01*
X162592560Y-79075000D01*
X162592560Y-79675000D01*
X162641843Y-79922765D01*
X162700132Y-80010000D01*
X162641843Y-80097235D01*
X162592560Y-80345000D01*
X162592560Y-80945000D01*
X162641843Y-81192765D01*
X162700132Y-81280000D01*
X162641843Y-81367235D01*
X162592560Y-81615000D01*
X162592560Y-82215000D01*
X162641843Y-82462765D01*
X162700132Y-82550000D01*
X162641843Y-82637235D01*
X162592560Y-82885000D01*
X162592560Y-83485000D01*
X162641843Y-83732765D01*
X162657702Y-83756500D01*
X159922298Y-83756500D01*
X159938157Y-83732765D01*
X159987440Y-83485000D01*
X159987440Y-82885000D01*
X159938157Y-82637235D01*
X159879868Y-82550000D01*
X159938157Y-82462765D01*
X159987440Y-82215000D01*
X159987440Y-81615000D01*
X159938157Y-81367235D01*
X159879868Y-81280000D01*
X159938157Y-81192765D01*
X159987440Y-80945000D01*
X159987440Y-80345000D01*
X159938157Y-80097235D01*
X159879868Y-80010000D01*
X159938157Y-79922765D01*
X159987440Y-79675000D01*
X159987440Y-79075000D01*
X159938157Y-78827235D01*
X159879868Y-78740000D01*
X159938157Y-78652765D01*
X159987440Y-78405000D01*
X159987440Y-77805000D01*
X159938157Y-77557235D01*
X159879868Y-77470000D01*
X159938157Y-77382765D01*
X159987440Y-77135000D01*
X159987440Y-76535000D01*
X159938157Y-76287235D01*
X159879868Y-76200000D01*
X159938157Y-76112765D01*
X159987440Y-75865000D01*
X159987440Y-75265000D01*
X159938157Y-75017235D01*
X159879868Y-74930000D01*
X159938157Y-74842765D01*
X159987440Y-74595000D01*
X159987440Y-73995000D01*
X162592560Y-73995000D01*
X162592560Y-74595000D01*
X162641843Y-74842765D01*
X162782191Y-75052809D01*
X162992235Y-75193157D01*
X163240000Y-75242440D01*
X164740000Y-75242440D01*
X164987765Y-75193157D01*
X165096503Y-75120500D01*
X165653699Y-75120500D01*
X165735000Y-75136672D01*
X165816301Y-75120500D01*
X165816303Y-75120500D01*
X166057094Y-75072604D01*
X166330152Y-74890152D01*
X166376209Y-74821223D01*
X166711933Y-74485500D01*
X167096531Y-74485500D01*
X167121753Y-74523247D01*
X167209500Y-74581878D01*
X167209501Y-75253152D01*
X167113000Y-75486126D01*
X167113000Y-75897874D01*
X167270569Y-76278280D01*
X167561720Y-76569431D01*
X167942126Y-76727000D01*
X168353874Y-76727000D01*
X168734280Y-76569431D01*
X169025431Y-76278280D01*
X169183000Y-75897874D01*
X169183000Y-75486126D01*
X169025431Y-75105720D01*
X168860500Y-74940789D01*
X168860500Y-74581878D01*
X168948247Y-74523247D01*
X169140078Y-74236152D01*
X169207440Y-73897500D01*
X169207440Y-73422500D01*
X169140078Y-73083848D01*
X168948247Y-72796753D01*
X168661152Y-72604922D01*
X168322500Y-72537560D01*
X167747500Y-72537560D01*
X167408848Y-72604922D01*
X167121753Y-72796753D01*
X167096531Y-72834500D01*
X166451303Y-72834500D01*
X166370000Y-72818328D01*
X166288697Y-72834500D01*
X166047906Y-72882396D01*
X165774848Y-73064848D01*
X165728793Y-73133774D01*
X165393068Y-73469500D01*
X165096503Y-73469500D01*
X164987765Y-73396843D01*
X164740000Y-73347560D01*
X163240000Y-73347560D01*
X162992235Y-73396843D01*
X162782191Y-73537191D01*
X162641843Y-73747235D01*
X162592560Y-73995000D01*
X159987440Y-73995000D01*
X159938157Y-73747235D01*
X159797809Y-73537191D01*
X159587765Y-73396843D01*
X159340000Y-73347560D01*
X157840000Y-73347560D01*
X157592235Y-73396843D01*
X157483497Y-73469500D01*
X156164303Y-73469500D01*
X156083000Y-73453328D01*
X156001697Y-73469500D01*
X155760906Y-73517396D01*
X155717440Y-73546439D01*
X155717440Y-73422500D01*
X155650078Y-73083848D01*
X155458247Y-72796753D01*
X155171152Y-72604922D01*
X154832500Y-72537560D01*
X154257500Y-72537560D01*
X153918848Y-72604922D01*
X153670000Y-72771197D01*
X153421152Y-72604922D01*
X153082500Y-72537560D01*
X152507500Y-72537560D01*
X152168848Y-72604922D01*
X151881753Y-72796753D01*
X151689922Y-73083848D01*
X151622560Y-73422500D01*
X151622560Y-73897500D01*
X151689922Y-74236152D01*
X151881753Y-74523247D01*
X151955180Y-74572309D01*
X151969500Y-74644301D01*
X151969500Y-74644302D01*
X152017396Y-74885093D01*
X152199848Y-75158152D01*
X152268776Y-75204209D01*
X152471613Y-75407046D01*
X152463108Y-75419774D01*
X151042068Y-76840815D01*
X150046872Y-76840815D01*
X150090078Y-76776152D01*
X150157440Y-76437500D01*
X150157440Y-75962500D01*
X150090078Y-75623848D01*
X149898247Y-75336753D01*
X149611152Y-75144922D01*
X149272500Y-75077560D01*
X148697500Y-75077560D01*
X148358848Y-75144922D01*
X148071753Y-75336753D01*
X147879922Y-75623848D01*
X147812560Y-75962500D01*
X147812560Y-76437500D01*
X147879922Y-76776152D01*
X148071753Y-77063247D01*
X148145180Y-77112309D01*
X148159500Y-77184301D01*
X148159500Y-77184302D01*
X148207396Y-77425093D01*
X148389848Y-77698152D01*
X148458777Y-77744209D01*
X148907108Y-78192540D01*
X148953163Y-78261467D01*
X149022088Y-78307521D01*
X149226220Y-78443919D01*
X149548315Y-78507987D01*
X149629618Y-78491815D01*
X151302699Y-78491815D01*
X151384000Y-78507987D01*
X151465301Y-78491815D01*
X151465303Y-78491815D01*
X151631251Y-78458806D01*
X151622560Y-78502500D01*
X151622560Y-78977500D01*
X151689922Y-79316152D01*
X151881753Y-79603247D01*
X152168848Y-79795078D01*
X152507500Y-79862440D01*
X153082500Y-79862440D01*
X153421152Y-79795078D01*
X153670000Y-79628803D01*
X153918848Y-79795078D01*
X154257500Y-79862440D01*
X154500007Y-79862440D01*
X154538793Y-79901226D01*
X154584848Y-79970152D01*
X154704123Y-80049849D01*
X154857906Y-80152604D01*
X155180000Y-80216672D01*
X155261303Y-80200500D01*
X156736067Y-80200500D01*
X155212068Y-81724500D01*
X150116265Y-81724500D01*
X150157440Y-81517500D01*
X150157440Y-81042500D01*
X150090078Y-80703848D01*
X149898247Y-80416753D01*
X149611152Y-80224922D01*
X149272500Y-80157560D01*
X148697500Y-80157560D01*
X148358848Y-80224922D01*
X148145500Y-80367477D01*
X148145500Y-79075303D01*
X148161672Y-78994000D01*
X148097604Y-78671905D01*
X148005009Y-78533328D01*
X147915152Y-78398848D01*
X147846226Y-78352793D01*
X147238572Y-77745139D01*
X147435431Y-77548280D01*
X147593000Y-77167874D01*
X147593000Y-76756126D01*
X147435431Y-76375720D01*
X147383500Y-76323789D01*
X147383500Y-75265297D01*
X147399671Y-75183999D01*
X147383500Y-75102701D01*
X147383500Y-75102697D01*
X147335604Y-74861906D01*
X147153152Y-74588848D01*
X147084225Y-74542793D01*
X146691209Y-74149776D01*
X146645152Y-74080848D01*
X146372094Y-73898396D01*
X146131303Y-73850500D01*
X146131301Y-73850500D01*
X146050000Y-73834328D01*
X145968699Y-73850500D01*
X130182157Y-73850500D01*
X129823337Y-73491680D01*
X129309881Y-73279000D01*
X128754119Y-73279000D01*
X128240663Y-73491680D01*
X127847680Y-73884663D01*
X127635000Y-74398119D01*
X127635000Y-74953881D01*
X127847680Y-75467337D01*
X128240663Y-75860320D01*
X128447513Y-75946000D01*
X128240663Y-76031680D01*
X127847680Y-76424663D01*
X127635000Y-76938119D01*
X127635000Y-77493881D01*
X127847680Y-78007337D01*
X128240663Y-78400320D01*
X128754119Y-78613000D01*
X129309881Y-78613000D01*
X129823337Y-78400320D01*
X130182157Y-78041500D01*
X145200068Y-78041500D01*
X145863178Y-78704611D01*
X145652069Y-78915720D01*
X145494500Y-79296126D01*
X145494500Y-79707874D01*
X145652069Y-80088280D01*
X145704001Y-80140212D01*
X145704000Y-82245870D01*
X145687828Y-82327172D01*
X145704000Y-82408473D01*
X145704000Y-82408474D01*
X145751896Y-82649265D01*
X145934348Y-82922324D01*
X146003277Y-82968381D01*
X146791395Y-83756500D01*
X136225303Y-83756500D01*
X136144000Y-83740328D01*
X135821905Y-83804396D01*
X135685689Y-83895414D01*
X135548848Y-83986848D01*
X135502793Y-84055774D01*
X134855777Y-84702791D01*
X134786848Y-84748848D01*
X134604396Y-85021907D01*
X134558476Y-85252764D01*
X134540328Y-85344000D01*
X134556500Y-85425302D01*
X134556500Y-90405000D01*
X134385626Y-90405000D01*
X134005220Y-90562569D01*
X133953289Y-90614500D01*
X130182157Y-90614500D01*
X129823337Y-90255680D01*
X129309881Y-90043000D01*
X128754119Y-90043000D01*
X128240663Y-90255680D01*
X127847680Y-90648663D01*
X127635000Y-91162119D01*
X127635000Y-91717881D01*
X127847680Y-92231337D01*
X128240663Y-92624320D01*
X128447513Y-92710000D01*
X128240663Y-92795680D01*
X127847680Y-93188663D01*
X127635000Y-93702119D01*
X127635000Y-94257881D01*
X127847680Y-94771337D01*
X128240663Y-95164320D01*
X128754119Y-95377000D01*
X129309881Y-95377000D01*
X129823337Y-95164320D01*
X130182157Y-94805500D01*
X133953289Y-94805500D01*
X134005220Y-94857431D01*
X134385626Y-95015000D01*
X134556501Y-95015000D01*
X134556501Y-101766065D01*
X133516068Y-102806500D01*
X129769790Y-102806500D01*
X129823337Y-102784320D01*
X130216320Y-102391337D01*
X130429000Y-101877881D01*
X130429000Y-101322119D01*
X130216320Y-100808663D01*
X129823337Y-100415680D01*
X129616487Y-100330000D01*
X129823337Y-100244320D01*
X130216320Y-99851337D01*
X130429000Y-99337881D01*
X130429000Y-98782119D01*
X130216320Y-98268663D01*
X129823337Y-97875680D01*
X129309881Y-97663000D01*
X128754119Y-97663000D01*
X128240663Y-97875680D01*
X127847680Y-98268663D01*
X127635000Y-98782119D01*
X127635000Y-99337881D01*
X127847680Y-99851337D01*
X128240663Y-100244320D01*
X128447513Y-100330000D01*
X128240663Y-100415680D01*
X127847680Y-100808663D01*
X127635000Y-101322119D01*
X127635000Y-101877881D01*
X127847680Y-102391337D01*
X128240663Y-102784320D01*
X128595077Y-102931123D01*
X128436848Y-103036848D01*
X128390791Y-103105777D01*
X128022778Y-103473790D01*
X127953849Y-103519847D01*
X127771397Y-103792906D01*
X127726939Y-104016415D01*
X127707329Y-104114999D01*
X127723501Y-104196301D01*
X127723501Y-104375000D01*
X127552627Y-104375000D01*
X127172221Y-104532569D01*
X126881070Y-104823720D01*
X126723501Y-105204126D01*
X126723501Y-105276150D01*
X126658849Y-105319349D01*
X126612794Y-105388275D01*
X126610973Y-105391000D01*
X126257626Y-105391000D01*
X125877220Y-105548569D01*
X125825289Y-105600500D01*
X125049297Y-105600500D01*
X124967999Y-105584329D01*
X124886702Y-105600500D01*
X124886697Y-105600500D01*
X124645906Y-105648396D01*
X124372848Y-105830848D01*
X124326791Y-105899777D01*
X124187775Y-106038793D01*
X124118849Y-106084848D01*
X124072794Y-106153774D01*
X123936397Y-106357906D01*
X123872328Y-106680000D01*
X123888501Y-106761306D01*
X123888500Y-107628826D01*
X123746484Y-107570001D01*
X123191518Y-107570001D01*
X122678797Y-107782377D01*
X122286377Y-108174797D01*
X122074001Y-108687518D01*
X122074001Y-109242484D01*
X122286377Y-109755205D01*
X122678797Y-110147625D01*
X122889741Y-110235001D01*
X122678797Y-110322377D01*
X122286377Y-110714797D01*
X122199001Y-110925741D01*
X122111625Y-110714797D01*
X121719205Y-110322377D01*
X121206484Y-110110001D01*
X120651518Y-110110001D01*
X120138797Y-110322377D01*
X119746377Y-110714797D01*
X119659001Y-110925741D01*
X119571625Y-110714797D01*
X119179205Y-110322377D01*
X118968261Y-110235001D01*
X119179205Y-110147625D01*
X119571625Y-109755205D01*
X119784001Y-109242484D01*
X119784001Y-108687518D01*
X119571625Y-108174797D01*
X119179205Y-107782377D01*
X118666484Y-107570001D01*
X118111518Y-107570001D01*
X117804000Y-107697379D01*
X117804000Y-102400567D01*
X118036000Y-102400567D01*
X118036000Y-103339433D01*
X118395289Y-104206833D01*
X119059167Y-104870711D01*
X119926567Y-105230000D01*
X120865433Y-105230000D01*
X121732833Y-104870711D01*
X122396711Y-104206833D01*
X122756000Y-103339433D01*
X122756000Y-102400567D01*
X122396711Y-101533167D01*
X121732833Y-100869289D01*
X120865433Y-100510000D01*
X119926567Y-100510000D01*
X119059167Y-100869289D01*
X118395289Y-101533167D01*
X118036000Y-102400567D01*
X117804000Y-102400567D01*
X117804000Y-85636567D01*
X118036000Y-85636567D01*
X118036000Y-86575433D01*
X118395289Y-87442833D01*
X119059167Y-88106711D01*
X119134705Y-88138000D01*
X119059167Y-88169289D01*
X118395289Y-88833167D01*
X118036000Y-89700567D01*
X118036000Y-90639433D01*
X118395289Y-91506833D01*
X119059167Y-92170711D01*
X119926567Y-92530000D01*
X120865433Y-92530000D01*
X121732833Y-92170711D01*
X122396711Y-91506833D01*
X122756000Y-90639433D01*
X122756000Y-89700567D01*
X122396711Y-88833167D01*
X121732833Y-88169289D01*
X121657295Y-88138000D01*
X121732833Y-88106711D01*
X122396711Y-87442833D01*
X122756000Y-86575433D01*
X122756000Y-85636567D01*
X122396711Y-84769167D01*
X121732833Y-84105289D01*
X120865433Y-83746000D01*
X119926567Y-83746000D01*
X119059167Y-84105289D01*
X118395289Y-84769167D01*
X118036000Y-85636567D01*
X117804000Y-85636567D01*
X117804000Y-82018119D01*
X127635000Y-82018119D01*
X127635000Y-82573881D01*
X127847680Y-83087337D01*
X128240663Y-83480320D01*
X128447513Y-83566000D01*
X128240663Y-83651680D01*
X127847680Y-84044663D01*
X127635000Y-84558119D01*
X127635000Y-85113881D01*
X127847680Y-85627337D01*
X128240663Y-86020320D01*
X128754119Y-86233000D01*
X129309881Y-86233000D01*
X129823337Y-86020320D01*
X130216320Y-85627337D01*
X130429000Y-85113881D01*
X130429000Y-84558119D01*
X130216320Y-84044663D01*
X129823337Y-83651680D01*
X129616487Y-83566000D01*
X129823337Y-83480320D01*
X130216320Y-83087337D01*
X130429000Y-82573881D01*
X130429000Y-82018119D01*
X130216320Y-81504663D01*
X129823337Y-81111680D01*
X129309881Y-80899000D01*
X128754119Y-80899000D01*
X128240663Y-81111680D01*
X127847680Y-81504663D01*
X127635000Y-82018119D01*
X117804000Y-82018119D01*
X117804000Y-72936567D01*
X118036000Y-72936567D01*
X118036000Y-73875433D01*
X118395289Y-74742833D01*
X119059167Y-75406711D01*
X119926567Y-75766000D01*
X120865433Y-75766000D01*
X121732833Y-75406711D01*
X122396711Y-74742833D01*
X122756000Y-73875433D01*
X122756000Y-72936567D01*
X122396711Y-72069167D01*
X121732833Y-71405289D01*
X120865433Y-71046000D01*
X119926567Y-71046000D01*
X119059167Y-71405289D01*
X118395289Y-72069167D01*
X118036000Y-72936567D01*
X117804000Y-72936567D01*
X117804000Y-69592623D01*
X118111518Y-69720001D01*
X118666484Y-69720001D01*
X119179205Y-69507625D01*
X119571625Y-69115205D01*
X119659001Y-68904261D01*
X119746377Y-69115205D01*
X120138797Y-69507625D01*
X120651518Y-69720001D01*
X121206484Y-69720001D01*
X121719205Y-69507625D01*
X122111625Y-69115205D01*
X122199001Y-68904261D01*
X122286377Y-69115205D01*
X122678797Y-69507625D01*
X123191518Y-69720001D01*
X123746484Y-69720001D01*
X124259205Y-69507625D01*
X124651625Y-69115205D01*
X124739001Y-68904261D01*
X124826377Y-69115205D01*
X125218797Y-69507625D01*
X125731518Y-69720001D01*
X126286484Y-69720001D01*
X126799205Y-69507625D01*
X127191625Y-69115205D01*
X127279001Y-68904261D01*
X127366377Y-69115205D01*
X127758797Y-69507625D01*
X128271518Y-69720001D01*
X128826484Y-69720001D01*
X129339205Y-69507625D01*
X129731625Y-69115205D01*
X129819001Y-68904261D01*
X129906377Y-69115205D01*
X130298797Y-69507625D01*
X130811518Y-69720001D01*
X131366484Y-69720001D01*
X131879205Y-69507625D01*
X132271625Y-69115205D01*
X132359001Y-68904261D01*
X132446377Y-69115205D01*
X132838797Y-69507625D01*
X133351518Y-69720001D01*
X133906484Y-69720001D01*
X134419205Y-69507625D01*
X134811625Y-69115205D01*
X134899001Y-68904261D01*
X134986377Y-69115205D01*
X135378797Y-69507625D01*
X135891518Y-69720001D01*
X136446484Y-69720001D01*
X136959205Y-69507625D01*
X137351625Y-69115205D01*
X137439001Y-68904261D01*
X137526377Y-69115205D01*
X137918797Y-69507625D01*
X138431518Y-69720001D01*
X138986484Y-69720001D01*
X139499205Y-69507625D01*
X139891625Y-69115205D01*
X139979001Y-68904261D01*
X140066377Y-69115205D01*
X140458797Y-69507625D01*
X140971518Y-69720001D01*
X141526484Y-69720001D01*
X142039205Y-69507625D01*
X142431625Y-69115205D01*
X142644001Y-68602484D01*
X142644001Y-68047518D01*
X142431625Y-67534797D01*
X142039205Y-67142377D01*
X141828261Y-67055001D01*
X142039205Y-66967625D01*
X142431625Y-66575205D01*
X142644001Y-66062484D01*
X142644001Y-65507518D01*
X142431625Y-64994797D01*
X142039205Y-64602377D01*
X141526484Y-64390001D01*
X140971518Y-64390001D01*
X140458797Y-64602377D01*
X140066377Y-64994797D01*
X139979001Y-65205741D01*
X139891625Y-64994797D01*
X139499205Y-64602377D01*
X138986484Y-64390001D01*
X138431518Y-64390001D01*
X137918797Y-64602377D01*
X137526377Y-64994797D01*
X137439001Y-65205741D01*
X137351625Y-64994797D01*
X136959205Y-64602377D01*
X136446484Y-64390001D01*
X135891518Y-64390001D01*
X135378797Y-64602377D01*
X134986377Y-64994797D01*
X134899001Y-65205741D01*
X134811625Y-64994797D01*
X134419205Y-64602377D01*
X133906484Y-64390001D01*
X133351518Y-64390001D01*
X132838797Y-64602377D01*
X132446377Y-64994797D01*
X132359001Y-65205741D01*
X132271625Y-64994797D01*
X131879205Y-64602377D01*
X131366484Y-64390001D01*
X130811518Y-64390001D01*
X130298797Y-64602377D01*
X129906377Y-64994797D01*
X129819001Y-65205741D01*
X129731625Y-64994797D01*
X129339205Y-64602377D01*
X128826484Y-64390001D01*
X128271518Y-64390001D01*
X127758797Y-64602377D01*
X127366377Y-64994797D01*
X127279001Y-65205741D01*
X127191625Y-64994797D01*
X126799205Y-64602377D01*
X126286484Y-64390001D01*
X125731518Y-64390001D01*
X125218797Y-64602377D01*
X124826377Y-64994797D01*
X124739001Y-65205741D01*
X124651625Y-64994797D01*
X124259205Y-64602377D01*
X123746484Y-64390001D01*
X123191518Y-64390001D01*
X122678797Y-64602377D01*
X122286377Y-64994797D01*
X122199001Y-65205741D01*
X122111625Y-64994797D01*
X121719205Y-64602377D01*
X121206484Y-64390001D01*
X120651518Y-64390001D01*
X120138797Y-64602377D01*
X119746377Y-64994797D01*
X119534001Y-65507518D01*
X119534001Y-66062484D01*
X119746377Y-66575205D01*
X120138797Y-66967625D01*
X120349741Y-67055001D01*
X120138797Y-67142377D01*
X119746377Y-67534797D01*
X119659001Y-67745741D01*
X119571625Y-67534797D01*
X119179205Y-67142377D01*
X118666484Y-66930001D01*
X118111518Y-66930001D01*
X117804000Y-67057379D01*
X117804000Y-50042453D01*
X133502400Y-50042453D01*
X133502400Y-51305547D01*
X133985765Y-52472493D01*
X134878907Y-53365635D01*
X136045853Y-53849000D01*
X137308947Y-53849000D01*
X138475893Y-53365635D01*
X139369035Y-52472493D01*
X139772062Y-51499500D01*
X153352501Y-51499500D01*
X153352500Y-65450698D01*
X153336328Y-65532000D01*
X153352500Y-65613301D01*
X153352500Y-65613302D01*
X153400396Y-65854093D01*
X153582848Y-66127152D01*
X153651777Y-66173209D01*
X153790791Y-66312223D01*
X153836848Y-66381152D01*
X154109906Y-66563604D01*
X154350697Y-66611500D01*
X154350702Y-66611500D01*
X154431999Y-66627671D01*
X154513297Y-66611500D01*
X161970699Y-66611500D01*
X162052000Y-66627672D01*
X162133301Y-66611500D01*
X162133303Y-66611500D01*
X162374094Y-66563604D01*
X162560000Y-66439385D01*
X162745906Y-66563604D01*
X162986697Y-66611500D01*
X162986701Y-66611500D01*
X163067999Y-66627671D01*
X163149297Y-66611500D01*
X171019501Y-66611500D01*
X171019500Y-75278122D01*
X170931753Y-75336753D01*
X170739922Y-75623848D01*
X170672560Y-75962500D01*
X170672560Y-76437500D01*
X170739922Y-76776152D01*
X170931753Y-77063247D01*
X171218848Y-77255078D01*
X171557500Y-77322440D01*
X172132500Y-77322440D01*
X172471152Y-77255078D01*
X172758247Y-77063247D01*
X172950078Y-76776152D01*
X173017440Y-76437500D01*
X173017440Y-75962500D01*
X172950078Y-75623848D01*
X172758247Y-75336753D01*
X172670500Y-75278122D01*
X172670500Y-66262297D01*
X172686671Y-66180999D01*
X172670500Y-66099701D01*
X172670500Y-66099697D01*
X172622604Y-65858906D01*
X172440152Y-65585848D01*
X172371223Y-65539791D01*
X172091209Y-65259777D01*
X172045152Y-65190848D01*
X171772094Y-65008396D01*
X171531303Y-64960500D01*
X171531301Y-64960500D01*
X171450000Y-64944328D01*
X171368699Y-64960500D01*
X163409933Y-64960500D01*
X163385500Y-64936068D01*
X163385500Y-63380157D01*
X163744320Y-63021337D01*
X163957000Y-62507881D01*
X163957000Y-61952119D01*
X163744320Y-61438663D01*
X163351337Y-61045680D01*
X162837881Y-60833000D01*
X162282119Y-60833000D01*
X161768663Y-61045680D01*
X161375680Y-61438663D01*
X161163000Y-61952119D01*
X161163000Y-62507881D01*
X161375680Y-63021337D01*
X161734500Y-63380157D01*
X161734501Y-64936067D01*
X161710068Y-64960500D01*
X158416158Y-64960500D01*
X158515000Y-64721874D01*
X158515000Y-64310126D01*
X158357431Y-63929720D01*
X158305500Y-63877789D01*
X158305500Y-63380157D01*
X158664320Y-63021337D01*
X158877000Y-62507881D01*
X158877000Y-61952119D01*
X158664320Y-61438663D01*
X158271337Y-61045680D01*
X157757881Y-60833000D01*
X157202119Y-60833000D01*
X156688663Y-61045680D01*
X156295680Y-61438663D01*
X156083000Y-61952119D01*
X156083000Y-62507881D01*
X156295680Y-63021337D01*
X156654501Y-63380158D01*
X156654501Y-63877788D01*
X156602569Y-63929720D01*
X156445000Y-64310126D01*
X156445000Y-64721874D01*
X156543842Y-64960500D01*
X155003500Y-64960500D01*
X155003500Y-51135297D01*
X155019671Y-51053999D01*
X155003500Y-50972701D01*
X155003500Y-50972697D01*
X154955604Y-50731906D01*
X154773152Y-50458848D01*
X154704223Y-50412791D01*
X154439209Y-50147777D01*
X154393152Y-50078848D01*
X154120094Y-49896396D01*
X153879303Y-49848500D01*
X153879301Y-49848500D01*
X153798000Y-49832328D01*
X153716699Y-49848500D01*
X139772062Y-49848500D01*
X139369035Y-48875507D01*
X138475893Y-47982365D01*
X137308947Y-47499000D01*
X136045853Y-47499000D01*
X134878907Y-47982365D01*
X133985765Y-48875507D01*
X133502400Y-50042453D01*
X117804000Y-50042453D01*
X117804000Y-45668000D01*
X177344000Y-45668000D01*
X177344001Y-90373412D01*
X177344001Y-90373412D01*
G37*
X177344001Y-90373412D02*
X177283910Y-90793009D01*
X177129619Y-91132352D01*
X176886288Y-91414752D01*
X176573479Y-91617506D01*
X176192815Y-91731348D01*
X175995649Y-91746000D01*
X160343925Y-91746000D01*
X160274000Y-91732091D01*
X160204074Y-91746000D01*
X159996972Y-91787195D01*
X159762119Y-91944119D01*
X159605195Y-92178972D01*
X159550091Y-92456000D01*
X159564000Y-92525926D01*
X159564001Y-113214069D01*
X159550091Y-113284000D01*
X159605195Y-113561028D01*
X159762119Y-113795881D01*
X159996972Y-113952805D01*
X160204074Y-113994000D01*
X160204075Y-113994000D01*
X160274000Y-114007909D01*
X160343926Y-113994000D01*
X175971419Y-113994000D01*
X176391009Y-114054090D01*
X176730352Y-114208381D01*
X177012752Y-114451712D01*
X177215506Y-114764523D01*
X177329348Y-115145184D01*
X177344000Y-115342350D01*
X177344001Y-122833281D01*
X177258491Y-122859423D01*
X177166033Y-122886460D01*
X177158159Y-122890098D01*
X176636644Y-123134948D01*
X176556075Y-123187872D01*
X176474927Y-123239768D01*
X176468390Y-123245470D01*
X176036558Y-123626851D01*
X175974096Y-123700244D01*
X175910760Y-123772847D01*
X175906087Y-123780154D01*
X175598654Y-124267407D01*
X175559298Y-124355387D01*
X175518889Y-124442840D01*
X175516457Y-124451160D01*
X175516454Y-124451166D01*
X175516453Y-124451173D01*
X175358134Y-125005118D01*
X175345056Y-125100586D01*
X175330813Y-125195890D01*
X175330813Y-125204564D01*
X175334333Y-125780687D01*
X175348588Y-125876068D01*
X175361654Y-125971455D01*
X175364088Y-125979781D01*
X175529164Y-126531758D01*
X175569591Y-126619250D01*
X175608930Y-126707194D01*
X175613603Y-126714501D01*
X175926966Y-127197961D01*
X175990328Y-127270594D01*
X176052763Y-127343955D01*
X176059296Y-127349654D01*
X176059300Y-127349658D01*
X176059305Y-127349661D01*
X176495759Y-127725734D01*
X176576942Y-127777653D01*
X176657475Y-127830554D01*
X176665346Y-127834190D01*
X176665349Y-127834192D01*
X176665352Y-127834193D01*
X177189817Y-128072653D01*
X177282309Y-128099700D01*
X177344000Y-128118561D01*
X177344001Y-136093412D01*
X177283910Y-136513009D01*
X177129619Y-136852352D01*
X176886288Y-137134752D01*
X176573479Y-137337506D01*
X176192815Y-137451348D01*
X175995649Y-137466000D01*
X119678667Y-137466000D01*
X119180301Y-137403042D01*
X118755111Y-137234697D01*
X118385141Y-136965899D01*
X118093645Y-136613541D01*
X117898933Y-136199756D01*
X117806907Y-135717339D01*
X117804000Y-135624836D01*
X117804000Y-128118719D01*
X117889509Y-128092577D01*
X117981967Y-128065540D01*
X117989841Y-128061902D01*
X118511356Y-127817052D01*
X118591925Y-127764128D01*
X118673073Y-127712232D01*
X118679610Y-127706530D01*
X119111442Y-127325149D01*
X119173887Y-127251776D01*
X119237240Y-127179153D01*
X119241913Y-127171846D01*
X119549346Y-126684593D01*
X119588687Y-126596645D01*
X119629111Y-126509160D01*
X119631545Y-126500835D01*
X119789866Y-125946882D01*
X119802943Y-125851421D01*
X119817187Y-125756111D01*
X119817187Y-125747436D01*
X119813667Y-125171313D01*
X119799414Y-125075943D01*
X119786346Y-124980544D01*
X119783912Y-124972219D01*
X119618836Y-124420241D01*
X119578418Y-124332769D01*
X119539071Y-124244806D01*
X119534397Y-124237499D01*
X119221034Y-123754040D01*
X119157707Y-123681447D01*
X119095237Y-123608045D01*
X119088700Y-123602343D01*
X118652241Y-123226266D01*
X118571058Y-123174347D01*
X118490525Y-123121446D01*
X118482654Y-123117810D01*
X118482651Y-123117808D01*
X118482648Y-123117807D01*
X117958183Y-122879347D01*
X117865691Y-122852300D01*
X117804000Y-122833439D01*
X117804000Y-112772623D01*
X118111518Y-112900001D01*
X118666484Y-112900001D01*
X119179205Y-112687625D01*
X119571625Y-112295205D01*
X119659001Y-112084261D01*
X119746377Y-112295205D01*
X120138797Y-112687625D01*
X120651518Y-112900001D01*
X121206484Y-112900001D01*
X121719205Y-112687625D01*
X122111625Y-112295205D01*
X122199001Y-112084261D01*
X122286377Y-112295205D01*
X122678797Y-112687625D01*
X123191518Y-112900001D01*
X123746484Y-112900001D01*
X124259205Y-112687625D01*
X124651625Y-112295205D01*
X124739001Y-112084261D01*
X124826377Y-112295205D01*
X125218797Y-112687625D01*
X125731518Y-112900001D01*
X126286484Y-112900001D01*
X126799205Y-112687625D01*
X127191625Y-112295205D01*
X127279001Y-112084261D01*
X127366377Y-112295205D01*
X127758797Y-112687625D01*
X128271518Y-112900001D01*
X128826484Y-112900001D01*
X129339205Y-112687625D01*
X129731625Y-112295205D01*
X129819001Y-112084261D01*
X129906377Y-112295205D01*
X130298797Y-112687625D01*
X130811518Y-112900001D01*
X131366484Y-112900001D01*
X131879205Y-112687625D01*
X132271625Y-112295205D01*
X132359001Y-112084261D01*
X132446377Y-112295205D01*
X132838797Y-112687625D01*
X133351518Y-112900001D01*
X133906484Y-112900001D01*
X134419205Y-112687625D01*
X134811625Y-112295205D01*
X134899001Y-112084261D01*
X134986377Y-112295205D01*
X135378797Y-112687625D01*
X135891518Y-112900001D01*
X136446484Y-112900001D01*
X136959205Y-112687625D01*
X137351625Y-112295205D01*
X137439001Y-112084261D01*
X137526377Y-112295205D01*
X137918797Y-112687625D01*
X138431518Y-112900001D01*
X138986484Y-112900001D01*
X139499205Y-112687625D01*
X139891625Y-112295205D01*
X139979001Y-112084261D01*
X140066377Y-112295205D01*
X140458797Y-112687625D01*
X140971518Y-112900001D01*
X141526484Y-112900001D01*
X142039205Y-112687625D01*
X142431625Y-112295205D01*
X142644001Y-111782484D01*
X142644001Y-111227518D01*
X142431625Y-110714797D01*
X142039205Y-110322377D01*
X141828261Y-110235001D01*
X142039205Y-110147625D01*
X142431625Y-109755205D01*
X142644001Y-109242484D01*
X142644001Y-108687518D01*
X142431625Y-108174797D01*
X142039205Y-107782377D01*
X141526484Y-107570001D01*
X140971518Y-107570001D01*
X140458797Y-107782377D01*
X140066377Y-108174797D01*
X139979001Y-108385741D01*
X139891625Y-108174797D01*
X139499205Y-107782377D01*
X138986484Y-107570001D01*
X138431518Y-107570001D01*
X137918797Y-107782377D01*
X137526377Y-108174797D01*
X137439001Y-108385741D01*
X137351625Y-108174797D01*
X136959205Y-107782377D01*
X136446484Y-107570001D01*
X135891518Y-107570001D01*
X135378797Y-107782377D01*
X134986377Y-108174797D01*
X134899001Y-108385741D01*
X134811625Y-108174797D01*
X134419205Y-107782377D01*
X133906484Y-107570001D01*
X133351518Y-107570001D01*
X132838797Y-107782377D01*
X132446377Y-108174797D01*
X132359001Y-108385741D01*
X132271625Y-108174797D01*
X131914501Y-107817673D01*
X131914501Y-107461000D01*
X132085375Y-107461000D01*
X132465781Y-107303431D01*
X132517712Y-107251500D01*
X133447711Y-107251500D01*
X133529012Y-107267672D01*
X133610313Y-107251500D01*
X133610315Y-107251500D01*
X133851106Y-107203604D01*
X134124164Y-107021152D01*
X134170221Y-106952223D01*
X137651253Y-103471192D01*
X137720179Y-103425137D01*
X137902631Y-103152079D01*
X137950527Y-102911288D01*
X137950527Y-102911284D01*
X137966698Y-102829986D01*
X137950527Y-102748688D01*
X137950527Y-95015000D01*
X138121401Y-95015000D01*
X138501807Y-94857431D01*
X138792958Y-94566280D01*
X138950527Y-94185874D01*
X138950527Y-94125202D01*
X138963208Y-94106224D01*
X139238724Y-93830708D01*
X139307653Y-93784651D01*
X139490105Y-93511593D01*
X139538001Y-93270802D01*
X139538001Y-93270798D01*
X139554172Y-93189500D01*
X139538001Y-93108202D01*
X139538001Y-88455500D01*
X166092395Y-88455500D01*
X166173696Y-88471672D01*
X166254997Y-88455500D01*
X166254999Y-88455500D01*
X166495790Y-88407604D01*
X166768848Y-88225152D01*
X166814905Y-88156223D01*
X168785273Y-86185857D01*
X168854199Y-86139802D01*
X169036651Y-85866744D01*
X169084547Y-85625953D01*
X169084547Y-85625952D01*
X169100719Y-85544651D01*
X169084547Y-85463348D01*
X169084547Y-80054350D01*
X169100719Y-79973047D01*
X169036651Y-79650953D01*
X168900253Y-79446820D01*
X168854199Y-79377895D01*
X168785273Y-79331840D01*
X165762209Y-76308777D01*
X165716152Y-76239848D01*
X165443094Y-76057396D01*
X165202303Y-76009500D01*
X165202301Y-76009500D01*
X165121000Y-75993328D01*
X165083472Y-76000793D01*
X164987765Y-75936843D01*
X164740000Y-75887560D01*
X163240000Y-75887560D01*
X162992235Y-75936843D01*
X162782191Y-76077191D01*
X162641843Y-76287235D01*
X162592560Y-76535000D01*
X162592560Y-77135000D01*
X162641843Y-77382765D01*
X162700132Y-77470000D01*
X162641843Y-77557235D01*
X162592560Y-77805000D01*
X162592560Y-78405000D01*
X162641843Y-78652765D01*
X162700132Y-78740000D01*
X162641843Y-78827235D01*
X162592560Y-79075000D01*
X162592560Y-79675000D01*
X162641843Y-79922765D01*
X162700132Y-80010000D01*
X162641843Y-80097235D01*
X162592560Y-80345000D01*
X162592560Y-80945000D01*
X162641843Y-81192765D01*
X162700132Y-81280000D01*
X162641843Y-81367235D01*
X162592560Y-81615000D01*
X162592560Y-82215000D01*
X162641843Y-82462765D01*
X162700132Y-82550000D01*
X162641843Y-82637235D01*
X162592560Y-82885000D01*
X162592560Y-83485000D01*
X162641843Y-83732765D01*
X162657702Y-83756500D01*
X159922298Y-83756500D01*
X159938157Y-83732765D01*
X159987440Y-83485000D01*
X159987440Y-82885000D01*
X159938157Y-82637235D01*
X159879868Y-82550000D01*
X159938157Y-82462765D01*
X159987440Y-82215000D01*
X159987440Y-81615000D01*
X159938157Y-81367235D01*
X159879868Y-81280000D01*
X159938157Y-81192765D01*
X159987440Y-80945000D01*
X159987440Y-80345000D01*
X159938157Y-80097235D01*
X159879868Y-80010000D01*
X159938157Y-79922765D01*
X159987440Y-79675000D01*
X159987440Y-79075000D01*
X159938157Y-78827235D01*
X159879868Y-78740000D01*
X159938157Y-78652765D01*
X159987440Y-78405000D01*
X159987440Y-77805000D01*
X159938157Y-77557235D01*
X159879868Y-77470000D01*
X159938157Y-77382765D01*
X159987440Y-77135000D01*
X159987440Y-76535000D01*
X159938157Y-76287235D01*
X159879868Y-76200000D01*
X159938157Y-76112765D01*
X159987440Y-75865000D01*
X159987440Y-75265000D01*
X159938157Y-75017235D01*
X159879868Y-74930000D01*
X159938157Y-74842765D01*
X159987440Y-74595000D01*
X159987440Y-73995000D01*
X162592560Y-73995000D01*
X162592560Y-74595000D01*
X162641843Y-74842765D01*
X162782191Y-75052809D01*
X162992235Y-75193157D01*
X163240000Y-75242440D01*
X164740000Y-75242440D01*
X164987765Y-75193157D01*
X165096503Y-75120500D01*
X165653699Y-75120500D01*
X165735000Y-75136672D01*
X165816301Y-75120500D01*
X165816303Y-75120500D01*
X166057094Y-75072604D01*
X166330152Y-74890152D01*
X166376209Y-74821223D01*
X166711933Y-74485500D01*
X167096531Y-74485500D01*
X167121753Y-74523247D01*
X167209500Y-74581878D01*
X167209501Y-75253152D01*
X167113000Y-75486126D01*
X167113000Y-75897874D01*
X167270569Y-76278280D01*
X167561720Y-76569431D01*
X167942126Y-76727000D01*
X168353874Y-76727000D01*
X168734280Y-76569431D01*
X169025431Y-76278280D01*
X169183000Y-75897874D01*
X169183000Y-75486126D01*
X169025431Y-75105720D01*
X168860500Y-74940789D01*
X168860500Y-74581878D01*
X168948247Y-74523247D01*
X169140078Y-74236152D01*
X169207440Y-73897500D01*
X169207440Y-73422500D01*
X169140078Y-73083848D01*
X168948247Y-72796753D01*
X168661152Y-72604922D01*
X168322500Y-72537560D01*
X167747500Y-72537560D01*
X167408848Y-72604922D01*
X167121753Y-72796753D01*
X167096531Y-72834500D01*
X166451303Y-72834500D01*
X166370000Y-72818328D01*
X166288697Y-72834500D01*
X166047906Y-72882396D01*
X165774848Y-73064848D01*
X165728793Y-73133774D01*
X165393068Y-73469500D01*
X165096503Y-73469500D01*
X164987765Y-73396843D01*
X164740000Y-73347560D01*
X163240000Y-73347560D01*
X162992235Y-73396843D01*
X162782191Y-73537191D01*
X162641843Y-73747235D01*
X162592560Y-73995000D01*
X159987440Y-73995000D01*
X159938157Y-73747235D01*
X159797809Y-73537191D01*
X159587765Y-73396843D01*
X159340000Y-73347560D01*
X157840000Y-73347560D01*
X157592235Y-73396843D01*
X157483497Y-73469500D01*
X156164303Y-73469500D01*
X156083000Y-73453328D01*
X156001697Y-73469500D01*
X155760906Y-73517396D01*
X155717440Y-73546439D01*
X155717440Y-73422500D01*
X155650078Y-73083848D01*
X155458247Y-72796753D01*
X155171152Y-72604922D01*
X154832500Y-72537560D01*
X154257500Y-72537560D01*
X153918848Y-72604922D01*
X153670000Y-72771197D01*
X153421152Y-72604922D01*
X153082500Y-72537560D01*
X152507500Y-72537560D01*
X152168848Y-72604922D01*
X151881753Y-72796753D01*
X151689922Y-73083848D01*
X151622560Y-73422500D01*
X151622560Y-73897500D01*
X151689922Y-74236152D01*
X151881753Y-74523247D01*
X151955180Y-74572309D01*
X151969500Y-74644301D01*
X151969500Y-74644302D01*
X152017396Y-74885093D01*
X152199848Y-75158152D01*
X152268776Y-75204209D01*
X152471613Y-75407046D01*
X152463108Y-75419774D01*
X151042068Y-76840815D01*
X150046872Y-76840815D01*
X150090078Y-76776152D01*
X150157440Y-76437500D01*
X150157440Y-75962500D01*
X150090078Y-75623848D01*
X149898247Y-75336753D01*
X149611152Y-75144922D01*
X149272500Y-75077560D01*
X148697500Y-75077560D01*
X148358848Y-75144922D01*
X148071753Y-75336753D01*
X147879922Y-75623848D01*
X147812560Y-75962500D01*
X147812560Y-76437500D01*
X147879922Y-76776152D01*
X148071753Y-77063247D01*
X148145180Y-77112309D01*
X148159500Y-77184301D01*
X148159500Y-77184302D01*
X148207396Y-77425093D01*
X148389848Y-77698152D01*
X148458777Y-77744209D01*
X148907108Y-78192540D01*
X148953163Y-78261467D01*
X149022088Y-78307521D01*
X149226220Y-78443919D01*
X149548315Y-78507987D01*
X149629618Y-78491815D01*
X151302699Y-78491815D01*
X151384000Y-78507987D01*
X151465301Y-78491815D01*
X151465303Y-78491815D01*
X151631251Y-78458806D01*
X151622560Y-78502500D01*
X151622560Y-78977500D01*
X151689922Y-79316152D01*
X151881753Y-79603247D01*
X152168848Y-79795078D01*
X152507500Y-79862440D01*
X153082500Y-79862440D01*
X153421152Y-79795078D01*
X153670000Y-79628803D01*
X153918848Y-79795078D01*
X154257500Y-79862440D01*
X154500007Y-79862440D01*
X154538793Y-79901226D01*
X154584848Y-79970152D01*
X154704123Y-80049849D01*
X154857906Y-80152604D01*
X155180000Y-80216672D01*
X155261303Y-80200500D01*
X156736067Y-80200500D01*
X155212068Y-81724500D01*
X150116265Y-81724500D01*
X150157440Y-81517500D01*
X150157440Y-81042500D01*
X150090078Y-80703848D01*
X149898247Y-80416753D01*
X149611152Y-80224922D01*
X149272500Y-80157560D01*
X148697500Y-80157560D01*
X148358848Y-80224922D01*
X148145500Y-80367477D01*
X148145500Y-79075303D01*
X148161672Y-78994000D01*
X148097604Y-78671905D01*
X148005009Y-78533328D01*
X147915152Y-78398848D01*
X147846226Y-78352793D01*
X147238572Y-77745139D01*
X147435431Y-77548280D01*
X147593000Y-77167874D01*
X147593000Y-76756126D01*
X147435431Y-76375720D01*
X147383500Y-76323789D01*
X147383500Y-75265297D01*
X147399671Y-75183999D01*
X147383500Y-75102701D01*
X147383500Y-75102697D01*
X147335604Y-74861906D01*
X147153152Y-74588848D01*
X147084225Y-74542793D01*
X146691209Y-74149776D01*
X146645152Y-74080848D01*
X146372094Y-73898396D01*
X146131303Y-73850500D01*
X146131301Y-73850500D01*
X146050000Y-73834328D01*
X145968699Y-73850500D01*
X130182157Y-73850500D01*
X129823337Y-73491680D01*
X129309881Y-73279000D01*
X128754119Y-73279000D01*
X128240663Y-73491680D01*
X127847680Y-73884663D01*
X127635000Y-74398119D01*
X127635000Y-74953881D01*
X127847680Y-75467337D01*
X128240663Y-75860320D01*
X128447513Y-75946000D01*
X128240663Y-76031680D01*
X127847680Y-76424663D01*
X127635000Y-76938119D01*
X127635000Y-77493881D01*
X127847680Y-78007337D01*
X128240663Y-78400320D01*
X128754119Y-78613000D01*
X129309881Y-78613000D01*
X129823337Y-78400320D01*
X130182157Y-78041500D01*
X145200068Y-78041500D01*
X145863178Y-78704611D01*
X145652069Y-78915720D01*
X145494500Y-79296126D01*
X145494500Y-79707874D01*
X145652069Y-80088280D01*
X145704001Y-80140212D01*
X145704000Y-82245870D01*
X145687828Y-82327172D01*
X145704000Y-82408473D01*
X145704000Y-82408474D01*
X145751896Y-82649265D01*
X145934348Y-82922324D01*
X146003277Y-82968381D01*
X146791395Y-83756500D01*
X136225303Y-83756500D01*
X136144000Y-83740328D01*
X135821905Y-83804396D01*
X135685689Y-83895414D01*
X135548848Y-83986848D01*
X135502793Y-84055774D01*
X134855777Y-84702791D01*
X134786848Y-84748848D01*
X134604396Y-85021907D01*
X134558476Y-85252764D01*
X134540328Y-85344000D01*
X134556500Y-85425302D01*
X134556500Y-90405000D01*
X134385626Y-90405000D01*
X134005220Y-90562569D01*
X133953289Y-90614500D01*
X130182157Y-90614500D01*
X129823337Y-90255680D01*
X129309881Y-90043000D01*
X128754119Y-90043000D01*
X128240663Y-90255680D01*
X127847680Y-90648663D01*
X127635000Y-91162119D01*
X127635000Y-91717881D01*
X127847680Y-92231337D01*
X128240663Y-92624320D01*
X128447513Y-92710000D01*
X128240663Y-92795680D01*
X127847680Y-93188663D01*
X127635000Y-93702119D01*
X127635000Y-94257881D01*
X127847680Y-94771337D01*
X128240663Y-95164320D01*
X128754119Y-95377000D01*
X129309881Y-95377000D01*
X129823337Y-95164320D01*
X130182157Y-94805500D01*
X133953289Y-94805500D01*
X134005220Y-94857431D01*
X134385626Y-95015000D01*
X134556501Y-95015000D01*
X134556501Y-101766065D01*
X133516068Y-102806500D01*
X129769790Y-102806500D01*
X129823337Y-102784320D01*
X130216320Y-102391337D01*
X130429000Y-101877881D01*
X130429000Y-101322119D01*
X130216320Y-100808663D01*
X129823337Y-100415680D01*
X129616487Y-100330000D01*
X129823337Y-100244320D01*
X130216320Y-99851337D01*
X130429000Y-99337881D01*
X130429000Y-98782119D01*
X130216320Y-98268663D01*
X129823337Y-97875680D01*
X129309881Y-97663000D01*
X128754119Y-97663000D01*
X128240663Y-97875680D01*
X127847680Y-98268663D01*
X127635000Y-98782119D01*
X127635000Y-99337881D01*
X127847680Y-99851337D01*
X128240663Y-100244320D01*
X128447513Y-100330000D01*
X128240663Y-100415680D01*
X127847680Y-100808663D01*
X127635000Y-101322119D01*
X127635000Y-101877881D01*
X127847680Y-102391337D01*
X128240663Y-102784320D01*
X128595077Y-102931123D01*
X128436848Y-103036848D01*
X128390791Y-103105777D01*
X128022778Y-103473790D01*
X127953849Y-103519847D01*
X127771397Y-103792906D01*
X127726939Y-104016415D01*
X127707329Y-104114999D01*
X127723501Y-104196301D01*
X127723501Y-104375000D01*
X127552627Y-104375000D01*
X127172221Y-104532569D01*
X126881070Y-104823720D01*
X126723501Y-105204126D01*
X126723501Y-105276150D01*
X126658849Y-105319349D01*
X126612794Y-105388275D01*
X126610973Y-105391000D01*
X126257626Y-105391000D01*
X125877220Y-105548569D01*
X125825289Y-105600500D01*
X125049297Y-105600500D01*
X124967999Y-105584329D01*
X124886702Y-105600500D01*
X124886697Y-105600500D01*
X124645906Y-105648396D01*
X124372848Y-105830848D01*
X124326791Y-105899777D01*
X124187775Y-106038793D01*
X124118849Y-106084848D01*
X124072794Y-106153774D01*
X123936397Y-106357906D01*
X123872328Y-106680000D01*
X123888501Y-106761306D01*
X123888500Y-107628826D01*
X123746484Y-107570001D01*
X123191518Y-107570001D01*
X122678797Y-107782377D01*
X122286377Y-108174797D01*
X122074001Y-108687518D01*
X122074001Y-109242484D01*
X122286377Y-109755205D01*
X122678797Y-110147625D01*
X122889741Y-110235001D01*
X122678797Y-110322377D01*
X122286377Y-110714797D01*
X122199001Y-110925741D01*
X122111625Y-110714797D01*
X121719205Y-110322377D01*
X121206484Y-110110001D01*
X120651518Y-110110001D01*
X120138797Y-110322377D01*
X119746377Y-110714797D01*
X119659001Y-110925741D01*
X119571625Y-110714797D01*
X119179205Y-110322377D01*
X118968261Y-110235001D01*
X119179205Y-110147625D01*
X119571625Y-109755205D01*
X119784001Y-109242484D01*
X119784001Y-108687518D01*
X119571625Y-108174797D01*
X119179205Y-107782377D01*
X118666484Y-107570001D01*
X118111518Y-107570001D01*
X117804000Y-107697379D01*
X117804000Y-102400567D01*
X118036000Y-102400567D01*
X118036000Y-103339433D01*
X118395289Y-104206833D01*
X119059167Y-104870711D01*
X119926567Y-105230000D01*
X120865433Y-105230000D01*
X121732833Y-104870711D01*
X122396711Y-104206833D01*
X122756000Y-103339433D01*
X122756000Y-102400567D01*
X122396711Y-101533167D01*
X121732833Y-100869289D01*
X120865433Y-100510000D01*
X119926567Y-100510000D01*
X119059167Y-100869289D01*
X118395289Y-101533167D01*
X118036000Y-102400567D01*
X117804000Y-102400567D01*
X117804000Y-85636567D01*
X118036000Y-85636567D01*
X118036000Y-86575433D01*
X118395289Y-87442833D01*
X119059167Y-88106711D01*
X119134705Y-88138000D01*
X119059167Y-88169289D01*
X118395289Y-88833167D01*
X118036000Y-89700567D01*
X118036000Y-90639433D01*
X118395289Y-91506833D01*
X119059167Y-92170711D01*
X119926567Y-92530000D01*
X120865433Y-92530000D01*
X121732833Y-92170711D01*
X122396711Y-91506833D01*
X122756000Y-90639433D01*
X122756000Y-89700567D01*
X122396711Y-88833167D01*
X121732833Y-88169289D01*
X121657295Y-88138000D01*
X121732833Y-88106711D01*
X122396711Y-87442833D01*
X122756000Y-86575433D01*
X122756000Y-85636567D01*
X122396711Y-84769167D01*
X121732833Y-84105289D01*
X120865433Y-83746000D01*
X119926567Y-83746000D01*
X119059167Y-84105289D01*
X118395289Y-84769167D01*
X118036000Y-85636567D01*
X117804000Y-85636567D01*
X117804000Y-82018119D01*
X127635000Y-82018119D01*
X127635000Y-82573881D01*
X127847680Y-83087337D01*
X128240663Y-83480320D01*
X128447513Y-83566000D01*
X128240663Y-83651680D01*
X127847680Y-84044663D01*
X127635000Y-84558119D01*
X127635000Y-85113881D01*
X127847680Y-85627337D01*
X128240663Y-86020320D01*
X128754119Y-86233000D01*
X129309881Y-86233000D01*
X129823337Y-86020320D01*
X130216320Y-85627337D01*
X130429000Y-85113881D01*
X130429000Y-84558119D01*
X130216320Y-84044663D01*
X129823337Y-83651680D01*
X129616487Y-83566000D01*
X129823337Y-83480320D01*
X130216320Y-83087337D01*
X130429000Y-82573881D01*
X130429000Y-82018119D01*
X130216320Y-81504663D01*
X129823337Y-81111680D01*
X129309881Y-80899000D01*
X128754119Y-80899000D01*
X128240663Y-81111680D01*
X127847680Y-81504663D01*
X127635000Y-82018119D01*
X117804000Y-82018119D01*
X117804000Y-72936567D01*
X118036000Y-72936567D01*
X118036000Y-73875433D01*
X118395289Y-74742833D01*
X119059167Y-75406711D01*
X119926567Y-75766000D01*
X120865433Y-75766000D01*
X121732833Y-75406711D01*
X122396711Y-74742833D01*
X122756000Y-73875433D01*
X122756000Y-72936567D01*
X122396711Y-72069167D01*
X121732833Y-71405289D01*
X120865433Y-71046000D01*
X119926567Y-71046000D01*
X119059167Y-71405289D01*
X118395289Y-72069167D01*
X118036000Y-72936567D01*
X117804000Y-72936567D01*
X117804000Y-69592623D01*
X118111518Y-69720001D01*
X118666484Y-69720001D01*
X119179205Y-69507625D01*
X119571625Y-69115205D01*
X119659001Y-68904261D01*
X119746377Y-69115205D01*
X120138797Y-69507625D01*
X120651518Y-69720001D01*
X121206484Y-69720001D01*
X121719205Y-69507625D01*
X122111625Y-69115205D01*
X122199001Y-68904261D01*
X122286377Y-69115205D01*
X122678797Y-69507625D01*
X123191518Y-69720001D01*
X123746484Y-69720001D01*
X124259205Y-69507625D01*
X124651625Y-69115205D01*
X124739001Y-68904261D01*
X124826377Y-69115205D01*
X125218797Y-69507625D01*
X125731518Y-69720001D01*
X126286484Y-69720001D01*
X126799205Y-69507625D01*
X127191625Y-69115205D01*
X127279001Y-68904261D01*
X127366377Y-69115205D01*
X127758797Y-69507625D01*
X128271518Y-69720001D01*
X128826484Y-69720001D01*
X129339205Y-69507625D01*
X129731625Y-69115205D01*
X129819001Y-68904261D01*
X129906377Y-69115205D01*
X130298797Y-69507625D01*
X130811518Y-69720001D01*
X131366484Y-69720001D01*
X131879205Y-69507625D01*
X132271625Y-69115205D01*
X132359001Y-68904261D01*
X132446377Y-69115205D01*
X132838797Y-69507625D01*
X133351518Y-69720001D01*
X133906484Y-69720001D01*
X134419205Y-69507625D01*
X134811625Y-69115205D01*
X134899001Y-68904261D01*
X134986377Y-69115205D01*
X135378797Y-69507625D01*
X135891518Y-69720001D01*
X136446484Y-69720001D01*
X136959205Y-69507625D01*
X137351625Y-69115205D01*
X137439001Y-68904261D01*
X137526377Y-69115205D01*
X137918797Y-69507625D01*
X138431518Y-69720001D01*
X138986484Y-69720001D01*
X139499205Y-69507625D01*
X139891625Y-69115205D01*
X139979001Y-68904261D01*
X140066377Y-69115205D01*
X140458797Y-69507625D01*
X140971518Y-69720001D01*
X141526484Y-69720001D01*
X142039205Y-69507625D01*
X142431625Y-69115205D01*
X142644001Y-68602484D01*
X142644001Y-68047518D01*
X142431625Y-67534797D01*
X142039205Y-67142377D01*
X141828261Y-67055001D01*
X142039205Y-66967625D01*
X142431625Y-66575205D01*
X142644001Y-66062484D01*
X142644001Y-65507518D01*
X142431625Y-64994797D01*
X142039205Y-64602377D01*
X141526484Y-64390001D01*
X140971518Y-64390001D01*
X140458797Y-64602377D01*
X140066377Y-64994797D01*
X139979001Y-65205741D01*
X139891625Y-64994797D01*
X139499205Y-64602377D01*
X138986484Y-64390001D01*
X138431518Y-64390001D01*
X137918797Y-64602377D01*
X137526377Y-64994797D01*
X137439001Y-65205741D01*
X137351625Y-64994797D01*
X136959205Y-64602377D01*
X136446484Y-64390001D01*
X135891518Y-64390001D01*
X135378797Y-64602377D01*
X134986377Y-64994797D01*
X134899001Y-65205741D01*
X134811625Y-64994797D01*
X134419205Y-64602377D01*
X133906484Y-64390001D01*
X133351518Y-64390001D01*
X132838797Y-64602377D01*
X132446377Y-64994797D01*
X132359001Y-65205741D01*
X132271625Y-64994797D01*
X131879205Y-64602377D01*
X131366484Y-64390001D01*
X130811518Y-64390001D01*
X130298797Y-64602377D01*
X129906377Y-64994797D01*
X129819001Y-65205741D01*
X129731625Y-64994797D01*
X129339205Y-64602377D01*
X128826484Y-64390001D01*
X128271518Y-64390001D01*
X127758797Y-64602377D01*
X127366377Y-64994797D01*
X127279001Y-65205741D01*
X127191625Y-64994797D01*
X126799205Y-64602377D01*
X126286484Y-64390001D01*
X125731518Y-64390001D01*
X125218797Y-64602377D01*
X124826377Y-64994797D01*
X124739001Y-65205741D01*
X124651625Y-64994797D01*
X124259205Y-64602377D01*
X123746484Y-64390001D01*
X123191518Y-64390001D01*
X122678797Y-64602377D01*
X122286377Y-64994797D01*
X122199001Y-65205741D01*
X122111625Y-64994797D01*
X121719205Y-64602377D01*
X121206484Y-64390001D01*
X120651518Y-64390001D01*
X120138797Y-64602377D01*
X119746377Y-64994797D01*
X119534001Y-65507518D01*
X119534001Y-66062484D01*
X119746377Y-66575205D01*
X120138797Y-66967625D01*
X120349741Y-67055001D01*
X120138797Y-67142377D01*
X119746377Y-67534797D01*
X119659001Y-67745741D01*
X119571625Y-67534797D01*
X119179205Y-67142377D01*
X118666484Y-66930001D01*
X118111518Y-66930001D01*
X117804000Y-67057379D01*
X117804000Y-50042453D01*
X133502400Y-50042453D01*
X133502400Y-51305547D01*
X133985765Y-52472493D01*
X134878907Y-53365635D01*
X136045853Y-53849000D01*
X137308947Y-53849000D01*
X138475893Y-53365635D01*
X139369035Y-52472493D01*
X139772062Y-51499500D01*
X153352501Y-51499500D01*
X153352500Y-65450698D01*
X153336328Y-65532000D01*
X153352500Y-65613301D01*
X153352500Y-65613302D01*
X153400396Y-65854093D01*
X153582848Y-66127152D01*
X153651777Y-66173209D01*
X153790791Y-66312223D01*
X153836848Y-66381152D01*
X154109906Y-66563604D01*
X154350697Y-66611500D01*
X154350702Y-66611500D01*
X154431999Y-66627671D01*
X154513297Y-66611500D01*
X161970699Y-66611500D01*
X162052000Y-66627672D01*
X162133301Y-66611500D01*
X162133303Y-66611500D01*
X162374094Y-66563604D01*
X162560000Y-66439385D01*
X162745906Y-66563604D01*
X162986697Y-66611500D01*
X162986701Y-66611500D01*
X163067999Y-66627671D01*
X163149297Y-66611500D01*
X171019501Y-66611500D01*
X171019500Y-75278122D01*
X170931753Y-75336753D01*
X170739922Y-75623848D01*
X170672560Y-75962500D01*
X170672560Y-76437500D01*
X170739922Y-76776152D01*
X170931753Y-77063247D01*
X171218848Y-77255078D01*
X171557500Y-77322440D01*
X172132500Y-77322440D01*
X172471152Y-77255078D01*
X172758247Y-77063247D01*
X172950078Y-76776152D01*
X173017440Y-76437500D01*
X173017440Y-75962500D01*
X172950078Y-75623848D01*
X172758247Y-75336753D01*
X172670500Y-75278122D01*
X172670500Y-66262297D01*
X172686671Y-66180999D01*
X172670500Y-66099701D01*
X172670500Y-66099697D01*
X172622604Y-65858906D01*
X172440152Y-65585848D01*
X172371223Y-65539791D01*
X172091209Y-65259777D01*
X172045152Y-65190848D01*
X171772094Y-65008396D01*
X171531303Y-64960500D01*
X171531301Y-64960500D01*
X171450000Y-64944328D01*
X171368699Y-64960500D01*
X163409933Y-64960500D01*
X163385500Y-64936068D01*
X163385500Y-63380157D01*
X163744320Y-63021337D01*
X163957000Y-62507881D01*
X163957000Y-61952119D01*
X163744320Y-61438663D01*
X163351337Y-61045680D01*
X162837881Y-60833000D01*
X162282119Y-60833000D01*
X161768663Y-61045680D01*
X161375680Y-61438663D01*
X161163000Y-61952119D01*
X161163000Y-62507881D01*
X161375680Y-63021337D01*
X161734500Y-63380157D01*
X161734501Y-64936067D01*
X161710068Y-64960500D01*
X158416158Y-64960500D01*
X158515000Y-64721874D01*
X158515000Y-64310126D01*
X158357431Y-63929720D01*
X158305500Y-63877789D01*
X158305500Y-63380157D01*
X158664320Y-63021337D01*
X158877000Y-62507881D01*
X158877000Y-61952119D01*
X158664320Y-61438663D01*
X158271337Y-61045680D01*
X157757881Y-60833000D01*
X157202119Y-60833000D01*
X156688663Y-61045680D01*
X156295680Y-61438663D01*
X156083000Y-61952119D01*
X156083000Y-62507881D01*
X156295680Y-63021337D01*
X156654501Y-63380158D01*
X156654501Y-63877788D01*
X156602569Y-63929720D01*
X156445000Y-64310126D01*
X156445000Y-64721874D01*
X156543842Y-64960500D01*
X155003500Y-64960500D01*
X155003500Y-51135297D01*
X155019671Y-51053999D01*
X155003500Y-50972701D01*
X155003500Y-50972697D01*
X154955604Y-50731906D01*
X154773152Y-50458848D01*
X154704223Y-50412791D01*
X154439209Y-50147777D01*
X154393152Y-50078848D01*
X154120094Y-49896396D01*
X153879303Y-49848500D01*
X153879301Y-49848500D01*
X153798000Y-49832328D01*
X153716699Y-49848500D01*
X139772062Y-49848500D01*
X139369035Y-48875507D01*
X138475893Y-47982365D01*
X137308947Y-47499000D01*
X136045853Y-47499000D01*
X134878907Y-47982365D01*
X133985765Y-48875507D01*
X133502400Y-50042453D01*
X117804000Y-50042453D01*
X117804000Y-45668000D01*
X177344000Y-45668000D01*
X177344001Y-90373412D01*
G04 #@! TD*
M02*
